<svg width="24" height="24" viewBox="0 0 24 24" fill="none" xmlns="http://www.w3.org/2000/svg">
<path d="M22 10.9998H18C17.561 10.9998 17.188 11.2828 17.051 11.6838L15 17.8378L9.949 2.6838C9.774 2.1598 9.208 1.8768 8.684 2.0508C8.374 2.1538 8.149 2.3938 8.051 2.6838L5.279 10.9998H2C1.448 10.9998 1 11.4478 1 11.9998C1 12.5518 1.448 12.9998 2 12.9998H6C6.423 12.9968 6.81 12.7328 6.949 12.3158L9 6.1618L14.051 21.3158C14.149 21.6058 14.374 21.8448 14.683 21.9478C15.207 22.1228 15.773 21.8388 15.948 21.3158L18.721 12.9998H22C22.552 12.9998 23 12.5518 23 11.9998C23 11.4478 22.552 10.9998 22 10.9998Z" fill="black"/>
</svg>
