<svg width="24" height="24" viewBox="0 0 24 24" fill="none" xmlns="http://www.w3.org/2000/svg">
<path d="M5 16H4C3.724 16 3.475 15.889 3.293 15.707C3.111 15.525 3 15.276 3 15V5C3 4.724 3.111 4.475 3.293 4.293C3.475 4.111 3.724 4 4 4H20C20.276 4 20.525 4.111 20.707 4.293C20.889 4.475 21 4.724 21 5V15C21 15.276 20.889 15.525 20.707 15.707C20.525 15.889 20.276 16 20 16H19C18.448 16 18 16.448 18 17C18 17.552 18.448 18 19 18H20C20.828 18 21.58 17.663 22.121 17.121C22.662 16.579 23 15.828 23 15V5C23 4.172 22.663 3.42 22.121 2.879C21.579 2.338 20.828 2 20 2H4C3.172 2 2.42 2.337 1.879 2.879C1.338 3.421 1 4.172 1 5V15C1 15.828 1.337 16.58 1.879 17.121C2.421 17.662 3.172 18 4 18H5C5.552 18 6 17.552 6 17C6 16.448 5.552 16 5 16ZM12.768 14.36C12.733 14.317 12.689 14.273 12.64 14.232C12.216 13.878 11.585 13.936 11.232 14.36L6.232 20.36C6.088 20.532 6 20.756 6 21C6 21.552 6.448 22 7 22H17C17.225 22.001 17.453 21.925 17.64 21.768C18.064 21.414 18.122 20.784 17.768 20.36L12.768 14.36ZM12 16.562L14.865 20H9.135L12 16.562Z" fill="black"/>
</svg>
