<svg width="24" height="24" viewBox="0 0 24 24" fill="none" xmlns="http://www.w3.org/2000/svg">
<path d="M11.148 4.3738C11.221 4.2508 11.333 4.1318 11.482 4.0418C11.718 3.8988 11.988 3.8638 12.238 3.9258C12.488 3.9878 12.712 4.1418 12.852 4.3738L21.318 18.5068C21.388 18.6268 21.437 18.7748 21.446 18.9408C21.431 19.3088 21.327 19.5318 21.163 19.6998C20.983 19.8838 20.736 19.9978 20.47 20.0008L3.53296 19.9998C3.38096 19.9988 3.21196 19.9588 3.05196 19.8658C2.81296 19.7278 2.65296 19.5068 2.58596 19.2588C2.51896 19.0108 2.54796 18.7398 2.67796 18.5138L11.148 4.3738ZM9.43196 3.3458L0.961963 17.4858C0.539963 18.2168 0.455963 19.0358 0.653963 19.7758C0.851963 20.5158 1.33396 21.1838 2.05196 21.5978C2.51596 21.8658 3.02796 21.9978 3.52696 21.9998H20.47C21.309 21.9908 22.057 21.6458 22.593 21.0978C23.129 20.5498 23.457 19.7948 23.448 18.9668C23.442 18.4308 23.295 17.9228 23.042 17.4928L14.568 3.3458C14.136 2.6328 13.458 2.1648 12.714 1.9828C11.97 1.8008 11.153 1.9018 10.445 2.3318C10.016 2.5918 9.66896 2.9468 9.43196 3.3458ZM11 8.9998V12.9998C11 13.5518 11.448 13.9998 12 13.9998C12.552 13.9998 13 13.5518 13 12.9998V8.9998C13 8.4478 12.552 7.9998 12 7.9998C11.448 7.9998 11 8.4478 11 8.9998ZM12 17.9998C12.552 17.9998 13 17.5518 13 16.9998C13 16.4478 12.552 15.9998 12 15.9998C11.448 15.9998 11 16.4478 11 16.9998C11 17.5518 11.448 17.9998 12 17.9998Z" fill="black"/>
</svg>
