<svg width="24" height="24" viewBox="0 0 24 24" fill="none" xmlns="http://www.w3.org/2000/svg">
<path d="M7.86 1C7.604 1 7.348 1.098 7.153 1.293L1.293 7.153C1.112 7.334 1 7.584 1 7.86V16.14C1 16.396 1.098 16.652 1.293 16.847L7.153 22.707C7.334 22.888 7.584 23 7.86 23H16.14C16.396 23 16.652 22.902 16.847 22.707L22.707 16.847C22.888 16.666 23 16.416 23 16.14V7.86C23 7.604 22.902 7.348 22.707 7.153L16.847 1.293C16.666 1.112 16.416 1 16.14 1H7.86ZM8.274 3H15.726L21 8.274V15.726L15.726 21H8.274L3 15.726V8.274L8.274 3ZM11 8V12C11 12.552 11.448 13 12 13C12.552 13 13 12.552 13 12V8C13 7.448 12.552 7 12 7C11.448 7 11 7.448 11 8ZM12 17C12.552 17 13 16.552 13 16C13 15.448 12.552 15 12 15C11.448 15 11 15.448 11 16C11 16.552 11.448 17 12 17Z" fill="black"/>
</svg>
