<svg width="24" height="24" viewBox="0 0 24 24" fill="none" xmlns="http://www.w3.org/2000/svg">
<path d="M21 9H7C6.448 9 6 9.448 6 10C6 10.552 6.448 11 7 11H21C21.552 11 22 10.552 22 10C22 9.448 21.552 9 21 9ZM21 5H3C2.448 5 2 5.448 2 6C2 6.552 2.448 7 3 7H21C21.552 7 22 6.552 22 6C22 5.448 21.552 5 21 5ZM21 13H3C2.448 13 2 13.448 2 14C2 14.552 2.448 15 3 15H21C21.552 15 22 14.552 22 14C22 13.448 21.552 13 21 13ZM21 17H7C6.448 17 6 17.448 6 18C6 18.552 6.448 19 7 19H21C21.552 19 22 18.552 22 18C22 17.448 21.552 17 21 17Z" fill="black"/>
</svg>
