<svg width="24" height="24" viewBox="0 0 24 24" fill="none" xmlns="http://www.w3.org/2000/svg">
<path d="M18 9H6C5.448 9 5 9.448 5 10C5 10.552 5.448 11 6 11H18C18.552 11 19 10.552 19 10C19 9.448 18.552 9 18 9ZM21 5H3C2.448 5 2 5.448 2 6C2 6.552 2.448 7 3 7H21C21.552 7 22 6.552 22 6C22 5.448 21.552 5 21 5ZM21 13H3C2.448 13 2 13.448 2 14C2 14.552 2.448 15 3 15H21C21.552 15 22 14.552 22 14C22 13.448 21.552 13 21 13ZM18 17H6C5.448 17 5 17.448 5 18C5 18.552 5.448 19 6 19H18C18.552 19 19 18.552 19 18C19 17.448 18.552 17 18 17Z" fill="black"/>
</svg>
