<svg width="24" height="24" viewBox="0 0 24 24" fill="none" xmlns="http://www.w3.org/2000/svg">
<path d="M14 5C14 5.553 13.777 6.051 13.414 6.414C13.051 6.777 12.553 7 12 7C11.447 7 10.949 6.777 10.586 6.414C10.223 6.051 10 5.553 10 5C10 4.447 10.223 3.949 10.586 3.586C10.949 3.223 11.447 3 12 3C12.553 3 13.051 3.223 13.414 3.586C13.777 3.949 14 4.447 14 5ZM5 11H2C1.448 11 1 11.448 1 12C1 15.037 2.232 17.789 4.222 19.778C6.212 21.767 8.963 23 12 23C15.037 23 17.789 21.768 19.778 19.778C21.767 17.788 23 15.037 23 12C23 11.448 22.552 11 22 11H19C18.448 11 18 11.448 18 12C18 12.552 18.448 13 19 13H20.945C20.715 15.086 19.772 16.956 18.364 18.364C16.956 19.772 15.086 20.715 13 20.945V8.874C13.703 8.693 14.332 8.325 14.828 7.829C15.551 7.106 16 6.104 16 5C16 3.896 15.551 2.894 14.828 2.172C14.105 1.45 13.104 1 12 1C10.896 1 9.894 1.449 9.172 2.172C8.45 2.895 8 3.896 8 5C8 6.104 8.449 7.106 9.172 7.828C9.668 8.325 10.297 8.693 11 8.874V20.945C8.914 20.715 7.044 19.772 5.636 18.364C4.228 16.956 3.285 15.086 3.055 13H5C5.552 13 6 12.552 6 12C6 11.448 5.552 11 5 11Z" fill="black"/>
</svg>
