<svg width="24" height="24" viewBox="0 0 24 24" fill="none" xmlns="http://www.w3.org/2000/svg">
<path d="M11.422 7L13.645 3.15C15.47 3.487 17.102 4.375 18.364 5.636C18.78 6.052 19.156 6.509 19.485 7H14.291H11.422ZM7.38 10L5.158 6.153C5.311 5.974 5.47 5.802 5.636 5.636C7.136 4.136 9.161 3.164 11.411 3.019L8.819 7.509L7.38 10ZM7.958 15H3.512C3.18 14.062 3 13.052 3 12C3 10.57 3.333 9.219 3.926 8.018L6.526 12.522L7.958 15ZM17.473 11.478L16.042 9H20.488C20.82 9.938 21 10.948 21 12C21 13.43 20.667 14.781 20.074 15.982L17.498 11.52L17.473 11.478ZM12.588 20.981L16.62 14L18.842 17.848C18.689 18.026 18.53 18.199 18.364 18.364C16.864 19.864 14.838 20.836 12.588 20.981ZM10.7 22.924C10.746 22.932 10.792 22.938 10.839 22.939C11.22 22.979 11.608 23 12 23C15.037 23 17.789 21.768 19.778 19.778C20.144 19.412 20.484 19.021 20.795 18.607C20.837 18.56 20.874 18.51 20.905 18.458C22.223 16.645 23 14.412 23 12C23 10.461 22.683 8.995 22.112 7.664C22.096 7.62 22.078 7.578 22.057 7.538C21.504 6.294 20.727 5.171 19.778 4.222C18.077 2.521 15.818 1.373 13.3 1.076C13.254 1.068 13.208 1.062 13.161 1.061C12.78 1.021 12.392 1 12 1C8.963 1 6.211 2.232 4.222 4.222C3.856 4.587 3.516 4.979 3.205 5.393C3.163 5.44 3.126 5.49 3.094 5.542C1.777 7.355 1 9.588 1 12C1 13.539 1.317 15.005 1.888 16.336C1.904 16.38 1.922 16.422 1.943 16.462C2.496 17.706 3.273 18.829 4.222 19.778C5.923 21.479 8.182 22.627 10.7 22.924ZM12.578 17L10.355 20.85C8.53 20.513 6.898 19.625 5.636 18.364C5.22 17.948 4.844 17.491 4.515 17H9.709H12.578ZM15.465 12L13.733 15H10.267L8.535 12L10.267 9H13.733L15.465 12Z" fill="black"/>
</svg>
