<svg width="24" height="24" viewBox="0 0 24 24" fill="none" xmlns="http://www.w3.org/2000/svg">
<path d="M11.293 5.70676L16.586 10.9998H5C4.448 10.9998 4 11.4478 4 11.9998C4 12.5518 4.448 12.9998 5 12.9998H16.586L11.293 18.2928C10.902 18.6838 10.902 19.3168 11.293 19.7068C11.684 20.0968 12.317 20.0978 12.707 19.7068L19.707 12.7068C19.799 12.6148 19.873 12.5048 19.924 12.3828C20.025 12.1378 20.025 11.8618 19.924 11.6168C19.875 11.4988 19.803 11.3888 19.707 11.2928L12.707 4.29276C12.316 3.90176 11.683 3.90176 11.293 4.29276C10.903 4.68376 10.902 5.31676 11.293 5.70676Z" fill="black"/>
</svg>
