<svg width="24" height="24" viewBox="0 0 24 24" fill="none" xmlns="http://www.w3.org/2000/svg">
<path d="M7.00001 8H14.586L6.29301 16.293C5.90201 16.684 5.90201 17.317 6.29301 17.707C6.68401 18.097 7.31701 18.098 7.70701 17.707L16 9.414V17C16 17.552 16.448 18 17 18C17.552 18 18 17.552 18 17V7C18 6.864 17.973 6.735 17.924 6.617C17.875 6.499 17.803 6.389 17.708 6.294L17.706 6.292C17.614 6.2 17.504 6.126 17.383 6.076C17.265 6.027 17.136 6 17 6H7.00001C6.44801 6 6.00001 6.448 6.00001 7C6.00001 7.552 6.44801 8 7.00001 8Z" fill="black"/>
</svg>
