<svg width="24" height="24" viewBox="0 0 24 24" fill="none" xmlns="http://www.w3.org/2000/svg">
<path d="M23 12C23 8.963 21.768 6.211 19.778 4.222C17.788 2.233 15.037 1 12 1C8.963 1 6.211 2.232 4.222 4.222C2.233 6.212 1 8.963 1 12C1 15.037 2.232 17.789 4.222 19.778C6.212 21.767 8.963 23 12 23C15.037 23 17.789 21.768 19.778 19.778C21.767 17.788 23 15.037 23 12ZM21 12C21 14.486 19.994 16.734 18.364 18.364C16.734 19.994 14.486 21 12 21C9.514 21 7.266 19.994 5.636 18.364C4.006 16.734 3 14.486 3 12C3 9.514 4.006 7.266 5.636 5.636C7.266 4.006 9.514 3 12 3C14.486 3 16.734 4.006 18.364 5.636C19.994 7.266 21 9.514 21 12ZM8 13H13.586L11.293 15.293C10.902 15.684 10.902 16.317 11.293 16.707C11.684 17.097 12.317 17.098 12.707 16.707L16.707 12.707C16.799 12.615 16.873 12.505 16.924 12.383C17.025 12.138 17.025 11.862 16.924 11.617C16.875 11.499 16.803 11.389 16.707 11.293L12.707 7.293C12.316 6.902 11.683 6.902 11.293 7.293C10.903 7.684 10.902 8.317 11.293 8.707L13.586 11H8C7.448 11 7 11.448 7 12C7 12.552 7.448 13 8 13Z" fill="black"/>
</svg>
