<svg width="24" height="24" viewBox="0 0 24 24" fill="none" xmlns="http://www.w3.org/2000/svg">
<path d="M18.293 11.293L13 16.586V5C13 4.448 12.552 4 12 4C11.448 4 11 4.448 11 5V16.586L5.707 11.293C5.316 10.902 4.683 10.902 4.293 11.293C3.903 11.684 3.902 12.317 4.293 12.707L11.293 19.707C11.385 19.799 11.495 19.873 11.617 19.924C11.862 20.025 12.138 20.025 12.383 19.924C12.501 19.875 12.611 19.803 12.707 19.707L19.707 12.707C20.098 12.316 20.098 11.683 19.707 11.293C19.316 10.903 18.683 10.902 18.293 11.293Z" fill="black"/>
</svg>
