<svg width="24" height="24" viewBox="0 0 24 24" fill="none" xmlns="http://www.w3.org/2000/svg">
<path d="M5.70701 12.707L11 7.414V19C11 19.552 11.448 20 12 20C12.552 20 13 19.552 13 19V7.414L18.293 12.707C18.684 13.098 19.317 13.098 19.707 12.707C20.097 12.316 20.098 11.683 19.707 11.293L12.707 4.293C12.615 4.201 12.505 4.127 12.383 4.076C12.261 4.025 12.13 4 12 4C11.744 4 11.488 4.098 11.293 4.293L4.29301 11.293C3.90201 11.684 3.90201 12.317 4.29301 12.707C4.68401 13.097 5.31701 13.098 5.70701 12.707Z" fill="black"/>
</svg>
