<svg width="24" height="24" viewBox="0 0 24 24" fill="none" xmlns="http://www.w3.org/2000/svg">
<path d="M16 6.99976V14.5858L7.707 6.29276C7.316 5.90176 6.683 5.90176 6.293 6.29276C5.903 6.68376 5.902 7.31676 6.293 7.70676L14.586 15.9998H7C6.448 15.9998 6 16.4478 6 16.9998C6 17.5518 6.448 17.9998 7 17.9998H17C17.136 17.9998 17.265 17.9728 17.383 17.9238C17.501 17.8748 17.611 17.8028 17.707 17.7068C17.799 17.6148 17.873 17.5048 17.924 17.3828C17.973 17.2648 18 17.1358 18 16.9998V6.99976C18 6.44776 17.552 5.99976 17 5.99976C16.448 5.99976 16 6.44776 16 6.99976Z" fill="black"/>
</svg>
