<svg width="24" height="24" viewBox="0 0 24 24" fill="none" xmlns="http://www.w3.org/2000/svg">
<path d="M12.707 18.2929L7.414 12.9999H19C19.552 12.9999 20 12.5519 20 11.9999C20 11.4479 19.552 10.9999 19 10.9999H7.414L12.707 5.70687C13.098 5.31587 13.098 4.68288 12.707 4.29288C12.316 3.90288 11.683 3.90188 11.293 4.29288L4.293 11.2929C4.197 11.3889 4.125 11.4989 4.076 11.6169C4.025 11.7389 4 11.8699 4 11.9999C4 12.2559 4.098 12.5119 4.293 12.7069L11.293 19.7069C11.684 20.0979 12.317 20.0979 12.707 19.7069C13.097 19.3159 13.098 18.6829 12.707 18.2929Z" fill="black"/>
</svg>
