<svg width="24" height="24" viewBox="0 0 24 24" fill="none" xmlns="http://www.w3.org/2000/svg">
<path d="M23 12C23 8.963 21.768 6.211 19.778 4.222C17.788 2.233 15.037 1 12 1C8.963 1 6.211 2.232 4.222 4.222C2.233 6.212 1 8.963 1 12C1 15.037 2.232 17.789 4.222 19.778C6.212 21.767 8.963 23 12 23C15.037 23 17.789 21.768 19.778 19.778C21.767 17.788 23 15.037 23 12ZM21 12C21 14.486 19.994 16.734 18.364 18.364C16.734 19.994 14.486 21 12 21C9.514 21 7.266 19.994 5.636 18.364C4.006 16.734 3 14.486 3 12C3 9.514 4.006 7.266 5.636 5.636C7.266 4.006 9.514 3 12 3C14.486 3 16.734 4.006 18.364 5.636C19.994 7.266 21 9.514 21 12ZM11 8V13.586L8.707 11.293C8.316 10.902 7.683 10.902 7.293 11.293C6.903 11.684 6.902 12.317 7.293 12.707L11.293 16.707C11.385 16.799 11.495 16.873 11.617 16.924C11.862 17.025 12.138 17.025 12.383 16.924C12.501 16.875 12.611 16.803 12.707 16.707L16.707 12.707C17.098 12.316 17.098 11.683 16.707 11.293C16.316 10.903 15.683 10.902 15.293 11.293L13 13.586V8C13 7.448 12.552 7 12 7C11.448 7 11 7.448 11 8Z" fill="black"/>
</svg>
