<svg width="24" height="24" viewBox="0 0 24 24" fill="none" xmlns="http://www.w3.org/2000/svg">
<path d="M15 12C15 12.829 14.665 13.577 14.121 14.121C13.577 14.665 12.829 15 12 15C11.171 15 10.423 14.665 9.879 14.121C9.335 13.577 9 12.829 9 12C9 11.171 9.335 10.423 9.879 9.87898C10.423 9.33498 11.171 8.99998 12 8.99998C12.829 8.99998 13.577 9.33498 14.121 9.87898C14.665 10.423 15 11.171 15 12ZM15.74 15.318C15.87 15.5 16.014 15.671 16.171 15.828C16.894 16.551 17.896 17 19 17C20.104 17 21.106 16.551 21.828 15.828C22.55 15.105 23 14.104 23 13V12C23 8.96298 21.767 6.21098 19.778 4.22198C17.789 2.23298 15.037 0.999977 11.999 1.00098C8.961 1.00198 6.211 2.23298 4.221 4.22298C2.231 6.21298 1 8.96398 1 12.001C1 15.038 2.233 17.79 4.222 19.779C6.211 21.768 8.963 23.001 12 23C14.525 23 16.855 22.148 18.69 20.731C19.127 20.394 19.208 19.766 18.87 19.328C18.532 18.89 17.905 18.81 17.467 19.148C15.98 20.296 14.09 20.992 12.032 21C9.492 20.991 7.256 19.986 5.634 18.364C4.007 16.735 3 14.487 3 12.001C3 9.51498 4.006 7.26698 5.636 5.63698C7.266 4.00698 9.514 3.00098 12 3.00098C14.486 3.00098 16.734 4.00698 18.364 5.63698C19.994 7.26698 21 9.51498 21 12V13C21 13.553 20.777 14.051 20.414 14.414C20.051 14.777 19.553 15 19 15C18.447 15 17.949 14.777 17.586 14.414C17.223 14.051 17 13.553 17 13V7.99998C17 7.44798 16.552 6.99998 16 6.99998C15.448 6.99998 15 7.44798 15 7.99998C14.165 7.37298 13.125 6.99998 12 6.99998C10.62 6.99998 9.368 7.56098 8.464 8.46398C7.56 9.36698 7 10.62 7 12C7 13.38 7.561 14.632 8.464 15.536C9.367 16.44 10.62 17 12 17C13.38 17 14.632 16.439 15.536 15.536C15.606 15.466 15.675 15.393 15.741 15.319L15.74 15.318Z" fill="black"/>
</svg>
