<svg width="24" height="24" viewBox="0 0 24 24" fill="none" xmlns="http://www.w3.org/2000/svg">
<path d="M14.986 15.424L15.736 21.076L12.515 19.143C12.204 18.959 11.812 18.947 11.486 19.143L8.265 21.076L9.016 15.425C9.937 15.796 10.945 16 12 16C13.055 16 14.063 15.795 14.986 15.424ZM15.332 12.991C15.274 13.021 15.219 13.056 15.169 13.096C14.249 13.669 13.164 14 12 14C10.343 14 8.844 13.33 7.757 12.243C6.67 11.156 6 9.657 6 8C6 6.343 6.67 4.844 7.757 3.757C8.844 2.67 10.343 2 12 2C13.657 2 15.156 2.67 16.243 3.757C17.33 4.844 18 6.343 18 8C18 9.657 17.33 11.156 16.243 12.243C15.965 12.521 15.66 12.772 15.332 12.991ZM7.14 14.355L6.009 22.868C5.936 23.415 6.321 23.918 6.869 23.991C7.103 24.022 7.33 23.969 7.515 23.857L12 21.166L16.486 23.857C16.96 24.141 17.574 23.988 17.858 23.514C17.98 23.311 18.021 23.083 17.992 22.868L16.862 14.353C17.142 14.138 17.408 13.905 17.657 13.656C19.103 12.21 20 10.209 20 8C20 5.791 19.103 3.79 17.657 2.343C16.211 0.896 14.209 0 12 0C9.791 0 7.79 0.897 6.343 2.343C4.896 3.789 4 5.791 4 8C4 10.209 4.897 12.21 6.343 13.657C6.593 13.907 6.86 14.14 7.14 14.355Z" fill="black"/>
</svg>
