<svg width="24" height="24" viewBox="0 0 24 24" fill="none" xmlns="http://www.w3.org/2000/svg">
<path d="M3 5C2.172 5 1.42 5.337 0.879 5.879C0.338 6.421 0 7.172 0 8V16C0 16.828 0.337 17.58 0.879 18.121C1.421 18.662 2.172 19 3 19H17C17.828 19 18.58 18.663 19.121 18.121C19.662 17.579 20 16.828 20 16V8C20 7.172 19.663 6.42 19.121 5.879C18.579 5.338 17.828 5 17 5H3ZM3 7H17C17.276 7 17.525 7.111 17.707 7.293C17.889 7.475 18 7.724 18 8V16C18 16.276 17.889 16.525 17.707 16.707C17.525 16.889 17.276 17 17 17H3C2.724 17 2.475 16.889 2.293 16.707C2.111 16.525 2 16.276 2 16V8C2 7.724 2.111 7.475 2.293 7.293C2.475 7.111 2.724 7 3 7ZM24 13V11C24 10.448 23.552 10 23 10C22.448 10 22 10.448 22 11V13C22 13.552 22.448 14 23 14C23.552 14 24 13.552 24 13Z" fill="black"/>
</svg>
