<svg width="24" height="24" viewBox="0 0 24 24" fill="none" xmlns="http://www.w3.org/2000/svg">
<g clip-path="url(#clip0_2611_394)">
<path d="M5 16.9998H3C2.724 16.9998 2.475 16.8888 2.293 16.7068C2.111 16.5248 2 16.2758 2 15.9998V7.99982C2 7.72382 2.111 7.47482 2.293 7.29282C2.475 7.11082 2.724 6.99982 3 6.99982H6.19C6.742 6.99982 7.19 6.55182 7.19 5.99982C7.19 5.44782 6.742 4.99982 6.19 4.99982H3C2.172 4.99982 1.42 5.33682 0.879 5.87882C0.338 6.42082 0 7.17182 0 7.99982V15.9998C0 16.8278 0.337 17.5798 0.879 18.1208C1.421 18.6618 2.172 18.9998 3 18.9998H5C5.552 18.9998 6 18.5518 6 17.9998C6 17.4478 5.552 16.9998 5 16.9998ZM15 6.99982H17C17.276 6.99982 17.525 7.11082 17.707 7.29282C17.889 7.47482 18 7.72382 18 7.99982V15.9998C18 16.2758 17.889 16.5248 17.707 16.7068C17.525 16.8888 17.276 16.9998 17 16.9998H13.81C13.258 16.9998 12.81 17.4478 12.81 17.9998C12.81 18.5518 13.258 18.9998 13.81 18.9998H17C17.828 18.9998 18.58 18.6628 19.121 18.1208C19.662 17.5788 20 16.8278 20 15.9998V7.99982C20 7.17182 19.663 6.41982 19.121 5.87882C18.579 5.33782 17.828 4.99982 17 4.99982H15C14.448 4.99982 14 5.44782 14 5.99982C14 6.55182 14.448 6.99982 15 6.99982ZM24 12.9998V10.9998C24 10.4478 23.552 9.99982 23 9.99982C22.448 9.99982 22 10.4478 22 10.9998V12.9998C22 13.5518 22.448 13.9998 23 13.9998C23.552 13.9998 24 13.5518 24 12.9998ZM10.168 5.44482L6.168 11.4448C5.862 11.9048 5.986 12.5248 6.445 12.8318C6.617 12.9468 6.812 13.0008 7 12.9998H11.131L8.167 17.4448C7.861 17.9048 7.985 18.5248 8.444 18.8318C8.903 19.1388 9.524 19.0138 9.831 18.5548L13.831 12.5548C13.937 12.3988 14 12.2068 14 11.9998C14 11.4478 13.552 10.9998 13 10.9998H8.869L11.833 6.55482C12.139 6.09482 12.015 5.47482 11.556 5.16782C11.097 4.86082 10.475 4.98582 10.168 5.44482Z" fill="black"/>
</g>
<defs>
<clipPath id="clip0_2611_394">
<rect width="24" height="24" fill="white"/>
</clipPath>
</defs>
</svg>
