<svg width="24" height="24" viewBox="0 0 24 24" fill="none" xmlns="http://www.w3.org/2000/svg">
<path d="M17 8C17 12.011 17.947 14.52 18.851 16H5.14905C6.05305 14.52 7.00005 12.011 7.00005 8C7.00005 6.619 7.55905 5.37 8.46405 4.464C9.36905 3.558 10.619 3 12 3C13.381 3 14.63 3.559 15.536 4.464C16.442 5.369 17 6.619 17 8ZM19 8C19 6.067 18.215 4.316 16.95 3.05C15.685 1.784 13.933 1 12 1C10.067 1 8.31605 1.785 7.05005 3.05C5.78405 4.315 5.00005 6.067 5.00005 8C5.00005 14.127 2.60705 16.047 2.43705 16.174C1.98405 16.482 1.86405 17.098 2.16805 17.555C2.36005 17.842 2.67405 17.998 3.00005 18H21C21.552 18 22 17.552 22 17C22 16.661 21.832 16.362 21.571 16.179C21.395 16.049 19 14.129 19 8ZM12.865 20.498C12.726 20.737 12.506 20.897 12.257 20.963C12.008 21.029 11.737 21 11.498 20.862C11.336 20.768 11.215 20.64 11.139 20.505C10.865 20.025 10.255 19.858 9.77505 20.132C9.29505 20.406 9.12805 21.016 9.40205 21.496C9.65205 21.935 10.025 22.319 10.495 22.592C11.211 23.008 12.03 23.093 12.771 22.896C13.512 22.699 14.18 22.218 14.595 21.502C14.872 21.024 14.709 20.412 14.232 20.135C13.755 19.858 13.142 20.021 12.865 20.498Z" fill="black"/>
</svg>
