<svg width="24" height="24" viewBox="0 0 24 24" fill="none" xmlns="http://www.w3.org/2000/svg">
<g clip-path="url(#clip0_2611_398)">
<path d="M12.865 20.4978C12.726 20.7368 12.506 20.8968 12.257 20.9628C12.008 21.0288 11.737 20.9998 11.498 20.8618C11.336 20.7678 11.215 20.6398 11.139 20.5048C10.865 20.0248 10.255 19.8578 9.775 20.1318C9.295 20.4058 9.128 21.0158 9.402 21.4958C9.652 21.9348 10.025 22.3188 10.495 22.5918C11.211 23.0078 12.03 23.0928 12.771 22.8958C13.512 22.6988 14.18 22.2178 14.595 21.5018C14.872 21.0238 14.709 20.4118 14.232 20.1348C13.755 19.8578 13.142 20.0208 12.865 20.4978ZM19 7.97676C18.996 6.05376 18.216 4.31076 16.957 3.04876C15.693 1.78076 13.943 0.993762 12.01 0.990762C10.562 0.988762 9.211 1.42776 8.11 2.17076C7.653 2.47976 7.532 3.10176 7.841 3.55976C8.15 4.01776 8.772 4.13776 9.23 3.82876C9.994 3.31276 10.938 2.99976 11.96 2.99176C13.408 3.00276 14.644 3.56076 15.541 4.46176C16.443 5.36676 16.999 6.61176 17 7.98776C16.958 9.64576 17.173 11.4638 17.665 13.2648C17.811 13.7978 18.36 14.1118 18.893 13.9658C19.426 13.8198 19.74 13.2708 19.594 12.7378C19.151 11.1128 18.962 9.48776 19 8.02976C19 8.02476 19 8.01876 19 8.01376C19 8.01076 19 8.00776 19 8.00476V7.97676ZM6.996 8.41076L14.586 15.9998H5.149C6.021 14.5718 6.932 12.1878 6.996 8.41076ZM0.292997 1.70676L5.149 6.56276C5.043 7.05576 4.994 7.54676 5 8.01276C5 14.1268 2.607 16.0468 2.437 16.1738C1.984 16.4818 1.864 17.0978 2.168 17.5548C2.36 17.8418 2.674 17.9978 3 17.9998H16.586L22.293 23.7068C22.684 24.0978 23.317 24.0978 23.707 23.7068C24.097 23.3158 24.098 22.6828 23.707 22.2928L1.707 0.292762C1.316 -0.0982383 0.682997 -0.0982383 0.292997 0.292762C-0.0970028 0.683762 -0.0980028 1.31676 0.292997 1.70676Z" fill="black"/>
</g>
<defs>
<clipPath id="clip0_2611_398">
<rect width="24" height="24" fill="white"/>
</clipPath>
</defs>
</svg>
