<svg width="24" height="24" viewBox="0 0 24 24" fill="none" xmlns="http://www.w3.org/2000/svg">
<g clip-path="url(#clip0_2611_400)">
<path d="M13 9.586V3.414L16.086 6.5L13 9.586ZM13 14.414L16.086 17.5L13 20.586V14.414ZM5.79301 7.207L10.586 12L5.79301 16.793C5.40201 17.184 5.40201 17.817 5.79301 18.207C6.18401 18.597 6.81701 18.598 7.20701 18.207L11 14.414V23C11 23.256 11.098 23.512 11.293 23.707C11.684 24.098 12.317 24.098 12.707 23.707L18.207 18.207C18.598 17.816 18.598 17.183 18.207 16.793L13.414 12L18.207 7.207C18.598 6.816 18.598 6.183 18.207 5.793L12.707 0.293C12.526 0.112 12.276 0 12 0C11.448 0 11 0.448 11 1V9.586L7.20701 5.793C6.81601 5.402 6.18301 5.402 5.79301 5.793C5.40301 6.184 5.40201 6.817 5.79301 7.207Z" fill="black"/>
</g>
<defs>
<clipPath id="clip0_2611_400">
<rect width="24" height="24" fill="white"/>
</clipPath>
</defs>
</svg>
