<svg width="24" height="24" viewBox="0 0 24 24" fill="none" xmlns="http://www.w3.org/2000/svg">
<path d="M7 11V5H14C14.829 5 15.577 5.335 16.121 5.879C16.665 6.423 17 7.171 17 8C17 8.829 16.665 9.577 16.121 10.121C15.577 10.665 14.829 11 14 11H7ZM5 12V20C5 20.552 5.448 21 6 21H15C16.38 21 17.632 20.439 18.536 19.536C19.44 18.633 20 17.38 20 16C20 14.62 19.439 13.368 18.536 12.464C18.211 12.139 17.841 11.858 17.436 11.632C17.47 11.6 17.503 11.568 17.536 11.535C18.439 10.632 19 9.38 19 8C19 6.62 18.439 5.368 17.536 4.464C16.633 3.56 15.38 3 14 3H6C5.448 3 5 3.448 5 4V12ZM7 13H15C15.829 13 16.577 13.335 17.121 13.879C17.665 14.423 18 15.171 18 16C18 16.829 17.665 17.577 17.121 18.121C16.577 18.665 15.829 19 15 19H7V13Z" fill="black"/>
</svg>
