<svg width="24" height="24" viewBox="0 0 24 24" fill="none" xmlns="http://www.w3.org/2000/svg">
<path d="M6.5 1C5.534 1 4.657 1.393 4.025 2.025C3.393 2.657 3 3.534 3 4.5V19.5C3 20.466 3.393 21.343 4.025 21.975C4.657 22.607 5.534 23 6.5 23H20C20.552 23 21 22.552 21 22V2C21 1.448 20.552 1 20 1H6.5ZM19 18V21H6.5C6.086 21 5.712 20.833 5.439 20.561C5.166 20.289 5 19.914 5 19.5C5 19.086 5.167 18.712 5.439 18.439C5.711 18.166 6.086 18 6.5 18H19ZM6.5 3H19V16H6.5C5.963 16 5.455 16.121 5 16.337V4.5C5 4.086 5.167 3.712 5.439 3.439C5.711 3.166 6.086 3 6.5 3Z" fill="black"/>
</svg>
