<svg width="24" height="24" viewBox="0 0 24 24" fill="none" xmlns="http://www.w3.org/2000/svg">
<path d="M21 4V17H15C14.272 17 13.588 17.195 13 17.535V7C13 6.171 13.335 5.423 13.879 4.879C14.423 4.335 15.171 4 16 4H21ZM11 17.535C10.412 17.195 9.728 17 9 17H3V4H8C8.829 4 9.577 4.335 10.121 4.879C10.665 5.423 11 6.171 11 7V17.535ZM22 2H16C14.62 2 13.368 2.561 12.464 3.464C12.297 3.631 12.142 3.81 12 4C11.858 3.81 11.703 3.631 11.536 3.464C10.632 2.561 9.38 2 8 2H2C1.448 2 1 2.448 1 3V18C1 18.552 1.448 19 2 19H9C9.553 19 10.051 19.223 10.414 19.586C10.777 19.949 11 20.447 11 21C11 21.552 11.448 22 12 22C12.552 22 13 21.552 13 21C13 20.447 13.223 19.949 13.586 19.586C13.949 19.223 14.447 19 15 19H22C22.552 19 23 18.552 23 18V3C23 2.448 22.552 2 22 2Z" fill="black"/>
</svg>
