<svg width="24" height="24" viewBox="0 0 24 24" fill="none" xmlns="http://www.w3.org/2000/svg">
<path d="M18.961 6.82787L12 10.8549L5.039 6.82787L11.495 3.13887C11.607 3.07487 11.727 3.03387 11.85 3.01487C12.068 2.98087 12.295 3.01787 12.504 3.13887L18.961 6.82787ZM11.526 22.9609C11.667 23.0369 11.829 23.0799 12 23.0799C12.173 23.0799 12.336 23.0359 12.478 22.9589C12.834 22.9009 13.179 22.7789 13.495 22.5989L20.496 18.5979C21.114 18.2409 21.556 17.7009 21.795 17.0839C21.928 16.7419 21.997 16.3769 22 15.9999V7.99987C22 7.52187 21.887 7.06887 21.686 6.66587C21.664 6.59487 21.634 6.52587 21.595 6.45887C21.549 6.37987 21.495 6.30987 21.433 6.24887C21.402 6.20587 21.369 6.16287 21.336 6.12187C21.106 5.83587 20.824 5.59387 20.505 5.40687L13.496 1.40187C12.886 1.04987 12.196 0.936871 11.542 1.03787C11.179 1.09487 10.827 1.21687 10.505 1.40087L3.504 5.40187C3.121 5.62287 2.805 5.91487 2.563 6.25187C2.503 6.31187 2.449 6.38187 2.404 6.45887C2.365 6.52687 2.334 6.59687 2.312 6.66887C2.272 6.74887 2.236 6.83187 2.204 6.91487C2.072 7.25787 2.003 7.62287 2 7.99287V15.9999C2.001 16.7099 2.248 17.3629 2.664 17.8779C2.894 18.1639 3.176 18.4059 3.495 18.5929L10.504 22.5979C10.828 22.7849 11.174 22.9049 11.526 22.9599V22.9609ZM11 12.5869V20.5779L4.505 16.8669C4.394 16.8019 4.298 16.7189 4.22 16.6219C4.081 16.4499 4 16.2359 4 15.9999V8.53787L11 12.5869ZM13 20.5779V12.5869L20 8.53787V15.9999C19.999 16.1209 19.975 16.2459 19.93 16.3619C19.85 16.5679 19.705 16.7459 19.504 16.8619L13 20.5779Z" fill="black"/>
</svg>
