<svg width="24" height="24" viewBox="0 0 24 24" fill="none" xmlns="http://www.w3.org/2000/svg">
<path d="M9 6V5C9 4.724 9.111 4.475 9.293 4.293C9.475 4.111 9.724 4 10 4H14C14.276 4 14.525 4.111 14.707 4.293C14.889 4.475 15 4.724 15 5V6H9ZM9 20V8H15V20H9ZM7 8V20H4C3.724 20 3.475 19.889 3.293 19.707C3.111 19.525 3 19.276 3 19V9C3 8.724 3.111 8.475 3.293 8.293C3.475 8.111 3.724 8 4 8H7ZM17 6V5C17 4.172 16.663 3.42 16.121 2.879C15.579 2.338 14.828 2 14 2H10C9.172 2 8.42 2.337 7.879 2.879C7.338 3.421 7 4.172 7 5V6H4C3.172 6 2.42 6.337 1.879 6.879C1.338 7.421 1 8.172 1 9V19C1 19.828 1.337 20.58 1.879 21.121C2.421 21.662 3.172 22 4 22H20C20.828 22 21.58 21.663 22.121 21.121C22.662 20.579 23 19.828 23 19V9C23 8.172 22.663 7.42 22.121 6.879C21.579 6.338 20.828 6 20 6H17ZM17 20V8H20C20.276 8 20.525 8.111 20.707 8.293C20.889 8.475 21 8.724 21 9V19C21 19.276 20.889 19.525 20.707 19.707C20.525 19.889 20.276 20 20 20H17Z" fill="black"/>
</svg>
