<svg width="24" height="24" viewBox="0 0 24 24" fill="none" xmlns="http://www.w3.org/2000/svg">
<path d="M7 2V3H5C4.172 3 3.42 3.337 2.879 3.879C2.338 4.421 2 5.172 2 6V20C2 20.828 2.337 21.58 2.879 22.121C3.421 22.662 4.172 23 5 23H19C19.828 23 20.58 22.663 21.121 22.121C21.662 21.579 22 20.828 22 20V6C22 5.172 21.663 4.42 21.121 3.879C20.579 3.338 19.828 3 19 3H17V2C17 1.448 16.552 1 16 1C15.448 1 15 1.448 15 2V3H9V2C9 1.448 8.552 1 8 1C7.448 1 7 1.448 7 2ZM20 9H4V6C4 5.724 4.111 5.475 4.293 5.293C4.475 5.111 4.724 5 5 5H7V6C7 6.552 7.448 7 8 7C8.552 7 9 6.552 9 6V5H15V6C15 6.552 15.448 7 16 7C16.552 7 17 6.552 17 6V5H19C19.276 5 19.525 5.111 19.707 5.293C19.889 5.475 20 5.724 20 6V9ZM4 11H20V20C20 20.276 19.889 20.525 19.707 20.707C19.525 20.889 19.276 21 19 21H5C4.724 21 4.475 20.889 4.293 20.707C4.111 20.525 4 20.276 4 20V11Z" fill="black"/>
</svg>
