<svg width="24" height="24" viewBox="0 0 24 24" fill="none" xmlns="http://www.w3.org/2000/svg">
<g clip-path="url(#clip0_2611_416)">
<path d="M24 19V8C24 7.172 23.663 6.42 23.121 5.879C22.579 5.338 21.828 5 21 5H17.535L15.832 2.445C15.65 2.175 15.346 2 15 2H9C8.674 2.002 8.36 2.158 8.168 2.445L6.465 5H3C2.172 5 1.42 5.337 0.879 5.879C0.338 6.421 0 7.172 0 8V19C0 19.828 0.337 20.58 0.879 21.121C1.421 21.662 2.172 22 3 22H21C21.828 22 22.58 21.663 23.121 21.121C23.662 20.579 24 19.828 24 19ZM22 19C22 19.276 21.889 19.525 21.707 19.707C21.525 19.889 21.276 20 21 20H3C2.724 20 2.475 19.889 2.293 19.707C2.111 19.525 2 19.276 2 19V8C2 7.724 2.111 7.475 2.293 7.293C2.475 7.111 2.724 7 3 7H7C7.346 7 7.65 6.825 7.832 6.555L9.535 4H14.465L16.168 6.555C16.36 6.842 16.674 6.998 17 7H21C21.276 7 21.525 7.111 21.707 7.293C21.889 7.475 22 7.724 22 8V19ZM17 13C17 11.62 16.439 10.368 15.536 9.464C14.633 8.56 13.38 8 12 8C10.62 8 9.368 8.561 8.464 9.464C7.56 10.367 7 11.62 7 13C7 14.38 7.561 15.632 8.464 16.536C9.367 17.44 10.62 18 12 18C13.38 18 14.632 17.439 15.536 16.536C16.44 15.633 17 14.38 17 13ZM15 13C15 13.829 14.665 14.577 14.121 15.121C13.577 15.665 12.829 16 12 16C11.171 16 10.423 15.665 9.879 15.121C9.335 14.577 9 13.829 9 13C9 12.171 9.335 11.423 9.879 10.879C10.423 10.335 11.171 10 12 10C12.829 10 13.577 10.335 14.121 10.879C14.665 11.423 15 12.171 15 13Z" fill="black"/>
</g>
<defs>
<clipPath id="clip0_2611_416">
<rect width="24" height="24" fill="white"/>
</clipPath>
</defs>
</svg>
