<svg width="24" height="24" viewBox="0 0 24 24" fill="none" xmlns="http://www.w3.org/2000/svg">
<g clip-path="url(#clip0_2611_418)">
<path d="M9 3.99976H14.465L16.168 6.55476C16.36 6.84176 16.674 6.99776 17 6.99976H21C21.276 6.99976 21.525 7.11076 21.707 7.29276C21.889 7.47476 22 7.72376 22 7.99976V17.3398C22 17.8918 22.448 18.3398 23 18.3398C23.552 18.3398 24 17.8918 24 17.3398V7.99976C24 7.17176 23.663 6.41976 23.121 5.87876C22.579 5.33776 21.828 4.99976 21 4.99976H17.535L15.832 2.44476C15.65 2.17476 15.346 1.99976 15 1.99976H9C8.448 1.99976 8 2.44776 8 2.99976C8 3.55176 8.448 3.99976 9 3.99976ZM8.262 9.67576C8.116 9.83876 7.979 10.0128 7.853 10.1978C7.073 11.3368 6.83 12.6868 7.065 13.9428C7.3 15.1988 8.017 16.3688 9.156 17.1478C10.295 17.9268 11.645 18.1708 12.901 17.9358C13.788 17.7698 14.631 17.3638 15.325 16.7388L18.586 19.9998H3C2.724 19.9998 2.475 19.8888 2.293 19.7068C2.111 19.5248 2 19.2758 2 18.9998V7.99976C2 7.72376 2.111 7.47476 2.293 7.29276C2.475 7.11076 2.724 6.99976 3 6.99976H5.586L8.262 9.67576ZM10.413 8.99776L1.707 0.292762C1.316 -0.0982383 0.683 -0.0982383 0.293 0.292762C-0.097 0.683762 -0.098 1.31676 0.293 1.70676L3.586 4.99976H3C2.172 4.99976 1.42 5.33676 0.879 5.87876C0.338 6.42076 0 7.17176 0 7.99976V18.9998C0 19.8278 0.337 20.5798 0.879 21.1208C1.421 21.6618 2.172 21.9998 3 21.9998H20.586L22.293 23.7068C22.684 24.0978 23.317 24.0978 23.707 23.7068C24.097 23.3158 24.098 22.6828 23.707 22.2928L10.439 9.02476L10.413 8.99776ZM13.907 15.3208C13.507 15.6568 13.032 15.8758 12.532 15.9698C11.776 16.1118 10.969 15.9648 10.285 15.4968C9.601 15.0288 9.172 14.3298 9.03 13.5738C8.888 12.8178 9.035 12.0108 9.503 11.3268C9.559 11.2448 9.618 11.1668 9.679 11.0938L13.907 15.3208Z" fill="black"/>
</g>
<defs>
<clipPath id="clip0_2611_418">
<rect width="24" height="24" fill="white"/>
</clipPath>
</defs>
</svg>
