<svg width="24" height="24" viewBox="0 0 24 24" fill="none" xmlns="http://www.w3.org/2000/svg">
<path d="M1.79999 17.08C2.73799 17.271 3.52899 17.774 4.09199 18.466C4.49699 18.963 4.78499 19.559 4.92099 20.207C5.03499 20.747 5.56499 21.093 6.10599 20.979C6.64699 20.865 6.99199 20.335 6.87799 19.794C6.67599 18.834 6.24799 17.947 5.64299 17.203C4.79799 16.165 3.60499 15.407 2.19999 15.12C1.65899 15.01 1.13099 15.359 1.01999 15.9C0.908993 16.441 1.25899 16.969 1.79999 17.08ZM1.88899 13.044C3.88999 13.267 5.63299 14.207 6.89499 15.59C8.01399 16.816 8.75399 18.389 8.95599 20.116C9.01999 20.665 9.51699 21.057 10.065 20.993C10.613 20.929 11.006 20.432 10.942 19.884C10.691 17.734 9.76799 15.772 8.37199 14.242C6.79399 12.513 4.60899 11.334 2.10899 11.056C1.55999 10.995 1.06599 11.39 1.00499 11.939C0.943993 12.488 1.33899 12.982 1.88799 13.043L1.88899 13.044ZM2.99999 8V6C2.99999 5.724 3.11099 5.475 3.29299 5.293C3.47499 5.111 3.72399 5 3.99999 5H20C20.276 5 20.525 5.111 20.707 5.293C20.889 5.475 21 5.724 21 6V18C21 18.276 20.889 18.525 20.707 18.707C20.525 18.889 20.276 19 20 19H14C13.448 19 13 19.448 13 20C13 20.552 13.448 21 14 21H20C20.828 21 21.58 20.663 22.121 20.121C22.662 19.579 23 18.828 23 18V6C23 5.172 22.663 4.42 22.121 3.879C21.579 3.338 20.828 3 20 3H3.99999C3.17199 3 2.41999 3.337 1.87899 3.879C1.33799 4.421 0.999993 5.172 0.999993 6V8C0.999993 8.552 1.44799 9 1.99999 9C2.55199 9 2.99999 8.552 2.99999 8ZM1.99999 21C2.55199 21 2.99999 20.552 2.99999 20C2.99999 19.448 2.55199 19 1.99999 19C1.44799 19 0.999993 19.448 0.999993 20C0.999993 20.552 1.44799 21 1.99999 21Z" fill="black"/>
</svg>
