<svg width="24" height="24" viewBox="0 0 24 24" fill="none" xmlns="http://www.w3.org/2000/svg">
<path d="M8.293 11.707L11.293 14.707C11.684 15.098 12.317 15.098 12.707 14.707L22.707 4.707C23.098 4.316 23.098 3.683 22.707 3.293C22.316 2.903 21.683 2.902 21.293 3.293L12 12.586L9.707 10.293C9.316 9.902 8.683 9.902 8.293 10.293C7.903 10.684 7.902 11.317 8.293 11.707ZM20 12V19C20 19.276 19.889 19.525 19.707 19.707C19.525 19.889 19.276 20 19 20H5C4.724 20 4.475 19.889 4.293 19.707C4.111 19.525 4 19.276 4 19V5C4 4.724 4.111 4.475 4.293 4.293C4.475 4.111 4.724 4 5 4H16C16.552 4 17 3.552 17 3C17 2.448 16.552 2 16 2H5C4.172 2 3.42 2.337 2.879 2.879C2.338 3.421 2 4.172 2 5V19C2 19.828 2.337 20.58 2.879 21.121C3.421 21.662 4.172 22 5 22H19C19.828 22 20.58 21.663 21.121 21.121C21.662 20.579 22 19.828 22 19V12C22 11.448 21.552 11 21 11C20.448 11 20 11.448 20 12Z" fill="black"/>
</svg>
