<svg width="24" height="24" viewBox="0 0 24 24" fill="none" xmlns="http://www.w3.org/2000/svg">
<path d="M21 11.0801V12.0001C20.999 14.4851 19.991 16.7331 18.36 18.3621C16.729 19.9911 14.48 20.9961 11.995 20.9941C9.51 20.9921 7.261 19.9851 5.633 18.3541C4.005 16.7231 2.999 14.4751 3 11.9891C3.001 9.50314 4.009 7.25614 5.64 5.62714C7.271 3.99814 9.52 2.99314 12.005 2.99414C13.335 2.99514 14.591 3.28314 15.654 3.76914C16.156 3.99914 16.75 3.77714 16.979 3.27514C17.208 2.77314 16.987 2.17914 16.485 1.95014C15.158 1.34414 13.619 0.995143 12.006 0.994143C8.969 0.992143 6.217 2.22314 4.226 4.21114C2.235 6.19914 1.002 8.95114 1 11.9881C0.998002 15.0251 2.229 17.7771 4.217 19.7681C6.205 21.7591 8.956 22.9931 11.993 22.9941C15.03 22.9951 17.782 21.7651 19.773 19.7771C21.764 17.7891 22.998 15.0381 23 12.0001V11.0801C23 10.5281 22.552 10.0801 22 10.0801C21.448 10.0801 21 10.5281 21 11.0801ZM21.293 3.29314L12 12.5951L9.707 10.3031C9.316 9.91214 8.683 9.91214 8.293 10.3031C7.903 10.6941 7.902 11.3271 8.293 11.7171L11.293 14.7171C11.684 15.1081 12.317 15.1071 12.708 14.7171L22.708 4.70714C23.098 4.31614 23.098 3.68314 22.707 3.29314C22.316 2.90314 21.683 2.90214 21.293 3.29314Z" fill="black"/>
</svg>
