<svg width="24" height="24" viewBox="0 0 24 24" fill="none" xmlns="http://www.w3.org/2000/svg">
<path d="M13.707 17.7068L18.707 12.7068C19.098 12.3158 19.098 11.6828 18.707 11.2928L13.707 6.29276C13.316 5.90176 12.683 5.90176 12.293 6.29276C11.903 6.68376 11.902 7.31676 12.293 7.70676L16.586 11.9998L12.293 16.2928C11.902 16.6838 11.902 17.3168 12.293 17.7068C12.684 18.0968 13.317 18.0978 13.707 17.7068ZM6.70701 17.7068L11.707 12.7068C12.098 12.3158 12.098 11.6828 11.707 11.2928L6.70701 6.29276C6.31601 5.90176 5.68301 5.90176 5.29301 6.29276C4.90301 6.68376 4.90201 7.31676 5.29301 7.70676L9.58601 11.9998L5.29301 16.2928C4.90201 16.6838 4.90201 17.3168 5.29301 17.7068C5.68401 18.0968 6.31701 18.0978 6.70701 17.7068Z" fill="black"/>
</svg>
