<svg width="24" height="24" viewBox="0 0 24 24" fill="none" xmlns="http://www.w3.org/2000/svg">
<path d="M17.707 10.2928L12.707 5.29276C12.316 4.90176 11.683 4.90176 11.293 5.29276L6.29301 10.2928C5.90201 10.6838 5.90201 11.3168 6.29301 11.7068C6.68401 12.0968 7.31701 12.0978 7.70701 11.7068L12 7.41376L16.293 11.7068C16.684 12.0978 17.317 12.0978 17.707 11.7068C18.097 11.3158 18.098 10.6828 17.707 10.2928ZM17.707 17.2928L12.707 12.2928C12.316 11.9018 11.683 11.9018 11.293 12.2928L6.29301 17.2928C5.90201 17.6838 5.90201 18.3168 6.29301 18.7068C6.68401 19.0968 7.31701 19.0978 7.70701 18.7068L12 14.4138L16.293 18.7068C16.684 19.0978 17.317 19.0978 17.707 18.7068C18.097 18.3158 18.098 17.6828 17.707 17.2928Z" fill="black"/>
</svg>
