<svg width="24" height="24" viewBox="0 0 24 24" fill="none" xmlns="http://www.w3.org/2000/svg">
<path d="M11.707 16.2929L7.41401 11.9999L11.707 7.70687C12.098 7.31587 12.098 6.68288 11.707 6.29288C11.316 5.90288 10.683 5.90188 10.293 6.29288L5.29301 11.2929C4.90201 11.6839 4.90201 12.3169 5.29301 12.7069L10.293 17.7069C10.684 18.0979 11.317 18.0979 11.707 17.7069C12.097 17.3159 12.098 16.6829 11.707 16.2929ZM18.707 16.2929L14.414 11.9999L18.707 7.70687C19.098 7.31587 19.098 6.68288 18.707 6.29288C18.316 5.90288 17.683 5.90188 17.293 6.29288L12.293 11.2929C11.902 11.6839 11.902 12.3169 12.293 12.7069L17.293 17.7069C17.684 18.0979 18.317 18.0979 18.707 17.7069C19.097 17.3159 19.098 16.6829 18.707 16.2929Z" fill="black"/>
</svg>
