<svg width="24" height="24" viewBox="0 0 24 24" fill="none" xmlns="http://www.w3.org/2000/svg">
<path d="M6.293 13.7068L11.293 18.7068C11.684 19.0978 12.317 19.0978 12.707 18.7068L17.707 13.7068C18.098 13.3158 18.098 12.6828 17.707 12.2928C17.316 11.9028 16.683 11.9018 16.293 12.2928L12 16.5858L7.707 12.2928C7.316 11.9018 6.683 11.9018 6.293 12.2928C5.903 12.6838 5.902 13.3168 6.293 13.7068ZM6.293 6.70676L11.293 11.7068C11.684 12.0978 12.317 12.0978 12.707 11.7068L17.707 6.70676C18.098 6.31576 18.098 5.68276 17.707 5.29276C17.316 4.90276 16.683 4.90176 16.293 5.29276L12 9.58576L7.707 5.29276C7.316 4.90176 6.683 4.90176 6.293 5.29276C5.903 5.68376 5.902 6.31676 6.293 6.70676Z" fill="black"/>
</svg>
