<svg width="24" height="24" viewBox="0 0 24 24" fill="none" xmlns="http://www.w3.org/2000/svg">
<path d="M7.402 10.033L5.158 6.152C5.31 5.974 5.47 5.802 5.636 5.636C7.266 4.006 9.514 3 12 3C14.486 3 16.734 4.006 18.364 5.636C18.78 6.052 19.156 6.509 19.485 7H12C10.62 7 9.368 7.561 8.464 8.464C8.017 8.911 7.655 9.442 7.402 10.033ZM10.7 22.924C10.746 22.932 10.792 22.938 10.839 22.939C11.22 22.979 11.608 23 12 23C15.037 23 17.789 21.768 19.778 19.778C21.767 17.788 23 15.037 23 12C23 10.461 22.683 8.995 22.112 7.664C22.096 7.62 22.078 7.578 22.057 7.538C21.504 6.294 20.727 5.171 19.778 4.222C17.789 2.232 15.037 1 12 1C8.963 1 6.211 2.232 4.222 4.222C3.856 4.587 3.516 4.979 3.205 5.393C3.163 5.44 3.126 5.49 3.094 5.542C1.777 7.355 1 9.588 1 12C1 15.037 2.232 17.789 4.222 19.778C5.923 21.479 8.182 22.627 10.7 22.924ZM12.595 16.965L10.354 20.85C8.529 20.513 6.897 19.625 5.636 18.364C4.006 16.734 3 14.486 3 12C3 10.57 3.333 9.218 3.927 8.018L7.57 14.32C7.806 14.77 8.109 15.179 8.464 15.535C9.368 16.439 10.62 17 12 17C12.201 17 12.4 16.988 12.595 16.965ZM14.638 13.431C14.623 13.453 14.608 13.477 14.594 13.5L14.518 13.632C14.403 13.808 14.27 13.972 14.122 14.121C13.577 14.665 12.829 15 12 15C11.171 15 10.423 14.665 9.879 14.121C9.713 13.955 9.567 13.77 9.443 13.57C9.432 13.546 9.419 13.523 9.406 13.5L9.324 13.359C9.117 12.951 9 12.489 9 12C9 11.171 9.335 10.423 9.879 9.879C10.423 9.335 11.171 9 12 9C12.829 9 13.577 9.335 14.121 9.879C14.665 10.423 15 11.171 15 12C15 12.518 14.869 13.006 14.638 13.431ZM12.588 20.981L16.228 14.67C16.717 13.898 17 12.982 17 12C17 10.875 16.627 9.835 16 9H20.488C20.82 9.938 21 10.948 21 12C21 14.486 19.994 16.734 18.364 18.364C16.864 19.864 14.839 20.836 12.588 20.981Z" fill="black"/>
</svg>
