<svg width="24" height="24" viewBox="0 0 24 24" fill="none" xmlns="http://www.w3.org/2000/svg">
<path d="M7 5C7 5.552 7.225 6.053 7.586 6.414C7.947 6.775 8.448 7 9 7H15C15.552 7 16.053 6.775 16.414 6.414C16.775 6.053 17 5.552 17 5H18C18.276 5 18.525 5.111 18.707 5.293C18.889 5.475 19 5.724 19 6V20C19 20.276 18.889 20.525 18.707 20.707C18.525 20.889 18.276 21 18 21H6C5.724 21 5.475 20.889 5.293 20.707C5.111 20.525 5 20.276 5 20V6C5 5.724 5.111 5.475 5.293 5.293C5.475 5.111 5.724 5 6 5H7ZM9 1C8.448 1 7.947 1.225 7.586 1.586C7.225 1.947 7 2.448 7 3H6C5.172 3 4.42 3.337 3.879 3.879C3.338 4.421 3 5.172 3 6V20C3 20.828 3.337 21.58 3.879 22.121C4.421 22.662 5.172 23 6 23H18C18.828 23 19.58 22.663 20.121 22.121C20.662 21.579 21 20.828 21 20V6C21 5.172 20.663 4.42 20.121 3.879C19.579 3.338 18.828 3 18 3H17C17 2.448 16.775 1.947 16.414 1.586C16.053 1.225 15.552 1 15 1H9ZM9 3H15V5H9V3Z" fill="black"/>
</svg>
