<svg width="24" height="24" viewBox="0 0 24 24" fill="none" xmlns="http://www.w3.org/2000/svg">
<g clip-path="url(#clip0_2611_340)">
<path d="M15.0001 12.9998V20.9998C15.0001 21.5518 15.4481 21.9998 16.0001 21.9998C16.5521 21.9998 17.0001 21.5518 17.0001 20.9998V12.9998C17.0001 12.4478 16.5521 11.9998 16.0001 11.9998C15.4481 11.9998 15.0001 12.4478 15.0001 12.9998ZM7.00005 12.9998V20.9998C7.00005 21.5518 7.44805 21.9998 8.00005 21.9998C8.55205 21.9998 9.00005 21.5518 9.00005 20.9998V12.9998C9.00005 12.4478 8.55205 11.9998 8.00005 11.9998C7.44805 11.9998 7.00005 12.4478 7.00005 12.9998ZM11.0001 14.9998V22.9998C11.0001 23.5518 11.4481 23.9998 12.0001 23.9998C12.5521 23.9998 13.0001 23.5518 13.0001 22.9998V14.9998C13.0001 14.4478 12.5521 13.9998 12.0001 13.9998C11.4481 13.9998 11.0001 14.4478 11.0001 14.9998ZM20.4011 17.4958C21.9181 16.8308 23.0241 15.6128 23.5821 14.1838C24.1401 12.7548 24.1541 11.1098 23.4901 9.59279C22.9161 8.28179 21.9271 7.27679 20.7381 6.66779C19.9021 6.23979 18.9671 6.00779 18.0081 5.99979H17.4801C16.7551 3.94279 15.3371 2.29179 13.5651 1.24679C11.5821 0.0777913 9.15005 -0.335209 6.74405 0.285791C4.33805 0.906791 2.41005 2.44679 1.24105 4.42979C0.0720541 6.41279 -0.340946 8.84479 0.280054 11.2508C0.789054 13.2208 1.91405 14.8738 3.37905 16.0338C3.81205 16.3768 4.44105 16.3038 4.78405 15.8708C5.12705 15.4378 5.05405 14.8088 4.62105 14.4658C3.48905 13.5688 2.61305 12.2868 2.21605 10.7498C1.73305 8.87879 2.05305 6.98979 2.96405 5.44479C3.87505 3.89979 5.37205 2.70579 7.24405 2.22179C9.11605 1.73779 11.0051 2.05879 12.5491 2.96979C14.0931 3.88079 15.2881 5.37779 15.7721 7.24979C15.8871 7.68479 16.2771 7.99979 16.7401 7.99979H17.9921C18.6391 8.00479 19.2671 8.16179 19.8261 8.44779C20.6191 8.85379 21.2741 9.52079 21.6581 10.3948C22.1011 11.4068 22.0931 12.5008 21.7201 13.4558C21.3471 14.4108 20.6111 15.2208 19.5991 15.6638C19.0931 15.8858 18.8631 16.4748 19.0841 16.9808C19.3051 17.4868 19.8951 17.7168 20.4011 17.4958Z" fill="black"/>
</g>
<defs>
<clipPath id="clip0_2611_340">
<rect width="24" height="24" fill="white"/>
</clipPath>
</defs>
</svg>
