<svg width="24" height="24" viewBox="0 0 24 24" fill="none" xmlns="http://www.w3.org/2000/svg">
<g clip-path="url(#clip0_2611_338)">
<path d="M23.5311 17.3398C24.1771 15.8148 24.1431 14.1698 23.5671 12.7478C22.9911 11.3258 21.8711 10.1208 20.3461 9.47476C19.5701 9.14676 18.7581 8.99176 17.9891 8.99976H17.4831C16.8631 7.21976 15.7221 5.73976 14.2721 4.69076C12.9741 3.75276 11.4281 3.15976 9.78506 3.00376C9.23506 2.95176 8.74706 3.35476 8.69506 3.90476C8.64306 4.45476 9.04606 4.94276 9.59606 4.99476C10.8821 5.11676 12.0891 5.58076 13.1011 6.31176C14.3841 7.23976 15.3531 8.59776 15.7721 10.2458C15.8841 10.6828 16.2751 10.9998 16.7401 10.9998H18.0111C18.5011 10.9948 19.0411 11.0938 19.5661 11.3168C20.5831 11.7478 21.3291 12.5488 21.7141 13.4988C22.0991 14.4488 22.1211 15.5428 21.6901 16.5598C21.4751 17.0688 21.7121 17.6548 22.2211 17.8708C22.7301 18.0868 23.3151 17.8488 23.5311 17.3398ZM4.85406 6.26776L17.5861 18.9998H8.99006C8.03006 19.0098 7.08706 18.8278 6.21606 18.4728C4.78506 17.8898 3.54706 16.8378 2.74506 15.3878C1.81006 13.6958 1.64806 11.7868 2.14406 10.0638C2.57606 8.56376 3.50406 7.20976 4.85306 6.26676L4.85406 6.26776ZM0.293061 1.70676L3.42206 4.83676C1.84106 6.03676 0.746061 7.69276 0.222061 9.51176C-0.414939 11.7238 -0.207939 14.1818 0.995061 16.3568C2.02506 18.2198 3.62106 19.5758 5.46106 20.3258C6.57806 20.7798 7.78506 21.0118 9.01006 20.9998H18.0001C18.4891 20.9988 18.9671 20.9398 19.4171 20.8308L22.2931 23.7068C22.6841 24.0978 23.3171 24.0978 23.7071 23.7068C24.0971 23.3158 24.0981 22.6828 23.7071 22.2928L1.70706 0.292762C1.31606 -0.0982383 0.683061 -0.0982383 0.293061 0.292762C-0.096939 0.683762 -0.097939 1.31676 0.293061 1.70676Z" fill="black"/>
</g>
<defs>
<clipPath id="clip0_2611_338">
<rect width="24" height="24" fill="white"/>
</clipPath>
</defs>
</svg>
