<svg width="24" height="24" viewBox="0 0 24 24" fill="none" xmlns="http://www.w3.org/2000/svg">
<g clip-path="url(#clip0_2611_336)">
<path d="M19.1991 17.8798C20.8221 17.5498 22.1601 16.5918 23.0071 15.3138C23.8541 14.0358 24.2151 12.4298 23.8851 10.8068C23.5821 9.31579 22.7491 8.06479 21.6181 7.21479C20.6001 6.44779 19.3391 6.00479 18.0041 5.99979H17.4801C16.7551 3.94279 15.3371 2.29179 13.5651 1.24679C11.5821 0.0777913 9.15005 -0.335209 6.74405 0.285791C4.33805 0.906791 2.41005 2.44779 1.24105 4.42979C0.0720541 6.41179 -0.340946 8.84479 0.280054 11.2508C0.877054 13.5638 2.32305 15.4348 4.19905 16.6158C4.34205 16.7058 4.48705 16.7918 4.63505 16.8738C5.11805 17.1418 5.72705 16.9668 5.99405 16.4838C6.26105 16.0008 6.08705 15.3918 5.60405 15.1248C5.48905 15.0608 5.37505 14.9938 5.26405 14.9238C3.80205 14.0028 2.68105 12.5498 2.21605 10.7508C1.73305 8.87879 2.05305 6.98979 2.96305 5.44579C3.87305 3.90179 5.37105 2.70679 7.24305 2.22279C9.11505 1.73879 11.0041 2.05979 12.5481 2.96979C14.0921 3.87979 15.2871 5.37779 15.7711 7.24979C15.8871 7.68479 16.2771 7.99979 16.7401 7.99979H17.9961C18.8921 8.00379 19.7361 8.29979 20.4161 8.81179C21.1701 9.37879 21.7231 10.2088 21.9251 11.2038C22.1451 12.2868 21.9061 13.3538 21.3401 14.2088C20.7741 15.0638 19.8841 15.6998 18.8011 15.9198C18.2601 16.0298 17.9101 16.5578 18.0201 17.0988C18.1301 17.6398 18.6581 17.9898 19.1991 17.8798ZM12.1681 10.4448L8.16805 16.4448C7.86205 16.9048 7.98605 17.5248 8.44505 17.8318C8.61705 17.9468 8.81205 18.0008 9.00005 17.9998H13.1311L10.1671 22.4448C9.86105 22.9048 9.98505 23.5248 10.4441 23.8318C10.9031 24.1388 11.5241 24.0138 11.8311 23.5548L15.8311 17.5548C15.9371 17.3988 16.0001 17.2068 16.0001 16.9998C16.0001 16.4478 15.5521 15.9998 15.0001 15.9998H10.8691L13.8331 11.5548C14.1391 11.0948 14.0151 10.4748 13.5561 10.1678C13.0971 9.86079 12.4751 9.98579 12.1681 10.4448Z" fill="black"/>
</g>
<defs>
<clipPath id="clip0_2611_336">
<rect width="24" height="24" fill="white"/>
</clipPath>
</defs>
</svg>
