<svg width="24" height="24" viewBox="0 0 24 24" fill="none" xmlns="http://www.w3.org/2000/svg">
<g clip-path="url(#clip0_2611_342)">
<path d="M20.401 18.4958C21.918 17.8308 23.024 16.6128 23.582 15.1838C24.14 13.7548 24.154 12.1098 23.49 10.5928C22.916 9.28179 21.927 8.27679 20.738 7.66779C19.902 7.23979 18.967 7.00779 18.008 6.99979H17.48C16.755 4.94279 15.337 3.29179 13.565 2.24679C11.582 1.07779 9.14999 0.664791 6.74399 1.28579C4.33799 1.90679 2.40999 3.44679 1.24099 5.42979C0.0719931 7.41279 -0.341007 9.84479 0.279993 12.2508C0.788993 14.2208 1.91399 15.8738 3.37899 17.0338C3.81199 17.3768 4.44099 17.3038 4.78399 16.8708C5.12699 16.4378 5.05399 15.8088 4.62099 15.4658C3.48899 14.5688 2.61299 13.2868 2.21599 11.7498C1.73299 9.87879 2.05299 7.98979 2.96399 6.44479C3.87499 4.89979 5.37199 3.70579 7.24399 3.22179C9.11599 2.73779 11.005 3.05879 12.549 3.96979C14.093 4.88079 15.288 6.37779 15.772 8.24979C15.887 8.68479 16.277 8.99979 16.74 8.99979H17.992C18.639 9.00479 19.267 9.16179 19.826 9.44779C20.619 9.85379 21.274 10.5208 21.658 11.3948C22.101 12.4068 22.093 13.5008 21.72 14.4558C21.347 15.4108 20.611 16.2208 19.599 16.6638C19.093 16.8858 18.863 17.4748 19.084 17.9808C19.305 18.4868 19.895 18.7168 20.401 18.4958ZM7.99999 16.9998C8.55199 16.9998 8.99999 16.5518 8.99999 15.9998C8.99999 15.4478 8.55199 14.9998 7.99999 14.9998C7.44799 14.9998 6.99999 15.4478 6.99999 15.9998C6.99999 16.5518 7.44799 16.9998 7.99999 16.9998ZM7.99999 20.9998C8.55199 20.9998 8.99999 20.5518 8.99999 19.9998C8.99999 19.4478 8.55199 18.9998 7.99999 18.9998C7.44799 18.9998 6.99999 19.4478 6.99999 19.9998C6.99999 20.5518 7.44799 20.9998 7.99999 20.9998ZM12 18.9998C12.552 18.9998 13 18.5518 13 17.9998C13 17.4478 12.552 16.9998 12 16.9998C11.448 16.9998 11 17.4478 11 17.9998C11 18.5518 11.448 18.9998 12 18.9998ZM12 22.9998C12.552 22.9998 13 22.5518 13 21.9998C13 21.4478 12.552 20.9998 12 20.9998C11.448 20.9998 11 21.4478 11 21.9998C11 22.5518 11.448 22.9998 12 22.9998ZM16 16.9998C16.552 16.9998 17 16.5518 17 15.9998C17 15.4478 16.552 14.9998 16 14.9998C15.448 14.9998 15 15.4478 15 15.9998C15 16.5518 15.448 16.9998 16 16.9998ZM16 20.9998C16.552 20.9998 17 20.5518 17 19.9998C17 19.4478 16.552 18.9998 16 18.9998C15.448 18.9998 15 19.4478 15 19.9998C15 20.5518 15.448 20.9998 16 20.9998Z" fill="black"/>
</g>
<defs>
<clipPath id="clip0_2611_342">
<rect width="24" height="24" fill="white"/>
</clipPath>
</defs>
</svg>
