<svg width="24" height="24" viewBox="0 0 24 24" fill="none" xmlns="http://www.w3.org/2000/svg">
<g clip-path="url(#clip0_2611_332)">
<path d="M18.0001 11.0002C19.1051 11.0002 20.1031 11.4472 20.8281 12.1722C21.5531 12.8972 22.0001 13.8952 22.0001 15.0002C22.0001 16.1052 21.5531 17.1032 20.8281 17.8282C20.1031 18.5532 19.1051 19.0002 18.0001 19.0002H9.00505C7.54205 18.9922 6.15205 18.5392 5.00005 17.7422C3.66605 16.8202 2.65205 15.4382 2.21605 13.7502C1.73305 11.8782 2.05305 9.98923 2.96405 8.44523C3.87505 6.90123 5.37205 5.70623 7.24405 5.22223C9.11605 4.73823 11.0051 5.05923 12.5491 5.97023C14.0931 6.88123 15.2881 8.37823 15.7721 10.2502C15.8871 10.6852 16.2771 11.0002 16.7401 11.0002H18.0001ZM18.0001 9.00023H17.4801C16.7551 6.94323 15.3371 5.29223 13.5651 4.24723C11.5821 3.07823 9.15005 2.66423 6.74405 3.28623C4.33805 3.90823 2.41005 5.44623 1.24105 7.42923C0.0720541 9.41223 -0.340946 11.8442 0.280054 14.2502C0.840054 16.4192 2.14705 18.2012 3.86305 19.3872C5.34105 20.4102 7.12405 20.9902 8.99505 21.0002H18.0001C19.6571 21.0002 21.1581 20.3272 22.2431 19.2432C23.3281 18.1592 24.0001 16.6572 24.0001 15.0002C24.0001 13.3432 23.3271 11.8422 22.2431 10.7572C21.1591 9.67223 19.6571 9.00023 18.0001 9.00023Z" fill="black"/>
</g>
<defs>
<clipPath id="clip0_2611_332">
<rect width="24" height="24" fill="white"/>
</clipPath>
</defs>
</svg>
