<svg width="24" height="24" viewBox="0 0 24 24" fill="none" xmlns="http://www.w3.org/2000/svg">
<path d="M16.707 18.7068L22.707 12.7068C23.098 12.3158 23.098 11.6828 22.707 11.2928L16.707 5.29276C16.316 4.90176 15.683 4.90176 15.293 5.29276C14.903 5.68376 14.902 6.31676 15.293 6.70676L20.586 11.9998L15.293 17.2928C14.902 17.6838 14.902 18.3168 15.293 18.7068C15.684 19.0968 16.317 19.0978 16.707 18.7068ZM7.29301 5.29276L1.29301 11.2928C0.902006 11.6838 0.902006 12.3168 1.29301 12.7068L7.29301 18.7068C7.68401 19.0978 8.31701 19.0978 8.70701 18.7068C9.09701 18.3158 9.09801 17.6828 8.70701 17.2928L3.41401 11.9998L8.70701 6.70676C9.09801 6.31576 9.09801 5.68276 8.70701 5.29276C8.31601 4.90276 7.68301 4.90176 7.29301 5.29276Z" fill="black"/>
</svg>
