<svg width="24" height="24" viewBox="0 0 24 24" fill="none" xmlns="http://www.w3.org/2000/svg">
<path d="M5.25599 12L2.99999 13.579V10.42L5.25599 12ZM21 13.579L18.744 12L21 10.421V13.579ZM17 13.221L20.212 15.47L13 20.157V16.02L17 13.221ZM8.74399 12L12 9.721L15.256 12L12 14.279L8.74399 12ZM3.78799 15.469L6.99999 13.221L11 16.021V20.158L3.78799 15.469ZM12.557 1.169C12.398 1.062 12.206 1 12 1C11.794 1 11.602 1.062 11.443 1.169L1.47399 7.649C1.36199 7.719 1.26099 7.812 1.18099 7.927C1.05599 8.105 0.996987 8.31 0.999987 8.512V15.488C0.997987 15.672 1.04599 15.858 1.14799 16.024C1.18899 16.092 1.23899 16.155 1.29699 16.212C1.34399 16.259 1.39699 16.301 1.45499 16.339L1.47399 16.351L11.443 22.831C11.602 22.938 11.794 23 12 23C12.206 23 12.398 22.938 12.557 22.831L22.526 16.351C22.638 16.282 22.739 16.189 22.819 16.074C22.944 15.896 23.002 15.691 23 15.488V8.512C23.002 8.328 22.954 8.142 22.852 7.976C22.811 7.909 22.761 7.845 22.703 7.788C22.656 7.741 22.603 7.699 22.545 7.661L22.526 7.649L12.557 1.169ZM13 7.979V3.843L20.212 8.531L17 10.779L13 7.979ZM11 3.843V7.98L6.99999 10.78L3.78799 8.531L11 3.843Z" fill="black"/>
</svg>
