<svg width="24" height="24" viewBox="0 0 24 24" fill="none" xmlns="http://www.w3.org/2000/svg">
<path d="M14.441 4.24487L12 5.65487L9.559 4.24487L11.495 3.13887C11.607 3.07487 11.727 3.03387 11.85 3.01487C12.068 2.98087 12.295 3.01787 12.504 3.13887L14.441 4.24487ZM4 13.7329L6.5 15.1769V18.0069L4.505 16.8669C4.394 16.8019 4.298 16.7189 4.22 16.6219C4.081 16.4499 4 16.2359 4 15.9999V13.7329ZM17.5 18.0069V15.1769L20 13.7329V15.9999C19.999 16.1209 19.975 16.2459 19.93 16.3619C19.85 16.5679 19.705 16.7459 19.504 16.8619L17.5 18.0069ZM18.961 6.82787L12 10.8549L5.039 6.82787L7.549 5.39287L11.5 7.67587C11.819 7.85987 12.197 7.84887 12.501 7.67587L16.451 5.39387L18.961 6.82787ZM11.526 22.9609C11.667 23.0369 11.829 23.0799 12 23.0799C12.173 23.0799 12.336 23.0359 12.478 22.9589C12.834 22.9009 13.179 22.7789 13.495 22.5989L16.693 20.7709C16.911 20.7279 17.104 20.6139 17.247 20.4549L20.496 18.5979C21.114 18.2409 21.556 17.7009 21.795 17.0839C21.928 16.7419 21.997 16.3769 22 15.9999V7.99987C22 7.52187 21.887 7.06887 21.686 6.66587C21.664 6.59487 21.634 6.52587 21.595 6.45887C21.549 6.37987 21.495 6.30987 21.433 6.24887C21.402 6.20587 21.369 6.16287 21.336 6.12187C21.106 5.83587 20.824 5.59387 20.505 5.40687L17.247 3.54587C17.1 3.37887 16.904 3.26987 16.694 3.22887L13.497 1.40187C12.887 1.04987 12.197 0.936871 11.543 1.03787C11.18 1.09487 10.828 1.21687 10.506 1.40087L7.306 3.22887C7.096 3.26987 6.9 3.37887 6.753 3.54487L3.504 5.40187C3.121 5.62287 2.805 5.91487 2.563 6.25187C2.503 6.31187 2.449 6.38187 2.404 6.45887C2.365 6.52687 2.334 6.59687 2.312 6.66887C2.272 6.74887 2.236 6.83187 2.204 6.91487C2.072 7.25787 2.003 7.62287 2 7.99287V15.9999C2.001 16.7099 2.248 17.3629 2.664 17.8779C2.894 18.1639 3.176 18.4059 3.495 18.5929L6.753 20.4549C6.895 20.6149 7.088 20.7289 7.307 20.7709L10.504 22.5979C10.828 22.7849 11.174 22.9049 11.526 22.9599V22.9609ZM11 12.5869V20.5779L8.5 19.1499V14.5999C8.5 14.2319 8.301 13.9099 8 13.7339L4 11.4229V8.53787L11 12.5869ZM13 20.5779V12.5869L20 8.53787V11.4229L16 13.7339C15.681 13.9179 15.502 14.2509 15.5 14.5999V19.1499L13 20.5779Z" fill="black"/>
</svg>
