<svg width="24" height="24" viewBox="0 0 24 24" fill="none" xmlns="http://www.w3.org/2000/svg">
<path d="M12 4H19C19.276 4 19.525 4.111 19.707 4.293C19.889 4.475 20 4.724 20 5V19C20 19.276 19.889 19.525 19.707 19.707C19.525 19.889 19.276 20 19 20H12C11.448 20 11 20.448 11 21C11 21.552 11.448 22 12 22H19C19.828 22 20.58 21.663 21.121 21.121C21.662 20.579 22 19.828 22 19V5C22 4.172 21.663 3.42 21.121 2.879C20.579 2.338 19.828 2 19 2H12C11.448 2 11 2.448 11 3C11 3.552 11.448 4 12 4ZM12 2H5C4.172 2 3.42 2.337 2.879 2.879C2.338 3.421 2 4.172 2 5V19C2 19.828 2.337 20.58 2.879 21.121C3.421 21.662 4.172 22 5 22H12C12.552 22 13 21.552 13 21C13 20.448 12.552 20 12 20H5C4.724 20 4.475 19.889 4.293 19.707C4.111 19.525 4 19.276 4 19V5C4 4.724 4.111 4.475 4.293 4.293C4.475 4.111 4.724 4 5 4H12C12.552 4 13 3.552 13 3C13 2.448 12.552 2 12 2ZM11 3V21C11 21.552 11.448 22 12 22C12.552 22 13 21.552 13 21V3C13 2.448 12.552 2 12 2C11.448 2 11 2.448 11 3Z" fill="black"/>
</svg>
