<svg width="24" height="24" viewBox="0 0 24 24" fill="none" xmlns="http://www.w3.org/2000/svg">
<path d="M16 16H18C18.553 16 19.051 16.223 19.414 16.586C19.777 16.949 20 17.447 20 18C20 18.553 19.777 19.051 19.414 19.414C19.051 19.777 18.553 20 18 20C17.447 20 16.949 19.777 16.586 19.414C16.223 19.051 16 18.553 16 18V16ZM8 16V18C8 18.553 7.777 19.051 7.414 19.414C7.051 19.777 6.553 20 6 20C5.447 20 4.949 19.777 4.586 19.414C4.223 19.051 4 18.553 4 18C4 17.447 4.223 16.949 4.586 16.586C4.949 16.223 5.447 16 6 16H8ZM8 8H6C5.447 8 4.949 7.777 4.586 7.414C4.223 7.051 4 6.553 4 6C4 5.447 4.223 4.949 4.586 4.586C4.949 4.223 5.447 4 6 4C6.553 4 7.051 4.223 7.414 4.586C7.777 4.949 8 5.447 8 6V8ZM16 8H8V16H16V8ZM18 4C18.553 4 19.051 4.223 19.414 4.586C19.777 4.949 20 5.447 20 6C20 6.553 19.777 7.051 19.414 7.414C19.051 7.777 18.553 8 18 8H16V6C16 5.447 16.223 4.949 16.586 4.586C16.949 4.223 17.447 4 18 4ZM10 10V6C10 4.896 9.551 3.894 8.828 3.172C8.105 2.45 7.104 2 6 2C4.896 2 3.894 2.449 3.172 3.172C2.45 3.895 2 4.896 2 6C2 7.104 2.449 8.106 3.172 8.828C3.895 9.55 4.896 10 6 10H10ZM10 14H6C4.896 14 3.894 14.449 3.172 15.172C2.45 15.895 2 16.896 2 18C2 19.104 2.449 20.106 3.172 20.828C3.895 21.55 4.896 22 6 22C7.104 22 8.106 21.551 8.828 20.828C9.55 20.105 10 19.104 10 18V14ZM14 14V18C14 19.104 14.449 20.106 15.172 20.828C15.895 21.55 16.896 22 18 22C19.104 22 20.106 21.551 20.828 20.828C21.55 20.105 22 19.104 22 18C22 16.896 21.551 15.894 20.828 15.172C20.105 14.45 19.104 14 18 14H14ZM14 10V14H10V10H14ZM18 2C16.896 2 15.894 2.449 15.172 3.172C14.45 3.895 14 4.896 14 6V10H18C19.104 10 20.106 9.551 20.828 8.828C21.55 8.105 22 7.104 22 6C22 4.896 21.551 3.894 20.828 3.172C20.105 2.45 19.104 2 18 2Z" fill="black"/>
</svg>
