<svg width="24" height="24" viewBox="0 0 24 24" fill="none" xmlns="http://www.w3.org/2000/svg">
<path d="M23 12C23 8.963 21.768 6.211 19.778 4.222C17.788 2.233 15.037 1 12 1C8.963 1 6.211 2.232 4.222 4.222C2.233 6.212 1 8.963 1 12C1 15.037 2.232 17.789 4.222 19.778C6.212 21.767 8.963 23 12 23C15.037 23 17.789 21.768 19.778 19.778C21.767 17.788 23 15.037 23 12ZM21 12C21 14.486 19.994 16.734 18.364 18.364C16.734 19.994 14.486 21 12 21C9.514 21 7.266 19.994 5.636 18.364C4.006 16.734 3 14.486 3 12C3 9.514 4.006 7.266 5.636 5.636C7.266 4.006 9.514 3 12 3C14.486 3 16.734 4.006 18.364 5.636C19.994 7.266 21 9.514 21 12ZM17.189 8.076C17.255 7.88 17.261 7.658 17.189 7.444C17.014 6.92 16.448 6.637 15.924 6.812L9.564 8.932C9.274 9.03 9.035 9.255 8.932 9.564L6.812 15.924C6.746 16.12 6.74 16.342 6.812 16.556C6.987 17.08 7.553 17.363 8.077 17.188L14.437 15.068C14.727 14.97 14.966 14.745 15.069 14.436L17.189 8.076ZM14.659 9.341L13.329 13.329L9.341 14.659L10.67 10.671L14.659 9.341Z" fill="black"/>
</svg>
