<svg width="24" height="24" viewBox="0 0 24 24" fill="none" xmlns="http://www.w3.org/2000/svg">
<path d="M11 8C10.172 8 9.42 8.337 8.879 8.879C8.338 9.421 8 10.172 8 11V20C8 20.828 8.337 21.58 8.879 22.121C9.421 22.662 10.172 23 11 23H20C20.828 23 21.58 22.663 22.121 22.121C22.662 21.579 23 20.828 23 20V11C23 10.172 22.663 9.42 22.121 8.879C21.579 8.338 20.828 8 20 8H11ZM11 10H20C20.276 10 20.525 10.111 20.707 10.293C20.889 10.475 21 10.724 21 11V20C21 20.276 20.889 20.525 20.707 20.707C20.525 20.889 20.276 21 20 21H11C10.724 21 10.475 20.889 10.293 20.707C10.111 20.525 10 20.276 10 20V11C10 10.724 10.111 10.475 10.293 10.293C10.475 10.111 10.724 10 11 10ZM5 14H4C3.724 14 3.475 13.889 3.293 13.707C3.111 13.525 3 13.276 3 13V4C3 3.724 3.111 3.475 3.293 3.293C3.475 3.111 3.724 3 4 3H13C13.276 3 13.525 3.111 13.707 3.293C13.889 3.475 14 3.724 14 4V5C14 5.552 14.448 6 15 6C15.552 6 16 5.552 16 5V4C16 3.172 15.663 2.42 15.121 1.879C14.579 1.338 13.828 1 13 1H4C3.172 1 2.42 1.337 1.879 1.879C1.338 2.421 1 3.172 1 4V13C1 13.828 1.337 14.58 1.879 15.121C2.421 15.662 3.172 16 4 16H5C5.552 16 6 15.552 6 15C6 14.448 5.552 14 5 14Z" fill="black"/>
</svg>
