<svg width="24" height="24" viewBox="0 0 24 24" fill="none" xmlns="http://www.w3.org/2000/svg">
<path d="M20 3H13C11.62 3 10.368 3.561 9.464 4.464C8.56 5.367 8 6.62 8 8V17.586L4.707 14.293C4.316 13.902 3.683 13.902 3.293 14.293C2.903 14.684 2.902 15.317 3.293 15.707L8.293 20.707C8.385 20.799 8.495 20.873 8.617 20.924C8.862 21.025 9.138 21.025 9.383 20.924C9.501 20.875 9.611 20.803 9.707 20.707L14.707 15.707C15.098 15.316 15.098 14.683 14.707 14.293C14.316 13.903 13.683 13.902 13.293 14.293L10 17.586V8C10 7.171 10.335 6.423 10.879 5.879C11.423 5.335 12.171 5 13 5H20C20.552 5 21 4.552 21 4C21 3.448 20.552 3 20 3Z" fill="black"/>
</svg>
