<svg width="24" height="24" viewBox="0 0 24 24" fill="none" xmlns="http://www.w3.org/2000/svg">
<path d="M4 21H11C12.38 21 13.632 20.439 14.536 19.536C15.44 18.633 16 17.38 16 16V6.41398L19.293 9.70697C19.684 10.098 20.317 10.098 20.707 9.70697C21.097 9.31598 21.098 8.68298 20.707 8.29298L15.707 3.29298C15.615 3.20098 15.505 3.12697 15.383 3.07597C15.021 2.92597 14.588 2.99798 14.293 3.29298L9.293 8.29298C8.902 8.68398 8.902 9.31698 9.293 9.70697C9.684 10.097 10.317 10.098 10.707 9.70697L14 6.41398V16C14 16.829 13.665 17.577 13.121 18.121C12.577 18.665 11.829 19 11 19H4C3.448 19 3 19.448 3 20C3 20.552 3.448 21 4 21Z" fill="black"/>
</svg>
