<svg width="24" height="24" viewBox="0 0 24 24" fill="none" xmlns="http://www.w3.org/2000/svg">
<path d="M21 20.0001V13.0001C21 11.6201 20.439 10.3681 19.536 9.46412C18.633 8.56012 17.38 8.00012 16 8.00012H6.414L9.707 4.70712C10.098 4.31612 10.098 3.68312 9.707 3.29312C9.316 2.90312 8.683 2.90212 8.293 3.29312L3.293 8.29312C3.197 8.38912 3.125 8.49912 3.076 8.61712C3.027 8.73512 3 8.86412 3 9.00012C3 9.13612 3.027 9.26512 3.076 9.38312C3.125 9.50112 3.197 9.61112 3.293 9.70712L8.293 14.7071C8.684 15.0981 9.317 15.0981 9.707 14.7071C10.097 14.3161 10.098 13.6831 9.707 13.2931L6.414 10.0001H16C16.829 10.0001 17.577 10.3351 18.121 10.8791C18.665 11.4231 19 12.1711 19 13.0001V20.0001C19 20.5521 19.448 21.0001 20 21.0001C20.552 21.0001 21 20.5521 21 20.0001Z" fill="black"/>
</svg>
