<svg width="24" height="24" viewBox="0 0 24 24" fill="none" xmlns="http://www.w3.org/2000/svg">
<path d="M3 4V11C3 12.38 3.561 13.632 4.464 14.536C5.367 15.44 6.62 16 8 16H17.586L14.293 19.293C13.902 19.684 13.902 20.317 14.293 20.707C14.684 21.097 15.317 21.098 15.707 20.707L20.707 15.707C20.799 15.615 20.873 15.505 20.924 15.383C21.074 15.021 21.002 14.588 20.707 14.293L15.707 9.293C15.316 8.902 14.683 8.902 14.293 9.293C13.903 9.684 13.902 10.317 14.293 10.707L17.586 14H8C7.171 14 6.423 13.665 5.879 13.121C5.335 12.577 5 11.829 5 11V4C5 3.448 4.552 3 4 3C3.448 3 3 3.448 3 4Z" fill="black"/>
</svg>
