<svg width="24" height="24" viewBox="0 0 24 24" fill="none" xmlns="http://www.w3.org/2000/svg">
<path d="M4 5H11C11.829 5 12.577 5.335 13.121 5.879C13.665 6.423 14 7.171 14 8V17.586L10.707 14.293C10.316 13.902 9.683 13.902 9.293 14.293C8.903 14.684 8.902 15.317 9.293 15.707L14.293 20.707C14.385 20.799 14.495 20.873 14.617 20.924C14.862 21.025 15.138 21.025 15.383 20.924C15.501 20.875 15.611 20.803 15.707 20.707L20.707 15.707C21.098 15.316 21.098 14.683 20.707 14.293C20.316 13.903 19.683 13.902 19.293 14.293L16 17.586V8C16 6.62 15.439 5.368 14.536 4.464C13.633 3.56 12.38 3 11 3H4C3.448 3 3 3.448 3 4C3 4.552 3.448 5 4 5Z" fill="black"/>
</svg>
