<svg width="24" height="24" viewBox="0 0 24 24" fill="none" xmlns="http://www.w3.org/2000/svg">
<path d="M20 19H13C12.171 19 11.423 18.665 10.879 18.121C10.335 17.577 10 16.829 10 16V6.414L13.293 9.707C13.684 10.098 14.317 10.098 14.707 9.707C15.097 9.316 15.098 8.683 14.707 8.293L9.70701 3.293C9.61101 3.197 9.50101 3.125 9.38301 3.076C9.26501 3.027 9.13601 3 9.00001 3C8.86401 3 8.73501 3.027 8.61701 3.076C8.49901 3.125 8.38901 3.197 8.29301 3.293L3.29301 8.293C2.90201 8.684 2.90201 9.317 3.29301 9.707C3.68401 10.097 4.31701 10.098 4.70701 9.707L8.00001 6.414V16C8.00001 17.38 8.56101 18.632 9.46401 19.536C10.367 20.44 11.62 21 13 21H20C20.552 21 21 20.552 21 20C21 19.448 20.552 19 20 19Z" fill="black"/>
</svg>
