<svg width="24" height="24" viewBox="0 0 24 24" fill="none" xmlns="http://www.w3.org/2000/svg">
<path d="M5 20V13C5 12.171 5.335 11.423 5.879 10.879C6.423 10.335 7.171 10 8 10H17.586L14.293 13.293C13.902 13.684 13.902 14.317 14.293 14.707C14.684 15.097 15.317 15.098 15.707 14.707L20.707 9.70701C20.799 9.61501 20.873 9.50501 20.924 9.38301C21.025 9.13801 21.025 8.86201 20.924 8.61701C20.875 8.49901 20.803 8.38901 20.707 8.29301L15.707 3.29301C15.316 2.90201 14.683 2.90201 14.293 3.29301C13.903 3.68401 13.902 4.31701 14.293 4.70701L17.586 8.00001H8C6.62 8.00001 5.368 8.56101 4.464 9.46401C3.56 10.367 3 11.62 3 13V20C3 20.552 3.448 21 4 21C4.552 21 5 20.552 5 20Z" fill="black"/>
</svg>
