<svg width="24" height="24" viewBox="0 0 24 24" fill="none" xmlns="http://www.w3.org/2000/svg">
<path d="M19 4V11C19 11.829 18.665 12.577 18.121 13.121C17.577 13.665 16.829 14 16 14H6.41398L9.70697 10.707C10.098 10.316 10.098 9.683 9.70697 9.293C9.31598 8.903 8.68298 8.902 8.29298 9.293L3.29298 14.293C3.20098 14.385 3.12697 14.495 3.07597 14.617C2.92597 14.979 2.99798 15.412 3.29298 15.707L8.29298 20.707C8.68398 21.098 9.31698 21.098 9.70697 20.707C10.097 20.316 10.098 19.683 9.70697 19.293L6.41398 16H16C17.38 16 18.632 15.439 19.536 14.536C20.44 13.633 21 12.38 21 11V4C21 3.448 20.552 3 20 3C19.448 3 19 3.448 19 4Z" fill="black"/>
</svg>
