<svg width="24" height="24" viewBox="0 0 24 24" fill="none" xmlns="http://www.w3.org/2000/svg">
<g clip-path="url(#clip0_2611_250)">
<path d="M6 5H18C18.276 5 18.525 5.111 18.707 5.293C18.889 5.475 19 5.724 19 6V18C19 18.276 18.889 18.525 18.707 18.707C18.525 18.889 18.276 19 18 19H6C5.724 19 5.475 18.889 5.293 18.707C5.111 18.525 5 18.276 5 18V6C5 5.724 5.111 5.475 5.293 5.293C5.475 5.111 5.724 5 6 5ZM9 8C8.448 8 8 8.448 8 9V15C8 15.552 8.448 16 9 16H15C15.552 16 16 15.552 16 15V9C16 8.448 15.552 8 15 8H9ZM10 10H14V14H10V10ZM1 15H3V18C3 18.828 3.337 19.58 3.879 20.121C4.421 20.662 5.172 21 6 21H8V23C8 23.552 8.448 24 9 24C9.552 24 10 23.552 10 23V21H14V23C14 23.552 14.448 24 15 24C15.552 24 16 23.552 16 23V21H18C18.828 21 19.58 20.663 20.121 20.121C20.662 19.579 21 18.828 21 18V15H23C23.552 15 24 14.552 24 14C24 13.448 23.552 13 23 13H21V10H23C23.552 10 24 9.552 24 9C24 8.448 23.552 8 23 8H21V6C21 5.172 20.663 4.42 20.121 3.879C19.579 3.338 18.828 3 18 3H16V1C16 0.448 15.552 0 15 0C14.448 0 14 0.448 14 1V3H10V1C10 0.448 9.552 0 9 0C8.448 0 8 0.448 8 1V3H6C5.172 3 4.42 3.337 3.879 3.879C3.338 4.421 3 5.172 3 6V8H1C0.448 8 0 8.448 0 9C0 9.552 0.448 10 1 10H3V13H1C0.448 13 0 13.448 0 14C0 14.552 0.448 15 1 15Z" fill="black"/>
</g>
<defs>
<clipPath id="clip0_2611_250">
<rect width="24" height="24" fill="white"/>
</clipPath>
</defs>
</svg>
