<svg width="24" height="24" viewBox="0 0 24 24" fill="none" xmlns="http://www.w3.org/2000/svg">
<path d="M3 3C2.172 3 1.42 3.337 0.879 3.879C0.338 4.421 0 5.172 0 6V18C0 18.828 0.337 19.58 0.879 20.121C1.421 20.662 2.172 21 3 21H21C21.828 21 22.58 20.663 23.121 20.121C23.662 19.579 24 18.828 24 18V6C24 5.172 23.663 4.42 23.121 3.879C22.579 3.338 21.828 3 21 3H3ZM22 9H2V6C2 5.724 2.111 5.475 2.293 5.293C2.475 5.111 2.724 5 3 5H21C21.276 5 21.525 5.111 21.707 5.293C21.889 5.475 22 5.724 22 6V9ZM2 11H22V18C22 18.276 21.889 18.525 21.707 18.707C21.525 18.889 21.276 19 21 19H3C2.724 19 2.475 18.889 2.293 18.707C2.111 18.525 2 18.276 2 18V11Z" fill="black"/>
</svg>
