<svg width="24" height="24" viewBox="0 0 24 24" fill="none" xmlns="http://www.w3.org/2000/svg">
<g clip-path="url(#clip0_2611_254)">
<path d="M7.07704 7.07704L16.009 7.00004C16.277 7.00004 16.525 7.11104 16.707 7.29304C16.889 7.47504 17 7.72404 17 8.00004V17H8.00004C7.72404 17 7.47504 16.889 7.29304 16.707C7.11104 16.525 7.00004 16.276 7.00004 16.009L7.07704 7.07704ZM1.00904 7.13004L5.07704 7.09504L5.00004 15.991C5.00004 16.828 5.33704 17.579 5.87904 18.121C6.42104 18.663 7.17204 19 8.00004 19H17V23C17 23.552 17.448 24 18 24C18.552 24 19 23.552 19 23V19H23C23.552 19 24 18.552 24 18C24 17.448 23.552 17 23 17H19V8.00004C19 7.17204 18.663 6.42004 18.121 5.87904C17.579 5.33804 16.828 5.00004 15.991 5.00004L7.09504 5.07704L7.13004 1.00904C7.13504 0.456042 6.69104 0.00504182 6.13904 4.18185e-05C5.58704 -0.00495818 5.13504 0.439042 5.13004 0.991042L5.09404 5.09404L0.991042 5.13004C0.439042 5.13504 -0.00495818 5.58604 4.18185e-05 6.13904C0.00504182 6.69204 0.456042 7.13504 1.00904 7.13004Z" fill="black"/>
</g>
<defs>
<clipPath id="clip0_2611_254">
<rect width="24" height="24" fill="white"/>
</clipPath>
</defs>
</svg>
