<svg width="24" height="24" viewBox="0 0 24 24" fill="none" xmlns="http://www.w3.org/2000/svg">
<path d="M23 12C23 8.963 21.768 6.211 19.778 4.222C17.788 2.233 15.037 1 12 1C8.963 1 6.211 2.232 4.222 4.222C2.233 6.212 1 8.963 1 12C1 15.037 2.232 17.789 4.222 19.778C6.212 21.767 8.963 23 12 23C15.037 23 17.789 21.768 19.778 19.778C21.767 17.788 23 15.037 23 12ZM13 20.945V18C13 17.448 12.552 17 12 17C11.448 17 11 17.448 11 18V20.945C8.914 20.715 7.044 19.772 5.636 18.364C4.228 16.956 3.285 15.086 3.055 13H6C6.552 13 7 12.552 7 12C7 11.448 6.552 11 6 11H3.055C3.285 8.914 4.228 7.044 5.636 5.636C7.044 4.228 8.914 3.285 11 3.055V6C11 6.552 11.448 7 12 7C12.552 7 13 6.552 13 6V3.055C15.086 3.285 16.956 4.228 18.364 5.636C19.772 7.044 20.715 8.914 20.945 11H18C17.448 11 17 11.448 17 12C17 12.552 17.448 13 18 13H20.945C20.715 15.086 19.772 16.956 18.364 18.364C16.956 19.772 15.086 20.715 13 20.945Z" fill="black"/>
</svg>
