<svg width="24" height="24" viewBox="0 0 24 24" fill="none" xmlns="http://www.w3.org/2000/svg">
<path d="M4 5.002C4 5.002 4.003 4.907 4.213 4.714C4.458 4.489 4.884 4.231 5.519 3.984C7.018 3.399 9.34 3 12 3C14.66 3 16.982 3.399 18.482 3.984C19.116 4.231 19.543 4.489 19.788 4.714C19.993 4.903 20 4.995 20 5.002C20 5.005 19.993 5.097 19.787 5.286C19.542 5.511 19.116 5.769 18.481 6.016C16.982 6.601 14.66 7 12 7C9.34 7 7.018 6.601 5.518 6.016C4.884 5.769 4.457 5.511 4.212 5.286C4.004 5.094 4 5.002 4 5.002ZM20 14.532V19.003C19.959 19.1 19.904 19.184 19.783 19.294C19.538 19.519 19.112 19.776 18.48 20.022C16.985 20.604 14.671 21 12 21C9.329 21 7.015 20.604 5.52 20.022C4.887 19.776 4.462 19.519 4.217 19.294C4.097 19.184 4.041 19.1 4.018 19.052L4.012 14.538C4.26 14.664 4.522 14.78 4.794 14.886C6.591 15.585 9.171 16 12 16C14.829 16 17.409 15.585 19.206 14.886C19.483 14.778 19.749 14.661 20 14.532ZM20 7.527V11.99C20 11.994 20 11.998 20 12.003C19.959 12.1 19.904 12.184 19.783 12.294C19.538 12.519 19.112 12.776 18.48 13.022C16.985 13.604 14.671 14 12 14C9.329 14 7.015 13.604 5.52 13.022C4.887 12.776 4.462 12.519 4.217 12.294C4.097 12.184 4.041 12.1 4.018 12.052C4.017 12.012 4.014 11.973 4.009 11.935L4.004 7.528C4.252 7.656 4.517 7.772 4.792 7.88C6.593 8.582 9.18 9 12 9C14.82 9 17.407 8.582 19.208 7.88C19.484 7.772 19.75 7.655 20 7.527ZM2 5V19C2 19.058 2.002 19.116 2.007 19.174C2.064 19.839 2.432 20.371 2.864 20.768C3.362 21.225 4.039 21.592 4.794 21.886C6.591 22.585 9.171 23 12 23C14.829 23 17.409 22.585 19.206 21.886C19.961 21.592 20.638 21.225 21.136 20.768C21.568 20.371 21.936 19.839 21.993 19.174C21.998 19.116 22 19.058 22 19V5C22 4.944 21.998 4.888 21.993 4.832C21.938 4.168 21.571 3.637 21.141 3.242C20.643 2.783 19.964 2.415 19.208 2.12C17.407 1.418 14.82 1 12 1C9.18 1 6.593 1.418 4.792 2.12C4.036 2.415 3.357 2.784 2.859 3.242C2.429 3.637 2.062 4.169 2.007 4.832C2.002 4.888 2 4.944 2 5Z" fill="black"/>
</svg>
