<svg width="24" height="24" viewBox="0 0 24 24" fill="none" xmlns="http://www.w3.org/2000/svg">
<g clip-path="url(#clip0_2611_260)">
<path d="M21 5C21.276 5 21.525 5.111 21.707 5.293C21.889 5.475 22 5.724 22 6V18C22 18.276 21.889 18.525 21.707 18.707C21.525 18.889 21.276 19 21 19H8.45401L2.32901 12L8.45401 5H21ZM21 3H8.00001C7.70001 3 7.43201 3.132 7.24701 3.341L0.24701 11.341C-0.0859901 11.721 -0.0789901 12.283 0.24701 12.658L7.24701 20.658C7.44501 20.884 7.72101 20.999 8.00001 21H21C21.828 21 22.58 20.663 23.121 20.121C23.662 19.579 24 18.828 24 18V6C24 5.172 23.663 4.42 23.121 3.879C22.579 3.338 21.828 3 21 3ZM11.293 9.707L13.586 12L11.293 14.293C10.902 14.684 10.902 15.317 11.293 15.707C11.684 16.097 12.317 16.098 12.707 15.707L15 13.414L17.293 15.707C17.684 16.098 18.317 16.098 18.707 15.707C19.097 15.316 19.098 14.683 18.707 14.293L16.414 12L18.707 9.707C19.098 9.316 19.098 8.683 18.707 8.293C18.316 7.903 17.683 7.902 17.293 8.293L15 10.586L12.707 8.293C12.316 7.902 11.683 7.902 11.293 8.293C10.903 8.684 10.902 9.317 11.293 9.707Z" fill="black"/>
</g>
<defs>
<clipPath id="clip0_2611_260">
<rect width="24" height="24" fill="white"/>
</clipPath>
</defs>
</svg>
