<svg width="24" height="24" viewBox="0 0 24 24" fill="none" xmlns="http://www.w3.org/2000/svg">
<path d="M23 12C23 8.963 21.768 6.211 19.778 4.222C17.788 2.233 15.037 1 12 1C8.963 1 6.211 2.232 4.222 4.222C2.233 6.212 1 8.963 1 12C1 15.037 2.232 17.789 4.222 19.778C6.212 21.767 8.963 23 12 23C15.037 23 17.789 21.768 19.778 19.778C21.767 17.788 23 15.037 23 12ZM21 12C21 14.486 19.994 16.734 18.364 18.364C16.734 19.994 14.486 21 12 21C9.514 21 7.266 19.994 5.636 18.364C4.006 16.734 3 14.486 3 12C3 9.514 4.006 7.266 5.636 5.636C7.266 4.006 9.514 3 12 3C14.486 3 16.734 4.006 18.364 5.636C19.994 7.266 21 9.514 21 12ZM16 12C16 10.896 15.551 9.894 14.828 9.172C14.105 8.45 13.104 8 12 8C10.896 8 9.894 8.449 9.172 9.172C8.45 9.895 8 10.896 8 12C8 13.104 8.449 14.106 9.172 14.828C9.895 15.55 10.896 16 12 16C13.104 16 14.106 15.551 14.828 14.828C15.55 14.105 16 13.104 16 12ZM14 12C14 12.553 13.777 13.051 13.414 13.414C13.051 13.777 12.553 14 12 14C11.447 14 10.949 13.777 10.586 13.414C10.223 13.051 10 12.553 10 12C10 11.447 10.223 10.949 10.586 10.586C10.949 10.223 11.447 10 12 10C12.553 10 13.051 10.223 13.414 10.586C13.777 10.949 14 11.447 14 12Z" fill="black"/>
</svg>
