<svg width="24" height="24" viewBox="0 0 24 24" fill="none" xmlns="http://www.w3.org/2000/svg">
<path d="M11 11H9.5C8.809 11 8.186 10.721 7.732 10.268C7.278 9.815 7 9.191 7 8.5C7 7.809 7.279 7.186 7.732 6.732C8.185 6.278 8.809 6 9.5 6H11V11ZM13 13H14.5C15.191 13 15.814 13.279 16.268 13.732C16.722 14.185 17 14.809 17 15.5C17 16.191 16.721 16.814 16.268 17.268C15.815 17.722 15.191 18 14.5 18H13V13ZM17 4H13V1C13 0.448 12.552 0 12 0C11.448 0 11 0.448 11 1V4H9.5C8.258 4 7.131 4.505 6.318 5.318C5.505 6.131 5 7.258 5 8.5C5 9.742 5.505 10.869 6.318 11.682C7.131 12.495 8.258 13 9.5 13H11V18H6C5.448 18 5 18.448 5 19C5 19.552 5.448 20 6 20H11V23C11 23.552 11.448 24 12 24C12.552 24 13 23.552 13 23V20H14.5C15.742 20 16.869 19.495 17.682 18.682C18.495 17.869 19 16.742 19 15.5C19 14.258 18.495 13.131 17.682 12.318C16.869 11.505 15.742 11 14.5 11H13V6H17C17.552 6 18 5.552 18 5C18 4.448 17.552 4 17 4Z" fill="black"/>
</svg>
