<svg width="24" height="24" viewBox="0 0 24 24" fill="none" xmlns="http://www.w3.org/2000/svg">
<path d="M20 15V19C20 19.276 19.889 19.525 19.707 19.707C19.525 19.889 19.276 20 19 20H5C4.724 20 4.475 19.889 4.293 19.707C4.111 19.525 4 19.276 4 19V15C4 14.448 3.552 14 3 14C2.448 14 2 14.448 2 15V19C2 19.828 2.337 20.58 2.879 21.121C3.421 21.662 4.172 22 5 22H19C19.828 22 20.58 21.663 21.121 21.121C21.662 20.579 22 19.828 22 19V15C22 14.448 21.552 14 21 14C20.448 14 20 14.448 20 15ZM13 12.586V3C13 2.448 12.552 2 12 2C11.448 2 11 2.448 11 3V12.586L7.707 9.293C7.316 8.902 6.683 8.902 6.293 9.293C5.903 9.684 5.902 10.317 6.293 10.707L11.293 15.707C11.385 15.799 11.495 15.873 11.617 15.924C11.739 15.975 11.87 16 12 16C12.256 16 12.512 15.902 12.707 15.707L17.707 10.707C18.098 10.316 18.098 9.683 17.707 9.293C17.316 8.903 16.683 8.902 16.293 9.293L13 12.586Z" fill="black"/>
</svg>
