<svg width="24" height="24" viewBox="0 0 24 24" fill="none" xmlns="http://www.w3.org/2000/svg">
<g clip-path="url(#clip0_2611_268)">
<path d="M11 12.0001V18.5861L8.70704 16.2931C8.31604 15.9021 7.68304 15.9021 7.29304 16.2931C6.90304 16.6841 6.90204 17.3171 7.29304 17.7071L11.293 21.7071C11.385 21.7991 11.495 21.8731 11.617 21.9241C11.862 22.0251 12.138 22.0251 12.383 21.9241C12.501 21.8751 12.611 21.8031 12.707 21.7071L16.707 17.7071C17.098 17.3161 17.098 16.6831 16.707 16.2931C16.316 15.9031 15.683 15.9021 15.293 16.2931L13 18.5861V12.0001C13 11.4481 12.552 11.0001 12 11.0001C11.448 11.0001 11 11.4481 11 12.0001ZM21.455 18.9081C22.81 17.9551 23.651 16.5411 23.915 15.0301C24.179 13.5191 23.865 11.9041 22.912 10.5491C22.087 9.37511 20.914 8.58611 19.625 8.22511C19.099 8.07811 18.553 8.00211 18.004 8.00011H17.481C16.759 5.94211 15.344 4.29011 13.574 3.24211C11.593 2.07011 9.16204 1.65311 6.75504 2.27011C4.34804 2.88711 2.41704 4.42511 1.24504 6.40611C0.0730391 8.38711 -0.343961 10.8181 0.273039 13.2251C0.644039 14.6711 1.34804 15.9501 2.25604 16.9591C2.62604 17.3691 3.25804 17.4031 3.66804 17.0331C4.07804 16.6631 4.11204 16.0311 3.74204 15.6211C3.05004 14.8521 2.50004 13.8611 2.20904 12.7281C1.72804 10.8551 2.05204 8.96711 2.96504 7.42411C3.87804 5.88111 5.37704 4.68811 7.25004 4.20811C9.12304 3.72811 11.011 4.05111 12.554 4.96411C14.097 5.87711 15.29 7.37611 15.77 9.24911C15.886 9.68411 16.276 10.0001 16.74 10.0001H17.996C18.366 10.0011 18.733 10.0521 19.086 10.1511C19.947 10.3921 20.725 10.9161 21.276 11.6991C21.912 12.6031 22.121 13.6771 21.945 14.6871C21.769 15.6971 21.209 16.6371 20.305 17.2721C19.853 17.5901 19.745 18.2131 20.062 18.6651C20.379 19.1171 21.003 19.2251 21.455 18.9081Z" fill="black"/>
</g>
<defs>
<clipPath id="clip0_2611_268">
<rect width="24" height="24" fill="white"/>
</clipPath>
</defs>
</svg>
