<svg width="24" height="24" viewBox="0 0 24 24" fill="none" xmlns="http://www.w3.org/2000/svg">
<path d="M12.707 1.98294C12.316 1.59194 11.682 1.59294 11.292 1.98394L5.63901 7.64694C3.88201 9.40494 3.00401 11.7099 3.00501 14.0119C3.00601 16.3139 3.88501 18.6189 5.64301 20.3749C7.39901 22.1299 9.70201 23.0079 12.001 23.0089C14.309 23.0079 16.614 22.1279 18.371 20.3709C20.126 18.6149 21.004 16.3119 21.005 14.0129C21.004 11.7039 20.124 9.39994 18.367 7.64394L12.707 1.98294ZM12.001 4.10494L16.953 9.05694C18.321 10.4239 19.005 12.2129 19.005 14.0059C19.005 15.7989 18.323 17.5889 16.956 18.9559C15.589 20.3229 13.8 21.0069 12.007 21.0079C10.214 21.0089 8.42401 20.3259 7.05701 18.9589C5.69001 17.5919 5.00601 15.8029 5.00501 14.0099C5.00401 12.2169 5.68701 10.4269 7.05401 9.05994L12.001 4.10494Z" fill="black"/>
</svg>
