<svg width="24" height="24" viewBox="0 0 24 24" fill="none" xmlns="http://www.w3.org/2000/svg">
<path d="M16.293 2.29287L2.79302 15.7929C2.67602 15.9089 2.58302 16.0609 2.53502 16.2369L1.03502 21.7369C0.989024 21.8999 0.986024 22.0829 1.03502 22.2629C1.18002 22.7959 1.73002 23.1099 2.26302 22.9649L7.76302 21.4649C7.92202 21.4229 8.07802 21.3359 8.20702 21.2069L21.707 7.70687C22.454 6.95988 22.828 5.97788 22.828 4.99988C22.828 4.02188 22.454 3.03987 21.707 2.29287C20.96 1.54587 19.978 1.17188 19 1.17188C18.022 1.17188 17.04 1.54587 16.293 2.29287ZM17.707 3.70687C18.064 3.34987 18.531 3.17187 19 3.17187C19.469 3.17187 19.936 3.34987 20.293 3.70787C20.65 4.06587 20.828 4.53087 20.828 4.99988C20.828 5.46887 20.65 5.93588 20.293 6.29288L6.98102 19.6049L3.42502 20.5749L4.39502 17.0199L17.707 3.70687Z" fill="black"/>
</svg>
