<svg width="24" height="24" viewBox="0 0 24 24" fill="none" xmlns="http://www.w3.org/2000/svg">
<path d="M12 20.9999H21C21.552 20.9999 22 20.5519 22 19.9999C22 19.4479 21.552 18.9999 21 18.9999H12C11.448 18.9999 11 19.4479 11 19.9999C11 20.5519 11.448 20.9999 12 20.9999ZM15.793 2.79291L3.29302 15.2929C3.17102 15.4139 3.07602 15.5729 3.03002 15.7579L2.03002 19.7579C1.99102 19.9079 1.98802 20.0759 2.03002 20.2429C2.16402 20.7789 2.70702 21.1049 3.24302 20.9709L7.24302 19.9709C7.41002 19.9299 7.57302 19.8419 7.70802 19.7079L20.208 7.20791C20.817 6.59891 21.122 5.79791 21.122 5.00091C21.122 4.20391 20.817 3.40291 20.208 2.79391C19.599 2.18491 18.797 1.87891 18 1.87891C17.203 1.87891 16.402 2.18391 15.793 2.79291ZM17.207 4.20691C17.426 3.98791 17.711 3.87891 18 3.87891C18.289 3.87891 18.574 3.98791 18.793 4.20691C19.012 4.42591 19.121 4.71091 19.121 4.99991C19.121 5.28891 19.012 5.57391 18.793 5.79291L6.48902 18.0969L4.37402 18.6259L4.90302 16.5109L17.207 4.20691Z" fill="black"/>
</svg>
