<svg width="24" height="24" viewBox="0 0 24 24" fill="none" xmlns="http://www.w3.org/2000/svg">
<path d="M11 2.99991H4C3.172 2.99991 2.42 3.33691 1.879 3.87891C1.338 4.42091 1 5.17191 1 5.99991V19.9999C1 20.8279 1.337 21.5799 1.879 22.1209C2.421 22.6619 3.172 22.9999 4 22.9999H18C18.828 22.9999 19.58 22.6629 20.121 22.1209C20.662 21.5789 21 20.8279 21 19.9999V12.9999C21 12.4479 20.552 11.9999 20 11.9999C19.448 11.9999 19 12.4479 19 12.9999V19.9999C19 20.2759 18.889 20.5249 18.707 20.7069C18.525 20.8889 18.276 20.9999 18 20.9999H4C3.724 20.9999 3.475 20.8889 3.293 20.7069C3.111 20.5249 3 20.2759 3 19.9999V5.99991C3 5.72391 3.111 5.47491 3.293 5.29291C3.475 5.11091 3.724 4.99991 4 4.99991H11C11.552 4.99991 12 4.55191 12 3.99991C12 3.44791 11.552 2.99991 11 2.99991ZM17.793 1.79291L8.293 11.2929C8.171 11.4139 8.076 11.5729 8.03 11.7579L7.03 15.7579C6.991 15.9079 6.988 16.0759 7.03 16.2429C7.164 16.7789 7.707 17.1049 8.243 16.9709L12.243 15.9709C12.41 15.9299 12.573 15.8419 12.708 15.7079L22.208 6.20791C22.817 5.59891 23.122 4.79791 23.122 4.00091C23.122 3.20391 22.817 2.40291 22.208 1.79391C21.599 1.18491 20.797 0.878906 20 0.878906C19.203 0.878906 18.402 1.18391 17.793 1.79291ZM19.207 3.20691C19.426 2.98791 19.711 2.87891 20 2.87891C20.289 2.87891 20.574 2.98791 20.793 3.20691C21.012 3.42591 21.121 3.71091 21.121 3.99991C21.121 4.28891 21.012 4.57391 20.793 4.79291L11.489 14.0969L9.375 14.6259L9.904 12.5119L19.207 3.20691Z" fill="black"/>
</svg>
