<svg width="24" height="24" viewBox="0 0 24 24" fill="none" xmlns="http://www.w3.org/2000/svg">
<path d="M17 13V19C17 19.276 16.889 19.525 16.707 19.707C16.525 19.889 16.276 20 16 20H5C4.724 20 4.475 19.889 4.293 19.707C4.111 19.525 4 19.276 4 19V8C4 7.724 4.111 7.475 4.293 7.293C4.475 7.111 4.724 7 5 7H11C11.552 7 12 6.552 12 6C12 5.448 11.552 5 11 5H5C4.172 5 3.42 5.337 2.879 5.879C2.338 6.421 2 7.172 2 8V19C2 19.828 2.337 20.58 2.879 21.121C3.421 21.662 4.172 22 5 22H16C16.828 22 17.58 21.663 18.121 21.121C18.662 20.579 19 19.828 19 19V13C19 12.448 18.552 12 18 12C17.448 12 17 12.448 17 13ZM10.707 14.707L20 5.414V9C20 9.552 20.448 10 21 10C21.552 10 22 9.552 22 9V3C22 2.864 21.973 2.735 21.924 2.617C21.875 2.499 21.803 2.389 21.708 2.294C21.707 2.293 21.707 2.293 21.706 2.292C21.614 2.2 21.504 2.126 21.383 2.076C21.265 2.027 21.136 2 21 2H15C14.448 2 14 2.448 14 3C14 3.552 14.448 4 15 4H18.586L9.293 13.293C8.902 13.684 8.902 14.317 9.293 14.707C9.684 15.097 10.317 15.098 10.707 14.707Z" fill="black"/>
</svg>
