<svg width="24" height="24" viewBox="0 0 24 24" fill="none" xmlns="http://www.w3.org/2000/svg">
<g clip-path="url(#clip0_2611_282)">
<path d="M10.128 5.21376C10.779 5.06176 11.424 4.99276 11.988 4.99976C13.746 4.99976 15.297 5.55876 16.646 6.39276C17.765 7.08476 18.735 7.95976 19.54 8.84076C20.184 9.54576 20.715 10.2458 21.125 10.8418C21.452 11.3168 21.695 11.7158 21.858 11.9968C21.312 12.9498 20.698 13.8178 20.08 14.5388C19.721 14.9578 19.769 15.5898 20.188 15.9488C20.607 16.3078 21.239 16.2598 21.598 15.8408C22.416 14.8868 23.209 13.7288 23.881 12.4708C24.029 12.1918 24.044 11.8528 23.894 11.5518C23.894 11.5518 23.498 10.7628 22.774 9.70876C22.323 9.05276 21.736 8.27676 21.017 7.49076C20.123 6.51176 19.013 5.50376 17.698 4.69076C16.103 3.70576 14.192 2.99976 12.012 2.99976C11.278 2.99076 10.472 3.07876 9.67201 3.26576C9.13401 3.39176 8.80001 3.92976 8.92601 4.46776C9.05201 5.00576 9.59001 5.33976 10.128 5.21376ZM10.027 11.4418L12.558 13.9728C12.376 14.0338 12.186 14.0668 11.995 14.0738C11.482 14.0918 10.965 13.9148 10.561 13.5378C10.157 13.1608 9.94401 12.6578 9.92601 12.1448C9.91801 11.9068 9.95101 11.6688 10.027 11.4408V11.4418ZM5.98301 7.39676L8.53601 9.94976C8.10201 10.6408 7.90001 11.4338 7.92801 12.2158C7.96401 13.2378 8.39101 14.2488 9.19901 15.0008C10.007 15.7528 11.045 16.1078 12.067 16.0718C12.759 16.0478 13.446 15.8438 14.051 15.4638L16.373 17.7858C14.995 18.5848 13.478 18.9818 11.989 18.9998C10.255 18.9998 8.70401 18.4408 7.35501 17.6068C6.23601 16.9148 5.26601 16.0398 4.46101 15.1588C3.81701 14.4538 3.28601 13.7538 2.87601 13.1578C2.55001 12.6828 2.30601 12.2848 2.14401 12.0038C3.19401 10.1818 4.52001 8.62476 5.98501 7.39676H5.98301ZM0.29301 1.70676L4.56401 5.97776C2.83301 7.45676 1.29501 9.33576 0.11901 11.5268C-0.0289897 11.8058 -0.0449897 12.1458 0.10601 12.4468C0.10601 12.4468 0.50201 13.2358 1.22601 14.2898C1.67701 14.9458 2.26401 15.7218 2.98301 16.5078C3.87701 17.4868 4.98701 18.4948 6.30201 19.3078C7.89701 20.2938 9.80801 20.9998 12.012 20.9998C14.005 20.9758 16.031 20.3988 17.827 19.2408L22.293 23.7068C22.684 24.0978 23.317 24.0978 23.707 23.7068C24.097 23.3158 24.098 22.6828 23.707 22.2928L14.831 13.4168C14.829 13.4148 14.826 13.4118 14.824 13.4098L10.615 9.19976C10.607 9.19276 10.599 9.18376 10.591 9.17576L1.70701 0.292762C1.31601 -0.0982383 0.68301 -0.0982383 0.29301 0.292762C-0.0969897 0.683762 -0.0979897 1.31676 0.29301 1.70676Z" fill="black"/>
</g>
<defs>
<clipPath id="clip0_2611_282">
<rect width="24" height="24" fill="white"/>
</clipPath>
</defs>
</svg>
