<svg width="24" height="24" viewBox="0 0 24 24" fill="none" xmlns="http://www.w3.org/2000/svg">
<path d="M0.106027 11.553C-0.0299726 11.827 -0.0399726 12.156 0.106027 12.447C0.106027 12.447 0.502027 13.236 1.22603 14.29C1.67703 14.946 2.26403 15.722 2.98303 16.508C3.87703 17.487 4.98703 18.495 6.30203 19.308C7.89703 20.294 9.80803 21 12 21C14.192 21 16.103 20.294 17.698 19.308C19.013 18.495 20.123 17.487 21.017 16.508C21.735 15.722 22.323 14.946 22.774 14.29C23.498 13.236 23.894 12.447 23.894 12.447C24.03 12.173 24.04 11.844 23.894 11.553C23.894 11.553 23.498 10.764 22.774 9.71C22.323 9.054 21.736 8.278 21.017 7.492C20.123 6.513 19.013 5.505 17.698 4.692C16.103 3.706 14.192 3 12 3C9.80803 3 7.89703 3.706 6.30203 4.692C4.98703 5.505 3.87703 6.513 2.98303 7.492C2.26403 8.278 1.67703 9.053 1.22603 9.71C0.502027 10.764 0.106027 11.553 0.106027 11.553ZM2.14003 12C2.30303 11.719 2.54703 11.319 2.87403 10.842C3.28403 10.246 3.81403 9.546 4.45903 8.841C5.26403 7.96 6.23403 7.085 7.35303 6.393C8.70303 5.559 10.254 5 12 5C13.746 5 15.297 5.559 16.646 6.393C17.765 7.085 18.735 7.96 19.54 8.841C20.184 9.546 20.715 10.246 21.125 10.842C21.453 11.319 21.697 11.718 21.859 12C21.696 12.281 21.452 12.681 21.125 13.158C20.715 13.754 20.185 14.454 19.54 15.159C18.735 16.04 17.765 16.915 16.646 17.607C15.297 18.441 13.746 19 12 19C10.254 19 8.70303 18.441 7.35403 17.607C6.23503 16.915 5.26503 16.04 4.46003 15.159C3.81603 14.454 3.28503 13.754 2.87503 13.158C2.54703 12.681 2.30303 12.281 2.14003 12ZM16 12C16 10.896 15.551 9.894 14.828 9.172C14.105 8.45 13.104 8 12 8C10.896 8 9.89403 8.449 9.17203 9.172C8.45003 9.895 8.00003 10.896 8.00003 12C8.00003 13.104 8.44903 14.106 9.17203 14.828C9.89503 15.55 10.896 16 12 16C13.104 16 14.106 15.551 14.828 14.828C15.55 14.105 16 13.104 16 12ZM14 12C14 12.553 13.777 13.051 13.414 13.414C13.051 13.777 12.553 14 12 14C11.447 14 10.949 13.777 10.586 13.414C10.223 13.051 10 12.553 10 12C10 11.447 10.223 10.949 10.586 10.586C10.949 10.223 11.447 10 12 10C12.553 10 13.051 10.223 13.414 10.586C13.777 10.949 14 11.447 14 12Z" fill="black"/>
</svg>
