<svg width="24" height="24" viewBox="0 0 24 24" fill="none" xmlns="http://www.w3.org/2000/svg">
<path d="M14 16.9548V7.04484L20.371 11.9998L14 16.9548ZM3.00001 16.9548V7.04484L9.37101 11.9998L3.00001 16.9548ZM2.61401 19.7888L11.614 12.7888C11.865 12.5938 11.997 12.3028 12 12.0088V18.9998C12 19.5518 12.448 19.9998 13 19.9998C13.232 19.9998 13.446 19.9208 13.614 19.7888L22.614 12.7888C23.05 12.4498 23.128 11.8218 22.789 11.3858C22.735 11.3168 22.674 11.2568 22.614 11.2108L13.614 4.21084C13.178 3.87184 12.55 3.94984 12.211 4.38584C12.068 4.56984 11.999 4.78684 12 4.99984V11.9898C11.998 11.7788 11.929 11.5658 11.789 11.3858C11.735 11.3168 11.674 11.2568 11.614 11.2108L2.61401 4.21084C2.17801 3.87184 1.55001 3.94984 1.21101 4.38584C1.06801 4.56984 0.999011 4.78684 1.00001 4.99984V18.9998C1.00001 19.5518 1.44801 19.9998 2.00001 19.9998C2.23201 19.9998 2.44601 19.9208 2.61401 19.7888Z" fill="black"/>
</svg>
