<svg width="24" height="24" viewBox="0 0 24 24" fill="none" xmlns="http://www.w3.org/2000/svg">
<path d="M18.111 15.7922C18.18 15.7392 18.241 15.6772 18.294 15.6082L20.947 12.9472C22.314 11.5802 22.998 9.78619 22.998 7.99519C22.998 6.20419 22.314 4.41019 20.947 3.04319C19.58 1.67619 17.786 0.992188 15.995 0.992188C14.204 0.992188 12.41 1.67619 11.043 3.04319L4.29301 9.79319C4.09801 9.98819 4.00001 10.2442 4.00001 10.5002V18.5862L1.29301 21.2932C0.902006 21.6842 0.902006 22.3172 1.29301 22.7072C1.68401 23.0972 2.31701 23.0982 2.70701 22.7072L5.41401 20.0002H13.5C13.777 20.0002 14.027 19.8882 14.208 19.7062L18.111 15.7922ZM9.41401 16.0002H15.079L13.085 18.0002H7.41401L9.41401 16.0002ZM17.073 14.0002H11.414L16.707 8.70719C17.098 8.31619 17.098 7.68319 16.707 7.29319C16.316 6.90319 15.683 6.90219 15.293 7.29319L6.00001 16.5862V10.9142L12.457 4.45719C13.434 3.48019 14.713 2.99219 15.995 2.99219C17.277 2.99219 18.556 3.48019 19.533 4.45719C20.51 5.43419 20.998 6.71319 20.998 7.99519C20.998 9.27719 20.51 10.5562 19.533 11.5332L17.073 14.0002Z" fill="black"/>
</svg>
