<svg width="24" height="24" viewBox="0 0 24 24" fill="none" xmlns="http://www.w3.org/2000/svg">
<path d="M13 12.5C13 11.809 13.279 11.186 13.732 10.732C14.185 10.278 14.809 10 15.5 10C16.191 10 16.814 10.279 17.268 10.732C17.722 11.185 18 11.809 18 12.5C18 13.191 17.721 13.814 17.268 14.268C16.815 14.722 16.191 15 15.5 15C14.809 15 14.186 14.721 13.732 14.268C13.278 13.815 13 13.191 13 12.5ZM8.5 8C7.809 8 7.186 7.721 6.732 7.268C6.278 6.815 6 6.191 6 5.5C6 4.809 6.279 4.186 6.732 3.732C7.185 3.278 7.809 3 8.5 3H11V8H8.5ZM13 8V3H15.5C16.191 3 16.814 3.279 17.268 3.732C17.722 4.185 18 4.809 18 5.5C18 6.191 17.721 6.814 17.268 7.268C16.815 7.722 16.191 8 15.5 8H13ZM11 17V19.5C11 20.191 10.721 20.814 10.268 21.268C9.815 21.722 9.191 22 8.5 22C7.809 22 7.186 21.721 6.732 21.268C6.278 20.815 6 20.191 6 19.5C6 18.809 6.279 18.186 6.732 17.732C7.185 17.278 7.809 17 8.5 17H11ZM4 12.5C4 13.742 4.505 14.869 5.318 15.682C5.43 15.794 5.548 15.9 5.671 16C5.548 16.1 5.43 16.206 5.318 16.318C4.505 17.131 4 18.258 4 19.5C4 20.742 4.505 21.869 5.318 22.682C6.131 23.495 7.258 24 8.5 24C9.742 24 10.869 23.495 11.682 22.682C12.495 21.869 13 20.742 13 19.5V16.242C13.715 16.72 14.575 17 15.5 17C16.742 17 17.869 16.495 18.682 15.682C19.495 14.869 20 13.742 20 12.5C20 11.258 19.495 10.131 18.682 9.318C18.57 9.206 18.452 9.1 18.329 9C18.452 8.9 18.57 8.794 18.682 8.682C19.495 7.869 20 6.742 20 5.5C20 4.258 19.495 3.131 18.682 2.318C17.869 1.505 16.742 1 15.5 1H8.5C7.258 1 6.131 1.505 5.318 2.318C4.505 3.131 4 4.258 4 5.5C4 6.742 4.505 7.869 5.318 8.682C5.43 8.794 5.548 8.9 5.671 9C5.548 9.1 5.43 9.206 5.318 9.318C4.505 10.131 4 11.258 4 12.5ZM6 12.5C6 11.809 6.279 11.186 6.732 10.732C7.185 10.278 7.809 10 8.5 10H11V15H8.5C7.809 15 7.186 14.721 6.732 14.268C6.278 13.815 6 13.191 6 12.5Z" fill="black"/>
</svg>
