<svg width="24" height="24" viewBox="0 0 24 24" fill="none" xmlns="http://www.w3.org/2000/svg">
<path d="M17.586 7H15V4.414L17.586 7ZM20.707 7.293L14.707 1.293C14.615 1.201 14.505 1.127 14.383 1.076C14.261 1.025 14.13 1 14 1H6C5.172 1 4.42 1.337 3.879 1.879C3.338 2.421 3 3.172 3 4V20C3 20.828 3.337 21.58 3.879 22.121C4.421 22.662 5.172 23 6 23H18C18.828 23 19.58 22.663 20.121 22.121C20.662 21.579 21 20.828 21 20V8C21 7.724 20.888 7.474 20.707 7.293ZM13 3V8C13 8.552 13.448 9 14 9H19V20C19 20.276 18.889 20.525 18.707 20.707C18.525 20.889 18.276 21 18 21H6C5.724 21 5.475 20.889 5.293 20.707C5.111 20.525 5 20.276 5 20V4C5 3.724 5.111 3.475 5.293 3.293C5.475 3.111 5.724 3 6 3H13ZM16 12H8C7.448 12 7 12.448 7 13C7 13.552 7.448 14 8 14H16C16.552 14 17 13.552 17 13C17 12.448 16.552 12 16 12ZM16 16H8C7.448 16 7 16.448 7 17C7 17.552 7.448 18 8 18H16C16.552 18 17 17.552 17 17C17 16.448 16.552 16 16 16ZM10 8H8C7.448 8 7 8.448 7 9C7 9.552 7.448 10 8 10H10C10.552 10 11 9.552 11 9C11 8.448 10.552 8 10 8Z" fill="black"/>
</svg>
