<svg width="24" height="24" viewBox="0 0 24 24" fill="none" xmlns="http://www.w3.org/2000/svg">
<path d="M16 11H8V3H16V11ZM8 13H16V21H8V13ZM6 6H3V4.18C3 3.854 3.131 3.56 3.346 3.346C3.561 3.132 3.854 3 4.18 3H6V6ZM3 8H6V11H3V8ZM6 16H3V13H6V16ZM3 18H6V21H4.18C3.854 21 3.56 20.869 3.346 20.654C3.132 20.439 3 20.146 3 19.82V18ZM21 16H18V13H21V16ZM18 18H21V19.82C21 20.146 20.869 20.44 20.654 20.654C20.439 20.868 20.146 21 19.82 21H18V18ZM21 6H18V3H19.82C20.146 3 20.44 3.131 20.654 3.346C20.868 3.561 21 3.854 21 4.18V6ZM23 7V4.18C23 3.302 22.643 2.506 22.069 1.931C21.495 1.356 20.698 1 19.82 1H4.18C3.302 1 2.506 1.357 1.931 1.931C1.356 2.505 1 3.302 1 4.18V19.82C1 20.698 1.357 21.494 1.931 22.069C2.505 22.644 3.302 23 4.18 23H19.82C20.698 23 21.494 22.643 22.069 22.069C22.644 21.495 23 20.698 23 19.82V7ZM18 8H21V11H18V8Z" fill="black"/>
</svg>
