<svg width="24" height="24" viewBox="0 0 24 24" fill="none" xmlns="http://www.w3.org/2000/svg">
<path d="M19.845 4.00001L13.236 11.814C13.089 11.987 13 12.213 13 12.46V19.382L11 18.382V12.46C11.001 12.233 10.923 12.003 10.764 11.814L4.155 4.00001H19.845ZM22 2.00001H2C1.448 2.00001 1 2.44801 1 3.00001C1 3.24701 1.089 3.47301 1.236 3.64601L9 12.826V19C9 19.389 9.222 19.727 9.553 19.894L13.553 21.894C14.047 22.141 14.648 21.941 14.895 21.447C14.967 21.301 15.001 21.146 15 21V12.826L22.764 3.64601C23.121 3.22401 23.068 2.59301 22.646 2.23701C22.457 2.07701 22.227 1.99901 22 2.00001Z" fill="black"/>
</svg>
