<svg width="24" height="24" viewBox="0 0 24 24" fill="none" xmlns="http://www.w3.org/2000/svg">
<path d="M5 13.397V3.538C5.44 3.32 6.365 3 8 3C9.281 3 10.361 3.421 11.629 3.928C12.861 4.421 14.281 5 16 5C17.298 5 18.278 4.825 19 4.603V14.462C18.56 14.68 17.635 15 16 15C14.719 15 13.639 14.579 12.371 14.072C11.139 13.579 9.719 13 8 13C6.702 13 5.722 13.175 5 13.397ZM5 22V15.538C5.44 15.32 6.365 15 8 15C9.281 15 10.361 15.421 11.629 15.928C12.861 16.421 14.281 17 16 17C19.247 17 20.507 15.907 20.707 15.707C20.902 15.512 21 15.256 21 15V3C21 2.448 20.552 2 20 2C19.735 2 19.494 2.103 19.315 2.272C19.219 2.35 18.331 3 16 3C14.719 3 13.639 2.579 12.371 2.072C11.139 1.579 9.719 1 8 1C4.753 1 3.493 2.093 3.293 2.293C3.098 2.488 3 2.744 3 3V22C3 22.552 3.448 23 4 23C4.552 23 5 22.552 5 22Z" fill="black"/>
</svg>
