<svg width="24" height="24" viewBox="0 0 24 24" fill="none" xmlns="http://www.w3.org/2000/svg">
<path d="M23 19V8C23 7.172 22.663 6.42 22.121 5.879C21.579 5.338 20.828 5 20 5H11.535L9.832 2.445C9.65 2.175 9.346 2 9 2H4C3.172 2 2.42 2.337 1.879 2.879C1.338 3.421 1 4.172 1 5V19C1 19.828 1.337 20.58 1.879 21.121C2.421 21.662 3.172 22 4 22H20C20.828 22 21.58 21.663 22.121 21.121C22.662 20.579 23 19.828 23 19ZM21 19C21 19.276 20.889 19.525 20.707 19.707C20.525 19.889 20.276 20 20 20H4C3.724 20 3.475 19.889 3.293 19.707C3.111 19.525 3 19.276 3 19V5C3 4.724 3.111 4.475 3.293 4.293C3.475 4.111 3.724 4 4 4H8.465L10.168 6.555C10.36 6.842 10.674 6.998 11 7H20C20.276 7 20.525 7.111 20.707 7.293C20.889 7.475 21 7.724 21 8V19ZM9 15H15C15.552 15 16 14.552 16 14C16 13.448 15.552 13 15 13H9C8.448 13 8 13.448 8 14C8 14.552 8.448 15 9 15Z" fill="black"/>
</svg>
