<svg width="24" height="24" viewBox="0 0 24 24" fill="none" xmlns="http://www.w3.org/2000/svg">
<g clip-path="url(#clip0_2611_138)">
<path d="M12.414 8L7.414 3H18V8H12.414ZM6 16V10H11.586L16.586 15H12C11.448 15 11 15.448 11 16C11 16.552 11.448 17 12 17H19C19.256 17 19.512 16.902 19.707 16.707C20.098 16.316 20.098 15.683 19.707 15.293L14.414 10H19C19.552 10 20 9.552 20 9V2C20 1.448 19.552 1 19 1H5C4.448 1 4 1.448 4 2C4 2.276 4.112 2.526 4.293 2.707L9.586 8H5C4.448 8 4 8.448 4 9V16C4 16.552 4.448 17 5 17C5.552 17 6 16.552 6 16ZM4.293 16.707L11.293 23.707C11.684 24.098 12.317 24.098 12.707 23.707C12.902 23.512 13 23.256 13 23V16C13 15.448 12.552 15 12 15C11.448 15 11 15.448 11 16V20.586L5.707 15.293C5.316 14.902 4.683 14.902 4.293 15.293C3.903 15.684 3.902 16.317 4.293 16.707ZM5 17H12C12.552 17 13 16.552 13 16C13 15.448 12.552 15 12 15H5C4.448 15 4 15.448 4 16C4 16.552 4.448 17 5 17Z" fill="black"/>
</g>
<defs>
<clipPath id="clip0_2611_138">
<rect width="24" height="24" fill="white"/>
</clipPath>
</defs>
</svg>
