<svg width="24" height="24" viewBox="0 0 24 24" fill="none" xmlns="http://www.w3.org/2000/svg">
<path d="M23 12C23 8.963 21.768 6.211 19.778 4.222C17.788 2.233 15.037 1 12 1C8.963 1 6.211 2.232 4.222 4.222C2.233 6.212 1 8.963 1 12C1 15.037 2.232 17.789 4.222 19.778C6.212 21.767 8.963 23 12 23C15.037 23 17.789 21.768 19.778 19.778C21.767 17.788 23 15.037 23 12ZM21 12C21 14.486 19.994 16.734 18.364 18.364C16.734 19.994 14.486 21 12 21C9.514 21 7.266 19.994 5.636 18.364C4.006 16.734 3 14.486 3 12C3 9.514 4.006 7.266 5.636 5.636C7.266 4.006 9.514 3 12 3C14.486 3 16.734 4.006 18.364 5.636C19.994 7.266 21 9.514 21 12ZM16.8 15.4C16.8 15.4 16.669 15.227 16.469 15.017C16.324 14.864 16.131 14.676 15.892 14.477C15.555 14.196 15.12 13.887 14.595 13.624C13.89 13.272 13.016 13 12 13C10.984 13 10.11 13.272 9.405 13.624C8.88 13.887 8.445 14.196 8.108 14.477C7.869 14.676 7.676 14.864 7.531 15.017C7.331 15.227 7.2 15.4 7.2 15.4C6.869 15.842 6.958 16.469 7.4 16.8C7.842 17.131 8.469 17.042 8.8 16.6C8.841 16.55 8.981 16.394 8.981 16.394C9.081 16.289 9.218 16.155 9.389 16.012C9.632 15.809 9.938 15.593 10.299 15.412C10.779 15.173 11.349 15 12 15C12.651 15 13.221 15.173 13.701 15.413C14.061 15.593 14.368 15.81 14.611 16.013C14.782 16.156 14.919 16.29 15.019 16.395C15.159 16.55 15.2 16.6 15.2 16.6C15.531 17.042 16.158 17.131 16.6 16.8C17.042 16.469 17.131 15.842 16.8 15.4ZM9 10C9.552 10 10 9.552 10 9C10 8.448 9.552 8 9 8C8.448 8 8 8.448 8 9C8 9.552 8.448 10 9 10ZM15 10C15.552 10 16 9.552 16 9C16 8.448 15.552 8 15 8C14.448 8 14 8.448 14 9C14 9.552 14.448 10 15 10Z" fill="black"/>
</svg>
