<svg width="24" height="24" viewBox="0 0 24 24" fill="none" xmlns="http://www.w3.org/2000/svg">
<path d="M11 13V21H5V13H11ZM13 21V13H19V21H13ZM7.5 6C7.086 6 6.712 5.833 6.439 5.561C6.166 5.289 6 4.914 6 4.5C6 4.086 6.167 3.712 6.439 3.439C6.711 3.166 7.086 3 7.5 3C8.129 3 8.642 3.223 9.084 3.586C9.46 3.894 9.785 4.305 10.06 4.763C10.301 5.164 10.493 5.584 10.64 5.966L7.5 6ZM13.346 6C13.507 5.584 13.699 5.164 13.939 4.763C14.214 4.304 14.54 3.894 14.915 3.586C15.358 3.223 15.871 3 16.5 3C16.914 3 17.288 3.167 17.561 3.439C17.834 3.711 18 4.086 18 4.5C18 4.914 17.833 5.288 17.561 5.561C17.289 5.834 16.914 6 16.5 6H13.346ZM11 8V11H3V8H7.5H11ZM19.663 6C19.879 5.545 20 5.037 20 4.5C20 3.534 19.607 2.657 18.975 2.025C18.343 1.393 17.466 1 16.5 1C15.34 1 14.391 1.43 13.648 2.039C13.045 2.533 12.58 3.142 12.225 3.733C12.145 3.866 12.07 3.999 12 4.131C11.93 3.999 11.855 3.866 11.775 3.733C11.42 3.142 10.955 2.533 10.352 2.039C9.609 1.43 8.66 1 7.5 1C6.534 1 5.657 1.393 5.025 2.025C4.393 2.657 4 3.534 4 4.5C4 5.037 4.121 5.545 4.337 6H2C1.448 6 1 6.448 1 7V12C1 12.552 1.448 13 2 13H3V22C3 22.552 3.448 23 4 23H20C20.552 23 21 22.552 21 22V13H22C22.552 13 23 12.552 23 12V7C23 6.448 22.552 6 22 6H19.663ZM13 8H21V11H13V8Z" fill="black"/>
</svg>
