<svg width="24" height="24" viewBox="0 0 24 24" fill="none" xmlns="http://www.w3.org/2000/svg">
<path d="M20 6C20 6.553 19.777 7.051 19.414 7.414C19.051 7.777 18.553 8 18 8C17.447 8 16.949 7.777 16.586 7.414C16.223 7.051 16 6.553 16 6C16 5.447 16.223 4.949 16.586 4.586C16.949 4.223 17.447 4 18 4C18.553 4 19.051 4.223 19.414 4.586C19.777 4.949 20 5.447 20 6ZM8 18C8 18.553 7.777 19.051 7.414 19.414C7.051 19.777 6.553 20 6 20C5.447 20 4.949 19.777 4.586 19.414C4.223 19.051 4 18.553 4 18C4 17.447 4.223 16.949 4.586 16.586C4.949 16.223 5.447 16 6 16C6.553 16 7.051 16.223 7.414 16.586C7.777 16.949 8 17.447 8 18ZM16.954 9.862C16.754 11.727 15.915 13.399 14.657 14.657C13.399 15.915 11.727 16.755 9.862 16.954C9.677 16.269 9.315 15.657 8.829 15.171C8.332 14.675 7.703 14.307 7 14.126V3C7 2.448 6.552 2 6 2C5.448 2 5 2.448 5 3V14.126C4.297 14.307 3.668 14.675 3.172 15.171C2.449 15.894 2 16.896 2 18C2 19.104 2.449 20.106 3.172 20.828C3.895 21.55 4.896 22 6 22C7.104 22 8.106 21.551 8.828 20.828C9.334 20.322 9.706 19.68 9.883 18.961C12.292 18.75 14.457 17.684 16.071 16.071C17.685 14.458 18.75 12.292 18.961 9.883C19.68 9.706 20.322 9.334 20.828 8.828C21.551 8.106 22 7.104 22 6C22 4.896 21.551 3.894 20.828 3.172C20.105 2.45 19.104 2 18 2C16.896 2 15.894 2.449 15.172 3.172C14.45 3.895 14 4.896 14 6C14 7.104 14.449 8.106 15.172 8.828C15.658 9.314 16.27 9.676 16.955 9.861L16.954 9.862Z" fill="black"/>
</svg>
