<svg width="24" height="24" viewBox="0 0 24 24" fill="none" xmlns="http://www.w3.org/2000/svg">
<path d="M15 12C15 12.829 14.665 13.577 14.121 14.121C13.577 14.665 12.829 15 12 15C11.171 15 10.423 14.665 9.87905 14.121C9.33505 13.577 9.00005 12.829 9.00005 12C9.00005 11.171 9.33505 10.423 9.87905 9.879C10.423 9.335 11.171 9 12 9C12.829 9 13.577 9.335 14.121 9.879C14.665 10.423 15 11.171 15 12ZM17.01 13H22.96C23.512 13 23.96 12.552 23.96 12C23.96 11.448 23.512 11 22.96 11H17.01C16.973 11 16.937 11.002 16.901 11.006C16.703 10.024 16.216 9.146 15.536 8.465C14.632 7.561 13.38 7 12 7C10.62 7 9.36805 7.561 8.46405 8.464C7.78305 9.145 7.29705 10.023 7.09905 11.004C7.06705 11.002 7.03305 11 7.00005 11H1.05005C0.498049 11 0.0500488 11.448 0.0500488 12C0.0500488 12.552 0.498049 13 1.05005 13H7.00005C7.03305 13 7.06705 12.998 7.09905 12.995C7.29705 13.977 7.78405 14.855 8.46405 15.535C9.36805 16.439 10.62 17 12 17C13.38 17 14.632 16.439 15.536 15.536C16.217 14.855 16.703 13.977 16.901 12.995C16.937 12.999 16.973 13.001 17.01 13.001V13Z" fill="black"/>
</svg>
