<svg width="24" height="24" viewBox="0 0 24 24" fill="none" xmlns="http://www.w3.org/2000/svg">
<path d="M20 18C20 18.553 19.777 19.051 19.414 19.414C19.051 19.777 18.553 20 18 20C17.447 20 16.949 19.777 16.586 19.414C16.223 19.051 16 18.553 16 18C16 17.447 16.223 16.949 16.586 16.586C16.949 16.223 17.447 16 18 16C18.553 16 19.051 16.223 19.414 16.586C19.777 16.949 20 17.447 20 18ZM8 6C8 6.553 7.777 7.051 7.414 7.414C7.051 7.777 6.553 8 6 8C5.447 8 4.949 7.777 4.586 7.414C4.223 7.051 4 6.553 4 6C4 5.447 4.223 4.949 4.586 4.586C4.949 4.223 5.447 4 6 4C6.553 4 7.051 4.223 7.414 4.586C7.777 4.949 8 5.447 8 6ZM13 7H16C16.276 7 16.525 7.111 16.707 7.293C16.889 7.475 17 7.724 17 8V14.126C16.297 14.307 15.668 14.675 15.172 15.171C14.449 15.894 14 16.896 14 18C14 19.104 14.449 20.106 15.172 20.828C15.895 21.55 16.896 22 18 22C19.104 22 20.106 21.551 20.828 20.828C21.55 20.105 22 19.104 22 18C22 16.896 21.551 15.894 20.828 15.172C20.331 14.675 19.703 14.308 19 14.127V8C19 7.172 18.663 6.42 18.121 5.879C17.579 5.338 16.828 5 16 5H13C12.448 5 12 5.448 12 6C12 6.552 12.448 7 13 7ZM5 9.874V21C5 21.552 5.448 22 6 22C6.552 22 7 21.552 7 21V9.874C7.703 9.693 8.332 9.325 8.828 8.829C9.551 8.106 10 7.104 10 6C10 4.896 9.551 3.894 8.828 3.172C8.105 2.45 7.104 2 6 2C4.896 2 3.894 2.449 3.172 3.172C2.45 3.895 2 4.896 2 6C2 7.104 2.449 8.106 3.172 8.828C3.668 9.325 4.297 9.693 5 9.874Z" fill="black"/>
</svg>
