<svg width="24" height="24" viewBox="0 0 24 24" fill="none" xmlns="http://www.w3.org/2000/svg">
<g clip-path="url(#clip0_2611_154)">
<path d="M8.713 18.0421C7.445 18.4221 6.653 18.3771 6.13 18.2121C5.899 18.1391 5.699 18.0361 5.516 17.9101C5.105 17.6261 4.789 17.2351 4.397 16.7381C4.041 16.2871 3.547 15.6311 2.846 15.2621C2.661 15.1641 2.46 15.0851 2.242 15.0301C1.706 14.8961 1.163 15.2221 1.029 15.7581C0.895 16.2941 1.221 16.8371 1.757 16.9711C1.831 16.9941 1.912 17.0311 1.912 17.0311C2.164 17.1641 2.399 17.4351 2.826 17.9771C3.192 18.4411 3.682 19.0751 4.379 19.5561C4.711 19.7851 5.09 19.9821 5.528 20.1201C6.543 20.4411 7.764 20.4161 9.288 19.9581C9.817 19.7991 10.117 19.2421 9.958 18.7131C9.799 18.1841 9.242 17.8831 8.713 18.0421ZM17 22.0001V18.2081C17.052 17.5241 16.944 16.8651 16.708 16.2661C17.485 16.0951 18.271 15.8391 19.005 15.4431C21.088 14.3191 22.501 12.2011 22.501 8.52008C22.501 7.01708 21.985 5.63308 21.122 4.53908C21.477 3.19408 21.348 1.81308 20.829 0.606077C20.707 0.323077 20.47 0.124077 20.195 0.0420775C19.838 -0.0639225 18.463 -0.266922 15.822 1.40408C13.549 0.863078 11.265 0.895077 9.176 1.40208C6.537 -0.266923 5.163 -0.0639225 4.806 0.0420775C4.51 0.130078 4.285 0.342077 4.171 0.607077C3.617 1.89908 3.547 3.27908 3.879 4.53908C2.949 5.71708 2.492 7.14008 2.5 8.55608C2.5 12.1781 3.889 14.2791 5.941 15.4151C6.693 15.8311 7.501 16.1001 8.298 16.2821C8.113 16.7501 8.012 17.2431 7.994 17.7381C7.989 17.8791 7.991 18.0211 7.999 18.1621L8 22.0001C8 22.5521 8.448 23.0001 9 23.0001C9.552 23.0001 10 22.5521 10 22.0001V18.1301C10 18.1091 9.999 18.0851 9.998 18.0611C9.992 17.9771 9.991 17.8931 9.994 17.8091C10.014 17.2411 10.235 16.6831 10.659 16.2451C10.804 16.0961 10.905 15.8981 10.933 15.6731C11.001 15.1251 10.612 14.6251 10.064 14.5571C9.724 14.5151 9.387 14.4631 9.058 14.3981C8.268 14.2421 7.54 14.0131 6.911 13.6651C5.606 12.9421 4.52 11.5941 4.501 8.62308C4.514 7.38208 4.92 6.30408 5.725 5.45808C5.982 5.18508 6.075 4.78708 5.937 4.41808C5.657 3.67008 5.596 2.83808 5.797 2.02608C6.288 2.13308 7.151 2.44208 8.444 3.30808C8.679 3.46508 8.977 3.52208 9.269 3.44108C11.266 2.88408 13.511 2.83908 15.739 3.44308C16.01 3.51608 16.308 3.47608 16.557 3.30808C17.85 2.44208 18.713 2.13308 19.204 2.02608C19.393 2.79208 19.361 3.62108 19.063 4.41808C18.934 4.77008 19.005 5.17308 19.276 5.45808C20.034 6.25308 20.5 7.33008 20.5 8.51808C20.5 11.5931 19.386 12.9631 18.055 13.6811C17.432 14.0171 16.712 14.2361 15.932 14.3811C15.61 14.4411 15.281 14.4871 14.949 14.5241C14.739 14.5471 14.531 14.6381 14.365 14.7991C13.968 15.1831 13.957 15.8161 14.341 16.2131C14.408 16.2831 14.471 16.3561 14.529 16.4331C14.869 16.8821 15.05 17.4481 15.003 18.0501C15.003 18.0741 15.002 18.1011 15 18.1281V22.0001C15 22.5521 15.448 23.0001 16 23.0001C16.552 23.0001 17 22.5521 17 22.0001Z" fill="black"/>
</g>
<defs>
<clipPath id="clip0_2611_154">
<rect width="24" height="24" fill="white"/>
</clipPath>
</defs>
</svg>
