<svg width="24" height="24" viewBox="0 0 24 24" fill="none" xmlns="http://www.w3.org/2000/svg">
<g clip-path="url(#clip0_2611_150)">
<path d="M23.238 15.1989C23.499 15.0289 23.731 14.7529 23.873 14.4349C24.045 14.0499 24.087 13.6039 23.948 13.1299L22.682 9.3809L20.25 1.8969C20.182 1.6679 20.055 1.4539 19.853 1.2599C19.587 1.0179 19.25 0.892903 18.912 0.887903C18.561 0.882903 18.205 1.0069 17.936 1.2529C17.771 1.3999 17.64 1.5869 17.558 1.7999C17.552 1.8149 17.546 1.8329 17.54 1.8519L15.323 8.6699H8.67602L6.46902 1.8969C6.40102 1.6679 6.27402 1.4539 6.07202 1.2599C5.80702 1.0179 5.47002 0.892903 5.13202 0.887903C4.78102 0.881903 4.42502 1.0059 4.15602 1.2529C3.99002 1.3989 3.86002 1.5869 3.77702 1.7989C3.77102 1.8149 3.76502 1.8329 3.75902 1.8509L1.31802 9.3629L0.098016 13.1429C-0.00798397 13.4719 -0.018984 13.8189 0.060016 14.1469C0.158016 14.5539 0.396016 14.9299 0.762016 15.1989L11.412 22.9389C11.758 23.1869 12.23 23.1989 12.588 22.9389L23.238 15.1989ZM22.003 13.6239L12 20.8939L2.01702 13.6389L3.22202 9.9769L5.10802 4.1719L6.99902 9.9799C7.13602 10.3999 7.52402 10.6669 7.95002 10.6699H16.05C16.492 10.6699 16.867 10.3829 17.001 9.9789L18.887 4.1749L20.779 9.9989L22.003 13.6239Z" fill="black"/>
</g>
<defs>
<clipPath id="clip0_2611_150">
<rect width="24" height="24" fill="white"/>
</clipPath>
</defs>
</svg>
