<svg width="24" height="24" viewBox="0 0 24 24" fill="none" xmlns="http://www.w3.org/2000/svg">
<path d="M16.951 11C16.737 8.31 15.849 5.647 14.277 3.29C15.847 3.699 17.25 4.522 18.364 5.636C19.772 7.044 20.715 8.914 20.945 11H16.951ZM14.279 20.709C15.762 18.483 16.716 15.856 16.948 13H20.945C20.715 15.086 19.772 16.956 18.364 18.364C17.251 19.477 15.848 20.3 14.279 20.709ZM7.049 13C7.263 15.69 8.151 18.353 9.723 20.71C8.153 20.301 6.75 19.478 5.636 18.364C4.228 16.956 3.285 15.086 3.055 13H7.049ZM9.721 3.291C8.239 5.517 7.285 8.144 7.052 11H3.055C3.285 8.914 4.228 7.044 5.636 5.636C6.75 4.523 8.152 3.7 9.721 3.291ZM12.004 1C8.96 1.001 6.21 2.233 4.222 4.222C2.232 6.211 1 8.963 1 12C1 15.037 2.232 17.789 4.222 19.778C6.21 21.767 8.96 22.999 11.996 23C15.04 22.999 17.789 21.767 19.778 19.778C21.768 17.789 23 15.037 23 12C23 8.963 21.768 6.211 19.778 4.222C17.79 2.233 15.04 1.001 12.004 1ZM14.946 13C14.694 15.788 13.63 18.36 12.001 20.451C10.272 18.23 9.295 15.633 9.056 13H14.946ZM11.999 3.549C13.728 5.77 14.705 8.367 14.944 11H9.054C9.306 8.212 10.37 5.64 11.999 3.549Z" fill="black"/>
</svg>
