<svg width="24" height="24" viewBox="0 0 24 24" fill="none" xmlns="http://www.w3.org/2000/svg">
<path d="M21.0001 13V18C21.0001 18.276 20.8891 18.525 20.7071 18.707C20.5251 18.889 20.2761 19 20.0001 19H4.00005C3.72405 19 3.47505 18.889 3.29305 18.707C3.11105 18.525 3.00005 18.276 3.00005 18V13H21.0001ZM6.34405 5.558C6.41005 5.427 6.50405 5.312 6.61605 5.221C6.78805 5.082 7.00305 5 7.24005 5H16.7531C16.9031 5.001 17.0481 5.034 17.1791 5.094C17.3801 5.186 17.5491 5.343 17.6561 5.558L20.3811 11H3.61905L6.34405 5.558ZM4.55605 4.662L1.11505 11.534C1.08405 11.593 1.05905 11.655 1.04005 11.721C1.01205 11.815 0.999054 11.909 1.00005 12V18C1.00005 18.828 1.33705 19.58 1.87905 20.121C2.42105 20.662 3.17205 21 4.00005 21H20.0001C20.8281 21 21.5801 20.663 22.1211 20.121C22.6621 19.579 23.0001 18.828 23.0001 18V12C23.0001 11.849 22.9671 11.707 22.9091 11.583C22.9041 11.573 22.8991 11.562 22.8941 11.552L22.8851 11.534L19.4441 4.662C19.1291 4.028 18.6151 3.551 18.0111 3.275C17.6231 3.098 17.1991 3.003 16.7671 3H7.24005C6.52905 3 5.87305 3.249 5.35705 3.667C5.02605 3.935 4.75205 4.273 4.55605 4.662ZM6.00005 17C6.55205 17 7.00005 16.552 7.00005 16C7.00005 15.448 6.55205 15 6.00005 15C5.44805 15 5.00005 15.448 5.00005 16C5.00005 16.552 5.44805 17 6.00005 17ZM10.0001 17C10.5521 17 11.0001 16.552 11.0001 16C11.0001 15.448 10.5521 15 10.0001 15C9.44805 15 9.00005 15.448 9.00005 16C9.00005 16.552 9.44805 17 10.0001 17Z" fill="black"/>
</svg>
