<svg width="24" height="24" viewBox="0 0 24 24" fill="none" xmlns="http://www.w3.org/2000/svg">
<path d="M14.216 9.99996L13.772 14H9.784L10.228 9.99996H14.216ZM15.006 2.88996L14.438 7.99996H10.45L10.993 3.10996C11.054 2.56096 10.658 2.06696 10.11 2.00596C9.562 1.94496 9.067 2.34096 9.006 2.88996L8.438 7.99996H4C3.448 7.99996 3 8.44796 3 8.99996C3 9.55196 3.448 9.99996 4 9.99996H8.216L7.772 14H4C3.448 14 3 14.448 3 15C3 15.552 3.448 16 4 16H7.549L7.006 20.89C6.945 21.439 7.341 21.933 7.889 21.994C8.437 22.055 8.932 21.659 8.993 21.111L9.562 16H13.55L13.007 20.89C12.946 21.439 13.342 21.933 13.89 21.994C14.438 22.055 14.933 21.659 14.994 21.111L15.562 16H20C20.552 16 21 15.552 21 15C21 14.448 20.552 14 20 14H15.784L16.228 9.99996H20C20.552 9.99996 21 9.55196 21 8.99996C21 8.44796 20.552 7.99996 20 7.99996H16.451L16.994 3.10996C17.055 2.56096 16.659 2.06696 16.111 2.00596C15.563 1.94496 15.068 2.34096 15.007 2.88896L15.006 2.88996Z" fill="black"/>
</svg>
