<svg width="24" height="24" viewBox="0 0 24 24" fill="none" xmlns="http://www.w3.org/2000/svg">
<path d="M20 19C20 19.276 19.889 19.525 19.707 19.707C19.525 19.889 19.276 20 19 20H18C17.724 20 17.475 19.889 17.293 19.707C17.111 19.525 17 19.276 17 19V16C17 15.724 17.111 15.475 17.293 15.293C17.475 15.111 17.724 15 18 15H20V18V19ZM4 19V15H6C6.276 15 6.525 15.111 6.707 15.293C6.889 15.475 7 15.724 7 16V19C7 19.276 6.889 19.525 6.707 19.707C6.525 19.889 6.276 20 6 20H5C4.724 20 4.475 19.889 4.293 19.707C4.111 19.525 4 19.276 4 19ZM2 19C2 19.828 2.337 20.58 2.879 21.121C3.421 21.662 4.172 22 5 22H6C6.828 22 7.58 21.663 8.121 21.121C8.662 20.579 9 19.828 9 19V16C9 15.172 8.663 14.42 8.121 13.879C7.579 13.338 6.828 13 6 13H4V12C4 9.791 4.894 7.792 6.343 6.343C7.792 4.894 9.791 4 12 4C14.209 4 16.208 4.894 17.657 6.343C19.106 7.792 20 9.791 20 12V13H18C17.172 13 16.42 13.337 15.879 13.879C15.338 14.421 15 15.172 15 16V19C15 19.828 15.337 20.58 15.879 21.121C16.421 21.662 17.172 22 18 22H19C19.828 22 20.58 21.663 21.121 21.121C21.662 20.579 22 19.828 22 19V12C22 9.239 20.88 6.737 19.071 4.929C17.262 3.121 14.761 2 12 2C9.239 2 6.737 3.12 4.929 4.929C3.121 6.738 2 9.239 2 12V18V19Z" fill="black"/>
</svg>
