<svg width="24" height="24" viewBox="0 0 24 24" fill="none" xmlns="http://www.w3.org/2000/svg">
<path d="M20.1329 5.31705C21.0129 6.19805 21.452 7.34805 21.452 8.50105C21.452 9.65405 21.0119 10.804 20.1329 11.683L12 19.816L3.86695 11.683C2.98795 10.804 2.54895 9.65405 2.54895 8.50005C2.54895 7.34605 2.98795 6.19605 3.86695 5.31705C4.74595 4.43805 5.89595 3.99905 7.04995 3.99905C8.20395 3.99905 9.35395 4.43805 10.233 5.31705L11.293 6.37705C11.684 6.76805 12.3169 6.76805 12.707 6.37705L13.769 5.31505C14.648 4.43605 15.798 3.99705 16.951 3.99805C18.104 3.99905 19.254 4.43805 20.1329 5.31705ZM21.547 3.90305C20.278 2.63405 18.613 1.99905 16.951 1.99805C15.289 1.99705 13.624 2.63205 12.354 3.90105L12 4.25605L11.647 3.90305C10.378 2.63405 8.71195 1.99905 7.04995 1.99905C5.38795 1.99905 3.72195 2.63405 2.45295 3.90305C1.18395 5.17205 0.54895 6.83805 0.54895 8.50005C0.54895 10.162 1.18395 11.828 2.45295 13.097L11.293 21.937C11.684 22.328 12.3169 22.328 12.707 21.937L21.547 13.097C22.816 11.828 23.451 10.163 23.452 8.50105C23.4529 6.83905 22.818 5.17405 21.547 3.90305Z" fill="black"/>
</svg>
