<svg width="40" height="72" viewBox="0 0 40 72" fill="none" xmlns="http://www.w3.org/2000/svg">
<rect x="0.5" y="0.5" width="39" height="71" rx="4.5" stroke="#7B61FF" stroke-dasharray="10 5"/>
<path d="M20 28.25C20 28.25 10.625 23 10.625 16.625C10.625 15.498 11.0155 14.4059 11.73 13.5343C12.4445 12.6628 13.4388 12.0657 14.5439 11.8447C15.649 11.6237 16.7966 11.7923 17.7913 12.322C18.7861 12.8517 19.5665 13.7097 20 14.75C20.4335 13.7097 21.2139 12.8517 22.2087 12.322C23.2034 11.7923 24.351 11.6237 25.4561 11.8447C26.5612 12.0657 27.5555 12.6628 28.27 13.5343C28.9845 14.4059 29.375 15.498 29.375 16.625C29.375 23 20 28.25 20 28.25Z" stroke="#191C1F" stroke-width="1.5" stroke-linecap="round" stroke-linejoin="round"/>
<path d="M20 60.25C20 60.25 10.625 55 10.625 48.625C10.625 47.498 11.0155 46.4059 11.73 45.5343C12.4445 44.6628 13.4388 44.0657 14.5439 43.8447C15.649 43.6237 16.7966 43.7923 17.7913 44.322C18.7861 44.8517 19.5665 45.7097 20 46.75C20.4335 45.7097 21.2139 44.8517 22.2087 44.322C23.2034 43.7923 24.351 43.6237 25.4561 43.8447C26.5612 44.0657 27.5555 44.6628 28.27 45.5343C28.9845 46.4059 29.375 47.498 29.375 48.625C29.375 55 20 60.25 20 60.25Z" fill="#191C1F" stroke="#191C1F" stroke-width="1.5" stroke-linecap="round" stroke-linejoin="round"/>
</svg>
