<svg width="24" height="24" viewBox="0 0 24 24" fill="none" xmlns="http://www.w3.org/2000/svg">
<path d="M20 16.0001C19.999 16.1211 19.975 16.2461 19.93 16.3621C19.85 16.5681 19.705 16.7461 19.504 16.8621L12.505 20.8611C12.393 20.9251 12.273 20.9661 12.15 20.9851C11.932 21.0191 11.705 20.9821 11.496 20.8611L4.505 16.8661C4.394 16.8011 4.298 16.7181 4.22 16.6211C4.081 16.4501 4 16.2361 4 16.0001V8.00711C4.001 7.87912 4.025 7.75412 4.07 7.63811C4.15 7.43212 4.295 7.25412 4.496 7.13811L11.495 3.13911C11.607 3.07511 11.727 3.03412 11.85 3.01512C12.068 2.98111 12.295 3.01811 12.504 3.13911L19.495 7.13411C19.606 7.19911 19.702 7.28211 19.78 7.37912C19.919 7.55012 20 7.76411 20 8.00011V16.0001ZM22 16.0001V8.00011C21.999 7.29011 21.752 6.63712 21.336 6.12212C21.106 5.83611 20.824 5.59411 20.505 5.40711L13.496 1.40211C12.886 1.05011 12.196 0.937115 11.542 1.03811C11.179 1.09511 10.827 1.21711 10.505 1.40111L3.504 5.40211C2.886 5.75911 2.444 6.29911 2.205 6.91611C2.072 7.25811 2.003 7.62312 2 7.99311V16.0001C2.001 16.7101 2.248 17.3631 2.664 17.8781C2.894 18.1641 3.176 18.4061 3.495 18.5931L10.504 22.5981C11.114 22.9501 11.804 23.0631 12.458 22.9621C12.821 22.9051 13.173 22.7831 13.495 22.5991L20.496 18.5981C21.114 18.2411 21.556 17.7011 21.795 17.0841C21.928 16.7421 21.997 16.3771 22 16.0001Z" fill="black"/>
</svg>
