<svg width="24" height="24" viewBox="0 0 24 24" fill="none" xmlns="http://www.w3.org/2000/svg">
<path d="M2.386 8.21099C2.15 8.39499 2 8.67999 2 8.99999V20C2 20.828 2.337 21.58 2.879 22.121C3.421 22.662 4.172 23 5 23H19C19.828 23 20.58 22.663 21.121 22.121C21.662 21.579 22 20.828 22 20V8.99999C21.999 8.69999 21.866 8.40699 21.614 8.21099L12.614 1.21099C12.256 0.935993 11.753 0.925993 11.386 1.21099L2.386 8.21099ZM16 21V12C16 11.448 15.552 11 15 11H9C8.448 11 8 11.448 8 12V21H5C4.724 21 4.475 20.889 4.293 20.707C4.111 20.525 4 20.276 4 20V9.48899L12 3.26699L20 9.48899V20C20 20.276 19.889 20.525 19.707 20.707C19.525 20.889 19.276 21 19 21H16ZM10 21V13H14V21H10Z" fill="black"/>
</svg>
