<svg width="24" height="24" viewBox="0 0 24 24" fill="none" xmlns="http://www.w3.org/2000/svg">
<path d="M5 2C4.172 2 3.42 2.337 2.879 2.879C2.338 3.421 2 4.172 2 5V19C2 19.828 2.337 20.58 2.879 21.121C3.421 21.662 4.172 22 5 22H19C19.828 22 20.58 21.663 21.121 21.121C21.662 20.579 22 19.828 22 19V5C22 4.172 21.663 3.42 21.121 2.879C20.579 2.338 19.828 2 19 2H5ZM11 8.5C11 7.81 10.719 7.184 10.268 6.732C9.817 6.28 9.19 6 8.5 6C7.81 6 7.184 6.281 6.732 6.732C6.28 7.183 6 7.81 6 8.5C6 9.19 6.281 9.816 6.732 10.268C7.183 10.72 7.81 11 8.5 11C9.19 11 9.816 10.719 10.268 10.268C10.72 9.817 11 9.19 11 8.5ZM9 8.5C9 8.638 8.945 8.762 8.854 8.854C8.763 8.946 8.638 9 8.5 9C8.362 9 8.238 8.945 8.146 8.854C8.054 8.763 8 8.638 8 8.5C8 8.362 8.055 8.238 8.146 8.146C8.237 8.054 8.362 8 8.5 8C8.638 8 8.762 8.055 8.854 8.146C8.946 8.237 9 8.362 9 8.5ZM7.414 20L16 11.414L20 15.414V19C20 19.276 19.889 19.525 19.707 19.707C19.525 19.889 19.276 20 19 20H7.414ZM20 12.586L16.707 9.293C16.316 8.902 15.683 8.902 15.293 9.293L4.649 19.937C4.514 19.887 4.394 19.808 4.293 19.707C4.111 19.525 4 19.276 4 19V5C4 4.724 4.111 4.475 4.293 4.293C4.475 4.111 4.724 4 5 4H19C19.276 4 19.525 4.111 19.707 4.293C19.889 4.475 20 4.724 20 5V12.586Z" fill="black"/>
</svg>
