<svg width="24" height="24" viewBox="0 0 24 24" fill="none" xmlns="http://www.w3.org/2000/svg">
<path d="M20.293 1.29312L18.293 3.29312C17.902 3.68412 17.902 4.31712 18.293 4.70712C18.684 5.09712 19.317 5.09812 19.707 4.70712L21.707 2.70712C22.098 2.31612 22.098 1.68312 21.707 1.29312C21.316 0.903119 20.683 0.902119 20.293 1.29312ZM12.092 10.8981C10.83 9.65412 9.18405 9.02912 7.53905 9.02512C5.88705 9.02212 4.23105 9.64512 2.96105 10.8981C1.68405 12.1581 1.03805 13.8191 1.02605 15.4811C1.01405 17.1431 1.64005 18.8131 2.90005 20.0901C4.24005 21.4131 5.90905 22.0361 7.57105 22.0251C9.23305 22.0141 10.894 21.3681 12.154 20.0901C13.414 18.8121 14.038 17.1431 14.027 15.4811C14.016 13.8191 13.37 12.1581 12.092 10.8981ZM10.688 12.3221C11.573 13.1951 12.02 14.3421 12.027 15.4951C12.034 16.6481 11.603 17.8011 10.73 18.6861C9.85705 19.5711 8.71005 20.0181 7.55705 20.0251C6.40405 20.0321 5.25105 19.6011 4.36605 18.7281C3.45005 17.8011 3.01905 16.6481 3.02705 15.4951C3.03505 14.3421 3.48205 13.1951 4.36605 12.3221C5.24505 11.4551 6.38905 11.0231 7.53505 11.0261C8.67605 11.0281 9.81505 11.4611 10.688 12.3221ZM12.097 12.3171L16.207 8.20712C16.598 7.81612 16.598 7.18312 16.207 6.79312C15.816 6.40312 15.183 6.40212 14.793 6.79312L10.683 10.9031C10.292 11.2941 10.292 11.9271 10.683 12.3171C11.074 12.7071 11.707 12.7081 12.097 12.3171ZM14.793 8.20712L17.793 11.2071C18.184 11.5981 18.817 11.5981 19.207 11.2071L22.707 7.70712C23.098 7.31612 23.098 6.68312 22.707 6.29312L19.707 3.29312C19.316 2.90212 18.683 2.90212 18.293 3.29312C17.903 3.68412 17.902 4.31712 18.293 4.70712L20.586 7.00012L18.5 9.08612L16.207 6.79312C15.816 6.40212 15.183 6.40212 14.793 6.79312C14.403 7.18412 14.402 7.81712 14.793 8.20712ZM16.207 8.20712L19.707 4.70712C20.098 4.31612 20.098 3.68312 19.707 3.29312C19.316 2.90312 18.683 2.90212 18.293 3.29312L14.793 6.79312C14.402 7.18412 14.402 7.81712 14.793 8.20712C15.184 8.59712 15.817 8.59812 16.207 8.20712Z" fill="black"/>
</svg>
