<svg width="24" height="24" viewBox="0 0 24 24" fill="none" xmlns="http://www.w3.org/2000/svg">
<path d="M12 3.11805L19.764 7.00005L12 10.8821L4.23599 7.00005L12 3.11805ZM11.553 1.10605L1.55299 6.10605C1.05899 6.35305 0.85899 6.95305 1.10599 7.44705C1.20699 7.65005 1.36699 7.80305 1.55299 7.89405L11.553 12.8941C11.845 13.0401 12.173 13.0301 12.447 12.8941L22.447 7.89405C22.941 7.64705 23.141 7.04605 22.894 6.55205C22.793 6.35005 22.632 6.19705 22.447 6.10505L12.447 1.10505C12.155 0.959051 11.827 0.970051 11.553 1.10605ZM1.55299 17.8941L11.553 22.8941C11.845 23.0401 12.173 23.0301 12.447 22.8941L22.447 17.8941C22.941 17.6471 23.141 17.0461 22.894 16.5521C22.647 16.0581 22.046 15.8581 21.552 16.1051L12 20.8821L2.44699 16.1061C1.95299 15.8591 1.35199 16.059 1.10499 16.5531C0.85799 17.0471 1.05799 17.6481 1.55199 17.8951L1.55299 17.8941ZM1.55299 12.8941L11.553 17.8941C11.845 18.0401 12.173 18.0301 12.447 17.8941L22.447 12.8941C22.941 12.6471 23.141 12.0461 22.894 11.5521C22.647 11.0581 22.046 10.8581 21.552 11.1051L12 15.8821L2.44699 11.1061C1.95299 10.8591 1.35199 11.0591 1.10499 11.5531C0.85799 12.0471 1.05799 12.6481 1.55199 12.8951L1.55299 12.8941Z" fill="black"/>
</svg>
