<svg width="24" height="24" viewBox="0 0 24 24" fill="none" xmlns="http://www.w3.org/2000/svg">
<path d="M23 12C23 8.963 21.768 6.211 19.778 4.222C17.788 2.233 15.037 1 12 1C8.963 1 6.211 2.232 4.222 4.222C2.233 6.212 1 8.963 1 12C1 15.037 2.232 17.789 4.222 19.778C6.212 21.767 8.963 23 12 23C15.037 23 17.789 21.768 19.778 19.778C21.767 17.788 23 15.037 23 12ZM15 12C15 12.829 14.665 13.577 14.121 14.121C13.577 14.665 12.829 15 12 15C11.171 15 10.423 14.665 9.879 14.121C9.335 13.577 9 12.829 9 12C9 11.171 9.335 10.423 9.879 9.879C10.423 9.335 11.171 9 12 9C12.829 9 13.577 9.335 14.121 9.879C14.665 10.423 15 11.171 15 12ZM17.618 4.968L14.758 7.828C13.967 7.305 13.019 7 12 7C10.981 7 10.033 7.305 9.243 7.829L6.383 4.969C7.922 3.736 9.875 3 12 3C14.125 3 16.078 3.736 17.618 4.968ZM19.032 6.382C20.264 7.922 21 9.875 21 12C21 14.125 20.264 16.078 19.032 17.618L16.172 14.758C16.695 13.967 17 13.019 17 12C17 10.981 16.695 10.033 16.171 9.243L19.032 6.382ZM7.829 14.757L4.969 17.617C3.736 16.078 3 14.125 3 12C3 9.875 3.736 7.922 4.968 6.382L7.828 9.242C7.305 10.033 7 10.981 7 12C7 13.019 7.305 13.967 7.829 14.757ZM6.382 19.032L9.242 16.172C10.033 16.695 10.981 17 12 17C13.019 17 13.967 16.695 14.757 16.171L17.617 19.031C16.078 20.264 14.125 21 12 21C9.875 21 7.922 20.264 6.382 19.032Z" fill="black"/>
</svg>
