<svg width="24" height="24" viewBox="0 0 24 24" fill="none" xmlns="http://www.w3.org/2000/svg">
<g clip-path="url(#clip0_2611_232)">
<path d="M15 8H18C19.105 8 20.103 8.447 20.828 9.172C21.553 9.897 22 10.895 22 12C22 13.105 21.553 14.103 20.828 14.828C20.103 15.553 19.105 16 18 16H15C14.448 16 14 16.448 14 17C14 17.552 14.448 18 15 18H18C19.657 18 21.158 17.327 22.243 16.243C23.328 15.159 24 13.657 24 12C24 10.343 23.327 8.842 22.243 7.757C21.159 6.672 19.657 6 18 6H15C14.448 6 14 6.448 14 7C14 7.552 14.448 8 15 8ZM9 16H6C4.895 16 3.897 15.553 3.172 14.828C2.447 14.103 2 13.105 2 12C2 10.895 2.447 9.897 3.172 9.172C3.897 8.447 4.895 8 6 8H9C9.552 8 10 7.552 10 7C10 6.448 9.552 6 9 6H6C4.343 6 2.842 6.673 1.757 7.757C0.672 8.841 0 10.343 0 12C0 13.657 0.673 15.158 1.757 16.243C2.841 17.328 4.343 18 6 18H9C9.552 18 10 17.552 10 17C10 16.448 9.552 16 9 16ZM8 13H16C16.552 13 17 12.552 17 12C17 11.448 16.552 11 16 11H8C7.448 11 7 11.448 7 12C7 12.552 7.448 13 8 13Z" fill="black"/>
</g>
<defs>
<clipPath id="clip0_2611_232">
<rect width="24" height="24" fill="white"/>
</clipPath>
</defs>
</svg>
