<svg width="24" height="24" viewBox="0 0 24 24" fill="none" xmlns="http://www.w3.org/2000/svg">
<path d="M9.19904 13.599C10.191 14.926 11.629 15.725 13.147 15.944C14.665 16.163 16.27 15.802 17.597 14.81C17.836 14.631 18.062 14.435 18.252 14.242L21.247 11.247C22.41 10.043 22.969 8.49598 22.943 6.96198C22.917 5.42798 22.304 3.90098 21.112 2.75098C19.94 1.61898 18.424 1.05898 16.913 1.06798C15.421 1.07598 13.929 1.63898 12.776 2.75098L11.045 4.47198C10.653 4.86098 10.651 5.49498 11.041 5.88598C11.431 6.27698 12.064 6.27998 12.455 5.88998L14.164 4.19098C14.934 3.44898 15.927 3.07398 16.924 3.06798C17.933 3.06198 18.94 3.43498 19.722 4.18998C20.517 4.95798 20.925 5.97298 20.943 6.99798C20.961 8.02298 20.588 9.05198 19.833 9.83398L16.828 12.839C16.714 12.955 16.565 13.086 16.4 13.209C15.515 13.871 14.448 14.111 13.433 13.965C12.418 13.819 11.462 13.287 10.801 12.402C10.47 11.96 9.84404 11.869 9.40104 12.2C8.95804 12.531 8.86804 13.157 9.19904 13.6V13.599ZM14.801 10.401C13.809 9.07398 12.371 8.27498 10.853 8.05598C9.33504 7.83698 7.72904 8.19798 6.40204 9.18998C6.16304 9.36898 5.93804 9.56498 5.74704 9.75798L2.75204 12.753C1.58904 13.957 1.03004 15.504 1.05604 17.038C1.08204 18.572 1.69504 20.099 2.88704 21.249C4.05904 22.381 5.57504 22.941 7.08604 22.932C8.57804 22.924 10.07 22.361 11.223 21.249L12.946 19.526C13.337 19.135 13.337 18.502 12.946 18.112C12.555 17.722 11.922 17.721 11.532 18.112L9.83604 19.81C9.06604 20.552 8.07304 20.927 7.07604 20.933C6.06704 20.939 5.06004 20.566 4.27804 19.811C3.48304 19.043 3.07504 18.028 3.05704 17.003C3.03904 15.978 3.41204 14.949 4.16704 14.167L7.17204 11.162C7.28604 11.046 7.43504 10.915 7.60004 10.792C8.48504 10.13 9.55204 9.88998 10.567 10.036C11.582 10.182 12.538 10.714 13.199 11.599C13.53 12.041 14.156 12.132 14.599 11.801C15.042 11.47 15.132 10.844 14.801 10.401Z" fill="black"/>
</svg>
