<svg width="24" height="24" viewBox="0 0 24 24" fill="none" xmlns="http://www.w3.org/2000/svg">
<path d="M16 7C14.067 7 12.316 7.785 11.05 9.05C9.784 10.315 9 12.067 9 14V21C9 21.552 9.448 22 10 22H14C14.552 22 15 21.552 15 21V14C15 13.724 15.111 13.475 15.293 13.293C15.475 13.111 15.724 13 16 13C16.276 13 16.525 13.111 16.707 13.293C16.889 13.475 17 13.724 17 14V21C17 21.552 17.448 22 18 22H22C22.552 22 23 21.552 23 21V14C23 12.067 22.215 10.316 20.95 9.05C19.685 7.784 17.933 7 16 7ZM16 9C17.381 9 18.63 9.559 19.536 10.464C20.442 11.369 21 12.619 21 14V20H19V14C19 13.172 18.663 12.42 18.121 11.879C17.579 11.338 16.828 11 16 11C15.172 11 14.42 11.337 13.879 11.879C13.338 12.421 13 13.172 13 14V20H11V14C11 12.619 11.559 11.37 12.464 10.464C13.369 9.558 14.619 9 16 9ZM2 8C1.448 8 1 8.448 1 9V21C1 21.552 1.448 22 2 22H6C6.552 22 7 21.552 7 21V9C7 8.448 6.552 8 6 8H2ZM3 10H5V20H3V10ZM7 4C7 3.172 6.663 2.42 6.121 1.879C5.579 1.338 4.828 1 4 1C3.172 1 2.42 1.337 1.879 1.879C1.338 2.421 1 3.172 1 4C1 4.828 1.337 5.58 1.879 6.121C2.421 6.662 3.172 7 4 7C4.828 7 5.58 6.663 6.121 6.121C6.662 5.579 7 4.828 7 4ZM5 4C5 4.276 4.889 4.525 4.707 4.707C4.525 4.889 4.276 5 4 5C3.724 5 3.475 4.889 3.293 4.707C3.111 4.525 3 4.276 3 4C3 3.724 3.111 3.475 3.293 3.293C3.475 3.111 3.724 3 4 3C4.276 3 4.525 3.111 4.707 3.293C4.889 3.475 5 3.724 5 4Z" fill="black"/>
</svg>
