<svg width="24" height="24" viewBox="0 0 24 24" fill="none" xmlns="http://www.w3.org/2000/svg">
<path d="M8 7H21C21.552 7 22 6.552 22 6C22 5.448 21.552 5 21 5H8C7.448 5 7 5.448 7 6C7 6.552 7.448 7 8 7ZM8 13H21C21.552 13 22 12.552 22 12C22 11.448 21.552 11 21 11H8C7.448 11 7 11.448 7 12C7 12.552 7.448 13 8 13ZM8 19H21C21.552 19 22 18.552 22 18C22 17.448 21.552 17 21 17H8C7.448 17 7 17.448 7 18C7 18.552 7.448 19 8 19ZM3 7C3.552 7 4 6.552 4 6C4 5.448 3.552 5 3 5C2.448 5 2 5.448 2 6C2 6.552 2.448 7 3 7ZM3 13C3.552 13 4 12.552 4 12C4 11.448 3.552 11 3 11C2.448 11 2 11.448 2 12C2 12.552 2.448 13 3 13ZM3 19C3.552 19 4 18.552 4 18C4 17.448 3.552 17 3 17C2.448 17 2 17.448 2 18C2 18.552 2.448 19 3 19Z" fill="black"/>
</svg>
