<svg width="24" height="24" viewBox="0 0 24 24" fill="none" xmlns="http://www.w3.org/2000/svg">
<path d="M11 2V6C11 6.552 11.448 7 12 7C12.552 7 13 6.552 13 6V2C13 1.448 12.552 1 12 1C11.448 1 11 1.448 11 2ZM11 18V22C11 22.552 11.448 23 12 23C12.552 23 13 22.552 13 22V18C13 17.448 12.552 17 12 17C11.448 17 11 17.448 11 18ZM4.223 5.637L7.053 8.467C7.444 8.858 8.077 8.858 8.467 8.467C8.857 8.076 8.858 7.443 8.467 7.053L5.637 4.223C5.246 3.832 4.613 3.832 4.223 4.223C3.833 4.614 3.832 5.247 4.223 5.637ZM15.533 16.947L18.363 19.777C18.754 20.168 19.387 20.168 19.777 19.777C20.167 19.386 20.168 18.753 19.777 18.363L16.947 15.533C16.556 15.142 15.923 15.142 15.533 15.533C15.143 15.924 15.142 16.557 15.533 16.947ZM2 13H6C6.552 13 7 12.552 7 12C7 11.448 6.552 11 6 11H2C1.448 11 1 11.448 1 12C1 12.552 1.448 13 2 13ZM18 13H22C22.552 13 23 12.552 23 12C23 11.448 22.552 11 22 11H18C17.448 11 17 11.448 17 12C17 12.552 17.448 13 18 13ZM5.637 19.777L8.467 16.947C8.858 16.556 8.858 15.923 8.467 15.533C8.076 15.143 7.443 15.142 7.053 15.533L4.223 18.363C3.832 18.754 3.832 19.387 4.223 19.777C4.614 20.167 5.247 20.168 5.637 19.777ZM16.947 8.467L19.777 5.637C20.168 5.246 20.168 4.613 19.777 4.223C19.386 3.833 18.753 3.832 18.363 4.223L15.533 7.053C15.142 7.444 15.142 8.077 15.533 8.467C15.924 8.857 16.557 8.858 16.947 8.467Z" fill="black"/>
</svg>
