<svg width="24" height="24" viewBox="0 0 24 24" fill="none" xmlns="http://www.w3.org/2000/svg">
<path d="M9 20H5C4.724 20 4.475 19.889 4.293 19.707C4.111 19.525 4 19.276 4 19V5C4 4.724 4.111 4.475 4.293 4.293C4.475 4.111 4.724 4 5 4H9C9.552 4 10 3.552 10 3C10 2.448 9.552 2 9 2H5C4.172 2 3.42 2.337 2.879 2.879C2.338 3.421 2 4.172 2 5V19C2 19.828 2.337 20.58 2.879 21.121C3.421 21.662 4.172 22 5 22H9C9.552 22 10 21.552 10 21C10 20.448 9.552 20 9 20ZM18.586 11H9C8.448 11 8 11.448 8 12C8 12.552 8.448 13 9 13H18.586L15.293 16.293C14.902 16.684 14.902 17.317 15.293 17.707C15.684 18.097 16.317 18.098 16.707 17.707L21.707 12.707C21.799 12.615 21.873 12.505 21.924 12.383C22.074 12.021 22.002 11.588 21.707 11.293L16.707 6.293C16.316 5.902 15.683 5.902 15.293 6.293C14.903 6.684 14.902 7.317 15.293 7.707L18.586 11Z" fill="black"/>
</svg>
