<svg width="24" height="24" viewBox="0 0 24 24" fill="none" xmlns="http://www.w3.org/2000/svg">
<g clip-path="url(#clip0_2611_120)">
<path d="M7 3.723V17.42L2 20.277V6.58L7 3.723ZM17 20.277V6.58L22 3.723V17.419L17 20.277ZM15.535 22.885C15.617 22.928 15.705 22.96 15.798 22.979C15.831 22.986 15.865 22.991 15.899 22.994C15.933 22.997 15.967 22.999 16.001 22.999C16 23 16 23 16 23C16 23 16 22.999 16.001 22.999C16.174 22.999 16.345 22.954 16.497 22.868L16.512 22.859L23.497 18.868C23.817 18.685 23.998 18.35 24 18V2C24 1.448 23.552 1 23 1C22.817 1 22.646 1.049 22.504 1.132L15.969 4.866L8.466 1.114C8.383 1.072 8.295 1.039 8.202 1.02C8.168 1.013 8.135 1.008 8.101 1.005C8.067 1.002 8.033 1 7.999 1C7.826 1 7.655 1.046 7.504 1.132L7.489 1.14L0.504 5.132C0.183 5.315 0.002 5.65 0 6V22C0 22.552 0.448 23 1 23C1.183 23 1.354 22.951 1.496 22.868L8.031 19.134L15.535 22.885ZM15 6.618V20.382L9 17.382V3.618L15 6.618Z" fill="black"/>
</g>
<defs>
<clipPath id="clip0_2611_120">
<rect width="24" height="24" fill="white"/>
</clipPath>
</defs>
</svg>
