<svg width="24" height="24" viewBox="0 0 24 24" fill="none" xmlns="http://www.w3.org/2000/svg">
<path d="M8 2H5C4.172 2 3.42 2.337 2.879 2.879C2.338 3.421 2 4.172 2 5V8C2 8.552 2.448 9 3 9C3.552 9 4 8.552 4 8V5C4 4.724 4.111 4.475 4.293 4.293C4.475 4.111 4.724 4 5 4H8C8.552 4 9 3.552 9 3C9 2.448 8.552 2 8 2ZM22 8V5C22 4.172 21.663 3.42 21.121 2.879C20.579 2.338 19.828 2 19 2H16C15.448 2 15 2.448 15 3C15 3.552 15.448 4 16 4H19C19.276 4 19.525 4.111 19.707 4.293C19.889 4.475 20 4.724 20 5V8C20 8.552 20.448 9 21 9C21.552 9 22 8.552 22 8ZM16 22H19C19.828 22 20.58 21.663 21.121 21.121C21.662 20.579 22 19.828 22 19V16C22 15.448 21.552 15 21 15C20.448 15 20 15.448 20 16V19C20 19.276 19.889 19.525 19.707 19.707C19.525 19.889 19.276 20 19 20H16C15.448 20 15 20.448 15 21C15 21.552 15.448 22 16 22ZM2 16V19C2 19.828 2.337 20.58 2.879 21.121C3.421 21.662 4.172 22 5 22H8C8.552 22 9 21.552 9 21C9 20.448 8.552 20 8 20H5C4.724 20 4.475 19.889 4.293 19.707C4.111 19.525 4 19.276 4 19V16C4 15.448 3.552 15 3 15C2.448 15 2 15.448 2 16Z" fill="black"/>
</svg>
