<svg width="24" height="24" viewBox="0 0 24 24" fill="none" xmlns="http://www.w3.org/2000/svg">
<path d="M18.586 4L13.293 9.293C12.902 9.684 12.902 10.317 13.293 10.707C13.684 11.097 14.317 11.098 14.707 10.707L20 5.414V9C20 9.552 20.448 10 21 10C21.552 10 22 9.552 22 9V3C22 2.864 21.973 2.735 21.924 2.617C21.875 2.499 21.803 2.389 21.708 2.294L21.706 2.292C21.614 2.2 21.504 2.126 21.383 2.076C21.265 2.027 21.136 2 21 2H15C14.448 2 14 2.448 14 3C14 3.552 14.448 4 15 4H18.586ZM5.414 20L10.707 14.707C11.098 14.316 11.098 13.683 10.707 13.293C10.316 12.903 9.683 12.902 9.293 13.293L4 18.586V15C4 14.448 3.552 14 3 14C2.448 14 2 14.448 2 15V21C2 21.552 2.448 22 3 22H9C9.552 22 10 21.552 10 21C10 20.448 9.552 20 9 20H5.414Z" fill="black"/>
</svg>
