<svg width="24" height="24" viewBox="0 0 24 24" fill="none" xmlns="http://www.w3.org/2000/svg">
<path d="M22 11.4971V11.0001C22 10.9831 21.999 10.9621 21.998 10.9421C21.862 8.60407 20.885 6.48107 19.356 4.89107C17.754 3.22407 15.542 2.13907 13.055 2.00207C13.039 2.00107 13.019 2.00007 13 2.00007H12.511C11.106 1.98407 9.62902 2.31007 8.24702 3.00807C7.02402 3.62907 5.95602 4.49607 5.10802 5.54307C3.78602 7.17707 3.00102 9.24807 3.00002 11.4891C2.98602 12.7641 3.25302 14.0991 3.82402 15.3661L2.05202 20.6831C1.98602 20.8791 1.98002 21.1011 2.05202 21.3151C2.22702 21.8391 2.79302 22.1221 3.31702 21.9471L8.63102 20.1761C9.79102 20.7031 11.115 21.0021 12.507 20.9991C13.879 20.9901 15.221 20.6911 16.448 20.1331C18.36 19.2621 19.988 17.7601 20.989 15.7581C21.633 14.5091 22.004 13.0431 22 11.4971ZM20 11.5031C20.003 12.7281 19.708 13.8781 19.211 14.8421C18.41 16.4441 17.129 17.6271 15.619 18.3141C14.649 18.7561 13.584 18.9931 12.493 19.0001C11.272 19.0031 10.122 18.7081 9.15802 18.2111C8.90902 18.0821 8.63002 18.0691 8.38302 18.1511L4.58002 19.4191L5.84802 15.6161C5.93602 15.3531 5.90802 15.0791 5.79202 14.8491C5.24002 13.7551 4.98802 12.5951 5.00002 11.5111C5.00102 9.72207 5.61902 8.09107 6.66302 6.80207C7.33402 5.97307 8.18102 5.28507 9.15302 4.79207C10.245 4.24007 11.405 3.98807 12.489 4.00007H12.945C14.907 4.10707 16.649 4.96107 17.914 6.27707C19.116 7.52807 19.886 9.19307 20 11.0301V11.5031Z" fill="black"/>
</svg>
