<svg width="24" height="24" viewBox="0 0 24 24" fill="none" xmlns="http://www.w3.org/2000/svg">
<path d="M22 15V5C22 4.172 21.663 3.42 21.121 2.879C20.579 2.338 19.828 2 19 2H5C4.172 2 3.42 2.337 2.879 2.879C2.338 3.421 2 4.172 2 5V21C2 21.256 2.098 21.512 2.293 21.707C2.684 22.098 3.317 22.098 3.707 21.707L7.414 18H19C19.828 18 20.58 17.663 21.121 17.121C21.662 16.579 22 15.828 22 15ZM20 15C20 15.276 19.889 15.525 19.707 15.707C19.525 15.889 19.276 16 19 16H7C6.724 16 6.474 16.112 6.293 16.293L4 18.586V5C4 4.724 4.111 4.475 4.293 4.293C4.475 4.111 4.724 4 5 4H19C19.276 4 19.525 4.111 19.707 4.293C19.889 4.475 20 4.724 20 5V15Z" fill="black"/>
</svg>
