<svg width="24" height="24" viewBox="0 0 24 24" fill="none" xmlns="http://www.w3.org/2000/svg">
<g clip-path="url(#clip0_2611_178)">
<path d="M12.516 13.9301C12.352 13.9741 12.18 13.9971 12.002 13.9971C11.447 13.9961 10.949 13.7741 10.587 13.4121C10.224 13.0501 10 12.5521 10 12.0001V11.4141L12.516 13.9301ZM16 9.34007V4.00007C16.001 2.89707 15.553 1.89507 14.831 1.17107C14.109 0.447072 13.108 -0.00192771 12.004 -0.00292771C10.99 -0.00392771 10.061 0.374072 9.355 0.999072C8.719 1.56207 8.263 2.32607 8.081 3.19607C7.968 3.73707 8.315 4.26607 8.856 4.37907C9.397 4.49207 9.926 4.14507 10.039 3.60407C10.131 3.16407 10.361 2.77907 10.68 2.49607C11.03 2.18607 11.486 1.99907 11.988 1.99707C12.559 2.00007 13.054 2.22307 13.415 2.58407C13.778 2.94807 14.001 3.44607 14 4.00007V9.34007C14 9.89207 14.448 10.3401 15 10.3401C15.552 10.3401 16 9.89207 16 9.34007ZM18 10.0001V12.0001C18 12.3761 17.965 12.7401 17.907 13.0451C17.805 13.5881 18.162 14.1111 18.705 14.2131C19.248 14.3151 19.771 13.9581 19.873 13.4151C19.955 12.9811 20 12.4931 20 12.0001V10.0001C20 9.44807 19.552 9.00007 19 9.00007C18.448 9.00007 18 9.44807 18 10.0001ZM8 24.0001H16C16.552 24.0001 17 23.5521 17 23.0001C17 22.4481 16.552 22.0001 16 22.0001H13V19.9761C14.446 19.7871 15.791 19.2441 16.934 18.3491L22.293 23.7081C22.684 24.0991 23.317 24.0991 23.707 23.7081C24.097 23.3171 24.098 22.6841 23.707 22.2941L17.869 16.4561C17.824 16.3771 17.768 16.3031 17.7 16.2371C17.637 16.1751 17.568 16.1241 17.495 16.0821L1.707 0.293072C1.316 -0.0979277 0.682997 -0.0979277 0.292997 0.293072C-0.0970028 0.684072 -0.0980028 1.31707 0.292997 1.70707L8 9.41407V12.0001C8.001 13.1051 8.451 14.1061 9.174 14.8281C9.897 15.5501 10.899 15.9981 12.003 15.9971C12.742 15.9961 13.436 15.7951 14.03 15.4441L15.507 16.9211C14.548 17.6141 13.429 17.9891 12.295 18.0441C12.201 18.0151 12.102 18.0001 12 18.0001C11.897 18.0001 11.799 18.0151 11.705 18.0441C10.288 17.9751 8.893 17.4071 7.8 16.3371C6.647 15.2081 6.047 13.7291 6.002 12.2311C6 12.1191 6 12.0071 6 12.0071V10.0001C6 9.44807 5.552 9.00007 5 9.00007C4.448 9.00007 4 9.44807 4 10.0001V11.9931C4 12.1421 4.003 12.2911 4.003 12.2911C4.063 14.2851 4.864 16.2601 6.401 17.7661C7.7 19.0391 9.325 19.7791 11 19.9891V22.0001H8C7.448 22.0001 7 22.4481 7 23.0001C7 23.5521 7.448 24.0001 8 24.0001Z" fill="black"/>
</g>
<defs>
<clipPath id="clip0_2611_178">
<rect width="24" height="24" fill="white"/>
</clipPath>
</defs>
</svg>
