<svg width="24" height="24" viewBox="0 0 24 24" fill="none" xmlns="http://www.w3.org/2000/svg">
<path d="M12 2C12.553 2 13.051 2.223 13.414 2.586C13.777 2.949 14 3.447 14 4V12C14 12.553 13.777 13.051 13.414 13.414C13.051 13.777 12.553 14 12 14C11.447 14 10.949 13.777 10.586 13.414C10.223 13.051 10 12.553 10 12V4C10 3.447 10.223 2.949 10.586 2.586C10.949 2.223 11.447 2 12 2ZM12 0C10.896 0 9.894 0.449 9.172 1.172C8.45 1.895 8 2.896 8 4V12C8 13.104 8.449 14.106 9.172 14.828C9.895 15.55 10.896 16 12 16C13.104 16 14.106 15.551 14.828 14.828C15.55 14.105 16 13.104 16 12V4C16 2.896 15.551 1.894 14.828 1.172C14.105 0.45 13.104 0 12 0ZM8 24H16C16.552 24 17 23.552 17 23C17 22.448 16.552 22 16 22H13V19.938C14.809 19.712 16.432 18.882 17.657 17.657C19.103 16.21 20 14.209 20 12V10C20 9.448 19.552 9 19 9C18.448 9 18 9.448 18 10V12C18 13.657 17.33 15.156 16.243 16.243C15.156 17.33 13.657 18 12 18C10.343 18 8.844 17.33 7.757 16.243C6.67 15.156 6 13.657 6 12V10C6 9.448 5.552 9 5 9C4.448 9 4 9.448 4 10V12C4 14.209 4.897 16.21 6.343 17.657C7.568 18.882 9.19 19.712 11 19.938V22H8C7.448 22 7 22.448 7 23C7 23.552 7.448 24 8 24Z" fill="black"/>
</svg>
