<svg width="24" height="24" viewBox="0 0 24 24" fill="none" xmlns="http://www.w3.org/2000/svg">
<path d="M16.414 9.00012L21.707 3.70712C22.098 3.31612 22.098 2.68312 21.707 2.29312C21.316 1.90312 20.683 1.90212 20.293 2.29312L15 7.58612V4.00012C15 3.44812 14.552 3.00012 14 3.00012C13.448 3.00012 13 3.44812 13 4.00012V10.0001C13 10.1361 13.027 10.2651 13.076 10.3831C13.125 10.5011 13.197 10.6111 13.292 10.7061L13.294 10.7081C13.386 10.8001 13.496 10.8741 13.617 10.9241C13.735 10.9731 13.864 11.0001 14 11.0001H20C20.552 11.0001 21 10.5521 21 10.0001C21 9.44812 20.552 9.00012 20 9.00012H16.414ZM3.70701 21.7071L9.00001 16.4141V20.0001C9.00001 20.5521 9.44801 21.0001 10 21.0001C10.552 21.0001 11 20.5521 11 20.0001V14.0001C11 13.8641 10.973 13.7351 10.924 13.6171C10.875 13.4991 10.803 13.3891 10.708 13.2941L10.706 13.2921C10.61 13.1971 10.5 13.1251 10.383 13.0761C10.265 13.0271 10.136 13.0001 10 13.0001H4.00001C3.44801 13.0001 3.00001 13.4481 3.00001 14.0001C3.00001 14.5521 3.44801 15.0001 4.00001 15.0001H7.58601L2.29301 20.2931C1.90201 20.6841 1.90201 21.3171 2.29301 21.7071C2.68401 22.0971 3.31701 22.0981 3.70701 21.7071Z" fill="black"/>
</svg>
