<svg width="24" height="24" viewBox="0 0 24 24" fill="none" xmlns="http://www.w3.org/2000/svg">
<path d="M7 3V6C7 6.276 6.889 6.525 6.707 6.707C6.525 6.889 6.276 7 6 7H3C2.448 7 2 7.448 2 8C2 8.552 2.448 9 3 9H6C6.828 9 7.58 8.663 8.121 8.121C8.662 7.579 9 6.828 9 6V3C9 2.448 8.552 2 8 2C7.448 2 7 2.448 7 3ZM21 7H18C17.724 7 17.475 6.889 17.293 6.707C17.111 6.525 17 6.276 17 6V3C17 2.448 16.552 2 16 2C15.448 2 15 2.448 15 3V6C15 6.828 15.337 7.58 15.879 8.121C16.421 8.662 17.172 9 18 9H21C21.552 9 22 8.552 22 8C22 7.448 21.552 7 21 7ZM17 21V18C17 17.724 17.111 17.475 17.293 17.293C17.475 17.111 17.724 17 18 17H21C21.552 17 22 16.552 22 16C22 15.448 21.552 15 21 15H18C17.172 15 16.42 15.337 15.879 15.879C15.338 16.421 15 17.172 15 18V21C15 21.552 15.448 22 16 22C16.552 22 17 21.552 17 21ZM3 17H6C6.276 17 6.525 17.111 6.707 17.293C6.889 17.475 7 17.724 7 18V21C7 21.552 7.448 22 8 22C8.552 22 9 21.552 9 21V18C9 17.172 8.663 16.42 8.121 15.879C7.579 15.338 6.828 15 6 15H3C2.448 15 2 15.448 2 16C2 16.552 2.448 17 3 17Z" fill="black"/>
</svg>
