<svg width="24" height="24" viewBox="0 0 24 24" fill="none" xmlns="http://www.w3.org/2000/svg">
<path d="M12 16H4C3.724 16 3.475 15.889 3.293 15.707C3.111 15.525 3 15.276 3 15V5C3 4.724 3.111 4.475 3.293 4.293C3.475 4.111 3.724 4 4 4H20C20.276 4 20.525 4.111 20.707 4.293C20.889 4.475 21 4.724 21 5V15C21 15.276 20.889 15.525 20.707 15.707C20.525 15.889 20.276 16 20 16H12ZM11 18V20H8C7.448 20 7 20.448 7 21C7 21.552 7.448 22 8 22H16C16.552 22 17 21.552 17 21C17 20.448 16.552 20 16 20H13V18H20C20.828 18 21.58 17.663 22.121 17.121C22.662 16.579 23 15.828 23 15V5C23 4.172 22.663 3.42 22.121 2.879C21.579 2.338 20.828 2 20 2H4C3.172 2 2.42 2.337 1.879 2.879C1.338 3.421 1 4.172 1 5V15C1 15.828 1.337 16.58 1.879 17.121C2.421 17.662 3.172 18 4 18H11Z" fill="black"/>
</svg>
