<svg width="24" height="24" viewBox="0 0 24 24" fill="none" xmlns="http://www.w3.org/2000/svg">
<path d="M21.996 12.8821C22.018 12.6491 21.958 12.4061 21.808 12.2011C21.483 11.7551 20.857 11.6571 20.411 11.9821C19.461 12.6751 18.351 13.0681 17.223 13.1441C15.855 13.2361 14.458 12.8611 13.273 11.9861C11.94 11.0011 11.134 9.57108 10.906 8.05108C10.678 6.53108 11.03 4.92708 12.015 3.59508C12.157 3.40408 12.231 3.16008 12.206 2.90408C12.153 2.35408 11.664 1.95208 11.114 2.00608C8.85598 2.22608 6.79998 3.18608 5.21898 4.65708C3.48298 6.27208 2.31698 8.50408 2.08198 11.0431C1.82798 13.7921 2.71298 16.3861 4.34798 18.3541C5.98298 20.3221 8.36998 21.6671 11.12 21.9211C13.87 22.1751 16.463 21.2901 18.431 19.6551C20.399 18.0201 21.744 15.6331 21.998 12.8831L21.996 12.8821ZM19.567 14.6741C19.077 16.0371 18.232 17.2171 17.151 18.1151C15.575 19.4241 13.503 20.1311 11.303 19.9281C9.10298 19.7251 7.19498 18.6501 5.88598 17.0741C4.57698 15.4981 3.86998 13.4261 4.07298 11.2261C4.25998 9.19408 5.18998 7.41208 6.57998 6.12008C7.36198 5.39208 8.28998 4.82008 9.31098 4.44808C8.85498 5.71208 8.73398 7.05408 8.92698 8.34708C9.22998 10.3701 10.307 12.2811 12.083 13.5941C13.661 14.7611 15.531 15.2621 17.355 15.1391C18.107 15.0891 18.851 14.9321 19.565 14.6741H19.567Z" fill="black"/>
</svg>
