<svg width="24" height="24" viewBox="0 0 24 24" fill="none" xmlns="http://www.w3.org/2000/svg">
<path d="M4.85703 4.85693L17.141 9.97493L12.258 11.6329C11.973 11.7309 11.736 11.9529 11.633 12.2579L9.97504 17.1409L4.85703 4.85693ZM13.01 14.4239L18.293 19.7069C18.684 20.0979 19.317 20.0979 19.707 19.7069C20.097 19.3159 20.098 18.6829 19.707 18.2929L14.424 13.0099L20.292 11.0169C20.815 10.8389 21.095 10.2709 20.917 9.74893C20.821 9.46593 20.611 9.25493 20.355 9.14793L3.38504 2.07793C2.87504 1.86593 2.29003 2.10693 2.07703 2.61693C1.97003 2.87293 1.97803 3.14893 2.07703 3.38593L9.14704 20.3559C9.35904 20.8659 9.94503 21.1069 10.455 20.8949C10.73 20.7799 10.927 20.5569 11.017 20.2939L13.01 14.4239Z" fill="black"/>
</svg>
