<svg width="24" height="24" viewBox="0 0 24 24" fill="none" xmlns="http://www.w3.org/2000/svg">
<path d="M11 4.41399V11H4.414L5.707 9.70699C6.098 9.31599 6.098 8.68299 5.707 8.29299C5.316 7.90299 4.683 7.90199 4.293 8.29299L1.293 11.293C1.112 11.474 1 11.724 1 12C1 12.136 1.027 12.265 1.076 12.383C1.125 12.501 1.197 12.611 1.293 12.707L4.293 15.707C4.684 16.098 5.317 16.098 5.707 15.707C6.097 15.316 6.098 14.683 5.707 14.293L4.414 13H11V19.586L9.707 18.293C9.316 17.902 8.683 17.902 8.293 18.293C7.903 18.684 7.902 19.317 8.293 19.707L11.293 22.707C11.389 22.803 11.499 22.875 11.617 22.924C11.735 22.973 11.864 23 12 23C12.13 23 12.261 22.975 12.383 22.924C12.501 22.875 12.611 22.803 12.707 22.707L15.707 19.707C16.098 19.316 16.098 18.683 15.707 18.293C15.316 17.903 14.683 17.902 14.293 18.293L13 19.586V13H19.586L18.293 14.293C17.902 14.684 17.902 15.317 18.293 15.707C18.684 16.097 19.317 16.098 19.707 15.707L22.707 12.707C22.803 12.611 22.875 12.501 22.924 12.383C23.074 12.021 23.002 11.588 22.707 11.293L19.707 8.29299C19.316 7.90199 18.683 7.90199 18.293 8.29299C17.903 8.68399 17.902 9.31699 18.293 9.70699L19.586 11H13V4.41399L14.293 5.70699C14.684 6.09799 15.317 6.09799 15.707 5.70699C16.097 5.31599 16.098 4.68299 15.707 4.29299L12.707 1.29299C12.615 1.20099 12.505 1.12699 12.383 1.07599C12.138 0.974994 11.862 0.974994 11.617 1.07599C11.499 1.12499 11.389 1.19699 11.293 1.29299L8.293 4.29299C7.902 4.68399 7.902 5.31699 8.293 5.70699C8.684 6.09699 9.317 6.09799 9.707 5.70699L11 4.41399Z" fill="black"/>
</svg>
