<svg width="24" height="24" viewBox="0 0 24 24" fill="none" xmlns="http://www.w3.org/2000/svg">
<path d="M8 18.0001C8 18.5531 7.777 19.0511 7.414 19.4141C7.051 19.7771 6.553 20.0001 6 20.0001C5.447 20.0001 4.949 19.7771 4.586 19.4141C4.223 19.0511 4 18.5531 4 18.0001C4 17.4471 4.223 16.9491 4.586 16.5861C4.949 16.2231 5.447 16.0001 6 16.0001C6.553 16.0001 7.051 16.2231 7.414 16.5861C7.777 16.9491 8 17.4471 8 18.0001ZM22 16.0001V3.00006C22 2.95006 21.996 2.89306 21.986 2.83606C21.895 2.29106 21.38 1.92306 20.835 2.01406L8.835 4.01406C8.359 4.09506 8 4.50606 8 5.00006V14.5351C7.412 14.1951 6.728 14.0001 6 14.0001C4.896 14.0001 3.894 14.4491 3.172 15.1721C2.45 15.8951 2 16.8961 2 18.0001C2 19.1041 2.449 20.1061 3.172 20.8281C3.895 21.5501 4.896 22.0001 6 22.0001C7.104 22.0001 8.106 21.5511 8.828 20.8281C9.55 20.1051 10 19.1041 10 18.0001V5.84706L20 4.18006V12.5351C19.412 12.1951 18.728 12.0001 18 12.0001C16.896 12.0001 15.894 12.4491 15.172 13.1721C14.45 13.8951 14 14.8961 14 16.0001C14 17.1041 14.449 18.1061 15.172 18.8281C15.895 19.5501 16.896 20.0001 18 20.0001C19.104 20.0001 20.106 19.5511 20.828 18.8281C21.55 18.1051 22 17.1041 22 16.0001ZM20 16.0001C20 16.5531 19.777 17.0511 19.414 17.4141C19.051 17.7771 18.553 18.0001 18 18.0001C17.447 18.0001 16.949 17.7771 16.586 17.4141C16.223 17.0511 16 16.5531 16 16.0001C16 15.4471 16.223 14.9491 16.586 14.5861C16.949 14.2231 17.447 14.0001 18 14.0001C18.553 14.0001 19.051 14.2231 19.414 14.5861C19.777 14.9491 20 15.4471 20 16.0001Z" fill="black"/>
</svg>
