<svg width="24" height="24" viewBox="0 0 24 24" fill="none" xmlns="http://www.w3.org/2000/svg">
<path d="M2.57198 10.096C2.30998 10.221 2.10498 10.456 2.02998 10.757C1.89598 11.293 2.22198 11.836 2.75798 11.97L10.176 13.824L12.03 21.242C12.101 21.523 12.291 21.77 12.572 21.903C13.071 22.139 13.667 21.926 13.904 21.427L22.904 2.42701C23.028 2.16401 23.037 1.85201 22.904 1.57101C22.668 1.07201 22.071 0.859006 21.572 1.09501L2.57198 10.096ZM5.95298 10.708L19.898 4.10201L13.292 18.047L11.97 12.757C11.878 12.388 11.592 12.119 11.242 12.029L5.95298 10.708Z" fill="black"/>
</svg>
