<svg width="24" height="24" viewBox="0 0 24 24" fill="none" xmlns="http://www.w3.org/2000/svg">
<path d="M12.938 1.65402C12.839 1.38802 12.631 1.16602 12.345 1.06102C11.827 0.870023 11.252 1.13502 11.061 1.65402L4.06099 20.654C3.96299 20.923 3.97899 21.23 4.13099 21.496C4.40499 21.976 5.01599 22.142 5.49499 21.868L12 18.152L18.504 21.868C18.753 22.009 19.058 22.044 19.346 21.938C19.864 21.747 20.13 21.172 19.939 20.654L12.938 1.65402ZM12 4.89302L17.113 18.77L12.496 16.132C12.179 15.951 11.805 15.962 11.504 16.132L6.88699 18.77L12 4.89302Z" fill="black"/>
</svg>
