<svg width="24" height="24" viewBox="0 0 24 24" fill="none" xmlns="http://www.w3.org/2000/svg">
<path d="M14.507 9.40511L12 10.8551L5.039 6.82811L7.55 5.39312L14.507 9.40511ZM18.961 6.82811L16.505 8.24911L9.561 4.24411L11.495 3.13911C11.607 3.07511 11.727 3.03412 11.85 3.01512C12.068 2.98111 12.295 3.01811 12.504 3.13911L18.961 6.82811ZM11.526 22.9611C11.667 23.0371 11.829 23.0801 12 23.0801C12.173 23.0801 12.336 23.0361 12.478 22.9591C12.834 22.9011 13.179 22.7791 13.495 22.5991L20.496 18.5981C21.114 18.2411 21.556 17.7011 21.795 17.0841C21.928 16.7421 21.997 16.3771 22 16.0001V8.00011C22 7.52211 21.887 7.06911 21.686 6.66611C21.664 6.59511 21.634 6.52611 21.595 6.45912C21.549 6.38012 21.495 6.31011 21.433 6.24911C21.402 6.20611 21.369 6.16312 21.336 6.12212C21.106 5.83611 20.824 5.59411 20.505 5.40711L13.496 1.40211C12.886 1.05011 12.196 0.937115 11.542 1.03811C11.179 1.09511 10.827 1.21711 10.505 1.40111L7.306 3.22912C7.096 3.27011 6.9 3.37912 6.753 3.54511L3.504 5.40211C3.121 5.62312 2.805 5.91511 2.563 6.25211C2.503 6.31211 2.449 6.38211 2.404 6.45912C2.365 6.52711 2.334 6.59712 2.312 6.66912C2.272 6.74911 2.236 6.83211 2.204 6.91511C2.072 7.25811 2.003 7.62312 2 7.99311V16.0001C2.001 16.7101 2.248 17.3631 2.664 17.8781C2.894 18.1641 3.176 18.4061 3.495 18.5931L10.504 22.5981C10.828 22.7851 11.174 22.9051 11.526 22.9601V22.9611ZM11 12.5871V20.5781L4.505 16.8671C4.394 16.8021 4.298 16.7191 4.22 16.6221C4.081 16.4501 4 16.2361 4 16.0001V8.53812L11 12.5871ZM13 20.5781V12.5871L20 8.53812V16.0001C19.999 16.1211 19.975 16.2461 19.93 16.3621C19.85 16.5681 19.705 16.7461 19.504 16.8621L13 20.5781Z" fill="black"/>
</svg>
