<svg width="24" height="24" viewBox="0 0 24 24" fill="none" xmlns="http://www.w3.org/2000/svg">
<path d="M20.7331 10.3429L11.5431 19.5329C10.5661 20.5099 9.28705 20.9979 8.00505 20.9979C6.72305 20.9979 5.44405 20.5099 4.46705 19.5329C3.49005 18.5559 3.00205 17.2769 3.00205 15.9949C3.00205 14.7129 3.49005 13.4339 4.46705 12.4569L13.6571 3.26694C14.2431 2.68094 15.0101 2.38794 15.7801 2.38794C16.5501 2.38794 17.3161 2.68094 17.9031 3.26694C18.4901 3.85294 18.7821 4.61994 18.7821 5.38994C18.7821 6.15994 18.4891 6.92594 17.9031 7.51294L8.70305 16.7029C8.50705 16.8989 8.25205 16.9969 7.99505 16.9969C7.73805 16.9969 7.48305 16.8989 7.28705 16.7039C7.09105 16.5089 6.99405 16.2539 6.99405 15.9959C6.99405 15.7379 7.09205 15.4839 7.28705 15.2879L15.7771 6.80794C16.1681 6.41794 16.1681 5.78494 15.7781 5.39394C15.3881 5.00294 14.7551 5.00294 14.3641 5.39294L5.87405 13.8729C5.28805 14.4589 4.99505 15.2289 4.99505 15.9949C4.99505 16.7609 5.28805 17.5309 5.87405 18.1169C6.46005 18.7029 7.23005 18.9959 7.99605 18.9959C8.76205 18.9959 9.53205 18.7029 10.1181 18.1169L19.3181 8.92694C20.2951 7.94994 20.7831 6.66894 20.7831 5.38994C20.7831 4.11094 20.2941 2.82894 19.3181 1.85294C18.3421 0.876939 17.0601 0.387939 15.7811 0.387939C14.5021 0.387939 13.2201 0.876939 12.2441 1.85294L3.05405 11.0429C1.68705 12.4099 1.00305 14.2039 1.00305 15.9949C1.00305 17.7859 1.68705 19.5799 3.05405 20.9469C4.42105 22.3139 6.21505 22.9979 8.00605 22.9979C9.79705 22.9979 11.5911 22.3139 12.9581 20.9469L22.1481 11.7569C22.5391 11.3659 22.5391 10.7329 22.1481 10.3429C21.7571 9.95294 21.1231 9.95194 20.7331 10.3429Z" fill="black"/>
</svg>
