<svg width="24" height="24" viewBox="0 0 24 24" fill="none" xmlns="http://www.w3.org/2000/svg">
<path d="M18.707 13.707L19 13.414L20.586 15L15 20.586L13.414 19L13.707 18.707L18.707 13.707ZM2.25196 1.03203C2.21696 1.02303 2.18196 1.01603 2.14596 1.01103C2.00296 0.98903 1.86196 1.00003 1.72896 1.03703C1.59696 1.07403 1.46996 1.13903 1.35896 1.23203C1.26696 1.30903 1.18796 1.40303 1.12796 1.51103C1.06796 1.61703 1.02896 1.73103 1.01196 1.84803C0.991955 1.97603 0.996955 2.10303 1.02396 2.21903C1.02496 2.22403 1.02696 2.23003 1.02796 2.23503L1.03196 2.25203L4.52796 16.735C4.62196 17.123 4.93096 17.404 5.30396 17.481L11.069 18.634C10.928 18.993 11.002 19.417 11.293 19.707L14.293 22.707C14.684 23.098 15.317 23.098 15.707 22.707L22.707 15.707C23.098 15.316 23.098 14.683 22.707 14.293L19.707 11.293C19.417 11.003 18.993 10.928 18.634 11.069L17.481 5.30403C17.403 4.91203 17.105 4.62003 16.735 4.52803L2.25196 1.03203ZM14 11C14 10.172 13.663 9.42003 13.121 8.87903C12.579 8.33803 11.828 8.00003 11 8.00003C10.537 8.00003 10.098 8.10503 9.70695 8.29303L5.21995 3.80603L15.645 6.32203L16.915 12.671L12.672 16.914L6.32296 15.644L3.80596 5.22003L8.29296 9.70703C8.10496 10.098 7.99996 10.537 7.99996 11C7.99996 11.828 8.33696 12.58 8.87895 13.121C9.42095 13.662 10.172 14 11 14C11.828 14 12.58 13.663 13.121 13.121C13.662 12.579 14 11.828 14 11ZM12 11C12 11.276 11.889 11.525 11.707 11.707C11.525 11.889 11.276 12 11 12C10.724 12 10.475 11.889 10.293 11.707C10.111 11.525 9.99996 11.276 9.99996 11C9.99996 10.73 10.106 10.486 10.281 10.305C10.285 10.301 10.289 10.297 10.294 10.293C10.299 10.289 10.302 10.285 10.306 10.28C10.486 10.106 10.73 10 11 10C11.276 10 11.525 10.111 11.707 10.293C11.889 10.475 12 10.724 12 11Z" fill="black"/>
</svg>
