<svg width="24" height="24" viewBox="0 0 24 24" fill="none" xmlns="http://www.w3.org/2000/svg">
<path d="M18.293 4.293L4.293 18.293C3.902 18.684 3.902 19.317 4.293 19.707C4.684 20.097 5.317 20.098 5.707 19.707L19.707 5.707C20.098 5.316 20.098 4.683 19.707 4.293C19.316 3.903 18.683 3.902 18.293 4.293ZM10 6.5C10 5.534 9.607 4.657 8.975 4.025C8.343 3.393 7.466 3 6.5 3C5.534 3 4.657 3.393 4.025 4.025C3.393 4.657 3 5.534 3 6.5C3 7.466 3.393 8.343 4.025 8.975C4.657 9.607 5.534 10 6.5 10C7.466 10 8.343 9.607 8.975 8.975C9.607 8.343 10 7.466 10 6.5ZM8 6.5C8 6.914 7.833 7.288 7.561 7.561C7.289 7.834 6.914 8 6.5 8C6.086 8 5.712 7.833 5.439 7.561C5.166 7.289 5 6.914 5 6.5C5 6.086 5.167 5.712 5.439 5.439C5.711 5.166 6.086 5 6.5 5C6.914 5 7.288 5.167 7.561 5.439C7.834 5.711 8 6.086 8 6.5ZM21 17.5C21 16.534 20.607 15.657 19.975 15.025C19.343 14.393 18.466 14 17.5 14C16.534 14 15.657 14.393 15.025 15.025C14.393 15.657 14 16.534 14 17.5C14 18.466 14.393 19.343 15.025 19.975C15.657 20.607 16.534 21 17.5 21C18.466 21 19.343 20.607 19.975 19.975C20.607 19.343 21 18.466 21 17.5ZM19 17.5C19 17.914 18.833 18.288 18.561 18.561C18.289 18.834 17.914 19 17.5 19C17.086 19 16.712 18.833 16.439 18.561C16.166 18.289 16 17.914 16 17.5C16 17.086 16.167 16.712 16.439 16.439C16.711 16.166 17.086 16 17.5 16C17.914 16 18.288 16.167 18.561 16.439C18.834 16.711 19 17.086 19 17.5Z" fill="black"/>
</svg>
