<svg width="24" height="24" viewBox="0 0 24 24" fill="none" xmlns="http://www.w3.org/2000/svg">
<path d="M23 16.9199C23.016 16.2059 22.764 15.5159 22.327 14.9769C21.867 14.4109 21.198 14.0099 20.402 13.8969C19.602 13.7989 18.707 13.5829 17.816 13.2509C17.383 13.0919 16.923 13.0329 16.472 13.0769C15.809 13.1409 15.165 13.4259 14.653 13.9319L13.933 14.6519C12.163 13.5349 10.573 11.9849 9.35005 10.0629L10.076 9.33692C10.398 9.00692 10.639 8.61092 10.783 8.18092C10.995 7.54892 10.997 6.84492 10.744 6.16992C10.455 5.41692 10.226 4.52592 10.1 3.57492C9.99605 2.86092 9.64404 2.22992 9.13704 1.77092C8.59804 1.28492 7.88104 0.991916 7.11004 0.999916H4.11404C4.02604 0.999916 3.93204 1.00392 3.84104 1.01192C3.01704 1.08692 2.29904 1.48992 1.80804 2.07792C1.31704 2.66592 1.05004 3.44492 1.12504 4.27692C1.42504 7.35292 2.49004 10.5199 4.34104 13.3789C5.84304 15.7919 7.98904 18.0019 10.639 19.6849C13.207 21.3819 16.323 22.5469 19.725 22.9159C19.817 22.9249 19.916 22.9289 20.013 22.9289C20.841 22.9259 21.591 22.5859 22.131 22.0419C22.671 21.4979 23.004 20.7449 23.001 19.9209L23 16.9199ZM21 16.9199V19.9199C21.001 20.1999 20.891 20.4499 20.71 20.6319C20.529 20.8139 20.281 20.9269 20.004 20.9279C16.855 20.5919 14.043 19.5369 11.741 18.0159C9.31305 16.4729 7.38204 14.4789 6.03904 12.3219C4.34204 9.70191 3.38404 6.84092 3.11504 4.08392C3.09104 3.81592 3.17904 3.55792 3.34404 3.35992C3.50904 3.16192 3.74704 3.02992 4.02204 3.00492L7.11004 2.99992C7.38104 2.99692 7.61704 3.09392 7.79704 3.25592C7.96704 3.40992 8.08504 3.62192 8.12004 3.86392C8.26204 4.93592 8.52804 5.98092 8.87704 6.88892C8.95804 7.10492 8.95704 7.33592 8.88704 7.54692C8.83804 7.69192 8.75604 7.82792 8.64504 7.94192L7.38304 9.20292C7.05904 9.52692 7.00404 10.0169 7.22104 10.4039C8.80504 13.1889 11.06 15.3609 13.602 16.7819C13.999 17.0039 14.484 16.9259 14.797 16.6159L16.067 15.3459C16.233 15.1819 16.444 15.0889 16.665 15.0669C16.817 15.0519 16.975 15.0719 17.124 15.1269C18.146 15.5079 19.194 15.7629 20.158 15.8809C20.399 15.9149 20.62 16.0469 20.773 16.2359C20.92 16.4169 21.004 16.6479 20.999 16.9179L21 16.9199Z" fill="black"/>
</svg>
