<svg width="24" height="24" viewBox="0 0 24 24" fill="none" xmlns="http://www.w3.org/2000/svg">
<g clip-path="url(#clip0_2611_118)">
<path d="M14.859 5.98096C15.802 6.16496 16.599 6.66396 17.169 7.35496C17.589 7.86496 17.885 8.47896 18.021 9.14796C18.13 9.68896 18.658 10.039 19.199 9.92996C19.74 9.82096 20.09 9.29296 19.981 8.75196C19.781 7.75996 19.341 6.84496 18.712 6.08296C17.858 5.04696 16.655 4.29396 15.242 4.01896C14.7 3.91296 14.175 4.26696 14.069 4.80896C13.963 5.35096 14.317 5.87496 14.859 5.98096ZM14.94 1.99396C16.94 2.21596 18.683 3.15596 19.945 4.53796C21.063 5.76196 21.803 7.33196 22.007 9.05696C22.072 9.60496 22.569 9.99796 23.117 9.93296C23.665 9.86796 24.058 9.37096 23.993 8.82296C23.74 6.67596 22.817 4.71696 21.422 3.18896C19.844 1.46096 17.66 0.282956 15.161 0.00595637C14.612 -0.0550436 14.118 0.340956 14.057 0.888956C13.996 1.43696 14.392 1.93296 14.94 1.99396ZM23 16.92C23.016 16.206 22.764 15.516 22.327 14.977C21.867 14.411 21.198 14.01 20.402 13.897C19.602 13.799 18.707 13.583 17.816 13.251C17.383 13.092 16.923 13.033 16.472 13.077C15.809 13.141 15.165 13.426 14.653 13.932L13.933 14.652C12.163 13.535 10.573 11.985 9.35005 10.063L10.076 9.33696C10.398 9.00696 10.639 8.61096 10.783 8.18096C10.995 7.54896 10.997 6.84496 10.744 6.16996C10.455 5.41696 10.226 4.52596 10.1 3.57496C9.99605 2.86096 9.64404 2.22996 9.13704 1.77096C8.59804 1.28496 7.88104 0.991956 7.11004 0.999956H4.11404C4.02604 0.999956 3.93204 1.00396 3.84104 1.01196C3.01704 1.08696 2.29904 1.48996 1.80804 2.07796C1.31704 2.66596 1.05004 3.44496 1.12504 4.27696C1.42504 7.35296 2.49004 10.52 4.34104 13.379C5.84304 15.792 7.98904 18.002 10.639 19.685C13.207 21.382 16.323 22.547 19.725 22.916C19.817 22.925 19.916 22.929 20.013 22.929C20.841 22.926 21.591 22.586 22.131 22.042C22.671 21.498 23.004 20.745 23.001 19.921L23 16.92ZM21 16.92V19.92C21.001 20.2 20.891 20.45 20.71 20.632C20.529 20.814 20.281 20.927 20.004 20.928C16.855 20.592 14.043 19.537 11.741 18.016C9.31305 16.473 7.38204 14.479 6.03904 12.322C4.34204 9.70196 3.38404 6.84096 3.11504 4.08396C3.09104 3.81596 3.17904 3.55796 3.34404 3.35996C3.50904 3.16196 3.74704 3.02996 4.02204 3.00496L7.11004 2.99996C7.38104 2.99696 7.61704 3.09396 7.79704 3.25596C7.96704 3.40996 8.08504 3.62196 8.12004 3.86396C8.26204 4.93596 8.52804 5.98096 8.87704 6.88896C8.95804 7.10496 8.95704 7.33596 8.88704 7.54696C8.83804 7.69196 8.75604 7.82796 8.64504 7.94196L7.38304 9.20296C7.05904 9.52696 7.00404 10.017 7.22104 10.404C8.80504 13.189 11.06 15.361 13.602 16.782C13.999 17.004 14.484 16.926 14.797 16.616L16.067 15.346C16.233 15.182 16.444 15.089 16.665 15.067C16.817 15.052 16.975 15.072 17.124 15.127C18.146 15.508 19.194 15.763 20.158 15.881C20.399 15.915 20.62 16.047 20.773 16.236C20.92 16.417 21.004 16.648 20.999 16.918L21 16.92Z" fill="black"/>
</g>
<defs>
<clipPath id="clip0_2611_118">
<rect width="24" height="24" fill="white"/>
</clipPath>
</defs>
</svg>
