<svg width="24" height="24" viewBox="0 0 24 24" fill="none" xmlns="http://www.w3.org/2000/svg">
<g clip-path="url(#clip0_2611_146)">
<path d="M22.293 0.293119L17 5.58612V2.00012C17 1.44812 16.552 1.00012 16 1.00012C15.448 1.00012 15 1.44812 15 2.00012V8.00012C15 8.25612 15.098 8.51212 15.293 8.70712C15.389 8.80312 15.499 8.87512 15.617 8.92412C15.735 8.97312 15.864 9.00012 16 9.00012H22C22.552 9.00012 23 8.55212 23 8.00012C23 7.44812 22.552 7.00012 22 7.00012H18.414L23.707 1.70712C24.098 1.31612 24.098 0.683119 23.707 0.293119C23.316 -0.0968807 22.683 -0.0978808 22.293 0.293119ZM23 16.9201C23.016 16.2061 22.764 15.5161 22.327 14.9771C21.867 14.4111 21.198 14.0101 20.402 13.8971C19.602 13.7991 18.707 13.5831 17.816 13.2511C17.383 13.0921 16.923 13.0331 16.472 13.0771C15.809 13.1411 15.165 13.4261 14.653 13.9321L13.933 14.6521C12.163 13.5351 10.573 11.9851 9.35005 10.0631L10.076 9.33712C10.398 9.00712 10.639 8.61112 10.783 8.18112C10.995 7.54912 10.997 6.84512 10.744 6.17012C10.455 5.41712 10.226 4.52612 10.1 3.57512C9.99605 2.86112 9.64404 2.23012 9.13704 1.77112C8.59804 1.28512 7.88104 0.992119 7.11004 1.00012H4.11404C4.02604 1.00012 3.93204 1.00412 3.84104 1.01212C3.01704 1.08712 2.29904 1.49012 1.80804 2.07812C1.31704 2.66612 1.05004 3.44512 1.12504 4.27712C1.42504 7.35312 2.49004 10.5201 4.34104 13.3791C5.84304 15.7921 7.98904 18.0021 10.639 19.6851C13.207 21.3821 16.323 22.5471 19.725 22.9161C19.817 22.9251 19.916 22.9291 20.013 22.9291C20.841 22.9261 21.591 22.5861 22.131 22.0421C22.671 21.4981 23.004 20.7451 23.001 19.9211L23 16.9201ZM21 16.9201V19.9201C21.001 20.2001 20.891 20.4501 20.71 20.6321C20.529 20.8141 20.281 20.9271 20.004 20.9281C16.855 20.5921 14.043 19.5371 11.741 18.0161C9.31305 16.4731 7.38204 14.4791 6.03904 12.3221C4.34204 9.70212 3.38404 6.84112 3.11504 4.08412C3.09104 3.81612 3.17904 3.55812 3.34404 3.36012C3.50904 3.16212 3.74704 3.03012 4.02204 3.00512L7.11004 3.00012C7.38104 2.99712 7.61704 3.09412 7.79704 3.25612C7.96704 3.41012 8.08504 3.62212 8.12004 3.86412C8.26204 4.93612 8.52804 5.98112 8.87704 6.88912C8.95804 7.10512 8.95704 7.33612 8.88704 7.54712C8.83804 7.69212 8.75604 7.82812 8.64504 7.94212L7.38304 9.20312C7.05904 9.52712 7.00404 10.0171 7.22104 10.4041C8.80504 13.1891 11.06 15.3611 13.602 16.7821C13.999 17.0041 14.484 16.9261 14.797 16.6161L16.067 15.3461C16.233 15.1821 16.444 15.0891 16.665 15.0671C16.817 15.0521 16.975 15.0721 17.124 15.1271C18.146 15.5081 19.194 15.7631 20.158 15.8811C20.399 15.9151 20.62 16.0471 20.773 16.2361C20.92 16.4171 21.004 16.6481 20.999 16.9181L21 16.9201Z" fill="black"/>
</g>
<defs>
<clipPath id="clip0_2611_146">
<rect width="24" height="24" fill="white"/>
</clipPath>
</defs>
</svg>
