<svg width="24" height="24" viewBox="0 0 24 24" fill="none" xmlns="http://www.w3.org/2000/svg">
<g clip-path="url(#clip0_2611_140)">
<path d="M15 6.00001H20.586L18.293 8.29301C17.902 8.68401 17.902 9.31701 18.293 9.70701C18.684 10.097 19.317 10.098 19.707 9.70701L23.707 5.70701C23.799 5.61501 23.873 5.50501 23.924 5.38301C24.025 5.13801 24.025 4.86201 23.924 4.61701C23.875 4.49901 23.803 4.38901 23.707 4.29301L19.707 0.293006C19.316 -0.0979941 18.683 -0.0979941 18.293 0.293006C17.903 0.684006 17.902 1.31701 18.293 1.70701L20.586 4.00001H15C14.448 4.00001 14 4.44801 14 5.00001C14 5.55201 14.448 6.00001 15 6.00001ZM23 16.92C23.016 16.206 22.764 15.516 22.327 14.977C21.867 14.411 21.198 14.01 20.402 13.897C19.602 13.799 18.707 13.583 17.816 13.251C17.383 13.092 16.923 13.033 16.472 13.077C15.809 13.141 15.165 13.426 14.653 13.932L13.933 14.652C12.163 13.535 10.573 11.985 9.35005 10.063L10.076 9.33701C10.398 9.00701 10.639 8.61101 10.783 8.18101C10.995 7.54901 10.997 6.84501 10.744 6.17001C10.455 5.41701 10.226 4.52601 10.1 3.57501C9.99605 2.86101 9.64404 2.23001 9.13704 1.77101C8.59804 1.28501 7.88104 0.992006 7.11004 1.00001H4.11404C4.02604 1.00001 3.93204 1.00401 3.84104 1.01201C3.01704 1.08701 2.29904 1.49001 1.80804 2.07801C1.31704 2.66601 1.05004 3.44501 1.12504 4.27701C1.42504 7.35301 2.49004 10.52 4.34104 13.379C5.84304 15.792 7.98904 18.002 10.639 19.685C13.207 21.382 16.323 22.547 19.725 22.916C19.817 22.925 19.916 22.929 20.013 22.929C20.841 22.926 21.591 22.586 22.131 22.042C22.671 21.498 23.004 20.745 23.001 19.921L23 16.92ZM21 16.92V19.92C21.001 20.2 20.891 20.45 20.71 20.632C20.529 20.814 20.281 20.927 20.004 20.928C16.855 20.592 14.043 19.537 11.741 18.016C9.31305 16.473 7.38204 14.479 6.03904 12.322C4.34204 9.70201 3.38404 6.84101 3.11504 4.08401C3.09104 3.81601 3.17904 3.55801 3.34404 3.36001C3.50904 3.16201 3.74704 3.03001 4.02204 3.00501L7.11004 3.00001C7.38104 2.99701 7.61704 3.09401 7.79704 3.25601C7.96704 3.41001 8.08504 3.62201 8.12004 3.86401C8.26204 4.93601 8.52804 5.98101 8.87704 6.88901C8.95804 7.10501 8.95704 7.33601 8.88704 7.54701C8.83804 7.69201 8.75604 7.82801 8.64504 7.94201L7.38304 9.20301C7.05904 9.52701 7.00404 10.017 7.22104 10.404C8.80504 13.189 11.06 15.361 13.602 16.782C13.999 17.004 14.484 16.926 14.797 16.616L16.067 15.346C16.233 15.182 16.444 15.089 16.665 15.067C16.817 15.052 16.975 15.072 17.124 15.127C18.146 15.508 19.194 15.763 20.158 15.881C20.399 15.915 20.62 16.047 20.773 16.236C20.92 16.417 21.004 16.648 20.999 16.918L21 16.92Z" fill="black"/>
</g>
<defs>
<clipPath id="clip0_2611_140">
<rect width="24" height="24" fill="white"/>
</clipPath>
</defs>
</svg>
