<svg width="24" height="24" viewBox="0 0 24 24" fill="none" xmlns="http://www.w3.org/2000/svg">
<g clip-path="url(#clip0_2611_14)">
<path d="M16.707 8.707L22 3.414V7C22 7.552 22.448 8 23 8C23.552 8 24 7.552 24 7V1C24 0.864 23.973 0.735 23.924 0.617C23.875 0.499 23.803 0.389 23.708 0.294L23.706 0.292C23.614 0.2 23.504 0.126 23.383 0.076C23.265 0.027 23.136 0 23 0H17C16.448 0 16 0.448 16 1C16 1.552 16.448 2 17 2H20.586L15.293 7.293C14.902 7.684 14.902 8.317 15.293 8.707C15.684 9.097 16.317 9.098 16.707 8.707ZM23 16.92C23.016 16.206 22.764 15.516 22.327 14.977C21.867 14.411 21.198 14.01 20.402 13.897C19.602 13.799 18.707 13.583 17.816 13.251C17.383 13.092 16.923 13.033 16.472 13.077C15.809 13.141 15.165 13.426 14.653 13.932L13.933 14.652C12.163 13.535 10.573 11.985 9.35005 10.063L10.076 9.337C10.398 9.007 10.639 8.611 10.783 8.181C10.995 7.549 10.997 6.845 10.744 6.17C10.455 5.417 10.226 4.526 10.1 3.575C9.99605 2.861 9.64404 2.23 9.13704 1.771C8.59804 1.285 7.88104 0.992 7.11004 1H4.11404C4.02604 1 3.93204 1.004 3.84104 1.012C3.01704 1.087 2.29904 1.49 1.80804 2.078C1.31704 2.666 1.05004 3.445 1.12504 4.277C1.42504 7.353 2.49004 10.52 4.34104 13.379C5.84304 15.792 7.98904 18.002 10.639 19.685C13.207 21.382 16.323 22.547 19.725 22.916C19.817 22.925 19.916 22.929 20.013 22.929C20.841 22.926 21.591 22.586 22.131 22.042C22.671 21.498 23.004 20.745 23.001 19.921L23 16.92ZM21 16.92V19.92C21.001 20.2 20.891 20.45 20.71 20.632C20.529 20.814 20.281 20.927 20.004 20.928C16.855 20.592 14.043 19.537 11.741 18.016C9.31305 16.473 7.38204 14.479 6.03904 12.322C4.34204 9.702 3.38404 6.841 3.11504 4.084C3.09104 3.816 3.17904 3.558 3.34404 3.36C3.50904 3.162 3.74704 3.03 4.02204 3.005L7.11004 3C7.38104 2.997 7.61704 3.094 7.79704 3.256C7.96704 3.41 8.08504 3.622 8.12004 3.864C8.26204 4.936 8.52804 5.981 8.87704 6.889C8.95804 7.105 8.95704 7.336 8.88704 7.547C8.83804 7.692 8.75604 7.828 8.64504 7.942L7.38304 9.203C7.05904 9.527 7.00404 10.017 7.22104 10.404C8.80504 13.189 11.06 15.361 13.602 16.782C13.999 17.004 14.484 16.926 14.797 16.616L16.067 15.346C16.233 15.182 16.444 15.089 16.665 15.067C16.817 15.052 16.975 15.072 17.124 15.127C18.146 15.508 19.194 15.763 20.158 15.881C20.399 15.915 20.62 16.047 20.773 16.236C20.92 16.417 21.004 16.648 20.999 16.918L21 16.92Z" fill="black"/>
</g>
<defs>
<clipPath id="clip0_2611_14">
<rect width="24" height="24" fill="white"/>
</clipPath>
</defs>
</svg>
