<svg width="24" height="24" viewBox="0 0 24 24" fill="none" xmlns="http://www.w3.org/2000/svg">
<g clip-path="url(#clip0_2611_122)">
<path d="M6.02901 12.2661C4.34701 9.67312 3.38901 6.82612 3.11501 4.08112C3.09101 3.81512 3.17901 3.55812 3.34401 3.36012C3.50901 3.16212 3.74701 3.03012 4.02201 3.00512L7.11001 3.00012C7.38101 2.99712 7.61701 3.09412 7.79701 3.25612C7.96701 3.41012 8.08501 3.62212 8.12001 3.86412C8.26201 4.93612 8.52801 5.98112 8.87701 6.88912C8.95801 7.10512 8.95701 7.33612 8.88701 7.54712C8.83801 7.69212 8.75601 7.82812 8.64501 7.94212L7.38301 9.20312C6.99201 9.59412 6.99201 10.2271 7.38301 10.6171C7.77401 11.0071 8.40701 11.0081 8.79701 10.6171L10.076 9.33812C10.398 9.00812 10.639 8.61212 10.783 8.18212C10.995 7.55012 10.997 6.84612 10.744 6.17112C10.455 5.41812 10.226 4.52712 10.1 3.57612C9.99601 2.86112 9.64401 2.23012 9.13701 1.77112C8.59801 1.28512 7.88101 0.992119 7.11001 1.00012H4.11401C4.02601 1.00012 3.93201 1.00412 3.84101 1.01212C3.01701 1.08712 2.29901 1.49012 1.80801 2.07812C1.31701 2.66612 1.05001 3.44512 1.12501 4.27912C1.43101 7.34112 2.49601 10.4931 4.35101 13.3541C4.65101 13.8171 5.27101 13.9491 5.73401 13.6491C6.19701 13.3491 6.32901 12.7291 6.02901 12.2661ZM9.28501 16.1301L10.706 14.7091C11.635 15.5371 12.624 16.2401 13.605 16.7841C14.002 17.0051 14.485 16.9261 14.798 16.6171L16.068 15.3471C16.234 15.1831 16.445 15.0901 16.666 15.0681C16.818 15.0531 16.976 15.0731 17.125 15.1281C18.147 15.5091 19.195 15.7641 20.159 15.8821C20.399 15.9161 20.617 16.0461 20.771 16.2341C20.917 16.4121 21.002 16.6391 21 16.8831V19.8891C21.001 20.1691 20.891 20.4191 20.71 20.6011C20.529 20.7831 20.281 20.8961 20.004 20.8971C16.855 20.5611 14.043 19.5061 11.741 17.9851C10.834 17.4091 10.004 16.7751 9.28401 16.1291L9.28501 16.1301ZM22.293 0.293119L10.062 12.5231C10.031 12.5471 10.001 12.5741 9.97301 12.6021C9.94401 12.6311 9.918 12.6611 9.89301 12.6921L0.293006 22.2921C-0.0979941 22.6831 -0.0979941 23.3161 0.293006 23.7061C0.684006 24.0961 1.31701 24.0971 1.70701 23.7061L7.86901 17.5441C8.69201 18.2921 9.63301 19.0141 10.639 19.6531C13.207 21.3501 16.323 22.5151 19.725 22.8841C19.817 22.8931 19.916 22.8971 20.013 22.8971C20.841 22.8941 21.591 22.5541 22.131 22.0101C22.671 21.4661 23.004 20.7131 23.001 19.8891V16.8951C23.005 16.1721 22.752 15.4951 22.319 14.9661C21.859 14.4051 21.194 14.0081 20.402 13.8961C19.602 13.7981 18.707 13.5821 17.816 13.2501C17.383 13.0911 16.923 13.0321 16.472 13.0761C15.809 13.1401 15.165 13.4251 14.653 13.9311L13.933 14.6511C13.324 14.2641 12.712 13.8071 12.123 13.2901L23.707 1.70712C24.098 1.31612 24.098 0.683119 23.707 0.293119C23.316 -0.0968807 22.683 -0.0978808 22.293 0.293119Z" fill="black"/>
</g>
<defs>
<clipPath id="clip0_2611_122">
<rect width="24" height="24" fill="white"/>
</clipPath>
</defs>
</svg>
