<svg width="24" height="24" viewBox="0 0 24 24" fill="none" xmlns="http://www.w3.org/2000/svg">
<path d="M20.2889 15.501C19.3209 17.79 17.5179 19.469 15.3829 20.336C13.2479 21.203 10.7839 21.253 8.49495 20.285C6.20595 19.317 4.52695 17.514 3.65995 15.379C2.79295 13.244 2.74195 10.779 3.70995 8.49C4.64595 6.276 6.36195 4.634 8.39895 3.747C8.90495 3.526 9.13695 2.937 8.91695 2.431C8.69695 1.925 8.10695 1.693 7.60095 1.913C5.11195 2.997 3.01195 5.007 1.86795 7.711C0.684948 10.509 0.748948 13.523 1.80595 16.13C2.86295 18.737 4.91795 20.944 7.71495 22.127C10.5119 23.31 13.5269 23.246 16.1339 22.189C18.7409 21.132 20.9479 19.077 22.1309 16.28C22.3459 15.771 22.108 15.185 21.5989 14.969C21.0899 14.753 20.5049 14.992 20.2889 15.501ZM20.9449 11H12.9999V3.055C15.0859 3.285 16.9559 4.228 18.3639 5.636C19.7719 7.044 20.7149 8.914 20.9449 11ZM22.9999 12C22.9999 8.963 21.7679 6.211 19.7779 4.222C17.7879 2.233 15.0369 1 11.9999 1C11.4479 1 10.9999 1.448 10.9999 2V12C10.9999 12.552 11.4479 13 11.9999 13H21.9999C22.5519 13 22.9999 12.552 22.9999 12Z" fill="black"/>
</svg>
