<svg width="24" height="24" viewBox="0 0 24 24" fill="none" xmlns="http://www.w3.org/2000/svg">
<path d="M23 12C23 8.963 21.768 6.211 19.778 4.222C17.788 2.233 15.037 1 12 1C8.963 1 6.211 2.232 4.222 4.222C2.233 6.212 1 8.963 1 12C1 15.037 2.232 17.789 4.222 19.778C6.212 21.767 8.963 23 12 23C15.037 23 17.789 21.768 19.778 19.778C21.767 17.788 23 15.037 23 12ZM21 12C21 14.486 19.994 16.734 18.364 18.364C16.734 19.994 14.486 21 12 21C9.514 21 7.266 19.994 5.636 18.364C4.006 16.734 3 14.486 3 12C3 9.514 4.006 7.266 5.636 5.636C7.266 4.006 9.514 3 12 3C14.486 3 16.734 4.006 18.364 5.636C19.994 7.266 21 9.514 21 12ZM10.555 7.168C10.399 7.063 10.207 7 10 7C9.448 7 9 7.448 9 8V16C8.999 16.188 9.053 16.383 9.168 16.555C9.474 17.015 10.095 17.139 10.555 16.832L16.555 12.832C16.658 12.764 16.755 12.67 16.832 12.555C17.138 12.095 17.014 11.475 16.555 11.168L10.555 7.168ZM11 9.869L14.197 12L11 14.131V9.869Z" fill="black"/>
</svg>
