<svg width="24" height="24" viewBox="0 0 24 24" fill="none" xmlns="http://www.w3.org/2000/svg">
<path d="M4 2C3.172 2 2.42 2.337 1.879 2.879C1.338 3.421 1 4.172 1 5V11C1 14.037 2.232 16.789 4.222 18.778C6.212 20.767 8.963 22 12 22C15.037 22 17.789 20.768 19.778 18.778C21.767 16.788 23 14.037 23 11V5C23 4.172 22.663 3.42 22.121 2.879C21.579 2.338 20.828 2 20 2H4ZM4 4H20C20.276 4 20.525 4.111 20.707 4.293C20.889 4.475 21 4.724 21 5V11C21 13.486 19.994 15.734 18.364 17.364C16.734 18.994 14.486 20 12 20C9.514 20 7.266 18.994 5.636 17.364C4.006 15.734 3 13.486 3 11V5C3 4.724 3.111 4.475 3.293 4.293C3.475 4.111 3.724 4 4 4ZM7.293 10.707L11.293 14.707C11.684 15.098 12.317 15.098 12.707 14.707L16.707 10.707C17.098 10.316 17.098 9.683 16.707 9.293C16.316 8.903 15.683 8.902 15.293 9.293L12 12.586L8.707 9.293C8.316 8.902 7.683 8.902 7.293 9.293C6.903 9.684 6.902 10.317 7.293 10.707Z" fill="black"/>
</svg>
