<svg width="24" height="24" viewBox="0 0 24 24" fill="none" xmlns="http://www.w3.org/2000/svg">
<path d="M17.653 7.347C19.215 8.91 19.996 10.955 19.995 13.004C19.994 15.053 19.213 17.098 17.651 18.66C16.089 20.221 14.045 21.002 11.997 21.002C9.94497 21.002 7.89897 20.22 6.33797 18.658C4.77697 17.096 3.99597 15.05 3.99597 13.002C3.99597 10.954 4.77697 8.908 6.33797 7.346C6.72797 6.955 6.72797 6.322 6.33797 5.932C5.94797 5.542 5.31397 5.542 4.92397 5.932C2.97197 7.884 1.99597 10.445 1.99597 13.002C1.99597 15.559 2.97197 18.12 4.92397 20.072C6.87597 22.025 9.43697 23.002 11.995 23.002C14.553 23.002 17.114 22.026 19.067 20.074C21.02 18.122 21.997 15.561 21.997 13.004C21.996 10.443 21.02 7.884 19.069 5.932C18.679 5.541 18.045 5.541 17.655 5.932C17.265 6.323 17.264 6.956 17.655 7.346L17.653 7.347ZM11 2V12C11 12.552 11.448 13 12 13C12.552 13 13 12.552 13 12V2C13 1.448 12.552 1 12 1C11.448 1 11 1.448 11 2Z" fill="black"/>
</svg>
