<svg width="24" height="24" viewBox="0 0 24 24" fill="none" xmlns="http://www.w3.org/2000/svg">
<path d="M17 8H7V3H17V8ZM5 19V22C5 22.552 5.448 23 6 23H18C18.552 23 19 22.552 19 22V19H20C20.828 19 21.58 18.663 22.121 18.121C22.662 17.579 23 16.828 23 16V11C23 10.172 22.663 9.42 22.121 8.879C21.579 8.338 20.828 8 20 8H19V2C19 1.448 18.552 1 18 1H6C5.448 1 5 1.448 5 2V8H4C3.172 8 2.42 8.337 1.879 8.879C1.338 9.421 1 10.172 1 11V16C1 16.828 1.337 17.58 1.879 18.121C2.421 18.662 3.172 19 4 19H5ZM6 13C5.448 13 5 13.448 5 14V17H4C3.724 17 3.475 16.889 3.293 16.707C3.111 16.525 3 16.276 3 16V11C3 10.724 3.111 10.475 3.293 10.293C3.475 10.111 3.724 10 4 10H20C20.276 10 20.525 10.111 20.707 10.293C20.889 10.475 21 10.724 21 11V16C21 16.276 20.889 16.525 20.707 16.707C20.525 16.889 20.276 17 20 17H19V14C19 13.448 18.552 13 18 13H6ZM7 15H17V21H7V15Z" fill="black"/>
</svg>
