<svg width="25" height="25" viewBox="0 0 25 25" fill="none" xmlns="http://www.w3.org/2000/svg">
<path d="M5.26879 11.5C5.26879 10.616 5.4429 9.74072 5.78118 8.92405C6.11946 8.10738 6.61528 7.36533 7.24033 6.74028C7.86539 6.11522 8.60743 5.6194 9.42411 5.28112C10.2408 4.94285 11.1161 4.76874 12 4.76874C12.884 4.76874 13.7593 4.94285 14.576 5.28112C15.3927 5.6194 16.1347 6.11522 16.7598 6.74028C17.3848 7.36533 17.8806 8.10738 18.2189 8.92405C18.5572 9.74072 18.7313 10.616 18.7313 11.5V11.5C18.7313 14.8562 19.4344 16.8062 20.0532 17.875C20.1189 17.9888 20.1535 18.1179 20.1537 18.2493C20.1538 18.3808 20.1193 18.5099 20.0538 18.6238C19.9883 18.7378 19.894 18.8325 19.7804 18.8985C19.6667 18.9645 19.5377 18.9995 19.4063 19H4.59379C4.46237 18.9995 4.33337 18.9645 4.21972 18.8985C4.10607 18.8325 4.01177 18.7378 3.94626 18.6238C3.88074 18.5099 3.84632 18.3808 3.84644 18.2493C3.84655 18.1179 3.8812 17.9888 3.94692 17.875C4.56567 16.8062 5.26879 14.8562 5.26879 11.5Z" stroke="#191C1F" stroke-width="1.5" stroke-linecap="round" stroke-linejoin="round"/>
<path d="M9 19V19.75C9 20.5456 9.31607 21.3087 9.87868 21.8713C10.4413 22.4339 11.2044 22.75 12 22.75C12.7956 22.75 13.5587 22.4339 14.1213 21.8713C14.6839 21.3087 15 20.5456 15 19.75V19" stroke="#191C1F" stroke-width="1.5" stroke-linecap="round" stroke-linejoin="round"/>
<path d="M17.1938 3.25C18.7209 4.21395 19.9534 5.57938 20.7563 7.19687" stroke="#191C1F" stroke-width="1.5" stroke-linecap="round" stroke-linejoin="round"/>
<path d="M3.24365 7.19687C4.04664 5.57938 5.2791 4.21395 6.80615 3.25" stroke="#191C1F" stroke-width="1.5" stroke-linecap="round" stroke-linejoin="round"/>
<circle cx="18" cy="7" r="5.9" fill="#EE5858" stroke="white" stroke-width="1.8"/>
</svg>
