<svg width="24" height="24" viewBox="0 0 24 24" fill="none" xmlns="http://www.w3.org/2000/svg">
<path d="M15 11.9999C15 11.1719 14.663 10.4199 14.121 9.87894C13.579 9.33794 12.828 8.99994 12 8.99994C11.172 8.99994 10.42 9.33694 9.87895 9.87894C9.33795 10.4209 8.99995 11.1719 8.99995 11.9999C8.99995 12.8279 9.33695 13.5799 9.87895 14.1209C10.421 14.6619 11.172 14.9999 12 14.9999C12.828 14.9999 13.58 14.6629 14.121 14.1209C14.662 13.5789 15 12.8279 15 11.9999ZM13 11.9999C13 12.2759 12.889 12.5249 12.707 12.7069C12.525 12.8889 12.276 12.9999 12 12.9999C11.724 12.9999 11.475 12.8889 11.293 12.7069C11.111 12.5249 11 12.2759 11 11.9999C11 11.7239 11.111 11.4749 11.293 11.2929C11.475 11.1109 11.724 10.9999 12 10.9999C12.276 10.9999 12.525 11.1109 12.707 11.2929C12.889 11.4749 13 11.7239 13 11.9999ZM15.533 8.46794C16.51 9.44394 16.999 10.7219 16.999 12.0029C16.999 13.2839 16.512 14.5619 15.537 15.5389C15.147 15.9299 15.147 16.5629 15.538 16.9529C15.929 17.3429 16.562 17.3429 16.952 16.9519C18.318 15.5849 19 13.7909 18.999 12.0009C18.998 10.2109 18.313 8.41794 16.946 7.05194C16.555 6.66194 15.922 6.66194 15.532 7.05294C15.142 7.44394 15.142 8.07694 15.533 8.46694V8.46794ZM8.46695 15.5319C7.48995 14.5569 7.00095 13.2789 6.99995 11.9979C6.99895 10.7169 7.48695 9.43894 8.46195 8.46194C8.85195 8.07094 8.85195 7.43794 8.46095 7.04794C8.06995 6.65794 7.43695 6.65794 7.04695 7.04894C5.68195 8.41494 4.99895 10.2089 4.99995 11.9989C5.00095 13.7889 5.68595 15.5819 7.05295 16.9479C7.44395 17.3379 8.07695 17.3379 8.46695 16.9469C8.85695 16.5559 8.85695 15.9229 8.46595 15.5329L8.46695 15.5319ZM18.363 5.63694C20.12 7.39494 20.998 9.69594 20.998 12.0009C20.998 14.3049 20.12 16.6059 18.363 18.3629C17.973 18.7539 17.973 19.3869 18.363 19.7769C18.753 20.1669 19.387 20.1669 19.777 19.7769C21.924 17.6299 22.997 14.8139 22.998 12.0009C22.998 9.18594 21.924 6.36994 19.777 4.22294C19.387 3.83194 18.753 3.83194 18.363 4.22294C17.973 4.61394 17.972 5.24694 18.363 5.63694ZM5.63695 18.3629C3.87995 16.6049 3.00195 14.3039 3.00195 11.9989C3.00195 9.69494 3.87995 7.39394 5.63695 5.63694C6.02695 5.24594 6.02695 4.61294 5.63695 4.22294C5.24695 3.83294 4.61295 3.83294 4.22295 4.22294C2.07595 6.36994 1.00295 9.18594 1.00195 11.9989C1.00095 14.8119 2.07595 17.6289 4.22295 19.7769C4.61295 20.1679 5.24695 20.1679 5.63695 19.7769C6.02695 19.3859 6.02795 18.7529 5.63695 18.3629Z" fill="black"/>
</svg>
