<svg width="24" height="24" viewBox="0 0 24 24" fill="none" xmlns="http://www.w3.org/2000/svg">
<g clip-path="url(#clip0_2611_46)">
<path d="M4.453 9.33392C5.19 7.25092 6.7 5.66492 8.549 4.78192C10.398 3.89892 12.581 3.72292 14.663 4.45992C15.849 4.87992 16.869 5.54792 17.646 6.33992L20.476 8.99992H17C16.448 8.99992 16 9.44792 16 9.99992C16 10.5519 16.448 10.9999 17 10.9999H22.997C23.002 10.9999 23.006 10.9999 23.011 10.9999C23.148 10.9989 23.279 10.9689 23.397 10.9179C23.516 10.8669 23.626 10.7919 23.721 10.6929C23.733 10.6799 23.745 10.6669 23.757 10.6539C23.832 10.5669 23.89 10.4709 23.93 10.3689C23.97 10.2669 23.994 10.1579 23.999 10.0429C24 10.0279 24 10.0139 24 9.99992V3.99992C24 3.44792 23.552 2.99992 23 2.99992C22.448 2.99992 22 3.44792 22 3.99992V7.68892L19.074 4.93992C18.082 3.92992 16.803 3.09692 15.331 2.57592C12.728 1.65492 9.996 1.87692 7.688 2.97792C5.38 4.07892 3.489 6.06392 2.568 8.66692C2.383 9.18692 2.656 9.75792 3.176 9.94292C3.696 10.1279 4.269 9.85492 4.453 9.33392ZM2 16.3119L4.955 19.0889C6.884 21.0199 9.445 21.9969 12.003 21.9979C14.561 21.9989 17.122 21.0229 19.075 19.0709C20.179 17.9669 20.976 16.6639 21.436 15.3259C21.616 14.8039 21.338 14.2349 20.815 14.0549C20.292 13.8749 19.724 14.1529 19.544 14.6759C19.183 15.7259 18.551 16.7669 17.661 17.6569C16.098 19.2189 14.052 19.9989 12.004 19.9989C9.956 19.9989 7.91 19.2169 6.325 17.6329L3.525 14.9999H7C7.552 14.9999 8 14.5519 8 13.9999C8 13.4479 7.552 12.9999 7 12.9999H1.003C0.998 12.9999 0.994 12.9999 0.989 12.9999C0.852 13.0009 0.721 13.0309 0.603 13.0819C0.484 13.1329 0.374 13.2079 0.279 13.3069C0.267 13.3199 0.255 13.3329 0.243 13.3459C0.168 13.4329 0.11 13.5289 0.07 13.6309C0.03 13.7329 0.006 13.8419 0.001 13.9569C0 13.9719 0 13.9859 0 13.9999V19.9999C0 20.5519 0.448 20.9999 1 20.9999C1.552 20.9999 2 20.5519 2 19.9999V16.3119Z" fill="black"/>
</g>
<defs>
<clipPath id="clip0_2611_46">
<rect width="24" height="24" fill="white"/>
</clipPath>
</defs>
</svg>
