<svg width="24" height="24" viewBox="0 0 24 24" fill="none" xmlns="http://www.w3.org/2000/svg">
<g clip-path="url(#clip0_2611_44)">
<path d="M21.433 8.66601C20.512 6.06301 18.621 4.07901 16.313 2.97701C14.005 1.87501 11.273 1.65401 8.67 2.57501C7.198 3.09601 5.918 3.92901 4.926 4.93901L2 7.68901V4.00001C2 3.44801 1.552 3.00001 1 3.00001C0.448 3.00001 0 3.44801 0 4.00001V9.99801C0 10.013 0 10.028 0.001 10.042C0.006 10.157 0.03 10.267 0.07 10.368C0.11 10.47 0.168 10.566 0.243 10.653C0.255 10.666 0.267 10.68 0.279 10.692C0.37 10.787 0.48 10.864 0.603 10.917C0.722 10.968 0.852 10.997 0.989 10.999C0.993 10.999 0.996 10.999 1 10.999H7C7.552 10.999 8 10.551 8 9.99901C8 9.44701 7.552 9.00001 7 9.00001H3.524L6.354 6.34101C7.131 5.54901 8.151 4.88101 9.337 4.46101C11.42 3.72401 13.602 3.90001 15.451 4.78301C17.3 5.66601 18.81 7.25101 19.547 9.33401C19.731 9.85501 20.303 10.127 20.823 9.94301C21.343 9.75901 21.616 9.18701 21.432 8.66701L21.433 8.66601ZM20.475 15L17.675 17.631C16.091 19.216 14.045 19.997 11.996 19.997C9.947 19.997 7.901 19.217 6.339 17.655C5.449 16.765 4.816 15.724 4.456 14.674C4.276 14.152 3.708 13.874 3.185 14.053C2.662 14.232 2.385 14.801 2.564 15.324C3.024 16.663 3.821 17.966 4.925 19.069C6.878 21.021 9.439 21.997 11.997 21.996C14.555 21.995 17.115 21.018 19.045 19.087L22 16.312V20C22 20.552 22.448 21 23 21C23.552 21 24 20.552 24 20V14.002C24 13.987 24 13.972 23.999 13.958C23.994 13.843 23.97 13.733 23.93 13.632C23.89 13.53 23.832 13.434 23.757 13.347C23.745 13.334 23.733 13.32 23.721 13.308C23.63 13.213 23.52 13.136 23.397 13.083C23.278 13.032 23.148 13.003 23.011 13.001C23.007 13.001 23.004 13.001 23 13.001H17C16.448 13.001 16 13.449 16 14.001C16 14.553 16.448 15.001 17 15.001L20.475 15Z" fill="black"/>
</g>
<defs>
<clipPath id="clip0_2611_44">
<rect width="24" height="24" fill="white"/>
</clipPath>
</defs>
</svg>
