<svg width="24" height="24" viewBox="0 0 24 24" fill="none" xmlns="http://www.w3.org/2000/svg">
<g clip-path="url(#clip0_2611_48)">
<path d="M4 11V9.00001C4 8.17101 4.335 7.42301 4.879 6.87901C5.423 6.33501 6.171 6.00001 7 6.00001H18.586L16.293 8.29301C15.902 8.68401 15.902 9.31701 16.293 9.70701C16.684 10.097 17.317 10.098 17.707 9.70701L21.707 5.70701C21.803 5.61101 21.875 5.50101 21.924 5.38301C21.973 5.26501 22 5.13601 22 5.00001C22 4.87001 21.975 4.73901 21.924 4.61701C21.875 4.49901 21.803 4.38901 21.707 4.29301L17.707 0.293006C17.316 -0.0979941 16.683 -0.0979941 16.293 0.293006C15.903 0.684006 15.902 1.31701 16.293 1.70701L18.586 4.00001H7C5.62 4.00001 4.368 4.56101 3.464 5.46401C2.56 6.36701 2 7.62001 2 9.00001V11C2 11.552 2.448 12 3 12C3.552 12 4 11.552 4 11ZM20 13V15C20 15.829 19.665 16.577 19.121 17.121C18.577 17.665 17.829 18 17 18H5.414L7.707 15.707C8.098 15.316 8.098 14.683 7.707 14.293C7.316 13.903 6.683 13.902 6.293 14.293L2.293 18.293C2.201 18.385 2.127 18.495 2.076 18.617C2.025 18.739 2 18.87 2 19C2 19.256 2.098 19.512 2.293 19.707L6.293 23.707C6.684 24.098 7.317 24.098 7.707 23.707C8.097 23.316 8.098 22.683 7.707 22.293L5.414 20H17C18.38 20 19.632 19.439 20.536 18.536C21.44 17.633 22 16.38 22 15V13C22 12.448 21.552 12 21 12C20.448 12 20 12.448 20 13Z" fill="black"/>
</g>
<defs>
<clipPath id="clip0_2611_48">
<rect width="24" height="24" fill="white"/>
</clipPath>
</defs>
</svg>
