<svg width="24" height="24" viewBox="0 0 24 24" fill="none" xmlns="http://www.w3.org/2000/svg">
<path d="M10 16.9551L3.62902 12.0001L10 7.04508V16.9551ZM21.386 19.7891C21.554 19.9211 21.768 20.0001 22 20.0001C22.552 20.0001 23 19.5521 23 19.0001V5.00008C23.001 4.78708 22.932 4.57008 22.789 4.38608C22.45 3.95008 21.822 3.87208 21.386 4.21108L12.386 11.2111C12.325 11.2571 12.264 11.3171 12.211 11.3861C12.071 11.5661 12.002 11.7781 12 11.9901V5.00008C12.001 4.78708 11.932 4.57008 11.789 4.38608C11.45 3.95008 10.822 3.87208 10.386 4.21108L1.38602 11.2111C1.32502 11.2571 1.26402 11.3171 1.21102 11.3861C0.872019 11.8221 0.950019 12.4501 1.38602 12.7891L10.386 19.7891C10.554 19.9211 10.768 20.0001 11 20.0001C11.552 20.0001 12 19.5521 12 19.0001V12.0091C12.003 12.3041 12.135 12.5941 12.386 12.7891L21.386 19.7891ZM21 16.9551L14.629 12.0001L21 7.04508V16.9551Z" fill="black"/>
</svg>
