<svg width="24" height="24" viewBox="0 0 24 24" fill="none" xmlns="http://www.w3.org/2000/svg">
<path d="M2.567 15.3321C3.485 17.9361 5.372 19.9231 7.679 21.0281C9.986 22.1331 12.717 22.3581 15.322 21.4411C17.927 20.5241 19.913 18.6361 21.018 16.3291C22.123 14.0221 22.348 11.2911 21.431 8.68609C20.514 6.08109 18.626 4.09509 16.319 2.99009C14.012 1.88509 11.281 1.66009 8.676 2.57709C7.202 3.09709 5.921 3.92909 4.927 4.93909L2 7.68909V4.00009C2 3.44809 1.552 3.00009 1 3.00009C0.448 3.00009 0 3.44809 0 4.00009V9.99809C0 10.0131 0 10.0281 0.001 10.0421C0.006 10.1571 0.03 10.2671 0.07 10.3681C0.11 10.4701 0.168 10.5661 0.243 10.6531C0.255 10.6661 0.267 10.6801 0.279 10.6921C0.37 10.7871 0.48 10.8641 0.603 10.9171C0.722 10.9681 0.852 10.9971 0.989 10.9991C0.993 10.9991 0.996 10.9991 1 10.9991H7C7.552 10.9991 8 10.5511 8 9.99909C8 9.44709 7.552 9.00009 7 9.00009H3.524L6.353 6.34109C7.132 5.54909 8.153 4.88209 9.34 4.46409C11.424 3.73009 13.606 3.90909 15.454 4.79409C17.302 5.67909 18.81 7.26709 19.544 9.35109C20.278 11.4351 20.099 13.6171 19.214 15.4651C18.329 17.3131 16.741 18.8211 14.657 19.5551C12.573 20.2891 10.391 20.1101 8.543 19.2251C6.695 18.3401 5.187 16.7521 4.453 14.6681C4.269 14.1471 3.698 13.8741 3.178 14.0571C2.658 14.2401 2.384 14.8121 2.567 15.3321Z" fill="black"/>
</svg>
