<svg width="24" height="24" viewBox="0 0 24 24" fill="none" xmlns="http://www.w3.org/2000/svg">
<path d="M19.547 14.6669C18.811 16.7499 17.302 18.3369 15.453 19.2199C13.604 20.1029 11.422 20.2809 9.33899 19.5449C7.25599 18.8089 5.66899 17.2999 4.78599 15.4509C3.90299 13.6019 3.72499 11.4199 4.46099 9.33691C5.19699 7.25391 6.70599 5.66691 8.55499 4.78391C10.404 3.90091 12.586 3.72291 14.669 4.45891C15.857 4.87891 16.878 5.54691 17.656 6.34091L20.48 8.99991H17C16.448 8.99991 16 9.44791 16 9.99991C16 10.5519 16.448 10.9999 17 10.9999H22.997C23.001 10.9999 23.006 10.9999 23.01 10.9999C23.147 10.9989 23.277 10.9699 23.396 10.9179C23.515 10.8669 23.625 10.7919 23.72 10.6929C23.732 10.6809 23.743 10.6679 23.754 10.6549C23.83 10.5679 23.888 10.4709 23.929 10.3679C23.97 10.2649 23.994 10.1549 23.998 10.0399C24 10.0259 24 10.0119 24 9.99791V3.99991C24 3.44791 23.552 2.99991 23 2.99991C22.448 2.99991 22 3.44791 22 3.99991V7.68491L19.084 4.93991C18.091 3.92791 16.81 3.09391 15.336 2.57391C12.732 1.65291 9.99999 1.87591 7.69199 2.97891C5.38399 4.08191 3.49499 6.06691 2.57499 8.67091C1.65499 11.2749 1.87899 14.0059 2.98099 16.3139C4.08299 18.6219 6.06899 20.5109 8.67299 21.4309C11.277 22.3509 14.008 22.1279 16.316 21.0249C18.624 19.9219 20.513 17.9369 21.433 15.3329C21.617 14.8119 21.344 14.2409 20.823 14.0569C20.302 13.8729 19.731 14.1459 19.547 14.6669Z" fill="black"/>
</svg>
