<svg width="24" height="24" viewBox="0 0 24 24" fill="none" xmlns="http://www.w3.org/2000/svg">
<path d="M4 12C6.209 12 8.208 12.894 9.657 14.343C11.106 15.792 12 17.791 12 20C12 20.552 12.448 21 13 21C13.552 21 14 20.552 14 20C14 17.239 12.88 14.737 11.071 12.929C9.262 11.121 6.761 10 4 10C3.448 10 3 10.448 3 11C3 11.552 3.448 12 4 12ZM4 5C8.142 5 11.891 6.678 14.607 9.393C17.323 12.108 19 15.858 19 20C19 20.552 19.448 21 20 21C20.552 21 21 20.552 21 20C21 15.306 19.096 11.054 16.021 7.979C12.946 4.904 8.694 3 4 3C3.448 3 3 3.448 3 4C3 4.552 3.448 5 4 5ZM7 19C7 18.448 6.775 17.947 6.414 17.586C6.053 17.225 5.552 17 5 17C4.448 17 3.947 17.225 3.586 17.586C3.225 17.947 3 18.448 3 19C3 19.552 3.225 20.053 3.586 20.414C3.947 20.775 4.448 21 5 21C5.552 21 6.053 20.775 6.414 20.414C6.775 20.053 7 19.552 7 19Z" fill="black"/>
</svg>
