<svg width="24" height="24" viewBox="0 0 24 24" fill="none" xmlns="http://www.w3.org/2000/svg">
<path d="M19 22C19.828 22 20.58 21.663 21.121 21.121C21.662 20.579 22 19.828 22 19V8C22 7.744 21.902 7.488 21.707 7.293L16.707 2.293C16.526 2.112 16.276 2 16 2H5C4.172 2 3.42 2.337 2.879 2.879C2.338 3.421 2 4.172 2 5V19C2 19.828 2.337 20.58 2.879 21.121C3.421 21.662 4.172 22 5 22H19ZM8 20V14H16V20H8ZM6 4V8C6 8.552 6.448 9 7 9H15C15.552 9 16 8.552 16 8C16 7.448 15.552 7 15 7H8V4H15.586L20 8.414V19C20 19.276 19.889 19.525 19.707 19.707C19.525 19.889 19.276 20 19 20H18V13C18 12.448 17.552 12 17 12H7C6.448 12 6 12.448 6 13V20H5C4.724 20 4.475 19.889 4.293 19.707C4.111 19.525 4 19.276 4 19V5C4 4.724 4.111 4.475 4.293 4.293C4.475 4.111 4.724 4 5 4H6Z" fill="black"/>
</svg>
