<svg width="24" height="24" viewBox="0 0 24 24" fill="none" xmlns="http://www.w3.org/2000/svg">
<path d="M7.378 16.551C7.389 16.563 7.401 16.576 7.413 16.587C7.425 16.598 7.437 16.61 7.449 16.622C7.792 16.981 8 17.465 8 18C8 18.553 7.777 19.051 7.414 19.414C7.051 19.777 6.553 20 6 20C5.447 20 4.949 19.777 4.586 19.414C4.223 19.051 4 18.553 4 18C4 17.447 4.223 16.949 4.586 16.586C4.949 16.223 5.447 16 6 16C6.535 16 7.019 16.208 7.378 16.551ZM13.764 15.188L19.294 20.708C19.685 21.098 20.318 21.098 20.708 20.707C21.098 20.316 21.098 19.683 20.707 19.293L15.177 13.773C14.786 13.383 14.153 13.383 13.763 13.774C13.373 14.165 13.373 14.798 13.764 15.188ZM7.449 7.378C7.437 7.389 7.425 7.401 7.413 7.413C7.401 7.425 7.389 7.437 7.378 7.449C7.019 7.792 6.535 8 6 8C5.447 8 4.949 7.777 4.586 7.414C4.223 7.051 4 6.553 4 6C4 5.447 4.223 4.949 4.586 4.586C4.949 4.223 5.447 4 6 4C6.553 4 7.051 4.223 7.414 4.586C7.777 4.949 8 5.447 8 6C8 6.535 7.792 7.019 7.449 7.378ZM8.032 9.446L10.586 12L8.032 14.554C7.436 14.202 6.741 14 6 14C4.896 14 3.894 14.449 3.172 15.172C2.45 15.895 2 16.896 2 18C2 19.104 2.449 20.106 3.172 20.828C3.895 21.55 4.896 22 6 22C7.104 22 8.106 21.551 8.828 20.828C9.55 20.105 10 19.104 10 18C10 17.259 9.798 16.564 9.446 15.968L20.707 4.707C21.098 4.316 21.098 3.683 20.707 3.293C20.316 2.903 19.683 2.902 19.293 3.293L12 10.586L9.446 8.032C9.798 7.436 10 6.741 10 6C10 4.896 9.551 3.894 8.828 3.172C8.105 2.45 7.104 2 6 2C4.896 2 3.894 2.449 3.172 3.172C2.45 3.895 2 4.896 2 6C2 7.104 2.449 8.106 3.172 8.828C3.895 9.55 4.896 10 6 10C6.741 10 7.436 9.798 8.032 9.446Z" fill="black"/>
</svg>
