<svg width="24" height="24" viewBox="0 0 24 24" fill="none" xmlns="http://www.w3.org/2000/svg">
<path d="M22.9631 2.26895C23.0061 2.11795 23.0131 1.95495 22.9781 1.79295C22.9541 1.67995 22.9101 1.56895 22.8471 1.46795C22.7831 1.36595 22.7021 1.27795 22.6091 1.20595C22.4921 1.11595 22.3601 1.05595 22.2231 1.02495C22.0861 0.99395 21.9411 0.99095 21.7971 1.02095C21.7551 1.02995 21.7121 1.04195 21.6711 1.05595L21.6501 1.06295L1.67006 8.05595C1.41806 8.14395 1.20306 8.33195 1.08606 8.59395C0.862056 9.09895 1.08906 9.68995 1.59406 9.91395L10.2431 13.758L14.0871 22.4069C14.1951 22.65 14.4001 22.85 14.6701 22.945C15.1911 23.1269 15.7621 22.8529 15.9441 22.3309L22.9371 2.35195C22.9471 2.32495 22.9561 2.29795 22.9641 2.26995L22.9631 2.26895ZM10.7791 11.807L4.71106 9.11095L18.1941 4.39095L10.7791 11.807ZM19.6091 5.80595L14.8891 19.2889L12.1931 13.221L19.6091 5.80595Z" fill="black"/>
</svg>
