<svg width="24" height="24" viewBox="0 0 24 24" fill="none" xmlns="http://www.w3.org/2000/svg">
<path d="M4 1C3.172 1 2.42 1.337 1.879 1.879C1.338 2.421 1 3.172 1 4V8C1 8.828 1.337 9.58 1.879 10.121C2.421 10.662 3.172 11 4 11H20C20.828 11 21.58 10.663 22.121 10.121C22.662 9.579 23 8.828 23 8V4C23 3.172 22.663 2.42 22.121 1.879C21.579 1.338 20.828 1 20 1H4ZM4 3H20C20.276 3 20.525 3.111 20.707 3.293C20.889 3.475 21 3.724 21 4V8C21 8.276 20.889 8.525 20.707 8.707C20.525 8.889 20.276 9 20 9H4C3.724 9 3.475 8.889 3.293 8.707C3.111 8.525 3 8.276 3 8V4C3 3.724 3.111 3.475 3.293 3.293C3.475 3.111 3.724 3 4 3ZM4 13C3.172 13 2.42 13.337 1.879 13.879C1.338 14.421 1 15.172 1 16V20C1 20.828 1.337 21.58 1.879 22.121C2.421 22.662 3.172 23 4 23H20C20.828 23 21.58 22.663 22.121 22.121C22.662 21.579 23 20.828 23 20V16C23 15.172 22.663 14.42 22.121 13.879C21.579 13.338 20.828 13 20 13H4ZM4 15H20C20.276 15 20.525 15.111 20.707 15.293C20.889 15.475 21 15.724 21 16V20C21 20.276 20.889 20.525 20.707 20.707C20.525 20.889 20.276 21 20 21H4C3.724 21 3.475 20.889 3.293 20.707C3.111 20.525 3 20.276 3 20V16C3 15.724 3.111 15.475 3.293 15.293C3.475 15.111 3.724 15 4 15ZM6 7C6.552 7 7 6.552 7 6C7 5.448 6.552 5 6 5C5.448 5 5 5.448 5 6C5 6.552 5.448 7 6 7ZM6 19C6.552 19 7 18.552 7 18C7 17.448 6.552 17 6 17C5.448 17 5 17.448 5 18C5 18.552 5.448 19 6 19Z" fill="black"/>
</svg>
