<svg width="24" height="24" viewBox="0 0 24 24" fill="none" xmlns="http://www.w3.org/2000/svg">
<path d="M3 12V20C3 20.828 3.337 21.58 3.879 22.121C4.421 22.662 5.172 23 6 23H18C18.828 23 19.58 22.663 20.121 22.121C20.662 21.579 21 20.828 21 20V12C21 11.448 20.552 11 20 11C19.448 11 19 11.448 19 12V20C19 20.276 18.889 20.525 18.707 20.707C18.525 20.889 18.276 21 18 21H6C5.724 21 5.475 20.889 5.293 20.707C5.111 20.525 5 20.276 5 20V12C5 11.448 4.552 11 4 11C3.448 11 3 11.448 3 12ZM11 4.41399V15C11 15.552 11.448 16 12 16C12.552 16 13 15.552 13 15V4.41399L15.293 6.70699C15.684 7.09799 16.317 7.09799 16.707 6.70699C17.097 6.31599 17.098 5.68299 16.707 5.29299L12.707 1.29299C12.615 1.20099 12.505 1.12699 12.383 1.07599C12.138 0.974994 11.862 0.974994 11.617 1.07599C11.499 1.12499 11.389 1.19699 11.293 1.29299L7.293 5.29299C6.902 5.68399 6.902 6.31699 7.293 6.70699C7.684 7.09699 8.317 7.09799 8.707 6.70699L11 4.41399Z" fill="black"/>
</svg>
