<svg width="24" height="24" viewBox="0 0 24 24" fill="none" xmlns="http://www.w3.org/2000/svg">
<path d="M16.214 18.098C16.239 18.065 16.262 18.031 16.284 17.994C16.304 17.959 16.322 17.923 16.338 17.887C16.411 17.779 16.494 17.678 16.586 17.586C16.949 17.223 17.447 17 18 17C18.553 17 19.051 17.223 19.414 17.586C19.777 17.949 20 18.447 20 19C20 19.553 19.777 20.051 19.414 20.414C19.051 20.777 18.553 21 18 21C17.447 21 16.949 20.777 16.586 20.414C16.223 20.051 16 19.553 16 19C16 18.675 16.077 18.369 16.214 18.098ZM16.301 6.056C16.292 6.039 16.283 6.022 16.273 6.005C16.263 5.988 16.253 5.971 16.242 5.955C16.088 5.672 16 5.347 16 5C16 4.447 16.223 3.949 16.586 3.586C16.949 3.223 17.447 3 18 3C18.553 3 19.051 3.223 19.414 3.586C19.777 3.949 20 4.447 20 5C20 5.553 19.777 6.051 19.414 6.414C19.051 6.777 18.553 7 18 7C17.447 7 16.949 6.777 16.586 6.414C16.478 6.306 16.382 6.186 16.301 6.056ZM7.699 10.944C7.708 10.961 7.717 10.978 7.727 10.995C7.737 11.012 7.747 11.029 7.758 11.045C7.912 11.328 8 11.653 8 12C8 12.347 7.912 12.672 7.757 12.956C7.746 12.972 7.736 12.989 7.726 13.006C7.716 13.023 7.707 13.039 7.699 13.056C7.618 13.186 7.522 13.306 7.414 13.414C7.051 13.777 6.553 14 6 14C5.447 14 4.949 13.777 4.586 13.414C4.223 13.051 4 12.553 4 12C4 11.447 4.223 10.949 4.586 10.586C4.949 10.223 5.447 10 6 10C6.553 10 7.051 10.223 7.414 10.586C7.522 10.694 7.618 10.814 7.699 10.944ZM14.15 6.088L8.842 9.185C8.838 9.18 8.833 9.176 8.828 9.171C8.106 8.449 7.104 8 6 8C4.896 8 3.894 8.449 3.172 9.172C2.45 9.895 2 10.896 2 12C2 13.104 2.449 14.106 3.172 14.828C3.895 15.55 4.896 16 6 16C7.104 16 8.106 15.551 8.828 14.828C8.833 14.823 8.837 14.819 8.842 14.814L14.151 17.908C14.053 18.255 14 18.622 14 19C14 20.104 14.449 21.106 15.172 21.828C15.895 22.55 16.896 23 18 23C19.104 23 20.106 22.551 20.828 21.828C21.55 21.105 22 20.104 22 19C22 17.896 21.551 16.894 20.828 16.172C20.105 15.45 19.104 15 18 15C16.896 15 15.894 15.449 15.172 16.172C15.169 16.175 15.165 16.179 15.162 16.182L9.85 13.087C9.948 12.741 10 12.377 10 12C10 11.623 9.948 11.258 9.85 10.912L15.158 7.814C15.162 7.819 15.167 7.823 15.172 7.828C15.894 8.551 16.896 9 18 9C19.104 9 20.106 8.551 20.828 7.828C21.55 7.105 22 6.104 22 5C22 3.896 21.551 2.894 20.828 2.172C20.105 1.45 19.104 1 18 1C16.896 1 15.894 1.449 15.172 2.172C14.45 2.895 14 3.896 14 5C14 5.377 14.052 5.742 14.15 6.088Z" fill="black"/>
</svg>
