<svg width="24" height="24" viewBox="0 0 24 24" fill="none" xmlns="http://www.w3.org/2000/svg">
<g clip-path="url(#clip0_2611_98)">
<path d="M20.645 14.296C20.886 13.52 21.003 12.729 21 11.996V5.00001C21 4.57401 20.733 4.21001 20.351 4.06401L12.351 1.06401C12.115 0.976006 11.867 0.982006 11.65 1.06401L8.49 2.24401C7.973 2.43601 7.71 3.01201 7.903 3.53001C8.096 4.04801 8.672 4.31001 9.19 4.11701L11.999 3.06801L19 5.69301V12.004C19.002 12.526 18.918 13.115 18.735 13.704C18.571 14.231 18.866 14.792 19.394 14.955C19.922 15.118 20.482 14.824 20.645 14.296ZM5 6.41401L16.231 17.645C15.042 18.852 13.601 19.959 11.969 20.844C10.76 20.154 7.567 18.142 5.95 15.313C5.871 15.175 5.797 15.037 5.727 14.896C5.271 13.985 5 13.018 5 12V6.41401ZM0.292997 1.70701L3.117 4.53201C3.042 4.67401 3.001 4.83401 3 5.00001V12C3 13.382 3.369 14.655 3.938 15.791C4.025 15.966 4.117 16.137 4.214 16.306C6.565 20.42 11.554 22.895 11.554 22.895C11.852 23.044 12.19 23.03 12.468 22.885C14.453 21.838 16.208 20.519 17.646 19.06L22.294 23.708C22.685 24.099 23.318 24.099 23.708 23.708C24.098 23.317 24.099 22.684 23.708 22.294L1.707 0.293006C1.316 -0.0979941 0.682997 -0.0979941 0.292997 0.293006C-0.0970028 0.684006 -0.0980028 1.31701 0.292997 1.70701Z" fill="black"/>
</g>
<defs>
<clipPath id="clip0_2611_98">
<rect width="24" height="24" fill="white"/>
</clipPath>
</defs>
</svg>
