<svg width="24" height="24" viewBox="0 0 24 24" fill="none" xmlns="http://www.w3.org/2000/svg">
<path d="M12 20.8619C10.816 20.1899 7.58 18.1669 5.95 15.3129C5.871 15.1749 5.797 15.0369 5.727 14.8959C5.271 13.9849 5 13.0179 5 11.9999V5.69291L12 3.06791L19 5.69291V11.9999C19 13.0179 18.729 13.9849 18.274 14.8969C18.204 15.0369 18.129 15.1759 18.051 15.3139C16.42 18.1679 13.184 20.1899 12.001 20.8629L12 20.8619ZM12.447 22.8939C12.447 22.8939 17.436 20.4189 19.787 16.3049C19.883 16.1369 19.975 15.9649 20.063 15.7899C20.631 14.6549 21 13.3819 21 11.9999V4.99991C21 4.57391 20.733 4.20991 20.351 4.06391L12.351 1.06391C12.115 0.974908 11.866 0.981908 11.649 1.06391L3.649 4.06391C3.25 4.21291 3.003 4.59091 3 4.99991V11.9999C3 13.3819 3.369 14.6549 3.938 15.7909C4.025 15.9659 4.117 16.1369 4.214 16.3059C6.565 20.4199 11.554 22.8949 11.554 22.8949C11.846 23.0409 12.174 23.0309 12.448 22.8949L12.447 22.8939Z" fill="black"/>
</svg>
