<svg width="24" height="24" viewBox="0 0 24 24" fill="none" xmlns="http://www.w3.org/2000/svg">
<path d="M19 5H5.00002L6.50002 3H17.5L19 5ZM21.794 5.392L18.8 1.4C18.604 1.139 18.306 1.001 18 1H6.00002C5.67402 1 5.38402 1.156 5.20002 1.4L2.20602 5.392C2.16302 5.448 2.12502 5.509 2.09502 5.574C2.03002 5.711 1.99902 5.857 2.00002 6V20C2.00002 20.828 2.33702 21.58 2.87902 22.121C3.42102 22.662 4.17202 23 5.00002 23H19C19.828 23 20.58 22.663 21.121 22.121C21.662 21.579 22 20.828 22 20V6C22 5.781 21.929 5.578 21.811 5.415C21.807 5.41 21.804 5.405 21.8 5.4L21.794 5.392ZM4.00002 7H20V20C20 20.276 19.889 20.525 19.707 20.707C19.525 20.889 19.276 21 19 21H5.00002C4.72402 21 4.47502 20.889 4.29302 20.707C4.11102 20.525 4.00002 20.276 4.00002 20V7ZM15 10C15 10.829 14.665 11.577 14.121 12.121C13.577 12.665 12.829 13 12 13C11.171 13 10.423 12.665 9.87902 12.121C9.33502 11.577 9.00002 10.829 9.00002 10C9.00002 9.448 8.55202 9 8.00002 9C7.44802 9 7.00002 9.448 7.00002 10C7.00002 11.38 7.56102 12.632 8.46402 13.536C9.36702 14.44 10.62 15 12 15C13.38 15 14.632 14.439 15.536 13.536C16.44 12.633 17 11.38 17 10C17 9.448 16.552 9 16 9C15.448 9 15 9.448 15 10Z" fill="black"/>
</svg>
