<svg width="24" height="24" viewBox="0 0 24 24" fill="none" xmlns="http://www.w3.org/2000/svg">
<path d="M11 21C11 20.448 10.775 19.947 10.414 19.586C10.053 19.225 9.552 19 9 19C8.448 19 7.947 19.225 7.586 19.586C7.225 19.947 7 20.448 7 21C7 21.552 7.225 22.053 7.586 22.414C7.947 22.775 8.448 23 9 23C9.552 23 10.053 22.775 10.414 22.414C10.775 22.053 11 21.552 11 21ZM22 21C22 20.448 21.775 19.947 21.414 19.586C21.053 19.225 20.552 19 20 19C19.448 19 18.947 19.225 18.586 19.586C18.225 19.947 18 20.448 18 21C18 21.552 18.225 22.053 18.586 22.414C18.947 22.775 19.448 23 20 23C20.552 23 21.053 22.775 21.414 22.414C21.775 22.053 22 21.552 22 21ZM7.221 7H21.791L20.42 14.191C20.374 14.419 20.254 14.616 20.088 14.759C19.908 14.915 19.675 15.005 19.4 15H9.666C9.434 15.003 9.215 14.929 9.04 14.797C8.85 14.654 8.711 14.446 8.661 14.194L7.221 7ZM1 2H4.18L5.028 6.239C5.136 6.676 5.53 7 6 7H7.221L6.821 5H6C5.448 5 5 5.448 5 6C5 6.053 5.004 6.105 5.012 6.155C5.016 6.183 5.021 6.212 5.028 6.239L6.7 14.586C6.849 15.337 7.27 15.969 7.84 16.397C8.361 16.789 9.01 17.01 9.694 17H19.4C20.148 17.015 20.855 16.739 21.395 16.273C21.889 15.847 22.243 15.26 22.38 14.59L23.982 6.188C24.085 5.645 23.73 5.122 23.187 5.018C23.122 5.005 23.057 4.999 23 5H6.821L5.98 0.804C5.886 0.342 5.483 0 5 0H1C0.448 0 0 0.448 0 1C0 1.552 0.448 2 1 2Z" fill="black"/>
</svg>
