<svg width="24" height="24" viewBox="0 0 24 24" fill="none" xmlns="http://www.w3.org/2000/svg">
<path d="M4.70701 20.707L20 5.414V8C20 8.552 20.448 9 21 9C21.552 9 22 8.552 22 8V3C22 2.864 21.973 2.735 21.924 2.617C21.875 2.499 21.803 2.389 21.708 2.294C21.707 2.293 21.707 2.293 21.706 2.292C21.614 2.2 21.504 2.126 21.383 2.076C21.265 2.027 21.136 2 21 2H16C15.448 2 15 2.448 15 3C15 3.552 15.448 4 16 4H18.586L3.29301 19.293C2.90201 19.684 2.90201 20.317 3.29301 20.707C3.68401 21.097 4.31701 21.098 4.70701 20.707ZM14.293 15.707L18.586 20H16C15.448 20 15 20.448 15 21C15 21.552 15.448 22 16 22H21C21.13 22 21.261 21.975 21.383 21.924C21.505 21.873 21.615 21.799 21.707 21.707C21.803 21.611 21.875 21.501 21.924 21.383C21.973 21.265 22 21.136 22 21V16C22 15.448 21.552 15 21 15C20.448 15 20 15.448 20 16V18.586L15.707 14.293C15.316 13.902 14.683 13.902 14.293 14.293C13.903 14.684 13.902 15.317 14.293 15.707ZM3.29301 4.707L8.29301 9.707C8.68401 10.098 9.31701 10.098 9.70701 9.707C10.097 9.316 10.098 8.683 9.70701 8.293L4.70701 3.293C4.31601 2.902 3.68301 2.902 3.29301 3.293C2.90301 3.684 2.90201 4.317 3.29301 4.707Z" fill="black"/>
</svg>
