<svg width="24" height="24" viewBox="0 0 24 24" fill="none" xmlns="http://www.w3.org/2000/svg">
<path d="M18.375 20.7809C18.545 20.9169 18.763 20.9999 19 20.9999C19.552 20.9999 20 20.5519 20 19.9999V3.99991C20.001 3.78191 19.929 3.56091 19.781 3.37491C19.436 2.94391 18.807 2.87391 18.375 3.21891L8.375 11.2189C8.322 11.2609 8.267 11.3139 8.219 11.3749C7.874 11.8059 7.944 12.4359 8.375 12.7809L18.375 20.7809ZM18 17.9189L10.601 11.9999L18 6.08091V17.9189ZM6 18.9999V4.99991C6 4.44791 5.552 3.99991 5 3.99991C4.448 3.99991 4 4.44791 4 4.99991V18.9999C4 19.5519 4.448 19.9999 5 19.9999C5.552 19.9999 6 19.5519 6 18.9999Z" fill="black"/>
</svg>
