<svg width="24" height="24" viewBox="0 0 24 24" fill="none" xmlns="http://www.w3.org/2000/svg">
<path d="M5.62501 3.219C5.45501 3.083 5.23701 3 5.00001 3C4.44801 3 4.00001 3.448 4.00001 4V20C3.99901 20.218 4.07101 20.439 4.21901 20.625C4.56401 21.056 5.19301 21.126 5.62501 20.781L15.625 12.781C15.678 12.739 15.733 12.686 15.781 12.625C16.126 12.194 16.056 11.564 15.625 11.219L5.62501 3.219ZM6.00001 6.081L13.399 12L6.00001 17.919V6.081ZM18 5V19C18 19.552 18.448 20 19 20C19.552 20 20 19.552 20 19V5C20 4.448 19.552 4 19 4C18.448 4 18 4.448 18 5Z" fill="black"/>
</svg>
