<svg width="24" height="24" viewBox="0 0 24 24" fill="none" xmlns="http://www.w3.org/2000/svg">
<path d="M14.5 11C15.19 11 15.816 10.72 16.268 10.268C16.72 9.816 17 9.19 17 8.5V3.5C17 2.81 16.72 2.184 16.268 1.732C15.816 1.28 15.19 1 14.5 1C13.81 1 13.184 1.28 12.732 1.732C12.28 2.184 12 2.81 12 3.5V8.5C12 9.19 12.28 9.816 12.732 10.268C13.184 10.72 13.81 11 14.5 11ZM14.5 9C14.36 9 14.236 8.945 14.146 8.854C14.056 8.763 14 8.64 14 8.5V3.5C14 3.36 14.055 3.236 14.146 3.146C14.237 3.056 14.36 3 14.5 3C14.64 3 14.764 3.055 14.854 3.146C14.944 3.237 15 3.36 15 3.5V8.5C15 8.64 14.945 8.764 14.854 8.854C14.763 8.944 14.64 9 14.5 9ZM20.5 11C21.19 11 21.816 10.72 22.268 10.268C22.72 9.816 23 9.19 23 8.5C23 7.81 22.72 7.184 22.268 6.732C21.816 6.28 21.19 6 20.5 6C19.81 6 19.184 6.28 18.732 6.732C18.28 7.184 18 7.81 18 8.5V10C18 10.552 18.448 11 19 11H20.5ZM20.5 9H20V8.5C20 8.36 20.055 8.236 20.146 8.146C20.237 8.056 20.36 8 20.5 8C20.64 8 20.764 8.055 20.854 8.146C20.944 8.237 21 8.36 21 8.5C21 8.64 20.945 8.764 20.854 8.854C20.763 8.944 20.64 9 20.5 9ZM9.5 13C8.81 13 8.184 13.28 7.732 13.732C7.28 14.184 7 14.81 7 15.5V20.5C7 21.19 7.28 21.816 7.732 22.268C8.184 22.72 8.81 23 9.5 23C10.19 23 10.816 22.72 11.268 22.268C11.72 21.816 12 21.19 12 20.5V15.5C12 14.81 11.72 14.184 11.268 13.732C10.816 13.28 10.19 13 9.5 13ZM9.5 15C9.64 15 9.764 15.055 9.854 15.146C9.944 15.237 10 15.36 10 15.5V20.5C10 20.64 9.945 20.764 9.854 20.854C9.763 20.944 9.64 21 9.5 21C9.36 21 9.236 20.945 9.146 20.854C9.056 20.763 9 20.64 9 20.5V15.5C9 15.36 9.055 15.236 9.146 15.146C9.237 15.056 9.36 15 9.5 15ZM3.5 13C2.81 13 2.184 13.28 1.732 13.732C1.28 14.184 1 14.81 1 15.5C1 16.19 1.28 16.816 1.732 17.268C2.184 17.72 2.81 18 3.5 18C4.19 18 4.816 17.72 5.268 17.268C5.72 16.816 6 16.19 6 15.5V14C6 13.448 5.552 13 5 13H3.5ZM3.5 15H4V15.5C4 15.64 3.945 15.764 3.854 15.854C3.763 15.944 3.64 16 3.5 16C3.36 16 3.236 15.945 3.146 15.854C3.056 15.763 3 15.64 3 15.5C3 15.36 3.055 15.236 3.146 15.146C3.237 15.056 3.36 15 3.5 15ZM13 14.5C13 15.19 13.28 15.816 13.732 16.268C14.184 16.72 14.81 17 15.5 17H20.5C21.19 17 21.816 16.72 22.268 16.268C22.72 15.816 23 15.19 23 14.5C23 13.81 22.72 13.184 22.268 12.732C21.816 12.28 21.19 12 20.5 12H15.5C14.81 12 14.184 12.28 13.732 12.732C13.28 13.184 13 13.81 13 14.5ZM15 14.5C15 14.36 15.055 14.236 15.146 14.146C15.237 14.056 15.36 14 15.5 14H20.5C20.64 14 20.764 14.055 20.854 14.146C20.944 14.237 21 14.36 21 14.5C21 14.64 20.945 14.764 20.854 14.854C20.763 14.944 20.64 15 20.5 15H15.5C15.36 15 15.236 14.945 15.146 14.854C15.056 14.763 15 14.64 15 14.5ZM15.5 20C15.64 20 15.764 20.055 15.854 20.146C15.944 20.237 16 20.36 16 20.5C16 20.64 15.945 20.764 15.854 20.854C15.763 20.944 15.64 21 15.5 21C15.36 21 15.236 20.945 15.146 20.854C15.056 20.763 15 20.64 15 20.5V20H15.5ZM15.5 18H14C13.448 18 13 18.448 13 19V20.5C13 21.19 13.28 21.816 13.732 22.268C14.184 22.72 14.81 23 15.5 23C16.19 23 16.816 22.72 17.268 22.268C17.72 21.816 18 21.19 18 20.5C18 19.81 17.72 19.184 17.268 18.732C16.816 18.28 16.19 18 15.5 18ZM9 9.5C9 9.64 8.945 9.764 8.854 9.854C8.763 9.944 8.64 10 8.5 10H3.5C3.36 10 3.236 9.945 3.146 9.854C3.056 9.763 3 9.64 3 9.5C3 9.36 3.055 9.236 3.146 9.146C3.237 9.056 3.36 9 3.5 9H8.5C8.64 9 8.764 9.055 8.854 9.146C8.944 9.237 9 9.36 9 9.5ZM11 9.5C11 8.81 10.72 8.184 10.268 7.732C9.816 7.28 9.19 7 8.5 7H3.5C2.81 7 2.184 7.28 1.732 7.732C1.28 8.184 1 8.81 1 9.5C1 10.19 1.28 10.816 1.732 11.268C2.184 11.72 2.81 12 3.5 12H8.5C9.19 12 9.816 11.72 10.268 11.268C10.72 10.816 11 10.19 11 9.5ZM8.5 4C8.36 4 8.236 3.945 8.146 3.854C8.056 3.763 8 3.64 8 3.5C8 3.36 8.055 3.236 8.146 3.146C8.237 3.056 8.36 3 8.5 3C8.64 3 8.764 3.055 8.854 3.146C8.944 3.237 9 3.36 9 3.5V4H8.5ZM8.5 6H10C10.552 6 11 5.552 11 5V3.5C11 2.81 10.72 2.184 10.268 1.732C9.816 1.28 9.19 1 8.5 1C7.81 1 7.184 1.28 6.732 1.732C6.28 2.184 6 2.81 6 3.5C6 4.19 6.28 4.816 6.732 5.268C7.184 5.72 7.81 6 8.5 6Z" fill="black"/>
</svg>
