<svg width="24" height="24" viewBox="0 0 24 24" fill="none" xmlns="http://www.w3.org/2000/svg">
<path d="M23 12C23 8.963 21.768 6.211 19.778 4.222C17.788 2.233 15.037 1 12 1C8.963 1 6.211 2.232 4.222 4.222C2.233 6.212 1 8.963 1 12C1 15.037 2.232 17.789 4.222 19.778C6.212 21.767 8.963 23 12 23C15.037 23 17.789 21.768 19.778 19.778C21.767 17.788 23 15.037 23 12ZM19.032 17.618L6.382 4.968C7.922 3.736 9.875 3 12 3C14.486 3 16.734 4.006 18.364 5.636C19.994 7.266 21 9.514 21 12C21 14.125 20.264 16.078 19.032 17.618ZM4.968 6.382L17.618 19.032C16.078 20.264 14.125 21 12 21C9.514 21 7.266 19.994 5.636 18.364C4.006 16.734 3 14.486 3 12C3 9.875 3.736 7.922 4.968 6.382Z" fill="black"/>
</svg>
