<svg width="24" height="24" viewBox="0 0 24 24" fill="none" xmlns="http://www.w3.org/2000/svg">
<path d="M5 10V3C5 2.448 4.552 2 4 2C3.448 2 3 2.448 3 3V10C3 10.552 3.448 11 4 11C4.552 11 5 10.552 5 10ZM13 21V12C13 11.448 12.552 11 12 11C11.448 11 11 11.448 11 12V21C11 21.552 11.448 22 12 22C12.552 22 13 21.552 13 21ZM21 12V3C21 2.448 20.552 2 20 2C19.448 2 19 2.448 19 3V12C19 12.552 19.448 13 20 13C20.552 13 21 12.552 21 12ZM1 15H3V21C3 21.552 3.448 22 4 22C4.552 22 5 21.552 5 21V15H7C7.552 15 8 14.552 8 14C8 13.448 7.552 13 7 13H1C0.448 13 0 13.448 0 14C0 14.552 0.448 15 1 15ZM9 9H15C15.552 9 16 8.552 16 8C16 7.448 15.552 7 15 7H13V3C13 2.448 12.552 2 12 2C11.448 2 11 2.448 11 3V7H9C8.448 7 8 7.448 8 8C8 8.552 8.448 9 9 9ZM17 17H19V21C19 21.552 19.448 22 20 22C20.552 22 21 21.552 21 21V17H23C23.552 17 24 16.552 24 16C24 15.448 23.552 15 23 15H17C16.448 15 16 15.448 16 16C16 16.552 16.448 17 17 17Z" fill="black"/>
</svg>
