<svg width="24" height="24" viewBox="0 0 24 24" fill="none" xmlns="http://www.w3.org/2000/svg">
<path d="M7 1C6.172 1 5.42 1.337 4.879 1.879C4.338 2.421 4 3.172 4 4V20C4 20.828 4.337 21.58 4.879 22.121C5.421 22.662 6.172 23 7 23H17C17.828 23 18.58 22.663 19.121 22.121C19.662 21.579 20 20.828 20 20V4C20 3.172 19.663 2.42 19.121 1.879C18.579 1.338 17.828 1 17 1H7ZM7 3H17C17.276 3 17.525 3.111 17.707 3.293C17.889 3.475 18 3.724 18 4V20C18 20.276 17.889 20.525 17.707 20.707C17.525 20.889 17.276 21 17 21H7C6.724 21 6.475 20.889 6.293 20.707C6.111 20.525 6 20.276 6 20V4C6 3.724 6.111 3.475 6.293 3.293C6.475 3.111 6.724 3 7 3ZM12 19C12.552 19 13 18.552 13 18C13 17.448 12.552 17 12 17C11.448 17 11 17.448 11 18C11 18.552 11.448 19 12 19Z" fill="black"/>
</svg>
