<svg width="24" height="24" viewBox="0 0 24 24" fill="none" xmlns="http://www.w3.org/2000/svg">
<g clip-path="url(#clip0_2611_504)">
<path d="M18 12C18 10.343 17.327 8.842 16.243 7.757C15.159 6.672 13.657 6 12 6C10.343 6 8.842 6.673 7.757 7.757C6.672 8.841 6 10.343 6 12C6 13.657 6.673 15.158 7.757 16.243C8.841 17.328 10.343 18 12 18C13.657 18 15.158 17.327 16.243 16.243C17.328 15.159 18 13.657 18 12ZM16 12C16 13.105 15.553 14.103 14.828 14.828C14.103 15.553 13.105 16 12 16C10.895 16 9.897 15.553 9.172 14.828C8.447 14.103 8 13.105 8 12C8 10.895 8.447 9.897 9.172 9.172C9.897 8.447 10.895 8 12 8C13.105 8 14.103 8.447 14.828 9.172C15.553 9.897 16 10.895 16 12ZM11 1V3C11 3.552 11.448 4 12 4C12.552 4 13 3.552 13 3V1C13 0.448 12.552 0 12 0C11.448 0 11 0.448 11 1ZM11 21V23C11 23.552 11.448 24 12 24C12.552 24 13 23.552 13 23V21C13 20.448 12.552 20 12 20C11.448 20 11 20.448 11 21ZM3.513 4.927L4.933 6.347C5.324 6.738 5.957 6.738 6.347 6.347C6.737 5.956 6.738 5.323 6.347 4.933L4.927 3.513C4.536 3.122 3.903 3.122 3.513 3.513C3.123 3.904 3.122 4.537 3.513 4.927ZM17.653 19.067L19.073 20.487C19.464 20.878 20.097 20.878 20.487 20.487C20.877 20.096 20.878 19.463 20.487 19.073L19.067 17.653C18.676 17.262 18.043 17.262 17.653 17.653C17.263 18.044 17.262 18.677 17.653 19.067ZM1 13H3C3.552 13 4 12.552 4 12C4 11.448 3.552 11 3 11H1C0.448 11 0 11.448 0 12C0 12.552 0.448 13 1 13ZM21 13H23C23.552 13 24 12.552 24 12C24 11.448 23.552 11 23 11H21C20.448 11 20 11.448 20 12C20 12.552 20.448 13 21 13ZM4.927 20.487L6.347 19.067C6.738 18.676 6.738 18.043 6.347 17.653C5.956 17.263 5.323 17.262 4.933 17.653L3.513 19.073C3.122 19.464 3.122 20.097 3.513 20.487C3.904 20.877 4.537 20.878 4.927 20.487ZM19.067 6.347L20.487 4.927C20.878 4.536 20.878 3.903 20.487 3.513C20.096 3.123 19.463 3.122 19.073 3.513L17.653 4.933C17.262 5.324 17.262 5.957 17.653 6.347C18.044 6.737 18.677 6.738 19.067 6.347Z" fill="black"/>
</g>
<defs>
<clipPath id="clip0_2611_504">
<rect width="24" height="24" fill="white"/>
</clipPath>
</defs>
</svg>
