<svg width="24" height="24" viewBox="0 0 24 24" fill="none" xmlns="http://www.w3.org/2000/svg">
<path d="M18 18.0002C18 16.3432 17.327 14.8422 16.243 13.7572C15.159 12.6722 13.657 12.0002 12 12.0002C10.343 12.0002 8.842 12.6732 7.757 13.7572C6.672 14.8412 6 16.3432 6 18.0002C6 18.5522 6.448 19.0002 7 19.0002C7.552 19.0002 8 18.5522 8 18.0002C8 16.8952 8.447 15.8972 9.172 15.1722C9.897 14.4472 10.895 14.0002 12 14.0002C13.105 14.0002 14.103 14.4472 14.828 15.1722C15.553 15.8972 16 16.8952 16 18.0002C16 18.5522 16.448 19.0002 17 19.0002C17.552 19.0002 18 18.5522 18 18.0002ZM3.513 10.9272L4.933 12.3472C5.324 12.7382 5.957 12.7382 6.347 12.3472C6.737 11.9562 6.738 11.3232 6.347 10.9332L4.927 9.51324C4.536 9.12224 3.903 9.12224 3.513 9.51324C3.123 9.90424 3.122 10.5372 3.513 10.9272ZM1 19.0002H3C3.552 19.0002 4 18.5522 4 18.0002C4 17.4482 3.552 17.0002 3 17.0002H1C0.448 17.0002 0 17.4482 0 18.0002C0 18.5522 0.448 19.0002 1 19.0002ZM21 19.0002H23C23.552 19.0002 24 18.5522 24 18.0002C24 17.4482 23.552 17.0002 23 17.0002H21C20.448 17.0002 20 17.4482 20 18.0002C20 18.5522 20.448 19.0002 21 19.0002ZM19.067 12.3472L20.487 10.9272C20.878 10.5362 20.878 9.90324 20.487 9.51324C20.096 9.12324 19.463 9.12224 19.073 9.51324L17.653 10.9332C17.262 11.3242 17.262 11.9572 17.653 12.3472C18.044 12.7372 18.677 12.7382 19.067 12.3472ZM23 21.0002H1C0.448 21.0002 0 21.4482 0 22.0002C0 22.5522 0.448 23.0002 1 23.0002H23C23.552 23.0002 24 22.5522 24 22.0002C24 21.4482 23.552 21.0002 23 21.0002ZM8.707 6.70724L11 4.41424V9.00024C11 9.55224 11.448 10.0002 12 10.0002C12.552 10.0002 13 9.55224 13 9.00024V4.41424L15.293 6.70724C15.684 7.09824 16.317 7.09824 16.707 6.70724C17.097 6.31624 17.098 5.68324 16.707 5.29324L12.707 1.29324C12.615 1.20124 12.505 1.12724 12.383 1.07624C12.138 0.975238 11.862 0.975238 11.617 1.07624C11.499 1.12524 11.389 1.19724 11.293 1.29324L7.293 5.29324C6.902 5.68424 6.902 6.31724 7.293 6.70724C7.684 7.09724 8.317 7.09824 8.707 6.70724Z" fill="black"/>
</svg>
