<svg width="24" height="24" viewBox="0 0 24 24" fill="none" xmlns="http://www.w3.org/2000/svg">
<path d="M18 18C18 16.343 17.327 14.842 16.243 13.757C15.159 12.672 13.657 12 12 12C10.343 12 8.842 12.673 7.757 13.757C6.672 14.841 6 16.343 6 18C6 18.552 6.448 19 7 19C7.552 19 8 18.552 8 18C8 16.895 8.447 15.897 9.172 15.172C9.897 14.447 10.895 14 12 14C13.105 14 14.103 14.447 14.828 15.172C15.553 15.897 16 16.895 16 18C16 18.552 16.448 19 17 19C17.552 19 18 18.552 18 18ZM3.513 10.927L4.933 12.347C5.324 12.738 5.957 12.738 6.347 12.347C6.737 11.956 6.738 11.323 6.347 10.933L4.927 9.513C4.536 9.122 3.903 9.122 3.513 9.513C3.123 9.904 3.122 10.537 3.513 10.927ZM1 19H3C3.552 19 4 18.552 4 18C4 17.448 3.552 17 3 17H1C0.448 17 0 17.448 0 18C0 18.552 0.448 19 1 19ZM21 19H23C23.552 19 24 18.552 24 18C24 17.448 23.552 17 23 17H21C20.448 17 20 17.448 20 18C20 18.552 20.448 19 21 19ZM19.067 12.347L20.487 10.927C20.878 10.536 20.878 9.903 20.487 9.513C20.096 9.123 19.463 9.122 19.073 9.513L17.653 10.933C17.262 11.324 17.262 11.957 17.653 12.347C18.044 12.737 18.677 12.738 19.067 12.347ZM23 21H1C0.448 21 0 21.448 0 22C0 22.552 0.448 23 1 23H23C23.552 23 24 22.552 24 22C24 21.448 23.552 21 23 21ZM15.293 4.293L13 6.586V2C13 1.448 12.552 1 12 1C11.448 1 11 1.448 11 2V6.586L8.707 4.293C8.316 3.902 7.683 3.902 7.293 4.293C6.903 4.684 6.902 5.317 7.293 5.707L11.293 9.707C11.389 9.803 11.499 9.875 11.617 9.924C11.735 9.973 11.864 10 12 10C12.136 10 12.265 9.973 12.383 9.924C12.501 9.875 12.611 9.803 12.707 9.707L16.707 5.707C17.098 5.316 17.098 4.683 16.707 4.293C16.316 3.903 15.683 3.902 15.293 4.293Z" fill="black"/>
</svg>
