<svg width="24" height="24" viewBox="0 0 24 24" fill="none" xmlns="http://www.w3.org/2000/svg">
<path d="M6 1C5.172 1 4.42 1.337 3.879 1.879C3.338 2.421 3 3.172 3 4V20C3 20.828 3.337 21.58 3.879 22.121C4.421 22.662 5.172 23 6 23H18C18.828 23 19.58 22.663 20.121 22.121C20.662 21.579 21 20.828 21 20V4C21 3.172 20.663 2.42 20.121 1.879C19.579 1.338 18.828 1 18 1H6ZM6 3H18C18.276 3 18.525 3.111 18.707 3.293C18.889 3.475 19 3.724 19 4V20C19 20.276 18.889 20.525 18.707 20.707C18.525 20.889 18.276 21 18 21H6C5.724 21 5.475 20.889 5.293 20.707C5.111 20.525 5 20.276 5 20V4C5 3.724 5.111 3.475 5.293 3.293C5.475 3.111 5.724 3 6 3ZM12 19C12.552 19 13 18.552 13 18C13 17.448 12.552 17 12 17C11.448 17 11 17.448 11 18C11 18.552 11.448 19 12 19Z" fill="black"/>
</svg>
