<svg width="24" height="24" viewBox="0 0 24 24" fill="none" xmlns="http://www.w3.org/2000/svg">
<path d="M21.297 14.117C21.88 13.531 22.171 12.765 22.171 12.002C22.172 11.238 21.881 10.47 21.297 9.882L12.707 1.292C12.526 1.112 12.276 1 12 1H2C1.448 1 1 1.448 1 2V12C1 12.256 1.098 12.512 1.293 12.708L9.885 21.29C10.471 21.875 11.241 22.168 12.007 22.167C12.773 22.166 13.543 21.873 14.127 21.288L21.297 14.117ZM19.883 12.703L12.713 19.873C12.517 20.069 12.263 20.167 12.006 20.167C11.749 20.167 11.494 20.07 11.299 19.875L3 11.585V3H11.586L19.883 11.297C20.075 11.49 20.172 11.744 20.172 12.001C20.172 12.258 20.075 12.51 19.883 12.703ZM7 8C7.552 8 8 7.552 8 7C8 6.448 7.552 6 7 6C6.448 6 6 6.448 6 7C6 7.552 6.448 8 7 8Z" fill="black"/>
</svg>
