<svg width="24" height="24" viewBox="0 0 24 24" fill="none" xmlns="http://www.w3.org/2000/svg">
<path d="M23 12C23 8.963 21.768 6.211 19.778 4.222C17.788 2.233 15.037 1 12 1C8.963 1 6.211 2.232 4.222 4.222C2.233 6.212 1 8.963 1 12C1 15.037 2.232 17.789 4.222 19.778C6.212 21.767 8.963 23 12 23C15.037 23 17.789 21.768 19.778 19.778C21.767 17.788 23 15.037 23 12ZM21 12C21 14.486 19.994 16.734 18.364 18.364C16.734 19.994 14.486 21 12 21C9.514 21 7.266 19.994 5.636 18.364C4.006 16.734 3 14.486 3 12C3 9.514 4.006 7.266 5.636 5.636C7.266 4.006 9.514 3 12 3C14.486 3 16.734 4.006 18.364 5.636C19.994 7.266 21 9.514 21 12ZM19 12C19 10.067 18.215 8.316 16.95 7.05C15.685 5.784 13.933 5 12 5C10.067 5 8.316 5.785 7.05 7.05C5.784 8.315 5 10.067 5 12C5 13.933 5.785 15.684 7.05 16.95C8.315 18.216 10.067 19 12 19C13.933 19 15.684 18.215 16.95 16.95C18.216 15.685 19 13.933 19 12ZM17 12C17 13.381 16.441 14.63 15.536 15.536C14.631 16.442 13.381 17 12 17C10.619 17 9.37 16.441 8.464 15.536C7.558 14.631 7 13.381 7 12C7 10.619 7.559 9.37 8.464 8.464C9.369 7.558 10.619 7 12 7C13.381 7 14.63 7.559 15.536 8.464C16.442 9.369 17 10.619 17 12ZM15 12C15 11.172 14.663 10.42 14.121 9.879C13.579 9.338 12.828 9 12 9C11.172 9 10.42 9.337 9.879 9.879C9.338 10.421 9 11.172 9 12C9 12.828 9.337 13.58 9.879 14.121C10.421 14.662 11.172 15 12 15C12.828 15 13.58 14.663 14.121 14.121C14.662 13.579 15 12.828 15 12ZM13 12C13 12.276 12.889 12.525 12.707 12.707C12.525 12.889 12.276 13 12 13C11.724 13 11.475 12.889 11.293 12.707C11.111 12.525 11 12.276 11 12C11 11.724 11.111 11.475 11.293 11.293C11.475 11.111 11.724 11 12 11C12.276 11 12.525 11.111 12.707 11.293C12.889 11.475 13 11.724 13 12Z" fill="black"/>
</svg>
