<svg width="24" height="24" viewBox="0 0 24 24" fill="none" xmlns="http://www.w3.org/2000/svg">
<path d="M4.70701 17.7068L10.707 11.7068C11.098 11.3158 11.098 10.6828 10.707 10.2928L4.70701 4.29276C4.31601 3.90176 3.68301 3.90176 3.29301 4.29276C2.90301 4.68376 2.90201 5.31676 3.29301 5.70676L8.58601 10.9998L3.29301 16.2928C2.90201 16.6838 2.90201 17.3168 3.29301 17.7068C3.68401 18.0968 4.31701 18.0978 4.70701 17.7068ZM12 19.9998H20C20.552 19.9998 21 19.5518 21 18.9998C21 18.4478 20.552 17.9998 20 17.9998H12C11.448 17.9998 11 18.4478 11 18.9998C11 19.5518 11.448 19.9998 12 19.9998Z" fill="black"/>
</svg>
