<svg width="24" height="24" viewBox="0 0 24 24" fill="none" xmlns="http://www.w3.org/2000/svg">
<g clip-path="url(#clip0_2611_518)">
<path d="M13 14.76C13.002 15.089 13.161 15.406 13.453 15.597C13.802 15.825 14.139 16.151 14.411 16.557C14.948 17.361 15.109 18.304 14.934 19.184C14.759 20.064 14.25 20.874 13.446 21.411C12.642 21.948 11.699 22.109 10.819 21.934C9.93899 21.759 9.12899 21.25 8.59199 20.446C8.05499 19.642 7.89399 18.699 8.06899 17.819C8.24399 16.939 8.75299 16.129 9.55699 15.592C9.82499 15.41 9.99999 15.105 9.99999 14.76V3.5C9.99999 3.086 10.167 2.712 10.439 2.439C10.711 2.166 11.086 2 11.5 2C11.914 2 12.288 2.167 12.561 2.439C12.834 2.711 13 3.086 13 3.5V14.76ZM15 14.256V3.5C15 2.534 14.607 1.657 13.975 1.025C13.343 0.393 12.466 0 11.5 0C10.534 0 9.65699 0.393 9.02499 1.025C8.39299 1.657 7.99999 2.534 7.99999 3.5V14.259C6.99299 15.088 6.34599 16.219 6.10599 17.429C5.83199 18.808 6.08399 20.295 6.92699 21.558C7.76999 22.821 9.04799 23.622 10.427 23.897C11.806 24.172 13.293 23.919 14.556 23.076C15.819 22.233 16.62 20.955 16.895 19.576C17.17 18.197 16.917 16.71 16.074 15.447C15.767 14.988 15.401 14.587 15.001 14.257L15 14.256Z" fill="black"/>
</g>
<defs>
<clipPath id="clip0_2611_518">
<rect width="24" height="24" fill="white"/>
</clipPath>
</defs>
</svg>
