<svg width="24" height="24" viewBox="0 0 24 24" fill="none" xmlns="http://www.w3.org/2000/svg">
<path d="M10.9999 15.0002C10.9999 14.4482 10.5519 14.0002 9.99995 14.0002H4.32095C4.25595 13.9982 4.16795 13.9892 4.16795 13.9892C3.89495 13.9482 3.66595 13.8012 3.51295 13.5932C3.35995 13.3852 3.28795 13.1232 3.32895 12.8512L4.70895 3.8532C4.74595 3.6142 4.86495 3.4052 5.03395 3.2532C5.21295 3.0922 5.44895 2.9972 5.71995 3.0002H15.9999V12.7882L12.3919 20.9062C12.0849 20.8082 11.8099 20.6382 11.5859 20.4142C11.2229 20.0512 10.9999 19.5532 10.9999 19.0002V15.0002ZM8.99995 16.0002V19.0002C8.99995 20.1042 9.44895 21.1062 10.1719 21.8282C10.8949 22.5502 11.8959 23.0002 12.9999 23.0002C13.4049 23.0002 13.7539 22.7592 13.9139 22.4062L17.9139 13.4062C17.9739 13.2722 18.0009 13.1312 17.9999 13.0002V2.0002C17.9999 1.4482 17.5519 1.0002 16.9999 1.0002H5.71995C4.95295 0.991204 4.23795 1.2812 3.69895 1.7632C3.19395 2.2152 2.84195 2.8392 2.73195 3.5462L1.35195 12.5482C1.22695 13.3682 1.44795 14.1622 1.90195 14.7792C2.35595 15.3962 3.04895 15.8422 3.86695 15.9662C4.03195 15.9912 4.19995 16.0032 4.35895 16.0002H8.99995ZM16.9999 3.0002H19.6699C20.0309 2.9942 20.3439 3.1192 20.5819 3.3322C20.7949 3.5232 20.9459 3.7822 20.9999 4.0782V10.8652C20.9629 11.2052 20.7919 11.4952 20.5449 11.6982C20.3099 11.8922 20.0079 12.0042 19.6839 11.9992L16.9999 12.0002C16.4479 12.0002 15.9999 12.4482 15.9999 13.0002C15.9999 13.5522 16.4479 14.0002 16.9999 14.0002H19.6559C20.4659 14.0122 21.2249 13.7302 21.8159 13.2442C22.4379 12.7332 22.8749 11.9932 22.9919 11.1342C22.9969 11.0942 22.9999 11.0472 22.9999 11.0002V4.0002C22.9999 3.9582 22.9969 3.9112 22.9909 3.8632C22.8799 3.0602 22.4859 2.3532 21.9159 1.8432C21.3159 1.3062 20.5189 0.985204 19.6699 1.0012H16.9999C16.4479 1.0012 15.9999 1.4492 15.9999 2.0012C15.9999 2.5532 16.4479 3.0002 16.9999 3.0002Z" fill="black"/>
</svg>
