<svg width="24" height="24" viewBox="0 0 24 24" fill="none" xmlns="http://www.w3.org/2000/svg">
<path d="M8 4C5.791 4 3.79 4.897 2.343 6.343C0.896 7.789 0 9.791 0 12C0 14.209 0.897 16.21 2.343 17.657C3.789 19.104 5.791 20 8 20H16C18.209 20 20.21 19.103 21.657 17.657C23.104 16.211 24 14.209 24 12C24 9.791 23.103 7.79 21.657 6.343C20.211 4.896 18.209 4 16 4H8ZM8 6H16C17.657 6 19.156 6.67 20.243 7.757C21.33 8.844 22 10.343 22 12C22 13.657 21.33 15.156 20.243 16.243C19.156 17.33 17.657 18 16 18H8C6.343 18 4.844 17.33 3.757 16.243C2.67 15.156 2 13.657 2 12C2 10.343 2.67 8.844 3.757 7.757C4.844 6.67 6.343 6 8 6ZM20 12C20 10.896 19.551 9.894 18.828 9.172C18.105 8.45 17.104 8 16 8C14.896 8 13.894 8.449 13.172 9.172C12.45 9.895 12 10.896 12 12C12 13.104 12.449 14.106 13.172 14.828C13.895 15.55 14.896 16 16 16C17.104 16 18.106 15.551 18.828 14.828C19.55 14.105 20 13.104 20 12ZM18 12C18 12.553 17.777 13.051 17.414 13.414C17.051 13.777 16.553 14 16 14C15.447 14 14.949 13.777 14.586 13.414C14.223 13.051 14 12.553 14 12C14 11.447 14.223 10.949 14.586 10.586C14.949 10.223 15.447 10 16 10C16.553 10 17.051 10.223 17.414 10.586C17.777 10.949 18 11.447 18 12Z" fill="black"/>
</svg>
