<svg width="24" height="24" viewBox="0 0 24 24" fill="none" xmlns="http://www.w3.org/2000/svg">
<path d="M15.407 6.9928L19.177 3.2368C19.258 3.1578 19.329 3.0568 19.382 2.9408C19.609 2.4368 19.384 1.8448 18.881 1.6188C18.618 1.5008 18.349 1.3988 18.074 1.3128C16.492 0.820797 14.734 0.884797 13.111 1.6198C11.35 2.4168 10.078 3.8538 9.44702 5.5288C8.89302 6.9958 8.83002 8.6528 9.36002 10.2258L2.91302 16.6728C2.30402 17.2818 1.99902 18.0828 1.99902 18.8798C1.99902 19.6768 2.30402 20.4778 2.91302 21.0868C3.52202 21.6958 4.32302 22.0008 5.12002 22.0008C5.91702 22.0008 6.71802 21.6958 7.32702 21.0868L13.775 14.6388C13.825 14.6558 13.875 14.6718 13.926 14.6878C15.508 15.1798 17.266 15.1158 18.889 14.3808C20.65 13.5838 21.922 12.1468 22.553 10.4718C23.184 8.7968 23.177 6.8778 22.38 5.1168C22.335 5.0138 22.266 4.9118 22.176 4.8218C21.785 4.4308 21.152 4.4308 20.762 4.8218L17.006 8.5918L15.407 6.9928ZM13.986 5.5998C13.603 5.9898 13.413 6.4998 13.414 7.0058C13.416 7.5078 13.606 8.0128 13.985 8.3998L15.592 10.0078C15.99 10.3978 16.499 10.5878 17.005 10.5868C17.507 10.5848 18.012 10.3948 18.399 10.0158L20.973 7.4418C21.063 8.2378 20.958 9.0348 20.682 9.7678C20.23 10.9668 19.323 11.9898 18.065 12.5598C16.905 13.0848 15.653 13.1308 14.52 12.7788C14.323 12.7178 14.129 12.6438 13.941 12.5588C13.554 12.3848 13.114 12.4768 12.823 12.7638L5.91302 19.6738C5.69402 19.8928 5.40902 20.0018 5.12002 20.0018C4.83102 20.0018 4.54602 19.8928 4.32702 19.6738C4.10802 19.4548 3.99902 19.1698 3.99902 18.8808C3.99902 18.5918 4.10802 18.3068 4.32702 18.0878L11.237 11.1778C11.538 10.8768 11.607 10.4318 11.441 10.0588C10.872 8.8008 10.866 7.4328 11.318 6.2338C11.77 5.0348 12.677 4.0118 13.935 3.4418C14.787 3.0558 15.69 2.9288 16.558 3.0288L13.986 5.5998Z" fill="black"/>
</svg>
