<svg width="24" height="24" viewBox="0 0 24 24" fill="none" xmlns="http://www.w3.org/2000/svg">
<g clip-path="url(#clip0_2611_536)">
<path d="M17 18.9998H23C23.136 18.9998 23.265 18.9728 23.383 18.9238C23.501 18.8748 23.611 18.8028 23.707 18.7068C23.803 18.6108 23.875 18.5008 23.924 18.3828C23.973 18.2648 24 18.1358 24 17.9998V11.9998C24 11.4478 23.552 10.9998 23 10.9998C22.448 10.9998 22 11.4478 22 11.9998V15.5858L14.207 7.79276C13.816 7.40176 13.183 7.40176 12.793 7.79276L8.5 12.0858L1.707 5.29276C1.316 4.90176 0.682997 4.90176 0.292997 5.29276C-0.0970028 5.68376 -0.0980028 6.31676 0.292997 6.70676L7.793 14.2068C8.184 14.5978 8.817 14.5978 9.207 14.2068L13.5 9.91376L20.586 16.9998H17C16.448 16.9998 16 17.4478 16 17.9998C16 18.5518 16.448 18.9998 17 18.9998Z" fill="black"/>
</g>
<defs>
<clipPath id="clip0_2611_536">
<rect width="24" height="24" fill="white"/>
</clipPath>
</defs>
</svg>
