<svg width="24" height="24" viewBox="0 0 24 24" fill="none" xmlns="http://www.w3.org/2000/svg">
<g clip-path="url(#clip0_2611_538)">
<path d="M17 7H20.586L13.5 14.086L9.20701 9.793C8.81601 9.402 8.18301 9.402 7.79301 9.793L0.293006 17.293C-0.0979941 17.684 -0.0979941 18.317 0.293006 18.707C0.684006 19.097 1.31701 19.098 1.70701 18.707L8.50001 11.914L12.793 16.207C13.184 16.598 13.817 16.598 14.207 16.207L22 8.414V12C22 12.552 22.448 13 23 13C23.552 13 24 12.552 24 12V6C24 5.864 23.973 5.735 23.924 5.617C23.875 5.499 23.803 5.389 23.708 5.294C23.707 5.293 23.707 5.293 23.706 5.292C23.614 5.2 23.504 5.126 23.383 5.076C23.265 5.027 23.136 5 23 5H17C16.448 5 16 5.448 16 6C16 6.552 16.448 7 17 7Z" fill="black"/>
</g>
<defs>
<clipPath id="clip0_2611_538">
<rect width="24" height="24" fill="white"/>
</clipPath>
</defs>
</svg>
