<svg width="24" height="24" viewBox="0 0 24 24" fill="none" xmlns="http://www.w3.org/2000/svg">
<path d="M15 15H2V4H15V8V15ZM17 9H19.586L22 11.414V15H17V9ZM7 18.5C7 18.914 6.833 19.288 6.561 19.561C6.289 19.834 5.914 20 5.5 20C5.086 20 4.712 19.833 4.439 19.561C4.166 19.289 4 18.914 4 18.5C4 18.086 4.167 17.712 4.439 17.439C4.711 17.166 5.086 17 5.5 17C5.914 17 6.288 17.167 6.561 17.439C6.834 17.711 7 18.086 7 18.5ZM22 18.5C22 17.963 21.879 17.455 21.663 17H23C23.552 17 24 16.552 24 16V11C24 10.744 23.902 10.488 23.707 10.293L20.707 7.293C20.526 7.112 20.276 7 20 7H17V3C17 2.448 16.552 2 16 2H1C0.448 2 0 2.448 0 3V16C0 16.552 0.448 17 1 17H2.337C2.121 17.455 2 17.963 2 18.5C2 19.466 2.393 20.343 3.025 20.975C3.657 21.607 4.534 22 5.5 22C6.466 22 7.343 21.607 7.975 20.975C8.607 20.343 9 19.466 9 18.5C9 17.963 8.879 17.455 8.663 17H15.337C15.121 17.455 15 17.963 15 18.5C15 19.466 15.393 20.343 16.025 20.975C16.657 21.607 17.534 22 18.5 22C19.466 22 20.343 21.607 20.975 20.975C21.607 20.343 22 19.466 22 18.5ZM20 18.5C20 18.914 19.833 19.288 19.561 19.561C19.289 19.834 18.914 20 18.5 20C18.086 20 17.712 19.833 17.439 19.561C17.166 19.289 17 18.914 17 18.5C17 18.086 17.167 17.712 17.439 17.439C17.711 17.166 18.086 17 18.5 17C18.914 17 19.288 17.167 19.561 17.439C19.834 17.711 20 18.086 20 18.5Z" fill="black"/>
</svg>
