<svg width="24" height="24" viewBox="0 0 24 24" fill="none" xmlns="http://www.w3.org/2000/svg">
<path d="M12 7.99976H20C20.276 7.99976 20.525 8.11076 20.707 8.29276C20.889 8.47476 21 8.72376 21 8.99976V19.9998C21 20.2758 20.889 20.5248 20.707 20.7068C20.525 20.8888 20.276 20.9998 20 20.9998H4C3.724 20.9998 3.475 20.8888 3.293 20.7068C3.111 20.5248 3 20.2758 3 19.9998V8.99976C3 8.72376 3.111 8.47476 3.293 8.29276C3.475 8.11076 3.724 7.99976 4 7.99976H12ZM16.293 1.29276L12 5.58576L7.707 1.29276C7.316 0.901762 6.683 0.901762 6.293 1.29276C5.903 1.68376 5.902 2.31676 6.293 2.70676L9.586 5.99976H4C3.172 5.99976 2.42 6.33676 1.879 6.87876C1.338 7.42076 1 8.17176 1 8.99976V19.9998C1 20.8278 1.337 21.5798 1.879 22.1208C2.421 22.6618 3.172 22.9998 4 22.9998H20C20.828 22.9998 21.58 22.6628 22.121 22.1208C22.662 21.5788 23 20.8278 23 19.9998V8.99976C23 8.17176 22.663 7.41976 22.121 6.87876C21.579 6.33776 20.828 5.99976 20 5.99976H14.414L17.707 2.70676C18.098 2.31576 18.098 1.68276 17.707 1.29276C17.316 0.902762 16.683 0.901762 16.293 1.29276Z" fill="black"/>
</svg>
