<svg width="24" height="24" viewBox="0 0 24 24" fill="none" xmlns="http://www.w3.org/2000/svg">
<g clip-path="url(#clip0_2611_548)">
<path d="M20.833 5.26197C20.647 5.50397 20.442 5.73697 20.217 5.95797C19.984 6.18997 19.87 6.52497 19.939 6.86597C19.976 7.04797 19.999 7.26997 20 7.49997C20 12.756 17.571 16.471 14.19 18.398C11.543 19.907 8.25201 20.353 4.96801 19.518C6.21301 19.157 7.42801 18.597 8.56101 17.828C8.70801 17.729 8.83401 17.585 8.91301 17.407C9.13701 16.902 8.91001 16.311 8.40501 16.087C5.63101 14.854 4.27501 13.156 3.63601 11.494C3.21901 10.41 3.09001 9.29597 3.11601 8.26697C3.13701 7.45597 3.25401 6.70697 3.39401 6.08497C3.78801 6.42797 4.19701 6.79097 4.62901 7.12297C6.68001 8.69997 9.25301 9.60197 12.024 9.52997C12.567 9.51497 13 9.07297 13 8.52997V7.51897C12.998 7.33997 13.009 7.16197 13.034 6.98597C13.147 6.17997 13.538 5.41697 14.196 4.84497C14.921 4.21397 15.832 3.93697 16.722 3.99897C17.612 4.06097 18.475 4.46197 19.106 5.18697C19.358 5.47297 19.755 5.60297 20.139 5.49097C20.37 5.42397 20.602 5.34797 20.834 5.26297L20.833 5.26197ZM22.424 2.18297C21.684 2.70497 20.901 3.10897 20.137 3.38797C19.206 2.55197 18.046 2.08597 16.861 2.00297C15.463 1.90597 14.025 2.34197 12.884 3.33497C11.848 4.23597 11.232 5.44297 11.054 6.70697C11.017 6.97197 10.999 7.23897 11 7.50697C9.07801 7.36497 7.30701 6.65697 5.85001 5.53697C5.07501 4.94097 4.38801 4.22797 3.81601 3.42097C3.49601 2.97097 2.87201 2.86397 2.42201 3.18397C2.26801 3.29297 2.15501 3.43697 2.08701 3.59297C2.08701 3.59297 1.95501 3.89197 1.80201 4.35297C1.69001 4.68997 1.56101 5.12797 1.44501 5.64297C1.28201 6.36497 1.14301 7.24497 1.11901 8.21397C1.08801 9.44097 1.23901 10.826 1.77101 12.21C2.45401 13.985 3.73701 15.688 5.91801 17.033C4.34901 17.759 2.67301 18.072 1.04501 18C0.493011 17.976 0.0260112 18.403 0.00201122 18.955C-0.0149888 19.344 0.192011 19.691 0.515011 19.873C5.42001 22.598 10.941 22.551 15.181 20.134C19.221 17.833 22 13.434 22 7.49997C21.999 7.33297 21.992 7.16997 21.977 7.01097C22.983 5.89597 23.653 4.58197 23.973 3.22997C24.1 2.69297 23.767 2.15397 23.23 2.02697C22.94 1.95797 22.651 2.02397 22.424 2.18297Z" fill="black"/>
</g>
<defs>
<clipPath id="clip0_2611_548">
<rect width="24" height="24" fill="white"/>
</clipPath>
</defs>
</svg>
