<svg width="24" height="24" viewBox="0 0 24 24" fill="none" xmlns="http://www.w3.org/2000/svg">
<path d="M20 3V13.586L16.586 17H12C11.744 17 11.488 17.098 11.293 17.293L9 19.586V18C9 17.448 8.552 17 8 17H4V3H20ZM21 1H3C2.448 1 2 1.448 2 2V18C2 18.552 2.448 19 3 19H7V22C7 22.552 7.448 23 8 23C8.276 23 8.526 22.888 8.707 22.707L12.414 19H17C17.276 19 17.526 18.888 17.707 18.707L21.707 14.707C21.902 14.512 22 14.256 22 14V2C22 1.448 21.552 1 21 1ZM12 11V7C12 6.448 11.552 6 11 6C10.448 6 10 6.448 10 7V11C10 11.552 10.448 12 11 12C11.552 12 12 11.552 12 11ZM17 11V7C17 6.448 16.552 6 16 6C15.448 6 15 6.448 15 7V11C15 11.552 15.448 12 16 12C16.552 12 17 11.552 17 11Z" fill="black"/>
</svg>
