<svg width="24" height="24" viewBox="0 0 24 24" fill="none" xmlns="http://www.w3.org/2000/svg">
<g clip-path="url(#clip0_2611_552)">
<path d="M21.84 10.9998H2.16598C2.55298 9.17581 3.42498 7.52582 4.65098 6.20381C6.26798 4.45982 8.49898 3.28881 11.045 3.04581C13.808 2.78181 16.414 3.66182 18.399 5.30082C20.116 6.71881 21.364 8.70182 21.84 11.0008V10.9998ZM23.995 11.9048C23.679 8.59281 22.049 5.72081 19.672 3.75781C17.295 1.79481 14.167 0.737815 10.855 1.05381C7.80298 1.34481 5.12398 2.75281 3.18498 4.84281C1.42598 6.73981 0.275984 9.19981 0.004984 11.8998C-0.050016 12.4498 0.350984 12.9398 0.899984 12.9948C0.934984 12.9988 0.969984 12.9998 0.999984 12.9998H23C23.531 12.9998 23.966 12.5858 23.998 12.0628C23.997 11.9258 23.996 11.9148 23.995 11.9048ZM17 18.9998C17 19.5528 16.777 20.0508 16.414 20.4138C16.051 20.7768 15.553 20.9998 15 20.9998C14.447 20.9998 13.949 20.7768 13.586 20.4138C13.223 20.0508 13 19.5528 13 18.9998V11.9998C13 11.4478 12.552 10.9998 12 10.9998C11.448 10.9998 11 11.4478 11 11.9998V18.9998C11 20.1038 11.449 21.1058 12.172 21.8278C12.895 22.5498 13.896 22.9998 15 22.9998C16.104 22.9998 17.106 22.5508 17.828 21.8278C18.55 21.1048 19 20.1038 19 18.9998C19 18.4478 18.552 17.9998 18 17.9998C17.448 17.9998 17 18.4478 17 18.9998Z" fill="black"/>
</g>
<defs>
<clipPath id="clip0_2611_552">
<rect width="24" height="24" fill="white"/>
</clipPath>
</defs>
</svg>
