<svg width="24" height="24" viewBox="0 0 24 24" fill="none" xmlns="http://www.w3.org/2000/svg">
<path d="M5 3V10C5 11.933 5.785 13.684 7.05 14.95C8.315 16.216 10.067 17 12 17C13.933 17 15.684 16.215 16.95 14.95C18.216 13.685 19 11.933 19 10V3C19 2.448 18.552 2 18 2C17.448 2 17 2.448 17 3V10C17 11.381 16.441 12.63 15.536 13.536C14.631 14.442 13.381 15 12 15C10.619 15 9.37 14.441 8.464 13.536C7.558 12.631 7 11.381 7 10V3C7 2.448 6.552 2 6 2C5.448 2 5 2.448 5 3ZM4 22H20C20.552 22 21 21.552 21 21C21 20.448 20.552 20 20 20H4C3.448 20 3 20.448 3 21C3 21.552 3.448 22 4 22Z" fill="black"/>
</svg>
