<svg width="24" height="24" viewBox="0 0 24 24" fill="none" xmlns="http://www.w3.org/2000/svg">
<path d="M5 12.0001H19C19.276 12.0001 19.525 12.1111 19.707 12.2931C19.889 12.4751 20 12.7241 20 13.0001V20.0001C20 20.2761 19.889 20.5251 19.707 20.7071C19.525 20.8891 19.276 21.0001 19 21.0001H5C4.724 21.0001 4.475 20.8891 4.293 20.7071C4.111 20.5251 4 20.2761 4 20.0001V13.0001C4 12.7241 4.111 12.4751 4.293 12.2931C4.475 12.1111 4.724 12.0001 5 12.0001ZM8 10.0001V7.00012C7.999 5.89412 8.445 4.89512 9.169 4.16912C9.892 3.44512 10.888 2.99712 11.99 2.99512C13.02 2.99812 13.938 3.37312 14.642 3.99512C15.28 4.56012 15.739 5.32712 15.922 6.20412C16.035 6.74512 16.564 7.09212 17.105 6.97912C17.646 6.86612 17.993 6.33712 17.88 5.79612C17.608 4.48912 16.922 3.34212 15.968 2.49712C14.908 1.55912 13.516 0.993122 11.995 0.995122C10.338 0.997122 8.838 1.67112 7.754 2.75712C6.67 3.84312 5.998 5.34412 6 7.00012V10.0001H5C4.172 10.0001 3.42 10.3371 2.879 10.8791C2.338 11.4211 2 12.1721 2 13.0001V20.0001C2 20.8281 2.337 21.5801 2.879 22.1211C3.421 22.6621 4.172 23.0001 5 23.0001H19C19.828 23.0001 20.58 22.6631 21.121 22.1211C21.662 21.5791 22 20.8281 22 20.0001V13.0001C22 12.1721 21.663 11.4201 21.121 10.8791C20.579 10.3381 19.828 10.0001 19 10.0001H8Z" fill="black"/>
</svg>
