<svg width="24" height="24" viewBox="0 0 24 24" fill="none" xmlns="http://www.w3.org/2000/svg">
<path d="M20 15.0002V19.0002C20 19.2762 19.889 19.5252 19.707 19.7072C19.525 19.8892 19.276 20.0002 19 20.0002H5C4.724 20.0002 4.475 19.8892 4.293 19.7072C4.111 19.5252 4 19.2762 4 19.0002V15.0002C4 14.4482 3.552 14.0002 3 14.0002C2.448 14.0002 2 14.4482 2 15.0002V19.0002C2 19.8282 2.337 20.5802 2.879 21.1212C3.421 21.6622 4.172 22.0002 5 22.0002H19C19.828 22.0002 20.58 21.6632 21.121 21.1212C21.662 20.5792 22 19.8282 22 19.0002V15.0002C22 14.4482 21.552 14.0002 21 14.0002C20.448 14.0002 20 14.4482 20 15.0002ZM11 5.41424V15.0002C11 15.5522 11.448 16.0002 12 16.0002C12.552 16.0002 13 15.5522 13 15.0002V5.41424L16.293 8.70724C16.684 9.09824 17.317 9.09824 17.707 8.70724C18.097 8.31624 18.098 7.68324 17.707 7.29324L12.707 2.29324C12.615 2.20124 12.505 2.12724 12.383 2.07624C12.138 1.97524 11.862 1.97524 11.617 2.07624C11.499 2.12524 11.389 2.19724 11.293 2.29324L6.293 7.29324C5.902 7.68424 5.902 8.31724 6.293 8.70724C6.684 9.09724 7.317 9.09824 7.707 8.70724L11 5.41424Z" fill="black"/>
</svg>
