<svg width="24" height="24" viewBox="0 0 24 24" fill="none" xmlns="http://www.w3.org/2000/svg">
<path d="M18 21V19C18 17.62 17.439 16.368 16.536 15.464C15.633 14.56 14.38 14 13 14H5C3.62 14 2.368 14.561 1.464 15.464C0.56 16.367 0 17.62 0 19V21C0 21.552 0.448 22 1 22C1.552 22 2 21.552 2 21V19C2 18.171 2.335 17.423 2.879 16.879C3.423 16.335 4.171 16 5 16H13C13.829 16 14.577 16.335 15.121 16.879C15.665 17.423 16 18.171 16 19V21C16 21.552 16.448 22 17 22C17.552 22 18 21.552 18 21ZM14 7C14 5.62 13.439 4.368 12.536 3.464C11.633 2.56 10.38 2 9 2C7.62 2 6.368 2.561 5.464 3.464C4.56 4.367 4 5.62 4 7C4 8.38 4.561 9.632 5.464 10.536C6.367 11.44 7.62 12 9 12C10.38 12 11.632 11.439 12.536 10.536C13.44 9.633 14 8.38 14 7ZM12 7C12 7.829 11.665 8.577 11.121 9.121C10.577 9.665 9.829 10 9 10C8.171 10 7.423 9.665 6.879 9.121C6.335 8.577 6 7.829 6 7C6 6.171 6.335 5.423 6.879 4.879C7.423 4.335 8.171 4 9 4C9.829 4 10.577 4.335 11.121 4.879C11.665 5.423 12 6.171 12 7ZM24 21V19C23.999 17.755 23.543 16.615 22.785 15.739C22.133 14.986 21.257 14.428 20.256 14.163C19.722 14.022 19.175 14.34 19.034 14.874C18.893 15.408 19.211 15.955 19.745 16.096C20.352 16.257 20.881 16.594 21.273 17.048C21.727 17.574 21.999 18.254 22 19V21C22 21.552 22.448 22 23 22C23.552 22 24 21.552 24 21ZM15.752 4.099C16.555 4.305 17.197 4.814 17.589 5.476C17.981 6.138 18.12 6.946 17.914 7.749C17.738 8.437 17.339 9.005 16.809 9.401C16.495 9.636 16.134 9.81 15.746 9.912C15.212 10.052 14.892 10.599 15.033 11.133C15.174 11.667 15.72 11.987 16.254 11.846C16.891 11.679 17.486 11.391 18.006 11.002C18.89 10.342 19.558 9.389 19.851 8.244C20.193 6.907 19.961 5.555 19.309 4.456C18.657 3.357 17.584 2.503 16.247 2.16C15.712 2.023 15.167 2.346 15.03 2.881C14.893 3.416 15.216 3.961 15.751 4.098L15.752 4.099Z" fill="black"/>
</svg>
