<svg width="24" height="24" viewBox="0 0 24 24" fill="none" xmlns="http://www.w3.org/2000/svg">
<path d="M17 21V19C17 17.62 16.439 16.368 15.536 15.464C14.633 14.56 13.38 14 12 14H5C3.62 14 2.368 14.561 1.464 15.464C0.56 16.367 0 17.62 0 19V21C0 21.552 0.448 22 1 22C1.552 22 2 21.552 2 21V19C2 18.171 2.335 17.423 2.879 16.879C3.423 16.335 4.171 16 5 16H12C12.829 16 13.577 16.335 14.121 16.879C14.665 17.423 15 18.171 15 19V21C15 21.552 15.448 22 16 22C16.552 22 17 21.552 17 21ZM13.5 7C13.5 5.62 12.939 4.368 12.036 3.464C11.133 2.56 9.88 2 8.5 2C7.12 2 5.868 2.561 4.964 3.464C4.06 4.367 3.5 5.62 3.5 7C3.5 8.38 4.061 9.632 4.964 10.536C5.867 11.44 7.12 12 8.5 12C9.88 12 11.132 11.439 12.036 10.536C12.94 9.633 13.5 8.38 13.5 7ZM11.5 7C11.5 7.829 11.165 8.577 10.621 9.121C10.077 9.665 9.329 10 8.5 10C7.671 10 6.923 9.665 6.379 9.121C5.835 8.577 5.5 7.829 5.5 7C5.5 6.171 5.835 5.423 6.379 4.879C6.923 4.335 7.671 4 8.5 4C9.329 4 10.077 4.335 10.621 4.879C11.165 5.423 11.5 6.171 11.5 7ZM23 10H17C16.448 10 16 10.448 16 11C16 11.552 16.448 12 17 12H23C23.552 12 24 11.552 24 11C24 10.448 23.552 10 23 10Z" fill="black"/>
</svg>
