<svg width="24" height="24" viewBox="0 0 24 24" fill="none" xmlns="http://www.w3.org/2000/svg">
<g clip-path="url(#clip0_2611_458)">
<path d="M22 8.943V15.057L17.72 12L22 8.943ZM3 4C2.172 4 1.42 4.337 0.879 4.879C0.338 5.421 0 6.172 0 7V17C0 17.828 0.337 18.58 0.879 19.121C1.421 19.662 2.172 20 3 20H14C14.828 20 15.58 19.663 16.121 19.121C16.662 18.579 17 17.828 17 17V13.943L22.419 17.814C22.868 18.135 23.493 18.031 23.814 17.582C23.94 17.404 24.001 17.199 24 17V7C24 6.448 23.552 6 23 6C22.782 6 22.58 6.07 22.419 6.186L17 10.057V7C17 6.172 16.663 5.42 16.121 4.879C15.579 4.338 14.828 4 14 4H3ZM3 6H14C14.276 6 14.525 6.111 14.707 6.293C14.889 6.475 15 6.724 15 7V17C15 17.276 14.889 17.525 14.707 17.707C14.525 17.889 14.276 18 14 18H3C2.724 18 2.475 17.889 2.293 17.707C2.111 17.525 2 17.276 2 17V7C2 6.724 2.111 6.475 2.293 6.293C2.475 6.111 2.724 6 3 6Z" fill="black"/>
</g>
<defs>
<clipPath id="clip0_2611_458">
<rect width="24" height="24" fill="white"/>
</clipPath>
</defs>
</svg>
