<svg width="24" height="24" viewBox="0 0 24 24" fill="none" xmlns="http://www.w3.org/2000/svg">
<g clip-path="url(#clip0_2611_460)">
<path d="M10.66 5.99976H14C14.276 5.99976 14.525 6.11076 14.707 6.29276C14.889 6.47476 15 6.72376 15 6.99976V10.3398C15 10.6158 15.112 10.8658 15.293 11.0468L16.293 12.0468C16.644 12.3978 17.191 12.4338 17.586 12.1498L22 8.95776V16.9998C22 17.5518 22.448 17.9998 23 17.9998C23.552 17.9998 24 17.5518 24 16.9998V6.99976C24.001 6.79876 23.939 6.59176 23.81 6.41376C23.486 5.96676 22.861 5.86576 22.414 6.18976L17.105 10.0308L17 9.92576V6.99976C17 6.17176 16.663 5.41976 16.121 4.87876C15.579 4.33776 14.828 3.99976 14 3.99976H10.66C10.108 3.99976 9.66 4.44776 9.66 4.99976C9.66 5.55176 10.108 5.99976 10.66 5.99976ZM4.586 5.99976L15 16.4138V16.9998C15 17.2758 14.889 17.5248 14.707 17.7068C14.525 17.8888 14.276 17.9998 14 17.9998H3C2.724 17.9998 2.475 17.8888 2.293 17.7068C2.111 17.5248 2 17.2758 2 16.9998V6.99976C2 6.72376 2.111 6.47476 2.293 6.29276C2.475 6.11076 2.724 5.99976 3 5.99976H4.586ZM0.293 1.70676L2.611 4.02476C1.938 4.11176 1.334 4.42276 0.879 4.87876C0.337 5.41976 0 6.17176 0 6.99976V16.9998C0 17.8278 0.337 18.5798 0.879 19.1208C1.421 19.6618 2.172 19.9998 3 19.9998H14C14.828 19.9998 15.58 19.6628 16.121 19.1208C16.39 18.8518 16.609 18.5308 16.761 18.1748L22.293 23.7068C22.684 24.0978 23.317 24.0978 23.707 23.7068C24.097 23.3158 24.098 22.6828 23.707 22.2928L1.707 0.292762C1.316 -0.0982383 0.683 -0.0982383 0.293 0.292762C-0.097 0.683762 -0.098 1.31676 0.293 1.70676Z" fill="black"/>
</g>
<defs>
<clipPath id="clip0_2611_460">
<rect width="24" height="24" fill="white"/>
</clipPath>
</defs>
</svg>
