<svg width="24" height="24" viewBox="0 0 24 24" fill="none" xmlns="http://www.w3.org/2000/svg">
<g clip-path="url(#clip0_2611_462)">
<path d="M9 11.5C9 12.467 8.609 13.34 7.975 13.975C7.341 14.61 6.467 15 5.5 15C4.533 15 3.66 14.609 3.025 13.975C2.39 13.341 2 12.467 2 11.5C2 10.533 2.391 9.66 3.025 9.025C3.659 8.39 4.533 8 5.5 8C6.467 8 7.34 8.391 7.975 9.025C8.61 9.659 9 10.533 9 11.5ZM22 11.5C22 12.467 21.609 13.34 20.975 13.975C20.341 14.61 19.467 15 18.5 15C17.533 15 16.66 14.609 16.025 13.975C15.39 13.341 15 12.467 15 11.5C15 10.533 15.391 9.66 16.025 9.025C16.659 8.39 17.533 8 18.5 8C19.467 8 20.34 8.391 20.975 9.025C21.61 9.659 22 10.533 22 11.5ZM5.5 17H18.5C20.019 17 21.395 16.383 22.389 15.389C23.383 14.395 24 13.019 24 11.5C24 9.981 23.383 8.605 22.389 7.611C21.395 6.617 20.019 6 18.5 6C16.981 6 15.605 6.617 14.611 7.611C13.617 8.605 13 9.981 13 11.5C13 12.829 13.473 14.05 14.257 15H9.743C10.527 14.05 11 12.829 11 11.5C11 9.981 10.383 8.605 9.389 7.611C8.395 6.617 7.019 6 5.5 6C3.981 6 2.605 6.617 1.611 7.611C0.617 8.605 0 9.981 0 11.5C0 13.019 0.617 14.395 1.611 15.389C2.605 16.383 3.981 17 5.5 17Z" fill="black"/>
</g>
<defs>
<clipPath id="clip0_2611_462">
<rect width="24" height="24" fill="white"/>
</clipPath>
</defs>
</svg>
