<svg width="24" height="24" viewBox="0 0 24 24" fill="none" xmlns="http://www.w3.org/2000/svg">
<g clip-path="url(#clip0_2611_470)">
<path d="M10 7.081V16.92L6.625 14.22C6.455 14.083 6.237 14 6 14H3V10H6C6.218 10.001 6.439 9.929 6.625 9.781L10 7.081ZM10.375 4.219L5.649 8H2C1.448 8 1 8.448 1 9V15C1 15.552 1.448 16 2 16H5.649L10.375 19.781C10.806 20.126 11.436 20.056 11.781 19.625C11.929 19.44 12.001 19.218 12 19V5C12 4.448 11.552 4 11 4C10.763 4 10.545 4.083 10.375 4.219ZM16.293 9.707L18.586 12L16.293 14.293C15.902 14.684 15.902 15.317 16.293 15.707C16.684 16.097 17.317 16.098 17.707 15.707L20 13.414L22.293 15.707C22.684 16.098 23.317 16.098 23.707 15.707C24.097 15.316 24.098 14.683 23.707 14.293L21.414 12L23.707 9.707C24.098 9.316 24.098 8.683 23.707 8.293C23.316 7.903 22.683 7.902 22.293 8.293L20 10.586L17.707 8.293C17.316 7.902 16.683 7.902 16.293 8.293C15.903 8.684 15.902 9.317 16.293 9.707Z" fill="black"/>
</g>
<defs>
<clipPath id="clip0_2611_470">
<rect width="24" height="24" fill="white"/>
</clipPath>
</defs>
</svg>
