<svg width="24" height="24" viewBox="0 0 24 24" fill="none" xmlns="http://www.w3.org/2000/svg">
<path d="M10 7.081V16.92L6.625 14.22C6.455 14.083 6.237 14 6 14H3V10H6C6.218 10.001 6.439 9.929 6.625 9.781L10 7.081ZM10.375 4.219L5.649 8H2C1.448 8 1 8.448 1 9V15C1 15.552 1.448 16 2 16H5.649L10.375 19.781C10.806 20.126 11.436 20.056 11.781 19.625C11.929 19.44 12.001 19.218 12 19V5C12 4.448 11.552 4 11 4C10.763 4 10.545 4.083 10.375 4.219ZM14.833 9.167C15.614 9.948 16.004 10.97 16.004 11.995C16.004 13.02 15.614 14.042 14.833 14.823C14.443 15.214 14.443 15.847 14.833 16.237C15.223 16.627 15.857 16.627 16.247 16.237C17.418 15.066 18.004 13.529 18.004 11.995C18.004 10.461 17.418 8.924 16.247 7.753C15.857 7.362 15.223 7.362 14.833 7.753C14.443 8.144 14.442 8.777 14.833 9.167Z" fill="black"/>
</svg>
