<svg width="24" height="24" viewBox="0 0 24 24" fill="none" xmlns="http://www.w3.org/2000/svg">
<path d="M10 7.08094V16.9199L6.625 14.2199C6.455 14.0829 6.237 13.9999 6 13.9999H3V9.99994H6C6.218 10.0009 6.439 9.92894 6.625 9.78094L10 7.08094ZM10.375 4.21894L5.649 7.99994H2C1.448 7.99994 1 8.44794 1 8.99994V14.9999C1 15.5519 1.448 15.9999 2 15.9999H5.649L10.375 19.7809C10.806 20.1259 11.436 20.0559 11.781 19.6249C11.929 19.4399 12.001 19.2179 12 18.9999V4.99994C12 4.44794 11.552 3.99994 11 3.99994C10.763 3.99994 10.545 4.08294 10.375 4.21894ZM18.363 5.63694C20.12 7.39494 20.998 9.69594 20.998 12.0009C20.998 14.3049 20.12 16.6059 18.363 18.3629C17.973 18.7539 17.973 19.3869 18.363 19.7769C18.753 20.1669 19.387 20.1669 19.777 19.7769C21.924 17.6299 22.997 14.8139 22.998 12.0009C22.999 9.18794 21.924 6.37094 19.777 4.22294C19.387 3.83194 18.753 3.83194 18.363 4.22294C17.973 4.61394 17.972 5.24694 18.363 5.63694ZM14.833 9.16694C15.614 9.94794 16.004 10.9699 16.004 11.9949C16.004 13.0199 15.614 14.0419 14.833 14.8229C14.443 15.2139 14.443 15.8469 14.833 16.2369C15.223 16.6269 15.857 16.6269 16.247 16.2369C17.418 15.0659 18.004 13.5289 18.004 11.9949C18.004 10.4609 17.418 8.92394 16.247 7.75294C15.857 7.36194 15.223 7.36194 14.833 7.75294C14.443 8.14394 14.442 8.77694 14.833 9.16694Z" fill="black"/>
</svg>
