<svg width="24" height="24" viewBox="0 0 24 24" fill="none" xmlns="http://www.w3.org/2000/svg">
<g clip-path="url(#clip0_2611_472)">
<path d="M11 9.00002V12C11 12.276 11.112 12.526 11.293 12.707L12.793 14.207C13.184 14.598 13.817 14.598 14.207 14.207C14.597 13.816 14.598 13.183 14.207 12.793L13 11.586V9.00002C13 8.44802 12.552 8.00002 12 8.00002C11.448 8.00002 11 8.44802 11 9.00002ZM15.33 19.276L15.164 21.089C15.14 21.355 15.017 21.584 14.831 21.747C14.651 21.906 14.416 22 14.161 22H9.83C9.56 22.001 9.321 21.9 9.14 21.731C8.965 21.567 8.849 21.342 8.825 21.088L8.66 19.271C9.676 19.739 10.808 20 12 20C13.188 20 14.316 19.741 15.33 19.276ZM8.187 7.36702C9.224 6.51202 10.551 6.00002 12 6.00002C13.657 6.00002 15.156 6.67002 16.243 7.75702C17.33 8.84402 18 10.343 18 12C18 13.657 17.33 15.156 16.243 16.243C16.139 16.347 16.032 16.447 15.92 16.543C15.885 16.574 15.849 16.604 15.813 16.633C14.776 17.488 13.449 18 12 18C10.343 18 8.844 17.33 7.757 16.243C6.67 15.156 6 13.657 6 12C6 10.343 6.67 8.84402 7.757 7.75702C7.861 7.65302 7.968 7.55302 8.08 7.45702C8.115 7.42602 8.151 7.39602 8.187 7.36702ZM17.491 6.18202L17.176 2.72702C17.106 1.97102 16.758 1.29702 16.238 0.810022C15.699 0.305022 14.972 -0.00297828 14.18 2.1717e-05H9.826C9.071 0.00302172 8.372 0.286022 7.841 0.757022C7.29 1.24502 6.916 1.93902 6.844 2.72902L6.53 6.16202C6.467 6.22102 6.404 6.28202 6.343 6.34302C4.897 7.79002 4 9.79102 4 12C4 14.209 4.897 16.21 6.343 17.657C6.401 17.715 6.46 17.772 6.519 17.828L6.834 21.273C6.904 22.029 7.252 22.703 7.772 23.19C8.311 23.695 9.038 24.003 9.83 24H14.159C14.918 24.001 15.622 23.718 16.156 23.246C16.709 22.757 17.085 22.062 17.156 21.271L17.47 17.838C17.533 17.779 17.596 17.718 17.657 17.657C19.103 16.21 20 14.209 20 12C20 9.79102 19.103 7.79002 17.657 6.34302C17.603 6.28902 17.547 6.23502 17.492 6.18202H17.491ZM8.67 4.72402L8.836 2.91102C8.86 2.64602 8.983 2.41702 9.167 2.25402C9.346 2.09502 9.579 2.00102 9.834 2.00002H14.18C14.45 1.99902 14.689 2.10002 14.87 2.26902C15.045 2.43302 15.161 2.65802 15.185 2.91202L15.351 4.73302C14.331 4.26302 13.196 4.00002 12 4.00002C10.812 4.00002 9.684 4.25902 8.67 4.72402Z" fill="black"/>
</g>
<defs>
<clipPath id="clip0_2611_472">
<rect width="24" height="24" fill="white"/>
</clipPath>
</defs>
</svg>
