<svg width="24" height="24" viewBox="0 0 24 24" fill="none" xmlns="http://www.w3.org/2000/svg">
<path d="M5.64001 13.3182C7.60201 11.6842 10.001 10.9292 12.373 11.0132C14.54 11.0902 16.683 11.8682 18.444 13.3212C18.87 13.6722 19.5 13.6122 19.852 13.1862C20.204 12.7602 20.143 12.1302 19.717 11.7782C17.61 10.0402 15.043 9.10723 12.445 9.01523C9.59901 8.91423 6.71401 9.82123 4.36101 11.7822C3.93701 12.1352 3.87901 12.7662 4.23301 13.1902C4.58701 13.6142 5.21601 13.6722 5.64001 13.3182ZM2.08101 9.75023C5.01801 7.16123 8.68101 5.93023 12.317 6.01323C15.76 6.09223 19.176 7.35023 21.921 9.75223C22.337 10.1162 22.968 10.0742 23.332 9.65823C23.696 9.24223 23.654 8.61123 23.238 8.24723C20.13 5.52723 16.261 4.10223 12.362 4.01323C8.24301 3.91923 4.08701 5.31623 0.759011 8.25023C0.344011 8.61523 0.305011 9.24723 0.670011 9.66123C1.03501 10.0752 1.66701 10.1152 2.08101 9.75023ZM9.10901 16.9252C10.099 16.2212 11.255 15.9302 12.383 16.0192C13.274 16.0892 14.148 16.3972 14.906 16.9282C15.358 17.2452 15.982 17.1352 16.299 16.6832C16.616 16.2312 16.506 15.6072 16.054 15.2902C15.001 14.5522 13.785 14.1232 12.541 14.0252C10.961 13.9002 9.33701 14.3102 7.95101 15.2942C7.50101 15.6142 7.39501 16.2382 7.71501 16.6882C8.03501 17.1382 8.65901 17.2452 9.10901 16.9252ZM12 21.0002C12.552 21.0002 13 20.5522 13 20.0002C13 19.4482 12.552 19.0002 12 19.0002C11.448 19.0002 11 19.4482 11 20.0002C11 20.5522 11.448 21.0002 12 21.0002Z" fill="black"/>
</svg>
