<svg width="24" height="24" viewBox="0 0 24 24" fill="none" xmlns="http://www.w3.org/2000/svg">
<g clip-path="url(#clip0_2611_476)">
<path d="M16.281 11.9588C17.07 12.3438 17.779 12.8158 18.345 13.3058C18.763 13.6668 19.394 13.6218 19.756 13.2038C20.118 12.7858 20.072 12.1548 19.654 11.7928C18.951 11.1838 18.095 10.6178 17.158 10.1598C16.662 9.91776 16.063 10.1238 15.821 10.6198C15.579 11.1158 15.785 11.7148 16.281 11.9568V11.9588ZM10.79 6.04676C14.81 5.72276 18.586 7.01476 21.486 9.38376C21.632 9.50376 21.776 9.62576 21.918 9.75076C22.332 10.1158 22.964 10.0758 23.329 9.66176C23.694 9.24776 23.654 8.61576 23.24 8.25076C23.08 8.10976 22.916 7.97076 22.751 7.83576C19.467 5.15276 15.185 3.68676 10.629 4.05476C10.079 4.09776 9.669 4.57976 9.713 5.12976C9.757 5.67976 10.24 6.09176 10.79 6.04676ZM9.109 16.9248C10.099 16.2208 11.255 15.9298 12.383 16.0188C13.274 16.0888 14.148 16.3968 14.906 16.9278C15.139 17.0908 15.418 17.1408 15.676 17.0898L22.293 23.7068C22.684 24.0978 23.317 24.0978 23.707 23.7068C24.097 23.3158 24.098 22.6828 23.707 22.2928L10.957 9.54276C10.907 9.47976 10.851 9.42276 10.788 9.37376L1.707 0.292762C1.316 -0.0982383 0.682997 -0.0982383 0.292997 0.292762C-0.0970028 0.683762 -0.0980028 1.31676 0.292997 1.70676L4.381 5.79476C3.124 6.42376 1.891 7.24776 0.757997 8.24976C0.343997 8.61576 0.304997 9.24776 0.670997 9.66176C1.037 10.0758 1.669 10.1148 2.083 9.74876C3.274 8.69576 4.582 7.87176 5.885 7.29776L8.208 9.62076C6.85 10.0778 5.537 10.7978 4.359 11.7818C3.935 12.1358 3.879 12.7668 4.233 13.1908C4.587 13.6148 5.218 13.6708 5.642 13.3168C6.912 12.2548 8.366 11.5668 9.83 11.2428L12.619 14.0318C12.593 14.0298 12.567 14.0268 12.541 14.0248C10.961 13.8998 9.337 14.3098 7.951 15.2938C7.501 15.6138 7.395 16.2378 7.715 16.6878C8.035 17.1378 8.659 17.2448 9.109 16.9248ZM12 20.9998C12.552 20.9998 13 20.5518 13 19.9998C13 19.4478 12.552 18.9998 12 18.9998C11.448 18.9998 11 19.4478 11 19.9998C11 20.5518 11.448 20.9998 12 20.9998Z" fill="black"/>
</g>
<defs>
<clipPath id="clip0_2611_476">
<rect width="24" height="24" fill="white"/>
</clipPath>
</defs>
</svg>
