<svg width="24" height="24" viewBox="0 0 24 24" fill="none" xmlns="http://www.w3.org/2000/svg">
<path d="M10.299 5.29501C10.494 5.09901 10.748 5.00101 11.005 5.00001C11.262 4.99901 11.517 5.09601 11.713 5.29101C11.909 5.48601 12.007 5.74001 12.008 5.99701C12.009 6.25401 11.912 6.50901 11.717 6.70501C11.525 6.89901 11.275 6.99701 11.02 7.00001H2C1.448 7.00001 1 7.44801 1 8.00001C1 8.55201 1.448 9.00001 2 9.00001H11.043C11.801 8.99101 12.559 8.69601 13.136 8.11501C13.72 7.52801 14.011 6.75701 14.008 5.99101C14.005 5.22501 13.71 4.45601 13.123 3.87201C12.536 3.28801 11.766 2.99801 11 3.00001C10.234 3.00201 9.465 3.29801 8.881 3.88501C8.491 4.27701 8.493 4.91001 8.885 5.29901C9.277 5.68801 9.91 5.68601 10.299 5.29501ZM11.881 20.115C12.465 20.702 13.233 20.998 14 21C14.767 21.002 15.537 20.711 16.124 20.128C16.711 19.545 17.007 18.776 17.009 18.009C17.011 17.242 16.72 16.472 16.137 15.885C15.56 15.304 14.802 15.009 14.044 15H2C1.448 15 1 15.448 1 16C1 16.552 1.448 17 2 17H14.02C14.275 17.003 14.525 17.101 14.718 17.295C14.913 17.491 15.01 17.746 15.009 18.003C15.008 18.26 14.91 18.514 14.714 18.709C14.518 18.904 14.263 19.001 14.006 19C13.749 18.999 13.495 18.901 13.3 18.705C12.911 18.313 12.277 18.311 11.886 18.701C11.495 19.091 11.492 19.724 11.882 20.115H11.881ZM18.436 8.43801C18.73 8.14501 19.112 8.00001 19.497 8.00001C19.882 8.00001 20.264 8.14701 20.557 8.44101C20.85 8.73501 20.995 9.11701 20.995 9.50201C20.995 9.88701 20.848 10.269 20.554 10.562C20.262 10.854 19.881 10.999 19.497 11H2C1.448 11 1 11.448 1 12C1 12.552 1.448 13 2 13H19.502C20.393 12.998 21.286 12.658 21.968 11.978C22.652 11.296 22.995 10.399 22.996 9.50401C22.997 8.60901 22.656 7.71201 21.974 7.02801C21.292 6.34401 20.394 6.00101 19.5 6.00001C18.606 5.99901 17.708 6.34001 17.024 7.02201C16.633 7.41201 16.632 8.04501 17.022 8.43601C17.412 8.82701 18.045 8.82801 18.436 8.43801Z" fill="black"/>
</svg>
