<svg width="24" height="24" viewBox="0 0 24 24" fill="none" xmlns="http://www.w3.org/2000/svg">
<path d="M23 12C23 8.963 21.768 6.211 19.778 4.222C17.788 2.233 15.037 1 12 1C8.963 1 6.211 2.232 4.222 4.222C2.233 6.212 1 8.963 1 12C1 15.037 2.232 17.789 4.222 19.778C6.212 21.767 8.963 23 12 23C15.037 23 17.789 21.768 19.778 19.778C21.767 17.788 23 15.037 23 12ZM21 12C21 14.486 19.994 16.734 18.364 18.364C16.734 19.994 14.486 21 12 21C9.514 21 7.266 19.994 5.636 18.364C4.006 16.734 3 14.486 3 12C3 9.514 4.006 7.266 5.636 5.636C7.266 4.006 9.514 3 12 3C14.486 3 16.734 4.006 18.364 5.636C19.994 7.266 21 9.514 21 12ZM8.293 9.707L10.586 12L8.293 14.293C7.902 14.684 7.902 15.317 8.293 15.707C8.684 16.097 9.317 16.098 9.707 15.707L12 13.414L14.293 15.707C14.684 16.098 15.317 16.098 15.707 15.707C16.097 15.316 16.098 14.683 15.707 14.293L13.414 12L15.707 9.707C16.098 9.316 16.098 8.683 15.707 8.293C15.316 7.903 14.683 7.902 14.293 8.293L12 10.586L9.707 8.293C9.316 7.902 8.683 7.902 8.293 8.293C7.903 8.684 7.902 9.317 8.293 9.707Z" fill="black"/>
</svg>
