<svg width="24" height="24" viewBox="0 0 24 24" fill="none" xmlns="http://www.w3.org/2000/svg">
<path d="M7.86 1C7.604 1 7.348 1.098 7.153 1.293L1.293 7.153C1.112 7.334 1 7.584 1 7.86V16.14C1 16.396 1.098 16.652 1.293 16.847L7.153 22.707C7.334 22.888 7.584 23 7.86 23H16.14C16.396 23 16.652 22.902 16.847 22.707L22.707 16.847C22.888 16.666 23 16.416 23 16.14V7.86C23 7.604 22.902 7.348 22.707 7.153L16.847 1.293C16.666 1.112 16.416 1 16.14 1H7.86ZM8.274 3H15.726L21 8.274V15.726L15.726 21H8.274L3 15.726V8.274L8.274 3ZM8.293 9.707L10.586 12L8.293 14.293C7.902 14.684 7.902 15.317 8.293 15.707C8.684 16.097 9.317 16.098 9.707 15.707L12 13.414L14.293 15.707C14.684 16.098 15.317 16.098 15.707 15.707C16.097 15.316 16.098 14.683 15.707 14.293L13.414 12L15.707 9.707C16.098 9.316 16.098 8.683 15.707 8.293C15.316 7.903 14.683 7.902 14.293 8.293L12 10.586L9.707 8.293C9.316 7.902 8.683 7.902 8.293 8.293C7.903 8.684 7.902 9.317 8.293 9.707Z" fill="black"/>
</svg>
