<svg width="24" height="24" viewBox="0 0 24 24" fill="none" xmlns="http://www.w3.org/2000/svg">
<path d="M5 2C4.172 2 3.42 2.337 2.879 2.879C2.338 3.421 2 4.172 2 5V19C2 19.828 2.337 20.58 2.879 21.121C3.421 21.662 4.172 22 5 22H19C19.828 22 20.58 21.663 21.121 21.121C21.662 20.579 22 19.828 22 19V5C22 4.172 21.663 3.42 21.121 2.879C20.579 2.338 19.828 2 19 2H5ZM5 4H19C19.276 4 19.525 4.111 19.707 4.293C19.889 4.475 20 4.724 20 5V19C20 19.276 19.889 19.525 19.707 19.707C19.525 19.889 19.276 20 19 20H5C4.724 20 4.475 19.889 4.293 19.707C4.111 19.525 4 19.276 4 19V5C4 4.724 4.111 4.475 4.293 4.293C4.475 4.111 4.724 4 5 4ZM14.293 8.293L12 10.586L9.707 8.293C9.316 7.902 8.683 7.902 8.293 8.293C7.903 8.684 7.902 9.317 8.293 9.707L10.586 12L8.293 14.293C7.902 14.684 7.902 15.317 8.293 15.707C8.684 16.097 9.317 16.098 9.707 15.707L12 13.414L14.293 15.707C14.684 16.098 15.317 16.098 15.707 15.707C16.097 15.316 16.098 14.683 15.707 14.293L13.414 12L15.707 9.707C16.098 9.316 16.098 8.683 15.707 8.293C15.316 7.903 14.683 7.902 14.293 8.293Z" fill="black"/>
</svg>
