<svg width="24" height="24" viewBox="0 0 24 24" fill="none" xmlns="http://www.w3.org/2000/svg">
<path d="M5.29301 6.70676L10.586 11.9998L5.29301 17.2928C4.90201 17.6838 4.90201 18.3168 5.29301 18.7068C5.68401 19.0968 6.31701 19.0978 6.70701 18.7068L12 13.4138L17.293 18.7068C17.684 19.0978 18.317 19.0978 18.707 18.7068C19.097 18.3158 19.098 17.6828 18.707 17.2928L13.414 11.9998L18.707 6.70676C19.098 6.31576 19.098 5.68276 18.707 5.29276C18.316 4.90276 17.683 4.90176 17.293 5.29276L12 10.5858L6.70701 5.29276C6.31601 4.90176 5.68301 4.90176 5.29301 5.29276C4.90301 5.68376 4.90201 6.31676 5.29301 6.70676Z" fill="black"/>
</svg>
