<svg width="24" height="24" viewBox="0 0 24 24" fill="none" xmlns="http://www.w3.org/2000/svg">
<g clip-path="url(#clip0_2611_488)">
<path d="M21.563 6.637C21.85 8.166 22.011 9.932 22 11.762C22.019 13.29 21.877 15.029 21.563 16.783C21.506 16.991 21.413 17.186 21.291 17.358C21.064 17.679 20.733 17.923 20.342 18.033C19.738 18.194 18.186 18.308 16.465 18.374C14.235 18.46 12 18.46 12 18.46C12 18.46 9.76502 18.46 7.53502 18.375C5.81402 18.309 4.26202 18.196 3.66902 18.037C3.46402 17.98 3.27302 17.888 3.10302 17.769C2.79202 17.549 2.55302 17.233 2.43302 16.846C2.14802 15.32 1.98902 13.56 2.00002 11.736C1.97902 10.196 2.12102 8.444 2.43702 6.676C2.49402 6.468 2.58702 6.273 2.70902 6.101C2.93602 5.78 3.26702 5.536 3.65802 5.426C4.26202 5.265 5.81402 5.151 7.53502 5.085C9.76502 5 12 5 12 5C12 5 14.235 5 16.466 5.078C18.185 5.138 19.748 5.241 20.322 5.381C20.541 5.444 20.743 5.546 20.92 5.68C21.227 5.912 21.458 6.24 21.563 6.637ZM23.51 6.177C23.293 5.311 22.792 4.587 22.127 4.084C21.754 3.802 21.331 3.59 20.878 3.459C19.98 3.239 18.182 3.136 16.536 3.079C14.269 3 12 3 12 3C12 3 9.72802 3 7.45902 3.087C5.81702 3.15 4.00902 3.262 3.14202 3.494C2.26802 3.741 1.56102 4.264 1.07802 4.944C0.808017 5.325 0.609017 5.755 0.491017 6.212C0.485017 6.236 0.480017 6.261 0.476017 6.283C0.133017 8.181 -0.0229829 10.076 1.70977e-05 11.764C-0.0119829 13.688 0.161017 15.595 0.477017 17.266C0.483017 17.297 0.490017 17.328 0.498017 17.354C0.743017 18.214 1.26802 18.921 1.94902 19.402C2.30602 19.654 2.70602 19.845 3.13102 19.963C4.01002 20.198 5.81702 20.31 7.45902 20.373C9.72802 20.46 12 20.46 12 20.46C12 20.46 14.272 20.46 16.541 20.373C18.183 20.31 19.99 20.198 20.858 19.966C21.731 19.719 22.439 19.196 22.921 18.516C23.191 18.135 23.391 17.705 23.508 17.249C23.514 17.224 23.52 17.199 23.523 17.178C23.863 15.294 24.019 13.413 23.999 11.738C24.011 9.813 23.838 7.905 23.522 6.234C23.518 6.214 23.514 6.194 23.51 6.177ZM10.75 13.301V10.199L13.477 11.75L10.75 13.301ZM10.244 15.889L15.994 12.619C16.474 12.346 16.642 11.735 16.369 11.255C16.276 11.091 16.143 10.963 15.994 10.88L10.244 7.61C9.76402 7.337 9.15302 7.505 8.88002 7.985C8.79002 8.143 8.74802 8.315 8.74902 8.479V15.019C8.74902 15.571 9.19702 16.019 9.74902 16.019C9.93102 16.019 10.101 15.97 10.243 15.888L10.244 15.889Z" fill="black"/>
</g>
<defs>
<clipPath id="clip0_2611_488">
<rect width="24" height="24" fill="white"/>
</clipPath>
</defs>
</svg>
