<svg width="24" height="24" viewBox="0 0 24 24" fill="none" xmlns="http://www.w3.org/2000/svg">
<g clip-path="url(#clip0_2611_492)">
<path d="M13.402 6.87276L13.992 2.12276C14.06 1.57476 13.671 1.07476 13.123 1.00676C12.774 0.963762 12.445 1.10576 12.231 1.35976L9.801 4.27976C9.448 4.70476 9.506 5.33476 9.93 5.68876C10.354 6.04276 10.985 5.98476 11.338 5.55976L11.587 5.26076L11.417 6.62676C11.349 7.17476 11.738 7.67476 12.286 7.74276C12.834 7.81076 13.334 7.42076 13.402 6.87276ZM19.338 13.5508L21.768 10.6408C22.122 10.2168 22.065 9.58576 21.641 9.23176C21.453 9.07576 21.225 8.99876 21 8.99976H15.66C15.108 8.99976 14.66 9.44776 14.66 9.99976C14.66 10.5518 15.108 10.9998 15.66 10.9998H18.862L17.802 12.2688C17.448 12.6928 17.505 13.3238 17.929 13.6778C18.353 14.0318 18.984 13.9748 19.338 13.5508ZM12.961 14.3748L14.647 16.0608L12.415 18.7388L12.961 14.3748ZM8.067 9.48076L11.586 12.9998H5.135L8.067 9.48076ZM0.292997 1.70676L6.647 8.06076L2.232 13.3598C1.878 13.7838 1.936 14.4148 2.36 14.7678C2.547 14.9248 2.775 15.0008 3 14.9998H10.867L10.008 21.8758C9.939 22.4238 10.328 22.9238 10.876 22.9918C11.225 23.0358 11.554 22.8938 11.768 22.6398L16.067 17.4808L22.293 23.7068C22.684 24.0978 23.317 24.0978 23.707 23.7068C24.097 23.3158 24.098 22.6828 23.707 22.2928L1.707 0.292762C1.316 -0.0982383 0.682997 -0.0982383 0.292997 0.292762C-0.0970028 0.683762 -0.0980028 1.31676 0.292997 1.70676Z" fill="black"/>
</g>
<defs>
<clipPath id="clip0_2611_492">
<rect width="24" height="24" fill="white"/>
</clipPath>
</defs>
</svg>
