<svg width="24" height="24" viewBox="0 0 24 24" fill="none" xmlns="http://www.w3.org/2000/svg">
<path d="M11.585 5.25993L11.008 9.87593C11.041 10.5919 11.473 10.9999 12 10.9999H18.865L12.415 18.7399L12.992 14.1239C12.959 13.4079 12.527 12.9999 12 12.9999H5.13503L11.585 5.25993ZM12.232 1.35993L2.23203 13.3599C1.87803 13.7839 1.93603 14.4149 2.36003 14.7679C2.54703 14.9249 2.77503 15.0009 3.00003 14.9999H10.867L10.008 21.8759C9.93903 22.4239 10.328 22.9239 10.876 22.9919C11.225 23.0359 11.554 22.8939 11.768 22.6399L21.768 10.6399C22.122 10.2159 22.064 9.58493 21.64 9.23193C21.453 9.07493 21.225 8.99893 21 8.99993H13.133L13.992 2.12393C14.061 1.57593 13.672 1.07593 13.124 1.00793C12.775 0.963933 12.446 1.10593 12.232 1.35993Z" fill="black"/>
</svg>
