<svg width="31" height="27" viewBox="0 0 31 27" fill="none" xmlns="http://www.w3.org/2000/svg">
<path d="M27.4583 20.5833H3.54167C1.65737 20.5833 0.125 21.8541 0.125 23.4167C0.125 24.9792 1.65737 26.25 3.54167 26.25H27.4583C29.3426 26.25 30.875 24.9792 30.875 23.4167C30.875 21.8541 29.3426 20.5833 27.4583 20.5833ZM27.4583 10.6667H3.54167C1.65737 10.6667 0.125 11.9374 0.125 13.5C0.125 15.0626 1.65737 16.3333 3.54167 16.3333H27.4583C29.3426 16.3333 30.875 15.0626 30.875 13.5C30.875 11.9374 29.3426 10.6667 27.4583 10.6667ZM27.4583 0.75H3.54167C1.65737 0.75 0.125 2.02075 0.125 3.58333C0.125 5.14592 1.65737 6.41667 3.54167 6.41667H27.4583C29.3426 6.41667 30.875 5.14592 30.875 3.58333C30.875 2.02075 29.3426 0.75 27.4583 0.75Z" fill="#00A218"/>
</svg>
