<svg width="24" height="24" viewBox="0 0 24 24" fill="none" xmlns="http://www.w3.org/2000/svg">
<path d="M2.25 20.25H15.75" stroke="#191C1F" stroke-width="1.5" stroke-linecap="round" stroke-linejoin="round"/>
<path d="M1.58443 13.1625L5.11881 16.4719C5.59008 16.9137 6.19135 17.1915 6.83321 17.2642C7.47508 17.3368 8.12324 17.2003 8.68131 16.875L22.8751 8.62502L21.1313 6.48752C20.6777 5.93352 20.0409 5.56003 19.336 5.43452C18.6311 5.30901 17.9045 5.43976 17.2876 5.80315L13.1251 8.25002L7.50006 6.37502L5.95318 7.04065C5.83745 7.09024 5.73607 7.16818 5.65839 7.26726C5.5807 7.36635 5.52921 7.48339 5.50867 7.60761C5.48812 7.73183 5.49917 7.85923 5.54081 7.97805C5.58245 8.09687 5.65334 8.2033 5.74693 8.28752L8.62506 10.875L6.00006 12.375L3.37506 11.25L1.80006 11.925C1.68547 11.9742 1.58497 12.0513 1.50764 12.1491C1.43032 12.247 1.37861 12.3625 1.3572 12.4854C1.33579 12.6083 1.34536 12.7345 1.38504 12.8527C1.42471 12.971 1.49325 13.0774 1.58443 13.1625V13.1625Z" stroke="#191C1F" stroke-width="1.5" stroke-linecap="round" stroke-linejoin="round"/>
</svg>
