<svg width="24" height="24" viewBox="0 0 24 24" fill="none" xmlns="http://www.w3.org/2000/svg">
<path d="M9 20.25H22.5" stroke="#191C1F" stroke-width="1.5" stroke-linecap="round" stroke-linejoin="round"/>
<path d="M2.25 9.72184V4.79059C2.24999 4.67199 2.27811 4.55509 2.33204 4.44946C2.38597 4.34384 2.46418 4.25251 2.56025 4.18298C2.65632 4.11344 2.76751 4.06768 2.8847 4.04944C3.00188 4.03121 3.12172 4.04103 3.23438 4.07809L4.5 4.49996L6 7.31246L9 8.24996V4.79059C8.99999 4.67199 9.02811 4.55509 9.08204 4.44946C9.13597 4.34384 9.21418 4.25251 9.31025 4.18298C9.40632 4.11344 9.51751 4.06768 9.6347 4.04944C9.75188 4.03121 9.87172 4.04103 9.98438 4.07809L11.25 4.49996L14.25 9.74996L18.8063 11.0156C19.4377 11.1902 19.9944 11.5672 20.3907 12.0889C20.787 12.6106 21.0011 13.2479 21 13.9031V17.25L4.44375 12.6093C3.8123 12.4348 3.25563 12.0577 2.8593 11.536C2.46297 11.0144 2.24891 10.377 2.25 9.72184V9.72184Z" stroke="#191C1F" stroke-width="1.5" stroke-linecap="round" stroke-linejoin="round"/>
</svg>
