<svg width="24" height="24" viewBox="0 0 24 24" fill="none" xmlns="http://www.w3.org/2000/svg">
<path fill-rule="evenodd" clip-rule="evenodd" d="M3 4.5C3.41421 4.5 3.75 4.83579 3.75 5.25V18.75C3.75 19.1642 3.41421 19.5 3 19.5C2.58579 19.5 2.25 19.1642 2.25 18.75V5.25C2.25 4.83579 2.58579 4.5 3 4.5Z" fill="#191C1F"/>
<path fill-rule="evenodd" clip-rule="evenodd" d="M5.25 9C5.25 8.17157 5.92157 7.5 6.75 7.5H21C21.8284 7.5 22.5 8.17157 22.5 9V15C22.5 15.8284 21.8284 16.5 21 16.5H6.75C5.92157 16.5 5.25 15.8284 5.25 15V9ZM21 9H6.75V15H21V9Z" fill="#191C1F"/>
</svg>
