<svg width="24" height="24" viewBox="0 0 24 24" fill="none" xmlns="http://www.w3.org/2000/svg">
<path fill-rule="evenodd" clip-rule="evenodd" d="M4.5 3C4.5 2.58579 4.83579 2.25 5.25 2.25H18.75C19.1642 2.25 19.5 2.58579 19.5 3C19.5 3.41421 19.1642 3.75 18.75 3.75H5.25C4.83579 3.75 4.5 3.41421 4.5 3Z" fill="#191C1F"/>
<path fill-rule="evenodd" clip-rule="evenodd" d="M7.5 6.75C7.5 5.92157 8.17157 5.25 9 5.25H15C15.8284 5.25 16.5 5.92157 16.5 6.75V21C16.5 21.8284 15.8284 22.5 15 22.5H9C8.17157 22.5 7.5 21.8284 7.5 21V6.75ZM15 6.75H9V21H15V6.75Z" fill="#191C1F"/>
</svg>
