<svg width="24" height="24" viewBox="0 0 24 24" fill="none" xmlns="http://www.w3.org/2000/svg">
<path fill-rule="evenodd" clip-rule="evenodd" d="M21 4.5C21.4142 4.5 21.75 4.83579 21.75 5.25V18.75C21.75 19.1642 21.4142 19.5 21 19.5C20.5858 19.5 20.25 19.1642 20.25 18.75V5.25C20.25 4.83579 20.5858 4.5 21 4.5Z" fill="#191C1F"/>
<path fill-rule="evenodd" clip-rule="evenodd" d="M1.5 9C1.5 8.17157 2.17157 7.5 3 7.5H17.25C18.0784 7.5 18.75 8.17157 18.75 9V15C18.75 15.8284 18.0784 16.5 17.25 16.5H3C2.17157 16.5 1.5 15.8284 1.5 15V9ZM17.25 9H3V15H17.25V9Z" fill="#191C1F"/>
</svg>
