<svg width="24" height="24" viewBox="0 0 24 24" fill="none" xmlns="http://www.w3.org/2000/svg">
<path fill-rule="evenodd" clip-rule="evenodd" d="M3 9C3 8.17157 3.67157 7.5 4.5 7.5H19.5C20.3284 7.5 21 8.17157 21 9V15C21 15.8284 20.3284 16.5 19.5 16.5H4.5C3.67157 16.5 3 15.8284 3 15V9ZM19.5 9H4.5V15H19.5V9Z" fill="#191C1F"/>
<path fill-rule="evenodd" clip-rule="evenodd" d="M12 3.75C12.4142 3.75 12.75 4.08579 12.75 4.5V8.25C12.75 8.66421 12.4142 9 12 9C11.5858 9 11.25 8.66421 11.25 8.25V4.5C11.25 4.08579 11.5858 3.75 12 3.75Z" fill="#191C1F"/>
<path fill-rule="evenodd" clip-rule="evenodd" d="M12 15C12.4142 15 12.75 15.3358 12.75 15.75V19.5C12.75 19.9142 12.4142 20.25 12 20.25C11.5858 20.25 11.25 19.9142 11.25 19.5V15.75C11.25 15.3358 11.5858 15 12 15Z" fill="#191C1F"/>
</svg>
