<svg width="24" height="24" viewBox="0 0 24 24" fill="none" xmlns="http://www.w3.org/2000/svg">
<path fill-rule="evenodd" clip-rule="evenodd" d="M18 12C18 11.5858 18.3358 11.25 18.75 11.25H21C21.4142 11.25 21.75 11.5858 21.75 12C21.75 12.4142 21.4142 12.75 21 12.75H18.75C18.3358 12.75 18 12.4142 18 12Z" fill="#191C1F"/>
<path fill-rule="evenodd" clip-rule="evenodd" d="M2.25 12C2.25 11.5858 2.58579 11.25 3 11.25H5.25C5.66421 11.25 6 11.5858 6 12C6 12.4142 5.66421 12.75 5.25 12.75H3C2.58579 12.75 2.25 12.4142 2.25 12Z" fill="#191C1F"/>
<path fill-rule="evenodd" clip-rule="evenodd" d="M9.75 12C9.75 11.5858 10.0858 11.25 10.5 11.25H13.5C13.9142 11.25 14.25 11.5858 14.25 12C14.25 12.4142 13.9142 12.75 13.5 12.75H10.5C10.0858 12.75 9.75 12.4142 9.75 12Z" fill="#191C1F"/>
<path fill-rule="evenodd" clip-rule="evenodd" d="M18 5.25C18.8284 5.25 19.5 5.92157 19.5 6.75V17.25C19.5 18.0784 18.8284 18.75 18 18.75H14.25C13.4216 18.75 12.75 18.0784 12.75 17.25V6.75C12.75 5.92157 13.4216 5.25 14.25 5.25H18ZM18 17.25V6.75H14.25V17.25H18Z" fill="#191C1F"/>
<path fill-rule="evenodd" clip-rule="evenodd" d="M4.5 4.5C4.5 3.67157 5.17157 3 6 3H9.75C10.5784 3 11.25 3.67157 11.25 4.5V19.5C11.25 20.3284 10.5784 21 9.75 21H6C5.17157 21 4.5 20.3284 4.5 19.5V4.5ZM9.75 4.5H6V19.5H9.75V4.5Z" fill="#191C1F"/>
</svg>
