<svg width="24" height="24" viewBox="0 0 24 24" fill="none" xmlns="http://www.w3.org/2000/svg">
<path fill-rule="evenodd" clip-rule="evenodd" d="M4.5 21.75C4.5 21.3358 4.83579 21 5.25 21H18.75C19.1642 21 19.5 21.3358 19.5 21.75C19.5 22.1642 19.1642 22.5 18.75 22.5H5.25C4.83579 22.5 4.5 22.1642 4.5 21.75Z" fill="#191C1F"/>
<path fill-rule="evenodd" clip-rule="evenodd" d="M7.5 3.75C7.5 2.92157 8.17157 2.25 9 2.25H15C15.8284 2.25 16.5 2.92157 16.5 3.75V18C16.5 18.8284 15.8284 19.5 15 19.5H9C8.17157 19.5 7.5 18.8284 7.5 18V3.75ZM15 3.75H9V18H15V3.75Z" fill="#191C1F"/>
</svg>
