<svg width="24" height="24" viewBox="0 0 24 24" fill="none" xmlns="http://www.w3.org/2000/svg">
<path fill-rule="evenodd" clip-rule="evenodd" d="M3 3.75C3 3.33579 3.33579 3 3.75 3H20.25C20.6642 3 21 3.33579 21 3.75C21 4.16421 20.6642 4.5 20.25 4.5H3.75C3.33579 4.5 3 4.16421 3 3.75Z" fill="#191C1F"/>
<path fill-rule="evenodd" clip-rule="evenodd" d="M18 6C18.8284 6 19.5 6.67157 19.5 7.5V16.5C19.5 17.3284 18.8284 18 18 18H14.25C13.4216 18 12.75 17.3284 12.75 16.5V7.5C12.75 6.67157 13.4216 6 14.25 6H18ZM18 16.5V7.5H14.25V16.5H18Z" fill="#191C1F"/>
<path fill-rule="evenodd" clip-rule="evenodd" d="M4.5 7.5C4.5 6.67157 5.17157 6 6 6H9.75C10.5784 6 11.25 6.67157 11.25 7.5V20.25C11.25 21.0784 10.5784 21.75 9.75 21.75H6C5.17157 21.75 4.5 21.0784 4.5 20.25V7.5ZM9.75 7.5H6V20.25H9.75V7.5Z" fill="#191C1F"/>
</svg>
