<svg width="24" height="24" viewBox="0 0 24 24" fill="none" xmlns="http://www.w3.org/2000/svg">
<path fill-rule="evenodd" clip-rule="evenodd" d="M7.5 4.5C7.5 3.67157 8.17157 3 9 3H15C15.8284 3 16.5 3.67157 16.5 4.5V19.5C16.5 20.3284 15.8284 21 15 21H9C8.17157 21 7.5 20.3284 7.5 19.5V4.5ZM15 4.5H9V19.5H15V4.5Z" fill="#191C1F"/>
<path fill-rule="evenodd" clip-rule="evenodd" d="M15 12C15 11.5858 15.3358 11.25 15.75 11.25H19.5C19.9142 11.25 20.25 11.5858 20.25 12C20.25 12.4142 19.9142 12.75 19.5 12.75H15.75C15.3358 12.75 15 12.4142 15 12Z" fill="#191C1F"/>
<path fill-rule="evenodd" clip-rule="evenodd" d="M3.75 12C3.75 11.5858 4.08579 11.25 4.5 11.25H8.25C8.66421 11.25 9 11.5858 9 12C9 12.4142 8.66421 12.75 8.25 12.75H4.5C4.08579 12.75 3.75 12.4142 3.75 12Z" fill="#191C1F"/>
</svg>
