<svg width="24" height="24" viewBox="0 0 24 24" fill="none" xmlns="http://www.w3.org/2000/svg">
<path fill-rule="evenodd" clip-rule="evenodd" d="M3 20.25C3 19.8358 3.33579 19.5 3.75 19.5H20.25C20.6642 19.5 21 19.8358 21 20.25C21 20.6642 20.6642 21 20.25 21H3.75C3.33579 21 3 20.6642 3 20.25Z" fill="#191C1F"/>
<path fill-rule="evenodd" clip-rule="evenodd" d="M14.25 18C13.4216 18 12.75 17.3284 12.75 16.5V7.5C12.75 6.67157 13.4216 6 14.25 6H18C18.8284 6 19.5 6.67157 19.5 7.5V16.5C19.5 17.3284 18.8284 18 18 18H14.25ZM14.25 7.5V16.5H18V7.5H14.25Z" fill="#191C1F"/>
<path fill-rule="evenodd" clip-rule="evenodd" d="M4.5 3.75C4.5 2.92157 5.17157 2.25 6 2.25H9.75C10.5784 2.25 11.25 2.92157 11.25 3.75V16.5C11.25 17.3284 10.5784 18 9.75 18H6C5.17157 18 4.5 17.3284 4.5 16.5V3.75ZM9.75 3.75H6V16.5H9.75V3.75Z" fill="#191C1F"/>
</svg>
