<svg width="24" height="24" viewBox="0 0 24 24" fill="none" xmlns="http://www.w3.org/2000/svg">
<path d="M15.375 15.75C15.9963 15.75 16.5 15.2463 16.5 14.625C16.5 14.0037 15.9963 13.5 15.375 13.5C14.7537 13.5 14.25 14.0037 14.25 14.625C14.25 15.2463 14.7537 15.75 15.375 15.75Z" fill="#191C1F"/>
<path d="M8.625 15.75C9.24632 15.75 9.75 15.2463 9.75 14.625C9.75 14.0037 9.24632 13.5 8.625 13.5C8.00368 13.5 7.5 14.0037 7.5 14.625C7.5 15.2463 8.00368 15.75 8.625 15.75Z" fill="#191C1F"/>
<path d="M2.25 18V15.8531C2.25 10.4625 6.58125 6.0187 11.9625 5.99995C13.246 5.99501 14.5179 6.24356 15.7052 6.73133C16.8924 7.21911 17.9717 7.9365 18.881 8.84237C19.7904 9.74823 20.5119 10.8247 21.0043 12.0101C21.4966 13.1955 21.75 14.4664 21.75 15.75V18C21.75 18.1989 21.671 18.3896 21.5303 18.5303C21.3897 18.6709 21.1989 18.75 21 18.75H3C2.80109 18.75 2.61032 18.6709 2.46967 18.5303C2.32902 18.3896 2.25 18.1989 2.25 18Z" stroke="#191C1F" stroke-width="1.5" stroke-linecap="round" stroke-linejoin="round"/>
<path d="M3 5.25L5.91562 8.16562" stroke="#191C1F" stroke-width="1.5" stroke-linecap="round" stroke-linejoin="round"/>
<path d="M21 5.25L18.1031 8.14688" stroke="#191C1F" stroke-width="1.5" stroke-linecap="round" stroke-linejoin="round"/>
</svg>
