<svg width="24" height="24" viewBox="0 0 24 24" fill="none" xmlns="http://www.w3.org/2000/svg">
<path d="M12 13.5C13.2426 13.5 14.25 12.4926 14.25 11.25C14.25 10.0074 13.2426 9 12 9C10.7574 9 9.75 10.0074 9.75 11.25C9.75 12.4926 10.7574 13.5 12 13.5Z" stroke="#191C1F" stroke-width="1.5" stroke-linecap="round" stroke-linejoin="round"/>
<path d="M12.2719 21H11.7281C11.3807 21.0001 11.044 20.8795 10.7756 20.659C10.5071 20.4384 10.3236 20.1315 10.2562 19.7906L9.35624 15.2906C9.3133 15.0732 9.31908 14.8489 9.37317 14.634C9.42725 14.419 9.5283 14.2187 9.66905 14.0475C9.8098 13.8763 9.98674 13.7384 10.1872 13.6437C10.3876 13.549 10.6065 13.5 10.8281 13.5H13.1719C13.3935 13.5 13.6124 13.549 13.8128 13.6437C14.0132 13.7384 14.1902 13.8763 14.3309 14.0475C14.4717 14.2187 14.5727 14.419 14.6268 14.634C14.6809 14.8489 14.6867 15.0732 14.6437 15.2906L13.7437 19.7906C13.6764 20.1315 13.4929 20.4384 13.2244 20.659C12.956 20.8795 12.6193 21.0001 12.2719 21V21Z" stroke="#191C1F" stroke-width="1.5" stroke-linecap="round" stroke-linejoin="round"/>
<path d="M6.40313 14.175C6.05195 13.266 5.92748 12.2851 6.04047 11.3171C6.15346 10.3492 6.50051 9.42337 7.05162 8.61966C7.60272 7.81596 8.3413 7.15859 9.20348 6.70438C10.0657 6.25018 11.0255 6.01282 12 6.01282C12.9745 6.01282 13.9343 6.25018 14.7965 6.70438C15.6587 7.15859 16.3973 7.81596 16.9484 8.61966C17.4995 9.42337 17.8465 10.3492 17.9595 11.3171C18.0725 12.2851 17.948 13.266 17.5969 14.175" stroke="#191C1F" stroke-width="1.5" stroke-linecap="round" stroke-linejoin="round"/>
<path d="M7.1625 19.5844C5.52031 18.5376 4.26194 16.9865 3.57628 15.1637C2.89063 13.341 2.81468 11.3451 3.35985 9.47551C3.90502 7.60595 5.04188 5.96366 6.59979 4.79516C8.15769 3.62666 10.0526 2.995 12 2.995C13.9474 2.995 15.8423 3.62666 17.4002 4.79516C18.9581 5.96366 20.095 7.60595 20.6401 9.47551C21.1853 11.3451 21.1094 13.341 20.4237 15.1637C19.7381 16.9865 18.4797 18.5376 16.8375 19.5844" stroke="#191C1F" stroke-width="1.5" stroke-linecap="round" stroke-linejoin="round"/>
</svg>
