<svg width="24" height="24" viewBox="0 0 24 24" fill="none" xmlns="http://www.w3.org/2000/svg">
<path d="M12.9469 3.04688C13.1649 2.48063 13.5496 1.99382 14.05 1.6507C14.5505 1.30758 15.1432 1.12429 15.75 1.125" stroke="#191C1F" stroke-width="1.5" stroke-linecap="round" stroke-linejoin="round"/>
<path d="M20.4844 15.2718C19.3031 18.1593 17.1656 20.2499 15.375 20.2499H8.625C6 20.2499 2.625 15.7499 2.625 10.8749C2.62539 9.78925 2.93996 8.72687 3.53076 7.816C4.12156 6.90513 4.96334 6.1847 5.95452 5.74164C6.94569 5.29858 8.04391 5.15184 9.11664 5.31911C10.1894 5.48638 11.1908 5.96052 12 6.68432V6.68432C12.5728 6.17115 13.2448 5.78088 13.9743 5.53765C14.7039 5.29441 15.4756 5.20337 16.2418 5.27015C17.008 5.33692 17.7523 5.5601 18.4288 5.92588C19.1053 6.29167 19.6996 6.79229 20.175 7.39682V7.39682C19.486 7.81288 18.9211 8.40613 18.5394 9.11474C18.1576 9.82335 17.9729 10.6214 18.0045 11.4257C18.0361 12.2299 18.2829 13.011 18.719 13.6875C19.1552 14.364 19.7648 14.9111 20.4844 15.2718V15.2718Z" stroke="#191C1F" stroke-width="1.5" stroke-linecap="round" stroke-linejoin="round"/>
</svg>
