<svg width="24" height="24" viewBox="0 0 24 24" fill="none" xmlns="http://www.w3.org/2000/svg">
<path d="M20.25 4.5H3.75C3.33579 4.5 3 4.83579 3 5.25V18.75C3 19.1642 3.33579 19.5 3.75 19.5H20.25C20.6642 19.5 21 19.1642 21 18.75V5.25C21 4.83579 20.6642 4.5 20.25 4.5Z" stroke="#191C1F" stroke-width="1.5" stroke-linecap="round" stroke-linejoin="round"/>
<path d="M6.375 9C6.99632 9 7.5 8.49632 7.5 7.875C7.5 7.25368 6.99632 6.75 6.375 6.75C5.75368 6.75 5.25 7.25368 5.25 7.875C5.25 8.49632 5.75368 9 6.375 9Z" fill="#191C1F"/>
<path d="M10.125 9C10.7463 9 11.25 8.49632 11.25 7.875C11.25 7.25368 10.7463 6.75 10.125 6.75C9.50368 6.75 9 7.25368 9 7.875C9 8.49632 9.50368 9 10.125 9Z" fill="#191C1F"/>
</svg>
