<svg width="24" height="24" viewBox="0 0 24 24" fill="none" xmlns="http://www.w3.org/2000/svg">
<path d="M19.5 3.75H4.5C4.08579 3.75 3.75 4.08579 3.75 4.5V19.5C3.75 19.9142 4.08579 20.25 4.5 20.25H19.5C19.9142 20.25 20.25 19.9142 20.25 19.5V4.5C20.25 4.08579 19.9142 3.75 19.5 3.75Z" stroke="#191C1F" stroke-width="1.5" stroke-linecap="round" stroke-linejoin="round"/>
<path d="M8.82178 11.0719L11.9999 14.25L15.178 11.0719" stroke="#191C1F" stroke-width="1.5" stroke-linecap="round" stroke-linejoin="round"/>
<path d="M12 6.75V14.25" stroke="#191C1F" stroke-width="1.5" stroke-linecap="round" stroke-linejoin="round"/>
<path d="M3.75 15H7.19062C7.28801 14.9997 7.38451 15.0185 7.4746 15.0555C7.56469 15.0925 7.64659 15.1469 7.71563 15.2156L9.53437 17.0344C9.60341 17.1031 9.68531 17.1575 9.7754 17.1945C9.86549 17.2315 9.96199 17.2503 10.0594 17.25H13.9406C14.038 17.2503 14.1345 17.2315 14.2246 17.1945C14.3147 17.1575 14.3966 17.1031 14.4656 17.0344L16.2844 15.2156C16.3534 15.1469 16.4353 15.0925 16.5254 15.0555C16.6155 15.0185 16.712 14.9997 16.8094 15H20.25" stroke="#191C1F" stroke-width="1.5" stroke-linecap="round" stroke-linejoin="round"/>
</svg>
