<svg width="24" height="24" viewBox="0 0 24 24" fill="none" xmlns="http://www.w3.org/2000/svg">
<path fill-rule="evenodd" clip-rule="evenodd" d="M12.463 2.30711C12.7432 2.19103 13.0658 2.25519 13.2803 2.46969L22.2803 11.4697C22.5732 11.7626 22.5732 12.2375 22.2803 12.5304L13.2803 21.5304C13.0658 21.7449 12.7432 21.809 12.463 21.6929C12.1827 21.5768 12 21.3034 12 21V17.25H4.5C4.10218 17.25 3.72065 17.092 3.43934 16.8107C3.15804 16.5294 3 16.1478 3 15.75V8.25002C3 7.8522 3.15804 7.47067 3.43934 7.18936C3.72064 6.90806 4.10217 6.75002 4.5 6.75002H12V3.00002C12 2.69668 12.1827 2.4232 12.463 2.30711ZM13.5 4.81068V7.50002C13.5 7.91424 13.1642 8.25002 12.75 8.25002H4.5L4.5 15.75H12.75C13.1642 15.75 13.5 16.0858 13.5 16.5V19.1894L20.6893 12L13.5 4.81068Z" fill="#191C1F"/>
</svg>
