<svg width="24" height="24" viewBox="0 0 24 24" fill="none" xmlns="http://www.w3.org/2000/svg">
<path fill-rule="evenodd" clip-rule="evenodd" d="M19.5 3C20.3284 3 21 3.67157 21 4.5V19.5C21 20.3284 20.3284 21 19.5 21H4.5C3.67157 21 3 20.3284 3 19.5V4.5C3 3.67157 3.67157 3 4.5 3L19.5 3ZM19.5 19.5V4.5L4.5 4.5V19.5H19.5Z" fill="#191C1F"/>
<path fill-rule="evenodd" clip-rule="evenodd" d="M11.9585 8.29157C12.2513 8.58446 12.2513 9.05934 11.9585 9.35223L9.31066 12L11.9585 14.6478C12.2513 14.9407 12.2513 15.4156 11.9585 15.7085C11.6656 16.0014 11.1907 16.0014 10.8978 15.7085L7.71967 12.5304C7.57902 12.3897 7.5 12.1989 7.5 12C7.5 11.8011 7.57902 11.6103 7.71967 11.4697L10.8978 8.29157C11.1907 7.99868 11.6656 7.99868 11.9585 8.29157Z" fill="#191C1F"/>
<path fill-rule="evenodd" clip-rule="evenodd" d="M7.5 12C7.5 11.5858 7.83579 11.25 8.25 11.25H15.75C16.1642 11.25 16.5 11.5858 16.5 12C16.5 12.4142 16.1642 12.75 15.75 12.75H8.25C7.83579 12.75 7.5 12.4142 7.5 12Z" fill="#191C1F"/>
</svg>
