<svg width="24" height="24" viewBox="0 0 24 24" fill="none" xmlns="http://www.w3.org/2000/svg">
<path fill-rule="evenodd" clip-rule="evenodd" d="M11.537 2.30711C11.8173 2.4232 12 2.69668 12 3.00002V6.75002H17.25C17.6642 6.75002 18 7.08581 18 7.50002V16.5C18 16.9142 17.6642 17.25 17.25 17.25H12V21C12 21.3034 11.8173 21.5768 11.537 21.6929C11.2568 21.809 10.9342 21.7449 10.7197 21.5304L1.71967 12.5304C1.42678 12.2375 1.42678 11.7626 1.71967 11.4697L10.7197 2.46969C10.9342 2.25519 11.2568 2.19103 11.537 2.30711ZM3.31066 12L10.5 19.1894V16.5C10.5 16.0858 10.8358 15.75 11.25 15.75H16.5V8.25002H11.25C10.8358 8.25002 10.5 7.91424 10.5 7.50002V4.81068L3.31066 12Z" fill="#191C1F"/>
<path fill-rule="evenodd" clip-rule="evenodd" d="M20.25 6.75C20.6642 6.75 21 7.08579 21 7.5V16.5C21 16.9142 20.6642 17.25 20.25 17.25C19.8358 17.25 19.5 16.9142 19.5 16.5V7.5C19.5 7.08579 19.8358 6.75 20.25 6.75Z" fill="#191C1F"/>
</svg>
