<svg width="24" height="24" viewBox="0 0 24 24" fill="none" xmlns="http://www.w3.org/2000/svg">
<path fill-rule="evenodd" clip-rule="evenodd" d="M14.4697 11.4697C14.7626 11.1768 15.2374 11.1768 15.5303 11.4697L20.0303 15.9697C20.3232 16.2626 20.3232 16.7374 20.0303 17.0303L15.5303 21.5303C15.2374 21.8232 14.7626 21.8232 14.4697 21.5303C14.1768 21.2374 14.1768 20.7626 14.4697 20.4697L18.4393 16.5L14.4697 12.5303C14.1768 12.2374 14.1768 11.7626 14.4697 11.4697Z" fill="#191C1F"/>
<path fill-rule="evenodd" clip-rule="evenodd" d="M6 2.25C6.41421 2.25 6.75 2.58579 6.75 3V15.75H19.5C19.9142 15.75 20.25 16.0858 20.25 16.5C20.25 16.9142 19.9142 17.25 19.5 17.25H6C5.58579 17.25 5.25 16.9142 5.25 16.5V3C5.25 2.58579 5.58579 2.25 6 2.25Z" fill="#191C1F"/>
</svg>
