<svg width="24" height="24" viewBox="0 0 24 24" fill="none" xmlns="http://www.w3.org/2000/svg">
<path fill-rule="evenodd" clip-rule="evenodd" d="M2.63438 7.13437C3.04859 7.13437 3.38438 7.47016 3.38438 7.88437V13.1344H8.63438C9.04859 13.1344 9.38438 13.4702 9.38438 13.8844C9.38438 14.2986 9.04859 14.6344 8.63438 14.6344H2.63438C2.22016 14.6344 1.88438 14.2986 1.88438 13.8844V7.88437C1.88438 7.47016 2.22016 7.13437 2.63438 7.13437Z" fill="#191C1F"/>
<path fill-rule="evenodd" clip-rule="evenodd" d="M10.0969 7.68422C11.9887 7.30771 13.9496 7.5008 15.7317 8.23905C17.5137 8.97731 19.0367 10.2275 20.108 11.8316C21.1793 13.4356 21.7507 15.3214 21.75 17.2503C21.7498 17.6645 21.4139 18.0002 20.9997 18C20.5855 17.9999 20.2498 17.6639 20.25 17.2497C20.2506 15.6176 19.7671 14.0219 18.8606 12.6647C17.9541 11.3074 16.6654 10.2495 15.1576 9.62484C13.6497 9.00017 11.9904 8.83679 10.3897 9.15537C8.78892 9.47395 7.31864 10.2602 6.16485 11.4146L3.16471 14.4147C2.87181 14.7076 2.39694 14.7076 2.10405 14.4147C1.81115 14.1218 1.81115 13.6469 2.10405 13.3541L5.10391 10.3542C5.10386 10.3542 5.10395 10.3541 5.10391 10.3542C6.46746 8.98998 8.20515 8.06071 10.0969 7.68422Z" fill="#191C1F"/>
</svg>
