<svg width="24" height="24" viewBox="0 0 24 24" fill="none" xmlns="http://www.w3.org/2000/svg">
<path fill-rule="evenodd" clip-rule="evenodd" d="M3 4.5C3 3.67157 3.67157 3 4.5 3H19.5C20.3284 3 21 3.67157 21 4.5V19.5C21 20.3284 20.3284 21 19.5 21H4.5C3.67157 21 3 20.3284 3 19.5V4.5ZM19.5 4.5H4.5V19.5H19.5V4.5Z" fill="#191C1F"/>
<path fill-rule="evenodd" clip-rule="evenodd" d="M8.29154 12.0416C8.58443 11.7487 9.05931 11.7487 9.3522 12.0416L12 14.6894L14.6478 12.0416C14.9407 11.7487 15.4156 11.7487 15.7084 12.0416C16.0013 12.3345 16.0013 12.8093 15.7084 13.1022L12.5303 16.2804C12.2374 16.5732 11.7626 16.5732 11.4697 16.2804L8.29154 13.1022C7.99865 12.8093 7.99865 12.3345 8.29154 12.0416Z" fill="#191C1F"/>
<path fill-rule="evenodd" clip-rule="evenodd" d="M12 7.5C12.4142 7.5 12.75 7.83579 12.75 8.25V15.75C12.75 16.1642 12.4142 16.5 12 16.5C11.5858 16.5 11.25 16.1642 11.25 15.75V8.25C11.25 7.83579 11.5858 7.5 12 7.5Z" fill="#191C1F"/>
</svg>
