<svg width="24" height="24" viewBox="0 0 24 24" fill="none" xmlns="http://www.w3.org/2000/svg">
<path fill-rule="evenodd" clip-rule="evenodd" d="M14.25 4.5C14.6642 4.5 15 4.83579 15 5.25V9H18.75C19.1642 9 19.5 9.33579 19.5 9.75C19.5 10.1642 19.1642 10.5 18.75 10.5H14.25C13.8358 10.5 13.5 10.1642 13.5 9.75V5.25C13.5 4.83579 13.8358 4.5 14.25 4.5Z" fill="#191C1F"/>
<path fill-rule="evenodd" clip-rule="evenodd" d="M20.0303 3.96967C20.3232 4.26256 20.3232 4.73744 20.0303 5.03033L14.7803 10.2803C14.4874 10.5732 14.0126 10.5732 13.7197 10.2803C13.4268 9.98744 13.4268 9.51256 13.7197 9.21967L18.9697 3.96967C19.2626 3.67678 19.7374 3.67678 20.0303 3.96967Z" fill="#191C1F"/>
<path fill-rule="evenodd" clip-rule="evenodd" d="M4.5 14.25C4.5 13.8358 4.83579 13.5 5.25 13.5H9.75C10.1642 13.5 10.5 13.8358 10.5 14.25V18.75C10.5 19.1642 10.1642 19.5 9.75 19.5C9.33579 19.5 9 19.1642 9 18.75V15H5.25C4.83579 15 4.5 14.6642 4.5 14.25Z" fill="#191C1F"/>
<path fill-rule="evenodd" clip-rule="evenodd" d="M10.2803 13.7197C10.5732 14.0126 10.5732 14.4874 10.2803 14.7803L5.03033 20.0303C4.73744 20.3232 4.26256 20.3232 3.96967 20.0303C3.67678 19.7374 3.67678 19.2626 3.96967 18.9697L9.21967 13.7197C9.51256 13.4268 9.98744 13.4268 10.2803 13.7197Z" fill="#191C1F"/>
</svg>
