<svg width="24" height="24" viewBox="0 0 24 24" fill="none" xmlns="http://www.w3.org/2000/svg">
<path fill-rule="evenodd" clip-rule="evenodd" d="M3.21967 15.9697C3.51256 15.6768 3.98744 15.6768 4.28033 15.9697L8.25 19.9393L12.2197 15.9697C12.5126 15.6768 12.9874 15.6768 13.2803 15.9697C13.5732 16.2626 13.5732 16.7374 13.2803 17.0303L8.78033 21.5303C8.48744 21.8232 8.01256 21.8232 7.71967 21.5303L3.21967 17.0303C2.92678 16.7374 2.92678 16.2626 3.21967 15.9697Z" fill="#191C1F"/>
<path fill-rule="evenodd" clip-rule="evenodd" d="M9.25736 4.00736C10.3826 2.88214 11.9087 2.25 13.5 2.25C15.0913 2.25 16.6174 2.88214 17.7426 4.00736C18.8679 5.13258 19.5 6.6587 19.5 8.25V16.5C19.5 16.9142 19.1642 17.25 18.75 17.25C18.3358 17.25 18 16.9142 18 16.5V8.25C18 7.05653 17.5259 5.91193 16.682 5.06802C15.8381 4.22411 14.6935 3.75 13.5 3.75C12.3065 3.75 11.1619 4.22411 10.318 5.06802C9.47411 5.91193 9 7.05653 9 8.25V21C9 21.4142 8.66421 21.75 8.25 21.75C7.83579 21.75 7.5 21.4142 7.5 21V8.25C7.5 6.6587 8.13214 5.13258 9.25736 4.00736Z" fill="#191C1F"/>
</svg>
