<svg width="24" height="24" viewBox="0 0 24 24" fill="none" xmlns="http://www.w3.org/2000/svg">
<path fill-rule="evenodd" clip-rule="evenodd" d="M4.71967 15.9697C5.01256 15.6768 5.48744 15.6768 5.78033 15.9697L9.75 19.9393L13.7197 15.9697C14.0126 15.6768 14.4874 15.6768 14.7803 15.9697C15.0732 16.2626 15.0732 16.7374 14.7803 17.0303L10.2803 21.5303C9.98744 21.8232 9.51256 21.8232 9.21967 21.5303L4.71967 17.0303C4.42678 16.7374 4.42678 16.2626 4.71967 15.9697Z" fill="#191C1F"/>
<path fill-rule="evenodd" clip-rule="evenodd" d="M11.8557 5.10571C13.6842 3.27723 16.1641 2.25 18.75 2.25C19.1642 2.25 19.5 2.58579 19.5 3C19.5 3.41421 19.1642 3.75 18.75 3.75C16.562 3.75 14.4635 4.61919 12.9164 6.16637C11.3692 7.71354 10.5 9.81196 10.5 12V21C10.5 21.4142 10.1642 21.75 9.75 21.75C9.33579 21.75 9 21.4142 9 21V12C9 9.41414 10.0272 6.93419 11.8557 5.10571Z" fill="#191C1F"/>
</svg>
