<svg width="24" height="24" viewBox="0 0 24 24" fill="none" xmlns="http://www.w3.org/2000/svg">
<path fill-rule="evenodd" clip-rule="evenodd" d="M12 3.75C7.44365 3.75 3.75 7.44365 3.75 12C3.75 16.5563 7.44365 20.25 12 20.25C16.5563 20.25 20.25 16.5563 20.25 12C20.25 7.44365 16.5563 3.75 12 3.75ZM2.25 12C2.25 6.61522 6.61522 2.25 12 2.25C17.3848 2.25 21.75 6.61522 21.75 12C21.75 17.3848 17.3848 21.75 12 21.75C6.61522 21.75 2.25 17.3848 2.25 12Z" fill="#191C1F"/>
<path fill-rule="evenodd" clip-rule="evenodd" d="M14.625 9.375C15.0392 9.375 15.375 9.71079 15.375 10.125V14.625C15.375 15.0392 15.0392 15.375 14.625 15.375H10.125C9.71079 15.375 9.375 15.0392 9.375 14.625C9.375 14.2108 9.71079 13.875 10.125 13.875H13.875V10.125C13.875 9.71079 14.2108 9.375 14.625 9.375Z" fill="#191C1F"/>
<path fill-rule="evenodd" clip-rule="evenodd" d="M8.84467 8.84467C9.13756 8.55178 9.61244 8.55178 9.90533 8.84467L15.1553 14.0947C15.4482 14.3876 15.4482 14.8624 15.1553 15.1553C14.8624 15.4482 14.3876 15.4482 14.0947 15.1553L8.84467 9.90533C8.55178 9.61244 8.55178 9.13756 8.84467 8.84467Z" fill="#191C1F"/>
</svg>
