<svg width="24" height="24" viewBox="0 0 24 24" fill="none" xmlns="http://www.w3.org/2000/svg">
<path fill-rule="evenodd" clip-rule="evenodd" d="M15.2197 2.46967C15.5126 2.17678 15.9874 2.17678 16.2803 2.46967L20.7803 6.96967C21.0732 7.26256 21.0732 7.73744 20.7803 8.03033C20.4874 8.32322 20.0126 8.32322 19.7197 8.03033L15.75 4.06066L11.7803 8.03033C11.4874 8.32322 11.0126 8.32322 10.7197 8.03033C10.4268 7.73744 10.4268 7.26256 10.7197 6.96967L15.2197 2.46967Z" fill="#191C1F"/>
<path fill-rule="evenodd" clip-rule="evenodd" d="M15.75 2.25C16.1642 2.25 16.5 2.58579 16.5 3V15.75C16.5 17.3413 15.8679 18.8674 14.7426 19.9926C13.6174 21.1179 12.0913 21.75 10.5 21.75C8.9087 21.75 7.38258 21.1179 6.25736 19.9926C5.13214 18.8674 4.5 17.3413 4.5 15.75V7.5C4.5 7.08579 4.83579 6.75 5.25 6.75C5.66421 6.75 6 7.08579 6 7.5V15.75C6 16.9435 6.47411 18.0881 7.31802 18.932C8.16193 19.7759 9.30653 20.25 10.5 20.25C11.6935 20.25 12.8381 19.7759 13.682 18.932C14.5259 18.0881 15 16.9435 15 15.75V3C15 2.58579 15.3358 2.25 15.75 2.25Z" fill="#191C1F"/>
</svg>
