<svg width="24" height="24" viewBox="0 0 24 24" fill="none" xmlns="http://www.w3.org/2000/svg">
<path fill-rule="evenodd" clip-rule="evenodd" d="M11.4697 1.71967C11.7626 1.42678 12.2374 1.42678 12.5303 1.71967L15.5303 4.71967C15.8232 5.01256 15.8232 5.48744 15.5303 5.78033C15.2374 6.07322 14.7626 6.07322 14.4697 5.78033L12 3.31066L9.53033 5.78033C9.23744 6.07322 8.76256 6.07322 8.46967 5.78033C8.17678 5.48744 8.17678 5.01256 8.46967 4.71967L11.4697 1.71967Z" fill="#191C1F"/>
<path fill-rule="evenodd" clip-rule="evenodd" d="M12 1.5C12.4142 1.5 12.75 1.83579 12.75 2.25V21.75C12.75 22.1642 12.4142 22.5 12 22.5C11.5858 22.5 11.25 22.1642 11.25 21.75V2.25C11.25 1.83579 11.5858 1.5 12 1.5Z" fill="#191C1F"/>
<path fill-rule="evenodd" clip-rule="evenodd" d="M8.46967 18.2197C8.76256 17.9268 9.23744 17.9268 9.53033 18.2197L12 20.6893L14.4697 18.2197C14.7626 17.9268 15.2374 17.9268 15.5303 18.2197C15.8232 18.5126 15.8232 18.9874 15.5303 19.2803L12.5303 22.2803C12.2374 22.5732 11.7626 22.5732 11.4697 22.2803L8.46967 19.2803C8.17678 18.9874 8.17678 18.5126 8.46967 18.2197Z" fill="#191C1F"/>
</svg>
