<svg width="24" height="24" viewBox="0 0 24 24" fill="none" xmlns="http://www.w3.org/2000/svg">
<path fill-rule="evenodd" clip-rule="evenodd" d="M2.98126 4.09686C3.39548 4.09686 3.73126 4.43265 3.73126 4.84686V8.59686H7.48126C7.89548 8.59686 8.23126 8.93265 8.23126 9.34686C8.23126 9.76108 7.89548 10.0969 7.48126 10.0969H2.98126C2.56705 10.0969 2.23126 9.76108 2.23126 9.34686V4.84686C2.23126 4.43265 2.56705 4.09686 2.98126 4.09686Z" fill="#191C1F"/>
<path fill-rule="evenodd" clip-rule="evenodd" d="M8.55642 3.68648C9.64807 3.23384 10.8182 3.00085 12 3.00085C13.1818 3.00085 14.352 3.23384 15.4436 3.68648C16.5353 4.13912 17.527 4.80254 18.362 5.63879C18.6547 5.93189 18.6543 6.40677 18.3612 6.69945C18.0681 6.99213 17.5932 6.99178 17.3005 6.69867C16.6048 6.00195 15.7786 5.44921 14.8691 5.07209C13.9596 4.69497 12.9846 4.50085 12 4.50085C11.0154 4.50085 10.0405 4.69497 9.13095 5.07209C8.22143 5.44921 7.39519 6.00195 6.69948 6.69867L6.69831 6.69984L6.69831 6.69984L3.51081 9.87796C3.21749 10.1704 2.74261 10.1697 2.45015 9.8764C2.15769 9.58308 2.15839 9.1082 2.45171 8.81574L5.63805 5.63879C5.63824 5.63859 5.63843 5.6384 5.63862 5.63821C6.47353 4.80223 7.46502 4.13902 8.55642 3.68648Z" fill="#191C1F"/>
<path fill-rule="evenodd" clip-rule="evenodd" d="M15.7687 14.6531C15.7687 14.2389 16.1045 13.9031 16.5187 13.9031H21.0187C21.433 13.9031 21.7687 14.2389 21.7687 14.6531V19.1531C21.7687 19.5674 21.433 19.9031 21.0187 19.9031C20.6045 19.9031 20.2687 19.5674 20.2687 19.1531V15.4031H16.5187C16.1045 15.4031 15.7687 15.0674 15.7687 14.6531Z" fill="#191C1F"/>
<path fill-rule="evenodd" clip-rule="evenodd" d="M21.5499 14.1236C21.8423 14.4169 21.8416 14.8918 21.5483 15.1842L18.362 18.3612C18.3618 18.3614 18.3616 18.3616 18.3614 18.3618C17.5265 19.1978 16.535 19.861 15.4436 20.3135C14.352 20.7662 13.1818 20.9991 12 20.9991C10.8182 20.9991 9.64807 20.7662 8.55642 20.3135C7.46477 19.8609 6.47307 19.1975 5.63805 18.3612C5.34537 18.0681 5.34571 17.5932 5.63882 17.3005C5.93193 17.0079 6.4068 17.0082 6.69948 17.3013C7.39519 17.998 8.22143 18.5508 9.13095 18.9279C10.0405 19.305 11.0154 19.4991 12 19.4991C12.9846 19.4991 13.9596 19.305 14.8691 18.9279C15.7786 18.5508 16.6048 17.998 17.3005 17.3013L17.3017 17.3002L20.4892 14.122C20.7825 13.8296 21.2574 13.8303 21.5499 14.1236Z" fill="#191C1F"/>
</svg>
