<svg width="24" height="24" viewBox="0 0 24 24" fill="none" xmlns="http://www.w3.org/2000/svg">
<path fill-rule="evenodd" clip-rule="evenodd" d="M8.03033 9.21967C8.32322 9.51256 8.32322 9.98744 8.03033 10.2803L4.06066 14.25L8.03033 18.2197C8.32322 18.5126 8.32322 18.9874 8.03033 19.2803C7.73744 19.5732 7.26256 19.5732 6.96967 19.2803L2.46967 14.7803C2.17678 14.4874 2.17678 14.0126 2.46967 13.7197L6.96967 9.21967C7.26256 8.92678 7.73744 8.92678 8.03033 9.21967Z" fill="#191C1F"/>
<path fill-rule="evenodd" clip-rule="evenodd" d="M21 4.5C21.4142 4.5 21.75 4.83579 21.75 5.25C21.75 7.83586 20.7228 10.3158 18.8943 12.1443C17.0658 13.9728 14.5859 15 12 15H3C2.58579 15 2.25 14.6642 2.25 14.25C2.25 13.8358 2.58579 13.5 3 13.5H12C14.188 13.5 16.2865 12.6308 17.8336 11.0836C19.3808 9.53646 20.25 7.43804 20.25 5.25C20.25 4.83579 20.5858 4.5 21 4.5Z" fill="#191C1F"/>
</svg>
