<svg width="24" height="24" viewBox="0 0 24 24" fill="none" xmlns="http://www.w3.org/2000/svg">
<path fill-rule="evenodd" clip-rule="evenodd" d="M5.46967 5.46967C5.76256 5.17678 6.23744 5.17678 6.53033 5.46967L18.5303 17.4697C18.8232 17.7626 18.8232 18.2374 18.5303 18.5303C18.2374 18.8232 17.7626 18.8232 17.4697 18.5303L5.46967 6.53033C5.17678 6.23744 5.17678 5.76256 5.46967 5.46967Z" fill="#191C1F"/>
<path fill-rule="evenodd" clip-rule="evenodd" d="M18 7.5C18.4142 7.5 18.75 7.83579 18.75 8.25V18C18.75 18.4142 18.4142 18.75 18 18.75H8.25C7.83579 18.75 7.5 18.4142 7.5 18C7.5 17.5858 7.83579 17.25 8.25 17.25H17.25V8.25C17.25 7.83579 17.5858 7.5 18 7.5Z" fill="#191C1F"/>
</svg>
