<svg width="24" height="24" viewBox="0 0 24 24" fill="none" xmlns="http://www.w3.org/2000/svg">
<path fill-rule="evenodd" clip-rule="evenodd" d="M7.18933 3.43934C7.47064 3.15804 7.85217 3 8.24999 3H15.75C16.1478 3 16.5293 3.15804 16.8107 3.43934C17.092 3.72065 17.25 4.10218 17.25 4.5V12H21C21.3033 12 21.5768 12.1827 21.6929 12.463C21.809 12.7432 21.7448 13.0658 21.5303 13.2803L12.5303 22.2803C12.2374 22.5732 11.7626 22.5732 11.4697 22.2803L2.46966 13.2803C2.25516 13.0658 2.191 12.7432 2.30708 12.463C2.42317 12.1827 2.69664 12 2.99999 12H6.74999V4.5C6.74999 4.10217 6.90803 3.72064 7.18933 3.43934ZM15.75 4.5H8.24999V12.75C8.24999 13.1642 7.91421 13.5 7.49999 13.5H4.81065L12 20.6893L19.1893 13.5H16.5C16.0858 13.5 15.75 13.1642 15.75 12.75L15.75 4.5Z" fill="#191C1F"/>
</svg>
