<svg width="24" height="24" viewBox="0 0 24 24" fill="none" xmlns="http://www.w3.org/2000/svg">
<path fill-rule="evenodd" clip-rule="evenodd" d="M8.03033 10.7197C8.32322 11.0126 8.32322 11.4874 8.03033 11.7803L4.06066 15.75L8.03033 19.7197C8.32322 20.0126 8.32322 20.4874 8.03033 20.7803C7.73744 21.0732 7.26256 21.0732 6.96967 20.7803L2.46967 16.2803C2.17678 15.9874 2.17678 15.5126 2.46967 15.2197L6.96967 10.7197C7.26256 10.4268 7.73744 10.4268 8.03033 10.7197Z" fill="#191C1F"/>
<path fill-rule="evenodd" clip-rule="evenodd" d="M6.75 5.25C6.75 4.83579 7.08579 4.5 7.5 4.5H15.75C17.3413 4.5 18.8674 5.13214 19.9926 6.25736C21.1179 7.38258 21.75 8.9087 21.75 10.5C21.75 12.0913 21.1179 13.6174 19.9926 14.7426C18.8674 15.8679 17.3413 16.5 15.75 16.5H3C2.58579 16.5 2.25 16.1642 2.25 15.75C2.25 15.3358 2.58579 15 3 15H15.75C16.9435 15 18.0881 14.5259 18.932 13.682C19.7759 12.8381 20.25 11.6935 20.25 10.5C20.25 9.30653 19.7759 8.16193 18.932 7.31802C18.0881 6.47411 16.9435 6 15.75 6H7.5C7.08579 6 6.75 5.66421 6.75 5.25Z" fill="#191C1F"/>
</svg>
