<svg width="24" height="24" viewBox="0 0 24 24" fill="none" xmlns="http://www.w3.org/2000/svg">
<path fill-rule="evenodd" clip-rule="evenodd" d="M9.53033 11.4697C9.82322 11.7626 9.82322 12.2374 9.53033 12.5303L5.56066 16.5L9.53033 20.4697C9.82322 20.7626 9.82322 21.2374 9.53033 21.5303C9.23744 21.8232 8.76256 21.8232 8.46967 21.5303L3.96967 17.0303C3.67678 16.7374 3.67678 16.2626 3.96967 15.9697L8.46967 11.4697C8.76256 11.1768 9.23744 11.1768 9.53033 11.4697Z" fill="#191C1F"/>
<path fill-rule="evenodd" clip-rule="evenodd" d="M18 2.25C18.4142 2.25 18.75 2.58579 18.75 3V16.5C18.75 16.9142 18.4142 17.25 18 17.25H4.5C4.08579 17.25 3.75 16.9142 3.75 16.5C3.75 16.0858 4.08579 15.75 4.5 15.75H17.25V3C17.25 2.58579 17.5858 2.25 18 2.25Z" fill="#191C1F"/>
</svg>
