<svg width="24" height="24" viewBox="0 0 24 24" fill="none" xmlns="http://www.w3.org/2000/svg">
<path fill-rule="evenodd" clip-rule="evenodd" d="M12 3C12.4142 3 12.75 3.33579 12.75 3.75V20.25C12.75 20.6642 12.4142 21 12 21C11.5858 21 11.25 20.6642 11.25 20.25V3.75C11.25 3.33579 11.5858 3 12 3Z" fill="#191C1F"/>
<path fill-rule="evenodd" clip-rule="evenodd" d="M0.75 12C0.75 11.5858 1.08579 11.25 1.5 11.25H9C9.41421 11.25 9.75 11.5858 9.75 12C9.75 12.4142 9.41421 12.75 9 12.75H1.5C1.08579 12.75 0.75 12.4142 0.75 12Z" fill="#191C1F"/>
<path fill-rule="evenodd" clip-rule="evenodd" d="M5.46967 8.46967C5.76256 8.17678 6.23744 8.17678 6.53033 8.46967L9.53033 11.4697C9.82322 11.7626 9.82322 12.2374 9.53033 12.5303L6.53033 15.5303C6.23744 15.8232 5.76256 15.8232 5.46967 15.5303C5.17678 15.2374 5.17678 14.7626 5.46967 14.4697L7.93934 12L5.46967 9.53033C5.17678 9.23744 5.17678 8.76256 5.46967 8.46967Z" fill="#191C1F"/>
<path fill-rule="evenodd" clip-rule="evenodd" d="M14.25 12C14.25 11.5858 14.5858 11.25 15 11.25H22.5C22.9142 11.25 23.25 11.5858 23.25 12C23.25 12.4142 22.9142 12.75 22.5 12.75H15C14.5858 12.75 14.25 12.4142 14.25 12Z" fill="#191C1F"/>
<path fill-rule="evenodd" clip-rule="evenodd" d="M18.5303 8.46967C18.8232 8.76256 18.8232 9.23744 18.5303 9.53033L16.0607 12L18.5303 14.4697C18.8232 14.7626 18.8232 15.2374 18.5303 15.5303C18.2374 15.8232 17.7626 15.8232 17.4697 15.5303L14.4697 12.5303C14.1768 12.2374 14.1768 11.7626 14.4697 11.4697L17.4697 8.46967C17.7626 8.17678 18.2374 8.17678 18.5303 8.46967Z" fill="#191C1F"/>
</svg>
