<svg width="24" height="24" viewBox="0 0 24 24" fill="none" xmlns="http://www.w3.org/2000/svg">
<path fill-rule="evenodd" clip-rule="evenodd" d="M12 2.25C12.4142 2.25 12.75 2.58579 12.75 3V17.25C12.75 17.6642 12.4142 18 12 18C11.5858 18 11.25 17.6642 11.25 17.25V3C11.25 2.58579 11.5858 2.25 12 2.25Z" fill="#191C1F"/>
<path fill-rule="evenodd" clip-rule="evenodd" d="M4.71967 9.96967C5.01256 9.67678 5.48744 9.67678 5.78033 9.96967L12 16.1893L18.2197 9.96967C18.5126 9.67678 18.9874 9.67678 19.2803 9.96967C19.5732 10.2626 19.5732 10.7374 19.2803 11.0303L12.5303 17.7803C12.2374 18.0732 11.7626 18.0732 11.4697 17.7803L4.71967 11.0303C4.42678 10.7374 4.42678 10.2626 4.71967 9.96967Z" fill="#191C1F"/>
<path fill-rule="evenodd" clip-rule="evenodd" d="M3 20.25C3 19.8358 3.33579 19.5 3.75 19.5H20.25C20.6642 19.5 21 19.8358 21 20.25C21 20.6642 20.6642 21 20.25 21H3.75C3.33579 21 3 20.6642 3 20.25Z" fill="#191C1F"/>
</svg>
