<svg width="24" height="24" viewBox="0 0 24 24" fill="none" xmlns="http://www.w3.org/2000/svg">
<path fill-rule="evenodd" clip-rule="evenodd" d="M8.03033 4.71967C8.32322 5.01256 8.32322 5.48744 8.03033 5.78033L4.06066 9.75L8.03033 13.7197C8.32322 14.0126 8.32322 14.4874 8.03033 14.7803C7.73744 15.0732 7.26256 15.0732 6.96967 14.7803L2.46967 10.2803C2.17678 9.98744 2.17678 9.51256 2.46967 9.21967L6.96967 4.71967C7.26256 4.42678 7.73744 4.42678 8.03033 4.71967Z" fill="#191C1F"/>
<path fill-rule="evenodd" clip-rule="evenodd" d="M12.5303 4.71967C12.8232 5.01256 12.8232 5.48744 12.5303 5.78033L8.56066 9.75L12.5303 13.7197C12.8232 14.0126 12.8232 14.4874 12.5303 14.7803C12.2374 15.0732 11.7626 15.0732 11.4697 14.7803L6.96967 10.2803C6.67678 9.98744 6.67678 9.51256 6.96967 9.21967L11.4697 4.71967C11.7626 4.42678 12.2374 4.42678 12.5303 4.71967Z" fill="#191C1F"/>
<path fill-rule="evenodd" clip-rule="evenodd" d="M6.75 9.75C6.75 9.33579 7.08579 9 7.5 9H12C14.5859 9 17.0658 10.0272 18.8943 11.8557C20.7228 13.6842 21.75 16.1641 21.75 18.75C21.75 19.1642 21.4142 19.5 21 19.5C20.5858 19.5 20.25 19.1642 20.25 18.75C20.25 16.562 19.3808 14.4635 17.8336 12.9164C16.2865 11.3692 14.188 10.5 12 10.5H7.5C7.08579 10.5 6.75 10.1642 6.75 9.75Z" fill="#191C1F"/>
</svg>
