<svg width="24" height="24" viewBox="0 0 24 24" fill="none" xmlns="http://www.w3.org/2000/svg">
<path fill-rule="evenodd" clip-rule="evenodd" d="M11.537 2.30711C11.8173 2.4232 12 2.69668 12 3.00002V6.75002H19.5C19.8978 6.75002 20.2794 6.90806 20.5607 7.18936C20.842 7.47067 21 7.8522 21 8.25002V15.75C21 16.1478 20.842 16.5294 20.5607 16.8107C20.2794 17.092 19.8978 17.25 19.5 17.25H12V21C12 21.3034 11.8173 21.5768 11.537 21.6929C11.2568 21.809 10.9342 21.7449 10.7197 21.5304L1.71967 12.5304C1.42678 12.2375 1.42678 11.7626 1.71967 11.4697L10.7197 2.46969C10.9342 2.25519 11.2568 2.19103 11.537 2.30711ZM3.31066 12L10.5 19.1894V16.5C10.5 16.0858 10.8358 15.75 11.25 15.75H19.5V8.25002H11.25C10.8358 8.25002 10.5 7.91424 10.5 7.50002V4.81068L3.31066 12Z" fill="#191C1F"/>
</svg>
