<svg width="24" height="24" viewBox="0 0 24 24" fill="none" xmlns="http://www.w3.org/2000/svg">
<path fill-rule="evenodd" clip-rule="evenodd" d="M6.96967 7.71967C7.26256 7.42678 7.73744 7.42678 8.03033 7.71967L18.5303 18.2197C18.8232 18.5126 18.8232 18.9874 18.5303 19.2803C18.2374 19.5732 17.7626 19.5732 17.4697 19.2803L6.96967 8.78033C6.67678 8.48744 6.67678 8.01256 6.96967 7.71967Z" fill="#191C1F"/>
<path fill-rule="evenodd" clip-rule="evenodd" d="M18 8.625C18.4142 8.625 18.75 8.96079 18.75 9.375V18.75C18.75 19.1642 18.4142 19.5 18 19.5H8.625C8.21079 19.5 7.875 19.1642 7.875 18.75C7.875 18.3358 8.21079 18 8.625 18H17.25V9.375C17.25 8.96079 17.5858 8.625 18 8.625Z" fill="#191C1F"/>
<path fill-rule="evenodd" clip-rule="evenodd" d="M3 3.75C3 3.33579 3.33579 3 3.75 3H20.25C20.6642 3 21 3.33579 21 3.75C21 4.16421 20.6642 4.5 20.25 4.5H3.75C3.33579 4.5 3 4.16421 3 3.75Z" fill="#191C1F"/>
</svg>
