<svg width="24" height="24" viewBox="0 0 24 24" fill="none" xmlns="http://www.w3.org/2000/svg">
<path fill-rule="evenodd" clip-rule="evenodd" d="M3 12C3 11.5858 3.33579 11.25 3.75 11.25H20.25C20.6642 11.25 21 11.5858 21 12C21 12.4142 20.6642 12.75 20.25 12.75H3.75C3.33579 12.75 3 12.4142 3 12Z" fill="#191C1F"/>
<path fill-rule="evenodd" clip-rule="evenodd" d="M12 0.75C12.4142 0.75 12.75 1.08579 12.75 1.5V9C12.75 9.41421 12.4142 9.75 12 9.75C11.5858 9.75 11.25 9.41421 11.25 9V1.5C11.25 1.08579 11.5858 0.75 12 0.75Z" fill="#191C1F"/>
<path fill-rule="evenodd" clip-rule="evenodd" d="M11.4697 0.96967C11.7626 0.676777 12.2374 0.676777 12.5303 0.96967L15.5303 3.96967C15.8232 4.26256 15.8232 4.73744 15.5303 5.03033C15.2374 5.32322 14.7626 5.32322 14.4697 5.03033L12 2.56066L9.53033 5.03033C9.23744 5.32322 8.76256 5.32322 8.46967 5.03033C8.17678 4.73744 8.17678 4.26256 8.46967 3.96967L11.4697 0.96967Z" fill="#191C1F"/>
<path fill-rule="evenodd" clip-rule="evenodd" d="M12 14.25C12.4142 14.25 12.75 14.5858 12.75 15V22.5C12.75 22.9142 12.4142 23.25 12 23.25C11.5858 23.25 11.25 22.9142 11.25 22.5V15C11.25 14.5858 11.5858 14.25 12 14.25Z" fill="#191C1F"/>
<path fill-rule="evenodd" clip-rule="evenodd" d="M8.46967 18.9697C8.76256 18.6768 9.23744 18.6768 9.53033 18.9697L12 21.4393L14.4697 18.9697C14.7626 18.6768 15.2374 18.6768 15.5303 18.9697C15.8232 19.2626 15.8232 19.7374 15.5303 20.0303L12.5303 23.0303C12.2374 23.3232 11.7626 23.3232 11.4697 23.0303L8.46967 20.0303C8.17678 19.7374 8.17678 19.2626 8.46967 18.9697Z" fill="#191C1F"/>
</svg>
