<svg width="24" height="24" viewBox="0 0 24 24" fill="none" xmlns="http://www.w3.org/2000/svg">
<path fill-rule="evenodd" clip-rule="evenodd" d="M3 4.5C3 3.67157 3.67157 3 4.5 3H19.5C20.3284 3 21 3.67157 21 4.5V19.5C21 20.3284 20.3284 21 19.5 21H4.5C3.67157 21 3 20.3284 3 19.5V4.5ZM19.5 4.5H4.5V19.5H19.5V4.5Z" fill="#191C1F"/>
<path fill-rule="evenodd" clip-rule="evenodd" d="M12 7.5C12.1989 7.5 12.3897 7.57902 12.5303 7.71967L15.7085 10.8978C16.0013 11.1907 16.0013 11.6656 15.7085 11.9585C15.4156 12.2513 14.9407 12.2513 14.6478 11.9585L12 9.31066L9.35221 11.9585C9.05931 12.2513 8.58444 12.2513 8.29155 11.9585C7.99865 11.6656 7.99865 11.1907 8.29155 10.8978L11.4697 7.71967C11.6103 7.57902 11.8011 7.5 12 7.5Z" fill="#191C1F"/>
<path fill-rule="evenodd" clip-rule="evenodd" d="M12 7.5C12.4142 7.5 12.75 7.83579 12.75 8.25V15.75C12.75 16.1642 12.4142 16.5 12 16.5C11.5858 16.5 11.25 16.1642 11.25 15.75V8.25C11.25 7.83579 11.5858 7.5 12 7.5Z" fill="#191C1F"/>
</svg>
