<svg width="24" height="24" viewBox="0 0 24 24" fill="none" xmlns="http://www.w3.org/2000/svg">
<path fill-rule="evenodd" clip-rule="evenodd" d="M15.9697 10.7197C16.2626 10.4268 16.7374 10.4268 17.0303 10.7197L21.5303 15.2197C21.8232 15.5126 21.8232 15.9874 21.5303 16.2803L17.0303 20.7803C16.7374 21.0732 16.2626 21.0732 15.9697 20.7803C15.6768 20.4874 15.6768 20.0126 15.9697 19.7197L19.9393 15.75L15.9697 11.7803C15.6768 11.4874 15.6768 11.0126 15.9697 10.7197Z" fill="#191C1F"/>
<path fill-rule="evenodd" clip-rule="evenodd" d="M4.00736 6.25736C5.13258 5.13214 6.6587 4.5 8.25 4.5H16.5C16.9142 4.5 17.25 4.83579 17.25 5.25C17.25 5.66421 16.9142 6 16.5 6H8.25C7.05653 6 5.91193 6.47411 5.06802 7.31802C4.22411 8.16193 3.75 9.30653 3.75 10.5C3.75 11.6935 4.22411 12.8381 5.06802 13.682C5.91193 14.5259 7.05653 15 8.25 15H21C21.4142 15 21.75 15.3358 21.75 15.75C21.75 16.1642 21.4142 16.5 21 16.5H8.25C6.6587 16.5 5.13258 15.8679 4.00736 14.7426C2.88214 13.6174 2.25 12.0913 2.25 10.5C2.25 8.9087 2.88214 7.38258 4.00736 6.25736Z" fill="#191C1F"/>
</svg>
