<svg width="24" height="24" viewBox="0 0 24 24" fill="none" xmlns="http://www.w3.org/2000/svg">
<path fill-rule="evenodd" clip-rule="evenodd" d="M3 12C3 11.5858 3.33579 11.25 3.75 11.25H20.25C20.6642 11.25 21 11.5858 21 12C21 12.4142 20.6642 12.75 20.25 12.75H3.75C3.33579 12.75 3 12.4142 3 12Z" fill="#191C1F"/>
<path fill-rule="evenodd" clip-rule="evenodd" d="M12 0.75C12.4142 0.75 12.75 1.08579 12.75 1.5V9C12.75 9.41421 12.4142 9.75 12 9.75C11.5858 9.75 11.25 9.41421 11.25 9V1.5C11.25 1.08579 11.5858 0.75 12 0.75Z" fill="#191C1F"/>
<path fill-rule="evenodd" clip-rule="evenodd" d="M8.46967 5.46967C8.76256 5.17678 9.23744 5.17678 9.53033 5.46967L12 7.93934L14.4697 5.46967C14.7626 5.17678 15.2374 5.17678 15.5303 5.46967C15.8232 5.76256 15.8232 6.23744 15.5303 6.53033L12.5303 9.53033C12.2374 9.82322 11.7626 9.82322 11.4697 9.53033L8.46967 6.53033C8.17678 6.23744 8.17678 5.76256 8.46967 5.46967Z" fill="#191C1F"/>
<path fill-rule="evenodd" clip-rule="evenodd" d="M12 14.25C12.4142 14.25 12.75 14.5858 12.75 15V22.5C12.75 22.9142 12.4142 23.25 12 23.25C11.5858 23.25 11.25 22.9142 11.25 22.5V15C11.25 14.5858 11.5858 14.25 12 14.25Z" fill="#191C1F"/>
<path fill-rule="evenodd" clip-rule="evenodd" d="M11.4697 14.4697C11.7626 14.1768 12.2374 14.1768 12.5303 14.4697L15.5303 17.4697C15.8232 17.7626 15.8232 18.2374 15.5303 18.5303C15.2374 18.8232 14.7626 18.8232 14.4697 18.5303L12 16.0607L9.53033 18.5303C9.23744 18.8232 8.76256 18.8232 8.46967 18.5303C8.17678 18.2374 8.17678 17.7626 8.46967 17.4697L11.4697 14.4697Z" fill="#191C1F"/>
</svg>
