<svg width="24" height="24" viewBox="0 0 24 24" fill="none" xmlns="http://www.w3.org/2000/svg">
<path fill-rule="evenodd" clip-rule="evenodd" d="M18.5303 4.71967C18.8232 5.01256 18.8232 5.48744 18.5303 5.78033L8.03033 16.2803C7.73744 16.5732 7.26256 16.5732 6.96967 16.2803C6.67678 15.9874 6.67678 15.5126 6.96967 15.2197L17.4697 4.71967C17.7626 4.42678 18.2374 4.42678 18.5303 4.71967Z" fill="#191C1F"/>
<path fill-rule="evenodd" clip-rule="evenodd" d="M7.875 5.25C7.875 4.83579 8.21079 4.5 8.625 4.5H18C18.4142 4.5 18.75 4.83579 18.75 5.25V14.625C18.75 15.0392 18.4142 15.375 18 15.375C17.5858 15.375 17.25 15.0392 17.25 14.625V6H8.625C8.21079 6 7.875 5.66421 7.875 5.25Z" fill="#191C1F"/>
<path fill-rule="evenodd" clip-rule="evenodd" d="M3 20.25C3 19.8358 3.33579 19.5 3.75 19.5H20.25C20.6642 19.5 21 19.8358 21 20.25C21 20.6642 20.6642 21 20.25 21H3.75C3.33579 21 3 20.6642 3 20.25Z" fill="#191C1F"/>
</svg>
