<svg width="24" height="24" viewBox="0 0 24 24" fill="none" xmlns="http://www.w3.org/2000/svg">
<path fill-rule="evenodd" clip-rule="evenodd" d="M15.9697 3.21967C16.2626 2.92678 16.7374 2.92678 17.0303 3.21967L21.5303 7.71967C21.8232 8.01256 21.8232 8.48744 21.5303 8.78033L17.0303 13.2803C16.7374 13.5732 16.2626 13.5732 15.9697 13.2803C15.6768 12.9874 15.6768 12.5126 15.9697 12.2197L19.9393 8.25L15.9697 4.28033C15.6768 3.98744 15.6768 3.51256 15.9697 3.21967Z" fill="#191C1F"/>
<path fill-rule="evenodd" clip-rule="evenodd" d="M8.25 9C7.05653 9 5.91193 9.47411 5.06802 10.318C4.22411 11.1619 3.75 12.3065 3.75 13.5C3.75 14.6935 4.22411 15.8381 5.06802 16.682C5.91193 17.5259 7.05653 18 8.25 18H16.5C16.9142 18 17.25 18.3358 17.25 18.75C17.25 19.1642 16.9142 19.5 16.5 19.5H8.25C6.6587 19.5 5.13258 18.8679 4.00736 17.7426C2.88214 16.6174 2.25 15.0913 2.25 13.5C2.25 11.9087 2.88214 10.3826 4.00736 9.25736C5.13258 8.13214 6.6587 7.5 8.25 7.5H21C21.4142 7.5 21.75 7.83579 21.75 8.25C21.75 8.66421 21.4142 9 21 9H8.25Z" fill="#191C1F"/>
</svg>
