<svg width="24" height="24" viewBox="0 0 24 24" fill="none" xmlns="http://www.w3.org/2000/svg">
<path fill-rule="evenodd" clip-rule="evenodd" d="M9.21967 2.46967C9.51256 2.17678 9.98744 2.17678 10.2803 2.46967L14.7803 6.96967C15.0732 7.26256 15.0732 7.73744 14.7803 8.03033C14.4874 8.32322 14.0126 8.32322 13.7197 8.03033L9.75 4.06066L5.78033 8.03033C5.48744 8.32322 5.01256 8.32322 4.71967 8.03033C4.42678 7.73744 4.42678 7.26256 4.71967 6.96967L9.21967 2.46967Z" fill="#191C1F"/>
<path fill-rule="evenodd" clip-rule="evenodd" d="M9.75 2.25C10.1642 2.25 10.5 2.58579 10.5 3V12C10.5 14.188 11.3692 16.2865 12.9164 17.8336C14.4635 19.3808 16.562 20.25 18.75 20.25C19.1642 20.25 19.5 20.5858 19.5 21C19.5 21.4142 19.1642 21.75 18.75 21.75C16.1641 21.75 13.6842 20.7228 11.8557 18.8943C10.0272 17.0658 9 14.5859 9 12V3C9 2.58579 9.33579 2.25 9.75 2.25Z" fill="#191C1F"/>
</svg>
