<svg width="24" height="24" viewBox="0 0 24 24" fill="none" xmlns="http://www.w3.org/2000/svg">
<path fill-rule="evenodd" clip-rule="evenodd" d="M11.4697 1.71967C11.7626 1.42678 12.2374 1.42678 12.5303 1.71967L21.5303 10.7197C21.7448 10.9342 21.809 11.2568 21.6929 11.537C21.5768 11.8173 21.3033 12 21 12H17.25V19.5C17.25 19.8978 17.092 20.2794 16.8107 20.5607C16.5293 20.842 16.1478 21 15.75 21H8.24999C7.85217 21 7.47064 20.842 7.18933 20.5607C6.90803 20.2794 6.74999 19.8978 6.74999 19.5V12H2.99999C2.69664 12 2.42317 11.8173 2.30708 11.537C2.191 11.2568 2.25516 10.9342 2.46966 10.7197L11.4697 1.71967ZM4.81065 10.5H7.49999C7.91421 10.5 8.24999 10.8358 8.24999 11.25V19.5H15.75V11.25C15.75 10.8358 16.0858 10.5 16.5 10.5H19.1893L12 3.31066L4.81065 10.5Z" fill="#191C1F"/>
</svg>
