<svg width="24" height="24" viewBox="0 0 24 24" fill="none" xmlns="http://www.w3.org/2000/svg">
<path fill-rule="evenodd" clip-rule="evenodd" d="M15.9697 3.96967C16.2626 3.67678 16.7374 3.67678 17.0303 3.96967L21.5303 8.46967C21.8232 8.76256 21.8232 9.23744 21.5303 9.53033C21.2374 9.82322 20.7626 9.82322 20.4697 9.53033L16.5 5.56066L12.5303 9.53033C12.2374 9.82322 11.7626 9.82322 11.4697 9.53033C11.1768 9.23744 11.1768 8.76256 11.4697 8.46967L15.9697 3.96967Z" fill="#191C1F"/>
<path fill-rule="evenodd" clip-rule="evenodd" d="M16.5 3.75C16.9142 3.75 17.25 4.08579 17.25 4.5V18C17.25 18.4142 16.9142 18.75 16.5 18.75H3C2.58579 18.75 2.25 18.4142 2.25 18C2.25 17.5858 2.58579 17.25 3 17.25H15.75V4.5C15.75 4.08579 16.0858 3.75 16.5 3.75Z" fill="#191C1F"/>
</svg>
