<svg width="24" height="24" viewBox="0 0 24 24" fill="none" xmlns="http://www.w3.org/2000/svg">
<path fill-rule="evenodd" clip-rule="evenodd" d="M18.5303 5.46967C18.8232 5.76256 18.8232 6.23744 18.5303 6.53033L6.53033 18.5303C6.23744 18.8232 5.76256 18.8232 5.46967 18.5303C5.17678 18.2374 5.17678 17.7626 5.46967 17.4697L17.4697 5.46967C17.7626 5.17678 18.2374 5.17678 18.5303 5.46967Z" fill="#191C1F"/>
<path fill-rule="evenodd" clip-rule="evenodd" d="M6 7.5C6.41421 7.5 6.75 7.83579 6.75 8.25V17.25H15.75C16.1642 17.25 16.5 17.5858 16.5 18C16.5 18.4142 16.1642 18.75 15.75 18.75H6C5.58579 18.75 5.25 18.4142 5.25 18V8.25C5.25 7.83579 5.58579 7.5 6 7.5Z" fill="#191C1F"/>
</svg>
