<svg width="24" height="24" viewBox="0 0 24 24" fill="none" xmlns="http://www.w3.org/2000/svg">
<path fill-rule="evenodd" clip-rule="evenodd" d="M21.3656 7.13437C21.7798 7.13437 22.1156 7.47016 22.1156 7.88437V13.8844C22.1156 14.2986 21.7798 14.6344 21.3656 14.6344H15.3656C14.9514 14.6344 14.6156 14.2986 14.6156 13.8844C14.6156 13.4702 14.9514 13.1344 15.3656 13.1344H20.6156V7.88437C20.6156 7.47016 20.9514 7.13437 21.3656 7.13437Z" fill="#191C1F"/>
<path fill-rule="evenodd" clip-rule="evenodd" d="M13.6103 9.15537C12.0096 8.83679 10.3503 9.00017 8.84245 9.62484C7.33458 10.2495 6.04588 11.3074 5.1394 12.6647C4.23292 14.0219 3.7494 15.6176 3.75 17.2497C3.75015 17.6639 3.41449 17.9999 3.00028 18C2.58606 18.0002 2.25015 17.6645 2.25 17.2503C2.24929 15.3214 2.82073 13.4356 3.89202 11.8316C4.96332 10.2275 6.48632 8.97731 8.26835 8.23905C10.0504 7.5008 12.0113 7.30771 13.9031 7.68422C15.7949 8.06072 17.5325 8.9899 18.8961 10.3542L21.896 13.3541C22.1888 13.6469 22.1888 14.1218 21.896 14.4147C21.6031 14.7076 21.1282 14.7076 20.8353 14.4147L17.8353 11.4147L17.8352 11.4146C16.6814 10.2602 15.2111 9.47395 13.6103 9.15537Z" fill="#191C1F"/>
</svg>
