<svg width="24" height="24" viewBox="0 0 24 24" fill="none" xmlns="http://www.w3.org/2000/svg">
<path fill-rule="evenodd" clip-rule="evenodd" d="M14.25 5.25C14.6642 5.25 15 5.58579 15 6V9H18C18.4142 9 18.75 9.33579 18.75 9.75C18.75 10.1642 18.4142 10.5 18 10.5H14.25C13.8358 10.5 13.5 10.1642 13.5 9.75V6C13.5 5.58579 13.8358 5.25 14.25 5.25Z" fill="#191C1F"/>
<path fill-rule="evenodd" clip-rule="evenodd" d="M20.0303 3.96967C20.3232 4.26256 20.3232 4.73744 20.0303 5.03033L14.7803 10.2803C14.4874 10.5732 14.0126 10.5732 13.7197 10.2803C13.4268 9.98744 13.4268 9.51256 13.7197 9.21967L18.9697 3.96967C19.2626 3.67678 19.7374 3.67678 20.0303 3.96967Z" fill="#191C1F"/>
<path fill-rule="evenodd" clip-rule="evenodd" d="M5.25 14.25C5.25 13.8358 5.58579 13.5 6 13.5H9.75C10.1642 13.5 10.5 13.8358 10.5 14.25V18C10.5 18.4142 10.1642 18.75 9.75 18.75C9.33579 18.75 9 18.4142 9 18V15H6C5.58579 15 5.25 14.6642 5.25 14.25Z" fill="#191C1F"/>
<path fill-rule="evenodd" clip-rule="evenodd" d="M10.2803 13.7197C10.5732 14.0126 10.5732 14.4874 10.2803 14.7803L5.03033 20.0303C4.73744 20.3232 4.26256 20.3232 3.96967 20.0303C3.67678 19.7374 3.67678 19.2626 3.96967 18.9697L9.21967 13.7197C9.51256 13.4268 9.98744 13.4268 10.2803 13.7197Z" fill="#191C1F"/>
<path fill-rule="evenodd" clip-rule="evenodd" d="M13.5 14.25C13.5 13.8358 13.8358 13.5 14.25 13.5H18C18.4142 13.5 18.75 13.8358 18.75 14.25C18.75 14.6642 18.4142 15 18 15H15V18C15 18.4142 14.6642 18.75 14.25 18.75C13.8358 18.75 13.5 18.4142 13.5 18V14.25Z" fill="#191C1F"/>
<path fill-rule="evenodd" clip-rule="evenodd" d="M13.7197 13.7197C14.0126 13.4268 14.4874 13.4268 14.7803 13.7197L20.0303 18.9697C20.3232 19.2626 20.3232 19.7374 20.0303 20.0303C19.7374 20.3232 19.2626 20.3232 18.9697 20.0303L13.7197 14.7803C13.4268 14.4874 13.4268 14.0126 13.7197 13.7197Z" fill="#191C1F"/>
<path fill-rule="evenodd" clip-rule="evenodd" d="M9.75 5.25C10.1642 5.25 10.5 5.58579 10.5 6V9.75C10.5 10.1642 10.1642 10.5 9.75 10.5H6C5.58579 10.5 5.25 10.1642 5.25 9.75C5.25 9.33579 5.58579 9 6 9H9V6C9 5.58579 9.33579 5.25 9.75 5.25Z" fill="#191C1F"/>
<path fill-rule="evenodd" clip-rule="evenodd" d="M3.96967 3.96967C4.26256 3.67678 4.73744 3.67678 5.03033 3.96967L10.2803 9.21967C10.5732 9.51256 10.5732 9.98744 10.2803 10.2803C9.98744 10.5732 9.51256 10.5732 9.21967 10.2803L3.96967 5.03033C3.67678 4.73744 3.67678 4.26256 3.96967 3.96967Z" fill="#191C1F"/>
</svg>
