<svg width="24" height="24" viewBox="0 0 24 24" fill="none" xmlns="http://www.w3.org/2000/svg">
<path fill-rule="evenodd" clip-rule="evenodd" d="M12 3.75C7.44365 3.75 3.75 7.44365 3.75 12C3.75 16.5563 7.44365 20.25 12 20.25C16.5563 20.25 20.25 16.5563 20.25 12C20.25 7.44365 16.5563 3.75 12 3.75ZM2.25 12C2.25 6.61522 6.61522 2.25 12 2.25C17.3848 2.25 21.75 6.61522 21.75 12C21.75 17.3848 17.3848 21.75 12 21.75C6.61522 21.75 2.25 17.3848 2.25 12Z" fill="#191C1F"/>
<path fill-rule="evenodd" clip-rule="evenodd" d="M12 7.5C12.1989 7.5 12.3897 7.57902 12.5303 7.71967L15.7084 10.8978C16.0013 11.1907 16.0013 11.6656 15.7084 11.9585C15.4156 12.2513 14.9407 12.2513 14.6478 11.9585L12 9.31066L9.3522 11.9585C9.05931 12.2513 8.58443 12.2513 8.29154 11.9585C7.99865 11.6656 7.99865 11.1907 8.29154 10.8978L11.4697 7.71967C11.6103 7.57902 11.8011 7.5 12 7.5Z" fill="#191C1F"/>
<path fill-rule="evenodd" clip-rule="evenodd" d="M12 7.5C12.4142 7.5 12.75 7.83579 12.75 8.25V15.75C12.75 16.1642 12.4142 16.5 12 16.5C11.5858 16.5 11.25 16.1642 11.25 15.75V8.25C11.25 7.83579 11.5858 7.5 12 7.5Z" fill="#191C1F"/>
</svg>
