<svg width="24" height="24" viewBox="0 0 24 24" fill="none" xmlns="http://www.w3.org/2000/svg">
<path fill-rule="evenodd" clip-rule="evenodd" d="M9.21967 15.9697C9.51256 15.6768 9.98744 15.6768 10.2803 15.9697L14.25 19.9393L18.2197 15.9697C18.5126 15.6768 18.9874 15.6768 19.2803 15.9697C19.5732 16.2626 19.5732 16.7374 19.2803 17.0303L14.7803 21.5303C14.4874 21.8232 14.0126 21.8232 13.7197 21.5303L9.21967 17.0303C8.92678 16.7374 8.92678 16.2626 9.21967 15.9697Z" fill="#191C1F"/>
<path fill-rule="evenodd" clip-rule="evenodd" d="M4.5 3C4.5 2.58579 4.83579 2.25 5.25 2.25C7.83586 2.25 10.3158 3.27723 12.1443 5.10571C13.9728 6.93419 15 9.41414 15 12V21C15 21.4142 14.6642 21.75 14.25 21.75C13.8358 21.75 13.5 21.4142 13.5 21V12C13.5 9.81196 12.6308 7.71354 11.0836 6.16637C9.53646 4.61919 7.43804 3.75 5.25 3.75C4.83579 3.75 4.5 3.41421 4.5 3Z" fill="#191C1F"/>
</svg>
