<svg width="24" height="24" viewBox="0 0 24 24" fill="none" xmlns="http://www.w3.org/2000/svg">
<path fill-rule="evenodd" clip-rule="evenodd" d="M13.7197 2.46967C14.0126 2.17678 14.4874 2.17678 14.7803 2.46967L19.2803 6.96967C19.5732 7.26256 19.5732 7.73744 19.2803 8.03033C18.9874 8.32322 18.5126 8.32322 18.2197 8.03033L14.25 4.06066L10.2803 8.03033C9.98744 8.32322 9.51256 8.32322 9.21967 8.03033C8.92678 7.73744 8.92678 7.26256 9.21967 6.96967L13.7197 2.46967Z" fill="#191C1F"/>
<path fill-rule="evenodd" clip-rule="evenodd" d="M14.25 2.25C14.6642 2.25 15 2.58579 15 3V12C15 14.5859 13.9728 17.0658 12.1443 18.8943C10.3158 20.7228 7.83586 21.75 5.25 21.75C4.83579 21.75 4.5 21.4142 4.5 21C4.5 20.5858 4.83579 20.25 5.25 20.25C7.43804 20.25 9.53646 19.3808 11.0836 17.8336C12.6308 16.2865 13.5 14.188 13.5 12V3C13.5 2.58579 13.8358 2.25 14.25 2.25Z" fill="#191C1F"/>
</svg>
