<svg width="24" height="24" viewBox="0 0 24 24" fill="none" xmlns="http://www.w3.org/2000/svg">
<path fill-rule="evenodd" clip-rule="evenodd" d="M19.5 3C20.3284 3 21 3.67157 21 4.5V19.5C21 20.3284 20.3284 21 19.5 21H4.5C3.67157 21 3 20.3284 3 19.5V4.5C3 3.67157 3.67157 3 4.5 3L19.5 3ZM19.5 19.5V4.5L4.5 4.5V19.5H19.5Z" fill="#191C1F"/>
<path fill-rule="evenodd" clip-rule="evenodd" d="M8.625 9.375C8.625 8.96079 8.96079 8.625 9.375 8.625H13.875C14.2892 8.625 14.625 8.96079 14.625 9.375C14.625 9.78921 14.2892 10.125 13.875 10.125H10.125V13.875C10.125 14.2892 9.78921 14.625 9.375 14.625C8.96079 14.625 8.625 14.2892 8.625 13.875V9.375Z" fill="#191C1F"/>
<path fill-rule="evenodd" clip-rule="evenodd" d="M8.84467 8.84467C9.13756 8.55178 9.61244 8.55178 9.90533 8.84467L15.1553 14.0947C15.4482 14.3876 15.4482 14.8624 15.1553 15.1553C14.8624 15.4482 14.3876 15.4482 14.0947 15.1553L8.84467 9.90533C8.55178 9.61244 8.55178 9.13756 8.84467 8.84467Z" fill="#191C1F"/>
</svg>
