<svg width="24" height="24" viewBox="0 0 24 24" fill="none" xmlns="http://www.w3.org/2000/svg">
<path fill-rule="evenodd" clip-rule="evenodd" d="M2.98126 4.09686C3.39548 4.09686 3.73126 4.43265 3.73126 4.84686V8.59686H7.48126C7.89548 8.59686 8.23126 8.93265 8.23126 9.34686C8.23126 9.76108 7.89548 10.0969 7.48126 10.0969H2.98126C2.56705 10.0969 2.23126 9.76108 2.23126 9.34686V4.84686C2.23126 4.43265 2.56705 4.09686 2.98126 4.09686Z" fill="#191C1F"/>
<path fill-rule="evenodd" clip-rule="evenodd" d="M10.2463 3.17347C11.9923 2.82561 13.8023 3.00341 15.4472 3.68439C17.0922 4.36536 18.4982 5.51891 19.4875 6.99911C20.4767 8.47931 21.0048 10.2197 21.0048 12C21.0048 13.7803 20.4767 15.5207 19.4875 17.0009C18.4982 18.4811 17.0922 19.6347 15.4472 20.3156C13.8023 20.9966 11.9923 21.1744 10.2463 20.8265C8.50023 20.4787 6.8966 19.6208 5.63822 18.3614C5.34544 18.0684 5.34564 17.5935 5.63865 17.3007C5.93166 17.0079 6.40654 17.0081 6.69931 17.3011C7.74796 18.3506 9.08432 19.0656 10.5393 19.3554C11.9944 19.6453 13.5027 19.4972 14.8735 18.9297C16.2443 18.3622 17.416 17.4009 18.2404 16.1674C19.0648 14.9339 19.5048 13.4836 19.5048 12C19.5048 10.5164 19.0648 9.06609 18.2404 7.83259C17.416 6.59909 16.2443 5.6378 14.8735 5.07032C13.5027 4.50284 11.9944 4.35468 10.5393 4.64456C9.08432 4.93445 7.74796 5.64936 6.69931 6.69887L3.51081 9.87799C3.21749 10.1705 2.74261 10.1698 2.45015 9.87643C2.15769 9.5831 2.15839 9.10823 2.45171 8.81577L5.63822 5.63864C5.63806 5.6388 5.63837 5.63848 5.63822 5.63864C6.89652 4.37949 8.50045 3.52129 10.2463 3.17347Z" fill="#191C1F"/>
</svg>
