<svg width="24" height="24" viewBox="0 0 24 24" fill="none" xmlns="http://www.w3.org/2000/svg">
<path fill-rule="evenodd" clip-rule="evenodd" d="M5.78033 8.46967C6.07322 8.76256 6.07322 9.23744 5.78033 9.53033L3.31066 12L5.78033 14.4697C6.07322 14.7626 6.07322 15.2374 5.78033 15.5303C5.48744 15.8232 5.01256 15.8232 4.71967 15.5303L1.71967 12.5303C1.42678 12.2374 1.42678 11.7626 1.71967 11.4697L4.71967 8.46967C5.01256 8.17678 5.48744 8.17678 5.78033 8.46967Z" fill="#191C1F"/>
<path fill-rule="evenodd" clip-rule="evenodd" d="M18.2197 8.46967C18.5126 8.17678 18.9874 8.17678 19.2803 8.46967L22.2803 11.4697C22.5732 11.7626 22.5732 12.2374 22.2803 12.5303L19.2803 15.5303C18.9874 15.8232 18.5126 15.8232 18.2197 15.5303C17.9268 15.2374 17.9268 14.7626 18.2197 14.4697L20.6893 12L18.2197 9.53033C17.9268 9.23744 17.9268 8.76256 18.2197 8.46967Z" fill="#191C1F"/>
<path fill-rule="evenodd" clip-rule="evenodd" d="M1.5 12C1.5 11.5858 1.83579 11.25 2.25 11.25H21.75C22.1642 11.25 22.5 11.5858 22.5 12C22.5 12.4142 22.1642 12.75 21.75 12.75H2.25C1.83579 12.75 1.5 12.4142 1.5 12Z" fill="#191C1F"/>
</svg>
