<svg width="24" height="24" viewBox="0 0 24 24" fill="none" xmlns="http://www.w3.org/2000/svg">
<path fill-rule="evenodd" clip-rule="evenodd" d="M2.25 12C2.25 11.5858 2.58579 11.25 3 11.25H17.25C17.6642 11.25 18 11.5858 18 12C18 12.4142 17.6642 12.75 17.25 12.75H3C2.58579 12.75 2.25 12.4142 2.25 12Z" fill="#191C1F"/>
<path fill-rule="evenodd" clip-rule="evenodd" d="M9.96967 4.71967C10.2626 4.42678 10.7374 4.42678 11.0303 4.71967L17.7803 11.4697C18.0732 11.7626 18.0732 12.2374 17.7803 12.5303L11.0303 19.2803C10.7374 19.5732 10.2626 19.5732 9.96967 19.2803C9.67678 18.9874 9.67678 18.5126 9.96967 18.2197L16.1893 12L9.96967 5.78033C9.67678 5.48744 9.67678 5.01256 9.96967 4.71967Z" fill="#191C1F"/>
<path fill-rule="evenodd" clip-rule="evenodd" d="M20.25 3C20.6642 3 21 3.33579 21 3.75V20.25C21 20.6642 20.6642 21 20.25 21C19.8358 21 19.5 20.6642 19.5 20.25V3.75C19.5 3.33579 19.8358 3 20.25 3Z" fill="#191C1F"/>
</svg>
