<svg width="24" height="24" viewBox="0 0 24 24" fill="none" xmlns="http://www.w3.org/2000/svg">
<path fill-rule="evenodd" clip-rule="evenodd" d="M2.46967 14.4697C2.76256 14.1768 3.23744 14.1768 3.53033 14.4697L7.5 18.4393L11.4697 14.4697C11.7626 14.1768 12.2374 14.1768 12.5303 14.4697C12.8232 14.7626 12.8232 15.2374 12.5303 15.5303L8.03033 20.0303C7.73744 20.3232 7.26256 20.3232 6.96967 20.0303L2.46967 15.5303C2.17678 15.2374 2.17678 14.7626 2.46967 14.4697Z" fill="#191C1F"/>
<path fill-rule="evenodd" clip-rule="evenodd" d="M6.75 6C6.75 5.58579 7.08579 5.25 7.5 5.25H21C21.4142 5.25 21.75 5.58579 21.75 6C21.75 6.41421 21.4142 6.75 21 6.75H8.25V19.5C8.25 19.9142 7.91421 20.25 7.5 20.25C7.08579 20.25 6.75 19.9142 6.75 19.5V6Z" fill="#191C1F"/>
</svg>
