<svg width="24" height="24" viewBox="0 0 24 24" fill="none" xmlns="http://www.w3.org/2000/svg">
<path fill-rule="evenodd" clip-rule="evenodd" d="M6 12C6 11.5858 6.33579 11.25 6.75 11.25H21C21.4142 11.25 21.75 11.5858 21.75 12C21.75 12.4142 21.4142 12.75 21 12.75H6.75C6.33579 12.75 6 12.4142 6 12Z" fill="#191C1F"/>
<path fill-rule="evenodd" clip-rule="evenodd" d="M14.0303 4.71967C14.3232 5.01256 14.3232 5.48744 14.0303 5.78033L7.81066 12L14.0303 18.2197C14.3232 18.5126 14.3232 18.9874 14.0303 19.2803C13.7374 19.5732 13.2626 19.5732 12.9697 19.2803L6.21967 12.5303C5.92678 12.2374 5.92678 11.7626 6.21967 11.4697L12.9697 4.71967C13.2626 4.42678 13.7374 4.42678 14.0303 4.71967Z" fill="#191C1F"/>
<path fill-rule="evenodd" clip-rule="evenodd" d="M3.75 3C4.16421 3 4.5 3.33579 4.5 3.75V20.25C4.5 20.6642 4.16421 21 3.75 21C3.33579 21 3 20.6642 3 20.25V3.75C3 3.33579 3.33579 3 3.75 3Z" fill="#191C1F"/>
</svg>
