<svg width="24" height="24" viewBox="0 0 24 24" fill="none" xmlns="http://www.w3.org/2000/svg">
<path fill-rule="evenodd" clip-rule="evenodd" d="M15.9697 4.71967C16.2626 4.42678 16.7374 4.42678 17.0303 4.71967L21.5303 9.21967C21.8232 9.51256 21.8232 9.98744 21.5303 10.2803L17.0303 14.7803C16.7374 15.0732 16.2626 15.0732 15.9697 14.7803C15.6768 14.4874 15.6768 14.0126 15.9697 13.7197L19.9393 9.75L15.9697 5.78033C15.6768 5.48744 15.6768 5.01256 15.9697 4.71967Z" fill="#191C1F"/>
<path fill-rule="evenodd" clip-rule="evenodd" d="M12 10.5C9.81196 10.5 7.71354 11.3692 6.16637 12.9164C4.61919 14.4635 3.75 16.562 3.75 18.75C3.75 19.1642 3.41421 19.5 3 19.5C2.58579 19.5 2.25 19.1642 2.25 18.75C2.25 16.1641 3.27723 13.6842 5.10571 11.8557C6.93419 10.0272 9.41414 9 12 9H21C21.4142 9 21.75 9.33579 21.75 9.75C21.75 10.1642 21.4142 10.5 21 10.5H12Z" fill="#191C1F"/>
</svg>
