<svg width="24" height="24" viewBox="0 0 24 24" fill="none" xmlns="http://www.w3.org/2000/svg">
<path fill-rule="evenodd" clip-rule="evenodd" d="M12 3C12.4142 3 12.75 3.33579 12.75 3.75V20.25C12.75 20.6642 12.4142 21 12 21C11.5858 21 11.25 20.6642 11.25 20.25V3.75C11.25 3.33579 11.5858 3 12 3Z" fill="#191C1F"/>
<path fill-rule="evenodd" clip-rule="evenodd" d="M0.75 12C0.75 11.5858 1.08579 11.25 1.5 11.25H9C9.41421 11.25 9.75 11.5858 9.75 12C9.75 12.4142 9.41421 12.75 9 12.75H1.5C1.08579 12.75 0.75 12.4142 0.75 12Z" fill="#191C1F"/>
<path fill-rule="evenodd" clip-rule="evenodd" d="M5.03033 8.46967C5.32322 8.76256 5.32322 9.23744 5.03033 9.53033L2.56066 12L5.03033 14.4697C5.32322 14.7626 5.32322 15.2374 5.03033 15.5303C4.73744 15.8232 4.26256 15.8232 3.96967 15.5303L0.96967 12.5303C0.676777 12.2374 0.676777 11.7626 0.96967 11.4697L3.96967 8.46967C4.26256 8.17678 4.73744 8.17678 5.03033 8.46967Z" fill="#191C1F"/>
<path fill-rule="evenodd" clip-rule="evenodd" d="M14.25 12C14.25 11.5858 14.5858 11.25 15 11.25H22.5C22.9142 11.25 23.25 11.5858 23.25 12C23.25 12.4142 22.9142 12.75 22.5 12.75H15C14.5858 12.75 14.25 12.4142 14.25 12Z" fill="#191C1F"/>
<path fill-rule="evenodd" clip-rule="evenodd" d="M18.9697 8.46967C19.2626 8.17678 19.7374 8.17678 20.0303 8.46967L23.0303 11.4697C23.3232 11.7626 23.3232 12.2374 23.0303 12.5303L20.0303 15.5303C19.7374 15.8232 19.2626 15.8232 18.9697 15.5303C18.6768 15.2374 18.6768 14.7626 18.9697 14.4697L21.4393 12L18.9697 9.53033C18.6768 9.23744 18.6768 8.76256 18.9697 8.46967Z" fill="#191C1F"/>
</svg>
