<svg width="24" height="24" viewBox="0 0 24 24" fill="none" xmlns="http://www.w3.org/2000/svg">
<path fill-rule="evenodd" clip-rule="evenodd" d="M6.75001 9.75C6.75001 9.33579 7.08579 9 7.50001 9H16.5C16.9142 9 17.25 9.33579 17.25 9.75V12H21C21.3034 12 21.5768 12.1827 21.6929 12.463C21.809 12.7432 21.7448 13.0658 21.5303 13.2803L12.5303 22.2803C12.2374 22.5732 11.7626 22.5732 11.4697 22.2803L2.46968 13.2803C2.25518 13.0658 2.19101 12.7432 2.3071 12.463C2.42318 12.1827 2.69666 12 3.00001 12H6.75001V9.75ZM8.25001 10.5V12.75C8.25001 13.1642 7.91422 13.5 7.50001 13.5H4.81067L12 20.6893L19.1893 13.5H16.5C16.0858 13.5 15.75 13.1642 15.75 12.75V10.5H8.25001Z" fill="#191C1F"/>
<path fill-rule="evenodd" clip-rule="evenodd" d="M6.75 3.75C6.75 3.33579 7.08579 3 7.5 3H16.5C16.9142 3 17.25 3.33579 17.25 3.75C17.25 4.16421 16.9142 4.5 16.5 4.5H7.5C7.08579 4.5 6.75 4.16421 6.75 3.75Z" fill="#191C1F"/>
<path fill-rule="evenodd" clip-rule="evenodd" d="M6.75 6.75C6.75 6.33579 7.08579 6 7.5 6H16.5C16.9142 6 17.25 6.33579 17.25 6.75C17.25 7.16421 16.9142 7.5 16.5 7.5H7.5C7.08579 7.5 6.75 7.16421 6.75 6.75Z" fill="#191C1F"/>
</svg>
