<svg width="24" height="24" viewBox="0 0 24 24" fill="none" xmlns="http://www.w3.org/2000/svg">
<path fill-rule="evenodd" clip-rule="evenodd" d="M11.4697 1.71967C11.7626 1.42678 12.2374 1.42678 12.5303 1.71967L21.5303 10.7197C21.7448 10.9342 21.809 11.2568 21.6929 11.537C21.5768 11.8173 21.3033 12 21 12H17.25V17.25C17.25 17.6642 16.9142 18 16.5 18H7.5C7.08579 18 6.75 17.6642 6.75 17.25V12H3C2.69665 12 2.42318 11.8173 2.30709 11.537C2.191 11.2568 2.25517 10.9342 2.46967 10.7197L11.4697 1.71967ZM4.81066 10.5H7.5C7.91421 10.5 8.25 10.8358 8.25 11.25V16.5H15.75V11.25C15.75 10.8358 16.0858 10.5 16.5 10.5H19.1893L12 3.31066L4.81066 10.5Z" fill="#191C1F"/>
<path fill-rule="evenodd" clip-rule="evenodd" d="M6.75 20.25C6.75 19.8358 7.08579 19.5 7.5 19.5H16.5C16.9142 19.5 17.25 19.8358 17.25 20.25C17.25 20.6642 16.9142 21 16.5 21H7.5C7.08579 21 6.75 20.6642 6.75 20.25Z" fill="#191C1F"/>
</svg>
