<svg width="24" height="24" viewBox="0 0 24 24" fill="none" xmlns="http://www.w3.org/2000/svg">
<path fill-rule="evenodd" clip-rule="evenodd" d="M1.5 7.5C1.5 7.08579 1.83579 6.75 2.25 6.75H9C9.41421 6.75 9.75 7.08579 9.75 7.5C9.75 7.91421 9.41421 8.25 9 8.25H3V14.25C3 14.6642 2.66421 15 2.25 15C1.83579 15 1.5 14.6642 1.5 14.25V7.5Z" fill="#191C1F"/>
<path fill-rule="evenodd" clip-rule="evenodd" d="M1.71967 6.96967C2.01256 6.67678 2.48744 6.67678 2.78033 6.96967L12.75 16.9393L21.2197 8.46967C21.5126 8.17678 21.9874 8.17678 22.2803 8.46967C22.5732 8.76256 22.5732 9.23744 22.2803 9.53033L13.2803 18.5303C12.9874 18.8232 12.5126 18.8232 12.2197 18.5303L1.71967 8.03033C1.42678 7.73744 1.42678 7.26256 1.71967 6.96967Z" fill="#191C1F"/>
</svg>
