<svg width="24" height="24" viewBox="0 0 24 24" fill="none" xmlns="http://www.w3.org/2000/svg">
<path fill-rule="evenodd" clip-rule="evenodd" d="M11.4697 14.4697C11.7626 14.1768 12.2374 14.1768 12.5303 14.4697L15.1834 17.1228C15.4763 17.4157 15.4763 17.8906 15.1834 18.1835C14.8906 18.4763 14.4157 18.4763 14.1228 18.1835L12 16.0607L9.87719 18.1835C9.5843 18.4763 9.10943 18.4763 8.81653 18.1835C8.52364 17.8906 8.52364 17.4157 8.81653 17.1228L11.4697 14.4697Z" fill="#191C1F"/>
<path fill-rule="evenodd" clip-rule="evenodd" d="M12 14.25C12.4142 14.25 12.75 14.5858 12.75 15V21.75C12.75 22.1642 12.4142 22.5 12 22.5C11.5858 22.5 11.25 22.1642 11.25 21.75V15C11.25 14.5858 11.5858 14.25 12 14.25Z" fill="#191C1F"/>
<path fill-rule="evenodd" clip-rule="evenodd" d="M8.81653 5.81653C9.10943 5.52364 9.5843 5.52364 9.87719 5.81653L12 7.93933L14.1228 5.81653C14.4157 5.52364 14.8906 5.52364 15.1834 5.81653C15.4763 6.10943 15.4763 6.5843 15.1834 6.87719L12.5303 9.53032C12.2374 9.82321 11.7626 9.82321 11.4697 9.53032L8.81653 6.87719C8.52364 6.5843 8.52364 6.10943 8.81653 5.81653Z" fill="#191C1F"/>
<path fill-rule="evenodd" clip-rule="evenodd" d="M12 1.5C12.4142 1.5 12.75 1.83579 12.75 2.25V9C12.75 9.41421 12.4142 9.75 12 9.75C11.5858 9.75 11.25 9.41421 11.25 9V2.25C11.25 1.83579 11.5858 1.5 12 1.5Z" fill="#191C1F"/>
<path fill-rule="evenodd" clip-rule="evenodd" d="M5.81653 8.81653C6.10943 8.52364 6.5843 8.52364 6.87719 8.81653L9.53032 11.4697C9.82321 11.7626 9.82321 12.2374 9.53032 12.5303L6.87719 15.1834C6.5843 15.4763 6.10943 15.4763 5.81653 15.1834C5.52364 14.8906 5.52364 14.4157 5.81653 14.1228L7.93933 12L5.81653 9.87719C5.52364 9.5843 5.52364 9.10943 5.81653 8.81653Z" fill="#191C1F"/>
<path fill-rule="evenodd" clip-rule="evenodd" d="M1.5 12C1.5 11.5858 1.83579 11.25 2.25 11.25H9C9.41421 11.25 9.75 11.5858 9.75 12C9.75 12.4142 9.41421 12.75 9 12.75H2.25C1.83579 12.75 1.5 12.4142 1.5 12Z" fill="#191C1F"/>
<path fill-rule="evenodd" clip-rule="evenodd" d="M18.1835 8.81653C18.4763 9.10943 18.4763 9.5843 18.1835 9.87719L16.0607 12L18.1835 14.1228C18.4763 14.4157 18.4763 14.8906 18.1835 15.1834C17.8906 15.4763 17.4157 15.4763 17.1228 15.1834L14.4697 12.5303C14.1768 12.2374 14.1768 11.7626 14.4697 11.4697L17.1228 8.81653C17.4157 8.52364 17.8906 8.52364 18.1835 8.81653Z" fill="#191C1F"/>
<path fill-rule="evenodd" clip-rule="evenodd" d="M14.25 12C14.25 11.5858 14.5858 11.25 15 11.25H21.75C22.1642 11.25 22.5 11.5858 22.5 12C22.5 12.4142 22.1642 12.75 21.75 12.75H15C14.5858 12.75 14.25 12.4142 14.25 12Z" fill="#191C1F"/>
</svg>
