<svg width="24" height="24" viewBox="0 0 24 24" fill="none" xmlns="http://www.w3.org/2000/svg">
<path fill-rule="evenodd" clip-rule="evenodd" d="M14.25 7.5C14.25 7.08579 14.5858 6.75 15 6.75H21.75C22.1642 6.75 22.5 7.08579 22.5 7.5V14.25C22.5 14.6642 22.1642 15 21.75 15C21.3358 15 21 14.6642 21 14.25V8.25H15C14.5858 8.25 14.25 7.91421 14.25 7.5Z" fill="#191C1F"/>
<path fill-rule="evenodd" clip-rule="evenodd" d="M22.2803 6.96967C22.5732 7.26256 22.5732 7.73744 22.2803 8.03033L11.7803 18.5303C11.4874 18.8232 11.0126 18.8232 10.7197 18.5303L1.71967 9.53033C1.42678 9.23744 1.42678 8.76256 1.71967 8.46967C2.01256 8.17678 2.48744 8.17678 2.78033 8.46967L11.25 16.9393L21.2197 6.96967C21.5126 6.67678 21.9874 6.67678 22.2803 6.96967Z" fill="#191C1F"/>
</svg>
