<svg width="24" height="24" viewBox="0 0 24 24" fill="none" xmlns="http://www.w3.org/2000/svg">
<path fill-rule="evenodd" clip-rule="evenodd" d="M19.5 3C20.3284 3 21 3.67157 21 4.5V19.5C21 20.3284 20.3284 21 19.5 21H4.5C3.67157 21 3 20.3284 3 19.5V4.5C3 3.67157 3.67157 3 4.5 3L19.5 3ZM19.5 19.5V4.5L4.5 4.5V19.5H19.5Z" fill="#191C1F"/>
<path fill-rule="evenodd" clip-rule="evenodd" d="M12.0416 8.29157C12.3345 7.99868 12.8093 7.99868 13.1022 8.29157L16.2804 11.4697C16.5732 11.7626 16.5732 12.2375 16.2804 12.5304L13.1022 15.7085C12.8093 16.0014 12.3345 16.0014 12.0416 15.7085C11.7487 15.4156 11.7487 14.9407 12.0416 14.6478L14.6894 12L12.0416 9.35223C11.7487 9.05934 11.7487 8.58446 12.0416 8.29157Z" fill="#191C1F"/>
<path fill-rule="evenodd" clip-rule="evenodd" d="M7.5 12C7.5 11.5858 7.83579 11.25 8.25 11.25H15.75C16.1642 11.25 16.5 11.5858 16.5 12C16.5 12.4142 16.1642 12.75 15.75 12.75H8.25C7.83579 12.75 7.5 12.4142 7.5 12Z" fill="#191C1F"/>
</svg>
