<svg width="24" height="24" viewBox="0 0 24 24" fill="none" xmlns="http://www.w3.org/2000/svg">
<path fill-rule="evenodd" clip-rule="evenodd" d="M5.46967 5.46967C5.76256 5.17678 6.23744 5.17678 6.53033 5.46967L18.5303 17.4697C18.8232 17.7626 18.8232 18.2374 18.5303 18.5303C18.2374 18.8232 17.7626 18.8232 17.4697 18.5303L5.46967 6.53033C5.17678 6.23744 5.17678 5.76256 5.46967 5.46967Z" fill="#191C1F"/>
<path fill-rule="evenodd" clip-rule="evenodd" d="M5.25 6C5.25 5.58579 5.58579 5.25 6 5.25H15.75C16.1642 5.25 16.5 5.58579 16.5 6C16.5 6.41421 16.1642 6.75 15.75 6.75H6.75V15.75C6.75 16.1642 6.41421 16.5 6 16.5C5.58579 16.5 5.25 16.1642 5.25 15.75V6Z" fill="#191C1F"/>
</svg>
