<svg width="24" height="24" viewBox="0 0 24 24" fill="none" xmlns="http://www.w3.org/2000/svg">
<path fill-rule="evenodd" clip-rule="evenodd" d="M10.7197 15.9697C11.0126 15.6768 11.4874 15.6768 11.7803 15.9697L15.75 19.9393L19.7197 15.9697C20.0126 15.6768 20.4874 15.6768 20.7803 15.9697C21.0732 16.2626 21.0732 16.7374 20.7803 17.0303L16.2803 21.5303C15.9874 21.8232 15.5126 21.8232 15.2197 21.5303L10.7197 17.0303C10.4268 16.7374 10.4268 16.2626 10.7197 15.9697Z" fill="#191C1F"/>
<path fill-rule="evenodd" clip-rule="evenodd" d="M10.5 3.75C9.30653 3.75 8.16193 4.22411 7.31802 5.06802C6.47411 5.91193 6 7.05653 6 8.25V16.5C6 16.9142 5.66421 17.25 5.25 17.25C4.83579 17.25 4.5 16.9142 4.5 16.5V8.25C4.5 6.6587 5.13214 5.13258 6.25736 4.00736C7.38258 2.88214 8.9087 2.25 10.5 2.25C12.0913 2.25 13.6174 2.88214 14.7426 4.00736C15.8679 5.13258 16.5 6.6587 16.5 8.25V21C16.5 21.4142 16.1642 21.75 15.75 21.75C15.3358 21.75 15 21.4142 15 21V8.25C15 7.05653 14.5259 5.91193 13.682 5.06802C12.8381 4.22411 11.6935 3.75 10.5 3.75Z" fill="#191C1F"/>
</svg>
