<svg width="24" height="24" viewBox="0 0 24 24" fill="none" xmlns="http://www.w3.org/2000/svg">
<path fill-rule="evenodd" clip-rule="evenodd" d="M12 3.75C7.44365 3.75 3.75 7.44365 3.75 12C3.75 16.5563 7.44365 20.25 12 20.25C16.5563 20.25 20.25 16.5563 20.25 12C20.25 7.44365 16.5563 3.75 12 3.75ZM2.25 12C2.25 6.61522 6.61522 2.25 12 2.25C17.3848 2.25 21.75 6.61522 21.75 12C21.75 17.3848 17.3848 21.75 12 21.75C6.61522 21.75 2.25 17.3848 2.25 12Z" fill="#191C1F"/>
<path fill-rule="evenodd" clip-rule="evenodd" d="M8.29154 12.0415C8.58443 11.7486 9.05931 11.7486 9.3522 12.0415L12 14.6893L14.6478 12.0415C14.9407 11.7486 15.4156 11.7486 15.7084 12.0415C16.0013 12.3344 16.0013 12.8093 15.7084 13.1022L12.5303 16.2803C12.2374 16.5732 11.7626 16.5732 11.4697 16.2803L8.29154 13.1022C7.99865 12.8093 7.99865 12.3344 8.29154 12.0415Z" fill="#191C1F"/>
<path fill-rule="evenodd" clip-rule="evenodd" d="M12 7.5C12.4142 7.5 12.75 7.83579 12.75 8.25V15.75C12.75 16.1642 12.4142 16.5 12 16.5C11.5858 16.5 11.25 16.1642 11.25 15.75V8.25C11.25 7.83579 11.5858 7.5 12 7.5Z" fill="#191C1F"/>
</svg>
