<svg width="24" height="24" viewBox="0 0 24 24" fill="none" xmlns="http://www.w3.org/2000/svg">
<path fill-rule="evenodd" clip-rule="evenodd" d="M12 6C12.4142 6 12.75 6.33579 12.75 6.75V21C12.75 21.4142 12.4142 21.75 12 21.75C11.5858 21.75 11.25 21.4142 11.25 21V6.75C11.25 6.33579 11.5858 6 12 6Z" fill="#191C1F"/>
<path fill-rule="evenodd" clip-rule="evenodd" d="M11.4697 6.21967C11.7626 5.92678 12.2374 5.92678 12.5303 6.21967L19.2803 12.9697C19.5732 13.2626 19.5732 13.7374 19.2803 14.0303C18.9874 14.3232 18.5126 14.3232 18.2197 14.0303L12 7.81066L5.78033 14.0303C5.48744 14.3232 5.01256 14.3232 4.71967 14.0303C4.42678 13.7374 4.42678 13.2626 4.71967 12.9697L11.4697 6.21967Z" fill="#191C1F"/>
<path fill-rule="evenodd" clip-rule="evenodd" d="M3 3.75C3 3.33579 3.33579 3 3.75 3H20.25C20.6642 3 21 3.33579 21 3.75C21 4.16421 20.6642 4.5 20.25 4.5H3.75C3.33579 4.5 3 4.16421 3 3.75Z" fill="#191C1F"/>
</svg>
