<svg width="24" height="24" viewBox="0 0 24 24" fill="none" xmlns="http://www.w3.org/2000/svg">
<path fill-rule="evenodd" clip-rule="evenodd" d="M3.75 7.5C3.75 7.08579 4.08579 6.75 4.5 6.75H18C18.4142 6.75 18.75 7.08579 18.75 7.5V21C18.75 21.4142 18.4142 21.75 18 21.75C17.5858 21.75 17.25 21.4142 17.25 21V8.25H4.5C4.08579 8.25 3.75 7.91421 3.75 7.5Z" fill="#191C1F"/>
<path fill-rule="evenodd" clip-rule="evenodd" d="M9.53033 2.46967C9.82322 2.76256 9.82322 3.23744 9.53033 3.53033L5.56066 7.5L9.53033 11.4697C9.82322 11.7626 9.82322 12.2374 9.53033 12.5303C9.23744 12.8232 8.76256 12.8232 8.46967 12.5303L3.96967 8.03033C3.67678 7.73744 3.67678 7.26256 3.96967 6.96967L8.46967 2.46967C8.76256 2.17678 9.23744 2.17678 9.53033 2.46967Z" fill="#191C1F"/>
<path fill-rule="evenodd" clip-rule="evenodd" d="M3.75 7.5C3.75 7.08579 4.08579 6.75 4.5 6.75H18C18.4142 6.75 18.75 7.08579 18.75 7.5V21C18.75 21.4142 18.4142 21.75 18 21.75C17.5858 21.75 17.25 21.4142 17.25 21V8.25H4.5C4.08579 8.25 3.75 7.91421 3.75 7.5Z" fill="#191C1F"/>
</svg>
