<svg width="24" height="24" viewBox="0 0 24 24" fill="none" xmlns="http://www.w3.org/2000/svg">
<path fill-rule="evenodd" clip-rule="evenodd" d="M5.46967 4.71967C5.76256 4.42678 6.23744 4.42678 6.53033 4.71967L17.0303 15.2197C17.3232 15.5126 17.3232 15.9874 17.0303 16.2803C16.7374 16.5732 16.2626 16.5732 15.9697 16.2803L5.46967 5.78033C5.17678 5.48744 5.17678 5.01256 5.46967 4.71967Z" fill="#191C1F"/>
<path fill-rule="evenodd" clip-rule="evenodd" d="M5.25 5.25C5.25 4.83579 5.58579 4.5 6 4.5H15.375C15.7892 4.5 16.125 4.83579 16.125 5.25C16.125 5.66421 15.7892 6 15.375 6H6.75V14.625C6.75 15.0392 6.41421 15.375 6 15.375C5.58579 15.375 5.25 15.0392 5.25 14.625V5.25Z" fill="#191C1F"/>
<path fill-rule="evenodd" clip-rule="evenodd" d="M3 20.25C3 19.8358 3.33579 19.5 3.75 19.5H20.25C20.6642 19.5 21 19.8358 21 20.25C21 20.6642 20.6642 21 20.25 21H3.75C3.33579 21 3 20.6642 3 20.25Z" fill="#191C1F"/>
</svg>
