<svg width="24" height="24" viewBox="0 0 24 24" fill="none" xmlns="http://www.w3.org/2000/svg">
<path fill-rule="evenodd" clip-rule="evenodd" d="M17.0303 7.71967C17.3232 8.01256 17.3232 8.48744 17.0303 8.78033L6.53033 19.2803C6.23744 19.5732 5.76256 19.5732 5.46967 19.2803C5.17678 18.9874 5.17678 18.5126 5.46967 18.2197L15.9697 7.71967C16.2626 7.42678 16.7374 7.42678 17.0303 7.71967Z" fill="#191C1F"/>
<path fill-rule="evenodd" clip-rule="evenodd" d="M6 8.625C6.41421 8.625 6.75 8.96079 6.75 9.375V18H15.375C15.7892 18 16.125 18.3358 16.125 18.75C16.125 19.1642 15.7892 19.5 15.375 19.5H6C5.58579 19.5 5.25 19.1642 5.25 18.75V9.375C5.25 8.96079 5.58579 8.625 6 8.625Z" fill="#191C1F"/>
<path fill-rule="evenodd" clip-rule="evenodd" d="M3 3.75C3 3.33579 3.33579 3 3.75 3H20.25C20.6642 3 21 3.33579 21 3.75C21 4.16421 20.6642 4.5 20.25 4.5H3.75C3.33579 4.5 3 4.16421 3 3.75Z" fill="#191C1F"/>
</svg>
