<svg width="24" height="24" viewBox="0 0 24 24" fill="none" xmlns="http://www.w3.org/2000/svg">
<path fill-rule="evenodd" clip-rule="evenodd" d="M8.81655 18.5666C9.10944 18.2737 9.58431 18.2737 9.87721 18.5666L12 20.6894L14.1228 18.5666C14.4157 18.2737 14.8906 18.2737 15.1835 18.5666C15.4764 18.8595 15.4764 19.3344 15.1835 19.6273L12.5303 22.2804C12.2374 22.5733 11.7626 22.5733 11.4697 22.2804L8.81655 19.6273C8.52365 19.3344 8.52365 18.8595 8.81655 18.5666Z" fill="#191C1F"/>
<path fill-rule="evenodd" clip-rule="evenodd" d="M12 14.25C12.4142 14.25 12.75 14.5858 12.75 15V21.75C12.75 22.1642 12.4142 22.5 12 22.5C11.5858 22.5 11.25 22.1642 11.25 21.75V15C11.25 14.5858 11.5858 14.25 12 14.25Z" fill="#191C1F"/>
<path fill-rule="evenodd" clip-rule="evenodd" d="M11.4697 1.71967C11.7626 1.42678 12.2374 1.42678 12.5303 1.71967L15.1835 4.37279C15.4764 4.66569 15.4764 5.14056 15.1835 5.43345C14.8906 5.72635 14.4157 5.72635 14.1228 5.43345L12 3.31066L9.87721 5.43345C9.58431 5.72635 9.10944 5.72635 8.81655 5.43345C8.52365 5.14056 8.52365 4.66569 8.81655 4.37279L11.4697 1.71967Z" fill="#191C1F"/>
<path fill-rule="evenodd" clip-rule="evenodd" d="M12 1.5C12.4142 1.5 12.75 1.83579 12.75 2.25V9C12.75 9.41421 12.4142 9.75 12 9.75C11.5858 9.75 11.25 9.41421 11.25 9V2.25C11.25 1.83579 11.5858 1.5 12 1.5Z" fill="#191C1F"/>
<path fill-rule="evenodd" clip-rule="evenodd" d="M5.43345 8.81659C5.72635 9.10949 5.72635 9.58436 5.43345 9.87725L3.31066 12L5.43345 14.1228C5.72635 14.4157 5.72635 14.8906 5.43345 15.1835C5.14056 15.4764 4.66569 15.4764 4.37279 15.1835L1.71967 12.5304C1.42678 12.2375 1.42678 11.7626 1.71967 11.4697L4.37279 8.81659C4.66569 8.5237 5.14056 8.5237 5.43345 8.81659Z" fill="#191C1F"/>
<path fill-rule="evenodd" clip-rule="evenodd" d="M1.5 12C1.5 11.5858 1.83579 11.25 2.25 11.25H9C9.41421 11.25 9.75 11.5858 9.75 12C9.75 12.4142 9.41421 12.75 9 12.75H2.25C1.83579 12.75 1.5 12.4142 1.5 12Z" fill="#191C1F"/>
<path fill-rule="evenodd" clip-rule="evenodd" d="M18.5665 8.81659C18.8594 8.5237 19.3343 8.5237 19.6272 8.81659L22.2803 11.4697C22.5732 11.7626 22.5732 12.2375 22.2803 12.5304L19.6272 15.1835C19.3343 15.4764 18.8594 15.4764 18.5665 15.1835C18.2737 14.8906 18.2737 14.4157 18.5665 14.1228L20.6893 12L18.5665 9.87725C18.2737 9.58436 18.2737 9.10949 18.5665 8.81659Z" fill="#191C1F"/>
<path fill-rule="evenodd" clip-rule="evenodd" d="M14.25 12C14.25 11.5858 14.5858 11.25 15 11.25H21.75C22.1642 11.25 22.5 11.5858 22.5 12C22.5 12.4142 22.1642 12.75 21.75 12.75H15C14.5858 12.75 14.25 12.4142 14.25 12Z" fill="#191C1F"/>
</svg>
