<svg width="24" height="24" viewBox="0 0 24 24" fill="none" xmlns="http://www.w3.org/2000/svg">
<path fill-rule="evenodd" clip-rule="evenodd" d="M12 3C12.4142 3 12.75 3.33579 12.75 3.75V20.25C12.75 20.6642 12.4142 21 12 21C11.5858 21 11.25 20.6642 11.25 20.25V3.75C11.25 3.33579 11.5858 3 12 3Z" fill="#191C1F"/>
<path fill-rule="evenodd" clip-rule="evenodd" d="M11.4697 3.21967C11.7626 2.92678 12.2374 2.92678 12.5303 3.21967L19.2803 9.96967C19.5732 10.2626 19.5732 10.7374 19.2803 11.0303C18.9874 11.3232 18.5126 11.3232 18.2197 11.0303L12 4.81066L5.78033 11.0303C5.48744 11.3232 5.01256 11.3232 4.71967 11.0303C4.42678 10.7374 4.42678 10.2626 4.71967 9.96967L11.4697 3.21967Z" fill="#191C1F"/>
</svg>
