<svg width="24" height="24" viewBox="0 0 24 24" fill="none" xmlns="http://www.w3.org/2000/svg">
<path fill-rule="evenodd" clip-rule="evenodd" d="M21.0187 4.09686C21.433 4.09686 21.7687 4.43265 21.7687 4.84686V9.34686C21.7687 9.76108 21.433 10.0969 21.0187 10.0969H16.5187C16.1045 10.0969 15.7687 9.76108 15.7687 9.34686C15.7687 8.93265 16.1045 8.59686 16.5187 8.59686H20.2687V4.84686C20.2687 4.43265 20.6045 4.09686 21.0187 4.09686Z" fill="#191C1F"/>
<path fill-rule="evenodd" clip-rule="evenodd" d="M12 4.50085C11.0154 4.50085 10.0405 4.69497 9.13095 5.07209C8.22143 5.44921 7.39519 6.00195 6.69948 6.69867C6.4068 6.99178 5.93193 6.99213 5.63882 6.69945C5.34571 6.40677 5.34537 5.93189 5.63805 5.63879C6.47307 4.80254 7.46477 4.13912 8.55642 3.68648C9.64807 3.23384 10.8182 3.00085 12 3.00085C13.1818 3.00085 14.352 3.23384 15.4436 3.68648C16.535 4.13901 17.5265 4.80222 18.3614 5.63818C18.3616 5.63838 18.3618 5.63858 18.362 5.63879L21.5483 8.81574C21.8416 9.1082 21.8423 9.58308 21.5499 9.8764C21.2574 10.1697 20.7825 10.1704 20.4892 9.87796L17.3017 6.69984L17.3005 6.69867C16.6048 6.00195 15.7786 5.44921 14.8691 5.07209C13.9596 4.69497 12.9846 4.50085 12 4.50085Z" fill="#191C1F"/>
<path fill-rule="evenodd" clip-rule="evenodd" d="M2.23126 14.6531C2.23126 14.2389 2.56705 13.9031 2.98126 13.9031H7.48126C7.89548 13.9031 8.23126 14.2389 8.23126 14.6531C8.23126 15.0674 7.89548 15.4031 7.48126 15.4031H3.73126V19.1531C3.73126 19.5674 3.39548 19.9031 2.98126 19.9031C2.56705 19.9031 2.23126 19.5674 2.23126 19.1531V14.6531Z" fill="#191C1F"/>
<path fill-rule="evenodd" clip-rule="evenodd" d="M2.45015 14.1236C2.74261 13.8303 3.21749 13.8296 3.51081 14.122L6.69948 17.3013C7.39519 17.998 8.22143 18.5508 9.13095 18.9279C10.0405 19.305 11.0154 19.4991 12 19.4991C12.9846 19.4991 13.9596 19.305 14.8691 18.9279C15.7786 18.5508 16.6048 17.998 17.3005 17.3013C17.5932 17.0082 18.0681 17.0079 18.3612 17.3005C18.6543 17.5932 18.6547 18.0681 18.362 18.3612C17.527 19.1975 16.5353 19.8609 15.4436 20.3135C14.352 20.7662 13.1818 20.9991 12 20.9991C10.8182 20.9991 9.64807 20.7662 8.55642 20.3135C7.465 19.861 6.47348 19.1977 5.63857 18.3617C5.63839 18.3616 5.63874 18.3619 5.63857 18.3617L2.45171 15.1842C2.15839 14.8918 2.15769 14.4169 2.45015 14.1236Z" fill="#191C1F"/>
</svg>
