<svg width="24" height="24" viewBox="0 0 24 24" fill="none" xmlns="http://www.w3.org/2000/svg">
<path fill-rule="evenodd" clip-rule="evenodd" d="M12.463 2.30711C12.7432 2.19103 13.0658 2.25519 13.2803 2.46969L22.2803 11.4697C22.5732 11.7626 22.5732 12.2375 22.2803 12.5304L13.2803 21.5304C13.0658 21.7449 12.7432 21.809 12.463 21.6929C12.1827 21.5768 12 21.3034 12 21V17.25H9.75C9.33579 17.25 9 16.9142 9 16.5V7.50002C9 7.08581 9.33579 6.75002 9.75 6.75002H12V3.00002C12 2.69668 12.1827 2.4232 12.463 2.30711ZM13.5 4.81068V7.50002C13.5 7.91424 13.1642 8.25002 12.75 8.25002H10.5V15.75H12.75C13.1642 15.75 13.5 16.0858 13.5 16.5V19.1894L20.6893 12L13.5 4.81068Z" fill="#191C1F"/>
<path fill-rule="evenodd" clip-rule="evenodd" d="M3.75 6.75C4.16421 6.75 4.5 7.08579 4.5 7.5V16.5C4.5 16.9142 4.16421 17.25 3.75 17.25C3.33579 17.25 3 16.9142 3 16.5V7.5C3 7.08579 3.33579 6.75 3.75 6.75Z" fill="#191C1F"/>
<path fill-rule="evenodd" clip-rule="evenodd" d="M6.75 6.75C7.16421 6.75 7.5 7.08579 7.5 7.5V16.5C7.5 16.9142 7.16421 17.25 6.75 17.25C6.33579 17.25 6 16.9142 6 16.5V7.5C6 7.08579 6.33579 6.75 6.75 6.75Z" fill="#191C1F"/>
</svg>
