<svg width="24" height="24" viewBox="0 0 24 24" fill="none" xmlns="http://www.w3.org/2000/svg">
<path fill-rule="evenodd" clip-rule="evenodd" d="M14.4697 2.46967C14.7626 2.17678 15.2374 2.17678 15.5303 2.46967L20.0303 6.96967C20.3232 7.26256 20.3232 7.73744 20.0303 8.03033L15.5303 12.5303C15.2374 12.8232 14.7626 12.8232 14.4697 12.5303C14.1768 12.2374 14.1768 11.7626 14.4697 11.4697L18.4393 7.5L14.4697 3.53033C14.1768 3.23744 14.1768 2.76256 14.4697 2.46967Z" fill="#191C1F"/>
<path fill-rule="evenodd" clip-rule="evenodd" d="M5.25 7.5C5.25 7.08579 5.58579 6.75 6 6.75H19.5C19.9142 6.75 20.25 7.08579 20.25 7.5C20.25 7.91421 19.9142 8.25 19.5 8.25H6.75V21C6.75 21.4142 6.41421 21.75 6 21.75C5.58579 21.75 5.25 21.4142 5.25 21V7.5Z" fill="#191C1F"/>
</svg>
