<svg width="24" height="24" viewBox="0 0 24 24" fill="none" xmlns="http://www.w3.org/2000/svg">
<path fill-rule="evenodd" clip-rule="evenodd" d="M7.71967 2.46967C8.01256 2.17678 8.48744 2.17678 8.78033 2.46967L13.2803 6.96967C13.5732 7.26256 13.5732 7.73744 13.2803 8.03033C12.9874 8.32322 12.5126 8.32322 12.2197 8.03033L8.25 4.06066L4.28033 8.03033C3.98744 8.32322 3.51256 8.32322 3.21967 8.03033C2.92678 7.73744 2.92678 7.26256 3.21967 6.96967L7.71967 2.46967Z" fill="#191C1F"/>
<path fill-rule="evenodd" clip-rule="evenodd" d="M8.25 2.25C8.66421 2.25 9 2.58579 9 3V15.75C9 16.9435 9.47411 18.0881 10.318 18.932C11.1619 19.7759 12.3065 20.25 13.5 20.25C14.6935 20.25 15.8381 19.7759 16.682 18.932C17.5259 18.0881 18 16.9435 18 15.75V7.5C18 7.08579 18.3358 6.75 18.75 6.75C19.1642 6.75 19.5 7.08579 19.5 7.5V15.75C19.5 17.3413 18.8679 18.8674 17.7426 19.9926C16.6174 21.1179 15.0913 21.75 13.5 21.75C11.9087 21.75 10.3826 21.1179 9.25736 19.9926C8.13214 18.8674 7.5 17.3413 7.5 15.75V3C7.5 2.58579 7.83579 2.25 8.25 2.25Z" fill="#191C1F"/>
</svg>
