<svg width="24" height="24" viewBox="0 0 24 24" fill="none" xmlns="http://www.w3.org/2000/svg">
<path fill-rule="evenodd" clip-rule="evenodd" d="M11.4697 14.4697C11.7626 14.1768 12.2374 14.1768 12.5303 14.4697L16.5 18.4393L20.4697 14.4697C20.7626 14.1768 21.2374 14.1768 21.5303 14.4697C21.8232 14.7626 21.8232 15.2374 21.5303 15.5303L17.0303 20.0303C16.7374 20.3232 16.2626 20.3232 15.9697 20.0303L11.4697 15.5303C11.1768 15.2374 11.1768 14.7626 11.4697 14.4697Z" fill="#191C1F"/>
<path fill-rule="evenodd" clip-rule="evenodd" d="M2.25 6C2.25 5.58579 2.58579 5.25 3 5.25H16.5C16.9142 5.25 17.25 5.58579 17.25 6V19.5C17.25 19.9142 16.9142 20.25 16.5 20.25C16.0858 20.25 15.75 19.9142 15.75 19.5V6.75H3C2.58579 6.75 2.25 6.41421 2.25 6Z" fill="#191C1F"/>
</svg>
