<svg width="24" height="24" viewBox="0 0 24 24" fill="none" xmlns="http://www.w3.org/2000/svg">
<path fill-rule="evenodd" clip-rule="evenodd" d="M6.96967 3.96967C7.26256 3.67678 7.73744 3.67678 8.03033 3.96967L12.5303 8.46967C12.8232 8.76256 12.8232 9.23744 12.5303 9.53033C12.2374 9.82322 11.7626 9.82322 11.4697 9.53033L7.5 5.56066L3.53033 9.53033C3.23744 9.82322 2.76256 9.82322 2.46967 9.53033C2.17678 9.23744 2.17678 8.76256 2.46967 8.46967L6.96967 3.96967Z" fill="#191C1F"/>
<path fill-rule="evenodd" clip-rule="evenodd" d="M7.5 3.75C7.91421 3.75 8.25 4.08579 8.25 4.5V17.25H21C21.4142 17.25 21.75 17.5858 21.75 18C21.75 18.4142 21.4142 18.75 21 18.75H7.5C7.08579 18.75 6.75 18.4142 6.75 18V4.5C6.75 4.08579 7.08579 3.75 7.5 3.75Z" fill="#191C1F"/>
</svg>
