<svg width="24" height="24" viewBox="0 0 24 24" fill="none" xmlns="http://www.w3.org/2000/svg">
<path fill-rule="evenodd" clip-rule="evenodd" d="M8.03033 3.21967C8.32322 3.51256 8.32322 3.98744 8.03033 4.28033L4.06066 8.25L8.03033 12.2197C8.32322 12.5126 8.32322 12.9874 8.03033 13.2803C7.73744 13.5732 7.26256 13.5732 6.96967 13.2803L2.46967 8.78033C2.17678 8.48744 2.17678 8.01256 2.46967 7.71967L6.96967 3.21967C7.26256 2.92678 7.73744 2.92678 8.03033 3.21967Z" fill="#191C1F"/>
<path fill-rule="evenodd" clip-rule="evenodd" d="M2.25 8.25C2.25 7.83579 2.58579 7.5 3 7.5H15.75C17.3413 7.5 18.8674 8.13214 19.9926 9.25736C21.1179 10.3826 21.75 11.9087 21.75 13.5C21.75 15.0913 21.1179 16.6174 19.9926 17.7426C18.8674 18.8679 17.3413 19.5 15.75 19.5H7.5C7.08579 19.5 6.75 19.1642 6.75 18.75C6.75 18.3358 7.08579 18 7.5 18H15.75C16.9435 18 18.0881 17.5259 18.932 16.682C19.7759 15.8381 20.25 14.6935 20.25 13.5C20.25 12.3065 19.7759 11.1619 18.932 10.318C18.0881 9.47411 16.9435 9 15.75 9H3C2.58579 9 2.25 8.66421 2.25 8.25Z" fill="#191C1F"/>
</svg>
