<svg width="24" height="24" viewBox="0 0 24 24" fill="none" xmlns="http://www.w3.org/2000/svg">
<path fill-rule="evenodd" clip-rule="evenodd" d="M4.5 21C3.67157 21 3 20.3284 3 19.5L3 4.5C3 3.67157 3.67157 3 4.5 3H19.5C20.3284 3 21 3.67157 21 4.5V19.5C21 20.3284 20.3284 21 19.5 21H4.5ZM4.5 4.5L4.5 19.5H19.5V4.5H4.5Z" fill="#191C1F"/>
<path fill-rule="evenodd" clip-rule="evenodd" d="M9.375 9.375C9.78921 9.375 10.125 9.71079 10.125 10.125V13.875H13.875C14.2892 13.875 14.625 14.2108 14.625 14.625C14.625 15.0392 14.2892 15.375 13.875 15.375H9.375C8.96079 15.375 8.625 15.0392 8.625 14.625V10.125C8.625 9.71079 8.96079 9.375 9.375 9.375Z" fill="#191C1F"/>
<path fill-rule="evenodd" clip-rule="evenodd" d="M15.1553 8.84467C15.4482 9.13756 15.4482 9.61244 15.1553 9.90533L9.90533 15.1553C9.61244 15.4482 9.13756 15.4482 8.84467 15.1553C8.55178 14.8624 8.55178 14.3876 8.84467 14.0947L14.0947 8.84467C14.3876 8.55178 14.8624 8.55178 15.1553 8.84467Z" fill="#191C1F"/>
</svg>
