<svg width="24" height="24" viewBox="0 0 24 24" fill="none" xmlns="http://www.w3.org/2000/svg">
<path d="M15 9.75H22.5" stroke="#191C1F" stroke-width="1.5" stroke-linecap="round" stroke-linejoin="round"/>
<path d="M15 12.75H22.5" stroke="#191C1F" stroke-width="1.5" stroke-linecap="round" stroke-linejoin="round"/>
<path d="M15 15.75H22.5" stroke="#191C1F" stroke-width="1.5" stroke-linecap="round" stroke-linejoin="round"/>
<path d="M6.75 18.75H22.5" stroke="#191C1F" stroke-width="1.5" stroke-linecap="round" stroke-linejoin="round"/>
<path d="M11.8593 12.3375C11.6555 13.1557 11.226 13.9002 10.6196 14.4861C10.0132 15.072 9.25439 15.4758 8.42967 15.6514C7.60495 15.8269 6.74749 15.7673 5.95503 15.4791C5.16258 15.191 4.46702 14.686 3.94765 14.0218C3.42828 13.3575 3.10599 12.5607 3.01752 11.7221C2.92905 10.8836 3.07796 10.0371 3.44727 9.27903C3.81659 8.52101 4.39146 7.882 5.10633 7.43485C5.82121 6.9877 6.64734 6.7504 7.49055 6.75" stroke="#191C1F" stroke-width="1.5" stroke-linecap="round" stroke-linejoin="round"/>
<path d="M7.49072 10.7344V15.7406" stroke="#191C1F" stroke-width="1.5" stroke-linecap="round" stroke-linejoin="round"/>
<path d="M10.4907 4.875C10.988 4.875 11.4649 5.07254 11.8165 5.42417C12.1681 5.77581 12.3657 6.25272 12.3657 6.75C12.3657 7.24728 12.1681 7.72419 11.8165 8.07583C11.4649 8.42746 10.988 8.625 10.4907 8.625L4.49067 4.875C4.04514 4.876 3.61452 5.03562 3.27597 5.32525C2.93743 5.61488 2.71308 6.01561 2.64313 6.45562C2.57318 6.89562 2.6622 7.34616 2.89424 7.72651C3.12627 8.10685 3.48616 8.39214 3.90942 8.53125" stroke="#191C1F" stroke-width="1.5" stroke-linecap="round" stroke-linejoin="round"/>
</svg>
