<svg width="24" height="24" viewBox="0 0 24 24" fill="none" xmlns="http://www.w3.org/2000/svg">
<path d="M12 15.75C14.0711 15.75 15.75 14.0711 15.75 12C15.75 9.92893 14.0711 8.25 12 8.25C9.92893 8.25 8.25 9.92893 8.25 12C8.25 14.0711 9.92893 15.75 12 15.75Z" stroke="#191C1F" stroke-width="1.5" stroke-linecap="round" stroke-linejoin="round"/>
<path d="M16.9781 19.5C15.3076 20.6091 13.3145 21.1286 11.3151 20.976C9.31573 20.8234 7.42456 20.0075 5.94169 18.6577C4.45883 17.3079 3.4692 15.5015 3.12984 13.5253C2.79048 11.549 3.12083 9.51597 4.06846 7.74882C5.0161 5.98166 6.52674 4.58159 8.3607 3.77074C10.1947 2.9599 12.2469 2.78474 14.1917 3.27305C16.1365 3.76136 17.8626 4.88518 19.096 6.46617C20.3294 8.04717 20.9995 9.99479 21 12C21 14.0719 20.25 15.75 18.375 15.75C16.5 15.75 15.75 14.0719 15.75 12V8.25" stroke="#191C1F" stroke-width="1.5" stroke-linecap="round" stroke-linejoin="round"/>
</svg>
