<svg width="24" height="24" viewBox="0 0 24 24" fill="none" xmlns="http://www.w3.org/2000/svg">
<path d="M19.6917 19.6898C21.3026 18.0789 19.1656 13.3302 14.9187 9.08321C10.6717 4.83625 5.92299 2.69932 4.31208 4.31024C2.70117 5.92115 4.8381 10.6699 9.08505 14.9168C13.332 19.1638 18.0807 21.3007 19.6917 19.6898Z" stroke="#191C1F" stroke-width="1.5" stroke-linecap="round" stroke-linejoin="round"/>
<path d="M14.9187 14.9168C19.1656 10.6698 21.3026 5.9211 19.6917 4.31019C18.0807 2.69928 13.332 4.83621 9.08505 9.08316C4.8381 13.3301 2.70117 18.0789 4.31208 19.6898C5.92299 21.3007 10.6717 19.1637 14.9187 14.9168Z" stroke="#191C1F" stroke-width="1.5" stroke-linecap="round" stroke-linejoin="round"/>
<path d="M12 13.125C12.6213 13.125 13.125 12.6213 13.125 12C13.125 11.3787 12.6213 10.875 12 10.875C11.3787 10.875 10.875 11.3787 10.875 12C10.875 12.6213 11.3787 13.125 12 13.125Z" fill="#191C1F"/>
</svg>
