<svg width="24" height="24" viewBox="0 0 24 24" fill="none" xmlns="http://www.w3.org/2000/svg">
<path d="M12 21C16.9706 21 21 16.9706 21 12C21 7.02944 16.9706 3 12 3C7.02944 3 3 7.02944 3 12C3 16.9706 7.02944 21 12 21Z" stroke="#191C1F" stroke-width="1.5" stroke-linecap="round" stroke-linejoin="round"/>
<path d="M8.625 13.125C9.24632 13.125 9.75 12.6213 9.75 12C9.75 11.3787 9.24632 10.875 8.625 10.875C8.00368 10.875 7.5 11.3787 7.5 12C7.5 12.6213 8.00368 13.125 8.625 13.125Z" fill="#191C1F"/>
<path d="M15.375 13.125C15.9963 13.125 16.5 12.6213 16.5 12C16.5 11.3787 15.9963 10.875 15.375 10.875C14.7537 10.875 14.25 11.3787 14.25 12C14.25 12.6213 14.7537 13.125 15.375 13.125Z" fill="#191C1F"/>
<path d="M14.4844 15.75C13.7481 16.239 12.8839 16.4998 12 16.4998C11.1161 16.4998 10.2519 16.239 9.51562 15.75" stroke="#191C1F" stroke-width="1.5" stroke-linecap="round" stroke-linejoin="round"/>
<path d="M12 3C10.5 4.875 10.5 6.75 10.5 6.75C10.5 7.14782 10.658 7.52936 10.9393 7.81066C11.2206 8.09196 11.6022 8.25 12 8.25C12.3978 8.25 12.7794 8.09196 13.0607 7.81066C13.342 7.52936 13.5 7.14782 13.5 6.75" stroke="#191C1F" stroke-width="1.5" stroke-linecap="round" stroke-linejoin="round"/>
</svg>
