<svg width="24" height="24" viewBox="0 0 24 24" fill="none" xmlns="http://www.w3.org/2000/svg">
<path d="M4.63123 8.86872C4.11415 8.29805 3.83633 7.55039 3.85528 6.78053C3.87423 6.01067 4.18851 5.27759 4.73305 4.73305C5.27759 4.18851 6.01067 3.87423 6.78053 3.85528C7.55039 3.83633 8.29805 4.11415 8.86872 4.63123L19.3687 15.1312C19.8858 15.7019 20.1636 16.4496 20.1447 17.2194C20.1257 17.9893 19.8114 18.7224 19.2669 19.2669C18.7224 19.8114 17.9893 20.1257 17.2194 20.1447C16.4496 20.1636 15.7019 19.8858 15.1312 19.3687L4.63123 8.86872Z" stroke="#191C1F" stroke-width="1.5" stroke-linecap="round" stroke-linejoin="round"/>
<path d="M15.1312 4.63123C15.7019 4.11415 16.4496 3.83633 17.2194 3.85528C17.9893 3.87423 18.7224 4.18851 19.2669 4.73305C19.8114 5.27759 20.1257 6.01067 20.1447 6.78053C20.1636 7.55039 19.8858 8.29805 19.3687 8.86872L8.86872 19.3687C8.29805 19.8858 7.55039 20.1636 6.78053 20.1447C6.01067 20.1257 5.27759 19.8114 4.73305 19.2669C4.18851 18.7224 3.87423 17.9893 3.85528 17.2194C3.83633 16.4496 4.11415 15.7019 4.63123 15.1312L15.1312 4.63123Z" stroke="#191C1F" stroke-width="1.5" stroke-linecap="round" stroke-linejoin="round"/>
<path opacity="0.5" d="M12 12.375C12.2071 12.375 12.375 12.2071 12.375 12C12.375 11.7929 12.2071 11.625 12 11.625C11.7929 11.625 11.625 11.7929 11.625 12C11.625 12.2071 11.7929 12.375 12 12.375Z" stroke="#191C1F" stroke-width="1.5" stroke-linecap="round" stroke-linejoin="round"/>
<path d="M12 13.125C12.6213 13.125 13.125 12.6213 13.125 12C13.125 11.3787 12.6213 10.875 12 10.875C11.3787 10.875 10.875 11.3787 10.875 12C10.875 12.6213 11.3787 13.125 12 13.125Z" fill="#191C1F"/>
</svg>
