<svg width="24" height="24" viewBox="0 0 24 24" fill="none" xmlns="http://www.w3.org/2000/svg">
<path d="M12 21C16.9706 21 21 16.9706 21 12C21 7.02944 16.9706 3 12 3C7.02944 3 3 7.02944 3 12C3 16.9706 7.02944 21 12 21Z" stroke="#191C1F" stroke-width="1.5" stroke-linecap="round" stroke-linejoin="round"/>
<path d="M15.8625 10.5938C15.9402 10.1002 16.0594 9.61411 16.2188 9.14062" stroke="#191C1F" stroke-width="1.5" stroke-linecap="round" stroke-linejoin="round"/>
<path d="M16.2188 14.8594C16.0594 14.3859 15.9402 13.8998 15.8625 13.4062" stroke="#191C1F" stroke-width="1.5" stroke-linecap="round" stroke-linejoin="round"/>
<path d="M8.1375 10.5938C8.05985 10.1002 7.94068 9.61411 7.78125 9.14062" stroke="#191C1F" stroke-width="1.5" stroke-linecap="round" stroke-linejoin="round"/>
<path d="M7.78125 14.8594C7.94068 14.3859 8.05985 13.8998 8.1375 13.4062" stroke="#191C1F" stroke-width="1.5" stroke-linecap="round" stroke-linejoin="round"/>
<path d="M17.5125 6.64686C17.7769 6.29331 18.065 5.95816 18.375 5.64374" stroke="#191C1F" stroke-width="1.5" stroke-linecap="round" stroke-linejoin="round"/>
<path d="M18.375 18.3562C18.0673 18.0397 17.7793 17.7047 17.5125 17.3531" stroke="#191C1F" stroke-width="1.5" stroke-linecap="round" stroke-linejoin="round"/>
<path d="M5.625 18.3562C5.93266 18.0397 6.2207 17.7047 6.4875 17.3531" stroke="#191C1F" stroke-width="1.5" stroke-linecap="round" stroke-linejoin="round"/>
<path d="M6.4875 6.64686C6.22309 6.29331 5.93492 5.95816 5.625 5.64374" stroke="#191C1F" stroke-width="1.5" stroke-linecap="round" stroke-linejoin="round"/>
</svg>
