<svg width="24" height="24" viewBox="0 0 24 24" fill="none" xmlns="http://www.w3.org/2000/svg">
<path d="M12 8.625V12.375" stroke="#191C1F" stroke-width="1.5" stroke-linecap="round" stroke-linejoin="round"/>
<path d="M9 0.75H15" stroke="#191C1F" stroke-width="1.5" stroke-linecap="round" stroke-linejoin="round"/>
<path d="M17.25 3.75H6.75C5.92157 3.75 5.25 4.42157 5.25 5.25V19.5C5.25 20.3284 5.92157 21 6.75 21H17.25C18.0784 21 18.75 20.3284 18.75 19.5V5.25C18.75 4.42157 18.0784 3.75 17.25 3.75Z" stroke="#191C1F" stroke-width="1.5" stroke-linecap="round" stroke-linejoin="round"/>
<path d="M12 16.875C12.6213 16.875 13.125 16.3713 13.125 15.75C13.125 15.1287 12.6213 14.625 12 14.625C11.3787 14.625 10.875 15.1287 10.875 15.75C10.875 16.3713 11.3787 16.875 12 16.875Z" fill="#191C1F"/>
</svg>
