<svg width="24" height="24" viewBox="0 0 24 24" fill="none" xmlns="http://www.w3.org/2000/svg">
<path d="M11.625 8.25V12" stroke="#191C1F" stroke-width="1.5" stroke-linecap="round" stroke-linejoin="round"/>
<path d="M23.25 9V15" stroke="#191C1F" stroke-width="1.5" stroke-linecap="round" stroke-linejoin="round"/>
<path d="M20.25 17.25V6.75C20.25 5.92157 19.5784 5.25 18.75 5.25L4.5 5.25C3.67157 5.25 3 5.92157 3 6.75V17.25C3 18.0784 3.67157 18.75 4.5 18.75H18.75C19.5784 18.75 20.25 18.0784 20.25 17.25Z" stroke="#191C1F" stroke-width="1.5" stroke-linecap="round" stroke-linejoin="round"/>
<path d="M11.625 16.5C12.2463 16.5 12.75 15.9963 12.75 15.375C12.75 14.7537 12.2463 14.25 11.625 14.25C11.0037 14.25 10.5 14.7537 10.5 15.375C10.5 15.9963 11.0037 16.5 11.625 16.5Z" fill="#191C1F"/>
</svg>
