<svg width="24" height="24" viewBox="0 0 24 24" fill="none" xmlns="http://www.w3.org/2000/svg">
<path d="M15.75 7.5H21.75" stroke="#191C1F" stroke-width="1.5" stroke-linecap="round" stroke-linejoin="round"/>
<path d="M15 14.25H22.5C22.4984 13.385 22.1971 12.5472 21.6473 11.8794C21.0975 11.2116 20.3332 10.7549 19.4846 10.5872C18.6359 10.4195 17.7554 10.5511 16.9929 10.9596C16.2304 11.3681 15.633 12.0283 15.3025 12.8277C14.972 13.6271 14.9288 14.5164 15.1802 15.3441C15.4317 16.1718 15.9622 16.8868 16.6815 17.3673C17.4008 17.8478 18.2644 18.0642 19.1253 17.9795C19.9862 17.8949 20.7912 17.5145 21.4031 16.9032" stroke="#191C1F" stroke-width="1.5" stroke-linecap="round" stroke-linejoin="round"/>
<path d="M3 11.625H9.1875C10.0329 11.625 10.8436 11.9608 11.4414 12.5586C12.0392 13.1564 12.375 13.9671 12.375 14.8125C12.375 15.6579 12.0392 16.4686 11.4414 17.0664C10.8436 17.6642 10.0329 18 9.1875 18H3V6H8.0625C8.80842 6 9.52379 6.29632 10.0512 6.82376C10.5787 7.35121 10.875 8.06658 10.875 8.8125C10.875 9.55842 10.5787 10.2738 10.0512 10.8012C9.52379 11.3287 8.80842 11.625 8.0625 11.625" stroke="#191C1F" stroke-width="1.5" stroke-linecap="round" stroke-linejoin="round"/>
</svg>
