<svg width="24" height="24" viewBox="0 0 24 24" fill="none" xmlns="http://www.w3.org/2000/svg">
<path fill-rule="evenodd" clip-rule="evenodd" d="M0.75 7.5C0.75 7.08579 1.08579 6.75 1.5 6.75H9.75C10.1642 6.75 10.5 7.08579 10.5 7.5C10.5 7.91421 10.1642 8.25 9.75 8.25H1.5C1.08579 8.25 0.75 7.91421 0.75 7.5Z" fill="#191C1F"/>
<path fill-rule="evenodd" clip-rule="evenodd" d="M13.5 7.5C13.5 7.08579 13.8358 6.75 14.25 6.75H22.5C22.9142 6.75 23.25 7.08579 23.25 7.5C23.25 7.91421 22.9142 8.25 22.5 8.25H14.25C13.8358 8.25 13.5 7.91421 13.5 7.5Z" fill="#191C1F"/>
<path fill-rule="evenodd" clip-rule="evenodd" d="M12 6C11.1716 6 10.5 6.67157 10.5 7.5C10.5 8.32843 11.1716 9 12 9C12.8284 9 13.5 8.32843 13.5 7.5C13.5 6.67157 12.8284 6 12 6ZM9 7.5C9 5.84315 10.3431 4.5 12 4.5C13.6569 4.5 15 5.84315 15 7.5C15 9.15685 13.6569 10.5 12 10.5C10.3431 10.5 9 9.15685 9 7.5Z" fill="#191C1F"/>
<path fill-rule="evenodd" clip-rule="evenodd" d="M3.75 15C2.92157 15 2.25 15.6716 2.25 16.5C2.25 17.3284 2.92157 18 3.75 18C4.57843 18 5.25 17.3284 5.25 16.5C5.25 15.6716 4.57843 15 3.75 15ZM0.75 16.5C0.75 14.8431 2.09315 13.5 3.75 13.5C5.40685 13.5 6.75 14.8431 6.75 16.5C6.75 18.1569 5.40685 19.5 3.75 19.5C2.09315 19.5 0.75 18.1569 0.75 16.5Z" fill="#191C1F"/>
<path fill-rule="evenodd" clip-rule="evenodd" d="M20.25 15C19.4216 15 18.75 15.6716 18.75 16.5C18.75 17.3284 19.4216 18 20.25 18C21.0784 18 21.75 17.3284 21.75 16.5C21.75 15.6716 21.0784 15 20.25 15ZM17.25 16.5C17.25 14.8431 18.5931 13.5 20.25 13.5C21.9069 13.5 23.25 14.8431 23.25 16.5C23.25 18.1569 21.9069 19.5 20.25 19.5C18.5931 19.5 17.25 18.1569 17.25 16.5Z" fill="#191C1F"/>
<path fill-rule="evenodd" clip-rule="evenodd" d="M13.5092 7.60668C13.6211 7.20788 14.0352 6.97535 14.434 7.08731C16.0536 7.542 17.5136 8.44106 18.6486 9.6827C19.7836 10.9243 20.5483 12.459 20.8561 14.1128C20.9319 14.52 20.6632 14.9116 20.256 14.9874C19.8488 15.0632 19.4572 14.7945 19.3814 14.3873C19.1249 13.0088 18.4875 11.7297 17.5414 10.6948C16.5954 9.65984 15.3785 8.91047 14.0286 8.53148C13.6298 8.41952 13.3972 8.00547 13.5092 7.60668Z" fill="#191C1F"/>
<path fill-rule="evenodd" clip-rule="evenodd" d="M10.4908 7.60668C10.6028 8.00547 10.3702 8.41952 9.97145 8.53148C8.62149 8.91047 7.4046 9.65984 6.45857 10.6948C5.51253 11.7297 4.87514 13.0088 4.61857 14.3873C4.54278 14.7945 4.15122 15.0632 3.744 14.9874C3.33678 14.9116 3.06811 14.52 3.1439 14.1128C3.45172 12.459 4.21643 10.9243 5.35143 9.6827C6.48644 8.44106 7.9464 7.542 9.56602 7.08731C9.96481 6.97535 10.3789 7.20788 10.4908 7.60668Z" fill="#191C1F"/>
</svg>
