<svg width="24" height="24" viewBox="0 0 24 24" fill="none" xmlns="http://www.w3.org/2000/svg">
<path d="M9.75 8.625H14.25" stroke="#191C1F" stroke-width="1.5" stroke-linecap="round" stroke-linejoin="round"/>
<path d="M21.525 14.4657L17.4281 5.1563C17.0051 4.73779 16.4341 4.50305 15.8391 4.50305C15.244 4.50305 14.673 4.73779 14.25 5.1563V15.75" stroke="#191C1F" stroke-width="1.5" stroke-linecap="round" stroke-linejoin="round"/>
<path d="M9.75 15.75V5.1563C9.327 4.73779 8.75598 4.50305 8.16094 4.50305C7.56589 4.50305 6.99487 4.73779 6.57187 5.1563L2.475 14.4657" stroke="#191C1F" stroke-width="1.5" stroke-linecap="round" stroke-linejoin="round"/>
<path d="M6 19.5C8.07107 19.5 9.75 17.8211 9.75 15.75C9.75 13.6789 8.07107 12 6 12C3.92893 12 2.25 13.6789 2.25 15.75C2.25 17.8211 3.92893 19.5 6 19.5Z" stroke="#191C1F" stroke-width="1.5" stroke-linecap="round" stroke-linejoin="round"/>
<path d="M18 19.5C20.0711 19.5 21.75 17.8211 21.75 15.75C21.75 13.6789 20.0711 12 18 12C15.9289 12 14.25 13.6789 14.25 15.75C14.25 17.8211 15.9289 19.5 18 19.5Z" stroke="#191C1F" stroke-width="1.5" stroke-linecap="round" stroke-linejoin="round"/>
</svg>
