<svg width="24" height="24" viewBox="0 0 24 24" fill="none" xmlns="http://www.w3.org/2000/svg">
<path d="M15.375 7.5C15.9963 7.5 16.5 6.99632 16.5 6.375C16.5 5.75368 15.9963 5.25 15.375 5.25C14.7537 5.25 14.25 5.75368 14.25 6.375C14.25 6.99632 14.7537 7.5 15.375 7.5Z" fill="#191C1F"/>
<path d="M11.25 12.75L7.5 17.25" stroke="#191C1F" stroke-width="1.5" stroke-linecap="round" stroke-linejoin="round"/>
<path d="M19.5 8.99989V11.2499C19.5 13.6368 18.5518 15.926 16.864 17.6139C15.1761 19.3017 12.8869 20.2499 10.5 20.2499H0.75L9.75 8.99989V7.12489C9.75199 5.94062 10.185 4.79756 10.9682 3.90921C11.7513 3.02086 12.8311 2.44798 14.0058 2.29755C15.1805 2.14713 16.3697 2.42945 17.3515 3.0918C18.3332 3.75414 19.0403 4.7512 19.3406 5.89677L21.75 7.49989L19.5 8.99989Z" stroke="#191C1F" stroke-width="1.5" stroke-linecap="round" stroke-linejoin="round"/>
</svg>
