<svg width="24" height="24" viewBox="0 0 24 24" fill="none" xmlns="http://www.w3.org/2000/svg">
<path d="M12 4.5V2.25" stroke="#191C1F" stroke-width="1.5" stroke-linecap="round" stroke-linejoin="round"/>
<path d="M21 15C19.6312 19.7813 13.2938 21.45 12.1688 21.7125C12.058 21.7407 11.942 21.7407 11.8312 21.7125C10.7062 21.45 4.36875 19.7813 3 15V11.7938C2.99999 11.6359 3.04983 11.482 3.14241 11.354C3.235 11.2261 3.36561 11.1306 3.51562 11.0813L11.7656 8.32504C11.9183 8.27805 12.0817 8.27805 12.2344 8.32504L20.4844 11.0813C20.6344 11.1306 20.765 11.2261 20.8576 11.354C20.9502 11.482 21 11.6359 21 11.7938V15Z" stroke="#191C1F" stroke-width="1.5" stroke-linecap="round" stroke-linejoin="round"/>
<path d="M12 15.75V8.28748" stroke="#191C1F" stroke-width="1.5" stroke-linecap="round" stroke-linejoin="round"/>
<path d="M5.25 10.5V5.25C5.25 5.05109 5.32902 4.86032 5.46967 4.71967C5.61032 4.57902 5.80109 4.5 6 4.5H18C18.1989 4.5 18.3897 4.57902 18.5303 4.71967C18.671 4.86032 18.75 5.05109 18.75 5.25V10.5" stroke="#191C1F" stroke-width="1.5" stroke-linecap="round" stroke-linejoin="round"/>
</svg>
