<svg width="24" height="24" viewBox="0 0 24 24" fill="none" xmlns="http://www.w3.org/2000/svg">
<path fill-rule="evenodd" clip-rule="evenodd" d="M15 4.5C15 3.67157 15.6716 3 16.5 3H19.5C20.3284 3 21 3.67157 21 4.5V7.5C21 8.32843 20.3284 9 19.5 9H16.5C15.6716 9 15 8.32843 15 7.5V4.5ZM19.5 4.5H16.5V7.5H19.5V4.5Z" fill="#191C1F"/>
<path fill-rule="evenodd" clip-rule="evenodd" d="M3 4.5C3 3.67157 3.67157 3 4.5 3H7.5C8.32843 3 9 3.67157 9 4.5V7.5C9 8.32843 8.32843 9 7.5 9H4.5C3.67157 9 3 8.32843 3 7.5V4.5ZM7.5 4.5H4.5V7.5H7.5V4.5Z" fill="#191C1F"/>
<path fill-rule="evenodd" clip-rule="evenodd" d="M15 16.5C15 15.6716 15.6716 15 16.5 15H19.5C20.3284 15 21 15.6716 21 16.5V19.5C21 20.3284 20.3284 21 19.5 21H16.5C15.6716 21 15 20.3284 15 19.5V16.5ZM19.5 16.5H16.5V19.5H19.5V16.5Z" fill="#191C1F"/>
<path fill-rule="evenodd" clip-rule="evenodd" d="M3 16.5C3 15.6716 3.67157 15 4.5 15H7.5C8.32843 15 9 15.6716 9 16.5V19.5C9 20.3284 8.32843 21 7.5 21H4.5C3.67157 21 3 20.3284 3 19.5V16.5ZM7.5 16.5H4.5V19.5H7.5V16.5Z" fill="#191C1F"/>
<path fill-rule="evenodd" clip-rule="evenodd" d="M6 7.5C6.41421 7.5 6.75 7.83579 6.75 8.25V15.75C6.75 16.1642 6.41421 16.5 6 16.5C5.58579 16.5 5.25 16.1642 5.25 15.75V8.25C5.25 7.83579 5.58579 7.5 6 7.5Z" fill="#191C1F"/>
<path fill-rule="evenodd" clip-rule="evenodd" d="M7.5 18C7.5 17.5858 7.83579 17.25 8.25 17.25H15.75C16.1642 17.25 16.5 17.5858 16.5 18C16.5 18.4142 16.1642 18.75 15.75 18.75H8.25C7.83579 18.75 7.5 18.4142 7.5 18Z" fill="#191C1F"/>
<path fill-rule="evenodd" clip-rule="evenodd" d="M18 7.5C18.4142 7.5 18.75 7.83579 18.75 8.25V15.75C18.75 16.1642 18.4142 16.5 18 16.5C17.5858 16.5 17.25 16.1642 17.25 15.75V8.25C17.25 7.83579 17.5858 7.5 18 7.5Z" fill="#191C1F"/>
<path fill-rule="evenodd" clip-rule="evenodd" d="M7.5 6C7.5 5.58579 7.83579 5.25 8.25 5.25H15.75C16.1642 5.25 16.5 5.58579 16.5 6C16.5 6.41421 16.1642 6.75 15.75 6.75H8.25C7.83579 6.75 7.5 6.41421 7.5 6Z" fill="#191C1F"/>
</svg>
