<svg width="24" height="24" viewBox="0 0 24 24" fill="none" xmlns="http://www.w3.org/2000/svg">
<path d="M12 16.5V7.5" stroke="#191C1F" stroke-width="1.5" stroke-linecap="round" stroke-linejoin="round"/>
<path d="M8.25 13.5C8.99168 13.5 9.7167 13.7199 10.3334 14.132C10.9501 14.544 11.4307 15.1297 11.7145 15.8149C11.9984 16.5002 12.0726 17.2542 11.9279 17.9816C11.7833 18.709 11.4261 19.3772 10.9017 19.9017C10.3772 20.4261 9.70902 20.7833 8.98159 20.9279C8.25416 21.0726 7.50016 20.9984 6.81494 20.7146C6.12971 20.4307 5.54404 19.9501 5.13199 19.3334C4.71993 18.7167 4.5 17.9917 4.5 17.25V16.6219" stroke="#191C1F" stroke-width="1.5" stroke-linecap="round" stroke-linejoin="round"/>
<path d="M15.75 13.5C15.0083 13.5 14.2833 13.7199 13.6666 14.132C13.0499 14.544 12.5693 15.1297 12.2855 15.8149C12.0016 16.5002 11.9274 17.2542 12.0721 17.9816C12.2168 18.709 12.5739 19.3772 13.0984 19.9017C13.6228 20.4261 14.291 20.7833 15.0184 20.9279C15.7458 21.0726 16.4998 20.9984 17.1851 20.7146C17.8703 20.4307 18.456 19.9501 18.868 19.3334C19.2801 18.7167 19.5 17.9917 19.5 17.25V16.6219" stroke="#191C1F" stroke-width="1.5" stroke-linecap="round" stroke-linejoin="round"/>
<path d="M6.75 16.875H6C4.93634 16.8779 3.90604 16.5038 3.09191 15.8193C2.27779 15.1348 1.73245 14.184 1.55267 13.1356C1.37289 12.0873 1.57027 11.0091 2.10981 10.0924C2.64935 9.17575 3.49616 8.47983 4.5 8.12812V6.75C4.5 5.75544 4.89509 4.80161 5.59835 4.09835C6.30161 3.39509 7.25544 3 8.25 3C9.24456 3 10.1984 3.39509 10.9017 4.09835C11.6049 4.80161 12 5.75544 12 6.75V17.25" stroke="#191C1F" stroke-width="1.5" stroke-linecap="round" stroke-linejoin="round"/>
<path d="M17.25 16.875H18C19.0637 16.8779 20.094 16.5038 20.9081 15.8193C21.7222 15.1348 22.2675 14.184 22.4473 13.1356C22.6271 12.0873 22.4297 11.0091 21.8902 10.0924C21.3506 9.17575 20.5038 8.47983 19.5 8.12812V6.75C19.5 5.75544 19.1049 4.80161 18.4016 4.09835C17.6984 3.39509 16.7446 3 15.75 3C14.7554 3 13.8016 3.39509 13.0983 4.09835C12.3951 4.80161 12 5.75544 12 6.75" stroke="#191C1F" stroke-width="1.5" stroke-linecap="round" stroke-linejoin="round"/>
<path d="M8.25 7.875V8.625C8.25 9.32119 7.97344 9.98887 7.48116 10.4812C6.98887 10.9734 6.32119 11.25 5.625 11.25" stroke="#191C1F" stroke-width="1.5" stroke-linecap="round" stroke-linejoin="round"/>
<path d="M15.75 7.875V8.625C15.75 9.32119 16.0266 9.98887 16.5188 10.4812C17.0111 10.9734 17.6788 11.25 18.375 11.25" stroke="#191C1F" stroke-width="1.5" stroke-linecap="round" stroke-linejoin="round"/>
</svg>
