<svg width="24" height="24" viewBox="0 0 24 24" fill="none" xmlns="http://www.w3.org/2000/svg">
<path d="M12 16.5V21" stroke="#191C1F" stroke-width="1.5" stroke-linecap="round" stroke-linejoin="round"/>
<path d="M8.25 21H15.75" stroke="#191C1F" stroke-width="1.5" stroke-linecap="round" stroke-linejoin="round"/>
<path d="M18.9188 3.75C19.7275 4.99526 20.1853 6.43571 20.2436 7.91942C20.302 9.40314 19.9588 10.8751 19.2504 12.18C18.5419 13.485 17.4944 14.5745 16.2183 15.3337C14.9422 16.093 13.4849 16.4937 12 16.4937C10.5151 16.4937 9.05781 16.093 7.78172 15.3337C6.50564 14.5745 5.45811 13.485 4.74964 12.18C4.04116 10.8751 3.69801 9.40314 3.75638 7.91942C3.81474 6.43571 4.27246 4.99526 5.08125 3.75H18.9188Z" stroke="#191C1F" stroke-width="1.5" stroke-linecap="round" stroke-linejoin="round"/>
<path d="M3.75 8.25H20.25" stroke="#191C1F" stroke-width="1.5" stroke-linecap="round" stroke-linejoin="round"/>
</svg>
