<svg width="24" height="24" viewBox="0 0 24 24" fill="none" xmlns="http://www.w3.org/2000/svg">
<path d="M12 15C13.6569 15 15 13.6569 15 12C15 10.3431 13.6569 9 12 9C10.3431 9 9 10.3431 9 12C9 13.6569 10.3431 15 12 15Z" stroke="#191C1F" stroke-width="1.5" stroke-linecap="round" stroke-linejoin="round"/>
<path d="M7.22818 16.7719C6.61227 16.1566 6.12191 15.4275 5.78443 14.625C5.43168 13.7948 5.24988 12.902 5.24988 12C5.24988 11.098 5.43168 10.2052 5.78443 9.37499C6.12191 8.57252 6.61227 7.84335 7.22818 7.22812" stroke="#191C1F" stroke-width="1.5" stroke-linecap="round" stroke-linejoin="round"/>
<path d="M16.7719 7.22812C17.3878 7.84335 17.8781 8.57252 18.2156 9.37499C18.5684 10.2052 18.7502 11.098 18.7502 12C18.7502 12.902 18.5684 13.7948 18.2156 14.625C17.8781 15.4275 17.3878 16.1566 16.7719 16.7719" stroke="#191C1F" stroke-width="1.5" stroke-linecap="round" stroke-linejoin="round"/>
<path d="M4.57495 19.425C3.61837 18.4667 2.85456 17.3337 2.32495 16.0875C1.78039 14.7936 1.49988 13.4039 1.49988 12C1.49988 10.5962 1.78039 9.20645 2.32495 7.91251C2.85456 6.66633 3.61837 5.53335 4.57495 4.57501" stroke="#191C1F" stroke-width="1.5" stroke-linecap="round" stroke-linejoin="round"/>
<path d="M19.425 4.57501C20.3816 5.53335 21.1454 6.66633 21.675 7.91251C22.2196 9.20645 22.5001 10.5962 22.5001 12C22.5001 13.4039 22.2196 14.7936 21.675 16.0875C21.1454 17.3337 20.3816 18.4667 19.425 19.425" stroke="#191C1F" stroke-width="1.5" stroke-linecap="round" stroke-linejoin="round"/>
</svg>
