<svg width="24" height="24" viewBox="0 0 24 24" fill="none" xmlns="http://www.w3.org/2000/svg">
<path d="M12 5.25V16.875" stroke="#191C1F" stroke-width="1.5" stroke-linecap="round" stroke-linejoin="round"/>
<path d="M17.5407 14.2875C18.2813 14.325 20.2688 14.1656 21.0001 11.25C21.7313 8.33437 22.397 4.5 19.5001 4.5C16.6032 4.5 12.0001 9 12.0001 12C12.0001 9 7.39695 4.5 4.50008 4.5C1.6032 4.5 2.25008 8.25 3.00008 11.25C3.75008 14.25 5.71883 14.325 6.45945 14.2875" stroke="#191C1F" stroke-width="1.5" stroke-linecap="round" stroke-linejoin="round"/>
<path d="M8.25 13.5188C7.60261 13.5912 6.98999 13.8494 6.48609 14.2622C5.98219 14.6751 5.60853 15.2249 5.41021 15.8454C5.21189 16.4659 5.19738 17.1306 5.36843 17.7591C5.53949 18.3877 5.88879 18.9533 6.3742 19.3878C6.85961 19.8222 7.46037 20.1069 8.10399 20.2074C8.7476 20.308 9.40657 20.2202 10.0014 19.9545C10.5962 19.6888 11.1014 19.2567 11.456 18.7103C11.8107 18.1639 11.9996 17.5265 12 16.875C12.0004 17.5265 12.1893 18.1639 12.544 18.7103C12.8986 19.2567 13.4038 19.6888 13.9986 19.9545C14.5934 20.2202 15.2524 20.308 15.896 20.2074C16.5396 20.1069 17.1404 19.8222 17.6258 19.3878C18.1112 18.9533 18.4605 18.3877 18.6316 17.7591C18.8026 17.1306 18.7881 16.4659 18.5898 15.8454C18.3915 15.2249 18.0178 14.6751 17.5139 14.2622C17.01 13.8494 16.3974 13.5912 15.75 13.5188" stroke="#191C1F" stroke-width="1.5" stroke-linecap="round" stroke-linejoin="round"/>
</svg>
