<svg width="24" height="24" viewBox="0 0 24 24" fill="none" xmlns="http://www.w3.org/2000/svg">
<path d="M3.75 20.25H20.25" stroke="#191C1F" stroke-width="1.5" stroke-linecap="round" stroke-linejoin="round"/>
<path d="M9 20.25V12.375H7.875C6.38316 12.375 4.95242 11.7824 3.89752 10.7275C2.84263 9.67258 2.25 8.24184 2.25 6.75V6.75C2.25246 6.25348 2.4508 5.778 2.8019 5.4269C3.153 5.0758 3.62848 4.87746 4.125 4.875C4.62152 4.87746 5.097 5.0758 5.4481 5.4269C5.7992 5.778 5.99754 6.25348 6 6.75C6.00246 7.24652 6.2008 7.722 6.5519 8.0731C6.903 8.4242 7.37848 8.62254 7.875 8.625H9V5.25C9 4.45435 9.31607 3.69129 9.87868 3.12868C10.4413 2.56607 11.2044 2.25 12 2.25V2.25C12.7956 2.25 13.5587 2.56607 14.1213 3.12868C14.6839 3.69129 15 4.45435 15 5.25V12.375H16.125C16.6215 12.3725 17.097 12.1742 17.4481 11.8231C17.7992 11.472 17.9975 10.9965 18 10.5V10.5C18.0025 10.0035 18.2008 9.528 18.5519 9.1769C18.903 8.8258 19.3785 8.62746 19.875 8.625C20.3715 8.62746 20.847 8.8258 21.1981 9.1769C21.5492 9.528 21.7475 10.0035 21.75 10.5V10.5C21.75 11.9918 21.1574 13.4226 20.1025 14.4775C19.0476 15.5324 17.6168 16.125 16.125 16.125H15V20.25" stroke="#191C1F" stroke-width="1.5" stroke-linecap="round" stroke-linejoin="round"/>
</svg>
