<svg width="24" height="24" viewBox="0 0 24 24" fill="none" xmlns="http://www.w3.org/2000/svg">
<path d="M3.14062 2.25L20.8594 21.75" stroke="#191C1F" stroke-width="1.5" stroke-linecap="round" stroke-linejoin="round"/>
<path d="M8.8125 4.03125L9 3.75H15L16.5 6H19.5C19.8978 6 20.2794 6.15804 20.5607 6.43934C20.842 6.72064 21 7.10218 21 7.5V17.4375" stroke="#191C1F" stroke-width="1.5" stroke-linecap="round" stroke-linejoin="round"/>
<path d="M18.8156 19.5H4.5C4.10218 19.5 3.72064 19.342 3.43934 19.0607C3.15804 18.7794 3 18.3978 3 18V7.5C3 7.10218 3.15804 6.72064 3.43934 6.43934C3.72064 6.15804 4.10218 6 4.5 6H6.54375" stroke="#191C1F" stroke-width="1.5" stroke-linecap="round" stroke-linejoin="round"/>
<path d="M14.4468 14.7C14.1256 15.0311 13.74 15.2928 13.3138 15.4691C12.8875 15.6453 12.4297 15.7323 11.9685 15.7247C11.5073 15.7171 11.0526 15.6151 10.6324 15.4249C10.2122 15.2346 9.83543 14.9603 9.52539 14.6188C9.21534 14.2773 8.97858 13.8759 8.82974 13.4393C8.68089 13.0028 8.62311 12.5403 8.65996 12.0805C8.69681 11.6208 8.82752 11.1734 9.04401 10.7661C9.2605 10.3588 9.55817 10.0002 9.91866 9.71249" stroke="#191C1F" stroke-width="1.5" stroke-linecap="round" stroke-linejoin="round"/>
</svg>
