<svg width="24" height="24" viewBox="0 0 24 24" fill="none" xmlns="http://www.w3.org/2000/svg">
<path d="M3.75 15.75L20.25 21" stroke="#191C1F" stroke-width="1.5" stroke-linecap="round" stroke-linejoin="round"/>
<path d="M20.25 15.75L3.75 21" stroke="#191C1F" stroke-width="1.5" stroke-linecap="round" stroke-linejoin="round"/>
<path d="M14.25 12.75C14.25 13.3467 14.0129 13.919 13.591 14.341C13.169 14.7629 12.5967 15 12 15C11.4033 15 10.831 14.7629 10.409 14.341C9.98705 13.919 9.75 13.3467 9.75 12.75C9.75 10.5 12 9 12 9C12 9 14.25 10.5 14.25 12.75Z" stroke="#191C1F" stroke-width="1.5" stroke-linecap="round" stroke-linejoin="round"/>
<path d="M16.875 10.125C16.875 11.4179 16.3614 12.6579 15.4471 13.5721C14.5329 14.4864 13.2929 15 12 15C10.7071 15 9.46709 14.4864 8.55285 13.5721C7.63861 12.6579 7.125 11.4179 7.125 10.125C7.125 6 12 3 12 3C12 3 16.875 6 16.875 10.125Z" stroke="#191C1F" stroke-width="1.5" stroke-linecap="round" stroke-linejoin="round"/>
</svg>
