<svg width="24" height="24" viewBox="0 0 24 24" fill="none" xmlns="http://www.w3.org/2000/svg">
<path fill-rule="evenodd" clip-rule="evenodd" d="M12 3.75C7.44365 3.75 3.75 7.44365 3.75 12C3.75 16.5563 7.44365 20.25 12 20.25C16.5563 20.25 20.25 16.5563 20.25 12C20.25 7.44365 16.5563 3.75 12 3.75ZM2.25 12C2.25 6.61522 6.61522 2.25 12 2.25C17.3848 2.25 21.75 6.61522 21.75 12C21.75 17.3848 17.3848 21.75 12 21.75C6.61522 21.75 2.25 17.3848 2.25 12Z" fill="#191C1F"/>
<path fill-rule="evenodd" clip-rule="evenodd" d="M8.12328 10.3175C8.43117 10.0404 8.90538 10.0654 9.18248 10.3733L12 13.5039L14.8175 10.3733C15.0946 10.0654 15.5688 10.0404 15.8767 10.3175C16.1846 10.5946 16.2096 11.0688 15.9325 11.3767L12.5575 15.1267C12.4152 15.2848 12.2126 15.375 12 15.375C11.7874 15.375 11.5848 15.2848 11.4425 15.1267L8.06754 11.3767C7.79044 11.0688 7.8154 10.5946 8.12328 10.3175Z" fill="#191C1F"/>
</svg>
