<svg width="24" height="24" viewBox="0 0 24 24" fill="none" xmlns="http://www.w3.org/2000/svg">
<path fill-rule="evenodd" clip-rule="evenodd" d="M3.96967 11.4697C4.26256 11.1768 4.73744 11.1768 5.03033 11.4697L12 18.4393L18.9697 11.4697C19.2626 11.1768 19.7374 11.1768 20.0303 11.4697C20.3232 11.7626 20.3232 12.2374 20.0303 12.5303L12.5303 20.0303C12.2374 20.3232 11.7626 20.3232 11.4697 20.0303L3.96967 12.5303C3.67678 12.2374 3.67678 11.7626 3.96967 11.4697Z" fill="#191C1F"/>
<path fill-rule="evenodd" clip-rule="evenodd" d="M3.96967 3.96967C4.26256 3.67678 4.73744 3.67678 5.03033 3.96967L12 10.9393L18.9697 3.96967C19.2626 3.67678 19.7374 3.67678 20.0303 3.96967C20.3232 4.26256 20.3232 4.73744 20.0303 5.03033L12.5303 12.5303C12.2374 12.8232 11.7626 12.8232 11.4697 12.5303L3.96967 5.03033C3.67678 4.73744 3.67678 4.26256 3.96967 3.96967Z" fill="#191C1F"/>
</svg>
