<svg width="24" height="24" viewBox="0 0 24 24" fill="none" xmlns="http://www.w3.org/2000/svg">
<path fill-rule="evenodd" clip-rule="evenodd" d="M12 3.75C7.44365 3.75 3.75 7.44365 3.75 12C3.75 16.5563 7.44365 20.25 12 20.25C16.5563 20.25 20.25 16.5563 20.25 12C20.25 7.44365 16.5563 3.75 12 3.75ZM2.25 12C2.25 6.61522 6.61522 2.25 12 2.25C17.3848 2.25 21.75 6.61522 21.75 12C21.75 17.3848 17.3848 21.75 12 21.75C6.61522 21.75 2.25 17.3848 2.25 12Z" fill="#191C1F"/>
<path fill-rule="evenodd" clip-rule="evenodd" d="M11.4697 12.2197C11.7626 11.9268 12.2374 11.9268 12.5303 12.2197L15.5303 15.2197C15.8232 15.5126 15.8232 15.9874 15.5303 16.2803C15.2374 16.5732 14.7626 16.5732 14.4697 16.2803L12 13.8107L9.53033 16.2803C9.23744 16.5732 8.76256 16.5732 8.46967 16.2803C8.17678 15.9874 8.17678 15.5126 8.46967 15.2197L11.4697 12.2197Z" fill="#191C1F"/>
<path fill-rule="evenodd" clip-rule="evenodd" d="M11.4697 6.96967C11.7626 6.67678 12.2374 6.67678 12.5303 6.96967L15.5303 9.96967C15.8232 10.2626 15.8232 10.7374 15.5303 11.0303C15.2374 11.3232 14.7626 11.3232 14.4697 11.0303L12 8.56066L9.53033 11.0303C9.23744 11.3232 8.76256 11.3232 8.46967 11.0303C8.17678 10.7374 8.17678 10.2626 8.46967 9.96967L11.4697 6.96967Z" fill="#191C1F"/>
</svg>
