<svg width="24" height="24" viewBox="0 0 24 24" fill="none" xmlns="http://www.w3.org/2000/svg">
<path fill-rule="evenodd" clip-rule="evenodd" d="M12 3.75C7.44365 3.75 3.75 7.44365 3.75 12C3.75 16.5563 7.44365 20.25 12 20.25C16.5563 20.25 20.25 16.5563 20.25 12C20.25 7.44365 16.5563 3.75 12 3.75ZM2.25 12C2.25 6.61522 6.61522 2.25 12 2.25C17.3848 2.25 21.75 6.61522 21.75 12C21.75 17.3848 17.3848 21.75 12 21.75C6.61522 21.75 2.25 17.3848 2.25 12Z" fill="#191C1F"/>
<path fill-rule="evenodd" clip-rule="evenodd" d="M12 9C12.2126 9 12.4152 9.09024 12.5575 9.24828L15.9325 12.9983C16.2096 13.3062 16.1846 13.7804 15.8767 14.0575C15.5688 14.3346 15.0946 14.3096 14.8175 14.0017L12 10.8711L9.18248 14.0017C8.90538 14.3096 8.43117 14.3346 8.12328 14.0575C7.8154 13.7804 7.79044 13.3062 8.06754 12.9983L11.4425 9.24828C11.5848 9.09024 11.7874 9 12 9Z" fill="#191C1F"/>
</svg>
