<svg width="24" height="24" viewBox="0 0 24 24" fill="none" xmlns="http://www.w3.org/2000/svg">
<path fill-rule="evenodd" clip-rule="evenodd" d="M12 3.75C7.44365 3.75 3.75 7.44365 3.75 12C3.75 16.5563 7.44365 20.25 12 20.25C16.5563 20.25 20.25 16.5563 20.25 12C20.25 7.44365 16.5563 3.75 12 3.75ZM2.25 12C2.25 6.61522 6.61522 2.25 12 2.25C17.3848 2.25 21.75 6.61522 21.75 12C21.75 17.3848 17.3848 21.75 12 21.75C6.61522 21.75 2.25 17.3848 2.25 12Z" fill="#191C1F"/>
<path fill-rule="evenodd" clip-rule="evenodd" d="M8.46967 7.71967C8.76256 7.42678 9.23744 7.42678 9.53033 7.71967L12 10.1893L14.4697 7.71967C14.7626 7.42678 15.2374 7.42678 15.5303 7.71967C15.8232 8.01256 15.8232 8.48744 15.5303 8.78033L12.5303 11.7803C12.2374 12.0732 11.7626 12.0732 11.4697 11.7803L8.46967 8.78033C8.17678 8.48744 8.17678 8.01256 8.46967 7.71967Z" fill="#191C1F"/>
<path fill-rule="evenodd" clip-rule="evenodd" d="M8.46967 12.9697C8.76256 12.6768 9.23744 12.6768 9.53033 12.9697L12 15.4393L14.4697 12.9697C14.7626 12.6768 15.2374 12.6768 15.5303 12.9697C15.8232 13.2626 15.8232 13.7374 15.5303 14.0303L12.5303 17.0303C12.2374 17.3232 11.7626 17.3232 11.4697 17.0303L8.46967 14.0303C8.17678 13.7374 8.17678 13.2626 8.46967 12.9697Z" fill="#191C1F"/>
</svg>
