<svg width="24" height="24" viewBox="0 0 24 24" fill="none" xmlns="http://www.w3.org/2000/svg">
<path fill-rule="evenodd" clip-rule="evenodd" d="M19.2803 3.96967C19.5732 4.26256 19.5732 4.73744 19.2803 5.03033L12.3107 12L19.2803 18.9697C19.5732 19.2626 19.5732 19.7374 19.2803 20.0303C18.9874 20.3232 18.5126 20.3232 18.2197 20.0303L10.7197 12.5303C10.4268 12.2374 10.4268 11.7626 10.7197 11.4697L18.2197 3.96967C18.5126 3.67678 18.9874 3.67678 19.2803 3.96967Z" fill="#191C1F"/>
<path fill-rule="evenodd" clip-rule="evenodd" d="M11.7803 3.96967C12.0732 4.26256 12.0732 4.73744 11.7803 5.03033L4.81066 12L11.7803 18.9697C12.0732 19.2626 12.0732 19.7374 11.7803 20.0303C11.4874 20.3232 11.0126 20.3232 10.7197 20.0303L3.21967 12.5303C2.92678 12.2374 2.92678 11.7626 3.21967 11.4697L10.7197 3.96967C11.0126 3.67678 11.4874 3.67678 11.7803 3.96967Z" fill="#191C1F"/>
</svg>
