<svg width="24" height="24" viewBox="0 0 24 24" fill="none" xmlns="http://www.w3.org/2000/svg">
<path fill-rule="evenodd" clip-rule="evenodd" d="M11.4697 11.4697C11.7626 11.1768 12.2374 11.1768 12.5303 11.4697L20.0303 18.9697C20.3232 19.2626 20.3232 19.7374 20.0303 20.0303C19.7374 20.3232 19.2626 20.3232 18.9697 20.0303L12 13.0607L5.03033 20.0303C4.73744 20.3232 4.26256 20.3232 3.96967 20.0303C3.67678 19.7374 3.67678 19.2626 3.96967 18.9697L11.4697 11.4697Z" fill="#191C1F"/>
<path fill-rule="evenodd" clip-rule="evenodd" d="M11.4697 3.96967C11.7626 3.67678 12.2374 3.67678 12.5303 3.96967L20.0303 11.4697C20.3232 11.7626 20.3232 12.2374 20.0303 12.5303C19.7374 12.8232 19.2626 12.8232 18.9697 12.5303L12 5.56066L5.03033 12.5303C4.73744 12.8232 4.26256 12.8232 3.96967 12.5303C3.67678 12.2374 3.67678 11.7626 3.96967 11.4697L11.4697 3.96967Z" fill="#191C1F"/>
</svg>
