<svg width="24" height="24" viewBox="0 0 24 24" fill="none" xmlns="http://www.w3.org/2000/svg">
<path fill-rule="evenodd" clip-rule="evenodd" d="M4.71967 3.96967C5.01256 3.67678 5.48744 3.67678 5.78033 3.96967L13.2803 11.4697C13.5732 11.7626 13.5732 12.2374 13.2803 12.5303L5.78033 20.0303C5.48744 20.3232 5.01256 20.3232 4.71967 20.0303C4.42678 19.7374 4.42678 19.2626 4.71967 18.9697L11.6893 12L4.71967 5.03033C4.42678 4.73744 4.42678 4.26256 4.71967 3.96967Z" fill="#191C1F"/>
<path fill-rule="evenodd" clip-rule="evenodd" d="M12.2197 3.96967C12.5126 3.67678 12.9874 3.67678 13.2803 3.96967L20.7803 11.4697C21.0732 11.7626 21.0732 12.2374 20.7803 12.5303L13.2803 20.0303C12.9874 20.3232 12.5126 20.3232 12.2197 20.0303C11.9268 19.7374 11.9268 19.2626 12.2197 18.9697L19.1893 12L12.2197 5.03033C11.9268 4.73744 11.9268 4.26256 12.2197 3.96967Z" fill="#191C1F"/>
</svg>
