<svg width="24" height="24" viewBox="0 0 24 24" fill="none" xmlns="http://www.w3.org/2000/svg">
<path fill-rule="evenodd" clip-rule="evenodd" d="M12 3.75C7.44365 3.75 3.75 7.44365 3.75 12C3.75 16.5563 7.44365 20.25 12 20.25C16.5563 20.25 20.25 16.5563 20.25 12C20.25 7.44365 16.5563 3.75 12 3.75ZM2.25 12C2.25 6.61522 6.61522 2.25 12 2.25C17.3848 2.25 21.75 6.61522 21.75 12C21.75 17.3848 17.3848 21.75 12 21.75C6.61522 21.75 2.25 17.3848 2.25 12Z" fill="#191C1F"/>
<path fill-rule="evenodd" clip-rule="evenodd" d="M7.71967 8.46967C8.01256 8.17678 8.48744 8.17678 8.78033 8.46967L11.7803 11.4697C12.0732 11.7626 12.0732 12.2374 11.7803 12.5303L8.78033 15.5303C8.48744 15.8232 8.01256 15.8232 7.71967 15.5303C7.42678 15.2374 7.42678 14.7626 7.71967 14.4697L10.1893 12L7.71967 9.53033C7.42678 9.23744 7.42678 8.76256 7.71967 8.46967Z" fill="#191C1F"/>
<path fill-rule="evenodd" clip-rule="evenodd" d="M12.9697 8.46967C13.2626 8.17678 13.7374 8.17678 14.0303 8.46967L17.0303 11.4697C17.3232 11.7626 17.3232 12.2374 17.0303 12.5303L14.0303 15.5303C13.7374 15.8232 13.2626 15.8232 12.9697 15.5303C12.6768 15.2374 12.6768 14.7626 12.9697 14.4697L15.4393 12L12.9697 9.53033C12.6768 9.23744 12.6768 8.76256 12.9697 8.46967Z" fill="#191C1F"/>
</svg>
