<svg width="24" height="24" viewBox="0 0 24 24" fill="none" xmlns="http://www.w3.org/2000/svg">
<path fill-rule="evenodd" clip-rule="evenodd" d="M12 3.75C7.44365 3.75 3.75 7.44365 3.75 12C3.75 16.5563 7.44365 20.25 12 20.25C16.5563 20.25 20.25 16.5563 20.25 12C20.25 7.44365 16.5563 3.75 12 3.75ZM2.25 12C2.25 6.61522 6.61522 2.25 12 2.25C17.3848 2.25 21.75 6.61522 21.75 12C21.75 17.3848 17.3848 21.75 12 21.75C6.61522 21.75 2.25 17.3848 2.25 12Z" fill="#191C1F"/>
<path fill-rule="evenodd" clip-rule="evenodd" d="M16.2803 8.46967C16.5732 8.76256 16.5732 9.23744 16.2803 9.53033L13.8107 12L16.2803 14.4697C16.5732 14.7626 16.5732 15.2374 16.2803 15.5303C15.9874 15.8232 15.5126 15.8232 15.2197 15.5303L12.2197 12.5303C11.9268 12.2374 11.9268 11.7626 12.2197 11.4697L15.2197 8.46967C15.5126 8.17678 15.9874 8.17678 16.2803 8.46967Z" fill="#191C1F"/>
<path fill-rule="evenodd" clip-rule="evenodd" d="M11.0303 8.46967C11.3232 8.76256 11.3232 9.23744 11.0303 9.53033L8.56066 12L11.0303 14.4697C11.3232 14.7626 11.3232 15.2374 11.0303 15.5303C10.7374 15.8232 10.2626 15.8232 9.96967 15.5303L6.96967 12.5303C6.67678 12.2374 6.67678 11.7626 6.96967 11.4697L9.96967 8.46967C10.2626 8.17678 10.7374 8.17678 11.0303 8.46967Z" fill="#191C1F"/>
</svg>
