<svg width="24" height="24" viewBox="0 0 24 24" fill="none" xmlns="http://www.w3.org/2000/svg">
<path d="M4.5 3.75L19.5 20.25" stroke="#191C1F" stroke-width="1.5" stroke-linecap="round" stroke-linejoin="round"/>
<path d="M12.6938 8.30629L17.4657 3.53442C17.5701 3.42845 17.7036 3.35591 17.8493 3.326C17.9949 3.29608 18.1462 3.31016 18.2839 3.36643C18.4215 3.4227 18.5394 3.51863 18.6224 3.64202C18.7054 3.76541 18.7498 3.9107 18.7501 4.05942V14.9625" stroke="#191C1F" stroke-width="1.5" stroke-linecap="round" stroke-linejoin="round"/>
<path d="M19.4999 20.25H2.55929C2.41058 20.2498 2.26529 20.2053 2.1419 20.1223C2.0185 20.0393 1.92258 19.9215 1.86631 19.7838C1.81004 19.6462 1.79596 19.4949 1.82587 19.3492C1.85579 19.2035 1.92833 19.07 2.03429 18.9657L10.5749 10.425" stroke="#191C1F" stroke-width="1.5" stroke-linecap="round" stroke-linejoin="round"/>
</svg>
