<svg width="24" height="24" viewBox="0 0 24 24" fill="none" xmlns="http://www.w3.org/2000/svg">
<path d="M18.7499 4.05942V19.5C18.7499 19.699 18.6709 19.8897 18.5303 20.0304C18.3896 20.171 18.1988 20.25 17.9999 20.25H2.55929C2.41058 20.2498 2.26529 20.2053 2.1419 20.1223C2.0185 20.0393 1.92258 19.9215 1.86631 19.7838C1.81004 19.6462 1.79596 19.4949 1.82587 19.3492C1.85579 19.2035 1.92833 19.07 2.03429 18.9657L17.4655 3.53442C17.5699 3.42845 17.7034 3.35591 17.8491 3.326C17.9948 3.29608 18.146 3.31016 18.2837 3.36643C18.4214 3.4227 18.5392 3.51863 18.6222 3.64202C18.7052 3.76541 18.7497 3.9107 18.7499 4.05942Z" stroke="#191C1F" stroke-width="1.5" stroke-linecap="round" stroke-linejoin="round"/>
<path d="M7.5 13.5V20.25" stroke="#191C1F" stroke-width="1.5" stroke-linecap="round" stroke-linejoin="round"/>
</svg>
