<svg width="24" height="24" viewBox="0 0 24 24" fill="none" xmlns="http://www.w3.org/2000/svg">
<path d="M9.75 16.5C11.4069 16.5 12.75 15.1569 12.75 13.5C12.75 11.8431 11.4069 10.5 9.75 10.5C8.09315 10.5 6.75 11.8431 6.75 13.5C6.75 15.1569 8.09315 16.5 9.75 16.5Z" stroke="#191C1F" stroke-width="1.5" stroke-linecap="round" stroke-linejoin="round"/>
<path d="M5.00625 19.5C5.43196 18.6022 6.1037 17.8436 6.94343 17.3124C7.78315 16.7813 8.75638 16.4993 9.75 16.4993C10.7436 16.4993 11.7168 16.7813 12.5566 17.3124C13.3963 17.8436 14.068 18.6022 14.4938 19.5H20.25C20.4489 19.5 20.6397 19.421 20.7803 19.2803C20.921 19.1397 21 18.9489 21 18.75V5.25C21 5.05109 20.921 4.86032 20.7803 4.71967C20.6397 4.57902 20.4489 4.5 20.25 4.5H3.75C3.55109 4.5 3.36032 4.57902 3.21967 4.71967C3.07902 4.86032 3 5.05109 3 5.25V18.75C3 18.9489 3.07902 19.1397 3.21967 19.2803C3.36032 19.421 3.55109 19.5 3.75 19.5H5.00625Z" stroke="#191C1F" stroke-width="1.5" stroke-linecap="round" stroke-linejoin="round"/>
<path d="M16.5 16.5H18V7.5H6V9" stroke="#191C1F" stroke-width="1.5" stroke-linecap="round" stroke-linejoin="round"/>
</svg>
