<svg width="24" height="24" viewBox="0 0 24 24" fill="none" xmlns="http://www.w3.org/2000/svg">
<path d="M12.3749 20.25H4.47182C4.37667 20.2513 4.28223 20.2334 4.19408 20.1976C4.10593 20.1618 4.02585 20.1087 3.95856 20.0414C3.89128 19.9741 3.83815 19.894 3.80232 19.8059C3.76649 19.7177 3.74868 19.6233 3.74994 19.5281V11.625C3.74994 9.33751 4.65864 7.14371 6.27614 5.5262C7.89365 3.9087 10.0874 3 12.3749 3V3C13.5076 3 14.6292 3.22309 15.6756 3.65654C16.722 4.08999 17.6728 4.7253 18.4737 5.5262C19.2746 6.32711 19.91 7.27792 20.3434 8.32436C20.7768 9.37079 20.9999 10.4923 20.9999 11.625V11.625C20.9999 12.7577 20.7768 13.8792 20.3434 14.9256C19.91 15.9721 19.2746 16.9229 18.4737 17.7238C17.6728 18.5247 16.722 19.16 15.6756 19.5935C14.6292 20.0269 13.5076 20.25 12.3749 20.25V20.25Z" stroke="#191C1F" stroke-width="1.5" stroke-linecap="round" stroke-linejoin="round"/>
</svg>
