<svg width="24" height="24" viewBox="0 0 24 24" fill="none" xmlns="http://www.w3.org/2000/svg">
<path fill-rule="evenodd" clip-rule="evenodd" d="M12 3.75C7.44365 3.75 3.75 7.44365 3.75 12C3.75 16.5563 7.44365 20.25 12 20.25C16.5563 20.25 20.25 16.5563 20.25 12C20.25 7.44365 16.5563 3.75 12 3.75ZM2.25 12C2.25 6.61522 6.61522 2.25 12 2.25C17.3848 2.25 21.75 6.61522 21.75 12C21.75 17.3848 17.3848 21.75 12 21.75C6.61522 21.75 2.25 17.3848 2.25 12Z" fill="#191C1F"/>
<path fill-rule="evenodd" clip-rule="evenodd" d="M12 2.25C12.4142 2.25 12.75 2.58579 12.75 3V21C12.75 21.4142 12.4142 21.75 12 21.75C11.5858 21.75 11.25 21.4142 11.25 21V3C11.25 2.58579 11.5858 2.25 12 2.25Z" fill="#191C1F"/>
<path fill-rule="evenodd" clip-rule="evenodd" d="M18 4.54688C18.4142 4.54688 18.75 4.88266 18.75 5.29688V18.7031C18.75 19.1173 18.4142 19.4531 18 19.4531C17.5858 19.4531 17.25 19.1173 17.25 18.7031V5.29688C17.25 4.88266 17.5858 4.54688 18 4.54688Z" fill="#191C1F"/>
<path fill-rule="evenodd" clip-rule="evenodd" d="M15 2.76562C15.4142 2.76562 15.75 3.10141 15.75 3.51562V20.4844C15.75 20.8986 15.4142 21.2344 15 21.2344C14.5858 21.2344 14.25 20.8986 14.25 20.4844V3.51562C14.25 3.10141 14.5858 2.76562 15 2.76562Z" fill="#191C1F"/>
</svg>
