<svg width="24" height="24" viewBox="0 0 24 24" fill="none" xmlns="http://www.w3.org/2000/svg">
<path fill-rule="evenodd" clip-rule="evenodd" d="M6.16373 5.10309C6.45717 5.39543 6.45805 5.87031 6.1657 6.16374C5.14451 7.18874 4.40945 8.46323 4.03365 9.86045C3.92607 10.2604 3.51459 10.4975 3.11459 10.3899C2.71459 10.2823 2.47755 9.87085 2.58513 9.47085C3.02895 7.82074 3.89705 6.31557 5.10308 5.10506C5.39543 4.81162 5.8703 4.81074 6.16373 5.10309Z" fill="#191C1F"/>
<path fill-rule="evenodd" clip-rule="evenodd" d="M3.11707 13.6001C3.51743 13.4939 3.9281 13.7323 4.03431 14.1327C4.40585 15.5332 5.14088 16.8106 6.16495 17.8355C6.45772 18.1286 6.45751 18.6034 6.16448 18.8962C5.87146 19.189 5.39659 19.1888 5.10382 18.8957C3.89291 17.6837 3.02379 16.1733 2.58447 14.5173C2.47825 14.117 2.7167 13.7063 3.11707 13.6001Z" fill="#191C1F"/>
<path fill-rule="evenodd" clip-rule="evenodd" d="M8.95156 20.4928C9.06083 20.0932 9.4733 19.8579 9.87284 19.9672C11.2684 20.3489 12.7409 20.3489 14.1365 19.9672C14.5361 19.8579 14.9485 20.0932 15.0578 20.4928C15.1671 20.8923 14.9318 21.3048 14.5322 21.4141C12.8776 21.8666 11.1318 21.8666 9.47714 21.4141C9.0776 21.3048 8.84229 20.8923 8.95156 20.4928Z" fill="#191C1F"/>
<path fill-rule="evenodd" clip-rule="evenodd" d="M20.8854 13.6102C21.2854 13.7177 21.5224 14.1292 21.4149 14.5292C20.971 16.1793 20.1029 17.6845 18.8969 18.895C18.6046 19.1884 18.1297 19.1893 17.8363 18.897C17.5428 18.6046 17.5419 18.1298 17.8343 17.8363C18.8555 16.8113 19.5905 15.5368 19.9663 14.1396C20.0739 13.7396 20.4854 13.5026 20.8854 13.6102Z" fill="#191C1F"/>
<path fill-rule="evenodd" clip-rule="evenodd" d="M17.8355 5.10383C18.1285 4.81107 18.6034 4.81128 18.8962 5.1043C20.1071 6.31629 20.9762 7.82674 21.4155 9.4827C21.5217 9.88307 21.2833 10.2937 20.8829 10.3999C20.4826 10.5062 20.0719 10.2677 19.9657 9.86734C19.5941 8.46689 18.8591 7.18948 17.835 6.16449C17.5423 5.87147 17.5425 5.3966 17.8355 5.10383Z" fill="#191C1F"/>
<path fill-rule="evenodd" clip-rule="evenodd" d="M14.1271 4.03284C12.7315 3.65116 11.259 3.65116 9.86344 4.03284C9.4639 4.14211 9.05143 3.9068 8.94216 3.50726C8.83289 3.10772 9.0682 2.69525 9.46774 2.58598C11.1224 2.13345 12.8682 2.13345 14.5228 2.58598C14.9224 2.69525 15.1577 3.10772 15.0484 3.50726C14.9391 3.9068 14.5267 4.14211 14.1271 4.03284Z" fill="#191C1F"/>
</svg>
