<svg width="24" height="24" viewBox="0 0 24 24" fill="none" xmlns="http://www.w3.org/2000/svg">
<path fill-rule="evenodd" clip-rule="evenodd" d="M7.125 4.5C5.67525 4.5 4.5 5.67525 4.5 7.125C4.5 8.57475 5.67525 9.75 7.125 9.75C8.57475 9.75 9.75 8.57475 9.75 7.125C9.75 5.67525 8.57475 4.5 7.125 4.5ZM3 7.125C3 4.84683 4.84683 3 7.125 3C9.40317 3 11.25 4.84683 11.25 7.125C11.25 9.40317 9.40317 11.25 7.125 11.25C4.84683 11.25 3 9.40317 3 7.125Z" fill="#191C1F"/>
<path fill-rule="evenodd" clip-rule="evenodd" d="M16.875 4.5C15.4253 4.5 14.25 5.67525 14.25 7.125C14.25 8.57475 15.4253 9.75 16.875 9.75C18.3247 9.75 19.5 8.57475 19.5 7.125C19.5 5.67525 18.3247 4.5 16.875 4.5ZM12.75 7.125C12.75 4.84683 14.5968 3 16.875 3C19.1532 3 21 4.84683 21 7.125C21 9.40317 19.1532 11.25 16.875 11.25C14.5968 11.25 12.75 9.40317 12.75 7.125Z" fill="#191C1F"/>
<path fill-rule="evenodd" clip-rule="evenodd" d="M7.125 14.25C5.67525 14.25 4.5 15.4253 4.5 16.875C4.5 18.3247 5.67525 19.5 7.125 19.5C8.57475 19.5 9.75 18.3247 9.75 16.875C9.75 15.4253 8.57475 14.25 7.125 14.25ZM3 16.875C3 14.5968 4.84683 12.75 7.125 12.75C9.40317 12.75 11.25 14.5968 11.25 16.875C11.25 19.1532 9.40317 21 7.125 21C4.84683 21 3 19.1532 3 16.875Z" fill="#191C1F"/>
<path fill-rule="evenodd" clip-rule="evenodd" d="M16.875 14.25C15.4253 14.25 14.25 15.4253 14.25 16.875C14.25 18.3247 15.4253 19.5 16.875 19.5C18.3247 19.5 19.5 18.3247 19.5 16.875C19.5 15.4253 18.3247 14.25 16.875 14.25ZM12.75 16.875C12.75 14.5968 14.5968 12.75 16.875 12.75C19.1532 12.75 21 14.5968 21 16.875C21 19.1532 19.1532 21 16.875 21C14.5968 21 12.75 19.1532 12.75 16.875Z" fill="#191C1F"/>
</svg>
