<svg width="24" height="24" viewBox="0 0 24 24" fill="none" xmlns="http://www.w3.org/2000/svg">
<path fill-rule="evenodd" clip-rule="evenodd" d="M12 3.75C7.44365 3.75 3.75 7.44365 3.75 12C3.75 16.5563 7.44365 20.25 12 20.25C16.5563 20.25 20.25 16.5563 20.25 12C20.25 7.44365 16.5563 3.75 12 3.75ZM2.25 12C2.25 6.61522 6.61522 2.25 12 2.25C17.3848 2.25 21.75 6.61522 21.75 12C21.75 17.3848 17.3848 21.75 12 21.75C6.61522 21.75 2.25 17.3848 2.25 12Z" fill="#191C1F"/>
<path fill-rule="evenodd" clip-rule="evenodd" d="M18.896 5.10407C19.1889 5.39696 19.1889 5.87184 18.896 6.16473L6.16473 18.896C5.87184 19.1889 5.39696 19.1889 5.10407 18.896C4.81118 18.6031 4.81118 18.1282 5.10407 17.8353L17.8353 5.10407C18.1282 4.81118 18.6031 4.81118 18.896 5.10407Z" fill="#191C1F"/>
<path fill-rule="evenodd" clip-rule="evenodd" d="M12 11.25C12.4142 11.25 12.75 11.5858 12.75 12V21C12.75 21.4142 12.4142 21.75 12 21.75C11.5858 21.75 11.25 21.4142 11.25 21V12C11.25 11.5858 11.5858 11.25 12 11.25Z" fill="#191C1F"/>
<path fill-rule="evenodd" clip-rule="evenodd" d="M18 5.25C18.4142 5.25 18.75 5.58579 18.75 6V18.7125C18.75 19.1267 18.4142 19.4625 18 19.4625C17.5858 19.4625 17.25 19.1267 17.25 18.7125V6C17.25 5.58579 17.5858 5.25 18 5.25Z" fill="#191C1F"/>
<path fill-rule="evenodd" clip-rule="evenodd" d="M15 8.25C15.4142 8.25 15.75 8.58579 15.75 9V20.4844C15.75 20.8986 15.4142 21.2344 15 21.2344C14.5858 21.2344 14.25 20.8986 14.25 20.4844V9C14.25 8.58579 14.5858 8.25 15 8.25Z" fill="#191C1F"/>
<path fill-rule="evenodd" clip-rule="evenodd" d="M9 14.25C9.41421 14.25 9.75 14.5858 9.75 15V20.4844C9.75 20.8986 9.41421 21.2344 9 21.2344C8.58579 21.2344 8.25 20.8986 8.25 20.4844V15C8.25 14.5858 8.58579 14.25 9 14.25Z" fill="#191C1F"/>
</svg>
