<svg width="24" height="24" viewBox="0 0 24 24" fill="none" xmlns="http://www.w3.org/2000/svg">
<path fill-rule="evenodd" clip-rule="evenodd" d="M12 3.375C10.3431 3.375 9 4.71815 9 6.375C9 8.03185 10.3431 9.375 12 9.375C13.6569 9.375 15 8.03185 15 6.375C15 4.71815 13.6569 3.375 12 3.375ZM7.5 6.375C7.5 3.88972 9.51472 1.875 12 1.875C14.4853 1.875 16.5 3.88972 16.5 6.375C16.5 8.86028 14.4853 10.875 12 10.875C9.51472 10.875 7.5 8.86028 7.5 6.375Z" fill="#191C1F"/>
<path fill-rule="evenodd" clip-rule="evenodd" d="M17.625 13.125C15.9681 13.125 14.625 14.4681 14.625 16.125C14.625 17.7819 15.9681 19.125 17.625 19.125C19.2819 19.125 20.625 17.7819 20.625 16.125C20.625 14.4681 19.2819 13.125 17.625 13.125ZM13.125 16.125C13.125 13.6397 15.1397 11.625 17.625 11.625C20.1103 11.625 22.125 13.6397 22.125 16.125C22.125 18.6103 20.1103 20.625 17.625 20.625C15.1397 20.625 13.125 18.6103 13.125 16.125Z" fill="#191C1F"/>
<path fill-rule="evenodd" clip-rule="evenodd" d="M6.375 13.125C4.71815 13.125 3.375 14.4681 3.375 16.125C3.375 17.7819 4.71815 19.125 6.375 19.125C8.03185 19.125 9.375 17.7819 9.375 16.125C9.375 14.4681 8.03185 13.125 6.375 13.125ZM1.875 16.125C1.875 13.6397 3.88972 11.625 6.375 11.625C8.86028 11.625 10.875 13.6397 10.875 16.125C10.875 18.6103 8.86028 20.625 6.375 20.625C3.88972 20.625 1.875 18.6103 1.875 16.125Z" fill="#191C1F"/>
</svg>
