<svg width="24" height="24" viewBox="0 0 24 24" fill="none" xmlns="http://www.w3.org/2000/svg">
<path fill-rule="evenodd" clip-rule="evenodd" d="M8.93181 3.50311C9.1044 3.87966 8.93906 4.32482 8.56251 4.49741C6.85127 5.28175 5.45972 6.62773 4.61884 8.31192C3.77797 9.99611 3.53835 11.9172 3.93976 13.7564C4.34116 15.5955 5.35946 17.2421 6.8256 18.4227C8.29175 19.6034 10.1176 20.2471 12 20.2471C13.8824 20.2471 15.7083 19.6034 17.1744 18.4227C18.6406 17.2421 19.6589 15.5955 20.0603 13.7564C20.4617 11.9172 20.222 9.99611 19.3812 8.31192C18.5403 6.62773 17.1488 5.28175 15.4375 4.49741C15.061 4.32482 14.8956 3.87966 15.0682 3.50311C15.2408 3.12657 15.686 2.96123 16.0625 3.13382C18.0849 4.06077 19.7295 5.65148 20.7232 7.64188C21.717 9.63229 22.0002 11.9027 21.5258 14.0762C21.0514 16.2497 19.8479 18.1957 18.1152 19.591C16.3825 20.9863 14.2247 21.7471 12 21.7471C9.77532 21.7471 7.61752 20.9863 5.8848 19.591C4.15208 18.1957 2.94865 16.2497 2.47426 14.0762C1.99987 11.9027 2.28306 9.63229 3.27681 7.64188C4.27057 5.65148 5.91513 4.06077 7.93751 3.13382C8.31406 2.96123 8.75922 3.12657 8.93181 3.50311Z" fill="#191C1F"/>
</svg>
