<svg width="24" height="24" viewBox="0 0 24 24" fill="none" xmlns="http://www.w3.org/2000/svg">
<path d="M20.25 4.5H3.75C3.33579 4.5 3 4.83579 3 5.25V18.75C3 19.1642 3.33579 19.5 3.75 19.5H20.25C20.6642 19.5 21 19.1642 21 18.75V5.25C21 4.83579 20.6642 4.5 20.25 4.5Z" stroke="#191C1F" stroke-width="1.5" stroke-linecap="round" stroke-linejoin="round"/>
<path d="M10.8751 13.8375C10.5101 14.2099 10.0425 14.4651 9.5319 14.5707C9.02128 14.6762 8.4908 14.6273 8.00808 14.4302C7.52537 14.2331 7.1123 13.8966 6.82153 13.4638C6.53077 13.031 6.37549 12.5214 6.37549 12C6.37549 11.4786 6.53077 10.969 6.82153 10.5362C7.1123 10.1034 7.52537 9.76695 8.00808 9.56982C8.4908 9.3727 9.02128 9.3238 9.5319 9.42935C10.0425 9.53491 10.5101 9.79014 10.8751 10.1625" stroke="#191C1F" stroke-width="1.5" stroke-linecap="round" stroke-linejoin="round"/>
<path d="M17.6251 13.8375C17.2601 14.2099 16.7925 14.4651 16.2819 14.5707C15.7713 14.6762 15.2408 14.6273 14.7581 14.4302C14.2754 14.2331 13.8623 13.8966 13.5715 13.4638C13.2808 13.031 13.1255 12.5214 13.1255 12C13.1255 11.4786 13.2808 10.969 13.5715 10.5362C13.8623 10.1034 14.2754 9.76695 14.7581 9.56982C15.2408 9.3727 15.7713 9.3238 16.2819 9.42935C16.7925 9.53491 17.2601 9.79014 17.6251 10.1625" stroke="#191C1F" stroke-width="1.5" stroke-linecap="round" stroke-linejoin="round"/>
</svg>
