<svg width="24" height="24" viewBox="0 0 24 24" fill="none" xmlns="http://www.w3.org/2000/svg">
<path d="M4.5 3.75L19.5 20.25" stroke="#191C1F" stroke-width="1.5" stroke-linecap="round" stroke-linejoin="round"/>
<path d="M18.1781 18.7969C17.1829 19.2608 16.098 19.5008 15 19.5H6.75C5.35761 19.5 4.02226 18.9469 3.03769 17.9623C2.05312 16.9777 1.5 15.6424 1.5 14.25C1.5 12.8576 2.05312 11.5223 3.03769 10.5377C4.02226 9.55312 5.35761 9 6.75 9C7.18925 8.99984 7.62687 9.05336 8.05312 9.15938" stroke="#191C1F" stroke-width="1.5" stroke-linecap="round" stroke-linejoin="round"/>
<path d="M10.5562 5.95314C12.05 4.84479 13.9024 4.3311 15.7537 4.51181C17.605 4.69252 19.3231 5.55474 20.5744 6.93105C21.8257 8.30737 22.5209 10.0996 22.525 11.9597C22.5292 13.8198 21.8419 15.615 20.5968 16.9969" stroke="#191C1F" stroke-width="1.5" stroke-linecap="round" stroke-linejoin="round"/>
<path d="M7.50003 12C7.49632 10.6605 7.85596 9.34503 8.54065 8.19373" stroke="#191C1F" stroke-width="1.5" stroke-linecap="round" stroke-linejoin="round"/>
</svg>
