<svg width="24" height="24" viewBox="0 0 24 24" fill="none" xmlns="http://www.w3.org/2000/svg">
<path d="M8.25 13.875C8.25 12.6141 8.62389 11.3816 9.32438 10.3332C10.0249 9.28488 11.0205 8.46778 12.1854 7.98527C13.3503 7.50276 14.6321 7.37652 15.8687 7.6225C17.1053 7.86848 18.2412 8.47564 19.1328 9.3672C20.0244 10.2588 20.6315 11.3947 20.8775 12.6313C21.1235 13.8679 20.9972 15.1497 20.5147 16.3146C20.0322 17.4795 19.2151 18.4751 18.1668 19.1756C17.1184 19.8761 15.8859 20.25 14.625 20.25H7.125C6.03098 20.25 4.98177 19.8154 4.20818 19.0418C3.4346 18.2682 3 17.219 3 16.125C3 15.031 3.4346 13.9818 4.20818 13.2082C4.98177 12.4346 6.03098 12 7.125 12C7.58146 11.9977 8.03494 12.0738 8.46563 12.225" stroke="#191C1F" stroke-width="1.5" stroke-linecap="round" stroke-linejoin="round"/>
<path d="M4.40615 13.0218C3.53432 12.6519 2.76227 12.0811 2.15294 11.3561C1.54361 10.6311 1.11426 9.77238 0.899902 8.8499V8.8499C1.34331 8.94763 1.79586 8.99791 2.2499 8.9999C3.84044 8.99742 5.36512 8.36449 6.48981 7.2398C7.61449 6.11512 8.24742 4.59044 8.2499 2.9999C8.24791 2.54586 8.19763 2.09331 8.0999 1.6499C9.4224 1.95529 10.6023 2.70007 11.4468 3.76259C12.2914 4.82511 12.7508 6.1426 12.7499 7.4999C12.7499 7.59365 12.7499 7.6874 12.7405 7.78115" stroke="#191C1F" stroke-width="1.5" stroke-linecap="round" stroke-linejoin="round"/>
</svg>
