<svg width="24" height="24" viewBox="0 0 24 24" fill="none" xmlns="http://www.w3.org/2000/svg">
<path d="M12 22.5L14.4656 18.75" stroke="#191C1F" stroke-width="1.5" stroke-linecap="round" stroke-linejoin="round"/>
<path d="M9.25317 19.5L12.2157 15" stroke="#191C1F" stroke-width="1.5" stroke-linecap="round" stroke-linejoin="round"/>
<path d="M8.25 8.625C8.25 7.36415 8.62389 6.13161 9.32438 5.08324C10.0249 4.03488 11.0205 3.21778 12.1854 2.73527C13.3503 2.25276 14.6321 2.12652 15.8687 2.3725C17.1053 2.61848 18.2412 3.22564 19.1328 4.1172C20.0244 5.00876 20.6315 6.14467 20.8775 7.3813C21.1235 8.61793 20.9972 9.89973 20.5147 11.0646C20.0322 12.2295 19.2151 13.2251 18.1668 13.9256C17.1184 14.6261 15.8859 15 14.625 15H7.125C6.03098 15 4.98177 14.5654 4.20818 13.7918C3.4346 13.0182 3 11.969 3 10.875C3 9.78098 3.4346 8.73177 4.20818 7.95819C4.98177 7.1846 6.03098 6.75 7.125 6.75C7.58146 6.74765 8.03494 6.82376 8.46563 6.975" stroke="#191C1F" stroke-width="1.5" stroke-linecap="round" stroke-linejoin="round"/>
</svg>
