<svg width="24" height="24" viewBox="0 0 24 24" fill="none" xmlns="http://www.w3.org/2000/svg">
<path d="M8.25 8.625C8.25 7.36415 8.62389 6.13161 9.32438 5.08324C10.0249 4.03488 11.0205 3.21778 12.1854 2.73527C13.3503 2.25276 14.6321 2.12652 15.8687 2.3725C17.1053 2.61848 18.2412 3.22564 19.1328 4.1172C20.0244 5.00876 20.6315 6.14467 20.8775 7.3813C21.1235 8.61793 20.9972 9.89973 20.5147 11.0646C20.0322 12.2295 19.2151 13.2251 18.1668 13.9256C17.1184 14.6261 15.8859 15 14.625 15H7.125C6.03098 15 4.98177 14.5654 4.20818 13.7918C3.4346 13.0182 3 11.969 3 10.875C3 9.78098 3.4346 8.73177 4.20818 7.95819C4.98177 7.1846 6.03098 6.75 7.125 6.75C7.58146 6.74765 8.03494 6.82376 8.46563 6.975" stroke="#191C1F" stroke-width="1.5" stroke-linecap="round" stroke-linejoin="round"/>
<path d="M7.125 19.5C7.74632 19.5 8.25 18.9963 8.25 18.375C8.25 17.7537 7.74632 17.25 7.125 17.25C6.50368 17.25 6 17.7537 6 18.375C6 18.9963 6.50368 19.5 7.125 19.5Z" fill="#191C1F"/>
<path d="M10.875 21C11.4963 21 12 20.4963 12 19.875C12 19.2537 11.4963 18.75 10.875 18.75C10.2537 18.75 9.75 19.2537 9.75 19.875C9.75 20.4963 10.2537 21 10.875 21Z" fill="#191C1F"/>
<path d="M15.375 19.5C15.9963 19.5 16.5 18.9963 16.5 18.375C16.5 17.7537 15.9963 17.25 15.375 17.25C14.7537 17.25 14.25 17.7537 14.25 18.375C14.25 18.9963 14.7537 19.5 15.375 19.5Z" fill="#191C1F"/>
<path d="M6.375 23.25C6.99632 23.25 7.5 22.7463 7.5 22.125C7.5 21.5037 6.99632 21 6.375 21C5.75368 21 5.25 21.5037 5.25 22.125C5.25 22.7463 5.75368 23.25 6.375 23.25Z" fill="#191C1F"/>
<path d="M14.625 23.25C15.2463 23.25 15.75 22.7463 15.75 22.125C15.75 21.5037 15.2463 21 14.625 21C14.0037 21 13.5 21.5037 13.5 22.125C13.5 22.7463 14.0037 23.25 14.625 23.25Z" fill="#191C1F"/>
</svg>
