<svg width="24" height="24" viewBox="0 0 24 24" fill="none" xmlns="http://www.w3.org/2000/svg">
<path d="M10.5469 16.8C10.0563 17.3736 9.42934 17.8145 8.72368 18.0823C8.01802 18.3501 7.25634 18.436 6.50875 18.3323C5.76116 18.2286 5.05167 17.9385 4.44557 17.4887C3.83946 17.0389 3.35623 16.4439 3.04032 15.7585C2.72442 15.073 2.58601 14.3191 2.63781 13.5661C2.68962 12.8132 2.92998 12.0853 3.33678 11.4496C3.74359 10.8138 4.30376 10.2906 4.96575 9.92809C5.62773 9.56556 6.37027 9.37536 7.12503 9.375C7.47845 9.37685 7.83058 9.41772 8.17503 9.49688V9.49688C7.73029 8.78598 7.49624 7.96354 7.50003 7.125C7.50003 5.93153 7.97413 4.78693 8.81805 3.94302C9.66196 3.09911 10.8066 2.625 12 2.625C13.1935 2.625 14.3381 3.09911 15.182 3.94302C16.0259 4.78693 16.5 5.93153 16.5 7.125C16.5038 7.96354 16.2698 8.78598 15.825 9.49688V9.49688C16.1695 9.41772 16.5216 9.37685 16.875 9.375C17.6298 9.37536 18.3723 9.56556 19.0343 9.92809C19.6963 10.2906 20.2565 10.8138 20.6633 11.4496C21.0701 12.0853 21.3104 12.8132 21.3622 13.5661C21.414 14.3191 21.2756 15.073 20.9597 15.7585C20.6438 16.4439 20.1606 17.0389 19.5545 17.4887C18.9484 17.9385 18.2389 18.2286 17.4913 18.3323C16.7437 18.436 15.982 18.3501 15.2764 18.0823C14.5707 17.8145 13.9437 17.3736 13.4532 16.8L15 21.75H9.00003L10.5469 16.8Z" stroke="#191C1F" stroke-width="1.5" stroke-linecap="round" stroke-linejoin="round"/>
</svg>
