<svg width="24" height="24" viewBox="0 0 24 24" fill="none" xmlns="http://www.w3.org/2000/svg">
<path fill-rule="evenodd" clip-rule="evenodd" d="M9.75 3C10.5784 3 11.25 3.67157 11.25 4.5L11.25 19.5C11.25 20.3284 10.5784 21 9.75 21H6C5.17157 21 4.5 20.3284 4.5 19.5L4.5 4.5C4.5 3.67157 5.17157 3 6 3L9.75 3ZM9.75 19.5L9.75 4.5H6L6 19.5H9.75Z" fill="#191C1F"/>
<path fill-rule="evenodd" clip-rule="evenodd" d="M18 3C18.8284 3 19.5 3.67157 19.5 4.5V19.5C19.5 20.3284 18.8284 21 18 21H14.25C13.4216 21 12.75 20.3284 12.75 19.5V4.5C12.75 3.67157 13.4216 3 14.25 3L18 3ZM18 19.5V4.5H14.25V19.5H18Z" fill="#191C1F"/>
</svg>
