<svg width="24" height="24" viewBox="0 0 24 24" fill="none" xmlns="http://www.w3.org/2000/svg">
<path d="M15 6.75H9" stroke="#191C1F" stroke-width="1.5" stroke-linecap="round" stroke-linejoin="round"/>
<path d="M15 9.75H9" stroke="#191C1F" stroke-width="1.5" stroke-linecap="round" stroke-linejoin="round"/>
<path d="M18.75 20.25V3.75C18.75 3.33579 18.4142 3 18 3L6 3C5.58579 3 5.25 3.33579 5.25 3.75L5.25 20.25C5.25 20.6642 5.58579 21 6 21H18C18.4142 21 18.75 20.6642 18.75 20.25Z" stroke="#191C1F" stroke-width="1.5" stroke-linecap="round" stroke-linejoin="round"/>
<path d="M12 18C12.6213 18 13.125 17.4963 13.125 16.875C13.125 16.2537 12.6213 15.75 12 15.75C11.3787 15.75 10.875 16.2537 10.875 16.875C10.875 17.4963 11.3787 18 12 18Z" fill="#191C1F"/>
</svg>
