<svg width="24" height="24" viewBox="0 0 24 24" fill="none" xmlns="http://www.w3.org/2000/svg">
<path d="M3.55309 19.4906L8.59684 5.60626C8.64002 5.48745 8.71253 5.38148 8.80763 5.2982C8.90273 5.21492 9.01734 5.15702 9.1408 5.1299C9.26427 5.10277 9.39259 5.10729 9.51384 5.14304C9.63509 5.17879 9.74534 5.24461 9.83434 5.33438L18.6656 14.1656C18.7554 14.2546 18.8212 14.3649 18.8569 14.4861C18.8927 14.6074 18.8972 14.7357 18.8701 14.8592C18.843 14.9826 18.7851 15.0972 18.7018 15.1923C18.6185 15.2874 18.5125 15.36 18.3937 15.4031L4.50934 20.4469C4.37577 20.4979 4.23026 20.5092 4.0904 20.4794C3.95055 20.4496 3.82232 20.3799 3.7212 20.2788C3.62008 20.1777 3.5504 20.0494 3.52057 19.9096C3.49074 19.7697 3.50203 19.6242 3.55309 19.4906V19.4906Z" stroke="#191C1F" stroke-width="1.5" stroke-linecap="round" stroke-linejoin="round"/>
<path d="M15.75 6.75C15.75 6.75 15.75 4.5 18 4.5C20.25 4.5 20.25 2.25 20.25 2.25" stroke="#191C1F" stroke-width="1.5" stroke-linecap="round" stroke-linejoin="round"/>
<path d="M9.60003 18.6L5.40002 14.4" stroke="#191C1F" stroke-width="1.5" stroke-linecap="round" stroke-linejoin="round"/>
<path d="M13.5 1.5V3.75" stroke="#191C1F" stroke-width="1.5" stroke-linecap="round" stroke-linejoin="round"/>
<path d="M20.25 10.5L21.75 12" stroke="#191C1F" stroke-width="1.5" stroke-linecap="round" stroke-linejoin="round"/>
<path d="M20.25 7.5L22.5 6.75" stroke="#191C1F" stroke-width="1.5" stroke-linecap="round" stroke-linejoin="round"/>
<path d="M7.19995 9.45001L14.55 16.8" stroke="#191C1F" stroke-width="1.5" stroke-linecap="round" stroke-linejoin="round"/>
</svg>
