<svg width="24" height="24" viewBox="0 0 24 24" fill="none" xmlns="http://www.w3.org/2000/svg">
<path d="M9 1.5V4.5" stroke="#191C1F" stroke-width="1.5" stroke-linecap="round" stroke-linejoin="round"/>
<path d="M12 1.5V4.5" stroke="#191C1F" stroke-width="1.5" stroke-linecap="round" stroke-linejoin="round"/>
<path d="M15 1.5V4.5" stroke="#191C1F" stroke-width="1.5" stroke-linecap="round" stroke-linejoin="round"/>
<path d="M4.49999 7.5H19.5C19.6989 7.5 19.8897 7.57902 20.0303 7.71967C20.171 7.86032 20.25 8.05109 20.25 8.25V17.25C20.2512 17.5458 20.1939 17.839 20.0812 18.1125C19.9686 18.386 19.8029 18.6346 19.5937 18.8438C19.3846 19.0529 19.136 19.2186 18.8625 19.3313C18.5889 19.4439 18.2958 19.5012 18 19.5H5.99999C5.70417 19.5012 5.41103 19.4439 5.13749 19.3313C4.86394 19.2186 4.61541 19.0529 4.40623 18.8438C4.19705 18.6346 4.03137 18.386 3.91873 18.1125C3.8061 17.839 3.74875 17.5458 3.74999 17.25V8.25C3.74999 8.05109 3.82901 7.86032 3.96966 7.71967C4.11031 7.57902 4.30108 7.5 4.49999 7.5Z" stroke="#191C1F" stroke-width="1.5" stroke-linecap="round" stroke-linejoin="round"/>
<path d="M23.25 9L20.25 11.25" stroke="#191C1F" stroke-width="1.5" stroke-linecap="round" stroke-linejoin="round"/>
<path d="M0.75 9L3.75 11.25" stroke="#191C1F" stroke-width="1.5" stroke-linecap="round" stroke-linejoin="round"/>
</svg>
