<svg width="24" height="24" viewBox="0 0 24 24" fill="none" xmlns="http://www.w3.org/2000/svg">
<path d="M21 11.9437C21.0087 13.1361 20.7794 14.3184 20.3254 15.4211C19.8715 16.5238 19.202 17.5248 18.3563 18.3655C14.8969 21.8249 9.23438 21.8624 5.72813 18.4499C4.44177 17.1982 3.55907 15.5904 3.19344 13.8331C2.8278 12.0759 2.99594 10.2495 3.67625 8.58852C4.35655 6.92757 5.51795 5.50796 7.01122 4.5121C8.50448 3.51625 10.2614 2.98963 12.0563 2.9999C12.1686 3.00156 12.2791 3.02811 12.3799 3.07763C12.4807 3.12715 12.5693 3.19842 12.6392 3.2863C12.7092 3.37418 12.7587 3.47647 12.7844 3.58582C12.81 3.69517 12.8111 3.80884 12.7875 3.91865C12.6898 4.35421 12.6906 4.80608 12.7897 5.24132C12.8888 5.67655 13.0838 6.08418 13.3604 6.43449C13.6371 6.7848 13.9884 7.06896 14.3889 7.26625C14.7893 7.46354 15.2287 7.56898 15.675 7.5749C15.8739 7.5749 16.0647 7.65392 16.2053 7.79457C16.346 7.93523 16.425 8.12599 16.425 8.3249C16.4309 8.77124 16.5364 9.21064 16.7337 9.61105C16.9309 10.0115 17.2151 10.3628 17.5654 10.6395C17.9157 10.9161 18.3234 11.1111 18.7586 11.2102C19.1938 11.3093 19.6457 11.3101 20.0813 11.2124C20.1911 11.1888 20.3047 11.1899 20.4141 11.2155C20.5234 11.2412 20.6257 11.2908 20.7136 11.3607C20.8015 11.4306 20.8728 11.5192 20.9223 11.62C20.9718 11.7208 20.9983 11.8314 21 11.9437V11.9437Z" stroke="#191C1F" stroke-width="1.5" stroke-linecap="round" stroke-linejoin="round"/>
<path d="M14.625 17.25C15.2463 17.25 15.75 16.7463 15.75 16.125C15.75 15.5037 15.2463 15 14.625 15C14.0037 15 13.5 15.5037 13.5 16.125C13.5 16.7463 14.0037 17.25 14.625 17.25Z" fill="#191C1F"/>
<path d="M8.625 16.5C9.24632 16.5 9.75 15.9963 9.75 15.375C9.75 14.7537 9.24632 14.25 8.625 14.25C8.00368 14.25 7.5 14.7537 7.5 15.375C7.5 15.9963 8.00368 16.5 8.625 16.5Z" fill="#191C1F"/>
<path d="M7.875 11.25C8.49632 11.25 9 10.7463 9 10.125C9 9.50368 8.49632 9 7.875 9C7.25368 9 6.75 9.50368 6.75 10.125C6.75 10.7463 7.25368 11.25 7.875 11.25Z" fill="#191C1F"/>
<path d="M12.75 12.75C13.3713 12.75 13.875 12.2463 13.875 11.625C13.875 11.0037 13.3713 10.5 12.75 10.5C12.1287 10.5 11.625 11.0037 11.625 11.625C11.625 12.2463 12.1287 12.75 12.75 12.75Z" fill="#191C1F"/>
</svg>
