<svg width="24" height="24" viewBox="0 0 24 24" fill="none" xmlns="http://www.w3.org/2000/svg">
<path d="M4.22814 18.375C4.25213 18.4736 4.29564 18.5664 4.35609 18.6479C4.41654 18.7294 4.49272 18.7979 4.58011 18.8495C4.66751 18.9011 4.76435 18.9346 4.86492 18.9481C4.96548 18.9616 5.06774 18.9548 5.16564 18.9281C9.63469 17.6907 14.356 17.6907 18.825 18.9281C18.9229 18.9548 19.0252 18.9616 19.1257 18.9481C19.2263 18.9346 19.3232 18.9011 19.4105 18.8495C19.4979 18.7979 19.5741 18.7294 19.6346 18.6479C19.695 18.5664 19.7385 18.4736 19.7625 18.375L22.1531 8.22188C22.186 8.08597 22.1801 7.94361 22.1364 7.81083C22.0926 7.67806 22.0125 7.56018 21.9053 7.47048C21.798 7.38079 21.6678 7.32286 21.5294 7.30322C21.391 7.28359 21.2498 7.30304 21.1219 7.35938L16.3781 9.46875C16.2063 9.54443 16.0124 9.55373 15.8341 9.49487C15.6558 9.436 15.5056 9.31313 15.4125 9.15L12.6563 4.18125C12.5914 4.06402 12.4963 3.96631 12.3809 3.89827C12.2655 3.83023 12.134 3.79434 12 3.79434C11.866 3.79434 11.7345 3.83023 11.6191 3.89827C11.5037 3.96631 11.4086 4.06402 11.3438 4.18125L8.58752 9.15C8.49447 9.31313 8.34427 9.436 8.16593 9.49487C7.9876 9.55373 7.79377 9.54443 7.62189 9.46875L2.87814 7.35938C2.75019 7.30304 2.60903 7.28359 2.47061 7.30322C2.33218 7.32286 2.20201 7.38079 2.09476 7.47048C1.98752 7.56018 1.90748 7.67806 1.86368 7.81083C1.81988 7.94361 1.81407 8.08597 1.84689 8.22188L4.22814 18.375Z" stroke="#191C1F" stroke-width="1.5" stroke-linecap="round" stroke-linejoin="round"/>
</svg>
