<svg width="24" height="24" viewBox="0 0 24 24" fill="none" xmlns="http://www.w3.org/2000/svg">
<path fill-rule="evenodd" clip-rule="evenodd" d="M11.2636 1.42927C11.4878 1.30086 11.7416 1.23328 12 1.23328C12.2584 1.23328 12.5122 1.30086 12.7364 1.42927L20.986 6.06969C21.2168 6.20075 21.4089 6.39035 21.5431 6.61936C21.6772 6.84836 21.7486 7.10869 21.75 7.37409L21.75 7.37812L21.75 16.6219H21.0001L21.75 16.6259C21.7486 16.8913 21.6772 17.1516 21.5431 17.3806C21.4089 17.6096 21.2168 17.7992 20.986 17.9303L20.9833 17.9318L12.7362 22.5708C12.5121 22.6992 12.2583 22.7667 12 22.7667C11.7417 22.7667 11.4879 22.6992 11.2638 22.5708L3.01668 17.9318L3.01402 17.9303C2.78323 17.7992 2.59108 17.6096 2.45695 17.3806C2.32281 17.1516 2.25144 16.8913 2.25001 16.6259L2.25 16.6219V7.37409C2.25143 7.1087 2.32281 6.84837 2.45695 6.61936C2.59108 6.39035 2.78323 6.20075 3.01402 6.06969L3.01668 6.06818L11.2636 1.42927ZM20.25 16.6183V7.38173C20.25 7.38109 20.2499 7.38046 20.2497 7.37984C20.2495 7.37901 20.2492 7.37821 20.2487 7.37746C20.2479 7.37613 20.2468 7.37501 20.2455 7.3742C20.2454 7.37415 20.2456 7.37425 20.2455 7.3742L12 2.73609L3.75473 7.37405C3.75464 7.3741 3.75482 7.37399 3.75473 7.37405C3.75342 7.37485 3.75205 7.37613 3.75127 7.37746C3.75051 7.37877 3.75007 7.38024 3.75 7.38175V16.6182C3.75007 16.6198 3.75051 16.6212 3.75127 16.6225C3.75206 16.6239 3.75316 16.625 3.75448 16.6258C3.7544 16.6257 3.75456 16.6258 3.75448 16.6258L12 21.2639L20.2453 16.6259C20.2452 16.626 20.2453 16.6259 20.2453 16.6259C20.2466 16.6251 20.2479 16.6239 20.2487 16.6225C20.2495 16.6212 20.2499 16.6198 20.25 16.6183Z" fill="#191C1F"/>
<path fill-rule="evenodd" clip-rule="evenodd" d="M2.448 6.62863C2.64967 6.26682 3.10646 6.13701 3.46826 6.33869L12.0809 11.1394L20.5264 6.34167C20.8865 6.13707 21.3444 6.26317 21.549 6.62333C21.7536 6.98348 21.6275 7.44131 21.2673 7.64591L12.4548 12.6522C12.227 12.7816 11.9481 12.7827 11.7192 12.6551L2.73794 7.64889C2.37614 7.44722 2.24633 6.99043 2.448 6.62863Z" fill="#191C1F"/>
<path fill-rule="evenodd" clip-rule="evenodd" d="M12.0907 11.25C12.5049 11.2535 12.8378 11.5921 12.8343 12.0063L12.75 22.0188C12.7465 22.433 12.4079 22.766 11.9937 22.7625C11.5795 22.759 11.2465 22.4204 11.25 22.0062L11.3344 11.9937C11.3379 11.5795 11.6765 11.2465 12.0907 11.25Z" fill="#191C1F"/>
</svg>
