<svg width="24" height="24" viewBox="0 0 24 24" fill="none" xmlns="http://www.w3.org/2000/svg">
<path fill-rule="evenodd" clip-rule="evenodd" d="M8.10923 3.84593C7.11894 4.37202 6.75 4.97065 6.75 5.4375C6.75 5.90435 7.11894 6.50298 8.10923 7.02907C9.06658 7.53766 10.4409 7.875 12 7.875C13.5591 7.875 14.9334 7.53766 15.8908 7.02907C16.8811 6.50298 17.25 5.90435 17.25 5.4375C17.25 4.97065 16.8811 4.37202 15.8908 3.84593C14.9334 3.33734 13.5591 3 12 3C10.4409 3 9.06658 3.33734 8.10923 3.84593ZM7.40549 2.52126C8.61971 1.87621 10.2454 1.5 12 1.5C13.7546 1.5 15.3803 1.87621 16.5945 2.52126C17.7758 3.14882 18.75 4.14395 18.75 5.4375C18.75 6.73105 17.7758 7.72618 16.5945 8.35374C15.3803 8.99879 13.7546 9.375 12 9.375C10.2454 9.375 8.61971 8.99879 7.40549 8.35374C6.2242 7.72618 5.25 6.73105 5.25 5.4375C5.25 4.14395 6.2242 3.14882 7.40549 2.52126Z" fill="#191C1F"/>
<path fill-rule="evenodd" clip-rule="evenodd" d="M6 4.6875C6.41421 4.6875 6.75 5.02329 6.75 5.4375V18.5625C6.75 19.0301 7.11959 19.6287 8.11059 20.1547C9.06858 20.6632 10.443 21 12 21C13.557 21 14.9314 20.6632 15.8894 20.1547C16.8804 19.6287 17.25 19.0301 17.25 18.5625V5.4375C17.25 5.02329 17.5858 4.6875 18 4.6875C18.4142 4.6875 18.75 5.02329 18.75 5.4375V18.5625C18.75 19.8574 17.7743 20.8525 16.5926 21.4797C15.378 22.1243 13.7524 22.5 12 22.5C10.2476 22.5 8.62204 22.1243 7.40738 21.4797C6.22572 20.8525 5.25 19.8574 5.25 18.5625V5.4375C5.25 5.02329 5.58579 4.6875 6 4.6875Z" fill="#191C1F"/>
</svg>
