<svg width="24" height="24" viewBox="0 0 24 24" fill="none" xmlns="http://www.w3.org/2000/svg">
<path d="M7.125 19.5C8.57475 19.5 9.75 18.3247 9.75 16.875C9.75 15.4253 8.57475 14.25 7.125 14.25C5.67525 14.25 4.5 15.4253 4.5 16.875C4.5 18.3247 5.67525 19.5 7.125 19.5Z" stroke="#191C1F" stroke-width="1.5" stroke-linecap="round" stroke-linejoin="round"/>
<path d="M16.875 19.5C18.3247 19.5 19.5 18.3247 19.5 16.875C19.5 15.4253 18.3247 14.25 16.875 14.25C15.4253 14.25 14.25 15.4253 14.25 16.875C14.25 18.3247 15.4253 19.5 16.875 19.5Z" stroke="#191C1F" stroke-width="1.5" stroke-linecap="round" stroke-linejoin="round"/>
<path d="M9.75 16.875H14.25" stroke="#191C1F" stroke-width="1.5" stroke-linecap="round" stroke-linejoin="round"/>
<path d="M0.75 11.25H23.25" stroke="#191C1F" stroke-width="1.5" stroke-linecap="round" stroke-linejoin="round"/>
<path d="M3.75 11.25L8.37188 4.64999C8.44151 4.54996 8.53447 4.46841 8.64271 4.4124C8.75096 4.35638 8.87122 4.32759 8.9931 4.32851C9.11497 4.32944 9.23479 4.36005 9.34217 4.4177C9.44955 4.47534 9.54127 4.5583 9.60938 4.65937L11.3719 7.31249C11.44 7.41695 11.5332 7.50276 11.6428 7.56216C11.7525 7.62156 11.8753 7.65266 12 7.65266C12.1247 7.65266 12.2475 7.62156 12.3572 7.56216C12.4668 7.50276 12.56 7.41695 12.6281 7.31249L14.3906 4.65937C14.4587 4.5583 14.5505 4.47534 14.6578 4.4177C14.7652 4.36005 14.885 4.32944 15.0069 4.32851C15.1288 4.32759 15.249 4.35638 15.3573 4.4124C15.4655 4.46841 15.5585 4.54996 15.6281 4.64999L20.25 11.25" stroke="#191C1F" stroke-width="1.5" stroke-linecap="round" stroke-linejoin="round"/>
</svg>
