<svg width="24" height="24" viewBox="0 0 24 24" fill="none" xmlns="http://www.w3.org/2000/svg">
<path d="M19.5 19.5V4.5C19.5 3.67157 18.8284 3 18 3L6 3C5.17157 3 4.5 3.67157 4.5 4.5L4.5 19.5C4.5 20.3284 5.17157 21 6 21H18C18.8284 21 19.5 20.3284 19.5 19.5Z" stroke="#191C1F" stroke-width="1.5" stroke-linecap="round" stroke-linejoin="round"/>
<path d="M12 7.5C12.6213 7.5 13.125 6.99632 13.125 6.375C13.125 5.75368 12.6213 5.25 12 5.25C11.3787 5.25 10.875 5.75368 10.875 6.375C10.875 6.99632 11.3787 7.5 12 7.5Z" fill="#191C1F"/>
</svg>
