<svg width="24" height="24" viewBox="0 0 24 24" fill="none" xmlns="http://www.w3.org/2000/svg">
<path fill-rule="evenodd" clip-rule="evenodd" d="M8.24456 7.06493C7.65877 6.47915 7.65877 5.5294 8.24456 4.94361L10.936 2.25219C11.5218 1.6664 12.4715 1.6664 13.0573 2.25219L15.7467 4.94162C16.3325 5.52741 16.3325 6.47716 15.7467 7.06294L13.0553 9.75437C12.4695 10.3402 11.5198 10.3402 10.934 9.75437L8.24456 7.06493ZM11.9966 3.31285L9.30522 6.00427L11.9947 8.69371L14.6861 6.00228L11.9966 3.31285Z" fill="#191C1F"/>
<path fill-rule="evenodd" clip-rule="evenodd" d="M14.2455 13.0649C13.6597 12.4791 13.6597 11.5294 14.2455 10.9436L16.9369 8.25219C17.5227 7.6664 18.4724 7.6664 19.0582 8.25219L21.7477 10.9416C22.3334 11.5274 22.3334 12.4772 21.7477 13.0629L19.0562 15.7544C18.4704 16.3402 17.5207 16.3402 16.9349 15.7544L14.2455 13.0649ZM17.9976 9.31285L15.3061 12.0043L17.9956 14.6937L20.687 12.0023L17.9976 9.31285Z" fill="#191C1F"/>
<path fill-rule="evenodd" clip-rule="evenodd" d="M2.24456 13.0564C1.65877 12.4706 1.65877 11.5209 2.24456 10.9351L4.93598 8.24364C5.52177 7.65786 6.47152 7.65786 7.0573 8.24364L9.74674 10.9331C10.3325 11.5189 10.3325 12.4686 9.74674 13.0544L7.05532 15.7458C6.46953 16.3316 5.51978 16.3316 4.934 15.7458L2.24456 13.0564ZM5.99664 9.3043L3.30522 11.9957L5.99466 14.6852L8.68608 11.9937L5.99664 9.3043Z" fill="#191C1F"/>
<path fill-rule="evenodd" clip-rule="evenodd" d="M8.24547 19.0564C7.65969 18.4706 7.65969 17.5209 8.24547 16.9351L10.9369 14.2436C11.5227 13.6579 12.4724 13.6579 13.0582 14.2436L15.7477 16.9331C16.3334 17.5189 16.3334 18.4686 15.7477 19.0544L13.0562 21.7458C12.4704 22.3316 11.5207 22.3316 10.9349 21.7458L8.24547 19.0564ZM11.9976 15.3043L9.30613 17.9957L11.9956 20.6852L14.687 17.9937L11.9976 15.3043Z" fill="#191C1F"/>
</svg>
