<svg width="24" height="24" viewBox="0 0 24 24" fill="none" xmlns="http://www.w3.org/2000/svg">
<path d="M18 3.75H6C4.75736 3.75 3.75 4.75736 3.75 6V18C3.75 19.2426 4.75736 20.25 6 20.25H18C19.2426 20.25 20.25 19.2426 20.25 18V6C20.25 4.75736 19.2426 3.75 18 3.75Z" stroke="#191C1F" stroke-width="1.5" stroke-linecap="round" stroke-linejoin="round"/>
<path d="M9.375 10.5C9.99632 10.5 10.5 9.99632 10.5 9.375C10.5 8.75368 9.99632 8.25 9.375 8.25C8.75368 8.25 8.25 8.75368 8.25 9.375C8.25 9.99632 8.75368 10.5 9.375 10.5Z" fill="#191C1F"/>
<path d="M14.625 10.5C15.2463 10.5 15.75 9.99632 15.75 9.375C15.75 8.75368 15.2463 8.25 14.625 8.25C14.0037 8.25 13.5 8.75368 13.5 9.375C13.5 9.99632 14.0037 10.5 14.625 10.5Z" fill="#191C1F"/>
<path d="M9.375 15.75C9.99632 15.75 10.5 15.2463 10.5 14.625C10.5 14.0037 9.99632 13.5 9.375 13.5C8.75368 13.5 8.25 14.0037 8.25 14.625C8.25 15.2463 8.75368 15.75 9.375 15.75Z" fill="#191C1F"/>
<path d="M14.625 15.75C15.2463 15.75 15.75 15.2463 15.75 14.625C15.75 14.0037 15.2463 13.5 14.625 13.5C14.0037 13.5 13.5 14.0037 13.5 14.625C13.5 15.2463 14.0037 15.75 14.625 15.75Z" fill="#191C1F"/>
</svg>
