<svg width="24" height="24" viewBox="0 0 24 24" fill="none" xmlns="http://www.w3.org/2000/svg">
<path d="M18 3.75H6C4.75736 3.75 3.75 4.75736 3.75 6V18C3.75 19.2426 4.75736 20.25 6 20.25H18C19.2426 20.25 20.25 19.2426 20.25 18V6C20.25 4.75736 19.2426 3.75 18 3.75Z" stroke="#191C1F" stroke-width="1.5" stroke-linecap="round" stroke-linejoin="round"/>
<path d="M8.625 9.75C9.24632 9.75 9.75 9.24632 9.75 8.625C9.75 8.00368 9.24632 7.5 8.625 7.5C8.00368 7.5 7.5 8.00368 7.5 8.625C7.5 9.24632 8.00368 9.75 8.625 9.75Z" fill="#191C1F"/>
<path d="M12 13.125C12.6213 13.125 13.125 12.6213 13.125 12C13.125 11.3787 12.6213 10.875 12 10.875C11.3787 10.875 10.875 11.3787 10.875 12C10.875 12.6213 11.3787 13.125 12 13.125Z" fill="#191C1F"/>
<path d="M15.375 16.5C15.9963 16.5 16.5 15.9963 16.5 15.375C16.5 14.7537 15.9963 14.25 15.375 14.25C14.7537 14.25 14.25 14.7537 14.25 15.375C14.25 15.9963 14.7537 16.5 15.375 16.5Z" fill="#191C1F"/>
</svg>
