<svg width="24" height="24" viewBox="0 0 24 24" fill="none" xmlns="http://www.w3.org/2000/svg">
<path d="M9 14.625C9.62132 14.625 10.125 14.1213 10.125 13.5C10.125 12.8787 9.62132 12.375 9 12.375C8.37868 12.375 7.875 12.8787 7.875 13.5C7.875 14.1213 8.37868 14.625 9 14.625Z" fill="#191C1F"/>
<path d="M15 14.625C15.6213 14.625 16.125 14.1213 16.125 13.5C16.125 12.8787 15.6213 12.375 15 12.375C14.3787 12.375 13.875 12.8787 13.875 13.5C13.875 14.1213 14.3787 14.625 15 14.625Z" fill="#191C1F"/>
<path d="M6.975 7.49996C8.60086 6.9904 10.2962 6.73736 12 6.74996C13.7038 6.73736 15.3991 6.9904 17.025 7.49996" stroke="#191C1F" stroke-width="1.5" stroke-linecap="round" stroke-linejoin="round"/>
<path d="M17.025 16.5C15.3991 17.0096 13.7038 17.2626 12 17.25C10.2962 17.2626 8.60086 17.0096 6.975 16.5" stroke="#191C1F" stroke-width="1.5" stroke-linecap="round" stroke-linejoin="round"/>
<path d="M14.5313 17.0719L15.6656 19.3219C15.7386 19.4753 15.8628 19.5986 16.0167 19.6704C16.1707 19.7423 16.3449 19.7583 16.5094 19.7157C18.8063 19.1532 20.7938 18.1782 22.2375 16.9219C22.3463 16.8259 22.4254 16.7007 22.4653 16.5611C22.5051 16.4215 22.5042 16.2734 22.4625 16.1344L19.2844 5.5219C19.2534 5.4133 19.1975 5.31346 19.1209 5.23042C19.0444 5.14738 18.9495 5.08346 18.8438 5.04378C17.9459 4.67541 17.0173 4.38679 16.0688 4.18128C15.8865 4.14136 15.6959 4.16995 15.5333 4.2616C15.3708 4.35324 15.2477 4.50153 15.1875 4.67815L14.4469 6.91878" stroke="#191C1F" stroke-width="1.5" stroke-linecap="round" stroke-linejoin="round"/>
<path d="M9.46875 17.0719L8.33438 19.3219C8.26139 19.4753 8.13724 19.5986 7.98327 19.6704C7.8293 19.7423 7.65511 19.7583 7.49063 19.7157C5.19375 19.1532 3.20625 18.1782 1.7625 16.9219C1.65365 16.8259 1.57461 16.7007 1.53473 16.5611C1.49486 16.4215 1.49582 16.2734 1.5375 16.1344L4.71563 5.5219C4.74655 5.4133 4.80253 5.31346 4.87906 5.23042C4.95559 5.14738 5.05053 5.08346 5.15625 5.04378C6.05415 4.67541 6.98273 4.38679 7.93125 4.18128C8.11353 4.14136 8.30412 4.16995 8.46667 4.2616C8.62921 4.35324 8.75232 4.50153 8.8125 4.67815L9.55313 6.91878" stroke="#191C1F" stroke-width="1.5" stroke-linecap="round" stroke-linejoin="round"/>
<path d="M9 14.625C9.62132 14.625 10.125 14.1213 10.125 13.5C10.125 12.8787 9.62132 12.375 9 12.375C8.37868 12.375 7.875 12.8787 7.875 13.5C7.875 14.1213 8.37868 14.625 9 14.625Z" fill="#191C1F"/>
<path d="M15 14.625C15.6213 14.625 16.125 14.1213 16.125 13.5C16.125 12.8787 15.6213 12.375 15 12.375C14.3787 12.375 13.875 12.8787 13.875 13.5C13.875 14.1213 14.3787 14.625 15 14.625Z" fill="#191C1F"/>
<path d="M6.975 7.49996C8.60086 6.9904 10.2962 6.73736 12 6.74996C13.7038 6.73736 15.3991 6.9904 17.025 7.49996" stroke="#191C1F" stroke-width="1.5" stroke-linecap="round" stroke-linejoin="round"/>
<path d="M17.025 16.5C15.3991 17.0096 13.7038 17.2626 12 17.25C10.2962 17.2626 8.60086 17.0096 6.975 16.5" stroke="#191C1F" stroke-width="1.5" stroke-linecap="round" stroke-linejoin="round"/>
<path d="M14.5313 17.0719L15.6656 19.3219C15.7386 19.4753 15.8628 19.5986 16.0167 19.6704C16.1707 19.7423 16.3449 19.7583 16.5094 19.7157C18.8063 19.1532 20.7938 18.1782 22.2375 16.9219C22.3463 16.8259 22.4254 16.7007 22.4653 16.5611C22.5051 16.4215 22.5042 16.2734 22.4625 16.1344L19.2844 5.5219C19.2534 5.4133 19.1975 5.31346 19.1209 5.23042C19.0444 5.14738 18.9495 5.08346 18.8438 5.04378C17.9459 4.67541 17.0173 4.38679 16.0688 4.18128C15.8865 4.14136 15.6959 4.16995 15.5333 4.2616C15.3708 4.35324 15.2477 4.50153 15.1875 4.67815L14.4469 6.91878" stroke="#191C1F" stroke-width="1.5" stroke-linecap="round" stroke-linejoin="round"/>
<path d="M9.46875 17.0719L8.33438 19.3219C8.26139 19.4753 8.13724 19.5986 7.98327 19.6704C7.8293 19.7423 7.65511 19.7583 7.49063 19.7157C5.19375 19.1532 3.20625 18.1782 1.7625 16.9219C1.65365 16.8259 1.57461 16.7007 1.53473 16.5611C1.49486 16.4215 1.49582 16.2734 1.5375 16.1344L4.71563 5.5219C4.74655 5.4133 4.80253 5.31346 4.87906 5.23042C4.95559 5.14738 5.05053 5.08346 5.15625 5.04378C6.05415 4.67541 6.98273 4.38679 7.93125 4.18128C8.11353 4.14136 8.30412 4.16995 8.46667 4.2616C8.62921 4.35324 8.75232 4.50153 8.8125 4.67815L9.55313 6.91878" stroke="#191C1F" stroke-width="1.5" stroke-linecap="round" stroke-linejoin="round"/>
</svg>
