<svg width="24" height="24" viewBox="0 0 24 24" fill="none" xmlns="http://www.w3.org/2000/svg">
<path fill-rule="evenodd" clip-rule="evenodd" d="M12.4301 0.885576L12 1.5L11.5699 0.885576C11.8281 0.704808 12.1719 0.704808 12.4301 0.885576ZM12 2.4375C11.8172 2.5801 11.5837 2.7679 11.3139 2.99724C10.6316 3.57714 9.72283 4.41798 8.81595 5.46088C6.98389 7.56776 5.25 10.395 5.25 13.5C5.25 15.2902 5.96116 17.0071 7.22703 18.273C8.4929 19.5388 10.2098 20.25 12 20.25C13.7902 20.25 15.5071 19.5388 16.773 18.273C18.0388 17.0071 18.75 15.2902 18.75 13.5C18.75 10.395 17.0161 7.56776 15.184 5.46088C14.2772 4.41798 13.3684 3.57714 12.6861 2.99724C12.4163 2.7679 12.1828 2.5801 12 2.4375ZM11.5695 0.88589C11.5697 0.885723 11.5699 0.885576 12 1.5C12.4301 0.885576 12.4303 0.885723 12.4305 0.88589L12.4312 0.886326L12.4329 0.887558L12.4385 0.891469L12.4575 0.905033C12.4737 0.916613 12.4969 0.933255 12.5264 0.954843C12.5856 0.998014 12.6706 1.061 12.7777 1.14288C12.9919 1.30659 13.2951 1.54618 13.6576 1.85433C14.3816 2.46974 15.3478 3.36327 16.316 4.47662C18.2339 6.68224 20.25 9.85496 20.25 13.5C20.25 15.688 19.3808 17.7865 17.8336 19.3336C16.2865 20.8808 14.188 21.75 12 21.75C9.81196 21.75 7.71354 20.8808 6.16637 19.3336C4.61919 17.7865 3.75 15.688 3.75 13.5C3.75 9.85496 5.76611 6.68224 7.68405 4.47662C8.65217 3.36327 9.61838 2.46974 10.3424 1.85433C10.7049 1.54618 11.0081 1.30659 11.2223 1.14288C11.3294 1.061 11.4144 0.998014 11.4736 0.954843C11.5031 0.933255 11.5263 0.916613 11.5425 0.905033L11.5615 0.891469L11.5671 0.887558L11.5688 0.886326L11.5695 0.88589Z" fill="#191C1F"/>
<path fill-rule="evenodd" clip-rule="evenodd" d="M12 0.75C12.4142 0.75 12.75 1.08579 12.75 1.5V21C12.75 21.4142 12.4142 21.75 12 21.75C11.5858 21.75 11.25 21.4142 11.25 21V1.5C11.25 1.08579 11.5858 0.75 12 0.75Z" fill="#191C1F"/>
<path fill-rule="evenodd" clip-rule="evenodd" d="M11.25 12C11.25 11.5858 11.5858 11.25 12 11.25H19.3781C19.7923 11.25 20.1281 11.5858 20.1281 12C20.1281 12.4142 19.7923 12.75 19.3781 12.75H12C11.5858 12.75 11.25 12.4142 11.25 12Z" fill="#191C1F"/>
<path fill-rule="evenodd" clip-rule="evenodd" d="M11.25 9C11.25 8.58579 11.5858 8.25 12 8.25H18.4313C18.8455 8.25 19.1813 8.58579 19.1813 9C19.1813 9.41421 18.8455 9.75 18.4313 9.75H12C11.5858 9.75 11.25 9.41421 11.25 9Z" fill="#191C1F"/>
<path fill-rule="evenodd" clip-rule="evenodd" d="M11.25 15C11.25 14.5858 11.5858 14.25 12 14.25H19.35C19.7642 14.25 20.1 14.5858 20.1 15C20.1 15.4142 19.7642 15.75 19.35 15.75H12C11.5858 15.75 11.25 15.4142 11.25 15Z" fill="#191C1F"/>
<path fill-rule="evenodd" clip-rule="evenodd" d="M11.25 18C11.25 17.5858 11.5858 17.25 12 17.25H18C18.4142 17.25 18.75 17.5858 18.75 18C18.75 18.4142 18.4142 18.75 18 18.75H12C11.5858 18.75 11.25 18.4142 11.25 18Z" fill="#191C1F"/>
<path fill-rule="evenodd" clip-rule="evenodd" d="M11.25 6C11.25 5.58579 11.5858 5.25 12 5.25H16.5938C17.008 5.25 17.3438 5.58579 17.3438 6C17.3438 6.41421 17.008 6.75 16.5938 6.75H12C11.5858 6.75 11.25 6.41421 11.25 6Z" fill="#191C1F"/>
</svg>
