<svg width="24" height="24" viewBox="0 0 24 24" fill="none" xmlns="http://www.w3.org/2000/svg">
<path d="M4.5 3.75L19.5 20.25" stroke="#191C1F" stroke-width="1.5" stroke-linecap="round" stroke-linejoin="round"/>
<path d="M8.56878 8.23126C8.35646 8.70932 8.24782 9.22693 8.25003 9.75001" stroke="#191C1F" stroke-width="1.5" stroke-linecap="round" stroke-linejoin="round"/>
<path d="M8.15625 3.30939C9.29468 2.62992 10.5929 2.26438 11.9186 2.24998C13.2443 2.23559 14.5501 2.57287 15.703 3.22746C16.8559 3.88205 17.8147 4.83055 18.4817 5.97634C19.1487 7.12212 19.5001 8.42423 19.5 9.75001" stroke="#191C1F" stroke-width="1.5" stroke-linecap="round" stroke-linejoin="round"/>
<path d="M15.1781 20.25C14.6372 20.9038 13.9078 21.3748 13.0893 21.5989C12.2709 21.823 11.4033 21.7892 10.6047 21.5022C9.80618 21.2152 9.11559 20.6889 8.62709 19.995C8.13859 19.3012 7.87596 18.4736 7.875 17.625C7.875 13.7344 4.5 15 4.5 9.75001C4.49841 8.16336 5.00067 6.6172 5.93438 5.33438" stroke="#191C1F" stroke-width="1.5" stroke-linecap="round" stroke-linejoin="round"/>
<path d="M15.2906 11.1563C15.5979 10.7527 15.7598 10.2571 15.75 9.75001C15.7517 9.15238 15.6101 8.56304 15.3372 8.03136C15.0643 7.49968 14.668 7.04112 14.1814 6.6941C13.6948 6.34708 13.1322 6.1217 12.5406 6.03682C11.9491 5.95194 11.3458 6.01005 10.7812 6.20626" stroke="#191C1F" stroke-width="1.5" stroke-linecap="round" stroke-linejoin="round"/>
<path d="M15.647 16.0125C15.3633 16.1145 15.0594 16.1469 14.7606 16.1071C14.4619 16.0673 14.177 15.9565 13.93 15.7838C13.6829 15.6111 13.4809 15.3818 13.3408 15.1149C13.2008 14.848 13.1268 14.5514 13.1251 14.25C13.1227 13.9589 13.1735 13.6697 13.2751 13.3969" stroke="#191C1F" stroke-width="1.5" stroke-linecap="round" stroke-linejoin="round"/>
</svg>
