<svg width="24" height="24" viewBox="0 0 24 24" fill="none" xmlns="http://www.w3.org/2000/svg">
<path d="M11.4468 3.6L4.16246 11.4938C4.06426 11.6011 3.9994 11.7347 3.97577 11.8782C3.95215 12.0218 3.97079 12.1691 4.02941 12.3022C4.08803 12.4354 4.18411 12.5486 4.30595 12.6281C4.42778 12.7076 4.5701 12.75 4.71558 12.75H19.2843C19.4298 12.75 19.5721 12.7076 19.694 12.6281C19.8158 12.5486 19.9119 12.4354 19.9705 12.3022C20.0291 12.1691 20.0478 12.0218 20.0241 11.8782C20.0005 11.7347 19.9357 11.6011 19.8375 11.4938L12.5531 3.6C12.4836 3.52197 12.3984 3.45952 12.3031 3.41676C12.2077 3.374 12.1044 3.3519 12 3.3519C11.8955 3.3519 11.7922 3.374 11.6968 3.41676C11.6015 3.45952 11.5163 3.52197 11.4468 3.6V3.6Z" stroke="#191C1F" stroke-width="1.5" stroke-linecap="round" stroke-linejoin="round"/>
<path d="M3.75 16.5V18.75C3.75 19.1642 4.08579 19.5 4.5 19.5H19.5C19.9142 19.5 20.25 19.1642 20.25 18.75V16.5C20.25 16.0858 19.9142 15.75 19.5 15.75H4.5C4.08579 15.75 3.75 16.0858 3.75 16.5Z" stroke="#191C1F" stroke-width="1.5" stroke-linecap="round" stroke-linejoin="round"/>
</svg>
