<svg width="24" height="24" viewBox="0 0 24 24" fill="none" xmlns="http://www.w3.org/2000/svg">
<path d="M11.4186 3.71249L3.24364 13.7812C3.15555 13.8913 3.10024 14.0239 3.08406 14.1639C3.06788 14.3039 3.09148 14.4456 3.15215 14.5729C3.21282 14.7001 3.30811 14.8076 3.4271 14.8832C3.54609 14.9587 3.68395 14.9992 3.82489 15H20.1749C20.3158 14.9992 20.4537 14.9587 20.5727 14.8832C20.6917 14.8076 20.787 14.7001 20.8476 14.5729C20.9083 14.4456 20.9319 14.3039 20.9157 14.1639C20.8995 14.0239 20.8442 13.8913 20.7561 13.7812L12.5811 3.71249C12.5108 3.62624 12.4222 3.55672 12.3216 3.50898C12.2211 3.46123 12.1112 3.43646 11.9999 3.43646C11.8886 3.43646 11.7787 3.46123 11.6782 3.50898C11.5776 3.55672 11.489 3.62624 11.4186 3.71249Z" stroke="#191C1F" stroke-width="1.5" stroke-linecap="round" stroke-linejoin="round"/>
<path d="M21 19.5H3" stroke="#191C1F" stroke-width="1.5" stroke-linecap="round" stroke-linejoin="round"/>
</svg>
