<svg width="24" height="24" viewBox="0 0 24 24" fill="none" xmlns="http://www.w3.org/2000/svg">
<path fill-rule="evenodd" clip-rule="evenodd" d="M8.04779 8.79779C8.34069 8.5049 8.81556 8.5049 9.10846 8.79779L15.4741 15.1634C15.767 15.4563 15.767 15.9312 15.4741 16.2241C15.1812 16.517 14.7063 16.517 14.4134 16.2241L8.04779 9.85846C7.7549 9.56556 7.7549 9.09069 8.04779 8.79779Z" fill="#191C1F"/>
<path fill-rule="evenodd" clip-rule="evenodd" d="M14.9437 4.33923C14.8458 4.33923 14.7489 4.35864 14.6585 4.39633C14.5682 4.43402 14.4862 4.48925 14.4173 4.55883L14.4147 4.56154L3.80883 15.1673C3.73926 15.2362 3.68402 15.3182 3.64633 15.4085C3.60864 15.4989 3.58923 15.5958 3.58923 15.6937C3.58923 15.7916 3.60864 15.8885 3.64633 15.9789C3.68402 16.0692 3.73925 16.1512 3.80883 16.2201L3.81154 16.2227L7.06998 19.4812H10.0957L19.7169 9.86921C19.8567 9.72569 19.935 9.53321 19.935 9.33276C19.935 9.13237 19.8568 8.93994 19.717 8.79644L15.47 4.55884C15.4012 4.48926 15.3192 4.43402 15.2289 4.39633C15.1385 4.35864 15.0416 4.33923 14.9437 4.33923ZM12.2181 19.4812H20.2499C20.6642 19.4812 20.9999 19.817 20.9999 20.2312C20.9999 20.6454 20.6642 20.9812 20.2499 20.9812H6.75932C6.56041 20.9812 6.36965 20.9022 6.22899 20.7615L2.75357 17.2861C2.75306 17.2856 2.75254 17.2851 2.75203 17.2846C2.54228 17.0765 2.37573 16.8291 2.26198 16.5564C2.14795 16.2831 2.08923 15.9899 2.08923 15.6937C2.08923 15.3975 2.14795 15.1043 2.26198 14.831C2.37575 14.5583 2.54234 14.3108 2.75215 14.1027C2.75262 14.1022 2.7531 14.1018 2.75357 14.1013L13.3513 3.50357C13.3518 3.5031 13.3522 3.50262 13.3527 3.50215C13.5608 3.29234 13.8083 3.12575 14.081 3.01198C14.3543 2.89795 14.6475 2.83923 14.9437 2.83923C15.2399 2.83923 15.5331 2.89795 15.8064 3.01198C16.0789 3.12568 16.3263 3.29212 16.5343 3.50173C16.5349 3.50235 16.5355 3.50296 16.5361 3.50357L20.7851 7.74321C21.2017 8.16743 21.435 8.73823 21.435 9.33276C21.435 9.92729 21.2016 10.4981 20.7851 10.9223L20.7801 10.9274L12.2181 19.4812Z" fill="#191C1F"/>
</svg>
