<svg width="24" height="24" viewBox="0 0 24 24" fill="none" xmlns="http://www.w3.org/2000/svg">
<path fill-rule="evenodd" clip-rule="evenodd" d="M18.477 11.2855C18.8353 11.0777 19.2942 11.1998 19.502 11.5582L21.6489 15.2613C21.8566 15.6196 21.7345 16.0785 21.3762 16.2863C21.0178 16.494 20.5589 16.372 20.3512 16.0136L18.2043 12.3105C17.9966 11.9521 18.1186 11.4932 18.477 11.2855Z" fill="#191C1F"/>
<path fill-rule="evenodd" clip-rule="evenodd" d="M14.3262 13.2582C14.7341 13.1863 15.1231 13.4588 15.1949 13.8667L15.8606 17.6448C15.9324 18.0528 15.66 18.4417 15.2521 18.5136C14.8441 18.5854 14.4552 18.313 14.3833 17.9051L13.7177 14.127C13.6458 13.719 13.9182 13.3301 14.3262 13.2582Z" fill="#191C1F"/>
<path fill-rule="evenodd" clip-rule="evenodd" d="M9.66422 13.2489C10.0722 13.3206 10.3448 13.7094 10.2731 14.1174L9.60746 17.9049C9.53576 18.3128 9.14692 18.5854 8.73896 18.5137C8.331 18.442 8.0584 18.0532 8.1301 17.6452L8.79572 13.8577C8.86742 13.4498 9.25626 13.1772 9.66422 13.2489Z" fill="#191C1F"/>
<path fill-rule="evenodd" clip-rule="evenodd" d="M5.51222 11.2847C5.87102 11.4916 5.99411 11.9503 5.78715 12.3091L3.64027 16.0309C3.4333 16.3897 2.97466 16.5128 2.61586 16.3059C2.25706 16.0989 2.13397 15.6403 2.34094 15.2815L4.48781 11.5596C4.69478 11.2008 5.15342 11.0777 5.51222 11.2847Z" fill="#191C1F"/>
<path fill-rule="evenodd" clip-rule="evenodd" d="M2.52877 9.25092C2.85101 8.99065 3.32322 9.04089 3.58348 9.36312C5.07563 11.2105 7.7694 13.5 12 13.5C16.2307 13.5 18.9244 11.2105 20.4166 9.36312C20.6768 9.04089 21.149 8.99065 21.4713 9.25092C21.7935 9.51119 21.8437 9.9834 21.5835 10.3056C19.9256 12.3582 16.8444 15 12 15C7.15565 15 4.07442 12.3582 2.41657 10.3056C2.1563 9.9834 2.20654 9.51119 2.52877 9.25092Z" fill="#191C1F"/>
</svg>
