<svg width="24" height="24" viewBox="0 0 24 24" fill="none" xmlns="http://www.w3.org/2000/svg">
<path fill-rule="evenodd" clip-rule="evenodd" d="M18.9071 5.01433C18.1853 4.32534 17.0006 4.34749 16.2616 5.08652L13.6741 7.67402C13.3812 7.96691 12.9063 7.96691 12.6134 7.67402L12.1563 7.21694C12.0144 7.07796 11.8237 7.00009 11.625 7.00009C11.4263 7.00009 11.2355 7.07796 11.0936 7.21694L10.4356 7.87496L10.4397 7.87897L16.125 13.5643L16.129 13.5602L16.783 12.9063C16.922 12.7644 16.9998 12.5736 16.9998 12.3749C16.9998 12.1763 16.922 11.9855 16.783 11.8436L16.3259 11.3865C16.1852 11.2459 16.1062 11.0551 16.1062 10.8562C16.1062 10.6573 16.1852 10.4665 16.3259 10.3259L18.9498 7.70197C18.9497 7.70209 18.9499 7.70184 18.9498 7.70197C19.1262 7.52469 19.2658 7.31354 19.3595 7.08165C19.4533 6.84961 19.4997 6.60113 19.496 6.35086C19.4923 6.1006 19.4384 5.85362 19.3377 5.62448C19.237 5.39535 19.0915 5.18869 18.9096 5.0167L18.9071 5.01433ZM17.915 10.8581C18.2906 11.2728 18.4998 11.8132 18.4998 12.3749C18.4998 12.9684 18.2664 13.538 17.8498 13.9607L17.8459 13.9647L17.1914 14.6192C17.0523 14.7598 16.8868 14.8715 16.7043 14.9479C16.5208 15.0247 16.3239 15.0643 16.125 15.0643C15.9261 15.0643 15.7291 15.0247 15.5457 14.9479C15.3632 14.8715 15.1977 14.7598 15.0586 14.6192L9.38072 8.94134C9.24011 8.80225 9.12839 8.63672 9.052 8.45427C8.97517 8.27078 8.93561 8.07386 8.93561 7.87494C8.93561 7.67603 8.97517 7.4791 9.052 7.29562C9.12839 7.11316 9.24011 6.94763 9.38072 6.80854L10.0392 6.15007C10.4619 5.73355 11.0315 5.50009 11.625 5.50009C12.1867 5.50009 12.7271 5.7093 13.1418 6.08495L15.2009 4.02586C16.4865 2.74028 18.6009 2.6496 19.9416 3.92817C20.2684 4.2375 20.5299 4.60904 20.7109 5.02093C20.8922 5.43338 20.9891 5.87795 20.9958 6.32842C21.0026 6.7789 20.919 7.22616 20.7502 7.64384C20.5813 8.06153 20.3306 8.44118 20.0127 8.76041L17.915 10.8581Z" fill="#191C1F"/>
<path fill-rule="evenodd" clip-rule="evenodd" d="M11.1616 8.6009C11.4545 8.89379 11.4545 9.36866 11.1616 9.66156L5.90843 14.9147C5.6281 15.1917 5.42648 15.5383 5.32425 15.9189C5.22202 16.2994 5.22285 16.7004 5.32666 17.0805C5.3717 17.2455 5.35904 17.4208 5.29078 17.5776L4.41733 19.5833L6.42221 18.7093C6.57901 18.641 6.75446 18.6283 6.91947 18.6733C7.29963 18.7772 7.70056 18.778 8.08115 18.6758C8.46174 18.5735 8.80829 18.3719 9.08527 18.0916L9.08844 18.0884L14.3384 12.8384C14.6313 12.5455 15.1062 12.5455 15.3991 12.8384C15.692 13.1313 15.692 13.6062 15.3991 13.8991L10.1523 19.1459C10.1517 19.1464 10.1512 19.147 10.1507 19.1475C9.68696 19.6162 9.10706 19.9534 8.47027 20.1244C7.92225 20.2716 7.34905 20.2912 6.79441 20.1834L4.82941 21.0399C4.82906 21.0401 4.82871 21.0402 4.82836 21.0404C4.555 21.16 4.25216 21.1954 3.95857 21.1421C3.6646 21.0886 3.39328 20.9486 3.17941 20.7399L3.70311 20.2031L3.17703 20.7376C2.99009 20.5536 2.86398 20.3168 2.81564 20.059C2.76763 19.8029 2.79862 19.5384 2.90443 19.3004L3.81663 17.2057C3.70876 16.6511 3.72838 16.0778 3.8756 15.5297C4.04664 14.893 4.38375 14.3131 4.85244 13.8494L10.1009 8.6009C10.3938 8.308 10.8687 8.308 11.1616 8.6009Z" fill="#191C1F"/>
<path fill-rule="evenodd" clip-rule="evenodd" d="M4.15314 15C4.15314 14.5858 4.48892 14.25 4.90314 14.25H13.2469C13.6611 14.25 13.9969 14.5858 13.9969 15C13.9969 15.4142 13.6611 15.75 13.2469 15.75H4.90314C4.48892 15.75 4.15314 15.4142 4.15314 15Z" fill="#191C1F"/>
</svg>
