<svg width="24" height="24" viewBox="0 0 24 24" fill="none" xmlns="http://www.w3.org/2000/svg">
<path fill-rule="evenodd" clip-rule="evenodd" d="M3.9955 3.19505C4.30199 2.91642 4.77633 2.93901 5.05496 3.2455L20.055 19.7455C20.3336 20.052 20.311 20.5263 20.0045 20.805C19.698 21.0836 19.2237 21.061 18.9451 20.7545L3.94505 4.25451C3.66642 3.94802 3.68901 3.47368 3.9955 3.19505Z" fill="#191C1F"/>
<path fill-rule="evenodd" clip-rule="evenodd" d="M10.0332 8.72053C10.3118 9.02704 10.2891 9.50138 9.98261 9.77998C9.53454 10.1872 9.22019 10.7206 9.08089 11.3098C8.9416 11.8991 8.98387 12.5167 9.20216 13.0815C9.42044 13.6463 9.80453 14.1318 10.3039 14.4742C10.8033 14.8166 11.3946 14.9999 12.0001 15L12.0029 15C12.7476 15.0028 13.4661 14.725 14.0153 14.222C14.3207 13.9422 14.7951 13.9629 15.0749 14.2684C15.3547 14.5738 15.3339 15.0482 15.0285 15.328C14.2016 16.0855 13.1199 16.5039 11.9985 16.5C11.9981 16.5 11.9976 16.5 11.9972 16.5L12 15.75L11.9999 16.5C11.9995 16.5 11.999 16.5 11.9985 16.5C11.0908 16.4996 10.2043 16.2247 9.45565 15.7113C8.70657 15.1977 8.13045 14.4694 7.80302 13.6223C7.47559 12.7751 7.41218 11.8486 7.62113 10.9648C7.83007 10.0809 8.30159 9.28088 8.9737 8.66998C9.28022 8.39138 9.75455 8.41401 10.0332 8.72053Z" fill="#191C1F"/>
<path fill-rule="evenodd" clip-rule="evenodd" d="M7.60701 6.09316C7.7937 6.46292 7.6453 6.914 7.27554 7.10069C5.49288 8.00076 4.21545 9.30461 3.37984 10.3958C2.96329 10.9397 2.66072 11.4254 2.4638 11.772C2.41564 11.8567 2.37389 11.933 2.3384 11.9996C2.42664 12.1649 2.55342 12.3895 2.72062 12.655C3.09641 13.2519 3.67211 14.0489 4.46784 14.8446C6.05497 16.4317 8.49945 17.9999 12 17.9999H12.0061C13.6443 18.0133 15.262 17.6358 16.7251 16.8989C17.095 16.7125 17.546 16.8614 17.7323 17.2313C17.9187 17.6012 17.7698 18.0522 17.3999 18.2385C15.7247 19.0823 13.8726 19.5147 11.9969 19.4999C7.99914 19.499 5.19459 17.6927 3.40718 15.9053C2.51541 15.0135 1.87237 14.123 1.45127 13.4542C1.24036 13.1193 1.08406 12.8382 0.979192 12.638C0.926732 12.5378 0.887058 12.4578 0.859783 12.4011C0.846142 12.3728 0.835595 12.3503 0.828091 12.3341L0.81911 12.3145L0.816318 12.3083L0.815345 12.3061C0.815184 12.3057 0.814653 12.3045 1.50001 11.9999C0.814362 11.696 0.814469 11.6958 0.814583 11.6955L0.815473 11.6935L0.817189 11.6897L0.822444 11.6781L0.840295 11.6396C0.855477 11.6073 0.877263 11.5619 0.905806 11.5047C0.962874 11.3905 1.04707 11.229 1.15966 11.0309C1.38461 10.635 1.72423 10.0906 2.18893 9.48379C3.11583 8.2734 4.55714 6.79287 6.59948 5.76169C6.96923 5.575 7.42032 5.7234 7.60701 6.09316ZM1.50001 11.9999L0.814583 11.6955C0.728681 11.8893 0.728566 12.1109 0.814653 12.3045L1.50001 11.9999Z" fill="#191C1F"/>
<path fill-rule="evenodd" clip-rule="evenodd" d="M9.93556 4.66969C10.618 4.55545 11.3088 4.4987 12.0007 4.50002C15.9998 4.50024 18.8051 6.30693 20.5928 8.09469C21.4846 8.98646 22.1277 9.87693 22.5487 10.5457C22.7597 10.8807 22.916 11.1618 23.0208 11.362C23.0733 11.4621 23.113 11.5422 23.1402 11.5989C23.1539 11.6272 23.1644 11.6497 23.1719 11.6659L23.1809 11.6855L23.1837 11.6917L23.1847 11.6939C23.1848 11.6942 23.1854 11.6954 22.5 12C21.8146 11.6954 21.8147 11.6953 21.8148 11.6951L21.8091 11.7075C21.8038 11.7189 21.795 11.7377 21.7826 11.7632C21.7578 11.8142 21.719 11.892 21.6655 11.9925C21.6641 11.995 21.6628 11.9975 21.6614 12C21.5732 11.8348 21.4465 11.6103 21.2794 11.3449C20.9036 10.7481 20.3279 9.95108 19.5322 9.15535C17.945 7.56822 15.5006 6.00002 12 6.00002H11.9985C11.3903 5.99882 10.7831 6.04869 10.1832 6.14911C9.77468 6.21749 9.38806 5.94175 9.31967 5.53322C9.25129 5.12469 9.52703 4.73808 9.93556 4.66969ZM22.5 12L23.1854 12.3046C23.2716 12.1107 23.2716 11.8893 23.1854 11.6954L22.5 12ZM21.6614 12C21.5543 12.2008 21.3905 12.4885 21.1668 12.8306C20.7128 13.525 20.0178 14.434 19.0562 15.2942C18.7475 15.5703 18.7211 16.0444 18.9973 16.3532C19.2734 16.6619 19.7476 16.6883 20.0563 16.4121C21.1385 15.4441 21.9154 14.4266 22.4222 13.6515C22.6762 13.2631 22.8639 12.9333 22.9894 12.6975C23.0523 12.5796 23.0996 12.4849 23.1321 12.418C23.1483 12.3846 23.1608 12.358 23.1697 12.339L23.1803 12.316L23.1835 12.3088L23.1846 12.3064L23.1854 12.3046C23.1854 12.3044 23.1854 12.3046 22.5 12C21.8146 12.3046 21.8148 12.3049 21.8149 12.3052L21.8104 12.2954C21.8061 12.2861 21.7989 12.2707 21.7887 12.2496C21.7684 12.2074 21.7363 12.1424 21.6921 12.058C21.6824 12.0396 21.6722 12.0202 21.6614 12Z" fill="#191C1F"/>
<path fill-rule="evenodd" clip-rule="evenodd" d="M11.9662 8.17594C12.0434 7.76897 12.4358 7.50157 12.8428 7.57868C13.8001 7.76007 14.6725 8.24795 15.3283 8.96868C15.9841 9.68941 16.3876 10.6039 16.478 11.5741C16.5165 11.9865 16.2133 12.352 15.8009 12.3905C15.3884 12.4289 15.0229 12.1257 14.9845 11.7133C14.9243 11.0672 14.6555 10.4581 14.2188 9.97816C13.7821 9.49817 13.2011 9.17326 12.5635 9.05246C12.1565 8.97534 11.8891 8.58292 11.9662 8.17594Z" fill="#191C1F"/>
</svg>
