<svg width="24" height="24" viewBox="0 0 24 24" fill="none" xmlns="http://www.w3.org/2000/svg">
<path d="M20.25 12.75C20.25 17.5781 13.275 19.2375 12.15 19.4719C12.0509 19.4907 11.9491 19.4907 11.85 19.4719C10.725 19.2375 3.75001 17.5781 3.75001 12.75V7.27502C3.74923 7.12066 3.7967 6.96991 3.88578 6.84385C3.97487 6.71778 4.10112 6.6227 4.24688 6.5719L11.7469 3.84377C11.9109 3.78735 12.0891 3.78735 12.2531 3.84377L19.7531 6.5719C19.8989 6.6227 20.0251 6.71778 20.1142 6.84385C20.2033 6.96991 20.2508 7.12066 20.25 7.27502V12.75Z" stroke="#191C1F" stroke-width="1.5" stroke-linecap="round" stroke-linejoin="round"/>
<path d="M8.25 10.5H15.75" stroke="#191C1F" stroke-width="1.5" stroke-linecap="round" stroke-linejoin="round"/>
<path d="M8.25 13.5H15.75" stroke="#191C1F" stroke-width="1.5" stroke-linecap="round" stroke-linejoin="round"/>
<path d="M20.0062 14.25H21C21.2958 14.2513 21.5889 14.1939 21.8625 14.0813C22.136 13.9686 22.3846 13.803 22.5937 13.5938C22.8029 13.3846 22.9686 13.1361 23.0812 12.8625C23.1939 12.589 23.2512 12.2958 23.25 12V9.75002C23.2512 9.4542 23.1939 9.16106 23.0812 8.88752C22.9686 8.61397 22.8029 8.36544 22.5937 8.15626C22.3846 7.94708 22.136 7.7814 21.8625 7.66876C21.5889 7.55613 21.2958 7.49878 21 7.50002H20.25" stroke="#191C1F" stroke-width="1.5" stroke-linecap="round" stroke-linejoin="round"/>
<path d="M3.99377 14.25H3.00002C2.7042 14.2513 2.41106 14.1939 2.13752 14.0813C1.86397 13.9686 1.61544 13.803 1.40626 13.5938C1.19708 13.3846 1.0314 13.1361 0.918764 12.8625C0.806131 12.589 0.748779 12.2958 0.75002 12V9.75002C0.748779 9.4542 0.806131 9.16106 0.918764 8.88752C1.0314 8.61397 1.19708 8.36544 1.40626 8.15626C1.61544 7.94708 1.86397 7.7814 2.13752 7.66876C2.41106 7.55613 2.7042 7.49878 3.00002 7.50002H3.75002" stroke="#191C1F" stroke-width="1.5" stroke-linecap="round" stroke-linejoin="round"/>
</svg>
