<svg width="24" height="24" viewBox="0 0 24 24" fill="none" xmlns="http://www.w3.org/2000/svg">
<path d="M22.6406 11.3719L14.2781 5.99061C14.1644 5.91811 14.0332 5.87763 13.8984 5.87341C13.7636 5.8692 13.6302 5.90142 13.5121 5.96668C13.3941 6.03193 13.2958 6.12781 13.2277 6.24421C13.1596 6.36062 13.1241 6.49324 13.125 6.62811V17.3719C13.1241 17.5067 13.1596 17.6394 13.2277 17.7558C13.2958 17.8722 13.3941 17.968 13.5121 18.0333C13.6302 18.0986 13.7636 18.1308 13.8984 18.1266C14.0332 18.1223 14.1644 18.0819 14.2781 18.0094L22.6406 12.6281C22.7472 12.5615 22.8351 12.469 22.896 12.3591C22.9569 12.2492 22.9889 12.1256 22.9889 12C22.9889 11.8743 22.9569 11.7508 22.896 11.6409C22.8351 11.531 22.7472 11.4384 22.6406 11.3719V11.3719Z" stroke="#191C1F" stroke-width="1.5" stroke-linecap="round" stroke-linejoin="round"/>
<path d="M12.1406 11.3719L3.77814 5.99061C3.66441 5.91811 3.53323 5.87763 3.39842 5.87341C3.26361 5.8692 3.13016 5.90142 3.01213 5.96668C2.89409 6.03193 2.79584 6.12781 2.72771 6.24421C2.65958 6.36062 2.62411 6.49324 2.62502 6.62811V17.3719C2.62411 17.5067 2.65958 17.6394 2.72771 17.7558C2.79584 17.8722 2.89409 17.968 3.01213 18.0333C3.13016 18.0986 3.26361 18.1308 3.39842 18.1266C3.53323 18.1223 3.66441 18.0819 3.77814 18.0094L12.1406 12.6281C12.2472 12.5615 12.3351 12.469 12.396 12.3591C12.4569 12.2492 12.4889 12.1256 12.4889 12C12.4889 11.8743 12.4569 11.7508 12.396 11.6409C12.3351 11.531 12.2472 11.4384 12.1406 11.3719V11.3719Z" stroke="#191C1F" stroke-width="1.5" stroke-linecap="round" stroke-linejoin="round"/>
</svg>
