<svg width="24" height="24" viewBox="0 0 24 24" fill="none" xmlns="http://www.w3.org/2000/svg">
<path d="M4.5 18.75H6C6.39782 18.75 6.77936 18.592 7.06066 18.3107C7.34196 18.0294 7.5 17.6478 7.5 17.25C7.5 16.8522 7.34196 16.4706 7.06066 16.1893C6.77936 15.908 6.39782 15.75 6 15.75H4.5V20.25" stroke="#191C1F" stroke-width="1.5" stroke-linecap="round" stroke-linejoin="round"/>
<path d="M10.5 18.75H12C12.3978 18.75 12.7794 18.592 13.0607 18.3107C13.342 18.0294 13.5 17.6478 13.5 17.25C13.5 16.8522 13.342 16.4706 13.0607 16.1893C12.7794 15.908 12.3978 15.75 12 15.75H10.5V20.25" stroke="#191C1F" stroke-width="1.5" stroke-linecap="round" stroke-linejoin="round"/>
<path d="M19.5 15.75H16.125" stroke="#191C1F" stroke-width="1.5" stroke-linecap="round" stroke-linejoin="round"/>
<path d="M17.8125 20.25V15.75" stroke="#191C1F" stroke-width="1.5" stroke-linecap="round" stroke-linejoin="round"/>
<path d="M4.5 12V3.75C4.5 3.55109 4.57902 3.36032 4.71967 3.21967C4.86032 3.07902 5.05109 3 5.25 3H14.25L19.5 8.25V12" stroke="#191C1F" stroke-width="1.5" stroke-linecap="round" stroke-linejoin="round"/>
<path d="M14.25 3V8.25H19.5" stroke="#191C1F" stroke-width="1.5" stroke-linecap="round" stroke-linejoin="round"/>
</svg>
