<svg width="24" height="24" viewBox="0 0 24 24" fill="none" xmlns="http://www.w3.org/2000/svg">
<path d="M18.75 21H5.25C5.05109 21 4.86032 20.921 4.71967 20.7803C4.57902 20.6397 4.5 20.4489 4.5 20.25V3.75C4.5 3.55109 4.57902 3.36032 4.71967 3.21967C4.86032 3.07902 5.05109 3 5.25 3H14.25L19.5 8.25V20.25C19.5 20.4489 19.421 20.6397 19.2803 20.7803C19.1397 20.921 18.9489 21 18.75 21Z" stroke="#191C1F" stroke-width="1.5" stroke-linecap="round" stroke-linejoin="round"/>
<path d="M14.25 3V8.25H19.5" stroke="#191C1F" stroke-width="1.5" stroke-linecap="round" stroke-linejoin="round"/>
<path d="M13.4812 15.7312L14.9812 17.2312" stroke="#191C1F" stroke-width="1.5" stroke-linecap="round" stroke-linejoin="round"/>
<path d="M11.625 16.5C13.0747 16.5 14.25 15.3247 14.25 13.875C14.25 12.4253 13.0747 11.25 11.625 11.25C10.1753 11.25 9 12.4253 9 13.875C9 15.3247 10.1753 16.5 11.625 16.5Z" stroke="#191C1F" stroke-width="1.5" stroke-linecap="round" stroke-linejoin="round"/>
</svg>
