<svg width="24" height="24" viewBox="0 0 24 24" fill="none" xmlns="http://www.w3.org/2000/svg">
<path d="M19.125 18H16.875" stroke="#191C1F" stroke-width="1.5" stroke-linecap="round" stroke-linejoin="round"/>
<path d="M19.5 20.25H16.875V15.75H19.5" stroke="#191C1F" stroke-width="1.5" stroke-linecap="round" stroke-linejoin="round"/>
<path d="M4.125 15.75L6 20.25L7.875 15.75" stroke="#191C1F" stroke-width="1.5" stroke-linecap="round" stroke-linejoin="round"/>
<path d="M10.5 15.75V18.5625C10.5 19.0101 10.6778 19.4393 10.9943 19.7557C11.3107 20.0722 11.7399 20.25 12.1875 20.25C12.6351 20.25 13.0643 20.0722 13.3807 19.7557C13.6972 19.4393 13.875 19.0101 13.875 18.5625V15.75" stroke="#191C1F" stroke-width="1.5" stroke-linecap="round" stroke-linejoin="round"/>
<path d="M4.5 12V3.75C4.5 3.55109 4.57902 3.36032 4.71967 3.21967C4.86032 3.07902 5.05109 3 5.25 3H14.25L19.5 8.25V12" stroke="#191C1F" stroke-width="1.5" stroke-linecap="round" stroke-linejoin="round"/>
<path d="M14.25 3V8.25H19.5" stroke="#191C1F" stroke-width="1.5" stroke-linecap="round" stroke-linejoin="round"/>
</svg>
