<svg width="24" height="24" viewBox="0 0 24 24" fill="none" xmlns="http://www.w3.org/2000/svg">
<path d="M15.375 15.75L18.75 20.25" stroke="#191C1F" stroke-width="1.5" stroke-linecap="round" stroke-linejoin="round"/>
<path d="M18.75 15.75L15.375 20.25" stroke="#191C1F" stroke-width="1.5" stroke-linecap="round" stroke-linejoin="round"/>
<path d="M6.75 15.75V18.75C6.75 19.1478 6.59196 19.5294 6.31066 19.8107C6.02936 20.092 5.64782 20.25 5.25 20.25C4.85218 20.25 4.47064 20.092 4.18934 19.8107C3.90804 19.5294 3.75 19.1478 3.75 18.75" stroke="#191C1F" stroke-width="1.5" stroke-linecap="round" stroke-linejoin="round"/>
<path d="M9.75 19.875C10.1563 20.1781 10.6494 20.3424 11.1562 20.3438C12 20.3437 12.75 20.0625 12.75 19.125C12.75 17.625 9.75 18.2812 9.75 16.875C9.75 16.125 10.3125 15.6562 11.1562 15.6562C11.6631 15.6576 12.1562 15.8219 12.5625 16.125" stroke="#191C1F" stroke-width="1.5" stroke-linecap="round" stroke-linejoin="round"/>
<path d="M4.5 12V3.75C4.5 3.55109 4.57902 3.36032 4.71967 3.21967C4.86032 3.07902 5.05109 3 5.25 3H14.25L19.5 8.25V12" stroke="#191C1F" stroke-width="1.5" stroke-linecap="round" stroke-linejoin="round"/>
<path d="M14.25 3V8.25H19.5" stroke="#191C1F" stroke-width="1.5" stroke-linecap="round" stroke-linejoin="round"/>
</svg>
