<svg width="24" height="24" viewBox="0 0 24 24" fill="none" xmlns="http://www.w3.org/2000/svg">
<path d="M14.25 3V8.25H19.5" stroke="#191C1F" stroke-width="1.5" stroke-linecap="round" stroke-linejoin="round"/>
<path d="M15.75 21H18.75C18.9489 21 19.1397 20.921 19.2803 20.7803C19.421 20.6397 19.5 20.4489 19.5 20.25V8.25L14.25 3H5.25C5.05109 3 4.86032 3.07902 4.71967 3.21967C4.57902 3.36032 4.5 3.55109 4.5 3.75V12" stroke="#191C1F" stroke-width="1.5" stroke-linecap="round" stroke-linejoin="round"/>
<path d="M12 16.875H5.25V21H12V16.875Z" stroke="#191C1F" stroke-width="1.5" stroke-linecap="round" stroke-linejoin="round"/>
<path d="M6.75 16.875V15.75C6.75 15.2527 6.94754 14.7758 7.29917 14.4242C7.65081 14.0725 8.12772 13.875 8.625 13.875C9.12228 13.875 9.59919 14.0725 9.95083 14.4242C10.3025 14.7758 10.5 15.2527 10.5 15.75V16.875" stroke="#191C1F" stroke-width="1.5" stroke-linecap="round" stroke-linejoin="round"/>
</svg>
