<svg width="24" height="24" viewBox="0 0 24 24" fill="none" xmlns="http://www.w3.org/2000/svg">
<path d="M14.25 3V8.25H19.5" stroke="#191C1F" stroke-width="1.5" stroke-linecap="round" stroke-linejoin="round"/>
<path d="M16.5 21H18.75C18.9489 21 19.1397 20.921 19.2803 20.7803C19.421 20.6397 19.5 20.4489 19.5 20.25V8.25L14.25 3H5.25C5.05109 3 4.86032 3.07902 4.71967 3.21967C4.57902 3.36032 4.5 3.55109 4.5 3.75V12" stroke="#191C1F" stroke-width="1.5" stroke-linecap="round" stroke-linejoin="round"/>
<path d="M6.15937 15.75H5.625C4.92881 15.75 4.26113 16.0266 3.76884 16.5188C3.27656 17.0111 3 17.6788 3 18.375C3 19.0712 3.27656 19.7389 3.76884 20.2312C4.26113 20.7234 4.92881 21 5.625 21H10.125C10.9408 21 11.7384 20.7581 12.4167 20.3048C13.0951 19.8516 13.6238 19.2073 13.936 18.4536C14.2482 17.6998 14.3299 16.8704 14.1707 16.0703C14.0116 15.2701 13.6187 14.5351 13.0418 13.9582C12.4649 13.3813 11.7299 12.9884 10.9297 12.8293C10.1296 12.6701 9.30018 12.7518 8.54643 13.064C7.79269 13.3762 7.14845 13.9049 6.69519 14.5833C6.24193 15.2616 6 16.0592 6 16.875" stroke="#191C1F" stroke-width="1.5" stroke-linecap="round" stroke-linejoin="round"/>
</svg>
