<svg width="24" height="24" viewBox="0 0 24 24" fill="none" xmlns="http://www.w3.org/2000/svg">
<path d="M16.125 15.75L19.5 20.25" stroke="#191C1F" stroke-width="1.5" stroke-linecap="round" stroke-linejoin="round"/>
<path d="M19.5 15.75L16.125 20.25" stroke="#191C1F" stroke-width="1.5" stroke-linecap="round" stroke-linejoin="round"/>
<path d="M7.875 15.75H4.5" stroke="#191C1F" stroke-width="1.5" stroke-linecap="round" stroke-linejoin="round"/>
<path d="M6.1875 20.25V15.75" stroke="#191C1F" stroke-width="1.5" stroke-linecap="round" stroke-linejoin="round"/>
<path d="M10.5 19.875C10.9063 20.1781 11.3994 20.3424 11.9062 20.3438C12.75 20.3437 13.5 20.0625 13.5 19.125C13.5 17.625 10.5 18.2812 10.5 16.875C10.5 16.125 11.0625 15.6562 11.9062 15.6562C12.4131 15.6576 12.9062 15.8219 13.3125 16.125" stroke="#191C1F" stroke-width="1.5" stroke-linecap="round" stroke-linejoin="round"/>
<path d="M4.5 12V3.75C4.5 3.55109 4.57902 3.36032 4.71967 3.21967C4.86032 3.07902 5.05109 3 5.25 3H14.25L19.5 8.25V12" stroke="#191C1F" stroke-width="1.5" stroke-linecap="round" stroke-linejoin="round"/>
<path d="M14.25 3V8.25H19.5" stroke="#191C1F" stroke-width="1.5" stroke-linecap="round" stroke-linejoin="round"/>
</svg>
