<svg width="24" height="24" viewBox="0 0 24 24" fill="none" xmlns="http://www.w3.org/2000/svg">
<path d="M3.75 10.5H20.25V18.75C20.25 18.9489 20.171 19.1397 20.0303 19.2803C19.8897 19.421 19.6989 19.5 19.5 19.5H4.5C4.30109 19.5 4.11032 19.421 3.96967 19.2803C3.82902 19.1397 3.75 18.9489 3.75 18.75V10.5Z" stroke="#191C1F" stroke-width="1.5" stroke-linecap="round" stroke-linejoin="round"/>
<path d="M3.74999 10.5L19.6875 6.22499L18.9094 3.32811C18.8844 3.23277 18.8407 3.14337 18.7808 3.06514C18.7208 2.98692 18.6459 2.92144 18.5603 2.87255C18.4748 2.82365 18.3803 2.79233 18.2825 2.7804C18.1846 2.76848 18.0854 2.7762 17.9906 2.80311L3.50624 6.68436C3.41072 6.70942 3.32109 6.75309 3.24249 6.81288C3.16389 6.87266 3.09787 6.94738 3.04822 7.03274C2.99857 7.1181 2.96627 7.21243 2.95316 7.31031C2.94006 7.40819 2.94642 7.5077 2.97187 7.60311L3.74999 10.5Z" stroke="#191C1F" stroke-width="1.5" stroke-linecap="round" stroke-linejoin="round"/>
<path d="M12.1968 4.34998L16.7905 7.0031" stroke="#191C1F" stroke-width="1.5" stroke-linecap="round" stroke-linejoin="round"/>
<path d="M5.68115 6.10315L10.2655 8.75628" stroke="#191C1F" stroke-width="1.5" stroke-linecap="round" stroke-linejoin="round"/>
</svg>
