<svg width="24" height="24" viewBox="0 0 24 24" fill="none" xmlns="http://www.w3.org/2000/svg">
<path d="M16.4999 12C16.5023 14.932 15.9322 17.8364 14.8218 20.55" stroke="#191C1F" stroke-width="1.5" stroke-linecap="round" stroke-linejoin="round"/>
<path d="M15.3563 8.99999C14.7488 8.31991 13.9492 7.8404 13.0631 7.62498C12.1771 7.40955 11.2465 7.46838 10.3947 7.79367C9.54284 8.11896 8.80991 8.69535 8.29298 9.44651C7.77605 10.1977 7.49951 11.0882 7.5 12C7.50558 14.2866 6.92457 16.5364 5.8125 18.5344" stroke="#191C1F" stroke-width="1.5" stroke-linecap="round" stroke-linejoin="round"/>
<path d="M9 3.51562C9.96271 3.17177 10.9777 2.99732 12 3C14.3869 3 16.6761 3.94821 18.364 5.63604C20.0518 7.32387 21 9.61305 21 12C20.999 14.0184 20.7758 16.0305 20.3344 18" stroke="#191C1F" stroke-width="1.5" stroke-linecap="round" stroke-linejoin="round"/>
<path d="M2.18433 15.75C2.72405 14.5736 3.00232 13.2943 2.99995 12C2.99889 10.7343 3.26565 9.4827 3.78269 8.32743C4.29974 7.17215 5.05537 6.13935 5.99995 5.29688" stroke="#191C1F" stroke-width="1.5" stroke-linecap="round" stroke-linejoin="round"/>
<path d="M10.3687 19.5C10.1812 19.9125 9.975 20.325 9.75 20.7188" stroke="#191C1F" stroke-width="1.5" stroke-linecap="round" stroke-linejoin="round"/>
<path d="M12.0001 12C12.0024 13.5183 11.8103 15.0306 11.4282 16.5" stroke="#191C1F" stroke-width="1.5" stroke-linecap="round" stroke-linejoin="round"/>
</svg>
