<svg width="24" height="24" viewBox="0 0 24 24" fill="none" xmlns="http://www.w3.org/2000/svg">
<path d="M4.75317 17.3344C5.57647 15.6769 6.00332 13.8507 6.00005 12C6.00083 11.1002 6.20337 10.212 6.59275 9.40075C6.98214 8.58953 7.54846 7.87594 8.25005 7.3125" stroke="#191C1F" stroke-width="1.5" stroke-linecap="round" stroke-linejoin="round"/>
<path d="M12 12C12.0041 15.0504 11.2296 18.0513 9.75 20.7188" stroke="#191C1F" stroke-width="1.5" stroke-linecap="round" stroke-linejoin="round"/>
<path d="M9 12C9 11.2044 9.31607 10.4413 9.87868 9.87868C10.4413 9.31607 11.2044 9 12 9C12.7956 9 13.5587 9.31607 14.1213 9.87868C14.6839 10.4413 15 11.2044 15 12C15.0062 15.0925 14.3241 18.1476 13.0031 20.9437" stroke="#191C1F" stroke-width="1.5" stroke-linecap="round" stroke-linejoin="round"/>
<path d="M20.4938 17.25C20.8296 15.5202 20.9991 13.7621 21 12C21 9.61305 20.0518 7.32387 18.364 5.63604C16.6761 3.94821 14.3869 3 12 3C9.61305 3 7.32387 3.94821 5.63604 5.63604C3.94821 7.32387 3 9.61305 3 12C3.00268 13.0223 2.82823 14.0373 2.48438 15" stroke="#191C1F" stroke-width="1.5" stroke-linecap="round" stroke-linejoin="round"/>
<path d="M8.70005 15C8.37622 16.5774 7.80343 18.0932 7.00317 19.4906" stroke="#191C1F" stroke-width="1.5" stroke-linecap="round" stroke-linejoin="round"/>
<path d="M11.25 6.04688C11.4989 6.01696 11.7493 6.00131 12 6C13.5913 6 15.1174 6.63214 16.2426 7.75736C17.3679 8.88258 18 10.4087 18 12C17.9991 13.0029 17.9365 14.0048 17.8125 15" stroke="#191C1F" stroke-width="1.5" stroke-linecap="round" stroke-linejoin="round"/>
<path d="M17.2406 18C17.0999 18.5531 16.9406 19.1063 16.7625 19.6406" stroke="#191C1F" stroke-width="1.5" stroke-linecap="round" stroke-linejoin="round"/>
</svg>
