<svg width="24" height="24" viewBox="0 0 24 24" fill="none" xmlns="http://www.w3.org/2000/svg">
<path d="M14.625 8.25C15.2463 8.25 15.75 7.74632 15.75 7.125C15.75 6.50368 15.2463 6 14.625 6C14.0037 6 13.5 6.50368 13.5 7.125C13.5 7.74632 14.0037 8.25 14.625 8.25Z" fill="#191C1F"/>
<path d="M1.5 17.2499C23.2313 22.003 20.9812 7.07803 20.3625 4.21866C20.3306 4.0767 20.259 3.94671 20.1561 3.84382C20.0532 3.74093 19.9232 3.66935 19.7812 3.63741C16.9219 3.01866 1.99687 0.768659 6.75 22.4999" stroke="#191C1F" stroke-width="1.5" stroke-linecap="round" stroke-linejoin="round"/>
<path d="M18.8719 14.2499C17.6686 14.2663 16.4743 14.0413 15.3596 13.5881C14.2448 13.1349 13.2323 12.4628 12.3818 11.6114C11.5313 10.7601 10.8602 9.74686 10.4082 8.63164C9.95614 7.51642 9.73233 6.32187 9.74999 5.11865" stroke="#191C1F" stroke-width="1.5" stroke-linecap="round" stroke-linejoin="round"/>
</svg>
