<svg width="24" height="24" viewBox="0 0 24 24" fill="none" xmlns="http://www.w3.org/2000/svg">
<path d="M14.625 8.25C15.2463 8.25 15.75 7.74632 15.75 7.125C15.75 6.50368 15.2463 6 14.625 6C14.0037 6 13.5 6.50368 13.5 7.125C13.5 7.74632 14.0037 8.25 14.625 8.25Z" fill="#191C1F"/>
<path d="M17.4655 15.7407H17.2499C16.0564 15.7407 14.9118 15.2666 14.0679 14.4227C13.224 13.5787 12.7499 12.4341 12.7499 11.2407C11.558 11.2407 10.4149 10.7679 9.57123 9.92597C8.72758 9.08408 8.25238 7.9419 8.2499 6.75005C8.24834 6.67805 8.25147 6.60602 8.25927 6.53442" stroke="#191C1F" stroke-width="1.5" stroke-linecap="round" stroke-linejoin="round"/>
<path d="M5.83125 14.3625L0.75 16.5L6 18L7.5 23.25L9.6375 18.1687C22.6125 17.8593 20.8875 6.64685 20.3625 4.20935C20.3297 4.0703 20.2589 3.94314 20.1578 3.84213C20.0568 3.74112 19.9297 3.67025 19.7906 3.63747C17.3531 3.11247 6.14063 1.38747 5.83125 14.3625V14.3625Z" stroke="#191C1F" stroke-width="1.5" stroke-linecap="round" stroke-linejoin="round"/>
</svg>
