<svg width="24" height="24" viewBox="0 0 24 24" fill="none" xmlns="http://www.w3.org/2000/svg">
<path d="M9.75 3V8.79375C9.7491 8.92859 9.71359 9.06094 9.64687 9.17813L3.68437 19.1156C3.6167 19.229 3.58016 19.3582 3.57843 19.4902C3.57671 19.6222 3.60986 19.7524 3.67454 19.8675C3.73923 19.9826 3.83314 20.0785 3.94681 20.1457C4.06047 20.2129 4.18985 20.2489 4.32187 20.25H19.6781C19.8101 20.2489 19.9395 20.2129 20.0532 20.1457C20.1668 20.0785 20.2608 19.9826 20.3254 19.8675C20.3901 19.7524 20.4233 19.6222 20.4216 19.4902C20.4198 19.3582 20.3833 19.229 20.3156 19.1156L14.3531 9.17813C14.2864 9.06094 14.2509 8.92859 14.25 8.79375V3" stroke="#191C1F" stroke-width="1.5" stroke-linecap="round" stroke-linejoin="round"/>
<path d="M8.25 3H15.75" stroke="#191C1F" stroke-width="1.5" stroke-linecap="round" stroke-linejoin="round"/>
<path d="M5.86877 15.4688C6.97502 14.6531 8.87815 14.1938 12 15.75C15.3469 17.4281 17.2969 16.7625 18.3656 15.8531" stroke="#191C1F" stroke-width="1.5" stroke-linecap="round" stroke-linejoin="round"/>
</svg>
