<svg width="24" height="24" viewBox="0 0 24 24" fill="none" xmlns="http://www.w3.org/2000/svg">
<path d="M3.75 8.55938V19.5C3.75 19.6989 3.82902 19.8897 3.96967 20.0303C4.11033 20.171 4.30109 20.25 4.5 20.25H19.5C19.6989 20.25 19.8897 20.171 20.0303 20.0303C20.171 19.8897 20.25 19.6989 20.25 19.5V4.5C20.25 4.30109 20.171 4.11033 20.0303 3.96967C19.8897 3.82902 19.6989 3.75 19.5 3.75H8.55938C8.46199 3.74966 8.36549 3.76853 8.27541 3.80553C8.18532 3.84253 8.10341 3.89694 8.03438 3.96563L3.96563 8.03438C3.89694 8.10341 3.84253 8.18532 3.80553 8.27541C3.76853 8.36549 3.74966 8.46199 3.75 8.55938V8.55938Z" stroke="#191C1F" stroke-width="1.5" stroke-linecap="round" stroke-linejoin="round"/>
<path d="M12 16.5C13.4497 16.5 14.625 15.3247 14.625 13.875C14.625 12.4253 13.4497 11.25 12 11.25C10.5503 11.25 9.375 12.4253 9.375 13.875C9.375 15.3247 10.5503 16.5 12 16.5Z" stroke="#191C1F" stroke-width="1.5" stroke-linecap="round" stroke-linejoin="round"/>
<path d="M9 7.5H15V3.75" stroke="#191C1F" stroke-width="1.5" stroke-linecap="round" stroke-linejoin="round"/>
</svg>
