<svg width="24" height="24" viewBox="0 0 24 24" fill="none" xmlns="http://www.w3.org/2000/svg">
<path fill-rule="evenodd" clip-rule="evenodd" d="M4.125 14.625C3.08947 14.625 2.25 15.4645 2.25 16.5C2.25 17.5355 3.08947 18.375 4.125 18.375C5.16053 18.375 6 17.5355 6 16.5C6 15.4645 5.16053 14.625 4.125 14.625ZM0.75 16.5C0.75 14.636 2.26104 13.125 4.125 13.125C5.98896 13.125 7.5 14.636 7.5 16.5C7.5 18.364 5.98896 19.875 4.125 19.875C2.26104 19.875 0.75 18.364 0.75 16.5Z" fill="#191C1F"/>
<path fill-rule="evenodd" clip-rule="evenodd" d="M18.2197 3.21967C18.5126 2.92678 18.9874 2.92678 19.2803 3.21967L23.0303 6.96967C23.3232 7.26256 23.3232 7.73744 23.0303 8.03033L19.2803 11.7803C18.9874 12.0732 18.5126 12.0732 18.2197 11.7803C17.9268 11.4874 17.9268 11.0126 18.2197 10.7197L21.4393 7.5L18.2197 4.28033C17.9268 3.98744 17.9268 3.51256 18.2197 3.21967Z" fill="#191C1F"/>
<path fill-rule="evenodd" clip-rule="evenodd" d="M16.5 8.25C15.5054 8.25 14.5516 8.64509 13.8483 9.34835C13.1451 10.0516 12.75 11.0054 12.75 12C12.75 13.3924 12.1969 14.7277 11.2123 15.7123C10.2277 16.6969 8.89239 17.25 7.5 17.25H6.75C6.33579 17.25 6 16.9142 6 16.5C6 16.0858 6.33579 15.75 6.75 15.75H7.5C8.49456 15.75 9.44839 15.3549 10.1517 14.6517C10.8549 13.9484 11.25 12.9946 11.25 12C11.25 10.6076 11.8031 9.27226 12.7877 8.28769C13.7723 7.30312 15.1076 6.75 16.5 6.75H22.5C22.9142 6.75 23.25 7.08579 23.25 7.5C23.25 7.91421 22.9142 8.25 22.5 8.25H16.5Z" fill="#191C1F"/>
</svg>
