<svg width="24" height="24" viewBox="0 0 24 24" fill="none" xmlns="http://www.w3.org/2000/svg">
<path d="M12 18.75C13.5 18.75 15.9844 18.7312 18.8344 17.0812C21.6844 15.4312 22.6125 13.3781 22.9031 12.3187C22.9299 12.2233 22.9372 12.1235 22.9247 12.0252C22.9122 11.9268 22.8801 11.832 22.8302 11.7464C22.7804 11.6607 22.7139 11.5859 22.6346 11.5264C22.5553 11.4669 22.4649 11.4239 22.3688 11.4C21.6844 11.2219 20.4844 11.0625 18.9469 11.4281" stroke="#191C1F" stroke-width="1.5" stroke-linecap="round" stroke-linejoin="round"/>
<path d="M5.05311 11.4187C3.51561 11.0624 2.31561 11.2218 1.63123 11.3999C1.53505 11.4238 1.44464 11.4668 1.36537 11.5263C1.2861 11.5858 1.21958 11.6606 1.16975 11.7463C1.11992 11.832 1.08779 11.9268 1.07527 12.0251C1.06275 12.1234 1.07009 12.2232 1.09686 12.3187C1.38748 13.378 2.31561 15.4405 5.1656 17.0812C8.0156 18.7218 10.5 18.7499 12 18.7499" stroke="#191C1F" stroke-width="1.5" stroke-linecap="round" stroke-linejoin="round"/>
<path d="M12 18.75C12 18.75 15.75 16.7063 15.75 11.25C15.75 6.97504 13.4438 4.80004 12.45 4.05004C12.3196 3.95409 12.1619 3.90234 12 3.90234C11.8381 3.90234 11.6804 3.95409 11.55 4.05004C10.5562 4.80004 8.25 6.97504 8.25 11.25C8.25 16.7063 12 18.75 12 18.75Z" stroke="#191C1F" stroke-width="1.5" stroke-linecap="round" stroke-linejoin="round"/>
<path d="M12 18.75C13.125 18.5062 16.1531 16.8 17.9719 13.65C19.7906 10.5 19.3406 7.99686 18.9844 6.89998C18.9299 6.72358 18.8107 6.57431 18.6507 6.48215C18.4907 6.38998 18.3018 6.36175 18.1219 6.40311C17.0455 6.64418 16.0385 7.12842 15.1781 7.81873" stroke="#191C1F" stroke-width="1.5" stroke-linecap="round" stroke-linejoin="round"/>
<path d="M8.82187 7.81873C7.9615 7.12842 6.95454 6.64418 5.87812 6.40311C5.69819 6.36175 5.50927 6.38998 5.34929 6.48215C5.1893 6.57431 5.07011 6.72358 5.01562 6.89998C4.65937 7.99686 4.20938 10.5094 6.02812 13.65C7.84687 16.7906 10.875 18.5062 12 18.75" stroke="#191C1F" stroke-width="1.5" stroke-linecap="round" stroke-linejoin="round"/>
</svg>
