<svg width="24" height="24" viewBox="0 0 24 24" fill="none" xmlns="http://www.w3.org/2000/svg">
<path d="M15.825 17.6906L16.1906 19.9031" stroke="#191C1F" stroke-width="1.5" stroke-linecap="round" stroke-linejoin="round"/>
<path d="M12 18V21" stroke="#191C1F" stroke-width="1.5" stroke-linecap="round" stroke-linejoin="round"/>
<path d="M8.17495 17.6906L7.80933 19.9031" stroke="#191C1F" stroke-width="1.5" stroke-linecap="round" stroke-linejoin="round"/>
<path d="M16.5938 6.45001C20.0906 7.18126 22.5 8.71876 22.5 10.5C22.5 12.9844 17.8031 15 12 15C6.19687 15 1.5 12.9844 1.5 10.5C1.5 8.71876 3.92813 7.17189 7.44375 6.45001" stroke="#191C1F" stroke-width="1.5" stroke-linecap="round" stroke-linejoin="round"/>
<path d="M6.75001 9.36564C6.74851 9.70424 6.86306 10.0331 7.07459 10.2975C7.28611 10.5619 7.58184 10.7459 7.91251 10.8188C9.254 11.1186 10.6255 11.2633 12 11.25C13.3745 11.2633 14.746 11.1186 16.0875 10.8188C16.4182 10.7459 16.7139 10.5619 16.9254 10.2975C17.137 10.0331 17.2515 9.70424 17.25 9.36564V9.00001C17.2501 8.30502 17.1121 7.61693 16.8442 6.97565C16.5763 6.33438 16.1837 5.75268 15.6892 5.26431C15.1947 4.77593 14.6082 4.3906 13.9636 4.13065C13.3191 3.87071 12.6293 3.74133 11.9344 3.75001C9.04689 3.78751 6.75001 6.19689 6.75001 9.07501V9.36564Z" stroke="#191C1F" stroke-width="1.5" stroke-linecap="round" stroke-linejoin="round"/>
</svg>
