<svg width="24" height="24" viewBox="0 0 24 24" fill="none" xmlns="http://www.w3.org/2000/svg">
<path d="M3 7.5V6C3 5.80109 3.07902 5.61032 3.21967 5.46967C3.36032 5.32902 3.55109 5.25 3.75 5.25H8.74688C8.90904 5.25067 9.06674 5.30323 9.19687 5.4L12 7.5" stroke="#191C1F" stroke-width="1.5" stroke-linecap="round" stroke-linejoin="round"/>
<path d="M8.25 19.5H3.69375C3.60265 19.5 3.51243 19.4821 3.42826 19.4472C3.34409 19.4123 3.26762 19.3612 3.20319 19.2968C3.13877 19.2324 3.08767 19.1559 3.05281 19.0717C3.01794 18.9876 3 18.8974 3 18.8063V18" stroke="#191C1F" stroke-width="1.5" stroke-linecap="round" stroke-linejoin="round"/>
<path d="M15 19.5H12" stroke="#191C1F" stroke-width="1.5" stroke-linecap="round" stroke-linejoin="round"/>
<path d="M21 14.25V18.8344C21 19.0109 20.9299 19.1802 20.805 19.305C20.6802 19.4299 20.5109 19.5 20.3344 19.5H18.75" stroke="#191C1F" stroke-width="1.5" stroke-linecap="round" stroke-linejoin="round"/>
<path d="M15.75 7.5H20.25C20.4489 7.5 20.6397 7.57902 20.7803 7.71967C20.921 7.86032 21 8.05109 21 8.25V10.5" stroke="#191C1F" stroke-width="1.5" stroke-linecap="round" stroke-linejoin="round"/>
<path d="M3 11.25V14.25" stroke="#191C1F" stroke-width="1.5" stroke-linecap="round" stroke-linejoin="round"/>
</svg>
