<svg width="24" height="24" viewBox="0 0 24 24" fill="none" xmlns="http://www.w3.org/2000/svg">
<path d="M17.625 18.375C18.8676 18.375 19.875 17.3676 19.875 16.125C19.875 14.8824 18.8676 13.875 17.625 13.875C16.3824 13.875 15.375 14.8824 15.375 16.125C15.375 17.3676 16.3824 18.375 17.625 18.375Z" stroke="#191C1F" stroke-width="1.5" stroke-linecap="round" stroke-linejoin="round"/>
<path d="M14.7188 20.625C14.884 19.9797 15.2593 19.4077 15.7855 18.9993C16.3117 18.5908 16.9589 18.3691 17.625 18.3691C18.2911 18.3691 18.9383 18.5908 19.4645 18.9993C19.9907 19.4077 20.366 19.9797 20.5312 20.625" stroke="#191C1F" stroke-width="1.5" stroke-linecap="round" stroke-linejoin="round"/>
<path d="M11.25 19.5H3.75C3.55109 19.5 3.36032 19.421 3.21967 19.2803C3.07902 19.1397 3 18.9489 3 18.75V6C3 5.80109 3.07902 5.61032 3.21967 5.46967C3.36032 5.32902 3.55109 5.25 3.75 5.25H8.74688C8.90904 5.25067 9.06674 5.30323 9.19687 5.4L11.8031 7.35C11.9333 7.44677 12.091 7.49933 12.2531 7.5H20.25C20.4489 7.5 20.6397 7.57902 20.7803 7.71967C20.921 7.86032 21 8.05109 21 8.25V11.25" stroke="#191C1F" stroke-width="1.5" stroke-linecap="round" stroke-linejoin="round"/>
</svg>
