<svg width="24" height="24" viewBox="0 0 24 24" fill="none" xmlns="http://www.w3.org/2000/svg">
<path d="M3 19.5V6C3 5.80109 3.07902 5.61032 3.21967 5.46967C3.36032 5.32902 3.55109 5.25 3.75 5.25H8.74688C8.90904 5.25067 9.06674 5.30323 9.19687 5.4L11.8031 7.35C11.9333 7.44677 12.091 7.49933 12.2531 7.5H18.75C18.9489 7.5 19.1397 7.57902 19.2803 7.71967C19.421 7.86032 19.5 8.05109 19.5 8.25V10.5" stroke="#191C1F" stroke-width="1.5" stroke-linecap="round" stroke-linejoin="round"/>
<path d="M3 19.5L5.83125 11.0156C5.8806 10.8656 5.97605 10.735 6.10399 10.6424C6.23192 10.5498 6.38582 10.5 6.54375 10.5H21.4594C21.578 10.5 21.6949 10.5281 21.8005 10.582C21.9061 10.636 21.9975 10.7142 22.067 10.8102C22.1365 10.9063 22.1823 11.0175 22.2005 11.1347C22.2188 11.2519 22.2089 11.3717 22.1719 11.4844L19.5 19.5H3Z" stroke="#191C1F" stroke-width="1.5" stroke-linecap="round" stroke-linejoin="round"/>
</svg>
