<svg width="24" height="24" viewBox="0 0 24 24" fill="none" xmlns="http://www.w3.org/2000/svg">
<path d="M12 7.5H20.25C20.4489 7.5 20.6397 7.57902 20.7803 7.71967C20.921 7.86032 21 8.05109 21 8.25V18.75C21 18.9489 20.921 19.1397 20.7803 19.2803C20.6397 19.421 20.4489 19.5 20.25 19.5H3.75C3.55109 19.5 3.36032 19.421 3.21967 19.2803C3.07902 19.1397 3 18.9489 3 18.75V9.75" stroke="#191C1F" stroke-width="1.5" stroke-linecap="round" stroke-linejoin="round"/>
<path d="M8.74688 9.75H3V6C3 5.80109 3.07902 5.61032 3.21967 5.46967C3.36032 5.32902 3.55109 5.25 3.75 5.25H8.74688C8.90904 5.25067 9.06674 5.30323 9.19687 5.4L12 7.5L9.19687 9.6C9.06674 9.69677 8.90904 9.74933 8.74688 9.75V9.75Z" stroke="#191C1F" stroke-width="1.5" stroke-linecap="round" stroke-linejoin="round"/>
<path d="M9.75 13.875H14.25" stroke="#191C1F" stroke-width="1.5" stroke-linecap="round" stroke-linejoin="round"/>
<path d="M12 11.625V16.125" stroke="#191C1F" stroke-width="1.5" stroke-linecap="round" stroke-linejoin="round"/>
</svg>
