<svg width="24" height="24" viewBox="0 0 24 24" fill="none" xmlns="http://www.w3.org/2000/svg">
<path d="M17.3063 17.3062C13.4063 21.1969 8.00628 20.8875 5.40003 20.4469C4.93831 20.3694 4.51223 20.1499 4.18118 19.8188C3.85013 19.4878 3.63059 19.0617 3.55316 18.6C3.11253 15.9937 2.80316 10.5937 6.69378 6.69375C10.5844 2.79375 15.9938 3.1125 18.6 3.55312C19.0618 3.63055 19.4878 3.85009 19.8189 4.18114C20.1499 4.51219 20.3695 4.93827 20.4469 5.4C20.8875 8.00625 21.1969 13.4062 17.3063 17.3062Z" stroke="#191C1F" stroke-width="1.5" stroke-linecap="round" stroke-linejoin="round"/>
<path d="M15 9L9 15" stroke="#191C1F" stroke-width="1.5" stroke-linecap="round" stroke-linejoin="round"/>
<path d="M11.6907 9.57187L14.4282 12.3094" stroke="#191C1F" stroke-width="1.5" stroke-linecap="round" stroke-linejoin="round"/>
<path d="M9.5719 11.6906L12.3094 14.4281" stroke="#191C1F" stroke-width="1.5" stroke-linecap="round" stroke-linejoin="round"/>
<path d="M13.8938 3.39374L20.6063 10.1062" stroke="#191C1F" stroke-width="1.5" stroke-linecap="round" stroke-linejoin="round"/>
<path d="M3.3938 13.8937L10.1063 20.6062" stroke="#191C1F" stroke-width="1.5" stroke-linecap="round" stroke-linejoin="round"/>
</svg>
