<svg width="24" height="24" viewBox="0 0 24 24" fill="none" xmlns="http://www.w3.org/2000/svg">
<path d="M2.25 17.25V15.1031C2.25 9.71245 6.58125 5.2687 11.9625 5.24995C13.246 5.24501 14.5179 5.49356 15.7052 5.98133C16.8924 6.46911 17.9717 7.1865 18.881 8.09237C19.7904 8.99823 20.5119 10.0747 21.0043 11.2601C21.4966 12.4455 21.75 13.7164 21.75 15V17.25C21.75 17.4489 21.671 17.6396 21.5303 17.7803C21.3897 17.9209 21.1989 18 21 18H3C2.80109 18 2.61032 17.9209 2.46967 17.7803C2.32902 17.6396 2.25 17.4489 2.25 17.25Z" stroke="#191C1F" stroke-width="1.5" stroke-linecap="round" stroke-linejoin="round"/>
<path d="M12 5.25V8.25" stroke="#191C1F" stroke-width="1.5" stroke-linecap="round" stroke-linejoin="round"/>
<path d="M2.57812 12.4781L5.48438 13.2563" stroke="#191C1F" stroke-width="1.5" stroke-linecap="round" stroke-linejoin="round"/>
<path d="M21.4219 12.4781L18.5156 13.2563" stroke="#191C1F" stroke-width="1.5" stroke-linecap="round" stroke-linejoin="round"/>
<path d="M9.69385 18L16.1063 9.64685" stroke="#191C1F" stroke-width="1.5" stroke-linecap="round" stroke-linejoin="round"/>
</svg>
