<svg width="24" height="24" viewBox="0 0 24 24" fill="none" xmlns="http://www.w3.org/2000/svg">
<path d="M7.875 22.5C8.17082 22.5012 8.46396 22.4439 8.7375 22.3313C9.01105 22.2186 9.25958 22.0529 9.46876 21.8438C9.67793 21.6346 9.84362 21.386 9.95625 21.1125C10.0689 20.839 10.1262 20.5458 10.125 20.25V15.75" stroke="#191C1F" stroke-width="1.5" stroke-linecap="round" stroke-linejoin="round"/>
<path d="M16.125 22.5C15.8292 22.5012 15.536 22.4439 15.2625 22.3313C14.9889 22.2186 14.7404 22.0529 14.5312 21.8438C14.3221 21.6346 14.1564 21.386 14.0437 21.1125C13.9311 20.839 13.8737 20.5458 13.875 20.25V15.75" stroke="#191C1F" stroke-width="1.5" stroke-linecap="round" stroke-linejoin="round"/>
<path d="M14.25 15.75H15.75C16.0458 15.7488 16.339 15.8061 16.6125 15.9188C16.886 16.0314 17.1346 16.1971 17.3438 16.4063C17.5529 16.6154 17.7186 16.864 17.8313 17.1375C17.9439 17.4111 18.0012 17.7042 18 18V18.75C17.9988 19.0458 18.0561 19.339 18.1687 19.6125C18.2814 19.8861 18.4471 20.1346 18.6562 20.3438C18.8654 20.553 19.114 20.7186 19.3875 20.8313C19.661 20.9439 19.9542 21.0013 20.25 21" stroke="#191C1F" stroke-width="1.5" stroke-linecap="round" stroke-linejoin="round"/>
<path d="M9.75 15.75H8.25C7.95418 15.7488 7.66104 15.8061 7.3875 15.9188C7.11395 16.0314 6.86542 16.1971 6.65624 16.4063C6.44707 16.6154 6.28138 16.864 6.16874 17.1375C6.05611 17.4111 5.99876 17.7042 6 18V18.75C6.00124 19.0458 5.94389 19.339 5.83126 19.6125C5.71862 19.8861 5.55293 20.1346 5.34376 20.3438C5.13458 20.553 4.88605 20.7186 4.6125 20.8313C4.33896 20.9439 4.04582 21.0013 3.75 21" stroke="#191C1F" stroke-width="1.5" stroke-linecap="round" stroke-linejoin="round"/>
<path d="M10.4813 6C10.0406 5.31048 9.43355 4.74295 8.71594 4.34974C7.99833 3.95653 7.19328 3.75028 6.375 3.75C6.01116 4.37979 5.79285 5.08301 5.73607 5.80813C5.67929 6.53325 5.78549 7.26188 6.04688 7.94062C5.53426 8.6963 5.25697 9.58689 5.25 10.5V11.25C5.25 12.4435 5.72411 13.5881 6.56802 14.432C7.41193 15.2759 8.55653 15.75 9.75 15.75H14.25C15.4435 15.75 16.5881 15.2759 17.432 14.432C18.2759 13.5881 18.75 12.4435 18.75 11.25V10.5C18.743 9.58689 18.4657 8.6963 17.9531 7.94062C18.2145 7.26188 18.3207 6.53325 18.2639 5.80813C18.2072 5.08301 17.9888 4.37979 17.625 3.75C16.8067 3.75028 16.0017 3.95653 15.2841 4.34974C14.5665 4.74295 13.9594 5.31048 13.5187 6H10.4813Z" stroke="#191C1F" stroke-width="1.5" stroke-linecap="round" stroke-linejoin="round"/>
</svg>
