<svg width="24" height="24" viewBox="0 0 24 24" fill="none" xmlns="http://www.w3.org/2000/svg">
<path d="M7.78128 10.5H16.2188L18.3375 4.84691C18.3659 4.77291 18.4169 4.70979 18.4834 4.66662C18.5499 4.62344 18.6283 4.60243 18.7074 4.6066C18.7865 4.61076 18.8623 4.63989 18.9239 4.6898C18.9854 4.73971 19.0296 4.80784 19.05 4.88441L21.6188 14.4938C21.6549 14.6428 21.6456 14.7991 21.5921 14.9428C21.5387 15.0865 21.4435 15.2109 21.3188 15.3L12.4313 21.45C12.3045 21.5375 12.1541 21.5844 12 21.5844C11.846 21.5844 11.6956 21.5375 11.5688 21.45L2.68127 15.3C2.55658 15.2109 2.4614 15.0865 2.40794 14.9428C2.35448 14.7991 2.3452 14.6428 2.38127 14.4938L4.95002 4.88441C4.97045 4.80784 5.01461 4.73971 5.07617 4.6898C5.13772 4.63989 5.2135 4.61076 5.29264 4.6066C5.37178 4.60243 5.4502 4.62344 5.51665 4.66662C5.5831 4.70979 5.63417 4.77291 5.66253 4.84691L7.78128 10.5Z" stroke="#191C1F" stroke-width="1.5" stroke-linecap="round" stroke-linejoin="round"/>
</svg>
