<svg width="24" height="24" viewBox="0 0 24 24" fill="none" xmlns="http://www.w3.org/2000/svg">
<path d="M7.78124 10.5H16.2187L18.3375 4.84691C18.3658 4.77291 18.4169 4.70979 18.4834 4.66662C18.5498 4.62344 18.6282 4.60243 18.7074 4.6066C18.7865 4.61076 18.8623 4.63989 18.9239 4.6898C18.9854 4.73971 19.0296 4.80784 19.05 4.88441L21.6187 14.4938C21.6548 14.6428 21.6455 14.7991 21.5921 14.9428C21.5386 15.0865 21.4434 15.2109 21.3187 15.3L12.4312 21.45C12.3044 21.5375 12.154 21.5844 12 21.5844C11.8459 21.5844 11.6955 21.5375 11.5687 21.45L2.68124 15.3C2.55655 15.2109 2.46137 15.0865 2.40791 14.9428C2.35445 14.7991 2.34517 14.6428 2.38124 14.4938L4.94999 4.88441C4.97042 4.80784 5.01458 4.73971 5.07614 4.6898C5.13769 4.63989 5.21347 4.61076 5.29261 4.6066C5.37175 4.60243 5.45017 4.62344 5.51662 4.66662C5.58307 4.70979 5.63414 4.77291 5.66249 4.84691L7.78124 10.5Z" stroke="#191C1F" stroke-width="1.5" stroke-linecap="round" stroke-linejoin="round"/>
<path d="M12.0656 21.5812L16.2187 10.5H20.55" stroke="#191C1F" stroke-width="1.5" stroke-linecap="round" stroke-linejoin="round"/>
<path d="M3.45001 10.5H7.78126L11.9344 21.5812" stroke="#191C1F" stroke-width="1.5" stroke-linecap="round" stroke-linejoin="round"/>
</svg>
