<svg width="24" height="24" viewBox="0 0 24 24" fill="none" xmlns="http://www.w3.org/2000/svg">
<path d="M12 15.75C15.7279 15.75 18.75 12.7279 18.75 9C18.75 5.27208 15.7279 2.25 12 2.25C8.27208 2.25 5.25 5.27208 5.25 9C5.25 12.7279 8.27208 15.75 12 15.75Z" stroke="#191C1F" stroke-width="1.5" stroke-linecap="round" stroke-linejoin="round"/>
<path d="M18.8906 15.8906C17.0631 17.7181 14.5844 18.7448 11.9999 18.7448C9.41546 18.7448 6.93682 17.7181 5.10932 15.8906C3.28181 14.0631 2.25513 11.5845 2.25513 9C2.25513 6.41551 3.28181 3.93688 5.10932 2.10938" stroke="#191C1F" stroke-width="1.5" stroke-linecap="round" stroke-linejoin="round"/>
<path d="M9 21.75H15" stroke="#191C1F" stroke-width="1.5" stroke-linecap="round" stroke-linejoin="round"/>
<path d="M12 18.75V21.75" stroke="#191C1F" stroke-width="1.5" stroke-linecap="round" stroke-linejoin="round"/>
</svg>
