<svg width="24" height="24" viewBox="0 0 24 24" fill="none" xmlns="http://www.w3.org/2000/svg">
<path d="M12.375 12.375V2.25C13.5556 2.25 14.7063 2.62146 15.664 3.31176C16.6217 4.00207 17.338 4.97621 17.7113 6.09622C18.0847 7.21622 18.0962 8.4253 17.7441 9.55219C17.3921 10.6791 16.6945 11.6666 15.75 12.375" stroke="#191C1F" stroke-width="1.5" stroke-linecap="round" stroke-linejoin="round"/>
<path d="M12.375 11.625H2.25C2.25 10.4444 2.62146 9.29375 3.31176 8.336C4.00207 7.37826 4.97621 6.66199 6.09622 6.28866C7.21622 5.91532 8.4253 5.90385 9.55219 6.25586C10.6791 6.60787 11.6666 7.30553 12.375 8.25" stroke="#191C1F" stroke-width="1.5" stroke-linecap="round" stroke-linejoin="round"/>
<path d="M11.625 11.625V21.75C10.4444 21.75 9.29375 21.3785 8.336 20.6882C7.37826 19.9979 6.66199 19.0238 6.28866 17.9038C5.91532 16.7838 5.90385 15.5747 6.25586 14.4478C6.60787 13.3209 7.30553 12.3334 8.25 11.625" stroke="#191C1F" stroke-width="1.5" stroke-linecap="round" stroke-linejoin="round"/>
<path d="M11.625 12.375H21.75C21.75 13.5556 21.3785 14.7063 20.6882 15.664C19.9979 16.6217 19.0238 17.338 17.9038 17.7113C16.7838 18.0847 15.5747 18.0962 14.4478 17.7441C13.3209 17.3921 12.3334 16.6945 11.625 15.75" stroke="#191C1F" stroke-width="1.5" stroke-linecap="round" stroke-linejoin="round"/>
</svg>
