<svg width="24" height="24" viewBox="0 0 24 24" fill="none" xmlns="http://www.w3.org/2000/svg">
<path d="M3.73126 21.0093C3.73241 21.1413 3.76838 21.2707 3.83555 21.3844C3.90272 21.498 3.9987 21.592 4.11379 21.6566C4.22889 21.7213 4.35902 21.7545 4.49104 21.7528C4.62305 21.751 4.75227 21.7145 4.86564 21.6468L20.5969 12.6374C20.7126 12.576 20.8094 12.4842 20.8769 12.3719C20.9444 12.2595 20.9801 12.131 20.9801 11.9999C20.9801 11.8689 20.9444 11.7403 20.8769 11.628C20.8094 11.5157 20.7126 11.4239 20.5969 11.3624L4.86564 2.35307C4.75227 2.2854 4.62305 2.24886 4.49104 2.24713C4.35902 2.24541 4.22889 2.27856 4.11379 2.34324C3.9987 2.40793 3.90272 2.50184 3.83555 2.61551C3.76838 2.72917 3.73241 2.85855 3.73126 2.99057V21.0093Z" stroke="#191C1F" stroke-width="1.5" stroke-linecap="round" stroke-linejoin="round"/>
<path d="M3.95624 2.4563L16.4906 14.9907" stroke="#191C1F" stroke-width="1.5" stroke-linecap="round" stroke-linejoin="round"/>
<path d="M3.95624 21.5438L16.4906 9.0094" stroke="#191C1F" stroke-width="1.5" stroke-linecap="round" stroke-linejoin="round"/>
</svg>
