<svg width="24" height="24" viewBox="0 0 24 24" fill="none" xmlns="http://www.w3.org/2000/svg">
<path fill-rule="evenodd" clip-rule="evenodd" d="M2.25 9.75C2.25 9.33579 2.58579 9 3 9H10.5C10.9142 9 11.25 9.33579 11.25 9.75C11.25 10.1642 10.9142 10.5 10.5 10.5H3C2.58579 10.5 2.25 10.1642 2.25 9.75Z" fill="#191C1F"/>
<path fill-rule="evenodd" clip-rule="evenodd" d="M12.75 9.75C12.75 9.33579 13.0858 9 13.5 9H21C21.4142 9 21.75 9.33579 21.75 9.75C21.75 10.1642 21.4142 10.5 21 10.5H13.5C13.0858 10.5 12.75 10.1642 12.75 9.75Z" fill="#191C1F"/>
<path fill-rule="evenodd" clip-rule="evenodd" d="M2.25 13.5C2.25 13.0858 2.58579 12.75 3 12.75H7.125C7.53921 12.75 7.875 13.0858 7.875 13.5C7.875 13.9142 7.53921 14.25 7.125 14.25H3C2.58579 14.25 2.25 13.9142 2.25 13.5Z" fill="#191C1F"/>
<path fill-rule="evenodd" clip-rule="evenodd" d="M16.125 13.5C16.125 13.0858 16.4608 12.75 16.875 12.75H21C21.4142 12.75 21.75 13.0858 21.75 13.5C21.75 13.9142 21.4142 14.25 21 14.25H16.875C16.4608 14.25 16.125 13.9142 16.125 13.5Z" fill="#191C1F"/>
<path fill-rule="evenodd" clip-rule="evenodd" d="M9 13.5C9 13.0858 9.33579 12.75 9.75 12.75H14.25C14.6642 12.75 15 13.0858 15 13.5C15 13.9142 14.6642 14.25 14.25 14.25H9.75C9.33579 14.25 9 13.9142 9 13.5Z" fill="#191C1F"/>
<path fill-rule="evenodd" clip-rule="evenodd" d="M2.25 17.25C2.25 16.8358 2.58579 16.5 3 16.5H5.25C5.66421 16.5 6 16.8358 6 17.25C6 17.6642 5.66421 18 5.25 18H3C2.58579 18 2.25 17.6642 2.25 17.25Z" fill="#191C1F"/>
<path fill-rule="evenodd" clip-rule="evenodd" d="M7.5 17.25C7.5 16.8358 7.83579 16.5 8.25 16.5H10.5C10.9142 16.5 11.25 16.8358 11.25 17.25C11.25 17.6642 10.9142 18 10.5 18H8.25C7.83579 18 7.5 17.6642 7.5 17.25Z" fill="#191C1F"/>
<path fill-rule="evenodd" clip-rule="evenodd" d="M12.75 17.25C12.75 16.8358 13.0858 16.5 13.5 16.5H15.75C16.1642 16.5 16.5 16.8358 16.5 17.25C16.5 17.6642 16.1642 18 15.75 18H13.5C13.0858 18 12.75 17.6642 12.75 17.25Z" fill="#191C1F"/>
<path fill-rule="evenodd" clip-rule="evenodd" d="M18 17.25C18 16.8358 18.3358 16.5 18.75 16.5H21C21.4142 16.5 21.75 16.8358 21.75 17.25C21.75 17.6642 21.4142 18 21 18H18.75C18.3358 18 18 17.6642 18 17.25Z" fill="#191C1F"/>
<path fill-rule="evenodd" clip-rule="evenodd" d="M2.25 6C2.25 5.58579 2.58579 5.25 3 5.25H21C21.4142 5.25 21.75 5.58579 21.75 6C21.75 6.41421 21.4142 6.75 21 6.75H3C2.58579 6.75 2.25 6.41421 2.25 6Z" fill="#191C1F"/>
</svg>
