<svg width="24" height="24" viewBox="0 0 24 24" fill="none" xmlns="http://www.w3.org/2000/svg">
<path fill-rule="evenodd" clip-rule="evenodd" d="M3.375 4.875C3.375 4.04657 4.04657 3.375 4.875 3.375H19.125C19.9534 3.375 20.625 4.04657 20.625 4.875V19.125C20.625 19.9534 19.9534 20.625 19.125 20.625H4.875C4.04657 20.625 3.375 19.9534 3.375 19.125V4.875ZM19.125 4.875H4.875V19.125H19.125V4.875Z" fill="#191C1F"/>
<path fill-rule="evenodd" clip-rule="evenodd" d="M12 3.375C12.4142 3.375 12.75 3.71079 12.75 4.125V19.875C12.75 20.2892 12.4142 20.625 12 20.625C11.5858 20.625 11.25 20.2892 11.25 19.875V4.125C11.25 3.71079 11.5858 3.375 12 3.375Z" fill="#191C1F"/>
<path fill-rule="evenodd" clip-rule="evenodd" d="M3.375 12C3.375 11.5858 3.71079 11.25 4.125 11.25H19.875C20.2892 11.25 20.625 11.5858 20.625 12C20.625 12.4142 20.2892 12.75 19.875 12.75H4.125C3.71079 12.75 3.375 12.4142 3.375 12Z" fill="#191C1F"/>
</svg>
