<svg width="24" height="24" viewBox="0 0 24 24" fill="none" xmlns="http://www.w3.org/2000/svg">
<path d="M8.81247 5.75632C8.58831 5.32781 8.53839 4.82925 8.67313 4.3648C8.80787 3.90034 9.11686 3.50591 9.53555 3.2639C9.95424 3.02188 10.4502 2.95099 10.92 3.06605C11.3897 3.1811 11.7968 3.4732 12.0562 3.88132L14.8687 8.74695" stroke="#191C1F" stroke-width="1.5" stroke-linecap="round" stroke-linejoin="round"/>
<path d="M6.31882 8.92497L4.81882 6.3281C4.59466 5.89958 4.54473 5.40103 4.67948 4.93657C4.81422 4.47212 5.1232 4.07769 5.54189 3.83567C5.96058 3.59366 6.45659 3.52277 6.92631 3.63783C7.39603 3.75288 7.80313 4.04498 8.06257 4.4531L11.2501 9.97497" stroke="#191C1F" stroke-width="1.5" stroke-linecap="round" stroke-linejoin="round"/>
<path d="M14.4374 15.4968C14.1904 15.071 14.0298 14.6007 13.9649 14.1127C13.9 13.6248 13.9321 13.1288 14.0592 12.6533C14.1864 12.1777 14.4062 11.732 14.7059 11.3415C15.0057 10.9511 15.3796 10.6237 15.8062 10.378L14.8687 8.74678C14.62 8.31539 14.5529 7.8029 14.6822 7.32204C14.8114 6.84119 15.1263 6.43136 15.5577 6.18272C15.9891 5.93408 16.5016 5.86699 16.9825 5.99622C17.4633 6.12544 17.8731 6.44039 18.1218 6.87178L19.9968 10.1249C20.9913 11.848 21.2607 13.8956 20.7455 15.8172C20.2304 17.7389 18.973 19.3772 17.2499 20.3718C15.5268 21.3663 13.4792 21.6357 11.5576 21.1205C9.63591 20.6054 7.99759 19.348 7.00303 17.6249L3.06553 10.7999C2.94242 10.5863 2.86258 10.3505 2.83058 10.1061C2.79858 9.86163 2.81504 9.61326 2.87903 9.37517C3.00825 8.89431 3.3232 8.48449 3.75459 8.23585C4.18598 7.98721 4.69848 7.92012 5.17933 8.04934C5.66019 8.17857 6.07001 8.49352 6.31866 8.92491L8.38116 12.4968" stroke="#191C1F" stroke-width="1.5" stroke-linecap="round" stroke-linejoin="round"/>
<path d="M7.60312 22.5C6.32924 21.6214 5.2688 20.468 4.5 19.125" stroke="#191C1F" stroke-width="1.5" stroke-linecap="round" stroke-linejoin="round"/>
<path d="M16.5 2.90627C17.3558 2.90395 18.1969 3.12825 18.9379 3.55639C19.6789 3.98452 20.2933 4.60121 20.7188 5.34377" stroke="#191C1F" stroke-width="1.5" stroke-linecap="round" stroke-linejoin="round"/>
</svg>
