<svg width="24" height="24" viewBox="0 0 24 24" fill="none" xmlns="http://www.w3.org/2000/svg">
<path d="M15.75 10.5V9.375C15.75 8.87772 15.5524 8.40081 15.2008 8.04917C14.8492 7.69754 14.3722 7.5 13.875 7.5C13.3777 7.5 12.9008 7.69754 12.5491 8.04917C12.1975 8.40081 12 8.87772 12 9.375V3.375C12 2.87772 11.8024 2.40081 11.4508 2.04917C11.0992 1.69754 10.6222 1.5 10.125 1.5C9.62768 1.5 9.15076 1.69754 8.79913 2.04917C8.4475 2.40081 8.24996 2.87772 8.24996 3.375V14.7469L6.19683 11.1844C5.94819 10.753 5.53837 10.438 5.05751 10.3088C4.57666 10.1796 4.06416 10.2467 3.63277 10.4953C3.20138 10.744 2.88643 11.1538 2.7572 11.6346C2.62798 12.1155 2.69507 12.628 2.94371 13.0594C5.99996 19.5 7.85621 21.75 12 21.75C12.9849 21.75 13.9601 21.556 14.8701 21.1791C15.78 20.8022 16.6068 20.2497 17.3033 19.5533C17.9997 18.8569 18.5521 18.0301 18.9291 17.1201C19.306 16.2102 19.5 15.2349 19.5 14.25V10.5C19.5 10.0027 19.3024 9.52581 18.9508 9.17417C18.5992 8.82254 18.1222 8.625 17.625 8.625C17.1277 8.625 16.6508 8.82254 16.2991 9.17417C15.9475 9.52581 15.75 10.0027 15.75 10.5V10.5Z" stroke="#191C1F" stroke-width="1.5" stroke-linecap="round" stroke-linejoin="round"/>
</svg>
