<svg width="24" height="24" viewBox="0 0 24 24" fill="none" xmlns="http://www.w3.org/2000/svg">
<path d="M7.5 9.75H16.5C17.2956 9.75 18.0587 10.0661 18.6213 10.6287C19.1839 11.1913 19.5 11.9544 19.5 12.75V20.25C19.5 20.4489 19.421 20.6397 19.2803 20.7803C19.1397 20.921 18.9489 21 18.75 21H5.25C5.05109 21 4.86032 20.921 4.71967 20.7803C4.57902 20.6397 4.5 20.4489 4.5 20.25V12.75C4.5 11.9544 4.81607 11.1913 5.37868 10.6287C5.94129 10.0661 6.70435 9.75 7.5 9.75V9.75Z" stroke="#191C1F" stroke-width="1.5" stroke-linecap="round" stroke-linejoin="round"/>
<path d="M7.50002 9.75002V8.25002C7.49878 7.9542 7.55613 7.66106 7.66876 7.38752C7.7814 7.11397 7.94708 6.86544 8.15626 6.65626C8.36544 6.44708 8.61397 6.2814 8.88752 6.16876C9.16106 6.05613 9.4542 5.99878 9.75002 6.00002H14.25C14.5458 5.99878 14.839 6.05613 15.1125 6.16876C15.3861 6.2814 15.6346 6.44708 15.8438 6.65626C16.053 6.86544 16.2186 7.11397 16.3313 7.38752C16.4439 7.66106 16.5013 7.9542 16.5 8.25002V9.75002" stroke="#191C1F" stroke-width="1.5" stroke-linecap="round" stroke-linejoin="round"/>
<path d="M17.25 3.75C17.25 3.35218 17.092 2.97064 16.8107 2.68934C16.5294 2.40804 16.1478 2.25 15.75 2.25H9.75" stroke="#191C1F" stroke-width="1.5" stroke-linecap="round" stroke-linejoin="round"/>
<path d="M12 2.25V6" stroke="#191C1F" stroke-width="1.5" stroke-linecap="round" stroke-linejoin="round"/>
</svg>
