<svg width="24" height="24" viewBox="0 0 24 24" fill="none" xmlns="http://www.w3.org/2000/svg">
<path d="M4.85626 11.4282C4.74546 11.2361 4.59791 11.0678 4.42204 10.9328C4.24618 10.7977 4.04544 10.6986 3.83128 10.6412C3.61713 10.5837 3.39375 10.569 3.17391 10.5979C2.95407 10.6268 2.74207 10.6987 2.55001 10.8095C2.35795 10.9203 2.1896 11.0678 2.05456 11.2437C1.91953 11.4195 1.82045 11.6203 1.76299 11.8344C1.70554 12.0486 1.69083 12.272 1.7197 12.4918C1.74857 12.7116 1.82046 12.9236 1.93126 13.1157L5.40001 19.1251C6.30429 20.6571 7.77681 21.7702 9.49738 22.2223C11.218 22.6745 13.0475 22.4291 14.5881 21.5396C16.1287 20.65 17.2559 19.1883 17.7245 17.4721C18.1932 15.7559 17.9653 13.9242 17.0906 12.3751L15.4969 9.60945C15.2594 9.25125 14.8941 8.99717 14.4757 8.89905C14.0572 8.80094 13.6171 8.86619 13.2452 9.08148C12.8732 9.29678 12.5974 9.64589 12.474 10.0576C12.3506 10.4693 12.389 10.9126 12.5813 11.297" stroke="#191C1F" stroke-width="1.5" stroke-linecap="round" stroke-linejoin="round"/>
<path d="M10.0313 13.6406L6.46881 7.47188C6.35801 7.27983 6.21046 7.11147 6.03459 6.97644C5.85873 6.8414 5.65799 6.74233 5.44383 6.68487C5.22968 6.62741 5.0063 6.6127 4.78646 6.64157C4.56662 6.67044 4.35462 6.74233 4.16256 6.85313C3.9705 6.96394 3.80215 7.11148 3.66711 7.28735C3.53207 7.46322 3.433 7.66396 3.37554 7.87811C3.31809 8.09227 3.30337 8.31564 3.33225 8.53548C3.36112 8.75532 3.43301 8.96733 3.54381 9.15938L7.10631 15.3281" stroke="#191C1F" stroke-width="1.5" stroke-linecap="round" stroke-linejoin="round"/>
<path d="M14.0814 13.9031L10.1439 7.07809C9.92009 6.69021 9.55139 6.40711 9.11888 6.29107C8.68638 6.17504 8.22549 6.23556 7.83761 6.45934C7.44973 6.68312 7.16663 7.05181 7.0506 7.48432C6.93456 7.91682 6.99509 8.37771 7.21886 8.76559" stroke="#191C1F" stroke-width="1.5" stroke-linecap="round" stroke-linejoin="round"/>
<path d="M9.28136 6.34679L8.31574 4.66867C8.09196 4.28079 7.72326 3.99769 7.29076 3.88165C6.85825 3.76561 6.39737 3.82614 6.00949 4.04992C5.62161 4.27369 5.33851 4.64239 5.22247 5.07489C5.10643 5.5074 5.16696 5.96829 5.39074 6.35617L5.61574 6.74054" stroke="#191C1F" stroke-width="1.5" stroke-linecap="round" stroke-linejoin="round"/>
<path d="M17.625 17.9531C18.7692 16.917 19.5243 15.5205 19.7648 13.9958C20.0053 12.471 19.7166 10.9099 18.9468 9.57188L17.3531 6.81563C17.2423 6.62358 17.0947 6.45522 16.9189 6.32019C16.743 6.18515 16.5423 6.08608 16.3281 6.02862C16.114 5.97116 15.8906 5.95645 15.6707 5.98532C15.4509 6.01419 15.2389 6.08608 15.0468 6.19688C14.8548 6.30769 14.6864 6.45523 14.5514 6.6311C14.4164 6.80697 14.3173 7.00771 14.2598 7.22186C14.2024 7.43602 14.1877 7.65939 14.2165 7.87923C14.2454 8.09907 14.3173 8.31108 14.4281 8.50313" stroke="#191C1F" stroke-width="1.5" stroke-linecap="round" stroke-linejoin="round"/>
<path d="M14.6437 8.87814L11.9905 4.28439C11.7668 3.89651 11.3981 3.61341 10.9656 3.49737C10.5331 3.38134 10.0722 3.44186 9.68429 3.66564C9.29641 3.88942 9.01331 4.25811 8.89728 4.69062C8.78124 5.12312 8.84176 5.58401 9.06554 5.97189" stroke="#191C1F" stroke-width="1.5" stroke-linecap="round" stroke-linejoin="round"/>
<path d="M16.5751 1.05933L16.1907 2.50308" stroke="#191C1F" stroke-width="1.5" stroke-linecap="round" stroke-linejoin="round"/>
<path d="M19.4157 2.38135L18.5532 3.60947" stroke="#191C1F" stroke-width="1.5" stroke-linecap="round" stroke-linejoin="round"/>
<path d="M21.6188 4.58447L20.3906 5.44697" stroke="#191C1F" stroke-width="1.5" stroke-linecap="round" stroke-linejoin="round"/>
</svg>
