<svg width="24" height="24" viewBox="0 0 24 24" fill="none" xmlns="http://www.w3.org/2000/svg">
<path d="M8.25 6.375V3.375C8.25 2.87772 8.44754 2.40081 8.79917 2.04917C9.15081 1.69754 9.62772 1.5 10.125 1.5C10.6223 1.5 11.0992 1.69754 11.4508 2.04917C11.8025 2.40081 12 2.87772 12 3.375V9.75" stroke="#191C1F" stroke-width="1.5" stroke-linecap="round" stroke-linejoin="round"/>
<path d="M7.74382 15.3375C7.66542 15.4608 7.62378 15.6039 7.62378 15.75C7.62378 15.8961 7.66542 16.0392 7.74382 16.1625C8.2782 16.9875 9.69382 18.75 12.0001 18.75C14.3063 18.75 15.7219 16.9875 16.2563 16.1625C16.3347 16.0392 16.3764 15.8961 16.3764 15.75C16.3764 15.6039 16.3347 15.4608 16.2563 15.3375C15.7219 14.5125 14.3063 12.75 12.0001 12.75C9.69382 12.75 8.2782 14.5125 7.74382 15.3375Z" stroke="#191C1F" stroke-width="1.5" stroke-linecap="round" stroke-linejoin="round"/>
<path d="M12 4.875C12 4.37772 12.1975 3.90081 12.5492 3.54917C12.9008 3.19754 13.3777 3 13.875 3C14.3723 3 14.8492 3.19754 15.2008 3.54917C15.5525 3.90081 15.75 4.37772 15.75 4.875V10.5" stroke="#191C1F" stroke-width="1.5" stroke-linecap="round" stroke-linejoin="round"/>
<path d="M15.75 10.875V10.5C15.75 10.0027 15.9475 9.52581 16.2992 9.17417C16.6508 8.82254 17.1277 8.625 17.625 8.625C18.1223 8.625 18.5992 8.82254 18.9508 9.17417C19.3025 9.52581 19.5 10.0027 19.5 10.5V14.25C19.5 16.2391 18.7098 18.1468 17.3033 19.5533C15.8968 20.9598 13.9891 21.75 12 21.75C10.0109 21.75 8.10322 20.9598 6.6967 19.5533C5.29018 18.1468 4.5 16.2391 4.5 14.25V6.375C4.5 5.87772 4.69754 5.40081 5.04917 5.04917C5.40081 4.69754 5.87772 4.5 6.375 4.5C6.87228 4.5 7.34919 4.69754 7.70083 5.04917C8.05246 5.40081 8.25 5.87772 8.25 6.375V10.5" stroke="#191C1F" stroke-width="1.5" stroke-linecap="round" stroke-linejoin="round"/>
<path d="M12 16.875C12.6213 16.875 13.125 16.3713 13.125 15.75C13.125 15.1287 12.6213 14.625 12 14.625C11.3787 14.625 10.875 15.1287 10.875 15.75C10.875 16.3713 11.3787 16.875 12 16.875Z" fill="#191C1F"/>
</svg>
