<svg width="24" height="24" viewBox="0 0 24 24" fill="none" xmlns="http://www.w3.org/2000/svg">
<path d="M15.75 7.5H22.5" stroke="#191C1F" stroke-width="1.5" stroke-linecap="round" stroke-linejoin="round"/>
<path d="M15.75 16.5H22.5" stroke="#191C1F" stroke-width="1.5" stroke-linecap="round" stroke-linejoin="round"/>
<path d="M15.75 10.5H22.5" stroke="#191C1F" stroke-width="1.5" stroke-linecap="round" stroke-linejoin="round"/>
<path d="M15.75 13.5H22.5" stroke="#191C1F" stroke-width="1.5" stroke-linecap="round" stroke-linejoin="round"/>
<path d="M8.25004 18.75C7.35966 18.75 6.47807 18.5739 5.65605 18.2317C4.83404 17.8896 4.08783 17.3882 3.46042 16.7564C2.83301 16.1247 2.33679 15.375 2.00034 14.5506C1.66389 13.7263 1.49386 12.8435 1.50004 11.9531C1.52817 8.23125 4.61254 5.25 8.33442 5.25H12C12.199 5.25 12.3897 5.32902 12.5304 5.46967C12.671 5.61032 12.75 5.80109 12.75 6V18C12.75 18.1989 12.671 18.3897 12.5304 18.5303C12.3897 18.671 12.199 18.75 12 18.75H8.25004Z" stroke="#191C1F" stroke-width="1.5" stroke-linecap="round" stroke-linejoin="round"/>
</svg>
