<svg width="24" height="24" viewBox="0 0 24 24" fill="none" xmlns="http://www.w3.org/2000/svg">
<path d="M11.8406 6.39374C11.342 5.41833 10.5293 4.63931 9.53369 4.18231C8.53808 3.72531 7.41755 3.61697 6.35283 3.87475C5.2881 4.13254 4.34124 4.74143 3.66493 5.60323C2.98862 6.46503 2.62229 7.52951 2.62502 8.62499C2.62502 15 12 20.25 12 20.25C12 20.25 21.375 15 21.375 8.62499C21.3761 7.65998 21.0908 6.71634 20.5553 5.9136C20.0197 5.11086 19.2579 4.48513 18.3664 4.11569C17.4749 3.74624 16.4938 3.64969 15.5474 3.83826C14.601 4.02684 13.7318 4.49206 13.05 5.17499L10.05 8.17499L13.05 11.175L11.55 12.675" stroke="#191C1F" stroke-width="1.5" stroke-linecap="round" stroke-linejoin="round"/>
</svg>
