<svg width="24" height="24" viewBox="0 0 24 24" fill="none" xmlns="http://www.w3.org/2000/svg">
<path fill-rule="evenodd" clip-rule="evenodd" d="M11.2628 1.80475C11.4871 1.67603 11.7413 1.60828 12 1.60828C12.2587 1.60828 12.5129 1.67603 12.7372 1.80475L20.611 6.25719C20.8418 6.38825 21.0339 6.57785 21.1681 6.80686C21.3022 7.03586 21.3736 7.29619 21.375 7.56159L21.375 7.56562L21.375 16.4344H20.6251L21.375 16.4384C21.3736 16.7038 21.3022 16.9641 21.1681 17.1931C21.0339 17.4221 20.8418 17.6117 20.611 17.7428L12.7373 22.1952C12.5129 22.324 12.2587 22.3917 12 22.3917C11.7413 22.3917 11.4871 22.324 11.2627 22.1952L3.38902 17.7428C3.15823 17.6117 2.96608 17.4221 2.83195 17.1931C2.69781 16.9641 2.62644 16.7038 2.62501 16.4384L2.625 16.4344V7.56159C2.62643 7.2962 2.69781 7.03587 2.83195 6.80686C2.96608 6.57785 3.15823 6.38825 3.38902 6.25719L3.3902 6.25652L11.2628 1.80475ZM19.875 16.4308V7.56924C19.8749 7.56773 19.8745 7.56627 19.8737 7.56496C19.8729 7.56357 19.8717 7.56241 19.8703 7.56159C19.8703 7.56158 19.8704 7.56161 19.8703 7.56159L12 3.1111L4.12973 7.56155C4.12969 7.56157 4.12978 7.56152 4.12973 7.56155C4.12836 7.56236 4.12708 7.56358 4.12627 7.56496C4.12551 7.56627 4.12507 7.56774 4.125 7.56925V16.4307C4.12507 16.4323 4.12551 16.4337 4.12627 16.435C4.12709 16.4364 4.12824 16.4376 4.12963 16.4384C4.12959 16.4384 4.12966 16.4384 4.12963 16.4384L12 20.8889L19.8703 16.4384C19.8702 16.4385 19.8703 16.4384 19.8703 16.4384C19.8717 16.4376 19.8729 16.4364 19.8737 16.435C19.8745 16.4337 19.8749 16.4323 19.875 16.4308Z" fill="#191C1F"/>
</svg>
