<svg width="24" height="24" viewBox="0 0 24 24" fill="none" xmlns="http://www.w3.org/2000/svg">
<path fill-rule="evenodd" clip-rule="evenodd" d="M12 3.75C7.44365 3.75 3.75 7.44365 3.75 12C3.75 16.5563 7.44365 20.25 12 20.25C16.5563 20.25 20.25 16.5563 20.25 12C20.25 7.44365 16.5563 3.75 12 3.75ZM2.25 12C2.25 6.61522 6.61522 2.25 12 2.25C17.3848 2.25 21.75 6.61522 21.75 12C21.75 17.3848 17.3848 21.75 12 21.75C6.61522 21.75 2.25 17.3848 2.25 12Z" fill="#191C1F"/>
<path fill-rule="evenodd" clip-rule="evenodd" d="M14.6443 6.11201C14.8654 6.24867 15 6.49007 15 6.75V13.5C15 13.9142 14.6642 14.25 14.25 14.25C13.8358 14.25 13.5 13.9142 13.5 13.5V7.96353L10.5 9.46353V13.5C10.5 13.9142 10.1642 14.25 9.75 14.25C9.33579 14.25 9 13.9142 9 13.5V9C9 8.71592 9.1605 8.45622 9.41459 8.32918L13.9146 6.07918C14.1471 5.96293 14.4232 5.97536 14.6443 6.11201Z" fill="#191C1F"/>
<path fill-rule="evenodd" clip-rule="evenodd" d="M7.93934 13.1893C8.22065 12.908 8.60218 12.75 9 12.75H15C15.3978 12.75 15.7794 12.908 16.0607 13.1893C16.342 13.4706 16.5 13.8522 16.5 14.25V20.1844C16.5 20.5986 16.1642 20.9344 15.75 20.9344C15.3358 20.9344 15 20.5986 15 20.1844V14.25L9 14.25L9 20.1844C9 20.5986 8.66421 20.9344 8.25 20.9344C7.83579 20.9344 7.5 20.5986 7.5 20.1844V14.25C7.5 13.8522 7.65804 13.4706 7.93934 13.1893Z" fill="#191C1F"/>
</svg>
