<svg width="24" height="24" viewBox="0 0 24 24" fill="none" xmlns="http://www.w3.org/2000/svg">
<path d="M16.5 11.25C16.5 12.4435 16.0259 13.5881 15.182 14.432C14.3381 15.2759 13.1935 15.75 12 15.75" stroke="#191C1F" stroke-width="1.5" stroke-linecap="round" stroke-linejoin="round"/>
<path d="M6 18.7125C7.69429 20.2317 9.90302 21.0495 12.1781 21C17.0062 20.9062 20.9344 16.9594 21 12.1312C21.0174 10.9384 20.7975 9.7539 20.353 8.64678C19.9085 7.53965 19.2483 6.53195 18.4108 5.68227C17.5734 4.83259 16.5753 4.1579 15.4747 3.69742C14.3742 3.23694 13.193 2.99987 12 3H11.25V6L1.5 12L2.79375 13.7906C3.03937 14.1324 3.3763 14.3981 3.76595 14.5573C4.15559 14.7165 4.58219 14.7627 4.99687 14.6906C6.6375 14.4187 9.50625 14.25 12 15.75L8.7 20.3719" stroke="#191C1F" stroke-width="1.5" stroke-linecap="round" stroke-linejoin="round"/>
<path d="M11.625 10.5C12.2463 10.5 12.75 9.99632 12.75 9.375C12.75 8.75368 12.2463 8.25 11.625 8.25C11.0037 8.25 10.5 8.75368 10.5 9.375C10.5 9.99632 11.0037 10.5 11.625 10.5Z" fill="#191C1F"/>
</svg>
