<svg width="24" height="24" viewBox="0 0 24 24" fill="none" xmlns="http://www.w3.org/2000/svg">
<path d="M14.25 10.5H18" stroke="#191C1F" stroke-width="1.5" stroke-linecap="round" stroke-linejoin="round"/>
<path d="M14.25 13.5H18" stroke="#191C1F" stroke-width="1.5" stroke-linecap="round" stroke-linejoin="round"/>
<path d="M8.63428 13.5C9.87692 13.5 10.8843 12.4926 10.8843 11.25C10.8843 10.0074 9.87692 9 8.63428 9C7.39164 9 6.38428 10.0074 6.38428 11.25C6.38428 12.4926 7.39164 13.5 8.63428 13.5Z" stroke="#191C1F" stroke-width="1.5" stroke-linecap="round" stroke-linejoin="round"/>
<path d="M5.72803 15.75C5.89325 15.1047 6.26855 14.5327 6.79476 14.1243C7.32097 13.7158 7.96815 13.4941 8.63428 13.4941C9.30041 13.4941 9.94759 13.7158 10.4738 14.1243C11 14.5327 11.3753 15.1047 11.5405 15.75" stroke="#191C1F" stroke-width="1.5" stroke-linecap="round" stroke-linejoin="round"/>
<path d="M20.25 4.5H3.75C3.33579 4.5 3 4.83579 3 5.25V18.75C3 19.1642 3.33579 19.5 3.75 19.5H20.25C20.6642 19.5 21 19.1642 21 18.75V5.25C21 4.83579 20.6642 4.5 20.25 4.5Z" stroke="#191C1F" stroke-width="1.5" stroke-linecap="round" stroke-linejoin="round"/>
</svg>
