<svg width="24" height="24" viewBox="0 0 24 24" fill="none" xmlns="http://www.w3.org/2000/svg">
<path d="M9.99372 14.2594L9.17809 15.1782C8.54976 15.8054 7.74959 16.2323 6.87871 16.4049C6.00783 16.5776 5.10531 16.4882 4.28522 16.1481C3.46512 15.808 2.76424 15.2324 2.27115 14.4941C1.77807 13.7558 1.51489 12.8879 1.51489 12C1.51489 11.1122 1.77807 10.2443 2.27115 9.50599C2.76424 8.76768 3.46512 8.1921 4.28522 7.85198C5.10531 7.51187 6.00783 7.42248 6.87871 7.59511C7.74959 7.76775 8.54976 8.19466 9.17809 8.8219L14.8218 15.1782C15.4502 15.8054 16.2503 16.2323 17.1212 16.4049C17.9921 16.5776 18.8946 16.4882 19.7147 16.1481C20.5348 15.808 21.2357 15.2324 21.7288 14.4941C22.2219 13.7558 22.485 12.8879 22.485 12C22.485 11.1122 22.2219 10.2443 21.7288 9.50599C21.2357 8.76768 20.5348 8.1921 19.7147 7.85198C18.8946 7.51187 17.9921 7.42248 17.1212 7.59511C16.2503 7.76775 15.4502 8.19466 14.8218 8.8219L14.0062 9.74065" stroke="#191C1F" stroke-width="1.5" stroke-linecap="round" stroke-linejoin="round"/>
</svg>
