<svg width="24" height="24" viewBox="0 0 24 24" fill="none" xmlns="http://www.w3.org/2000/svg">
<path fill-rule="evenodd" clip-rule="evenodd" d="M9 3C5.68629 3 3 5.68629 3 9C3 12.3137 5.68629 15 9 15C12.3137 15 15 12.3137 15 9C15 5.68629 12.3137 3 9 3ZM1.5 9C1.5 4.85786 4.85786 1.5 9 1.5C13.1421 1.5 16.5 4.85786 16.5 9C16.5 13.1421 13.1421 16.5 9 16.5C4.85786 16.5 1.5 13.1421 1.5 9Z" fill="#191C1F"/>
<path fill-rule="evenodd" clip-rule="evenodd" d="M15 9C11.6863 9 9 11.6863 9 15C9 18.3137 11.6863 21 15 21C18.3137 21 21 18.3137 21 15C21 11.6863 18.3137 9 15 9ZM7.5 15C7.5 10.8579 10.8579 7.5 15 7.5C19.1421 7.5 22.5 10.8579 22.5 15C22.5 19.1421 19.1421 22.5 15 22.5C10.8579 22.5 7.5 19.1421 7.5 15Z" fill="#191C1F"/>
<path fill-rule="evenodd" clip-rule="evenodd" d="M10.954 8.70404C11.2469 8.41115 11.7218 8.41115 12.0147 8.70404L15.296 11.9853C15.5888 12.2782 15.5888 12.7531 15.296 13.046C15.0031 13.3388 14.5282 13.3388 14.2353 13.046L10.954 9.76471C10.6612 9.47181 10.6612 8.99694 10.954 8.70404Z" fill="#191C1F"/>
<path fill-rule="evenodd" clip-rule="evenodd" d="M8.70404 10.954C8.99694 10.6612 9.47181 10.6612 9.76471 10.954L13.046 14.2353C13.3388 14.5282 13.3388 15.0031 13.046 15.296C12.7531 15.5888 12.2782 15.5888 11.9853 15.296L8.70404 12.0147C8.41115 11.7218 8.41115 11.2469 8.70404 10.954Z" fill="#191C1F"/>
</svg>
