<svg width="24" height="24" viewBox="0 0 24 24" fill="none" xmlns="http://www.w3.org/2000/svg">
<path d="M12 21C16.9706 21 21 16.9706 21 12C21 7.02944 16.9706 3 12 3C7.02944 3 3 7.02944 3 12C3 16.9706 7.02944 21 12 21Z" stroke="#191C1F" stroke-width="1.5" stroke-linecap="round" stroke-linejoin="round"/>
<path d="M13.2563 12.4313C13.7685 12.1521 14.1731 11.7102 14.4063 11.1754C14.6394 10.6407 14.6878 10.0435 14.5437 9.47817C14.3997 8.91287 14.0714 8.41165 13.6108 8.05368C13.1501 7.6957 12.5834 7.50137 12 7.50137C11.4166 7.50137 10.8499 7.6957 10.3892 8.05368C9.92861 8.41165 9.60035 8.91287 9.45629 9.47817C9.31224 10.0435 9.3606 10.6407 9.59374 11.1754C9.82688 11.7102 10.2315 12.1521 10.7438 12.4313L9.45 15.45C9.40029 15.5639 9.37966 15.6884 9.38997 15.8122C9.40028 15.9361 9.4412 16.0554 9.50907 16.1595C9.57693 16.2637 9.6696 16.3493 9.77874 16.4087C9.88789 16.4681 10.0101 16.4995 10.1344 16.5H13.8656C13.9899 16.4995 14.1121 16.4681 14.2213 16.4087C14.3304 16.3493 14.4231 16.2637 14.4909 16.1595C14.5588 16.0554 14.5997 15.9361 14.61 15.8122C14.6203 15.6884 14.5997 15.5639 14.55 15.45L13.2563 12.4313Z" stroke="#191C1F" stroke-width="1.5" stroke-linecap="round" stroke-linejoin="round"/>
</svg>
