<svg width="24" height="24" viewBox="0 0 24 24" fill="none" xmlns="http://www.w3.org/2000/svg">
<path d="M6.49688 3.75H17.5031C17.6499 3.74995 17.7935 3.79243 17.9166 3.87229C18.0398 3.95215 18.1371 4.06598 18.1969 4.2L22.05 13.2C22.0997 13.3139 22.1203 13.4384 22.11 13.5622C22.0997 13.6861 22.0588 13.8054 21.9909 13.9095C21.9231 14.0137 21.8304 14.0993 21.7213 14.1587C21.6121 14.2181 21.4899 14.2495 21.3656 14.25H2.63438C2.5101 14.2495 2.3879 14.2181 2.27875 14.1587C2.1696 14.0993 2.07693 14.0137 2.00907 13.9095C1.94121 13.8054 1.90029 13.6861 1.88998 13.5622C1.87967 13.4384 1.90029 13.3139 1.95001 13.2L5.80313 4.2C5.86292 4.06598 5.96026 3.95215 6.08338 3.87229C6.2065 3.79243 6.35013 3.74995 6.49688 3.75V3.75Z" stroke="#191C1F" stroke-width="1.5" stroke-linecap="round" stroke-linejoin="round"/>
<path d="M12 14.25V20.25" stroke="#191C1F" stroke-width="1.5" stroke-linecap="round" stroke-linejoin="round"/>
<path d="M9 20.25H15" stroke="#191C1F" stroke-width="1.5" stroke-linecap="round" stroke-linejoin="round"/>
<path d="M18.75 14.25V18" stroke="#191C1F" stroke-width="1.5" stroke-linecap="round" stroke-linejoin="round"/>
</svg>
