<svg width="24" height="24" viewBox="0 0 24 24" fill="none" xmlns="http://www.w3.org/2000/svg">
<path d="M8.25 21.75H15.75" stroke="#191C1F" stroke-width="1.5" stroke-linecap="round" stroke-linejoin="round"/>
<path d="M7.3782 15.6563C6.48532 14.962 5.76216 14.0736 5.26351 13.0585C4.76485 12.0433 4.50378 10.9279 4.50008 9.79691C4.48133 5.72816 7.7532 2.34378 11.822 2.25003C13.3966 2.2127 14.9431 2.6721 16.242 3.56306C17.541 4.45403 18.5264 5.73133 19.0586 7.21383C19.5908 8.69632 19.6428 10.3087 19.2071 11.8224C18.7714 13.3361 17.8702 14.6742 16.6313 15.6469C16.3577 15.8584 16.136 16.1298 15.9832 16.4401C15.8305 16.7505 15.7507 17.0916 15.7501 17.4375V18C15.7501 18.1989 15.6711 18.3897 15.5304 18.5304C15.3898 18.671 15.199 18.75 15.0001 18.75H9.00008C8.80117 18.75 8.6104 18.671 8.46975 18.5304C8.3291 18.3897 8.25008 18.1989 8.25008 18V17.4375C8.24773 17.0942 8.16814 16.7559 8.01721 16.4475C7.86628 16.1392 7.64788 15.8687 7.3782 15.6563V15.6563Z" stroke="#191C1F" stroke-width="1.5" stroke-linecap="round" stroke-linejoin="round"/>
<path d="M12.7593 5.32495C13.6759 5.48034 14.5218 5.91642 15.18 6.57301C15.8383 7.2296 16.2765 8.07431 16.4343 8.99058" stroke="#191C1F" stroke-width="1.5" stroke-linecap="round" stroke-linejoin="round"/>
</svg>
