<svg width="24" height="24" viewBox="0 0 24 24" fill="none" xmlns="http://www.w3.org/2000/svg">
<path fill-rule="evenodd" clip-rule="evenodd" d="M3.75 17.25C2.92157 17.25 2.25 17.9216 2.25 18.75C2.25 19.5784 2.92157 20.25 3.75 20.25C4.57843 20.25 5.25 19.5784 5.25 18.75C5.25 17.9216 4.57843 17.25 3.75 17.25ZM0.75 18.75C0.75 17.0931 2.09315 15.75 3.75 15.75C5.40685 15.75 6.75 17.0931 6.75 18.75C6.75 20.4069 5.40685 21.75 3.75 21.75C2.09315 21.75 0.75 20.4069 0.75 18.75Z" fill="#191C1F"/>
<path fill-rule="evenodd" clip-rule="evenodd" d="M9 7.5C8.17157 7.5 7.5 8.17157 7.5 9C7.5 9.82843 8.17157 10.5 9 10.5C9.82843 10.5 10.5 9.82843 10.5 9C10.5 8.17157 9.82843 7.5 9 7.5ZM6 9C6 7.34315 7.34315 6 9 6C10.6569 6 12 7.34315 12 9C12 10.6569 10.6569 12 9 12C7.34315 12 6 10.6569 6 9Z" fill="#191C1F"/>
<path fill-rule="evenodd" clip-rule="evenodd" d="M15 13.5C14.1716 13.5 13.5 14.1716 13.5 15C13.5 15.8284 14.1716 16.5 15 16.5C15.8284 16.5 16.5 15.8284 16.5 15C16.5 14.1716 15.8284 13.5 15 13.5ZM12 15C12 13.3431 13.3431 12 15 12C16.6569 12 18 13.3431 18 15C18 16.6569 16.6569 18 15 18C13.3431 18 12 16.6569 12 15Z" fill="#191C1F"/>
<path fill-rule="evenodd" clip-rule="evenodd" d="M20.25 3.75C19.4216 3.75 18.75 4.42157 18.75 5.25C18.75 6.07843 19.4216 6.75 20.25 6.75C21.0784 6.75 21.75 6.07843 21.75 5.25C21.75 4.42157 21.0784 3.75 20.25 3.75ZM17.25 5.25C17.25 3.59315 18.5931 2.25 20.25 2.25C21.9069 2.25 23.25 3.59315 23.25 5.25C23.25 6.90685 21.9069 8.25 20.25 8.25C18.5931 8.25 17.25 6.90685 17.25 5.25Z" fill="#191C1F"/>
<path fill-rule="evenodd" clip-rule="evenodd" d="M8.28619 10.3175C8.65108 10.5135 8.78797 10.9682 8.59195 11.3331L5.47945 17.1269C5.28342 17.4918 4.8287 17.6286 4.46381 17.4326C4.09892 17.2366 3.96203 16.7819 4.15805 16.417L7.27055 10.6232C7.46658 10.2583 7.92129 10.1215 8.28619 10.3175Z" fill="#191C1F"/>
<path fill-rule="evenodd" clip-rule="evenodd" d="M10.0634 10.0634C10.3563 9.77053 10.8312 9.77053 11.1241 10.0634L13.9366 12.8759C14.2295 13.1688 14.2295 13.6437 13.9366 13.9366C13.6437 14.2295 13.1688 14.2295 12.8759 13.9366L10.0634 11.1241C9.77053 10.8312 9.77053 10.3563 10.0634 10.0634Z" fill="#191C1F"/>
<path fill-rule="evenodd" clip-rule="evenodd" d="M19.5362 6.56748C19.9011 6.7635 20.038 7.21822 19.8419 7.58311L16.7294 13.3769C16.5334 13.7418 16.0787 13.8786 15.7138 13.6826C15.3489 13.4866 15.212 13.0319 15.4081 12.667L18.5206 6.87324C18.7166 6.50834 19.1713 6.37145 19.5362 6.56748Z" fill="#191C1F"/>
</svg>
