<svg width="24" height="24" viewBox="0 0 24 24" fill="none" xmlns="http://www.w3.org/2000/svg">
<path d="M11.4657 6.69369L13.322 4.83744C14.1079 4.12112 15.1396 3.73516 16.2027 3.75978C17.2658 3.78439 18.2785 4.21767 19.0304 4.9696C19.7824 5.72152 20.2157 6.73426 20.2403 7.79735C20.2649 8.86045 19.8789 9.89215 19.1626 10.6781L16.5095 13.3218C16.1271 13.7056 15.6727 14.0102 15.1724 14.2179C14.6721 14.4257 14.1356 14.5327 13.5938 14.5327C13.0521 14.5327 12.5156 14.4257 12.0153 14.2179C11.515 14.0102 11.0606 13.7056 10.6782 13.3218" stroke="#191C1F" stroke-width="1.5" stroke-linecap="round" stroke-linejoin="round"/>
<path d="M12.5344 17.3063L10.6782 19.1625C9.89227 19.8789 8.86057 20.2648 7.79748 20.2402C6.73438 20.2156 5.72164 19.7823 4.96972 19.0304C4.2178 18.2785 3.78451 17.2657 3.7599 16.2026C3.73529 15.1395 4.12124 14.1078 4.83756 13.3219L7.49069 10.6782C7.87306 10.2944 8.32744 9.98984 8.82778 9.78204C9.32811 9.57425 9.86455 9.46729 10.4063 9.46729C10.9481 9.46729 11.4845 9.57425 11.9849 9.78204C12.4852 9.98984 12.9396 10.2944 13.3219 10.6782" stroke="#191C1F" stroke-width="1.5" stroke-linecap="round" stroke-linejoin="round"/>
</svg>
