<svg width="24" height="24" viewBox="0 0 24 24" fill="none" xmlns="http://www.w3.org/2000/svg">
<path d="M9 6.75V4.5" stroke="#191C1F" stroke-width="1.5" stroke-linecap="round" stroke-linejoin="round"/>
<path d="M15 19.5V17.25" stroke="#191C1F" stroke-width="1.5" stroke-linecap="round" stroke-linejoin="round"/>
<path d="M6.75 9H4.5" stroke="#191C1F" stroke-width="1.5" stroke-linecap="round" stroke-linejoin="round"/>
<path d="M19.5 15H17.25" stroke="#191C1F" stroke-width="1.5" stroke-linecap="round" stroke-linejoin="round"/>
<path d="M6.65614 12.0375L5.59676 13.0969C4.89311 13.8005 4.4978 14.7549 4.4978 15.75C4.4978 16.2427 4.59485 16.7306 4.78341 17.1858C4.97197 17.6411 5.24835 18.0547 5.59676 18.4031C5.94518 18.7515 6.3588 19.0279 6.81403 19.2165C7.26925 19.405 7.75716 19.5021 8.24989 19.5021C9.245 19.5021 10.1994 19.1068 10.903 18.4031L11.9624 17.3437" stroke="#191C1F" stroke-width="1.5" stroke-linecap="round" stroke-linejoin="round"/>
<path d="M17.3438 11.9625L18.4032 10.9031C19.1069 10.1995 19.5022 9.24513 19.5022 8.25001C19.5022 7.2549 19.1069 6.30054 18.4032 5.59689C17.6996 4.89323 16.7452 4.49792 15.7501 4.49792C14.755 4.49792 13.8006 4.89323 13.097 5.59689L12.0376 6.65626" stroke="#191C1F" stroke-width="1.5" stroke-linecap="round" stroke-linejoin="round"/>
</svg>
