<svg width="24" height="24" viewBox="0 0 24 24" fill="none" xmlns="http://www.w3.org/2000/svg">
<path d="M13.5937 16.7719L10.9406 19.425C10.5226 19.843 10.0264 20.1745 9.48029 20.4007C8.93419 20.6269 8.34887 20.7434 7.75777 20.7434C6.56398 20.7434 5.41909 20.2691 4.57496 19.425C3.73082 18.5809 3.25659 17.436 3.25659 16.2422C3.25659 15.0484 3.73082 13.9035 4.57496 13.0594L7.22808 10.4062" stroke="#191C1F" stroke-width="1.5" stroke-linecap="round" stroke-linejoin="round"/>
<path d="M16.7719 13.5937L19.425 10.9406C20.2691 10.0964 20.7434 8.95155 20.7434 7.75777C20.7434 6.56398 20.2691 5.41909 19.425 4.57496C18.5809 3.73082 17.436 3.25659 16.2422 3.25659C15.0484 3.25659 13.9035 3.73082 13.0594 4.57496L10.4062 7.22808" stroke="#191C1F" stroke-width="1.5" stroke-linecap="round" stroke-linejoin="round"/>
<path d="M13.5937 16.7719L10.9406 19.425C10.5226 19.843 10.0264 20.1745 9.48029 20.4007C8.93419 20.6269 8.34887 20.7434 7.75777 20.7434C6.56398 20.7434 5.41909 20.2691 4.57496 19.425C3.73082 18.5809 3.25659 17.436 3.25659 16.2422C3.25659 15.0484 3.73082 13.9035 4.57496 13.0594L7.22808 10.4062" stroke="#191C1F" stroke-width="1.5" stroke-linecap="round" stroke-linejoin="round"/>
<path d="M16.7719 13.5937L19.425 10.9406C20.2691 10.0964 20.7434 8.95155 20.7434 7.75777C20.7434 6.56398 20.2691 5.41909 19.425 4.57496C18.5809 3.73082 17.436 3.25659 16.2422 3.25659C15.0484 3.25659 13.9035 3.73082 13.0594 4.57496L10.4062 7.22808" stroke="#191C1F" stroke-width="1.5" stroke-linecap="round" stroke-linejoin="round"/>
</svg>
