<svg width="24" height="24" viewBox="0 0 24 24" fill="none" xmlns="http://www.w3.org/2000/svg">
<path d="M3 20.25C3 20.25 6 15 6 9C6 7.4087 6.63214 5.88258 7.75736 4.75736C8.88258 3.63214 10.4087 3 12 3C13.5913 3 15.1174 3.63214 16.2426 4.75736C17.3679 5.88258 18 7.4087 18 9C18 15 21 20.25 21 20.25" stroke="#191C1F" stroke-width="1.5" stroke-linecap="round" stroke-linejoin="round"/>
<path d="M9.375 11.25C9.99632 11.25 10.5 10.7463 10.5 10.125C10.5 9.50368 9.99632 9 9.375 9C8.75368 9 8.25 9.50368 8.25 10.125C8.25 10.7463 8.75368 11.25 9.375 11.25Z" fill="#191C1F"/>
<path d="M14.625 11.25C15.2463 11.25 15.75 10.7463 15.75 10.125C15.75 9.50368 15.2463 9 14.625 9C14.0037 9 13.5 9.50368 13.5 10.125C13.5 10.7463 14.0037 11.25 14.625 11.25Z" fill="#191C1F"/>
<path d="M15 13.5L12 15L9 13.5" stroke="#191C1F" stroke-width="1.5" stroke-linecap="round" stroke-linejoin="round"/>
<path d="M8.09998 20.25C8.49645 19.567 9.06538 19 9.74981 18.6059C10.4342 18.2118 11.2102 18.0044 12 18.0044C12.7898 18.0044 13.5657 18.2118 14.2501 18.6059C14.9346 19 15.5035 19.567 15.9 20.25" stroke="#191C1F" stroke-width="1.5" stroke-linecap="round" stroke-linejoin="round"/>
</svg>
