<svg width="24" height="24" viewBox="0 0 24 24" fill="none" xmlns="http://www.w3.org/2000/svg">
<path fill-rule="evenodd" clip-rule="evenodd" d="M20.25 11.25C20.6642 11.25 21 11.5858 21 12V16.5C21 16.9142 20.6642 17.25 20.25 17.25C19.8358 17.25 19.5 16.9142 19.5 16.5V12C19.5 11.5858 19.8358 11.25 20.25 11.25Z" fill="#191C1F"/>
<path fill-rule="evenodd" clip-rule="evenodd" d="M17.25 14.25C17.25 13.8358 17.5858 13.5 18 13.5H22.5C22.9142 13.5 23.25 13.8358 23.25 14.25C23.25 14.6642 22.9142 15 22.5 15H18C17.5858 15 17.25 14.6642 17.25 14.25Z" fill="#191C1F"/>
<path fill-rule="evenodd" clip-rule="evenodd" d="M7.875 3C8.28921 3 8.625 3.33579 8.625 3.75V7.5C8.625 7.91421 8.28921 8.25 7.875 8.25C7.46079 8.25 7.125 7.91421 7.125 7.5V3.75C7.125 3.33579 7.46079 3 7.875 3Z" fill="#191C1F"/>
<path fill-rule="evenodd" clip-rule="evenodd" d="M5.25 5.625C5.25 5.21079 5.58579 4.875 6 4.875H9.75C10.1642 4.875 10.5 5.21079 10.5 5.625C10.5 6.03921 10.1642 6.375 9.75 6.375H6C5.58579 6.375 5.25 6.03921 5.25 5.625Z" fill="#191C1F"/>
<path fill-rule="evenodd" clip-rule="evenodd" d="M15.75 16.5C16.1642 16.5 16.5 16.8358 16.5 17.25V20.25C16.5 20.6642 16.1642 21 15.75 21C15.3358 21 15 20.6642 15 20.25V17.25C15 16.8358 15.3358 16.5 15.75 16.5Z" fill="#191C1F"/>
<path fill-rule="evenodd" clip-rule="evenodd" d="M13.5 18.75C13.5 18.3358 13.8358 18 14.25 18H17.25C17.6642 18 18 18.3358 18 18.75C18 19.1642 17.6642 19.5 17.25 19.5H14.25C13.8358 19.5 13.5 19.1642 13.5 18.75Z" fill="#191C1F"/>
<path fill-rule="evenodd" clip-rule="evenodd" d="M3.00609 19.06C2.42031 18.4743 2.42031 17.5245 3.00609 16.9387L16.9471 2.99768C17.5329 2.41189 18.4827 2.41189 19.0685 2.99768L21.0075 4.9367C21.5933 5.52248 21.5933 6.47223 21.0075 7.05802L7.06643 20.9991C6.48065 21.5849 5.5309 21.5849 4.94511 20.9991L3.00609 19.06ZM18.0078 4.05834L4.06675 17.9994L6.00577 19.9384L19.9468 5.99736L18.0078 4.05834Z" fill="#191C1F"/>
<path fill-rule="evenodd" clip-rule="evenodd" d="M12.9697 6.96967C13.2626 6.67678 13.7374 6.67678 14.0303 6.96967L17.0303 9.96967C17.3232 10.2626 17.3232 10.7374 17.0303 11.0303C16.7374 11.3232 16.2626 11.3232 15.9697 11.0303L12.9697 8.03033C12.6768 7.73744 12.6768 7.26256 12.9697 6.96967Z" fill="#191C1F"/>
</svg>
