<svg width="24" height="24" viewBox="0 0 24 24" fill="none" xmlns="http://www.w3.org/2000/svg">
<path d="M4.5 9H9.75" stroke="#191C1F" stroke-width="1.5" stroke-linecap="round" stroke-linejoin="round"/>
<path d="M14.25 9H19.5" stroke="#191C1F" stroke-width="1.5" stroke-linecap="round" stroke-linejoin="round"/>
<path d="M9.75 13.5C9.75 14.0967 9.98705 14.669 10.409 15.091C10.831 15.5129 11.4033 15.75 12 15.75C12.5967 15.75 13.169 15.5129 13.591 15.091C14.0129 14.669 14.25 14.0967 14.25 13.5V5.25C14.25 5.05109 14.329 4.86032 14.4697 4.71967C14.6103 4.57902 14.8011 4.5 15 4.5H18.75C18.9489 4.5 19.1397 4.57902 19.2803 4.71967C19.421 4.86032 19.5 5.05109 19.5 5.25V13.4062C19.5 17.5406 16.1906 20.9719 12.0563 21C11.0666 21.0074 10.0853 20.8189 9.16885 20.4453C8.2524 20.0717 7.41896 19.5205 6.71655 18.8233C6.01414 18.1261 5.45666 17.2968 5.07624 16.3832C4.69581 15.4695 4.49997 14.4897 4.5 13.5V5.25C4.5 5.05109 4.57902 4.86032 4.71967 4.71967C4.86032 4.57902 5.05109 4.5 5.25 4.5H9C9.19891 4.5 9.38968 4.57902 9.53033 4.71967C9.67098 4.86032 9.75 5.05109 9.75 5.25V13.5Z" stroke="#191C1F" stroke-width="1.5" stroke-linecap="round" stroke-linejoin="round"/>
</svg>
