<svg width="24" height="24" viewBox="0 0 24 24" fill="none" xmlns="http://www.w3.org/2000/svg">
<path d="M11.9344 8.90631C12.3524 8.49248 12.9154 8.25801 13.5037 8.25276C14.0919 8.24751 14.659 8.47188 15.0844 8.87818C15.9937 9.75006 15.975 11.2313 15.075 12.1313L8.79375 18.2157C8.65166 18.3566 8.57096 18.548 8.5692 18.7481C8.56745 18.9483 8.64478 19.141 8.78437 19.2844L11.475 21.9751C11.6156 22.1143 11.8049 22.1932 12.0028 22.195C12.2006 22.1968 12.3914 22.1212 12.5344 21.9844L18.7594 15.8719C21.6844 12.9469 21.7687 8.18443 18.8719 5.24069C18.1778 4.53464 17.3507 3.97303 16.4384 3.58824C15.5262 3.20344 14.5467 3.00309 13.5566 2.99873C12.5665 2.99437 11.5854 3.1861 10.6698 3.56284C9.75415 3.93959 8.92218 4.49391 8.22187 5.19381L2.025 11.4657C1.88474 11.6063 1.80597 11.7968 1.80597 11.9954C1.80597 12.194 1.88474 12.3845 2.025 12.5251L4.71562 15.2157C4.85905 15.3553 5.05179 15.4326 5.25193 15.4309C5.45206 15.4291 5.64342 15.3484 5.78437 15.2063L11.9344 8.90631Z" stroke="#191C1F" stroke-width="1.5" stroke-linecap="round" stroke-linejoin="round"/>
<path d="M11.8875 15.225L15.6188 18.9562" stroke="#191C1F" stroke-width="1.5" stroke-linecap="round" stroke-linejoin="round"/>
<path d="M5.0625 8.40002L8.78437 12.1313" stroke="#191C1F" stroke-width="1.5" stroke-linecap="round" stroke-linejoin="round"/>
</svg>
