<svg width="24" height="24" viewBox="0 0 24 24" fill="none" xmlns="http://www.w3.org/2000/svg">
<path fill-rule="evenodd" clip-rule="evenodd" d="M12 3.75C7.44365 3.75 3.75 7.44365 3.75 12C3.75 16.5563 7.44365 20.25 12 20.25C16.5563 20.25 20.25 16.5563 20.25 12C20.25 7.44365 16.5563 3.75 12 3.75ZM2.25 12C2.25 6.61522 6.61522 2.25 12 2.25C17.3848 2.25 21.75 6.61522 21.75 12C21.75 17.3848 17.3848 21.75 12 21.75C6.61522 21.75 2.25 17.3848 2.25 12Z" fill="#191C1F"/>
<path fill-rule="evenodd" clip-rule="evenodd" d="M7.18934 15.4393C7.47065 15.158 7.85218 15 8.25 15H15.75C16.1478 15 16.5294 15.158 16.8107 15.4393C17.092 15.7206 17.25 16.1022 17.25 16.5V19.8C17.25 20.2142 16.9142 20.55 16.5 20.55C16.0858 20.55 15.75 20.2142 15.75 19.8V16.5L8.25 16.5L8.25 19.8C8.25 20.2142 7.91421 20.55 7.5 20.55C7.08579 20.55 6.75 20.2142 6.75 19.8V16.5C6.75 16.1022 6.90804 15.7206 7.18934 15.4393Z" fill="#191C1F"/>
<path fill-rule="evenodd" clip-rule="evenodd" d="M8.68934 12.4393C8.97065 12.158 9.35218 12 9.75 12H14.25C14.6478 12 15.0294 12.158 15.3107 12.4393C15.592 12.7206 15.75 13.1022 15.75 13.5V15.75C15.75 16.1642 15.4142 16.5 15 16.5C14.5858 16.5 14.25 16.1642 14.25 15.75V13.5L9.75 13.5L9.75 15.75C9.75 16.1642 9.41421 16.5 9 16.5C8.58579 16.5 8.25 16.1642 8.25 15.75V13.5C8.25 13.1022 8.40804 12.7206 8.68934 12.4393Z" fill="#191C1F"/>
<path fill-rule="evenodd" clip-rule="evenodd" d="M13.466 7.19955L14.5904 12.597C14.6749 13.0025 14.4147 13.3997 14.0092 13.4842C13.6037 13.5687 13.2065 13.3084 13.122 12.9029L12 7.51727L10.8779 12.9029C10.7935 13.3084 10.3962 13.5687 9.99074 13.4842C9.58523 13.3997 9.32499 13.0025 9.40947 12.597L10.5339 7.19954C10.8564 5.60324 13.1435 5.60325 13.466 7.19955Z" fill="#191C1F"/>
</svg>
