<svg width="24" height="24" viewBox="0 0 24 24" fill="none" xmlns="http://www.w3.org/2000/svg">
<path d="M13.6969 12C13.908 11.7637 14.1665 11.5746 14.4557 11.4451C14.7449 11.3157 15.0582 11.2488 15.375 11.2488C15.6919 11.2488 16.0051 11.3157 16.2943 11.4451C16.5835 11.5746 16.8421 11.7637 17.0531 12" stroke="#191C1F" stroke-width="1.5" stroke-linecap="round" stroke-linejoin="round"/>
<path d="M6.9469 12C7.15796 11.7637 7.41654 11.5746 7.70573 11.4451C7.99492 11.3157 8.30819 11.2488 8.62502 11.2488C8.94186 11.2488 9.25513 11.3157 9.54432 11.4451C9.83351 11.5746 10.0921 11.7637 10.3032 12" stroke="#191C1F" stroke-width="1.5" stroke-linecap="round" stroke-linejoin="round"/>
<path d="M14.4844 16.5C13.7481 16.989 12.8839 17.2498 12 17.2498C11.1161 17.2498 10.2519 16.989 9.51562 16.5" stroke="#191C1F" stroke-width="1.5" stroke-linecap="round" stroke-linejoin="round"/>
<path d="M20.25 4.52812C20.2515 4.4058 20.2226 4.28503 20.1659 4.17659C20.1093 4.06816 20.0267 3.97545 19.9255 3.90674C19.8243 3.83803 19.7076 3.79545 19.5859 3.78283C19.4642 3.7702 19.3413 3.78791 19.2282 3.83437C17.8125 4.37812 15.0844 5.25 12 5.25C8.91567 5.25 6.18755 4.37812 4.77193 3.83437C4.65876 3.78791 4.53585 3.7702 4.41417 3.78283C4.29249 3.79545 4.17584 3.83803 4.07463 3.90674C3.97341 3.97545 3.8908 4.06816 3.83416 4.17659C3.77752 4.28503 3.74863 4.4058 3.75005 4.52812V9.75C3.75005 16.3781 7.4438 21.75 12 21.75C16.5563 21.75 20.25 16.3781 20.25 9.75V4.52812Z" stroke="#191C1F" stroke-width="1.5" stroke-linecap="round" stroke-linejoin="round"/>
</svg>
