<svg width="24" height="24" viewBox="0 0 24 24" fill="none" xmlns="http://www.w3.org/2000/svg">
<path d="M13.6969 11.25C13.908 11.4863 14.1665 11.6754 14.4557 11.8048C14.7449 11.9343 15.0582 12.0012 15.375 12.0012C15.6919 12.0012 16.0051 11.9343 16.2943 11.8048C16.5835 11.6754 16.8421 11.4863 17.0531 11.25" stroke="#191C1F" stroke-width="1.5" stroke-linecap="round" stroke-linejoin="round"/>
<path d="M6.9469 11.25C7.15796 11.4863 7.41654 11.6754 7.70573 11.8048C7.99492 11.9343 8.30819 12.0012 8.62502 12.0012C8.94186 12.0012 9.25513 11.9343 9.54432 11.8048C9.83351 11.6754 10.0921 11.4863 10.3032 11.25" stroke="#191C1F" stroke-width="1.5" stroke-linecap="round" stroke-linejoin="round"/>
<path d="M14.4844 17.25C13.7481 16.761 12.8839 16.5002 12 16.5002C11.1161 16.5002 10.2519 16.761 9.51562 17.25" stroke="#191C1F" stroke-width="1.5" stroke-linecap="round" stroke-linejoin="round"/>
<path d="M20.25 4.52812C20.2515 4.4058 20.2226 4.28503 20.1659 4.17659C20.1093 4.06816 20.0267 3.97545 19.9255 3.90674C19.8243 3.83803 19.7076 3.79545 19.5859 3.78283C19.4642 3.7702 19.3413 3.78791 19.2282 3.83437C17.8125 4.37812 15.0844 5.25 12 5.25C8.91567 5.25 6.18755 4.37812 4.77193 3.83437C4.65876 3.78791 4.53585 3.7702 4.41417 3.78283C4.29249 3.79545 4.17584 3.83803 4.07463 3.90674C3.97341 3.97545 3.8908 4.06816 3.83416 4.17659C3.77752 4.28503 3.74863 4.4058 3.75005 4.52812V9.75C3.75005 16.3781 7.4438 21.75 12 21.75C16.5563 21.75 20.25 16.3781 20.25 9.75V4.52812Z" stroke="#191C1F" stroke-width="1.5" stroke-linecap="round" stroke-linejoin="round"/>
</svg>
