<svg width="24" height="24" viewBox="0 0 24 24" fill="none" xmlns="http://www.w3.org/2000/svg">
<path d="M4.25624 16.5937C3.13957 14.7097 2.74898 12.4829 3.15778 10.3313C3.56658 8.17977 4.74667 6.2514 6.47651 4.90826C8.20634 3.56511 10.367 2.89955 12.5527 3.03654C14.7385 3.17352 16.7991 4.10362 18.3477 5.65222C19.8963 7.20083 20.8264 9.26145 20.9634 11.4472C21.1004 13.633 20.4348 15.7936 19.0917 17.5234C17.7485 19.2533 15.8202 20.4334 13.6686 20.8422C11.517 21.251 9.29023 20.8604 7.40624 19.7437V19.7437L4.29374 20.625C4.16622 20.6622 4.03102 20.6646 3.9023 20.6316C3.77358 20.5987 3.65609 20.5318 3.56214 20.4378C3.46819 20.3439 3.40124 20.2264 3.36832 20.0976C3.33539 19.9689 3.3377 19.8337 3.37499 19.7062L4.25624 16.5937Z" stroke="#191C1F" stroke-width="1.5" stroke-linecap="round" stroke-linejoin="round"/>
<path d="M7.5 13.5L10.5 10.5L13.5 13.5L16.5 10.5" stroke="#191C1F" stroke-width="1.5" stroke-linecap="round" stroke-linejoin="round"/>
</svg>
