<svg width="24" height="24" viewBox="0 0 24 24" fill="none" xmlns="http://www.w3.org/2000/svg">
<path d="M13.5 6.75H3.75C3.33579 6.75 3 7.08579 3 7.5V16.5C3 16.9142 3.33579 17.25 3.75 17.25H13.5C13.9142 17.25 14.25 16.9142 14.25 16.5V7.5C14.25 7.08579 13.9142 6.75 13.5 6.75Z" stroke="#191C1F" stroke-width="1.5" stroke-linecap="round" stroke-linejoin="round"/>
<path d="M14.25 8.25H17.25C17.4489 8.25 17.6397 8.32902 17.7803 8.46967C17.921 8.61032 18 8.80109 18 9V15.75C18 17.1424 17.4469 18.4777 16.4623 19.4623C15.4778 20.4469 14.1424 21 12.75 21V21C11.6192 20.9992 10.5188 20.634 9.61199 19.9585C8.70514 19.283 8.04016 18.3332 7.71564 17.25" stroke="#191C1F" stroke-width="1.5" stroke-linecap="round" stroke-linejoin="round"/>
<path d="M10.3125 9.75H6.9375" stroke="#191C1F" stroke-width="1.5" stroke-linecap="round" stroke-linejoin="round"/>
<path d="M8.625 14.25V9.75" stroke="#191C1F" stroke-width="1.5" stroke-linecap="round" stroke-linejoin="round"/>
<path d="M10.1531 6.74996C9.85612 6.23619 9.71816 5.64588 9.7567 5.0537C9.79524 4.46152 10.0085 3.89408 10.3696 3.42314C10.7307 2.9522 11.2233 2.59894 11.7852 2.40802C12.3471 2.21711 12.953 2.19713 13.5262 2.3506C14.0995 2.50408 14.6143 2.82412 15.0057 3.27024C15.397 3.71636 15.6472 4.26852 15.7247 4.85688C15.8022 5.44523 15.7034 6.04334 15.4409 6.57556C15.1784 7.10778 14.764 7.55019 14.25 7.84683" stroke="#191C1F" stroke-width="1.5" stroke-linecap="round" stroke-linejoin="round"/>
<path d="M15.5719 4.23745C15.9103 3.83697 16.3688 3.55628 16.8794 3.43704C17.3899 3.3178 17.9253 3.36637 18.4061 3.57554C18.8869 3.78471 19.2874 4.14333 19.5482 4.59817C19.809 5.05301 19.9162 5.57982 19.8539 6.10041C19.7916 6.62101 19.5631 7.10763 19.2022 7.48805C18.8414 7.86847 18.3676 8.12241 17.851 8.21218C17.3345 8.30195 16.8027 8.22276 16.3347 7.98637C15.8667 7.74998 15.4874 7.36899 15.2531 6.89995" stroke="#191C1F" stroke-width="1.5" stroke-linecap="round" stroke-linejoin="round"/>
<path d="M18 8.25H20.5594C20.6762 8.25 20.7883 8.29642 20.8709 8.37906C20.9536 8.46169 21 8.57376 21 8.69062V14.25C21 15.0456 20.6839 15.8087 20.1213 16.3713C19.5587 16.9339 18.7956 17.25 18 17.25H17.7844" stroke="#191C1F" stroke-width="1.5" stroke-linecap="round" stroke-linejoin="round"/>
</svg>
