<svg width="24" height="24" viewBox="0 0 24 24" fill="none" xmlns="http://www.w3.org/2000/svg">
<path d="M15.75 14.25C19.0637 14.25 21.75 11.5637 21.75 8.25C21.75 4.93629 19.0637 2.25 15.75 2.25C12.4363 2.25 9.75 4.93629 9.75 8.25C9.75 11.5637 12.4363 14.25 15.75 14.25Z" stroke="#191C1F" stroke-width="1.5" stroke-linecap="round" stroke-linejoin="round"/>
<path d="M19.9969 12.4969L11.5032 4.00311" stroke="#191C1F" stroke-width="1.5" stroke-linecap="round" stroke-linejoin="round"/>
<path d="M9.375 14.625L8.25 15.75" stroke="#191C1F" stroke-width="1.5" stroke-linecap="round" stroke-linejoin="round"/>
<path d="M9.82494 9.1781L2.63431 18.9844C2.52622 19.1282 2.47422 19.3066 2.48802 19.486C2.50182 19.6654 2.58049 19.8337 2.70931 19.9593L4.04056 21.2906C4.16622 21.4194 4.33449 21.4981 4.51392 21.5119C4.69336 21.5257 4.87167 21.4737 5.01556 21.3656L14.8218 14.175" stroke="#191C1F" stroke-width="1.5" stroke-linecap="round" stroke-linejoin="round"/>
</svg>
