<svg width="24" height="24" viewBox="0 0 24 24" fill="none" xmlns="http://www.w3.org/2000/svg">
<path d="M16.5376 16.9969C15.6171 17.834 14.4832 18.4004 13.2611 18.6335C12.039 18.8667 10.7762 18.7575 9.61223 18.3181C8.44824 17.8787 7.42835 17.1262 6.66518 16.1435C5.90201 15.1609 5.42527 13.9865 5.2876 12.75" stroke="#191C1F" stroke-width="1.5" stroke-linecap="round" stroke-linejoin="round"/>
<path d="M14.5219 14.775C13.8337 15.4054 12.9333 15.7535 12 15.75V15.75C11.0054 15.75 10.0516 15.3549 9.34835 14.6516C8.64509 13.9484 8.25 12.9946 8.25 12V7.875" stroke="#191C1F" stroke-width="1.5" stroke-linecap="round" stroke-linejoin="round"/>
<path d="M12 18.75V21.75" stroke="#191C1F" stroke-width="1.5" stroke-linecap="round" stroke-linejoin="round"/>
<path d="M4.5 3.75L19.5 20.25" stroke="#191C1F" stroke-width="1.5" stroke-linecap="round" stroke-linejoin="round"/>
<path d="M8.8125 4.03126C9.14666 3.48612 9.61531 3.036 10.1735 2.72408C10.7316 2.41216 11.3606 2.24892 12 2.25001V2.25001C12.9946 2.25001 13.9484 2.64509 14.6517 3.34835C15.3549 4.05162 15.75 5.00544 15.75 6.00001V11.6625" stroke="#191C1F" stroke-width="1.5" stroke-linecap="round" stroke-linejoin="round"/>
<path d="M18.7124 12.75C18.6463 13.3346 18.5045 13.9082 18.2905 14.4562" stroke="#191C1F" stroke-width="1.5" stroke-linecap="round" stroke-linejoin="round"/>
</svg>
