<svg width="24" height="24" viewBox="0 0 24 24" fill="none" xmlns="http://www.w3.org/2000/svg">
<path d="M20.3157 14.3062C18.8432 14.7191 17.2874 14.7326 15.8079 14.3454C14.3284 13.9582 12.9787 13.1841 11.8973 12.1027C10.816 11.0214 10.0419 9.67162 9.65466 8.19216C9.26742 6.7127 9.28095 5.15683 9.69386 3.68433C8.24211 4.0884 6.92156 4.86578 5.86375 5.93904C4.80593 7.01231 4.04778 8.34399 3.66479 9.80144C3.28181 11.2589 3.28736 12.7913 3.6809 14.2459C4.07444 15.7006 4.84223 17.0267 5.9078 18.0923C6.97336 19.1578 8.29951 19.9256 9.75415 20.3192C11.2088 20.7127 12.7412 20.7183 14.1986 20.3353C15.6561 19.9523 16.9878 19.1941 18.061 18.1363C19.1343 17.0785 19.9117 15.758 20.3157 14.3062V14.3062Z" stroke="#191C1F" stroke-width="1.5" stroke-linecap="round" stroke-linejoin="round"/>
</svg>
