<svg width="24" height="24" viewBox="0 0 24 24" fill="none" xmlns="http://www.w3.org/2000/svg">
<path d="M15.375 6.75C16.4105 6.75 17.25 5.91053 17.25 4.875C17.25 3.83947 16.4105 3 15.375 3C14.3395 3 13.5 3.83947 13.5 4.875C13.5 5.91053 14.3395 6.75 15.375 6.75Z" stroke="#191C1F" stroke-width="1.5" stroke-linecap="round" stroke-linejoin="round"/>
<path d="M0.75 18.7501L7.60312 7.09698C7.67108 6.98646 7.76621 6.8952 7.87945 6.8319C7.99269 6.76859 8.12027 6.73535 8.25 6.73535C8.37973 6.73535 8.50731 6.76859 8.62055 6.8319C8.73379 6.8952 8.82892 6.98646 8.89688 7.09698L15.75 18.7501H0.75Z" stroke="#191C1F" stroke-width="1.5" stroke-linecap="round" stroke-linejoin="round"/>
<path d="M4.7251 12H11.7751" stroke="#191C1F" stroke-width="1.5" stroke-linecap="round" stroke-linejoin="round"/>
<path d="M13.5093 14.9437L16.603 9.71246C16.671 9.60194 16.7661 9.51068 16.8794 9.44737C16.9926 9.38407 17.1202 9.35083 17.2499 9.35083C17.3796 9.35083 17.5072 9.38407 17.6204 9.44737C17.7337 9.51068 17.8288 9.60194 17.8968 9.71246L23.2499 18.75H15.7499" stroke="#191C1F" stroke-width="1.5" stroke-linecap="round" stroke-linejoin="round"/>
</svg>
