<svg width="24" height="24" viewBox="0 0 24 24" fill="none" xmlns="http://www.w3.org/2000/svg">
<path d="M16.7625 6.72187C16.7583 7.31606 16.6321 7.90305 16.3918 8.4465C16.1516 8.98995 15.8023 9.47828 15.3656 9.88125C14.4453 10.7199 13.245 11.1847 12 11.1847C10.7549 11.1847 9.55463 10.7199 8.63433 9.88125C8.19484 9.48063 7.84376 8.99272 7.60355 8.44871C7.36333 7.9047 7.23926 7.31656 7.23926 6.72187C7.23926 6.12719 7.36333 5.53904 7.60355 4.99503C7.84376 4.45102 8.19484 3.96312 8.63433 3.5625C9.55165 2.71787 10.753 2.24902 12 2.24902C13.2469 2.24902 14.4483 2.71787 15.3656 3.5625C15.8036 3.9644 16.1538 4.45252 16.3942 4.99621C16.6346 5.5399 16.7599 6.12742 16.7625 6.72187V6.72187Z" stroke="#191C1F" stroke-width="1.5" stroke-linecap="round" stroke-linejoin="round"/>
<path d="M17.625 16.4718C17.6216 17.1738 17.4733 17.8675 17.1894 18.5096C16.9055 19.1516 16.4921 19.7281 15.975 20.203C14.8906 21.1985 13.4721 21.7508 12 21.7508C10.528 21.7508 9.10949 21.1985 8.02504 20.203C7.50506 19.7295 7.08967 19.1526 6.80544 18.5093C6.5212 17.8659 6.37439 17.1704 6.37439 16.4671C6.37439 15.7638 6.5212 15.0682 6.80544 14.4249C7.08967 13.7816 7.50506 13.2047 8.02504 12.7311C9.10949 11.7357 10.528 11.1833 12 11.1833C13.4721 11.1833 14.8906 11.7357 15.975 12.7311C16.4932 13.2071 16.9073 13.7851 17.1913 14.4289C17.4752 15.0726 17.6229 15.7682 17.625 16.4718Z" stroke="#191C1F" stroke-width="1.5" stroke-linecap="round" stroke-linejoin="round"/>
</svg>
