<svg width="24" height="24" viewBox="0 0 24 24" fill="none" xmlns="http://www.w3.org/2000/svg">
<path d="M14.0625 9.56248C14.0597 10.037 13.8926 10.496 13.5897 10.8612C13.2867 11.2265 12.8665 11.4755 12.4007 11.5659C11.9348 11.6564 11.452 11.5826 11.0343 11.3572C10.6167 11.1319 10.2901 10.7688 10.1099 10.3297C9.92981 9.89067 9.90735 9.40277 10.0464 8.94903C10.1854 8.49528 10.4773 8.1037 10.8724 7.84089C11.2676 7.57808 11.7416 7.46028 12.2138 7.50751C12.686 7.55475 13.1273 7.76411 13.4625 8.09998C13.8462 8.49016 14.0616 9.01524 14.0625 9.56248Z" stroke="#191C1F" stroke-width="1.5" stroke-linecap="round" stroke-linejoin="round"/>
<path d="M14.4375 14.0625C14.436 14.6239 14.24 15.1674 13.8828 15.6006C13.5256 16.0337 13.0294 16.3297 12.4786 16.4382C11.9278 16.5467 11.3564 16.4609 10.8617 16.1956C10.367 15.9302 9.97952 15.5016 9.7652 14.9828C9.55089 14.4639 9.52298 13.8868 9.68625 13.3497C9.84951 12.8125 10.1938 12.3486 10.6607 12.0367C11.1275 11.7249 11.6879 11.5845 12.2466 11.6393C12.8053 11.6941 13.3278 11.9409 13.725 12.3375C13.9517 12.5639 14.1314 12.8328 14.2536 13.1289C14.3759 13.4249 14.4384 13.7422 14.4375 14.0625Z" stroke="#191C1F" stroke-width="1.5" stroke-linecap="round" stroke-linejoin="round"/>
<path d="M19.5 3.75H4.5C4.08579 3.75 3.75 4.08579 3.75 4.5V19.5C3.75 19.9142 4.08579 20.25 4.5 20.25H19.5C19.9142 20.25 20.25 19.9142 20.25 19.5V4.5C20.25 4.08579 19.9142 3.75 19.5 3.75Z" stroke="#191C1F" stroke-width="1.5" stroke-linecap="round" stroke-linejoin="round"/>
</svg>
