<svg width="24" height="24" viewBox="0 0 24 24" fill="none" xmlns="http://www.w3.org/2000/svg">
<path d="M12 21C16.9706 21 21 16.9706 21 12C21 7.02944 16.9706 3 12 3C7.02944 3 3 7.02944 3 12C3 16.9706 7.02944 21 12 21Z" stroke="#191C1F" stroke-width="1.5" stroke-miterlimit="10"/>
<path d="M14.25 7.875H10.4813L9.75 12.3938C10.1171 12.0267 10.5849 11.7767 11.094 11.6754C11.6032 11.5742 12.131 11.6262 12.6107 11.8248C13.0903 12.0235 13.5003 12.36 13.7887 12.7917C14.0771 13.2233 14.2311 13.7308 14.2311 14.25C14.2311 14.7692 14.0771 15.2767 13.7887 15.7083C13.5003 16.14 13.0903 16.4765 12.6107 16.6752C12.131 16.8738 11.6032 16.9258 11.094 16.8246C10.5849 16.7233 10.1171 16.4733 9.75 16.1063" stroke="#191C1F" stroke-width="1.5" stroke-linecap="round" stroke-linejoin="round"/>
</svg>
