<svg width="24" height="24" viewBox="0 0 24 24" fill="none" xmlns="http://www.w3.org/2000/svg">
<path d="M12 21C16.9706 21 21 16.9706 21 12C21 7.02944 16.9706 3 12 3C7.02944 3 3 7.02944 3 12C3 16.9706 7.02944 21 12 21Z" stroke="#191C1F" stroke-width="1.5" stroke-miterlimit="10"/>
<path d="M9.75 7.875H14.25L11.625 11.625C12.0567 11.625 12.4817 11.7315 12.8624 11.935C13.243 12.1385 13.5677 12.4328 13.8075 12.7917C14.0473 13.1506 14.1949 13.5632 14.2372 13.9928C14.2795 14.4224 14.2152 14.8558 14.05 15.2546C13.8848 15.6534 13.6238 16.0053 13.2901 16.2791C12.9564 16.553 12.5603 16.7403 12.137 16.8246C11.7136 16.9088 11.276 16.8873 10.8629 16.762C10.4498 16.6367 10.074 16.4115 9.76875 16.1062" stroke="#191C1F" stroke-width="1.5" stroke-linecap="round" stroke-linejoin="round"/>
</svg>
