<svg width="24" height="24" viewBox="0 0 24 24" fill="none" xmlns="http://www.w3.org/2000/svg">
<path d="M12 21C16.9706 21 21 16.9706 21 12C21 7.02944 16.9706 3 12 3C7.02944 3 3 7.02944 3 12C3 16.9706 7.02944 21 12 21Z" stroke="#191C1F" stroke-width="1.5" stroke-miterlimit="10"/>
<path d="M9.92813 8.87823C10.1303 8.40073 10.4913 8.00773 10.9499 7.76571C11.4085 7.52369 11.9366 7.44751 12.4449 7.55005C12.9533 7.6526 13.4106 7.92757 13.7395 8.32846C14.0684 8.72936 14.2487 9.23155 14.25 9.75011C14.252 10.1981 14.118 10.6362 13.8656 11.0064V11.0064L9.75 16.5001H14.25" stroke="#191C1F" stroke-width="1.5" stroke-linecap="round" stroke-linejoin="round"/>
</svg>
