<svg width="24" height="24" viewBox="0 0 24 24" fill="none" xmlns="http://www.w3.org/2000/svg">
<path d="M16.1156 15C16.737 15 17.2406 14.4963 17.2406 13.875C17.2406 13.2537 16.737 12.75 16.1156 12.75C15.4943 12.75 14.9906 13.2537 14.9906 13.875C14.9906 14.4963 15.4943 15 16.1156 15Z" fill="#191C1F"/>
<path d="M19.275 15.3187C18.9343 16.6817 18.2177 17.9215 17.2067 18.897C16.1958 19.8726 14.9312 20.5445 13.5569 20.8364C12.1827 21.1282 10.7542 21.0282 9.434 20.5478C8.11384 20.0673 6.95516 19.2258 6.08995 18.1189C5.22475 17.0121 4.68782 15.6845 4.54032 14.2874C4.39283 12.8903 4.6407 11.4799 5.2557 10.2168C5.8707 8.95366 6.82811 7.88868 8.01884 7.14316C9.20958 6.39764 10.5858 6.00154 11.9906 6" stroke="#191C1F" stroke-width="1.5" stroke-linecap="round" stroke-linejoin="round"/>
<path d="M6.3 8.61565C5.621 8.55935 4.99048 8.24124 4.54173 7.72856C4.09298 7.21588 3.86114 6.5488 3.89523 5.86831C3.92931 5.18783 4.22665 4.54726 4.72438 4.08199C5.22212 3.61672 5.88127 3.3632 6.5625 3.37503L17.4375 8.62503C18.1337 8.62503 18.8014 8.34847 19.2937 7.85618C19.7859 7.3639 20.0625 6.69622 20.0625 6.00003C20.0625 5.30384 19.7859 4.63616 19.2937 4.14387C18.8014 3.65159 18.1337 3.37503 17.4375 3.37503" stroke="#191C1F" stroke-width="1.5" stroke-linecap="round" stroke-linejoin="round"/>
<path d="M4.55624 14.4656L11.9906 10.5V21" stroke="#191C1F" stroke-width="1.5" stroke-linecap="round" stroke-linejoin="round"/>
<path d="M8.99063 12.1031V20.3719" stroke="#191C1F" stroke-width="1.5" stroke-linecap="round" stroke-linejoin="round"/>
</svg>
