<svg width="24" height="24" viewBox="0 0 24 24" fill="none" xmlns="http://www.w3.org/2000/svg">
<path fill-rule="evenodd" clip-rule="evenodd" d="M8.00921 2.36177C8.19004 2.2875 8.38371 2.24952 8.5792 2.25C8.57972 2.25001 8.58024 2.25001 8.58075 2.25001L8.57812 3V2.25H8.5792H15.4208C15.4203 2.25001 15.4198 2.25001 15.4192 2.25001L15.4219 2.99987V3.74063L15.4165 3.74596L15.4179 3.74727L15.4206 3.75H8.57941L8.58214 3.74727L8.58346 3.74596L8.05312 3.21563L8.58214 3.74727C8.58127 3.74814 8.58055 3.74954 8.57941 3.75C8.57909 3.75013 8.57845 3.74954 8.57812 3.74963C8.57727 3.74988 8.57639 3.75 8.57549 3.75L8.57941 3.75L3.75 8.57941C3.74953 8.58055 3.74814 8.58127 3.74727 8.58215L3.21562 8.05313L3.74595 8.58346L3.74727 8.58215L3.75 8.57941V15.4206L3.74727 15.4179L3.74595 15.4165L3.21562 15.9469L3.74727 15.4179C3.74814 15.4187 3.74953 15.4195 3.75 15.4206L8.57941 20.25C8.58055 20.2505 8.58127 20.2519 8.58214 20.2527L8.05332 20.7842L8.58346 20.254L8.58214 20.2527L8.57941 20.25H15.4206L15.4179 20.2527L15.4165 20.254L15.9467 20.7842L15.4179 20.2527C15.4187 20.2519 15.4195 20.2505 15.4206 20.25C15.4209 20.2499 15.4215 20.2505 15.4219 20.2504C15.4223 20.2503 15.4227 20.2502 15.4231 20.2501C15.4236 20.25 15.424 20.25 15.4245 20.25H15.4206L20.25 15.4206C20.2502 15.4201 20.2512 15.4199 20.2514 15.4195C20.2518 15.4189 20.2522 15.4184 20.2527 15.4179L20.7842 15.9467L20.254 15.4165L20.2527 15.4179L20.25 15.4206V8.57941L20.2527 8.58215L20.254 8.58346L20.7842 8.05332L20.2527 8.58215C20.2519 8.58127 20.2505 8.58055 20.25 8.57941L15.4206 3.75H15.4219C15.4227 3.75025 15.4236 3.75 15.4245 3.75L15.4245 3.74062L15.9469 3.21563L15.4245 3.73804L15.4219 2.99987V2.25H15.4208C15.6163 2.24952 15.81 2.2875 15.9908 2.36177C16.1721 2.43623 16.3369 2.54573 16.4759 2.68399L16.4772 2.6853L21.316 7.52411C21.4543 7.66306 21.5638 7.8279 21.6382 8.00922C21.7125 8.19015 21.7505 8.38393 21.75 8.57952C21.75 8.57994 21.75 8.58035 21.75 8.58076L21 8.57813H21.75V8.57952V15.4205C21.75 15.4201 21.75 15.4197 21.75 15.4192L21.0001 15.4219H21.75V15.4205M15.4205 21.75C15.4201 21.75 15.4197 21.75 15.4192 21.75L15.4219 21.0001V21.75H15.4205ZM15.4205 21.75H8.57952C8.57993 21.75 8.58034 21.75 8.58075 21.75L8.57812 21V21.75H8.57952M2.25 15.4208C2.25 15.4203 2.25 15.4198 2.25 15.4192L2.99986 15.4219H2.25V15.4208ZM2.25 15.4208V8.5792C2.25 8.57972 2.25 8.58024 2.25 8.58076L3 8.57813H2.25V8.5792M15.4245 3.74062L15.4219 3.74324V3.74063L15.4245 3.73804L15.4245 3.74062ZM15.4219 3.75H15.4206C15.4195 3.74954 15.4187 3.74814 15.4179 3.74727L15.4219 3.74324V3.75Z" fill="#191C1F"/>
</svg>
