<svg width="24" height="24" viewBox="0 0 24 24" fill="none" xmlns="http://www.w3.org/2000/svg">
<path fill-rule="evenodd" clip-rule="evenodd" d="M6.21967 9.21967C6.51256 8.92678 6.98744 8.92678 7.28033 9.21967L14.7803 16.7197C15.0732 17.0126 15.0732 17.4874 14.7803 17.7803C14.4874 18.0732 14.0126 18.0732 13.7197 17.7803L6.21967 10.2803C5.92678 9.98744 5.92678 9.51256 6.21967 9.21967Z" fill="#191C1F"/>
<path fill-rule="evenodd" clip-rule="evenodd" d="M10.0741 16.6634C10.367 16.9563 10.367 17.4312 10.0741 17.7241L7.1491 20.6491C6.85621 20.942 6.38134 20.942 6.08844 20.6491C5.79555 20.3562 5.79555 19.8813 6.08844 19.5884L9.01345 16.6634C9.30634 16.3705 9.78121 16.3705 10.0741 16.6634Z" fill="#191C1F"/>
<path fill-rule="evenodd" clip-rule="evenodd" d="M7.4491 14.0384C7.742 14.3313 7.742 14.8062 7.4491 15.0991L4.5241 18.0241C4.23121 18.317 3.75634 18.317 3.46344 18.0241C3.17055 17.7312 3.17055 17.2563 3.46344 16.9634L6.38844 14.0384C6.68134 13.7455 7.15621 13.7455 7.4491 14.0384Z" fill="#191C1F"/>
<path fill-rule="evenodd" clip-rule="evenodd" d="M18.4496 3.42373L13.3177 9.14456L12.7594 8.64375L13.3165 9.14588C13.1802 9.29707 13.0146 9.41895 12.8297 9.50409C12.6448 9.58923 12.4445 9.63585 12.2411 9.64111C12.0376 9.64637 11.8352 9.61017 11.6461 9.5347C11.4571 9.45923 11.2854 9.34608 11.1415 9.20213L10.2813 8.34196C10.1394 8.203 9.94868 8.12514 9.75 8.12514C9.55131 8.12514 9.36057 8.20301 9.21867 8.34199L2.56066 15L9 21.4393L15.6564 14.783C15.6569 14.7824 15.6575 14.7819 15.658 14.7813C15.797 14.6394 15.8749 14.4487 15.8749 14.25C15.8749 14.0513 15.797 13.8606 15.658 13.7187L14.7979 12.8585C14.6539 12.7146 14.5408 12.5429 14.4653 12.3539C14.3898 12.1648 14.3536 11.9624 14.3589 11.7589C14.3641 11.5555 14.4108 11.3552 14.4959 11.1703C14.581 10.9854 14.7029 10.8198 14.8541 10.6835L14.8554 10.6823L20.5763 5.55041C20.8503 5.26968 21.0039 4.89276 21.0039 4.5C21.0039 4.10114 20.8455 3.71861 20.5634 3.43658C20.2814 3.15454 19.8989 2.99609 19.5 2.99609C19.1072 2.99609 18.7303 3.14973 18.4496 3.42373ZM12.2023 8.14161L17.348 2.40543C17.357 2.39534 17.3663 2.3855 17.3759 2.37592C17.9393 1.81258 18.7033 1.49609 19.5 1.49609C20.2967 1.49609 21.0607 1.81258 21.6241 2.37592C22.1874 2.93926 22.5039 3.70331 22.5039 4.5C22.5039 5.29668 22.1874 6.06074 21.6241 6.62408C21.6145 6.63366 21.6047 6.64298 21.5946 6.65203L15.8584 11.7977L16.7249 12.6642C17.1414 13.0869 17.3749 13.6566 17.3749 14.25C17.3749 14.8434 17.1414 15.4131 16.7249 15.8358L16.721 15.8397L9.53033 23.0303C9.23744 23.3232 8.76256 23.3232 8.46967 23.0303L0.96967 15.5303C0.829018 15.3897 0.75 15.1989 0.75 15C0.75 14.8011 0.829018 14.6103 0.96967 14.4697L8.16421 7.27512C8.58693 6.85861 9.15656 6.62514 9.75 6.62514C10.3434 6.62514 10.9131 6.85862 11.3358 7.27514L11.3397 7.27903L12.2023 8.14161Z" fill="#191C1F"/>
</svg>
