<svg width="24" height="24" viewBox="0 0 24 24" fill="none" xmlns="http://www.w3.org/2000/svg">
<path fill-rule="evenodd" clip-rule="evenodd" d="M3 6C3 5.17157 3.67157 4.5 4.5 4.5H18.75C19.5784 4.5 20.25 5.17157 20.25 6V12C20.25 12.8284 19.5784 13.5 18.75 13.5H4.5C3.67157 13.5 3 12.8284 3 12V6ZM18.75 6H4.5V12H18.75V6Z" fill="#191C1F"/>
<path fill-rule="evenodd" clip-rule="evenodd" d="M18.75 9C18.75 8.58579 19.0858 8.25 19.5 8.25H21.75C22.1478 8.25 22.5294 8.40804 22.8107 8.68934C23.092 8.97065 23.25 9.35218 23.25 9.75V14.4437C23.2473 14.7671 23.1408 15.0811 22.9463 15.3394C22.7517 15.5977 22.4793 15.7867 22.1692 15.8785L22.1617 15.8807L12.756 18.56C12.7543 18.5606 12.7529 18.5617 12.7519 18.5631C12.7508 18.5645 12.7501 18.5663 12.75 18.5681V21.75C12.75 22.1642 12.4142 22.5 12 22.5C11.5858 22.5 11.25 22.1642 11.25 21.75V18.5563C11.2527 18.2329 11.3592 17.9189 11.5537 17.6606C11.7483 17.4023 12.0207 17.2133 12.3308 17.1215L12.3383 17.1193L21.744 14.44C21.7457 14.4394 21.7471 14.4383 21.7481 14.4369C21.7492 14.4355 21.7499 14.4337 21.75 14.4319L21.75 9.75L19.5 9.75C19.0858 9.75 18.75 9.41421 18.75 9Z" fill="#191C1F"/>
<path fill-rule="evenodd" clip-rule="evenodd" d="M0.75 9C0.75 8.58579 1.08579 8.25 1.5 8.25H3.75C4.16421 8.25 4.5 8.58579 4.5 9C4.5 9.41421 4.16421 9.75 3.75 9.75H1.5C1.08579 9.75 0.75 9.41421 0.75 9Z" fill="#191C1F"/>
</svg>
