<svg width="24" height="24" viewBox="0 0 24 24" fill="none" xmlns="http://www.w3.org/2000/svg">
<path fill-rule="evenodd" clip-rule="evenodd" d="M10.2978 0.96967C10.5907 0.676777 11.0655 0.676777 11.3584 0.96967L21.4366 11.0478C21.7295 11.3407 21.7295 11.8156 21.4366 12.1085L12.4139 21.1311C11.9912 21.5476 11.4215 21.7811 10.8281 21.7811C10.2347 21.7811 9.66504 21.5476 9.24233 21.1311L9.23838 21.1272L1.2751 13.1639C0.858589 12.7412 0.625122 12.1716 0.625122 11.5781C0.625122 10.9847 0.858603 10.4151 1.27512 9.99235L1.27901 9.98841L10.2978 0.96967ZM2.34196 11.0468C2.20299 11.1887 2.12512 11.3794 2.12512 11.5781C2.12512 11.7768 2.20299 11.9675 2.34196 12.1094C2.3425 12.11 2.34304 12.1106 2.34359 12.1111L10.2951 20.0626C10.2957 20.0632 10.2962 20.0637 10.2967 20.0642C10.4387 20.2032 10.6294 20.2811 10.8281 20.2811C11.0268 20.2811 11.2175 20.2032 11.3595 20.0642C11.36 20.0637 11.3605 20.0632 11.3611 20.0626L19.8456 11.5781L10.8281 2.56066L2.34196 11.0468Z" fill="#191C1F"/>
<path fill-rule="evenodd" clip-rule="evenodd" d="M11.625 9.75C11.0037 9.75 10.5 10.2537 10.5 10.875C10.5 11.4963 11.0037 12 11.625 12C12.2463 12 12.75 11.4963 12.75 10.875C12.75 10.2537 12.2463 9.75 11.625 9.75ZM9 10.875C9 9.42525 10.1753 8.25 11.625 8.25C13.0747 8.25 14.25 9.42525 14.25 10.875C14.25 12.3247 13.0747 13.5 11.625 13.5C10.1753 13.5 9 12.3247 9 10.875Z" fill="#191C1F"/>
<path fill-rule="evenodd" clip-rule="evenodd" d="M21.9053 14.8447L21.375 15.375L20.8447 14.8447C21.1376 14.5518 21.6124 14.5518 21.9053 14.8447ZM21.375 16.526C21.4753 16.6564 21.582 16.8032 21.6885 16.9629C22.1323 17.6287 22.5 18.4129 22.5 19.125C22.5 19.4234 22.3815 19.7095 22.1705 19.9205C21.9595 20.1315 21.6734 20.25 21.375 20.25C21.0766 20.25 20.7905 20.1315 20.5795 19.9205C20.3685 19.7095 20.25 19.4234 20.25 19.125C20.25 18.4129 20.6177 17.6287 21.0615 16.9629C21.168 16.8032 21.2747 16.6564 21.375 16.526ZM21.375 15.375C20.8447 14.8447 20.8448 14.8445 20.8447 14.8447L20.8433 14.8461L20.8412 14.8481L20.8351 14.8544L20.815 14.8749C20.7983 14.8922 20.775 14.9166 20.7461 14.9475C20.6884 15.0093 20.6081 15.0978 20.5126 15.2092C20.3223 15.4312 20.0684 15.7484 19.8135 16.1308C19.3198 16.8713 18.75 17.9621 18.75 19.125C18.75 19.8212 19.0266 20.4889 19.5188 20.9812C20.0111 21.4734 20.6788 21.75 21.375 21.75C22.0712 21.75 22.7389 21.4734 23.2312 20.9812C23.7234 20.4889 24 19.8212 24 19.125C24 17.9621 23.4302 16.8713 22.9365 16.1308C22.6816 15.7484 22.4277 15.4312 22.2374 15.2092C22.1419 15.0978 22.0616 15.0093 22.0039 14.9475C21.975 14.9166 21.9517 14.8922 21.935 14.8749L21.9149 14.8544L21.9088 14.8481L21.9067 14.8461L21.9053 14.8447C21.9052 14.8445 21.9053 14.8447 21.375 15.375Z" fill="#191C1F"/>
<path fill-rule="evenodd" clip-rule="evenodd" d="M3.02277 2.27277C3.31566 1.97988 3.79054 1.97988 4.08343 2.27277L10.8334 9.02277C11.1263 9.31566 11.1263 9.79054 10.8334 10.0834C10.5405 10.3763 10.0657 10.3763 9.77277 10.0834L3.02277 3.33343C2.72988 3.04054 2.72988 2.56566 3.02277 2.27277Z" fill="#191C1F"/>
</svg>
