<svg width="24" height="24" viewBox="0 0 24 24" fill="none" xmlns="http://www.w3.org/2000/svg">
<path fill-rule="evenodd" clip-rule="evenodd" d="M3 10.5C3 10.0858 3.33579 9.75 3.75 9.75H20.25C20.6642 9.75 21 10.0858 21 10.5C21 10.9142 20.6642 11.25 20.25 11.25H3.75C3.33579 11.25 3 10.9142 3 10.5Z" fill="#191C1F"/>
<path fill-rule="evenodd" clip-rule="evenodd" d="M6.75 3.75C6.15326 3.75 5.58097 3.98705 5.15901 4.40901C4.73705 4.83097 4.5 5.40326 4.5 6V12.75C4.5 12.9489 4.57902 13.1397 4.71967 13.2803C4.86032 13.421 5.05109 13.5 5.25 13.5H9.6375V14.25L9.63975 13.5C9.85378 13.5006 10.0652 13.5471 10.2598 13.6362C10.4544 13.7253 10.6277 13.855 10.768 14.0167C10.9083 14.1783 11.0124 14.3681 11.0733 14.5732C11.1342 14.7784 11.1504 14.9943 11.121 15.2063L11.1206 15.2092L10.5008 19.5479C10.5129 19.9284 10.6694 20.2907 10.9393 20.5607C11.2206 20.842 11.6022 21 12 21C12.3978 21 12.7794 20.842 13.0607 20.5607C13.3306 20.2907 13.4871 19.9284 13.4992 19.5479L12.8794 15.2092L12.879 15.2063C12.8496 14.9943 12.8658 14.7784 12.9267 14.5732C12.9876 14.3681 13.0917 14.1783 13.232 14.0167C13.3723 13.855 13.5456 13.7253 13.7402 13.6362C13.9348 13.5471 14.1462 13.5006 14.3602 13.5L14.3625 13.5L18.75 13.5C18.9489 13.5 19.1397 13.421 19.2803 13.2803C19.421 13.1397 19.5 12.9489 19.5 12.75V3.75H6.75ZM9.63525 15L5.25 15C4.65326 15 4.08097 14.7629 3.65901 14.341C3.23705 13.919 3 13.3467 3 12.75V6C3 5.00544 3.39509 4.05161 4.09835 3.34835C4.80161 2.64509 5.75544 2.25 6.75 2.25H20.25C20.6642 2.25 21 2.58579 21 3V12.75C21 13.3467 20.7629 13.919 20.341 14.341C19.919 14.7629 19.3467 15 18.75 15L14.3647 15L14.9925 19.3939C14.9975 19.4291 15 19.4645 15 19.5C15 20.2956 14.6839 21.0587 14.1213 21.6213C13.5587 22.1839 12.7956 22.5 12 22.5C11.2044 22.5 10.4413 22.1839 9.87868 21.6213C9.31607 21.0587 9 20.2956 9 19.5C9 19.4645 9.00252 19.4291 9.00754 19.3939L9.63525 15Z" fill="#191C1F"/>
<path fill-rule="evenodd" clip-rule="evenodd" d="M17.25 2.25C17.6642 2.25 18 2.58579 18 3V7.5C18 7.91421 17.6642 8.25 17.25 8.25C16.8358 8.25 16.5 7.91421 16.5 7.5V3C16.5 2.58579 16.8358 2.25 17.25 2.25Z" fill="#191C1F"/>
</svg>
