<svg width="24" height="24" viewBox="0 0 24 24" fill="none" xmlns="http://www.w3.org/2000/svg">
<path fill-rule="evenodd" clip-rule="evenodd" d="M11.8991 2.25007C17.2614 2.19929 21.7089 6.54264 21.7499 11.9186C21.7565 12.6769 21.6747 13.4335 21.5062 14.1729L20.775 14.0063L21.5057 14.175C21.353 14.8363 20.9807 15.4262 20.4494 15.8485C19.9181 16.2708 19.2594 16.5005 18.5807 16.5H14.25L14.2468 16.5C14.05 16.4992 13.855 16.5374 13.673 16.6123C13.491 16.6872 13.3257 16.7975 13.1865 16.9366C13.0474 17.0758 12.9372 17.2411 12.8622 17.4231C12.7873 17.6051 12.7491 17.8001 12.75 17.9969L12.75 18L12.75 18.364C12.75 18.3633 12.75 18.3627 12.75 18.3621L12 18.3657H12.75V18.364M8.74782 21.1908C6.58882 20.4266 4.76771 18.9267 3.60385 16.9542C2.43962 14.981 2.00742 12.6609 2.38308 10.4008C2.75874 8.14081 3.91827 6.08525 5.65822 4.5948C7.39817 3.10436 9.60821 2.27423 11.8991 2.25007M8.74782 21.1908C8.74714 21.1905 8.74646 21.1903 8.74578 21.19L8.99997 20.4844L8.74987 21.1915C8.74919 21.1912 8.74851 21.191 8.74782 21.1908ZM20.044 13.8386C20.1864 13.213 20.2555 12.573 20.25 11.9315C20.2157 7.38918 16.4509 3.70724 11.9137 3.75C9.97539 3.77055 8.1062 4.47295 6.63405 5.73399C5.16178 6.99514 4.18065 8.73446 3.86278 10.6468C3.54491 12.5591 3.91062 14.5223 4.89574 16.1919C5.88085 17.8615 7.42245 19.1309 9.25007 19.7773L9.25417 19.7788C9.47979 19.8601 9.7217 19.8857 9.95936 19.8536C10.197 19.8214 10.4234 19.7323 10.6193 19.594C10.8152 19.4556 10.9748 19.2721 11.0846 19.0588C11.1944 18.8456 11.2511 18.6091 11.25 18.3693L11.25 18.3657V18.0015M14.2514 15H18.5812C18.9205 15.0003 19.2504 14.8854 19.516 14.6743C19.7814 14.4634 19.9675 14.1688 20.044 13.8386" fill="#191C1F"/>
<path d="M12 8.25C12.6213 8.25 13.125 7.74632 13.125 7.125C13.125 6.50368 12.6213 6 12 6C11.3787 6 10.875 6.50368 10.875 7.125C10.875 7.74632 11.3787 8.25 12 8.25Z" fill="#191C1F"/>
<path d="M7.78125 10.6875C8.40257 10.6875 8.90625 10.1838 8.90625 9.5625C8.90625 8.94118 8.40257 8.4375 7.78125 8.4375C7.15993 8.4375 6.65625 8.94118 6.65625 9.5625C6.65625 10.1838 7.15993 10.6875 7.78125 10.6875Z" fill="#191C1F"/>
<path d="M7.78125 15.5625C8.40257 15.5625 8.90625 15.0588 8.90625 14.4375C8.90625 13.8162 8.40257 13.3125 7.78125 13.3125C7.15993 13.3125 6.65625 13.8162 6.65625 14.4375C6.65625 15.0588 7.15993 15.5625 7.78125 15.5625Z" fill="#191C1F"/>
<path d="M16.2188 10.6875C16.8401 10.6875 17.3438 10.1838 17.3438 9.5625C17.3438 8.94118 16.8401 8.4375 16.2188 8.4375C15.5974 8.4375 15.0938 8.94118 15.0938 9.5625C15.0938 10.1838 15.5974 10.6875 16.2188 10.6875Z" fill="#191C1F"/>
</svg>
