<svg width="24" height="24" viewBox="0 0 24 24" fill="none" xmlns="http://www.w3.org/2000/svg">
<path d="M7.31245 13.5H17.8125C18.2103 13.5 18.5918 13.342 18.8731 13.0607C19.1544 12.7794 19.3125 12.3978 19.3125 12C19.3125 11.6022 19.1544 11.2206 18.8731 10.9393C18.5918 10.658 18.2103 10.5 17.8125 10.5H4.31245C2.69995 10.5 1.38745 11.8406 1.38745 13.5C1.38745 15.1594 2.69995 16.5 4.31245 16.5H18C19.1934 16.5 20.338 16.0259 21.1819 15.182C22.0258 14.3381 22.5 13.1935 22.5 12C22.5 10.8065 22.0258 9.66193 21.1819 8.81802C20.338 7.97411 19.1934 7.5 18 7.5H7.49995" stroke="#191C1F" stroke-width="1.5" stroke-linecap="round" stroke-linejoin="round"/>
</svg>
