<svg width="24" height="24" viewBox="0 0 24 24" fill="none" xmlns="http://www.w3.org/2000/svg">
<path d="M11.3343 3.42188L2.46559 19.2563C2.3919 19.3896 2.36059 19.5423 2.37583 19.6939C2.39106 19.8455 2.45212 19.9889 2.55086 20.105C2.64961 20.221 2.78137 20.3042 2.92859 20.3435C3.07581 20.3829 3.23151 20.3764 3.37496 20.325L11.7375 17.3438C11.8998 17.2781 12.0814 17.2781 12.2437 17.3438L20.6062 20.325C20.7497 20.3764 20.9054 20.3829 21.0526 20.3435C21.1998 20.3042 21.3316 20.221 21.4303 20.105C21.5291 19.9889 21.5901 19.8455 21.6053 19.6939C21.6206 19.5423 21.5893 19.3896 21.5156 19.2563L12.6468 3.42188C12.582 3.30466 12.4869 3.20694 12.3715 3.1389C12.2561 3.07086 12.1246 3.03497 11.9906 3.03497C11.8566 3.03497 11.7251 3.07086 11.6097 3.1389C11.4943 3.20694 11.3992 3.30466 11.3343 3.42188Z" stroke="#191C1F" stroke-width="1.5" stroke-linecap="round" stroke-linejoin="round"/>
<path d="M11.9906 17.25V11.25" stroke="#191C1F" stroke-width="1.5" stroke-linecap="round" stroke-linejoin="round"/>
</svg>
