<svg width="24" height="24" viewBox="0 0 24 24" fill="none" xmlns="http://www.w3.org/2000/svg">
<path fill-rule="evenodd" clip-rule="evenodd" d="M15.1707 2.67706C15.3542 2.60023 15.5511 2.56067 15.75 2.56067C15.9489 2.56067 16.1458 2.60023 16.3293 2.67706C16.5118 2.75346 16.6773 2.86519 16.8164 3.00582C16.8172 3.0066 16.818 3.00738 16.8188 3.00816L20.9919 7.18129C20.9927 7.18207 20.9935 7.18286 20.9943 7.18365C21.1349 7.32273 21.2466 7.48826 21.323 7.67071C21.3998 7.85419 21.4394 8.05112 21.4394 8.25004C21.4394 8.44896 21.3998 8.64589 21.323 8.82937C21.2466 9.01182 21.1349 9.17735 20.9943 9.31644C20.9935 9.31722 20.9927 9.31801 20.9919 9.31879L9.53033 20.7804C9.38968 20.921 9.19891 21 9 21H4.5C4.10218 21 3.72065 20.842 3.43934 20.5607C3.15804 20.2794 3 19.8979 3 19.5V15.3105M15.1707 2.67706C14.9882 2.75346 14.8227 2.86519 14.6836 3.00582L15.1707 2.67706ZM4.5 15.3107V19.5H8.68934L19.9394 8.25002L19.9353 8.24601L15.75 4.06068L15.746 4.06476L4.5 15.3107Z" fill="#191C1F"/>
<path fill-rule="evenodd" clip-rule="evenodd" d="M12.2197 5.46967C12.5126 5.17678 12.9874 5.17678 13.2803 5.46967L18.5303 10.7197C18.8232 11.0126 18.8232 11.4874 18.5303 11.7803C18.2374 12.0732 17.7626 12.0732 17.4697 11.7803L12.2197 6.53033C11.9268 6.23744 11.9268 5.76256 12.2197 5.46967Z" fill="#191C1F"/>
<path fill-rule="evenodd" clip-rule="evenodd" d="M3.26654 14.5165C3.55944 14.2237 4.03431 14.2237 4.32721 14.5165L9.31066 19.5H20.25C20.6642 19.5 21 19.8358 21 20.25C21 20.6642 20.6642 21 20.25 21H9C8.80109 21 8.61032 20.921 8.46967 20.7803L3.26654 15.5772C2.97365 15.2843 2.97365 14.8094 3.26654 14.5165Z" fill="#191C1F"/>
<path fill-rule="evenodd" clip-rule="evenodd" d="M15.9053 8.09467C16.1982 8.38756 16.1982 8.86244 15.9053 9.15533L6.90533 18.1553C6.61244 18.4482 6.13756 18.4482 5.84467 18.1553C5.55178 17.8624 5.55178 17.3876 5.84467 17.0947L14.8447 8.09467C15.1376 7.80178 15.6124 7.80178 15.9053 8.09467Z" fill="#191C1F"/>
</svg>
