<svg width="24" height="24" viewBox="0 0 24 24" fill="none" xmlns="http://www.w3.org/2000/svg">
<path fill-rule="evenodd" clip-rule="evenodd" d="M15.1707 2.67706C15.3542 2.60023 15.5511 2.56067 15.75 2.56067C15.9489 2.56067 16.1458 2.60023 16.3293 2.67706C16.5118 2.75346 16.6773 2.86519 16.8164 3.00582C16.8172 3.0066 16.818 3.00738 16.8188 3.00816L20.9919 7.18129C20.9927 7.18207 20.9935 7.18286 20.9943 7.18364C21.1349 7.32273 21.2466 7.48826 21.323 7.67071C21.3998 7.85419 21.4394 8.05112 21.4394 8.25004C21.4394 8.44896 21.3998 8.64589 21.323 8.82937C21.2466 9.01182 21.1349 9.17735 20.9943 9.31643C20.9935 9.31722 20.9927 9.31801 20.9919 9.31879L9.74596 20.5647L9.74464 20.5661C9.6057 20.7043 9.44085 20.8138 9.25954 20.8883C9.07884 20.9625 8.88533 21.0005 8.69001 21C8.68934 21 8.68867 21 8.688 21L8.69063 20.25L8.69001 21H4.5C4.10218 21 3.72065 20.842 3.43934 20.5607C3.15804 20.2794 3 19.8979 3 19.5V15.3105C3 15.311 3 15.3115 3 15.312L3.75 15.3094H3V15.3105M15.1707 2.67706C14.9882 2.75346 14.8227 2.86519 14.6836 3.00582L15.1707 2.67706ZM8.69321 19.512L9.21563 20.0344L8.69322 19.5094L8.69321 19.512ZM8.69063 19.5068V19.5094L8.6853 19.5041L8.68661 19.5028L8.69063 19.5068ZM8.68661 19.5028C8.68749 19.5019 8.68852 19.5012 8.68966 19.5007L8.68661 19.5028ZM4.5 15.3107C4.49953 15.3118 4.49814 15.3126 4.49727 15.3134L3.96562 14.7844L4.49595 15.3147L4.49727 15.3134L4.5 15.3107Z" fill="#191C1F"/>
<path fill-rule="evenodd" clip-rule="evenodd" d="M12.2197 5.46967C12.5126 5.17678 12.9874 5.17678 13.2803 5.46967L18.5303 10.7197C18.8232 11.0126 18.8232 11.4874 18.5303 11.7803C18.2374 12.0732 17.7626 12.0732 17.4697 11.7803L12.2197 6.53033C11.9268 6.23744 11.9268 5.76256 12.2197 5.46967Z" fill="#191C1F"/>
</svg>
