<svg width="24" height="24" viewBox="0 0 24 24" fill="none" xmlns="http://www.w3.org/2000/svg">
<path fill-rule="evenodd" clip-rule="evenodd" d="M12 3.75C7.44365 3.75 3.75 7.44365 3.75 12C3.75 16.5563 7.44365 20.25 12 20.25C16.5563 20.25 20.25 16.5563 20.25 12C20.25 7.44365 16.5563 3.75 12 3.75ZM2.25 12C2.25 6.61522 6.61522 2.25 12 2.25C17.3848 2.25 21.75 6.61522 21.75 12C21.75 17.3848 17.3848 21.75 12 21.75C6.61522 21.75 2.25 17.3848 2.25 12Z" fill="#191C1F"/>
<path fill-rule="evenodd" clip-rule="evenodd" d="M12 6C12.2925 6 12.5584 6.17009 12.681 6.43571L17.181 16.1857C17.2264 16.2842 17.25 16.3915 17.25 16.5V19.8C17.25 20.2142 16.9142 20.55 16.5 20.55C16.0858 20.55 15.75 20.2142 15.75 19.8V16.6647L12 8.53973L8.25 16.6647V19.8C8.25 20.2142 7.91421 20.55 7.5 20.55C7.08579 20.55 6.75 20.2142 6.75 19.8V16.5C6.75 16.3915 6.77355 16.2842 6.81903 16.1857L11.319 6.43571C11.4416 6.17009 11.7075 6 12 6Z" fill="#191C1F"/>
<path fill-rule="evenodd" clip-rule="evenodd" d="M14.25 16.5C13.8522 16.5 13.4706 16.658 13.1893 16.9393C12.908 17.2206 12.75 17.6022 12.75 18C12.75 18.4142 12.4142 18.75 12 18.75C11.5858 18.75 11.25 18.4142 11.25 18C11.25 17.2044 11.5661 16.4413 12.1287 15.8787C12.6913 15.3161 13.4544 15 14.25 15C15.0456 15 15.8087 15.3161 16.3713 15.8787C16.9339 16.4413 17.25 17.2044 17.25 18C17.25 18.4142 16.9142 18.75 16.5 18.75C16.0858 18.75 15.75 18.4142 15.75 18C15.75 17.6022 15.592 17.2206 15.3107 16.9393C15.0294 16.658 14.6478 16.5 14.25 16.5Z" fill="#191C1F"/>
<path fill-rule="evenodd" clip-rule="evenodd" d="M7.62868 15.8787C8.19129 15.3161 8.95435 15 9.75 15C10.5456 15 11.3087 15.3161 11.8713 15.8787C12.4339 16.4413 12.75 17.2044 12.75 18V21C12.75 21.4142 12.4142 21.75 12 21.75C11.5858 21.75 11.25 21.4142 11.25 21V18C11.25 17.6022 11.092 17.2206 10.8107 16.9393C10.5294 16.658 10.1478 16.5 9.75 16.5C9.35217 16.5 8.97064 16.658 8.68934 16.9393C8.40804 17.2206 8.25 17.6022 8.25 18C8.25 18.4142 7.91421 18.75 7.5 18.75C7.08579 18.75 6.75 18.4142 6.75 18C6.75 17.2044 7.06607 16.4413 7.62868 15.8787Z" fill="#191C1F"/>
<path fill-rule="evenodd" clip-rule="evenodd" d="M8.83124 12C8.83124 11.5858 9.16702 11.25 9.58124 11.25H14.4187C14.833 11.25 15.1687 11.5858 15.1687 12C15.1687 12.4142 14.833 12.75 14.4187 12.75H9.58124C9.16702 12.75 8.83124 12.4142 8.83124 12Z" fill="#191C1F"/>
</svg>
