<svg width="24" height="24" viewBox="0 0 24 24" fill="none" xmlns="http://www.w3.org/2000/svg">
<path fill-rule="evenodd" clip-rule="evenodd" d="M10.875 12C10.2537 12 9.75 12.5037 9.75 13.125C9.75 13.7463 10.2537 14.25 10.875 14.25C11.4963 14.25 12 13.7463 12 13.125C12 12.5037 11.4963 12 10.875 12ZM8.25 13.125C8.25 11.6753 9.42525 10.5 10.875 10.5C12.3247 10.5 13.5 11.6753 13.5 13.125C13.5 14.5747 12.3247 15.75 10.875 15.75C9.42525 15.75 8.25 14.5747 8.25 13.125Z" fill="#191C1F"/>
<path fill-rule="evenodd" clip-rule="evenodd" d="M10.0835 13.9166C10.3763 14.2095 10.3763 14.6843 10.0835 14.9772L3.53033 21.5304C3.23744 21.8232 2.76256 21.8232 2.46967 21.5304C2.17678 21.2375 2.17678 20.7626 2.46967 20.4697L9.0228 13.9166C9.31569 13.6237 9.79056 13.6237 10.0835 13.9166Z" fill="#191C1F"/>
<path fill-rule="evenodd" clip-rule="evenodd" d="M10.9865 4.54782C11.2619 4.44449 11.5723 4.51169 11.7803 4.71969L19.2803 12.2197C19.4883 12.4277 19.5555 12.7381 19.4522 13.0135L17.3535 18.607C17.2636 18.8528 17.1105 19.0706 16.9097 19.2385C16.7075 19.4076 16.4641 19.52 16.2043 19.5643L16.2012 19.5649L3.12305 21.7399C2.88419 21.7796 2.64085 21.7015 2.46965 21.5303C2.29844 21.3591 2.22043 21.1157 2.26019 20.8769L4.4358 7.80447C4.48015 7.54592 4.59113 7.30339 4.75778 7.10079C4.92443 6.8982 5.14101 6.74253 5.38615 6.64915L5.38966 6.64781L10.9865 4.54782ZM5.91977 8.05103C5.91965 8.05108 5.91988 8.05098 5.91977 8.05103C5.91839 8.05162 5.91717 8.05254 5.91621 8.0537C5.91526 8.05486 5.9146 8.05623 5.91428 8.0577C5.91426 8.05782 5.91431 8.05758 5.91428 8.0577L3.91211 20.088L15.9466 18.0866L15.9478 18.0834L17.8781 12.9388L11.0612 6.12191L5.91977 8.05103Z" fill="#191C1F"/>
<path fill-rule="evenodd" clip-rule="evenodd" d="M13.6707 1.92706C13.8542 1.85023 14.0511 1.81067 14.25 1.81067C14.4489 1.81067 14.6458 1.85023 14.8293 1.92706C15.0118 2.00345 15.1773 2.11517 15.3164 2.25577L21.7443 8.68364C21.8849 8.82273 21.9966 8.98826 22.073 9.17071C22.1498 9.35419 22.1894 9.55112 22.1894 9.75004C22.1894 9.94896 22.1498 10.1459 22.073 10.3294C21.9966 10.5118 21.8849 10.6773 21.7443 10.8164L19.2803 13.2804C18.9874 13.5733 18.5126 13.5733 18.2197 13.2804C17.9268 12.9875 17.9268 12.5126 18.2197 12.2197L20.6894 9.75002L20.6853 9.74601L14.25 3.31068L14.246 3.31476L11.7803 5.78037C11.4874 6.07326 11.0126 6.07326 10.7197 5.78037C10.4268 5.48748 10.4268 5.0126 10.7197 4.71971L13.1836 2.25576C13.3227 2.11516 13.4882 2.00345 13.6707 1.92706Z" fill="#191C1F"/>
</svg>
