<svg width="24" height="24" viewBox="0 0 24 24" fill="none" xmlns="http://www.w3.org/2000/svg">
<path fill-rule="evenodd" clip-rule="evenodd" d="M12 13.5C12.4142 13.5 12.75 13.8358 12.75 14.25V23.25C12.75 23.6642 12.4142 24 12 24C11.5858 24 11.25 23.6642 11.25 23.25V14.25C11.25 13.8358 11.5858 13.5 12 13.5Z" fill="#191C1F"/>
<path fill-rule="evenodd" clip-rule="evenodd" d="M12 11.25C11.3787 11.25 10.875 11.7537 10.875 12.375C10.875 12.9963 11.3787 13.5 12 13.5C12.6213 13.5 13.125 12.9963 13.125 12.375C13.125 11.7537 12.6213 11.25 12 11.25ZM9.375 12.375C9.375 10.9253 10.5503 9.75 12 9.75C13.4497 9.75 14.625 10.9253 14.625 12.375C14.625 13.8247 13.4497 15 12 15C10.5503 15 9.375 13.8247 9.375 12.375Z" fill="#191C1F"/>
<path fill-rule="evenodd" clip-rule="evenodd" d="M6.43934 1.93934C6.72064 1.65804 7.10218 1.5 7.5 1.5H16.5C16.8978 1.5 17.2794 1.65803 17.5607 1.93934C17.842 2.22065 18 2.60218 18 3V6.75C18 7.16421 17.6642 7.5 17.25 7.5C16.8358 7.5 16.5 7.16421 16.5 6.75V3H7.5L7.5 6.75C7.5 7.16421 7.16421 7.5 6.75 7.5C6.33579 7.5 6 7.16421 6 6.75V3C6 2.60217 6.15804 2.22064 6.43934 1.93934Z" fill="#191C1F"/>
<path fill-rule="evenodd" clip-rule="evenodd" d="M6.07777 6.41751C6.20423 6.16182 6.46479 6 6.75004 6H17.25C17.5353 6 17.7958 6.16182 17.9223 6.41751L20.4946 11.6185C20.6123 11.8629 20.6623 12.1344 20.6395 12.4048C20.6167 12.6751 20.5219 12.9344 20.3649 13.1557L20.3572 13.1667L12.604 23.6947C12.4626 23.8867 12.2384 24 12 24C11.7617 24 11.5375 23.8867 11.3961 23.6947L3.63505 13.1558C3.4781 12.9345 3.3834 12.6751 3.3606 12.4048C3.3378 12.1344 3.38783 11.8629 3.5055 11.6185L3.50898 11.6112L6.07777 6.41751ZM7.21582 7.5L4.85664 12.27C4.8555 12.2728 4.85504 12.2758 4.85529 12.2787C4.85552 12.2815 4.85635 12.2841 4.85771 12.2865L12 21.9852L19.1424 12.2865C19.1437 12.2841 19.1446 12.2815 19.1448 12.2787C19.145 12.2758 19.1446 12.2728 19.1434 12.27L16.7843 7.5H7.21582Z" fill="#191C1F"/>
</svg>
