<svg width="24" height="24" viewBox="0 0 24 24" fill="none" xmlns="http://www.w3.org/2000/svg">
<path d="M11.9907 6.75C13.4405 6.75 14.6157 5.57475 14.6157 4.125C14.6157 2.67525 13.4405 1.5 11.9907 1.5C10.541 1.5 9.36572 2.67525 9.36572 4.125C9.36572 5.57475 10.541 6.75 11.9907 6.75Z" stroke="#191C1F" stroke-width="1.5" stroke-linecap="round" stroke-linejoin="round"/>
<path d="M14.4281 12.6281L17.6906 15.1594C17.9063 15.3389 18.1813 15.4313 18.4616 15.4186C18.742 15.4058 19.0074 15.2886 19.2058 15.0902C19.4043 14.8918 19.5214 14.6264 19.5342 14.346C19.547 14.0657 19.4545 13.7907 19.275 13.575L15.5625 8.80313C15.3895 8.62836 15.1836 8.48952 14.9568 8.39459C14.7299 8.29966 14.4865 8.25053 14.2406 8.25H9.74063C9.24151 8.25267 8.76343 8.45131 8.40938 8.80313L4.69688 13.575C4.50357 13.7896 4.40019 14.0703 4.40814 14.359C4.41609 14.6476 4.53476 14.9222 4.73957 15.1258C4.94439 15.3294 5.21966 15.4465 5.50839 15.4527C5.79713 15.459 6.0772 15.3539 6.29063 15.1594L9.55313 12.6281L6.94688 20.8406C6.88409 20.9748 6.84835 21.1201 6.84169 21.2681C6.83504 21.4161 6.8576 21.564 6.90809 21.7032C6.95858 21.8425 7.03602 21.9705 7.13597 22.0799C7.23592 22.1892 7.35643 22.2778 7.49063 22.3406C7.62482 22.4034 7.77007 22.4392 7.91808 22.4458C8.06609 22.4525 8.21395 22.4299 8.35324 22.3794C8.49253 22.3289 8.62051 22.2515 8.72987 22.1515C8.83923 22.0516 8.92784 21.9311 8.99063 21.7969L11.9906 17.0719L14.9906 21.7969C15.0492 21.9369 15.1356 22.0637 15.2445 22.1695C15.3533 22.2753 15.4825 22.3579 15.6242 22.4125C15.7659 22.467 15.9171 22.4924 16.0688 22.4869C16.2206 22.4815 16.3696 22.4453 16.507 22.3808C16.6444 22.3162 16.7673 22.2245 16.8683 22.1111C16.9693 21.9978 17.0464 21.8652 17.0947 21.7213C17.1431 21.5774 17.1619 21.4252 17.1499 21.2738C17.1379 21.1225 17.0954 20.9751 17.025 20.8406L14.4281 12.6281Z" stroke="#191C1F" stroke-width="1.5" stroke-linecap="round" stroke-linejoin="round"/>
</svg>
