<svg width="24" height="24" viewBox="0 0 24 24" fill="none" xmlns="http://www.w3.org/2000/svg">
<path fill-rule="evenodd" clip-rule="evenodd" d="M19.2375 3.17098C19.4537 3.13255 19.6757 3.14205 19.8878 3.19882C20.0999 3.25559 20.297 3.35824 20.4651 3.49951C20.6332 3.64078 20.7682 3.81724 20.8606 4.01642C20.9528 4.21512 21.0004 4.4316 21 4.65063C21 4.65116 21 4.6517 21 4.65223L20.25 4.65003L21 4.65063V19.3494C21 19.3489 21 19.3484 21 19.3478L20.25 19.35L21 19.3494M4.23555 18.1006C4.2362 18.1007 4.23685 18.1008 4.23751 18.101L4.23555 18.1006ZM4.23555 18.1006C3.88871 18.0385 3.5748 17.8562 3.34886 17.5858C3.12278 17.3152 2.99927 16.9736 3 16.621C3 16.6206 3.00001 16.6201 3.00001 16.6197L3.75 16.6219L3 16.621V7.37906C3 7.37949 3.00001 7.37992 3.00001 7.38035L3.75 7.37815L3 7.37906M4.23751 5.8991L19.2345 3.17151L19.2375 3.17098M4.23751 5.8991C4.23691 5.89921 4.23631 5.89931 4.23571 5.89942L4.23751 5.8991ZM19.5 4.64783L4.5 7.37596L4.50001 7.37815L4.5 16.6219L4.5 16.6241L4.50296 16.6246L19.5 19.3522L19.5 19.35V4.65003L19.5 4.64783Z" fill="#191C1F"/>
<path fill-rule="evenodd" clip-rule="evenodd" d="M0.75 12C0.75 11.5858 1.08579 11.25 1.5 11.25H22.5C22.9142 11.25 23.25 11.5858 23.25 12C23.25 12.4142 22.9142 12.75 22.5 12.75H1.5C1.08579 12.75 0.75 12.4142 0.75 12Z" fill="#191C1F"/>
</svg>
