<svg width="24" height="24" viewBox="0 0 24 24" fill="none" xmlns="http://www.w3.org/2000/svg">
<path d="M4.5 3.75L19.5 20.25" stroke="#191C1F" stroke-width="1.5" stroke-linecap="round" stroke-linejoin="round"/>
<path d="M10.7813 10.6593C10.3123 10.7329 9.85106 10.849 9.40318 11.0062C9.28117 11.0486 9.17218 11.1218 9.08677 11.2187C9.00136 11.3157 8.94243 11.433 8.91568 11.5594L8.37193 14.325C8.34624 14.4476 8.29096 14.5621 8.21089 14.6586C8.13083 14.755 8.02841 14.8303 7.91255 14.8781L3.47818 16.65C3.32734 16.7125 3.16008 16.7234 3.0024 16.681C2.84472 16.6386 2.70547 16.5453 2.6063 16.4156C1.93643 15.55 1.60498 14.47 1.674 13.3777C1.74303 12.2853 2.2078 11.2556 2.9813 10.4812C4.35432 9.11137 6.02157 8.07255 7.8563 7.44373" stroke="#191C1F" stroke-width="1.5" stroke-linecap="round" stroke-linejoin="round"/>
<path d="M11.2969 6.76875C13.0872 6.6697 14.8784 6.94913 16.5535 7.58881C18.2286 8.22849 19.7501 9.21406 21.0187 10.4812C21.7923 11.2556 22.257 12.2853 22.3261 13.3777C22.3951 14.47 22.0636 15.5501 21.3937 16.4156C21.2946 16.5453 21.1553 16.6386 20.9977 16.681C20.84 16.7234 20.6727 16.7125 20.5219 16.65L20.1469 16.5" stroke="#191C1F" stroke-width="1.5" stroke-linecap="round" stroke-linejoin="round"/>
</svg>
