<svg width="24" height="24" viewBox="0 0 24 24" fill="none" xmlns="http://www.w3.org/2000/svg">
<path d="M14.5687 9.49689C12.8949 8.9184 11.0748 8.9217 9.40312 9.50627C9.28111 9.54868 9.17212 9.62188 9.08671 9.71879C9.0013 9.81569 8.94237 9.93302 8.91562 10.0594L8.37187 12.825C8.34618 12.9477 8.2909 13.0622 8.21083 13.1586C8.13077 13.255 8.02835 13.3304 7.91249 13.3781L3.47812 15.15C3.32728 15.2125 3.16002 15.2234 3.00234 15.181C2.84466 15.1387 2.70541 15.0453 2.60624 14.9156C1.93637 14.0501 1.60492 12.97 1.67394 11.8777C1.74297 10.7854 2.20774 9.75563 2.98124 8.98127C5.37381 6.59055 8.61771 5.24762 12 5.24762C15.3823 5.24762 18.6262 6.59055 21.0187 8.98127C21.7923 9.75563 22.257 10.7854 22.326 11.8777C22.3951 12.97 22.0636 14.0501 21.3937 14.9156C21.2946 15.0453 21.1553 15.1387 20.9976 15.181C20.84 15.2234 20.6727 15.2125 20.5219 15.15L16.0875 13.3781C15.9728 13.3313 15.8711 13.2573 15.7911 13.1626C15.7111 13.068 15.6552 12.9553 15.6281 12.8344L15.0469 10.05C15.0218 9.92433 14.9646 9.80729 14.8808 9.71034C14.797 9.61339 14.6895 9.53984 14.5687 9.49689V9.49689Z" stroke="#191C1F" stroke-width="1.5" stroke-linecap="round" stroke-linejoin="round"/>
<path d="M3.75 18.75H20.25" stroke="#191C1F" stroke-width="1.5" stroke-linecap="round" stroke-linejoin="round"/>
</svg>
