<svg width="24" height="24" viewBox="0 0 24 24" fill="none" xmlns="http://www.w3.org/2000/svg">
<path d="M6.375 3L12.5625 15.375" stroke="#191C1F" stroke-width="1.5" stroke-linecap="round" stroke-linejoin="round"/>
<path d="M12.5625 3H6.375V15.375H12.5625V3Z" stroke="#191C1F" stroke-width="1.5" stroke-linecap="round" stroke-linejoin="round"/>
<path d="M12.5625 15.375V21.5625C11.7496 21.5637 10.9445 21.4045 10.1932 21.094C9.44193 20.7835 8.75934 20.3278 8.18453 19.753C7.60972 19.1782 7.154 18.4956 6.84349 17.7443C6.53297 16.9931 6.37377 16.1879 6.37501 15.375" stroke="#191C1F" stroke-width="1.5" stroke-linecap="round" stroke-linejoin="round"/>
<path d="M12.5625 15.375H13.3125C14.9535 15.375 16.5273 14.7231 17.6877 13.5627C18.8481 12.4023 19.5 10.8285 19.5 9.1875C19.5 7.54647 18.8481 5.97266 17.6877 4.81228C16.5273 3.6519 14.9535 3 13.3125 3H12.5625" stroke="#191C1F" stroke-width="1.5" stroke-linecap="round" stroke-linejoin="round"/>
</svg>
