<svg width="24" height="24" viewBox="0 0 24 24" fill="none" xmlns="http://www.w3.org/2000/svg">
<path d="M11.25 8.25L8.25 21" stroke="#191C1F" stroke-width="1.5" stroke-linecap="round" stroke-linejoin="round"/>
<path d="M5.76562 14.6812C5.11481 13.708 4.70086 12.596 4.55691 11.4341C4.41297 10.2722 4.54302 9.09279 4.93667 7.9902C5.33032 6.88761 5.97663 5.89249 6.82386 5.08449C7.67109 4.27649 8.69571 3.67806 9.81571 3.33709C10.9357 2.99612 12.12 2.92208 13.2737 3.12091C14.4275 3.31974 15.5187 3.78591 16.4599 4.4821C17.4012 5.17829 18.1664 6.08518 18.6943 7.13016C19.2222 8.17513 19.4981 9.32919 19.5 10.4999C19.5 14.6437 16.5 17.2499 13.5 17.2499C10.5 17.2499 9.6 15.2718 9.6 15.2718" stroke="#191C1F" stroke-width="1.5" stroke-linecap="round" stroke-linejoin="round"/>
</svg>
