<svg width="24" height="24" viewBox="0 0 24 24" fill="none" xmlns="http://www.w3.org/2000/svg">
<path d="M8.87817 2.5406C10.0865 2.12424 11.4101 2.19906 12.5638 2.74895C13.7175 3.29884 14.6092 4.27982 15.0467 5.48065C15.4843 6.68149 15.4328 8.00613 14.9033 9.16936C14.3738 10.3326 13.4086 11.2413 12.2157 11.7L8.87817 2.5406Z" stroke="#191C1F" stroke-width="1.5" stroke-linecap="round" stroke-linejoin="round"/>
<path d="M2.5406 13.6219C2.12424 12.4135 2.19906 11.09 2.74895 9.93628C3.29884 8.78256 4.27982 7.89092 5.48065 7.45336C6.68149 7.0158 8.00613 7.06731 9.16936 7.59681C10.3326 8.12631 11.2413 9.09144 11.7 10.2844L2.5406 13.6219Z" stroke="#191C1F" stroke-width="1.5" stroke-linecap="round" stroke-linejoin="round"/>
<path d="M13.6218 19.9594C12.4135 20.3757 11.09 20.3009 9.93622 19.751C8.7825 19.2011 7.89086 18.2201 7.4533 17.0193C7.01573 15.8185 7.06725 14.4938 7.59675 13.3306C8.12625 12.1674 9.09138 11.2586 10.2843 10.8L13.6218 19.9594Z" stroke="#191C1F" stroke-width="1.5" stroke-linecap="round" stroke-linejoin="round"/>
<path d="M19.9594 8.87811C20.3758 10.0865 20.301 11.41 19.7511 12.5637C19.2012 13.7174 18.2202 14.6091 17.0194 15.0467C15.8185 15.4842 14.4939 15.4327 13.3307 14.9032C12.1674 14.3737 11.2587 13.4086 10.8 12.2156L19.9594 8.87811Z" stroke="#191C1F" stroke-width="1.5" stroke-linecap="round" stroke-linejoin="round"/>
<path d="M15.4219 15.4219L21 21" stroke="#191C1F" stroke-width="1.5" stroke-linecap="round" stroke-linejoin="round"/>
</svg>
