<svg width="24" height="24" viewBox="0 0 24 24" fill="none" xmlns="http://www.w3.org/2000/svg">
<path d="M2.19375 7.0968C2.08943 6.93443 2.05262 6.73776 2.09114 6.54865C2.12966 6.35953 2.24048 6.19293 2.4 6.0843C5.19917 4.07844 8.55634 2.99976 12 2.99976C15.4437 2.99976 18.8008 4.07844 21.6 6.0843C21.7595 6.19293 21.8703 6.35953 21.9089 6.54865C21.9474 6.73776 21.9106 6.93443 21.8063 7.0968L12.6281 21.5062C12.5616 21.6127 12.469 21.7006 12.3591 21.7615C12.2492 21.8224 12.1256 21.8544 12 21.8544C11.8744 21.8544 11.7508 21.8224 11.6409 21.7615C11.531 21.7006 11.4384 21.6127 11.3719 21.5062L2.19375 7.0968Z" stroke="#191C1F" stroke-width="1.5" stroke-linecap="round" stroke-linejoin="round"/>
<path d="M3.44061 9.05634C5.85496 7.07915 8.87935 5.99878 12 5.99878C15.1206 5.99878 18.145 7.07915 20.5594 9.05634" stroke="#191C1F" stroke-width="1.5" stroke-linecap="round" stroke-linejoin="round"/>
<path d="M15.4031 17.1469C15.0101 17.035 14.6487 16.8329 14.3475 16.5566C14.0464 16.2804 13.814 15.9376 13.6686 15.5557C13.5233 15.1738 13.4692 14.7632 13.5106 14.3566C13.5519 13.9501 13.6876 13.5588 13.9069 13.214C14.1261 12.8691 14.4229 12.5802 14.7734 12.3703C15.124 12.1603 15.5188 12.0351 15.9263 12.0046C16.3338 11.9741 16.7428 12.0392 17.1207 12.1947C17.4986 12.3501 17.835 12.5917 18.1031 12.9001" stroke="#191C1F" stroke-width="1.5" stroke-linecap="round" stroke-linejoin="round"/>
<path d="M5.42813 12.1688C5.60207 11.7241 5.89399 11.3353 6.27247 11.0442C6.65096 10.7531 7.10167 10.5708 7.57608 10.5168C8.05049 10.4629 8.53064 10.5393 8.96483 10.7379C9.39902 10.9366 9.7708 11.2499 10.0402 11.6441C10.3095 12.0384 10.4663 12.4986 10.4935 12.9753C10.5207 13.452 10.4174 13.9271 10.1947 14.3494C9.97198 14.7718 9.63829 15.1254 9.22954 15.3722C8.82079 15.619 8.35248 15.7496 7.87501 15.75H7.70626" stroke="#191C1F" stroke-width="1.5" stroke-linecap="round" stroke-linejoin="round"/>
</svg>
