<svg width="24" height="24" viewBox="0 0 24 24" fill="none" xmlns="http://www.w3.org/2000/svg">
<path fill-rule="evenodd" clip-rule="evenodd" d="M3 4.5C3 3.67157 3.67157 3 4.5 3H19.5C20.3284 3 21 3.67157 21 4.5V19.5C21 20.3284 20.3284 21 19.5 21H4.5C3.67157 21 3 20.3284 3 19.5V4.5ZM19.5 4.5H4.5V19.5H19.5V4.5Z" fill="#191C1F"/>
<path fill-rule="evenodd" clip-rule="evenodd" d="M3.43525 3.43525C3.72814 3.14235 4.20301 3.14235 4.49591 3.43525L20.5647 19.504C20.8575 19.7969 20.8575 20.2718 20.5647 20.5647C20.2718 20.8575 19.7969 20.8575 19.504 20.5647L3.43525 4.49591C3.14235 4.20301 3.14235 3.72814 3.43525 3.43525Z" fill="#191C1F"/>
</svg>
