<svg width="24" height="24" viewBox="0 0 24 24" fill="none" xmlns="http://www.w3.org/2000/svg">
<path d="M12.3749 16.875L9.46866 19.7812C9.25963 19.991 9.01124 20.1574 8.73775 20.271C8.46426 20.3846 8.17104 20.443 7.87491 20.443C7.57878 20.443 7.28556 20.3846 7.01207 20.271C6.73858 20.1574 6.49019 19.991 6.28116 19.7812L4.21866 17.7187C4.0089 17.5097 3.84247 17.2613 3.7289 16.9878C3.61534 16.7143 3.55688 16.4211 3.55688 16.125C3.55688 15.8289 3.61534 15.5356 3.7289 15.2622C3.84247 14.9887 4.0089 14.7403 4.21866 14.5312L7.12491 11.625" stroke="#191C1F" stroke-width="1.5" stroke-linecap="round" stroke-linejoin="round"/>
<path d="M5.25 18.75L2.25 21.75" stroke="#191C1F" stroke-width="1.5" stroke-linecap="round" stroke-linejoin="round"/>
<path d="M21.75 2.25L18.75 5.25" stroke="#191C1F" stroke-width="1.5" stroke-linecap="round" stroke-linejoin="round"/>
<path d="M13.5 13.5L11.25 15.75" stroke="#191C1F" stroke-width="1.5" stroke-linecap="round" stroke-linejoin="round"/>
<path d="M10.5 10.5L8.25 12.75" stroke="#191C1F" stroke-width="1.5" stroke-linecap="round" stroke-linejoin="round"/>
<path d="M16.875 12.375L19.7812 9.46878C19.991 9.25975 20.1574 9.01136 20.271 8.73787C20.3846 8.46438 20.443 8.17116 20.443 7.87503C20.443 7.5789 20.3846 7.28568 20.271 7.01219C20.1574 6.7387 19.991 6.49031 19.7812 6.28128L17.7187 4.21878C17.5097 4.00902 17.2613 3.84259 16.9878 3.72903C16.7143 3.61546 16.4211 3.55701 16.125 3.55701C15.8289 3.55701 15.5356 3.61546 15.2622 3.72903C14.9887 3.84259 14.7403 4.00902 14.5312 4.21878L11.625 7.12503" stroke="#191C1F" stroke-width="1.5" stroke-linecap="round" stroke-linejoin="round"/>
<path d="M10.875 6.375L17.625 13.125" stroke="#191C1F" stroke-width="1.5" stroke-linecap="round" stroke-linejoin="round"/>
<path d="M6.375 10.875L13.125 17.625" stroke="#191C1F" stroke-width="1.5" stroke-linecap="round" stroke-linejoin="round"/>
</svg>
