<svg width="24" height="24" viewBox="0 0 24 24" fill="none" xmlns="http://www.w3.org/2000/svg">
<path d="M7.5 16.5L2.25 21.75" stroke="#191C1F" stroke-width="1.5" stroke-linecap="round" stroke-linejoin="round"/>
<path d="M21.75 2.25L16.5 7.5" stroke="#191C1F" stroke-width="1.5" stroke-linecap="round" stroke-linejoin="round"/>
<path d="M12.2869 6.46474L6.46648 12.2851C5.5878 13.1638 5.5878 14.5884 6.46648 15.4671L8.53477 17.5354C9.41345 18.4141 10.8381 18.4141 11.7167 17.5354L17.5371 11.715C18.4158 10.8363 18.4158 9.4117 17.5371 8.53302L15.4688 6.46474C14.5902 5.58606 13.1655 5.58606 12.2869 6.46474Z" stroke="#191C1F" stroke-width="1.5" stroke-linecap="round" stroke-linejoin="round"/>
<path d="M8.625 8.625L15.375 15.375" stroke="#191C1F" stroke-width="1.5" stroke-linecap="round" stroke-linejoin="round"/>
<path d="M21 15L18.75 14.25" stroke="#191C1F" stroke-width="1.5" stroke-linecap="round" stroke-linejoin="round"/>
<path d="M5.25 9.75L3 9" stroke="#191C1F" stroke-width="1.5" stroke-linecap="round" stroke-linejoin="round"/>
<path d="M9 3L9.75 5.25" stroke="#191C1F" stroke-width="1.5" stroke-linecap="round" stroke-linejoin="round"/>
<path d="M14.25 18.75L15 21" stroke="#191C1F" stroke-width="1.5" stroke-linecap="round" stroke-linejoin="round"/>
</svg>
