<svg width="24" height="24" viewBox="0 0 24 24" fill="none" xmlns="http://www.w3.org/2000/svg">
<path d="M1.5 11.25H22.5" stroke="#191C1F" stroke-width="1.5" stroke-linecap="round" stroke-linejoin="round"/>
<path d="M21 17.25V19.5C21 19.6989 20.921 19.8897 20.7803 20.0303C20.6397 20.171 20.4489 20.25 20.25 20.25H18C17.8011 20.25 17.6103 20.171 17.4697 20.0303C17.329 19.8897 17.25 19.6989 17.25 19.5V17.25" stroke="#191C1F" stroke-width="1.5" stroke-linecap="round" stroke-linejoin="round"/>
<path d="M6.75 17.25V19.5C6.75 19.6989 6.67098 19.8897 6.53033 20.0303C6.38968 20.171 6.19891 20.25 6 20.25H3.75C3.55109 20.25 3.36032 20.171 3.21967 20.0303C3.07902 19.8897 3 19.6989 3 19.5V17.25" stroke="#191C1F" stroke-width="1.5" stroke-linecap="round" stroke-linejoin="round"/>
<path d="M6 14.25H7.5" stroke="#191C1F" stroke-width="1.5" stroke-linecap="round" stroke-linejoin="round"/>
<path d="M16.5 14.25H18" stroke="#191C1F" stroke-width="1.5" stroke-linecap="round" stroke-linejoin="round"/>
<path d="M21 11.25L18.2156 6.37501C18.1508 6.26074 18.0567 6.16578 17.943 6.09988C17.8293 6.03398 17.7001 5.99951 17.5687 6.00001H6.43125C6.29985 5.99951 6.17069 6.03398 6.05702 6.09988C5.94334 6.16578 5.84924 6.26074 5.78438 6.37501L3 11.25V17.25H21V11.25Z" stroke="#191C1F" stroke-width="1.5" stroke-linecap="round" stroke-linejoin="round"/>
<path d="M9.75 3H14.25" stroke="#191C1F" stroke-width="1.5" stroke-linecap="round" stroke-linejoin="round"/>
</svg>
