<svg width="24" height="24" viewBox="0 0 24 24" fill="none" xmlns="http://www.w3.org/2000/svg">
<path fill-rule="evenodd" clip-rule="evenodd" d="M11.25 3C10.4216 3 9.75 3.67157 9.75 4.5C9.75 5.32843 10.4216 6 11.25 6C12.0784 6 12.75 5.32843 12.75 4.5C12.75 3.67157 12.0784 3 11.25 3ZM8.25 4.5C8.25 2.84315 9.59315 1.5 11.25 1.5C12.9069 1.5 14.25 2.84315 14.25 4.5C14.25 6.15685 12.9069 7.5 11.25 7.5C9.59315 7.5 8.25 6.15685 8.25 4.5Z" fill="#191C1F"/>
<path fill-rule="evenodd" clip-rule="evenodd" d="M3.75 9.75C2.92157 9.75 2.25 10.4216 2.25 11.25C2.25 12.0784 2.92157 12.75 3.75 12.75C4.57843 12.75 5.25 12.0784 5.25 11.25C5.25 10.4216 4.57843 9.75 3.75 9.75ZM0.75 11.25C0.75 9.59315 2.09315 8.25 3.75 8.25C5.40685 8.25 6.75 9.59315 6.75 11.25C6.75 12.9069 5.40685 14.25 3.75 14.25C2.09315 14.25 0.75 12.9069 0.75 11.25Z" fill="#191C1F"/>
<path fill-rule="evenodd" clip-rule="evenodd" d="M15 18C14.1716 18 13.5 18.6716 13.5 19.5C13.5 20.3284 14.1716 21 15 21C15.8284 21 16.5 20.3284 16.5 19.5C16.5 18.6716 15.8284 18 15 18ZM12 19.5C12 17.8431 13.3431 16.5 15 16.5C16.6569 16.5 18 17.8431 18 19.5C18 21.1569 16.6569 22.5 15 22.5C13.3431 22.5 12 21.1569 12 19.5Z" fill="#191C1F"/>
<path fill-rule="evenodd" clip-rule="evenodd" d="M19.5 5.25C18.6716 5.25 18 5.92157 18 6.75C18 7.57843 18.6716 8.25 19.5 8.25C20.3284 8.25 21 7.57843 21 6.75C21 5.92157 20.3284 5.25 19.5 5.25ZM16.5 6.75C16.5 5.09315 17.8431 3.75 19.5 3.75C21.1569 3.75 22.5 5.09315 22.5 6.75C22.5 8.40685 21.1569 9.75 19.5 9.75C17.8431 9.75 16.5 8.40685 16.5 6.75Z" fill="#191C1F"/>
<path fill-rule="evenodd" clip-rule="evenodd" d="M12.7017 4.89242C12.8111 4.49294 13.2237 4.25784 13.6232 4.36731L17.5232 5.43606C17.9227 5.54554 18.1578 5.95813 18.0483 6.35761C17.9389 6.7571 17.5263 6.9922 17.1268 6.88272L13.2268 5.81397C12.8273 5.7045 12.5922 5.29191 12.7017 4.89242Z" fill="#191C1F"/>
<path fill-rule="evenodd" clip-rule="evenodd" d="M10.1397 5.5088C10.4162 5.81723 10.3903 6.2914 10.0818 6.56788L5.91932 10.2991C5.61088 10.5756 5.13672 10.5497 4.86024 10.2413C4.58376 9.93283 4.60966 9.45867 4.9181 9.18219L9.0806 5.45094C9.38903 5.17446 9.8632 5.20036 10.1397 5.5088Z" fill="#191C1F"/>
<path fill-rule="evenodd" clip-rule="evenodd" d="M4.96416 12.1374C5.20926 11.8035 5.67864 11.7315 6.01256 11.9766L13.6251 17.5641C13.959 17.8092 14.031 18.2786 13.7859 18.6125C13.5408 18.9464 13.0714 19.0184 12.7375 18.7733L5.12499 13.1858C4.79108 12.9407 4.71907 12.4714 4.96416 12.1374Z" fill="#191C1F"/>
<path fill-rule="evenodd" clip-rule="evenodd" d="M18.9992 8.16138C19.3899 8.29906 19.595 8.72736 19.4573 9.11802L16.4573 17.6305C16.3196 18.0212 15.8913 18.2263 15.5007 18.0886C15.11 17.9509 14.9049 17.5226 15.0426 17.1319L18.0426 8.61945C18.1803 8.22878 18.6086 8.0237 18.9992 8.16138Z" fill="#191C1F"/>
</svg>
