<svg width="24" height="24" viewBox="0 0 24 24" fill="none" xmlns="http://www.w3.org/2000/svg">
<path d="M3.29064 8.74678L5.85939 19.6687C5.89908 19.8332 5.99259 19.9797 6.12507 20.085C6.25755 20.1903 6.42141 20.2484 6.59064 20.2499H17.4094C17.5786 20.2484 17.7425 20.1903 17.875 20.085C18.0074 19.9797 18.1009 19.8332 18.1406 19.6687L20.7094 8.74678C20.738 8.61928 20.7333 8.48653 20.6956 8.3614C20.658 8.23626 20.5887 8.12296 20.4944 8.03246C20.4001 7.94195 20.2841 7.87731 20.1575 7.84478C20.0309 7.81226 19.8981 7.81294 19.7719 7.84678L15.75 8.9999L12.2813 7.6124C12.1921 7.57527 12.0966 7.55615 12 7.55615C11.9035 7.55615 11.8079 7.57527 11.7188 7.6124L8.25001 8.9999L4.22814 7.84678C4.10191 7.81294 3.96909 7.81226 3.84252 7.84478C3.71595 7.87731 3.59991 7.94195 3.50564 8.03246C3.41137 8.12296 3.34204 8.23626 3.30438 8.3614C3.26671 8.48653 3.26198 8.61928 3.29064 8.74678V8.74678Z" stroke="#191C1F" stroke-width="1.5" stroke-linecap="round" stroke-linejoin="round"/>
<path d="M8.25 9L9.75 20.25" stroke="#191C1F" stroke-width="1.5" stroke-linecap="round" stroke-linejoin="round"/>
<path d="M15.75 9L14.25 20.25" stroke="#191C1F" stroke-width="1.5" stroke-linecap="round" stroke-linejoin="round"/>
<path d="M20.25 7.87494C20.2502 7.29239 20.0996 6.7197 19.8129 6.2126C19.5262 5.70549 19.1131 5.28123 18.6138 4.9811C18.1146 4.68096 17.5461 4.51517 16.9637 4.49985C16.3814 4.48454 15.805 4.62022 15.2906 4.89369C15.129 4.14095 14.7142 3.46637 14.1154 2.98248C13.5165 2.49858 12.7699 2.23462 12 2.23462C11.2301 2.23462 10.4835 2.49858 9.88465 2.98248C9.28582 3.46637 8.871 4.14095 8.70938 4.89369C8.19501 4.62022 7.61861 4.48454 7.03626 4.49985C6.45391 4.51517 5.88545 4.68096 5.38616 4.9811C4.88688 5.28123 4.47379 5.70549 4.18707 6.2126C3.90036 6.7197 3.74978 7.29239 3.75 7.87494" stroke="#191C1F" stroke-width="1.5" stroke-linecap="round" stroke-linejoin="round"/>
</svg>
