<svg width="24" height="24" viewBox="0 0 24 24" fill="none" xmlns="http://www.w3.org/2000/svg">
<path d="M8.25 15.75L4.5 19.5" stroke="#191C1F" stroke-width="1.5" stroke-linecap="round" stroke-linejoin="round"/>
<path d="M4.5 3.75L19.5 20.25" stroke="#191C1F" stroke-width="1.5" stroke-linecap="round" stroke-linejoin="round"/>
<path d="M8.78441 8.46559L8.62503 8.62497C8.62503 8.62497 6.02816 7.32184 3.24378 9.57184C3.16185 9.63814 3.09481 9.72097 3.04704 9.81492C2.99927 9.90887 2.97184 10.0118 2.96653 10.1171C2.96122 10.2224 2.97816 10.3276 3.01624 10.4258C3.05432 10.5241 3.11269 10.6133 3.18753 10.6875L13.2938 20.7937C13.3694 20.8707 13.4608 20.9304 13.5617 20.9689C13.6625 21.0073 13.7705 21.0235 13.8782 21.0164C13.9859 21.0093 14.0907 20.979 14.1857 20.9276C14.2806 20.8762 14.3633 20.805 14.4282 20.7187C15.1407 19.7718 16.2188 17.9156 15.6188 15.9843" stroke="#191C1F" stroke-width="1.5" stroke-linecap="round" stroke-linejoin="round"/>
<path d="M17.3345 13.4157L21.2157 9.53441C21.2866 9.46463 21.3429 9.38144 21.3813 9.2897C21.4197 9.19796 21.4395 9.0995 21.4395 9.00004C21.4395 8.90058 21.4197 8.80212 21.3813 8.71038C21.3429 8.61864 21.2866 8.53545 21.2157 8.46567L15.5345 2.78441C15.4647 2.71355 15.3815 2.65728 15.2898 2.61886C15.198 2.58045 15.0996 2.56067 15.0001 2.56067C14.9006 2.56067 14.8022 2.58045 14.7104 2.61886C14.6187 2.65728 14.5355 2.71355 14.4657 2.78441L10.9126 6.33754" stroke="#191C1F" stroke-width="1.5" stroke-linecap="round" stroke-linejoin="round"/>
</svg>
