<svg width="24" height="24" viewBox="0 0 24 24" fill="none" xmlns="http://www.w3.org/2000/svg">
<path d="M8.25 15.75L4.5 19.5" stroke="#191C1F" stroke-width="1.5" stroke-linecap="round" stroke-linejoin="round"/>
<path d="M14.4657 2.78441L8.62503 8.62504C8.62503 8.62504 6.02816 7.32191 3.24378 9.57191C3.16185 9.63822 3.09481 9.72104 3.04704 9.81499C2.99927 9.90894 2.97184 10.0119 2.96653 10.1172C2.96122 10.2224 2.97816 10.3276 3.01624 10.4259C3.05432 10.5242 3.11269 10.6133 3.18753 10.6875L13.2938 20.7938C13.3694 20.8708 13.4608 20.9305 13.5617 20.9689C13.6625 21.0074 13.7705 21.0236 13.8782 21.0164C13.9859 21.0093 14.0907 20.979 14.1857 20.9277C14.2806 20.8763 14.3633 20.8051 14.4282 20.7188C15.2157 19.6782 16.4532 17.5219 15.375 15.375L21.2157 9.53441C21.2865 9.46463 21.3428 9.38144 21.3812 9.2897C21.4196 9.19796 21.4394 9.0995 21.4394 9.00004C21.4394 8.90058 21.4196 8.80212 21.3812 8.71038C21.3428 8.61864 21.2865 8.53545 21.2157 8.46567L15.5344 2.78441C15.4646 2.71355 15.3814 2.65728 15.2897 2.61886C15.198 2.58045 15.0995 2.56067 15 2.56067C14.9006 2.56067 14.8021 2.58045 14.7104 2.61886C14.6186 2.65728 14.5354 2.71355 14.4657 2.78441Z" stroke="#191C1F" stroke-width="1.5" stroke-linecap="round" stroke-linejoin="round"/>
</svg>
