<svg width="24" height="24" viewBox="0 0 24 24" fill="none" xmlns="http://www.w3.org/2000/svg">
<path d="M6.00001 20.25C5.8011 20.25 5.61033 20.171 5.46968 20.0303C5.32903 19.8897 5.25001 19.6989 5.25001 19.5V15.4969C4.83855 15.6932 4.38254 15.7772 3.92813 15.7406C3.54338 15.7124 3.16958 15.5996 2.83335 15.4105C2.49712 15.2213 2.20672 14.9603 1.98281 14.6462C1.75891 14.332 1.60701 13.9723 1.53792 13.5928C1.46883 13.2132 1.48425 12.8231 1.58309 12.4502C1.68193 12.0773 1.86175 11.7307 2.10976 11.4352C2.35776 11.1397 2.66786 10.9025 3.01798 10.7404C3.36809 10.5784 3.74962 10.4955 4.13541 10.4977C4.5212 10.4999 4.90176 10.5871 5.25001 10.7531V6.75001C5.25001 6.5511 5.32903 6.36033 5.46968 6.21968C5.61033 6.07903 5.8011 6.00001 6.00001 6.00001H10.3781C10.1819 5.58855 10.0978 5.13254 10.1344 4.67813C10.1627 4.29338 10.2754 3.91958 10.4646 3.58335C10.6537 3.24712 10.9147 2.95672 11.2288 2.73281C11.543 2.50891 11.9027 2.35701 12.2822 2.28792C12.6618 2.21883 13.0519 2.23425 13.4248 2.33309C13.7977 2.43193 14.1443 2.61175 14.4398 2.85976C14.7353 3.10776 14.9725 3.41786 15.1346 3.76798C15.2966 4.11809 15.3795 4.49962 15.3773 4.88541C15.3751 5.2712 15.2879 5.65176 15.1219 6.00001H19.5C19.6989 6.00001 19.8897 6.07903 20.0303 6.21968C20.171 6.36033 20.25 6.5511 20.25 6.75001V10.7531C19.8385 10.5569 19.3825 10.4728 18.9281 10.5094C18.5434 10.5377 18.1696 10.6504 17.8334 10.8396C17.4971 11.0287 17.2067 11.2897 16.9828 11.6038C16.7589 11.918 16.607 12.2777 16.5379 12.6572C16.4688 13.0368 16.4843 13.4269 16.5831 13.7998C16.6819 14.1727 16.8617 14.5193 17.1098 14.8148C17.3578 15.1103 17.6679 15.3475 18.018 15.5096C18.3681 15.6716 18.7496 15.7545 19.1354 15.7523C19.5212 15.7501 19.9018 15.6629 20.25 15.4969V19.5C20.25 19.6989 20.171 19.8897 20.0303 20.0303C19.8897 20.171 19.6989 20.25 19.5 20.25H6.00001Z" stroke="#191C1F" stroke-width="1.5" stroke-linecap="round" stroke-linejoin="round"/>
</svg>
