<svg width="24" height="24" viewBox="0 0 24 24" fill="none" xmlns="http://www.w3.org/2000/svg">
<path d="M14.25 18.75C13.0031 18.75 12 17.7094 12 16.4156C12 15.1219 13.0031 14.0813 14.25 14.0813C14.5338 14.0791 14.8149 14.1366 15.075 14.25C15.2169 13.5548 15.5531 12.9141 16.0446 12.4024C16.5361 11.8907 17.1627 11.5289 17.8515 11.359C18.5404 11.1892 19.2634 11.2183 19.9364 11.4429C20.6094 11.6675 21.2049 12.0784 21.6537 12.628C22.1025 13.1775 22.3862 13.8431 22.4718 14.5475C22.5575 15.2518 22.4415 15.966 22.1374 16.6071C21.8334 17.2481 21.3537 17.7898 20.7541 18.1691C20.1544 18.5484 19.4595 18.7499 18.75 18.75H14.25Z" stroke="#191C1F" stroke-width="1.5" stroke-linecap="round" stroke-linejoin="round"/>
<path d="M1.5 16.4999V14.9999C1.50093 13.2313 2.02294 11.5021 3.00082 10.0285C3.97871 8.55478 5.36912 7.40187 6.99839 6.71376C8.62765 6.02565 10.4236 5.83283 12.1618 6.15939C13.9 6.48595 15.5034 7.3174 16.7719 8.54991" stroke="#191C1F" stroke-width="1.5" stroke-linecap="round" stroke-linejoin="round"/>
<path d="M4.5 16.5V15C4.4995 13.8905 4.80667 12.8025 5.38738 11.8571C5.96808 10.9116 6.79957 10.1457 7.78944 9.64448C8.7793 9.14323 9.88877 8.92628 10.9945 9.01773C12.1003 9.10918 13.1591 9.50546 14.0531 10.1625" stroke="#191C1F" stroke-width="1.5" stroke-linecap="round" stroke-linejoin="round"/>
<path d="M7.5 16.5V15C7.5 14.2044 7.81607 13.4413 8.37868 12.8787C8.94129 12.3161 9.70435 12 10.5 12C10.7339 11.9992 10.9669 12.0275 11.1938 12.0844" stroke="#191C1F" stroke-width="1.5" stroke-linecap="round" stroke-linejoin="round"/>
</svg>
