<svg width="24" height="24" viewBox="0 0 24 24" fill="none" xmlns="http://www.w3.org/2000/svg">
<path fill-rule="evenodd" clip-rule="evenodd" d="M14.7803 16.7197C15.0732 17.0126 15.0732 17.4874 14.7803 17.7803L13.0607 19.5L14.7803 21.2197C15.0732 21.5126 15.0732 21.9874 14.7803 22.2803C14.4874 22.5732 14.0126 22.5732 13.7197 22.2803L11.4697 20.0303C11.1768 19.7374 11.1768 19.2626 11.4697 18.9697L13.7197 16.7197C14.0126 16.4268 14.4874 16.4268 14.7803 16.7197Z" fill="#191C1F"/>
<path fill-rule="evenodd" clip-rule="evenodd" d="M18.4381 6.32561C18.8382 6.43294 19.0755 6.84427 18.9681 7.24434L18.1431 10.3193C18.0916 10.5116 17.9657 10.6754 17.7933 10.7748C17.6209 10.8742 17.416 10.9009 17.2238 10.8492L14.1582 10.0242C13.7582 9.91658 13.5212 9.50507 13.6289 9.10509C13.7365 8.70511 14.148 8.46812 14.548 8.57576L16.8889 9.20571L17.5194 6.85564C17.6267 6.45558 18.038 6.21827 18.4381 6.32561Z" fill="#191C1F"/>
<path fill-rule="evenodd" clip-rule="evenodd" d="M6.95605 9.47536C7.12835 9.57476 7.2541 9.73854 7.30564 9.93066L8.13064 13.0057C8.23798 13.4057 8.00067 13.817 7.60061 13.9244C7.20054 14.0317 6.78921 13.7944 6.68188 13.3943L6.05122 11.0437L3.70061 11.6744C3.30054 11.7817 2.88921 11.5444 2.78188 11.1443C2.67454 10.7443 2.91185 10.333 3.31191 10.2256L6.38691 9.40062C6.57903 9.34908 6.78376 9.37596 6.95605 9.47536Z" fill="#191C1F"/>
<path fill-rule="evenodd" clip-rule="evenodd" d="M18.9282 12.7192C19.2869 12.5122 19.7456 12.6351 19.9527 12.9938L22.1933 16.875C22.1933 16.875 22.1933 16.875 22.1933 16.8751C22.3904 17.2165 22.4944 17.6038 22.4947 17.998C22.4951 18.3923 22.3918 18.7798 22.1953 19.1216C21.9987 19.4634 21.7158 19.7476 21.3749 19.9456C21.0339 20.1437 20.6469 20.2486 20.2526 20.25L20.25 20.25H12C11.5858 20.25 11.25 19.9142 11.25 19.5C11.25 19.0858 11.5858 18.75 12 18.75H20.2485C20.3795 18.7494 20.5081 18.7144 20.6214 18.6486C20.7351 18.5825 20.8294 18.4878 20.8949 18.3739C20.9604 18.26 20.9948 18.1308 20.9947 17.9994C20.9946 17.8679 20.9599 17.7389 20.8942 17.625L20.8942 17.625L18.6536 13.7438C18.4465 13.385 18.5694 12.9263 18.9282 12.7192Z" fill="#191C1F"/>
<path fill-rule="evenodd" clip-rule="evenodd" d="M6.95702 9.47593C7.3155 9.68347 7.43785 10.1423 7.23032 10.5008L3.10576 17.625C3.1057 17.6251 3.10582 17.6249 3.10576 17.625C3.04017 17.7388 3.0054 17.868 3.00528 17.9993C3.00516 18.1308 3.03959 18.2599 3.1051 18.3739C3.17061 18.4878 3.26492 18.5825 3.37856 18.6485C3.49189 18.7144 3.62048 18.7493 3.75152 18.75H8.25C8.66421 18.75 9 19.0858 9 19.5C9 19.9142 8.66421 20.25 8.25 20.25H3.75L3.74736 20.25C3.35307 20.2486 2.96607 20.1436 2.62513 19.9456C2.28419 19.7475 2.00128 19.4634 1.80474 19.1216C1.6082 18.7798 1.50493 18.3923 1.50528 17.998C1.50563 17.6037 1.60958 17.2165 1.80673 16.875L5.93218 9.74923C6.13971 9.39075 6.59855 9.2684 6.95702 9.47593Z" fill="#191C1F"/>
<path fill-rule="evenodd" clip-rule="evenodd" d="M10.876 1.80208C11.2175 1.60405 11.6052 1.49976 12 1.49976C12.3947 1.49976 12.7825 1.60405 13.124 1.80208C13.4649 1.99976 13.7476 2.28384 13.9436 2.62564C13.944 2.62625 13.9443 2.62686 13.9447 2.62747L18.0678 9.74922C18.2753 10.1077 18.153 10.5665 17.7945 10.7741C17.436 10.9816 16.9772 10.8592 16.7697 10.5008L12.6428 3.37252C12.578 3.25927 12.4844 3.16515 12.3715 3.09969C12.2586 3.03423 12.1305 2.99976 12 2.99976C11.8695 2.99976 11.7413 3.03423 11.6285 3.09969C11.5156 3.16515 11.422 3.25926 11.3572 3.37252L11.3551 3.37615L9.10509 7.25739C8.89735 7.61574 8.43844 7.73784 8.08009 7.5301C7.72174 7.32236 7.59964 6.86345 7.80738 6.5051L10.0564 2.62546C10.2525 2.28373 10.5352 1.99972 10.876 1.80208Z" fill="#191C1F"/>
</svg>
