<svg width="24" height="24" viewBox="0 0 24 24" fill="none" xmlns="http://www.w3.org/2000/svg">
<path d="M17.625 4.5C18.4534 4.5 19.125 3.82843 19.125 3C19.125 2.17157 18.4534 1.5 17.625 1.5C16.7966 1.5 16.125 2.17157 16.125 3C16.125 3.82843 16.7966 4.5 17.625 4.5Z" stroke="#191C1F" stroke-width="1.5" stroke-linecap="round" stroke-linejoin="round"/>
<path d="M15.0938 16.5C14.1373 16.9941 13.0765 17.2519 12 17.2519C10.9235 17.2519 9.86266 16.9941 8.90625 16.5" stroke="#191C1F" stroke-width="1.5" stroke-linecap="round" stroke-linejoin="round"/>
<path d="M12 6.75L12.75 2.25L16.1437 2.775" stroke="#191C1F" stroke-width="1.5" stroke-linecap="round" stroke-linejoin="round"/>
<path d="M5.56876 8.42813C7.28438 7.37813 9.53438 6.75 12 6.75C14.4656 6.75 16.7156 7.37813 18.4313 8.42813C18.628 8.1581 18.8825 7.93529 19.1761 7.77586C19.4697 7.61644 19.7952 7.52441 20.1288 7.50646C20.4624 7.48851 20.7959 7.54508 21.1049 7.67208C21.4139 7.79907 21.6908 7.9933 21.9154 8.24065C22.14 8.488 22.3067 8.78227 22.4034 9.10209C22.5001 9.4219 22.5243 9.75924 22.4744 10.0896C22.4244 10.42 22.3015 10.735 22.1146 11.012C21.9277 11.2889 21.6815 11.5207 21.3938 11.6906V11.6906C21.6295 12.2647 21.7505 12.8794 21.75 13.5C21.75 17.2312 17.3813 20.25 12 20.25C6.61876 20.25 2.25001 17.2312 2.25001 13.5C2.2495 12.8794 2.37052 12.2647 2.60626 11.6906V11.6906C2.31856 11.5207 2.07231 11.2889 1.88539 11.012C1.69847 10.735 1.57558 10.42 1.52562 10.0896C1.47567 9.75924 1.49992 9.4219 1.59661 9.10209C1.6933 8.78227 1.86 8.488 2.0846 8.24065C2.30921 7.9933 2.58609 7.79907 2.89512 7.67208C3.20416 7.54508 3.5376 7.48851 3.87123 7.50646C4.20486 7.52441 4.5303 7.61644 4.82393 7.77586C5.11755 7.93529 5.37199 8.1581 5.56876 8.42813V8.42813Z" stroke="#191C1F" stroke-width="1.5" stroke-linecap="round" stroke-linejoin="round"/>
<path d="M8.25 13.875C9.07843 13.875 9.75 13.2034 9.75 12.375C9.75 11.5466 9.07843 10.875 8.25 10.875C7.42157 10.875 6.75 11.5466 6.75 12.375C6.75 13.2034 7.42157 13.875 8.25 13.875Z" fill="#191C1F"/>
<path d="M15.75 13.875C16.5784 13.875 17.25 13.2034 17.25 12.375C17.25 11.5466 16.5784 10.875 15.75 10.875C14.9216 10.875 14.25 11.5466 14.25 12.375C14.25 13.2034 14.9216 13.875 15.75 13.875Z" fill="#191C1F"/>
</svg>
