<svg width="24" height="24" viewBox="0 0 24 24" fill="none" xmlns="http://www.w3.org/2000/svg">
<path d="M8.82187 17.3062C7.75312 20.4844 3.51562 20.4844 3.51562 20.4844C3.51562 20.4844 3.51562 16.2469 6.69375 15.1781" stroke="#191C1F" stroke-width="1.5" stroke-linecap="round" stroke-linejoin="round"/>
<path d="M18.3657 9.88126L12 16.2469L7.75317 12L14.1188 5.63439C16.5282 3.22501 18.9376 3.25314 19.9688 3.40314C20.1279 3.42437 20.2757 3.49737 20.3892 3.61089C20.5027 3.72441 20.5757 3.87213 20.5969 4.03126C20.7469 5.06251 20.775 7.47189 18.3657 9.88126Z" stroke="#191C1F" stroke-width="1.5" stroke-linecap="round" stroke-linejoin="round"/>
<path d="M17.3063 10.9407V16.9969C17.3034 17.1948 17.2226 17.3835 17.0813 17.5219L14.0531 20.5594C13.9571 20.6554 13.8367 20.7235 13.705 20.7564C13.5733 20.7893 13.4351 20.7859 13.3052 20.7464C13.1752 20.707 13.0585 20.633 12.9673 20.5323C12.8761 20.4317 12.814 20.3082 12.7875 20.1751L12 16.2469" stroke="#191C1F" stroke-width="1.5" stroke-linecap="round" stroke-linejoin="round"/>
<path d="M13.0594 6.69373H7.00318C6.80535 6.69654 6.61665 6.77742 6.47818 6.91873L3.44068 9.94685C3.34472 10.0429 3.27664 10.1632 3.24371 10.295C3.21077 10.4267 3.21422 10.5649 3.25368 10.6948C3.29314 10.8247 3.36713 10.9415 3.46776 11.0327C3.56838 11.1239 3.69188 11.186 3.82505 11.2125L7.75318 12" stroke="#191C1F" stroke-width="1.5" stroke-linecap="round" stroke-linejoin="round"/>
</svg>
