<svg width="24" height="24" viewBox="0 0 24 24" fill="none" xmlns="http://www.w3.org/2000/svg">
<path d="M13.5 21H10.5" stroke="#191C1F" stroke-width="1.5" stroke-linecap="round" stroke-linejoin="round"/>
<path d="M11.5312 1.85628C9.74995 3.28128 3.79682 8.98128 8.99995 18H14.9999C20.0999 8.98128 14.2312 3.29066 12.4687 1.85628C12.3372 1.74645 12.1713 1.68628 11.9999 1.68628C11.8286 1.68628 11.6627 1.74645 11.5312 1.85628Z" stroke="#191C1F" stroke-width="1.5" stroke-linecap="round" stroke-linejoin="round"/>
<path d="M6.92814 10.4437L3.98439 13.9687C3.91023 14.0552 3.85791 14.1583 3.83181 14.2692C3.80571 14.3801 3.80659 14.4957 3.83439 14.6062L4.98752 19.8281C5.01534 19.9522 5.07428 20.0672 5.15879 20.1623C5.2433 20.2574 5.3506 20.3294 5.47061 20.3716C5.59061 20.4138 5.71937 20.4247 5.84479 20.4035C5.9702 20.3822 6.08814 20.3294 6.18752 20.25L9.00002 18" stroke="#191C1F" stroke-width="1.5" stroke-linecap="round" stroke-linejoin="round"/>
<path d="M17.0156 10.3688L20.0156 13.9688C20.0898 14.0553 20.1421 14.1583 20.1682 14.2693C20.1943 14.3802 20.1934 14.4958 20.1656 14.6063L19.0125 19.8281C18.9847 19.9523 18.9257 20.0673 18.8412 20.1624C18.7567 20.2574 18.6494 20.3294 18.5294 20.3716C18.4094 20.4138 18.2806 20.4248 18.1552 20.4035C18.0298 20.3823 17.9119 20.3294 17.8125 20.25L15 18" stroke="#191C1F" stroke-width="1.5" stroke-linecap="round" stroke-linejoin="round"/>
<path d="M12 10.125C12.6213 10.125 13.125 9.62132 13.125 9C13.125 8.37868 12.6213 7.875 12 7.875C11.3787 7.875 10.875 8.37868 10.875 9C10.875 9.62132 11.3787 10.125 12 10.125Z" fill="#191C1F"/>
</svg>
