<svg width="24" height="24" viewBox="0 0 24 24" fill="none" xmlns="http://www.w3.org/2000/svg">
<path d="M4.5 13.5C5.28863 13.4976 6.06996 13.6511 6.79903 13.9517C7.5281 14.2524 8.19052 14.6942 8.74816 15.2519C9.30581 15.8095 9.74767 16.4719 10.0483 17.201C10.349 17.9301 10.5025 18.7114 10.5 19.5" stroke="#191C1F" stroke-width="1.5" stroke-linecap="round" stroke-linejoin="round"/>
<path d="M4.5 9C7.28477 9 9.95549 10.1062 11.9246 12.0754C13.8938 14.0445 15 16.7152 15 19.5" stroke="#191C1F" stroke-width="1.5" stroke-linecap="round" stroke-linejoin="round"/>
<path d="M4.5 4.50003C6.47017 4.49632 8.42156 4.88297 10.2415 5.63764C12.0614 6.39232 13.7137 7.50006 15.1031 8.8969C16.5 10.2863 17.6077 11.9387 18.3624 13.7586C19.1171 15.5785 19.5037 17.5299 19.5 19.5" stroke="#191C1F" stroke-width="1.5" stroke-linecap="round" stroke-linejoin="round"/>
<path d="M4.875 20.25C5.49632 20.25 6 19.7463 6 19.125C6 18.5037 5.49632 18 4.875 18C4.25368 18 3.75 18.5037 3.75 19.125C3.75 19.7463 4.25368 20.25 4.875 20.25Z" fill="#191C1F"/>
</svg>
