<svg width="24" height="24" viewBox="0 0 24 24" fill="none" xmlns="http://www.w3.org/2000/svg">
<path fill-rule="evenodd" clip-rule="evenodd" d="M2.25036 16.8061C1.66457 16.2204 1.66457 15.2706 2.25036 14.6848L14.6866 2.24858C15.2724 1.66279 16.2221 1.6628 16.8079 2.24858L21.7473 7.18794C22.3331 7.77373 22.3331 8.72348 21.7473 9.30926L9.31104 21.7455C8.72525 22.3313 7.77551 22.3313 7.18972 21.7455L2.25036 16.8061ZM15.7473 3.30924L3.31102 15.7455L8.25038 20.6848L20.6866 8.2486L15.7473 3.30924Z" fill="#191C1F"/>
<path fill-rule="evenodd" clip-rule="evenodd" d="M11.8447 5.09467C12.1376 4.80178 12.6124 4.80178 12.9053 5.09467L15.9053 8.09467C16.1982 8.38756 16.1982 8.86244 15.9053 9.15533C15.6124 9.44822 15.1376 9.44822 14.8447 9.15533L11.8447 6.15533C11.5518 5.86244 11.5518 5.38756 11.8447 5.09467Z" fill="#191C1F"/>
<path fill-rule="evenodd" clip-rule="evenodd" d="M8.46967 8.46967C8.76256 8.17678 9.23744 8.17678 9.53033 8.46967L12.5303 11.4697C12.8232 11.7626 12.8232 12.2374 12.5303 12.5303C12.2374 12.8232 11.7626 12.8232 11.4697 12.5303L8.46967 9.53033C8.17678 9.23744 8.17678 8.76256 8.46967 8.46967Z" fill="#191C1F"/>
<path fill-rule="evenodd" clip-rule="evenodd" d="M5.09467 11.8447C5.38756 11.5518 5.86244 11.5518 6.15533 11.8447L9.15533 14.8447C9.44822 15.1376 9.44822 15.6124 9.15533 15.9053C8.86244 16.1982 8.38756 16.1982 8.09467 15.9053L5.09467 12.9053C4.80178 12.6124 4.80178 12.1376 5.09467 11.8447Z" fill="#191C1F"/>
</svg>
