<svg width="24" height="24" viewBox="0 0 24 24" fill="none" xmlns="http://www.w3.org/2000/svg">
<path fill-rule="evenodd" clip-rule="evenodd" d="M5.625 5.25C4.58947 5.25 3.75 6.08947 3.75 7.125C3.75 8.16053 4.58947 9 5.625 9C6.66053 9 7.5 8.16053 7.5 7.125C7.5 6.08947 6.66053 5.25 5.625 5.25ZM2.25 7.125C2.25 5.26104 3.76104 3.75 5.625 3.75C7.48896 3.75 9 5.26104 9 7.125C9 8.98896 7.48896 10.5 5.625 10.5C3.76104 10.5 2.25 8.98896 2.25 7.125Z" fill="#191C1F"/>
<path fill-rule="evenodd" clip-rule="evenodd" d="M5.625 15C4.58947 15 3.75 15.8395 3.75 16.875C3.75 17.9105 4.58947 18.75 5.625 18.75C6.66053 18.75 7.5 17.9105 7.5 16.875C7.5 15.8395 6.66053 15 5.625 15ZM2.25 16.875C2.25 15.011 3.76104 13.5 5.625 13.5C7.48896 13.5 9 15.011 9 16.875C9 18.739 7.48896 20.25 5.625 20.25C3.76104 20.25 2.25 18.739 2.25 16.875Z" fill="#191C1F"/>
<path fill-rule="evenodd" clip-rule="evenodd" d="M13.3689 11.5764C13.6028 11.9182 13.5154 12.385 13.1735 12.6189L8.21415 16.0127C7.87232 16.2466 7.40557 16.1591 7.17165 15.8173C6.93772 15.4754 7.02521 15.0087 7.36704 14.7747L12.3264 11.381C12.6683 11.1471 13.135 11.2346 13.3689 11.5764Z" fill="#191C1F"/>
<path fill-rule="evenodd" clip-rule="evenodd" d="M22.3691 5.41727C22.6029 5.75917 22.5153 6.22589 22.1734 6.45972L15.8265 10.8003C15.4846 11.0342 15.0179 10.9466 14.7841 10.6047C14.5503 10.2628 14.6379 9.79603 14.9798 9.5622L21.3266 5.22158C21.6685 4.98775 22.1353 5.07536 22.3691 5.41727Z" fill="#191C1F"/>
<path fill-rule="evenodd" clip-rule="evenodd" d="M7.17166 8.1827C7.40559 7.84087 7.87234 7.7534 8.21417 7.98733L22.1735 17.5405C22.5154 17.7744 22.6028 18.2411 22.3689 18.583C22.135 18.9248 21.6682 19.0123 21.3264 18.7783L7.36703 9.22521C7.0252 8.99128 6.93773 8.52453 7.17166 8.1827Z" fill="#191C1F"/>
</svg>
