<svg width="24" height="24" viewBox="0 0 24 24" fill="none" xmlns="http://www.w3.org/2000/svg">
<path fill-rule="evenodd" clip-rule="evenodd" d="M3 9C3 8.17157 3.67157 7.5 4.5 7.5H15C15.8284 7.5 16.5 8.17157 16.5 9V19.5C16.5 20.3284 15.8284 21 15 21H4.5C3.67157 21 3 20.3284 3 19.5V9ZM15 9H4.5V19.5H15V9Z" fill="#191C1F"/>
<path fill-rule="evenodd" clip-rule="evenodd" d="M12.75 3.75C12.75 3.33579 13.0858 3 13.5 3H15C15.4142 3 15.75 3.33579 15.75 3.75C15.75 4.16421 15.4142 4.5 15 4.5H13.5C13.0858 4.5 12.75 4.16421 12.75 3.75Z" fill="#191C1F"/>
<path fill-rule="evenodd" clip-rule="evenodd" d="M18 3.75C18 3.33579 18.3358 3 18.75 3H19.5C19.8978 3 20.2794 3.15804 20.5607 3.43934C20.842 3.72065 21 4.10218 21 4.5V5.25C21 5.66421 20.6642 6 20.25 6C19.8358 6 19.5 5.66421 19.5 5.25V4.5H18.75C18.3358 4.5 18 4.16421 18 3.75Z" fill="#191C1F"/>
<path fill-rule="evenodd" clip-rule="evenodd" d="M20.25 8.25C20.6642 8.25 21 8.58579 21 9V10.5C21 10.9142 20.6642 11.25 20.25 11.25C19.8358 11.25 19.5 10.9142 19.5 10.5V9C19.5 8.58579 19.8358 8.25 20.25 8.25Z" fill="#191C1F"/>
<path fill-rule="evenodd" clip-rule="evenodd" d="M20.25 13.5C20.6642 13.5 21 13.8358 21 14.25V15C21 15.3978 20.842 15.7794 20.5607 16.0607C20.2794 16.342 19.8978 16.5 19.5 16.5H18.75C18.3358 16.5 18 16.1642 18 15.75C18 15.3358 18.3358 15 18.75 15H19.5V14.25C19.5 13.8358 19.8358 13.5 20.25 13.5Z" fill="#191C1F"/>
<path fill-rule="evenodd" clip-rule="evenodd" d="M7.93934 3.43934C8.22064 3.15804 8.60217 3 9 3H9.75C10.1642 3 10.5 3.33579 10.5 3.75C10.5 4.16421 10.1642 4.5 9.75 4.5L9 4.5L9 5.25C9 5.66421 8.66421 6 8.25 6C7.83579 6 7.5 5.66421 7.5 5.25V4.5C7.5 4.10217 7.65804 3.72064 7.93934 3.43934Z" fill="#191C1F"/>
</svg>
