<svg width="24" height="24" viewBox="0 0 24 24" fill="none" xmlns="http://www.w3.org/2000/svg">
<path fill-rule="evenodd" clip-rule="evenodd" d="M10.125 4.5C10.125 4.08579 10.4608 3.75 10.875 3.75H13.125C13.5392 3.75 13.875 4.08579 13.875 4.5C13.875 4.91421 13.5392 5.25 13.125 5.25H10.875C10.4608 5.25 10.125 4.91421 10.125 4.5Z" fill="#191C1F"/>
<path fill-rule="evenodd" clip-rule="evenodd" d="M10.125 19.5C10.125 19.0858 10.4608 18.75 10.875 18.75H13.125C13.5392 18.75 13.875 19.0858 13.875 19.5C13.875 19.9142 13.5392 20.25 13.125 20.25H10.875C10.4608 20.25 10.125 19.9142 10.125 19.5Z" fill="#191C1F"/>
<path fill-rule="evenodd" clip-rule="evenodd" d="M16.125 4.5C16.125 4.08579 16.4608 3.75 16.875 3.75H18.75C19.1478 3.75 19.5294 3.90804 19.8107 4.18934C20.092 4.47065 20.25 4.85218 20.25 5.25V7.125C20.25 7.53921 19.9142 7.875 19.5 7.875C19.0858 7.875 18.75 7.53921 18.75 7.125L18.75 5.25L16.875 5.25C16.4608 5.25 16.125 4.91421 16.125 4.5Z" fill="#191C1F"/>
<path fill-rule="evenodd" clip-rule="evenodd" d="M19.5 10.125C19.9142 10.125 20.25 10.4608 20.25 10.875V13.125C20.25 13.5392 19.9142 13.875 19.5 13.875C19.0858 13.875 18.75 13.5392 18.75 13.125V10.875C18.75 10.4608 19.0858 10.125 19.5 10.125Z" fill="#191C1F"/>
<path fill-rule="evenodd" clip-rule="evenodd" d="M4.5 10.125C4.91421 10.125 5.25 10.4608 5.25 10.875V13.125C5.25 13.5392 4.91421 13.875 4.5 13.875C4.08579 13.875 3.75 13.5392 3.75 13.125V10.875C3.75 10.4608 4.08579 10.125 4.5 10.125Z" fill="#191C1F"/>
<path fill-rule="evenodd" clip-rule="evenodd" d="M4.5 16.125C4.91421 16.125 5.25 16.4608 5.25 16.875V18.75H7.125C7.53921 18.75 7.875 19.0858 7.875 19.5C7.875 19.9142 7.53921 20.25 7.125 20.25H5.25C4.85218 20.25 4.47065 20.092 4.18934 19.8107C3.90804 19.5294 3.75 19.1478 3.75 18.75V16.875C3.75 16.4608 4.08579 16.125 4.5 16.125Z" fill="#191C1F"/>
<path fill-rule="evenodd" clip-rule="evenodd" d="M4.18934 4.18934C4.47064 3.90804 4.85217 3.75 5.25 3.75H7.125C7.53921 3.75 7.875 4.08579 7.875 4.5C7.875 4.91421 7.53921 5.25 7.125 5.25L5.25 5.25L5.25 7.125C5.25 7.53921 4.91421 7.875 4.5 7.875C4.08579 7.875 3.75 7.53921 3.75 7.125V5.25C3.75 4.85217 3.90804 4.47064 4.18934 4.18934Z" fill="#191C1F"/>
<path fill-rule="evenodd" clip-rule="evenodd" d="M19.5 16.125C19.9142 16.125 20.25 16.4608 20.25 16.875V22.125C20.25 22.5392 19.9142 22.875 19.5 22.875C19.0858 22.875 18.75 22.5392 18.75 22.125V16.875C18.75 16.4608 19.0858 16.125 19.5 16.125Z" fill="#191C1F"/>
<path fill-rule="evenodd" clip-rule="evenodd" d="M16.125 19.5C16.125 19.0858 16.4608 18.75 16.875 18.75H22.125C22.5392 18.75 22.875 19.0858 22.875 19.5C22.875 19.9142 22.5392 20.25 22.125 20.25H16.875C16.4608 20.25 16.125 19.9142 16.125 19.5Z" fill="#191C1F"/>
</svg>
