<svg width="24" height="24" viewBox="0 0 24 24" fill="none" xmlns="http://www.w3.org/2000/svg">
<path fill-rule="evenodd" clip-rule="evenodd" d="M9.75 3.75C9.75 3.33579 10.0858 3 10.5 3H13.5C13.9142 3 14.25 3.33579 14.25 3.75C14.25 4.16421 13.9142 4.5 13.5 4.5H10.5C10.0858 4.5 9.75 4.16421 9.75 3.75Z" fill="#191C1F"/>
<path fill-rule="evenodd" clip-rule="evenodd" d="M9.75 20.25C9.75 19.8358 10.0858 19.5 10.5 19.5H13.5C13.9142 19.5 14.25 19.8358 14.25 20.25C14.25 20.6642 13.9142 21 13.5 21H10.5C10.0858 21 9.75 20.6642 9.75 20.25Z" fill="#191C1F"/>
<path fill-rule="evenodd" clip-rule="evenodd" d="M16.5 3.75C16.5 3.33579 16.8358 3 17.25 3H19.5C19.8978 3 20.2794 3.15804 20.5607 3.43934C20.842 3.72065 21 4.10218 21 4.5V6.75C21 7.16421 20.6642 7.5 20.25 7.5C19.8358 7.5 19.5 7.16421 19.5 6.75L19.5 4.5L17.25 4.5C16.8358 4.5 16.5 4.16421 16.5 3.75Z" fill="#191C1F"/>
<path fill-rule="evenodd" clip-rule="evenodd" d="M20.25 9.75C20.6642 9.75 21 10.0858 21 10.5V13.5C21 13.9142 20.6642 14.25 20.25 14.25C19.8358 14.25 19.5 13.9142 19.5 13.5V10.5C19.5 10.0858 19.8358 9.75 20.25 9.75Z" fill="#191C1F"/>
<path fill-rule="evenodd" clip-rule="evenodd" d="M3.75 9.75C4.16421 9.75 4.5 10.0858 4.5 10.5V13.5C4.5 13.9142 4.16421 14.25 3.75 14.25C3.33579 14.25 3 13.9142 3 13.5V10.5C3 10.0858 3.33579 9.75 3.75 9.75Z" fill="#191C1F"/>
<path fill-rule="evenodd" clip-rule="evenodd" d="M3.75 16.5C4.16421 16.5 4.5 16.8358 4.5 17.25V19.5H6.75C7.16421 19.5 7.5 19.8358 7.5 20.25C7.5 20.6642 7.16421 21 6.75 21H4.5C4.10218 21 3.72065 20.842 3.43934 20.5607C3.15804 20.2794 3 19.8978 3 19.5V17.25C3 16.8358 3.33579 16.5 3.75 16.5Z" fill="#191C1F"/>
<path fill-rule="evenodd" clip-rule="evenodd" d="M3.9955 3.19505C4.30199 2.91642 4.77633 2.93901 5.05496 3.2455L20.055 19.7455C20.3336 20.052 20.311 20.5263 20.0045 20.805C19.698 21.0836 19.2237 21.061 18.9451 20.7545L3.94505 4.25451C3.66642 3.94802 3.68901 3.47368 3.9955 3.19505Z" fill="#191C1F"/>
</svg>
