<svg width="24" height="24" viewBox="0 0 24 24" fill="none" xmlns="http://www.w3.org/2000/svg">
<path fill-rule="evenodd" clip-rule="evenodd" d="M9.75 20.25C9.75 19.8358 10.0858 19.5 10.5 19.5H13.5C13.9142 19.5 14.25 19.8358 14.25 20.25C14.25 20.6642 13.9142 21 13.5 21H10.5C10.0858 21 9.75 20.6642 9.75 20.25Z" fill="#191C1F"/>
<path fill-rule="evenodd" clip-rule="evenodd" d="M3.75 9.75C4.16421 9.75 4.5 10.0858 4.5 10.5V13.5C4.5 13.9142 4.16421 14.25 3.75 14.25C3.33579 14.25 3 13.9142 3 13.5V10.5C3 10.0858 3.33579 9.75 3.75 9.75Z" fill="#191C1F"/>
<path fill-rule="evenodd" clip-rule="evenodd" d="M3.75 16.5C4.16421 16.5 4.5 16.8358 4.5 17.25V19.5H6.75C7.16421 19.5 7.5 19.8358 7.5 20.25C7.5 20.6642 7.16421 21 6.75 21H4.5C4.10218 21 3.72065 20.842 3.43934 20.5607C3.15804 20.2794 3 19.8978 3 19.5V17.25C3 16.8358 3.33579 16.5 3.75 16.5Z" fill="#191C1F"/>
<path fill-rule="evenodd" clip-rule="evenodd" d="M3.43934 3.43934C3.72064 3.15804 4.10217 3 4.5 3H19.5C19.8978 3 20.2794 3.15804 20.5607 3.43934C20.842 3.72065 21 4.10218 21 4.5V19.5C21 19.8978 20.842 20.2794 20.5607 20.5607C20.2794 20.842 19.8978 21 19.5 21H17.25C16.8358 21 16.5 20.6642 16.5 20.25C16.5 19.8358 16.8358 19.5 17.25 19.5H19.5V4.5H4.5L4.5 6.75C4.5 7.16421 4.16421 7.5 3.75 7.5C3.33579 7.5 3 7.16421 3 6.75V4.5C3 4.10217 3.15804 3.72064 3.43934 3.43934Z" fill="#191C1F"/>
<path fill-rule="evenodd" clip-rule="evenodd" d="M3.43531 3.43525C3.7282 3.14235 4.20307 3.14235 4.49597 3.43525L20.5647 19.504C20.8576 19.7969 20.8576 20.2718 20.5647 20.5647C20.2718 20.8575 19.7969 20.8575 19.5041 20.5647L3.43531 4.49591C3.14241 4.20301 3.14241 3.72814 3.43531 3.43525Z" fill="#191C1F"/>
</svg>
