<svg width="24" height="24" viewBox="0 0 24 24" fill="none" xmlns="http://www.w3.org/2000/svg">
<path fill-rule="evenodd" clip-rule="evenodd" d="M3.75 18C4.16421 18 4.5 18.3358 4.5 18.75L4.5 19.5L5.25 19.5C5.66421 19.5 6 19.8358 6 20.25C6 20.6642 5.66421 21 5.25 21H4.5C4.10218 21 3.72065 20.842 3.43934 20.5607C3.15804 20.2794 3 19.8978 3 19.5V18.75C3 18.3358 3.33579 18 3.75 18Z" fill="#191C1F"/>
<path fill-rule="evenodd" clip-rule="evenodd" d="M7.5 8.25C7.5 7.83579 7.83579 7.5 8.25 7.5H10.5C10.9142 7.5 11.25 7.83579 11.25 8.25C11.25 8.66421 10.9142 9 10.5 9H8.25C7.83579 9 7.5 8.66421 7.5 8.25Z" fill="#191C1F"/>
<path fill-rule="evenodd" clip-rule="evenodd" d="M8.25 20.25C8.25 19.8358 8.58579 19.5 9 19.5H10.5C10.9142 19.5 11.25 19.8358 11.25 20.25C11.25 20.6642 10.9142 21 10.5 21H9C8.58579 21 8.25 20.6642 8.25 20.25Z" fill="#191C1F"/>
<path fill-rule="evenodd" clip-rule="evenodd" d="M15.75 12.75C16.1642 12.75 16.5 13.0858 16.5 13.5V15.75C16.5 16.1642 16.1642 16.5 15.75 16.5C15.3358 16.5 15 16.1642 15 15.75V13.5C15 13.0858 15.3358 12.75 15.75 12.75Z" fill="#191C1F"/>
<path fill-rule="evenodd" clip-rule="evenodd" d="M3.75 12.75C4.16421 12.75 4.5 13.0858 4.5 13.5V15C4.5 15.4142 4.16421 15.75 3.75 15.75C3.33579 15.75 3 15.4142 3 15V13.5C3 13.0858 3.33579 12.75 3.75 12.75Z" fill="#191C1F"/>
<path fill-rule="evenodd" clip-rule="evenodd" d="M15.75 18C16.1642 18 16.5 18.3358 16.5 18.75V19.5C16.5 19.8978 16.342 20.2794 16.0607 20.5607C15.7794 20.842 15.3978 21 15 21H14.25C13.8358 21 13.5 20.6642 13.5 20.25C13.5 19.8358 13.8358 19.5 14.25 19.5H15V18.75C15 18.3358 15.3358 18 15.75 18Z" fill="#191C1F"/>
<path fill-rule="evenodd" clip-rule="evenodd" d="M13.5 8.25C13.5 7.83579 13.8358 7.5 14.25 7.5H15C15.3978 7.5 15.7794 7.65804 16.0607 7.93934C16.342 8.22065 16.5 8.60218 16.5 9V9.75C16.5 10.1642 16.1642 10.5 15.75 10.5C15.3358 10.5 15 10.1642 15 9.75V9H14.25C13.8358 9 13.5 8.66421 13.5 8.25Z" fill="#191C1F"/>
<path fill-rule="evenodd" clip-rule="evenodd" d="M3.43934 7.93934C3.72064 7.65804 4.10217 7.5 4.5 7.5H5.25C5.66421 7.5 6 7.83579 6 8.25C6 8.66421 5.66421 9 5.25 9L4.5 9L4.5 9.75C4.5 10.1642 4.16421 10.5 3.75 10.5C3.33579 10.5 3 10.1642 3 9.75V9C3 8.60217 3.15804 8.22064 3.43934 7.93934Z" fill="#191C1F"/>
<path fill-rule="evenodd" clip-rule="evenodd" d="M7.93934 3.43934C8.22064 3.15804 8.60217 3 9 3H19.5C19.8978 3 20.2794 3.15804 20.5607 3.43934C20.842 3.72065 21 4.10218 21 4.5V15C21 15.3978 20.842 15.7794 20.5607 16.0607C20.2794 16.342 19.8978 16.5 19.5 16.5H15.75C15.3358 16.5 15 16.1642 15 15.75C15 15.3358 15.3358 15 15.75 15H19.5L19.5 4.5H9L9 8.25C9 8.66421 8.66421 9 8.25 9C7.83579 9 7.5 8.66421 7.5 8.25V4.5C7.5 4.10217 7.65804 3.72064 7.93934 3.43934Z" fill="#191C1F"/>
</svg>
