<svg width="24" height="24" viewBox="0 0 24 24" fill="none" xmlns="http://www.w3.org/2000/svg">
<path d="M3.75 10.7531V5.25C3.75 5.05109 3.82902 4.86032 3.96967 4.71967C4.11032 4.57902 4.30109 4.5 4.5 4.5H19.5C19.6989 4.5 19.8897 4.57902 20.0303 4.71967C20.171 4.86032 20.25 5.05109 20.25 5.25V10.7531C20.25 18.6281 13.5656 21.2344 12.2344 21.675C12.0831 21.731 11.9169 21.731 11.7656 21.675C10.4344 21.2344 3.75 18.6281 3.75 10.7531Z" stroke="#191C1F" stroke-width="1.5" stroke-linecap="round" stroke-linejoin="round"/>
<path d="M12 9V12.75" stroke="#191C1F" stroke-width="1.5" stroke-linecap="round" stroke-linejoin="round"/>
<path d="M12 17.25C12.6213 17.25 13.125 16.7463 13.125 16.125C13.125 15.5037 12.6213 15 12 15C11.3787 15 10.875 15.5037 10.875 16.125C10.875 16.7463 11.3787 17.25 12 17.25Z" fill="#191C1F"/>
</svg>
