<svg width="24" height="24" viewBox="0 0 24 24" fill="none" xmlns="http://www.w3.org/2000/svg">
<path d="M5.625 22.5C6.24632 22.5 6.75 21.9963 6.75 21.375C6.75 20.7537 6.24632 20.25 5.625 20.25C5.00368 20.25 4.5 20.7537 4.5 21.375C4.5 21.9963 5.00368 22.5 5.625 22.5Z" fill="#191C1F"/>
<path d="M8.25 19.875C8.87132 19.875 9.375 19.3713 9.375 18.75C9.375 18.1287 8.87132 17.625 8.25 17.625C7.62868 17.625 7.125 18.1287 7.125 18.75C7.125 19.3713 7.62868 19.875 8.25 19.875Z" fill="#191C1F"/>
<path d="M2.625 19.5C3.24632 19.5 3.75 18.9963 3.75 18.375C3.75 17.7537 3.24632 17.25 2.625 17.25C2.00368 17.25 1.5 17.7537 1.5 18.375C1.5 18.9963 2.00368 19.5 2.625 19.5Z" fill="#191C1F"/>
<path d="M5.25 16.875C5.87132 16.875 6.375 16.3713 6.375 15.75C6.375 15.1287 5.87132 14.625 5.25 14.625C4.62868 14.625 4.125 15.1287 4.125 15.75C4.125 16.3713 4.62868 16.875 5.25 16.875Z" fill="#191C1F"/>
<path d="M23.25 3.75H20.5594C20.462 3.74966 20.3655 3.76853 20.2754 3.80553C20.1853 3.84253 20.1034 3.89694 20.0344 3.96563L17.25 6.75L5.18436 8.75626C5.04777 8.77886 4.9201 8.83882 4.81549 8.92952C4.71089 9.02021 4.63342 9.13809 4.59169 9.27009C4.54995 9.4021 4.54556 9.54309 4.57902 9.67743C4.61248 9.81178 4.68247 9.93424 4.78124 10.0313L13.9687 19.2188C14.0658 19.3175 14.1882 19.3875 14.3226 19.421C14.4569 19.4544 14.5979 19.45 14.7299 19.4083C14.8619 19.3666 14.9798 19.2891 15.0705 19.1845C15.1612 19.0799 15.2211 18.9522 15.2437 18.8156L17.25 6.75" stroke="#191C1F" stroke-width="1.5" stroke-linecap="round" stroke-linejoin="round"/>
</svg>
