<svg width="24" height="24" viewBox="0 0 24 24" fill="none" xmlns="http://www.w3.org/2000/svg">
<path d="M3 6.75002H7.86563C7.98555 6.74911 8.10385 6.7777 8.21012 6.83329C8.31639 6.88888 8.40735 6.96975 8.475 7.06877L15.525 16.9313C15.5926 17.0303 15.6836 17.1112 15.7899 17.1667C15.8961 17.2223 16.0145 17.2509 16.1344 17.25H21.75" stroke="#191C1F" stroke-width="1.5" stroke-linecap="round" stroke-linejoin="round"/>
<path d="M19.5 4.5L21.75 6.75L19.5 9" stroke="#191C1F" stroke-width="1.5" stroke-linecap="round" stroke-linejoin="round"/>
<path d="M19.5 15L21.75 17.25L19.5 19.5" stroke="#191C1F" stroke-width="1.5" stroke-linecap="round" stroke-linejoin="round"/>
<path d="M13.8469 9.4219L15.525 7.06877C15.5927 6.96975 15.6837 6.88888 15.7899 6.83329C15.8962 6.7777 16.0145 6.74911 16.1344 6.75002H21.75" stroke="#191C1F" stroke-width="1.5" stroke-linecap="round" stroke-linejoin="round"/>
<path d="M3 17.25H7.86563C7.98555 17.2509 8.10386 17.2223 8.21012 17.1667C8.31639 17.1111 8.40735 17.0303 8.475 16.9313L10.1531 14.5781" stroke="#191C1F" stroke-width="1.5" stroke-linecap="round" stroke-linejoin="round"/>
</svg>
