<svg width="24" height="24" viewBox="0 0 24 24" fill="none" xmlns="http://www.w3.org/2000/svg">
<path fill-rule="evenodd" clip-rule="evenodd" d="M8.25 3.75C8.66421 3.75 9 4.08579 9 4.5V19.5C9 19.9142 8.66421 20.25 8.25 20.25C7.83579 20.25 7.5 19.9142 7.5 19.5V4.5C7.5 4.08579 7.83579 3.75 8.25 3.75Z" fill="#191C1F"/>
<path fill-rule="evenodd" clip-rule="evenodd" d="M2.25 5.25C2.25 4.42157 2.92157 3.75 3.75 3.75H20.25C21.0784 3.75 21.75 4.42157 21.75 5.25V18.75C21.75 19.5784 21.0784 20.25 20.25 20.25H3.75C2.92157 20.25 2.25 19.5784 2.25 18.75V5.25ZM20.25 5.25H3.75V18.75H20.25V5.25Z" fill="#191C1F"/>
</svg>
