<svg width="24" height="24" viewBox="0 0 24 24" fill="none" xmlns="http://www.w3.org/2000/svg">
<path d="M6.29998 11.3625L17.6062 4.44373C17.7205 4.37325 17.8515 4.33472 17.9858 4.33217C18.12 4.32961 18.2524 4.36312 18.3692 4.42921C18.4861 4.49529 18.5831 4.59152 18.65 4.70786C18.717 4.8242 18.7515 4.95638 18.75 5.09061V18.9094C18.7515 19.0436 18.717 19.1758 18.65 19.2921C18.5831 19.4084 18.4861 19.5047 18.3692 19.5708C18.2524 19.6368 18.12 19.6704 17.9858 19.6678C17.8515 19.6652 17.7205 19.6267 17.6062 19.5562L6.29998 12.6375C6.19145 12.5702 6.10189 12.4764 6.03978 12.3648C5.97767 12.2532 5.94507 12.1277 5.94507 12C5.94507 11.8723 5.97767 11.7467 6.03978 11.6352C6.10189 11.5236 6.19145 11.4297 6.29998 11.3625Z" stroke="#191C1F" stroke-width="1.5" stroke-linecap="round" stroke-linejoin="round"/>
<path d="M5.25 3.75V20.25" stroke="#191C1F" stroke-width="1.5" stroke-linecap="round" stroke-linejoin="round"/>
</svg>
