<svg width="24" height="24" viewBox="0 0 24 24" fill="none" xmlns="http://www.w3.org/2000/svg">
<path d="M8.625 14.25C9.66053 14.25 10.5 13.4105 10.5 12.375C10.5 11.3395 9.66053 10.5 8.625 10.5C7.58947 10.5 6.75 11.3395 6.75 12.375C6.75 13.4105 7.58947 14.25 8.625 14.25Z" stroke="#191C1F" stroke-width="1.5" stroke-linecap="round" stroke-linejoin="round"/>
<path d="M15.375 14.25C16.4105 14.25 17.25 13.4105 17.25 12.375C17.25 11.3395 16.4105 10.5 15.375 10.5C14.3395 10.5 13.5 11.3395 13.5 12.375C13.5 13.4105 14.3395 14.25 15.375 14.25Z" stroke="#191C1F" stroke-width="1.5" stroke-linecap="round" stroke-linejoin="round"/>
<path d="M7.5 18.2344C5.89617 17.2535 4.65674 15.7755 3.97037 14.0253C3.284 12.275 3.18828 10.3485 3.69778 8.53887C4.20728 6.72923 5.2941 5.13562 6.7928 4.00061C8.2915 2.8656 10.12 2.25134 12 2.25134C13.88 2.25134 15.7085 2.8656 17.2072 4.00061C18.7059 5.13562 19.7927 6.72923 20.3022 8.53887C20.8117 10.3485 20.716 12.275 20.0296 14.0253C19.3433 15.7755 18.1038 17.2535 16.5 18.2344V20.25C16.5 20.4489 16.421 20.6397 16.2803 20.7803C16.1397 20.921 15.9489 21 15.75 21H8.25C8.05109 21 7.86032 20.921 7.71967 20.7803C7.57902 20.6397 7.5 20.4489 7.5 20.25V18.2344Z" stroke="#191C1F" stroke-width="1.5" stroke-linecap="round" stroke-linejoin="round"/>
<path d="M10.5 21V18" stroke="#191C1F" stroke-width="1.5" stroke-linecap="round" stroke-linejoin="round"/>
<path d="M13.5 21V18" stroke="#191C1F" stroke-width="1.5" stroke-linecap="round" stroke-linejoin="round"/>
</svg>
