<svg width="24" height="24" viewBox="0 0 24 24" fill="none" xmlns="http://www.w3.org/2000/svg">
<path d="M12 9.75V12H5.25C4.65326 12 4.08097 11.7629 3.65901 11.341C3.23705 10.919 3 10.3467 3 9.75C3 9.15326 3.23705 8.58097 3.65901 8.15901C4.08097 7.73705 4.65326 7.5 5.25 7.5H9.75C10.3467 7.5 10.919 7.73705 11.341 8.15901C11.7629 8.58097 12 9.15326 12 9.75V9.75Z" stroke="#191C1F" stroke-width="1.5" stroke-linecap="round" stroke-linejoin="round"/>
<path d="M12 7.50002H9.74999C9.45417 7.50126 9.16103 7.44391 8.88749 7.33127C8.61394 7.21864 8.36541 7.05295 8.15623 6.84378C7.94705 6.6346 7.78137 6.38607 7.66873 6.11252C7.5561 5.83898 7.49875 5.54584 7.49999 5.25002V5.25002C7.49875 4.9542 7.5561 4.66106 7.66873 4.38752C7.78137 4.11397 7.94705 3.86544 8.15623 3.65626C8.36541 3.44708 8.61394 3.2814 8.88749 3.16876C9.16103 3.05613 9.45417 2.99878 9.74999 3.00002V3.00002C10.0458 2.99878 10.3389 3.05613 10.6125 3.16876C10.886 3.2814 11.1346 3.44708 11.3437 3.65626C11.5529 3.86544 11.7186 4.11397 11.8312 4.38752C11.9439 4.66106 12.0012 4.9542 12 5.25002V7.50002Z" stroke="#191C1F" stroke-width="1.5" stroke-linecap="round" stroke-linejoin="round"/>
<path d="M14.25 12H12V5.25C12 4.65326 12.2371 4.08097 12.659 3.65901C13.081 3.23705 13.6533 3 14.25 3C14.8467 3 15.419 3.23705 15.841 3.65901C16.2629 4.08097 16.5 4.65326 16.5 5.25V9.75C16.5 10.3467 16.2629 10.919 15.841 11.341C15.419 11.7629 14.8467 12 14.25 12V12Z" stroke="#191C1F" stroke-width="1.5" stroke-linecap="round" stroke-linejoin="round"/>
<path d="M16.5 12V9.75002C16.4987 9.4542 16.5561 9.16106 16.6687 8.88752C16.7814 8.61397 16.9471 8.36544 17.1562 8.15626C17.3654 7.94708 17.6139 7.7814 17.8875 7.66876C18.161 7.55613 18.4542 7.49878 18.75 7.50002V7.50002C19.0458 7.49878 19.3389 7.55613 19.6125 7.66876C19.886 7.7814 20.1346 7.94708 20.3437 8.15626C20.5529 8.36544 20.7186 8.61397 20.8312 8.88752C20.9439 9.16106 21.0012 9.4542 21 9.75002V9.75002C21.0012 10.0458 20.9439 10.339 20.8312 10.6125C20.7186 10.8861 20.5529 11.1346 20.3437 11.3438C20.1346 11.553 19.886 11.7186 19.6125 11.8313C19.3389 11.9439 19.0458 12.0013 18.75 12H16.5Z" stroke="#191C1F" stroke-width="1.5" stroke-linecap="round" stroke-linejoin="round"/>
<path d="M12 14.25V12H18.75C19.3467 12 19.919 12.2371 20.341 12.659C20.7629 13.081 21 13.6533 21 14.25V14.25C21 14.8467 20.7629 15.419 20.341 15.841C19.919 16.2629 19.3467 16.5 18.75 16.5H14.25C13.6533 16.5 13.081 16.2629 12.659 15.841C12.2371 15.419 12 14.8467 12 14.25Z" stroke="#191C1F" stroke-width="1.5" stroke-linecap="round" stroke-linejoin="round"/>
<path d="M12 16.5H14.25C14.5458 16.4988 14.8389 16.5561 15.1125 16.6688C15.386 16.7814 15.6346 16.9471 15.8437 17.1563C16.0529 17.3654 16.2186 17.614 16.3312 17.8875C16.4439 18.1611 16.5012 18.4542 16.5 18.75V18.75C16.5012 19.0458 16.4439 19.339 16.3312 19.6125C16.2186 19.8861 16.0529 20.1346 15.8437 20.3438C15.6346 20.553 15.386 20.7186 15.1125 20.8313C14.8389 20.9439 14.5458 21.0013 14.25 21C13.9542 21.0013 13.661 20.9439 13.3875 20.8313C13.1139 20.7186 12.8654 20.553 12.6562 20.3438C12.4471 20.1346 12.2814 19.8861 12.1687 19.6125C12.0561 19.339 11.9987 19.0458 12 18.75V16.5Z" stroke="#191C1F" stroke-width="1.5" stroke-linecap="round" stroke-linejoin="round"/>
<path d="M9.75 12H12V18.75C12 19.3467 11.7629 19.919 11.341 20.341C10.919 20.7629 10.3467 21 9.75 21V21C9.15326 21 8.58097 20.7629 8.15901 20.341C7.73705 19.919 7.5 19.3467 7.5 18.75V14.25C7.5 13.6533 7.73705 13.081 8.15901 12.659C8.58097 12.2371 9.15326 12 9.75 12V12Z" stroke="#191C1F" stroke-width="1.5" stroke-linecap="round" stroke-linejoin="round"/>
<path d="M7.49999 12V14.25C7.50123 14.5458 7.44388 14.839 7.33124 15.1125C7.21861 15.3861 7.05292 15.6346 6.84374 15.8438C6.63457 16.053 6.38603 16.2186 6.11249 16.3313C5.83895 16.4439 5.54581 16.5013 5.24999 16.5V16.5C4.95417 16.5013 4.66103 16.4439 4.38749 16.3313C4.11394 16.2186 3.86541 16.053 3.65623 15.8438C3.44705 15.6346 3.28137 15.3861 3.16873 15.1125C3.0561 14.839 2.99875 14.5458 2.99999 14.25C2.99875 13.9542 3.0561 13.6611 3.16873 13.3875C3.28137 13.114 3.44705 12.8654 3.65623 12.6563C3.86541 12.4471 4.11394 12.2814 4.38749 12.1688C4.66103 12.0561 4.95417 11.9988 5.24999 12H7.49999Z" stroke="#191C1F" stroke-width="1.5" stroke-linecap="round" stroke-linejoin="round"/>
</svg>
