<svg width="24" height="24" viewBox="0 0 24 24" fill="none" xmlns="http://www.w3.org/2000/svg">
<path d="M13.0032 16.4532L11.2032 21.3376C11.1499 21.4811 11.054 21.6049 10.9283 21.6923C10.8026 21.7798 10.6532 21.8266 10.5001 21.8266C10.347 21.8266 10.1976 21.7798 10.0719 21.6923C9.94618 21.6049 9.85025 21.4811 9.79697 21.3376L7.99697 16.4532C7.95898 16.3501 7.89908 16.2565 7.82138 16.1788C7.74369 16.1011 7.65007 16.0412 7.54697 16.0032L2.6626 14.2032C2.51906 14.1499 2.39527 14.054 2.30786 13.9283C2.22044 13.8026 2.17358 13.6532 2.17358 13.5001C2.17358 13.347 2.22044 13.1976 2.30786 13.0719C2.39527 12.9462 2.51906 12.8502 2.6626 12.797L7.54697 10.997C7.65007 10.959 7.74369 10.8991 7.82138 10.8214C7.89908 10.7437 7.95898 10.6501 7.99697 10.547L9.79697 5.6626C9.85025 5.51906 9.94618 5.39527 10.0719 5.30786C10.1976 5.22044 10.347 5.17358 10.5001 5.17358C10.6532 5.17358 10.8026 5.22044 10.9283 5.30786C11.054 5.39527 11.1499 5.51906 11.2032 5.6626L13.0032 10.547C13.0412 10.6501 13.1011 10.7437 13.1788 10.8214C13.2565 10.8991 13.3501 10.959 13.4532 10.997L18.3376 12.797C18.4811 12.8502 18.6049 12.9462 18.6923 13.0719C18.7798 13.1976 18.8266 13.347 18.8266 13.5001C18.8266 13.6532 18.7798 13.8026 18.6923 13.9283C18.6049 14.054 18.4811 14.1499 18.3376 14.2032L13.4532 16.0032C13.3501 16.0412 13.2565 16.1011 13.1788 16.1788C13.1011 16.2565 13.0412 16.3501 13.0032 16.4532V16.4532Z" stroke="#191C1F" stroke-width="1.5" stroke-linecap="round" stroke-linejoin="round"/>
<path d="M16.5 1.5V6" stroke="#191C1F" stroke-width="1.5" stroke-linecap="round" stroke-linejoin="round"/>
<path d="M18.75 3.75H14.25" stroke="#191C1F" stroke-width="1.5" stroke-linecap="round" stroke-linejoin="round"/>
<path d="M21 6.75V9.75" stroke="#191C1F" stroke-width="1.5" stroke-linecap="round" stroke-linejoin="round"/>
<path d="M22.5 8.25H19.5" stroke="#191C1F" stroke-width="1.5" stroke-linecap="round" stroke-linejoin="round"/>
</svg>
