<svg width="24" height="24" viewBox="0 0 24 24" fill="none" xmlns="http://www.w3.org/2000/svg">
<path d="M20.522 7.22815C21.1496 7.85428 21.6475 8.59805 21.9872 9.41688C22.3269 10.2357 22.5018 11.1135 22.5018 12C22.5018 12.8865 22.3269 13.7643 21.9872 14.5832C21.6475 15.402 21.1496 16.1458 20.522 16.7719" stroke="#191C1F" stroke-width="1.5" stroke-linecap="round" stroke-linejoin="round"/>
<path d="M7.5 15.75H3C2.80109 15.75 2.61032 15.671 2.46967 15.5303C2.32902 15.3897 2.25 15.1989 2.25 15V9C2.25 8.80109 2.32902 8.61032 2.46967 8.46967C2.61032 8.32902 2.80109 8.25 3 8.25H7.5L14.25 3V21L7.5 15.75Z" stroke="#191C1F" stroke-width="1.5" stroke-linecap="round" stroke-linejoin="round"/>
<path d="M7.5 8.25V15.75" stroke="#191C1F" stroke-width="1.5" stroke-linecap="round" stroke-linejoin="round"/>
<path d="M17.8687 9.88123C18.1476 10.1591 18.3689 10.4893 18.5199 10.8529C18.6709 11.2164 18.7486 11.6063 18.7486 12C18.7486 12.3937 18.6709 12.7835 18.5199 13.1471C18.3689 13.5107 18.1476 13.8409 17.8687 14.1187" stroke="#191C1F" stroke-width="1.5" stroke-linecap="round" stroke-linejoin="round"/>
</svg>
