<svg width="24" height="24" viewBox="0 0 24 24" fill="none" xmlns="http://www.w3.org/2000/svg">
<path d="M12.75 12.75C12.9489 12.75 13.1397 12.829 13.2803 12.9697C13.421 13.1103 13.5 13.3011 13.5 13.5C13.5 13.8978 13.342 14.2794 13.0607 14.5607C12.7794 14.842 12.3978 15 12 15C11.7042 15.0012 11.411 14.9439 11.1375 14.8313C10.864 14.7186 10.6154 14.5529 10.4062 14.3438C10.1971 14.1346 10.0314 13.886 9.91874 13.6125C9.80611 13.339 9.74876 13.0458 9.75 12.75C9.75 11.9544 10.0661 11.1913 10.6287 10.6287C11.1913 10.0661 11.9544 9.75 12.75 9.75C13.7446 9.75 14.6984 10.1451 15.4017 10.8483C16.1049 11.5516 16.5 12.5054 16.5 13.5C16.5 14.6935 16.0259 15.8381 15.182 16.682C14.3381 17.5259 13.1935 18 12 18C10.6076 18 9.27226 17.4469 8.28769 16.4623C7.30312 15.4777 6.75 14.1424 6.75 12.75C6.75248 11.1595 7.38542 9.63478 8.5101 8.5101C9.63478 7.38542 11.1595 6.75248 12.75 6.75C14.5402 6.75 16.2571 7.46116 17.523 8.72703C18.7888 9.9929 19.5 11.7098 19.5 13.5C19.5 14.4849 19.306 15.4602 18.9291 16.3701C18.5522 17.2801 17.9997 18.1069 17.3033 18.8033C16.6069 19.4997 15.7801 20.0522 14.8701 20.4291C13.9602 20.806 12.9849 21 12 21C9.81196 21 7.71354 20.1308 6.16637 18.5836C4.61919 17.0365 3.75 14.938 3.75 12.75C3.75 10.3631 4.69821 8.07387 6.38604 6.38604C8.07387 4.69821 10.3631 3.75 12.75 3.75C14.0304 3.75 15.2982 4.00219 16.4812 4.49217C17.6641 4.98216 18.7389 5.70034 19.6443 6.60571C20.5497 7.51108 21.2678 8.58591 21.7578 9.76884C22.2478 10.9518 22.5 12.2196 22.5 13.5" stroke="#191C1F" stroke-width="1.5" stroke-linecap="round" stroke-linejoin="round"/>
</svg>
