<svg width="24" height="24" viewBox="0 0 24 24" fill="none" xmlns="http://www.w3.org/2000/svg">
<path d="M12 21C16.9706 21 21 16.9706 21 12C21 7.02944 16.9706 3 12 3C7.02944 3 3 7.02944 3 12C3 16.9706 7.02944 21 12 21Z" stroke="#191C1F" stroke-width="1.5" stroke-linecap="round" stroke-linejoin="round"/>
<path d="M16.7906 10.1531C15.306 9.39363 13.6619 8.99837 11.9942 9.00001C10.3265 9.00164 8.6832 9.40011 7.20001 10.1625" stroke="#191C1F" stroke-width="1.5" stroke-linecap="round" stroke-linejoin="round"/>
<path d="M15.4031 12.8156C14.3473 12.2781 13.179 11.9986 11.9942 12.0003C10.8094 12.0019 9.64185 12.2845 8.58749 12.825" stroke="#191C1F" stroke-width="1.5" stroke-linecap="round" stroke-linejoin="round"/>
<path d="M14.0156 15.4781C13.3909 15.1619 12.7002 14.998 12 15C11.2972 15.0014 10.6042 15.165 9.97501 15.4781" stroke="#191C1F" stroke-width="1.5" stroke-linecap="round" stroke-linejoin="round"/>
</svg>
