<svg width="24" height="24" viewBox="0 0 24 24" fill="none" xmlns="http://www.w3.org/2000/svg">
<path fill-rule="evenodd" clip-rule="evenodd" d="M3.375 4.875C3.375 4.04657 4.04657 3.375 4.875 3.375H19.125C19.9534 3.375 20.625 4.04657 20.625 4.875V19.125C20.625 19.9534 19.9534 20.625 19.125 20.625H4.875C4.04657 20.625 3.375 19.9534 3.375 19.125V4.875ZM19.125 4.875H4.875V19.125H19.125V4.875Z" fill="#191C1F"/>
<path fill-rule="evenodd" clip-rule="evenodd" d="M3.375 12C3.375 11.5858 3.71079 11.25 4.125 11.25H19.875C20.2892 11.25 20.625 11.5858 20.625 12C20.625 12.4142 20.2892 12.75 19.875 12.75H4.125C3.71079 12.75 3.375 12.4142 3.375 12Z" fill="#191C1F"/>
<path fill-rule="evenodd" clip-rule="evenodd" d="M7.5 11.25C7.91421 11.25 8.25 11.5858 8.25 12V19.875C8.25 20.2892 7.91421 20.625 7.5 20.625C7.08579 20.625 6.75 20.2892 6.75 19.875V12C6.75 11.5858 7.08579 11.25 7.5 11.25Z" fill="#191C1F"/>
<path fill-rule="evenodd" clip-rule="evenodd" d="M10.5 11.25C10.9142 11.25 11.25 11.5858 11.25 12V19.875C11.25 20.2892 10.9142 20.625 10.5 20.625C10.0858 20.625 9.75 20.2892 9.75 19.875V12C9.75 11.5858 10.0858 11.25 10.5 11.25Z" fill="#191C1F"/>
<path fill-rule="evenodd" clip-rule="evenodd" d="M13.5 11.25C13.9142 11.25 14.25 11.5858 14.25 12V19.875C14.25 20.2892 13.9142 20.625 13.5 20.625C13.0858 20.625 12.75 20.2892 12.75 19.875V12C12.75 11.5858 13.0858 11.25 13.5 11.25Z" fill="#191C1F"/>
<path fill-rule="evenodd" clip-rule="evenodd" d="M16.5 11.25C16.9142 11.25 17.25 11.5858 17.25 12V19.875C17.25 20.2892 16.9142 20.625 16.5 20.625C16.0858 20.625 15.75 20.2892 15.75 19.875V12C15.75 11.5858 16.0858 11.25 16.5 11.25Z" fill="#191C1F"/>
</svg>
