<svg width="24" height="24" viewBox="0 0 24 24" fill="none" xmlns="http://www.w3.org/2000/svg">
<path fill-rule="evenodd" clip-rule="evenodd" d="M2.35217 16.1221C2.56088 15.7643 3.02011 15.6435 3.3779 15.8522L12 20.8817L20.6221 15.8522C20.9799 15.6435 21.4391 15.7643 21.6478 16.1221C21.8565 16.4799 21.7357 16.9391 21.3779 17.1478L12.3779 22.3978C12.1444 22.5341 11.8556 22.5341 11.6221 22.3978L2.6221 17.1478C2.26431 16.9391 2.14346 16.4799 2.35217 16.1221Z" fill="#191C1F"/>
<path fill-rule="evenodd" clip-rule="evenodd" d="M2.35217 11.6221C2.56088 11.2643 3.02011 11.1435 3.3779 11.3522L12 16.3817L20.6221 11.3522C20.9799 11.1435 21.4391 11.2643 21.6478 11.6221C21.8565 11.9799 21.7357 12.4391 21.3779 12.6478L12.3779 17.8978C12.1444 18.0341 11.8556 18.0341 11.6221 17.8978L2.6221 12.6478C2.26431 12.4391 2.14346 11.9799 2.35217 11.6221Z" fill="#191C1F"/>
<path fill-rule="evenodd" clip-rule="evenodd" d="M11.6221 1.60217C11.8556 1.46594 12.1444 1.46594 12.3779 1.60217L21.3779 6.85217C21.6083 6.98657 21.75 7.23325 21.75 7.5C21.75 7.76675 21.6083 8.01343 21.3779 8.14783L12.3779 13.3978C12.1444 13.5341 11.8556 13.5341 11.6221 13.3978L2.6221 8.14783C2.39168 8.01343 2.25 7.76675 2.25 7.5C2.25 7.23325 2.39168 6.98657 2.6221 6.85217L11.6221 1.60217ZM4.48848 7.5L12 11.8817L19.5115 7.5L12 3.11828L4.48848 7.5Z" fill="#191C1F"/>
</svg>
