<svg width="24" height="24" viewBox="0 0 24 24" fill="none" xmlns="http://www.w3.org/2000/svg">
<path fill-rule="evenodd" clip-rule="evenodd" d="M11.6279 3.09882C11.8585 2.96706 12.1415 2.96706 12.3721 3.09882L22.8721 9.09882C23.1058 9.23235 23.25 9.48086 23.25 9.75C23.25 10.0191 23.1058 10.2677 22.8721 10.4012L12.3721 16.4012C12.1415 16.5329 11.8585 16.5329 11.6279 16.4012L1.1279 10.4012C0.894215 10.2677 0.75 10.0191 0.75 9.75C0.75 9.48086 0.894215 9.23235 1.1279 9.09882L11.6279 3.09882ZM3.01167 9.75L12 14.8862L20.9883 9.75L12 4.61381L3.01167 9.75Z" fill="#191C1F"/>
<path fill-rule="evenodd" clip-rule="evenodd" d="M0.848824 13.1279C1.05433 12.7683 1.51247 12.6433 1.87211 12.8488L12 18.6362L22.1279 12.8488C22.4875 12.6433 22.9457 12.7683 23.1512 13.1279C23.3567 13.4875 23.2317 13.9457 22.8721 14.1512L12.3721 20.1512C12.1415 20.2829 11.8585 20.2829 11.6279 20.1512L1.1279 14.1512C0.768264 13.9457 0.643316 13.4875 0.848824 13.1279Z" fill="#191C1F"/>
</svg>
