<svg width="24" height="24" viewBox="0 0 24 24" fill="none" xmlns="http://www.w3.org/2000/svg">
<path fill-rule="evenodd" clip-rule="evenodd" d="M3 21C3 20.5858 3.33579 20.25 3.75 20.25H20.25C20.6642 20.25 21 20.5858 21 21C21 21.4142 20.6642 21.75 20.25 21.75H3.75C3.33579 21.75 3 21.4142 3 21Z" fill="#191C1F"/>
<path fill-rule="evenodd" clip-rule="evenodd" d="M11.0335 3C10.8099 2.99975 10.589 3.04952 10.3871 3.14566C10.1851 3.24179 10.0073 3.38187 9.86646 3.55562C9.72566 3.72938 9.62549 3.93243 9.57329 4.1499C9.52113 4.36722 9.51818 4.59344 9.56468 4.81204C9.56464 4.81189 9.56471 4.81219 9.56468 4.81204L11.2333 12.5927C11.3202 12.9977 11.0623 13.3965 10.6572 13.4833C10.2522 13.5702 9.85351 13.3123 9.76665 12.9073L8.09769 5.125C8.0045 4.68752 8.01032 4.23474 8.11472 3.7998C8.21912 3.36486 8.41945 2.95877 8.70106 2.61125C8.98267 2.26373 9.33843 1.98358 9.74229 1.79131C10.146 1.5991 10.5876 1.49957 11.0347 1.5C11.0346 1.5 11.0349 1.5 11.0347 1.5H12.9652C12.9651 1.5 12.9654 1.5 12.9652 1.5M14.4353 4.81207C14.4352 4.81222 14.4353 4.81193 14.4353 4.81207V4.81207ZM14.4353 4.81207C14.4818 4.59347 14.4788 4.36723 14.4267 4.1499C14.3745 3.93243 14.2743 3.72938 14.1335 3.55562C13.9927 3.38187 13.8148 3.24179 13.6129 3.14566C13.411 3.04952 13.1901 2.99975 12.9664 3H11.0335" fill="#191C1F"/>
<path fill-rule="evenodd" clip-rule="evenodd" d="M3 13.5C3 12.6716 3.67157 12 4.5 12H19.5C20.3284 12 21 12.6716 21 13.5V17.25C21 18.0784 20.3284 18.75 19.5 18.75H4.5C3.67157 18.75 3 18.0784 3 17.25V13.5ZM19.5 13.5H4.5V17.25H19.5V13.5Z" fill="#191C1F"/>
</svg>
