<svg width="24" height="24" viewBox="0 0 24 24" fill="none" xmlns="http://www.w3.org/2000/svg">
<path d="M8.61562 14.25C8.61562 15.4969 10.1344 16.5 12 16.5C13.8656 16.5 15.3844 15.4969 15.3844 14.25C15.3844 11.25 8.80312 12.375 8.80312 9.75C8.80312 8.50312 10.1344 7.5 12 7.5C13.3969 7.5 14.4937 8.0625 14.9531 8.87812" stroke="#191C1F" stroke-width="1.5" stroke-linecap="round" stroke-linejoin="round"/>
<path d="M19.5 3.75H4.5C4.08579 3.75 3.75 4.08579 3.75 4.5V19.5C3.75 19.9142 4.08579 20.25 4.5 20.25H19.5C19.9142 20.25 20.25 19.9142 20.25 19.5V4.5C20.25 4.08579 19.9142 3.75 19.5 3.75Z" stroke="#191C1F" stroke-width="1.5" stroke-linecap="round" stroke-linejoin="round"/>
</svg>
