<svg width="24" height="24" viewBox="0 0 24 24" fill="none" xmlns="http://www.w3.org/2000/svg">
<path d="M9.75 13.125V15.375C9.75 16.2701 9.39442 17.1285 8.76149 17.7615C8.12855 18.3944 7.27011 18.75 6.375 18.75C5.47989 18.75 4.62145 18.3944 3.98851 17.7615C3.35558 17.1285 3 16.2701 3 15.375V13.125" stroke="#191C1F" stroke-width="1.5" stroke-linecap="round" stroke-linejoin="round"/>
<path d="M21 13.125V15.375C21 16.2701 20.6444 17.1285 20.0115 17.7615C19.3785 18.3944 18.5201 18.75 17.625 18.75C16.7299 18.75 15.8715 18.3944 15.2385 17.7615C14.6056 17.1285 14.25 16.2701 14.25 15.375V13.125" stroke="#191C1F" stroke-width="1.5" stroke-linecap="round" stroke-linejoin="round"/>
<path d="M18.75 4.50002C19.0458 4.49878 19.339 4.55613 19.6125 4.66876C19.8861 4.7814 20.1346 4.94708 20.3438 5.15626C20.553 5.36544 20.7186 5.61397 20.8313 5.88752C20.9439 6.16106 21.0013 6.4542 21 6.75002V13.125H3.00002V6.75002C2.99878 6.4542 3.05613 6.16106 3.16876 5.88752C3.2814 5.61397 3.44708 5.36544 3.65626 5.15626C3.86544 4.94708 4.11397 4.7814 4.38752 4.66876C4.66106 4.55613 4.9542 4.49878 5.25002 4.50002" stroke="#191C1F" stroke-width="1.5" stroke-linecap="round" stroke-linejoin="round"/>
<path d="M15.75 13.125L20.1937 17.5687" stroke="#191C1F" stroke-width="1.5" stroke-linecap="round" stroke-linejoin="round"/>
<path d="M4.5 13.125L8.94375 17.5687" stroke="#191C1F" stroke-width="1.5" stroke-linecap="round" stroke-linejoin="round"/>
</svg>
