<svg width="24" height="24" viewBox="0 0 24 24" fill="none" xmlns="http://www.w3.org/2000/svg">
<path d="M8.6999 5.53125L7.97803 3.79688" stroke="#191C1F" stroke-width="1.5" stroke-linecap="round" stroke-linejoin="round"/>
<path d="M4.03125 10.1999L2.29688 9.47803" stroke="#191C1F" stroke-width="1.5" stroke-linecap="round" stroke-linejoin="round"/>
<path d="M19.9688 10.1999L21.7031 9.47803" stroke="#191C1F" stroke-width="1.5" stroke-linecap="round" stroke-linejoin="round"/>
<path d="M15.3 5.53125L16.0219 3.79688" stroke="#191C1F" stroke-width="1.5" stroke-linecap="round" stroke-linejoin="round"/>
<path d="M22.5 15H1.5" stroke="#191C1F" stroke-width="1.5" stroke-linecap="round" stroke-linejoin="round"/>
<path d="M19.5 18.75H4.5" stroke="#191C1F" stroke-width="1.5" stroke-linecap="round" stroke-linejoin="round"/>
<path d="M6.58125 15C6.3485 14.1643 6.31218 13.2861 6.47514 12.4341C6.63809 11.582 6.99591 10.7792 7.5206 10.0884C8.0453 9.39762 8.72266 8.83753 9.49973 8.45195C10.2768 8.06636 11.1325 7.86572 12 7.86572C12.8675 7.86572 13.7232 8.06636 14.5003 8.45195C15.2773 8.83753 15.9547 9.39762 16.4794 10.0884C17.0041 10.7792 17.3619 11.582 17.5249 12.4341C17.6878 13.2861 17.6515 14.1643 17.4188 15" stroke="#191C1F" stroke-width="1.5" stroke-linecap="round" stroke-linejoin="round"/>
</svg>
