<svg width="24" height="24" viewBox="0 0 24 24" fill="none" xmlns="http://www.w3.org/2000/svg">
<path fill-rule="evenodd" clip-rule="evenodd" d="M6.44802 3.49602L11.6098 4.40307C11.6119 4.40365 11.6137 4.40494 11.615 4.40673C11.6163 4.40857 11.6168 4.4108 11.6166 4.41302L9.33988 17.3334C9.33982 17.3337 9.33976 17.334 9.3397 17.3343C9.21807 18.0115 8.83632 18.6143 8.27604 19.0137C7.7159 19.413 7.0218 19.5774 6.3421 19.4717C4.90891 19.2401 3.92054 17.8198 4.17928 16.3487L6.44802 3.49602ZM6.70309 2.01785C6.50904 1.9831 6.31002 1.98718 6.11755 2.02987C5.92441 2.0727 5.74173 2.15355 5.58016 2.26771C5.41858 2.38186 5.28135 2.52704 5.17645 2.69477C5.07255 2.86093 5.00243 3.04593 4.9701 3.23918L2.70204 16.0884C2.30465 18.3479 3.80892 20.5837 6.10592 20.953L6.10935 20.9536C7.17681 21.1201 8.26706 20.8623 9.14678 20.2351C10.0265 19.608 10.6258 18.6614 10.8164 17.598L10.8167 17.5958L13.0949 4.66769L13.0959 4.66143C13.1612 4.27149 13.071 3.87149 12.8445 3.54743C12.618 3.22336 12.2733 3.00111 11.8847 2.92844L6.70511 2.01822C6.70443 2.0181 6.70376 2.01798 6.70309 2.01785Z" fill="#191C1F"/>
<path fill-rule="evenodd" clip-rule="evenodd" d="M17.6673 8.5113C17.8525 8.44321 18.0494 8.41233 18.2466 8.42046C18.4445 8.42862 18.6389 8.4759 18.8184 8.55958C18.998 8.64326 19.1592 8.76167 19.2927 8.90799C19.4257 9.05372 19.5287 9.22426 19.5957 9.40983C19.596 9.41057 19.5962 9.41131 19.5965 9.41205L21.3973 14.3454C21.53 14.7184 21.5099 15.1288 21.3413 15.4871C21.1727 15.8453 20.8693 16.1224 20.4972 16.2579L8.15968 20.7485C7.77045 20.8902 7.34006 20.6895 7.19839 20.3003C7.05672 19.911 7.2574 19.4807 7.64664 19.339L19.9841 14.8484L18.1848 9.91919L18.1813 9.9205L11.3469 12.4049C10.9576 12.5464 10.5273 12.3455 10.3858 11.9562C10.2443 11.5669 10.4451 11.1366 10.8344 10.9951L17.6652 8.51205C17.6659 8.5118 17.6666 8.51155 17.6673 8.5113Z" fill="#191C1F"/>
<path fill-rule="evenodd" clip-rule="evenodd" d="M20.625 14.4844C21.0392 14.4844 21.375 14.8202 21.375 15.2344V19.5C21.375 19.8978 21.217 20.2794 20.9357 20.5607C20.6544 20.842 20.2728 21 19.875 21H6.75C6.33579 21 6 20.6642 6 20.25C6 19.8358 6.33579 19.5 6.75 19.5H19.875V15.2344C19.875 14.8202 20.2108 14.4844 20.625 14.4844Z" fill="#191C1F"/>
<path d="M6.75 18C7.37132 18 7.875 17.4963 7.875 16.875C7.875 16.2537 7.37132 15.75 6.75 15.75C6.12868 15.75 5.625 16.2537 5.625 16.875C5.625 17.4963 6.12868 18 6.75 18Z" fill="#191C1F"/>
</svg>
