<svg width="24" height="24" viewBox="0 0 24 24" fill="none" xmlns="http://www.w3.org/2000/svg">
<path d="M7.1438 12.3937L14.2688 3.76875L20.25 3.75L20.2313 9.73125L11.6063 16.8563" stroke="#191C1F" stroke-width="1.5" stroke-linecap="round" stroke-linejoin="round"/>
<path d="M9.375 14.625L15 9" stroke="#191C1F" stroke-width="1.5" stroke-linecap="round" stroke-linejoin="round"/>
<path d="M7.69693 18.5156L4.89381 21.3187C4.75321 21.459 4.56272 21.5378 4.36412 21.5378C4.16552 21.5378 3.97503 21.459 3.83443 21.3187L2.68131 20.1656C2.54105 20.025 2.46228 19.8345 2.46228 19.6359C2.46228 19.4373 2.54105 19.2468 2.68131 19.1062L5.48443 16.3031C5.5553 16.2333 5.61157 16.1501 5.64998 16.0584C5.6884 15.9667 5.70818 15.8682 5.70818 15.7687C5.70818 15.6693 5.6884 15.5708 5.64998 15.4791C5.61157 15.3873 5.5553 15.3041 5.48443 15.2344L3.53443 13.2844C3.46357 13.2146 3.40729 13.1314 3.36888 13.0396C3.33047 12.9479 3.31069 12.8494 3.31069 12.75C3.31069 12.6505 3.33047 12.5521 3.36888 12.4603C3.40729 12.3686 3.46357 12.2854 3.53443 12.2156L4.71568 11.0344C4.78547 10.9635 4.86865 10.9072 4.96039 10.8688C5.05214 10.8304 5.1506 10.8106 5.25006 10.8106C5.34952 10.8106 5.44798 10.8304 5.53972 10.8688C5.63146 10.9072 5.71465 10.9635 5.78443 11.0344L12.9657 18.2156C13.0365 18.2854 13.0928 18.3686 13.1312 18.4603C13.1696 18.5521 13.1894 18.6505 13.1894 18.75C13.1894 18.8494 13.1696 18.9479 13.1312 19.0396C13.0928 19.1314 13.0365 19.2146 12.9657 19.2844L11.7844 20.4656C11.7146 20.5365 11.6315 20.5927 11.5397 20.6312C11.448 20.6696 11.3495 20.6893 11.2501 20.6893C11.1506 20.6893 11.0521 20.6696 10.9604 20.6312C10.8687 20.5927 10.7855 20.5365 10.7157 20.4656L8.76568 18.5156C8.6959 18.4447 8.61271 18.3885 8.52097 18.3501C8.42923 18.3116 8.33077 18.2919 8.23131 18.2919C8.13185 18.2919 8.03339 18.3116 7.94164 18.3501C7.8499 18.3885 7.76672 18.4447 7.69693 18.5156Z" stroke="#191C1F" stroke-width="1.5" stroke-linecap="round" stroke-linejoin="round"/>
</svg>
