<svg width="24" height="24" viewBox="0 0 24 24" fill="none" xmlns="http://www.w3.org/2000/svg">
<path d="M0.75 15.75L2.84062 8.78438C2.88716 8.62934 2.98262 8.49351 3.11273 8.39719C3.24284 8.30088 3.40062 8.24924 3.5625 8.25001H11.4375C11.5994 8.24924 11.7572 8.30088 11.8873 8.39719C12.0174 8.49351 12.1128 8.62934 12.1594 8.78438L14.25 15.75" stroke="#191C1F" stroke-width="1.5" stroke-linecap="round" stroke-linejoin="round"/>
<path d="M15 8.25001H15.9375C16.0994 8.24924 16.2572 8.30088 16.3873 8.39719C16.5174 8.49351 16.6128 8.62934 16.6594 8.78438L18.75 15.75" stroke="#191C1F" stroke-width="1.5" stroke-linecap="round" stroke-linejoin="round"/>
<path d="M19.5 8.25001H20.4375C20.5994 8.24924 20.7572 8.30088 20.8873 8.39719C21.0174 8.49351 21.1128 8.62934 21.1594 8.78438L23.25 15.75" stroke="#191C1F" stroke-width="1.5" stroke-linecap="round" stroke-linejoin="round"/>
<path d="M0.75 15.75H23.25" stroke="#191C1F" stroke-width="1.5" stroke-linecap="round" stroke-linejoin="round"/>
</svg>
