<svg width="24" height="24" viewBox="0 0 24 24" fill="none" xmlns="http://www.w3.org/2000/svg">
<path d="M17.475 18.4125L21.4688 12.4125C21.5518 12.291 21.5962 12.1472 21.5962 12C21.5962 11.8528 21.5518 11.7091 21.4688 11.5875L17.475 5.58753C17.4072 5.48296 17.314 5.39721 17.2042 5.33821C17.0944 5.27922 16.9715 5.24889 16.8469 5.25003H2.25L6.46875 11.5875C6.55178 11.7091 6.5962 11.8528 6.5962 12C6.5962 12.1472 6.55178 12.291 6.46875 12.4125L2.25 18.75H16.8469C16.9715 18.7512 17.0944 18.7208 17.2042 18.6618C17.314 18.6029 17.4072 18.5171 17.475 18.4125V18.4125Z" stroke="#191C1F" stroke-width="1.5" stroke-linecap="round" stroke-linejoin="round"/>
</svg>
