<svg width="24" height="24" viewBox="0 0 24 24" fill="none" xmlns="http://www.w3.org/2000/svg">
<path d="M18.225 18.4125L22.5 12L18.225 5.58753C18.1572 5.48296 18.064 5.39721 17.9542 5.33821C17.8444 5.27922 17.7215 5.24889 17.5969 5.25003H3.75C3.55109 5.25003 3.36032 5.32905 3.21967 5.4697C3.07902 5.61035 3 5.80112 3 6.00003V18C3 18.1989 3.07902 18.3897 3.21967 18.5304C3.36032 18.671 3.55109 18.75 3.75 18.75H17.5969C17.7215 18.7512 17.8444 18.7208 17.9542 18.6618C18.064 18.6029 18.1572 18.5171 18.225 18.4125V18.4125Z" stroke="#191C1F" stroke-width="1.5" stroke-linecap="round" stroke-linejoin="round"/>
</svg>
