<svg width="24" height="24" viewBox="0 0 24 24" fill="none" xmlns="http://www.w3.org/2000/svg">
<path d="M20.25 6.75H3.75C3.33579 6.75 3 7.08579 3 7.5V18.75C3 19.1642 3.33579 19.5 3.75 19.5H20.25C20.6642 19.5 21 19.1642 21 18.75V7.5C21 7.08579 20.6642 6.75 20.25 6.75Z" stroke="#191C1F" stroke-width="1.5" stroke-linecap="round" stroke-linejoin="round"/>
<path d="M7.5 2.25L12 6.75L16.5 2.25" stroke="#191C1F" stroke-width="1.5" stroke-linecap="round" stroke-linejoin="round"/>
<path d="M17.625 12C18.2463 12 18.75 11.4963 18.75 10.875C18.75 10.2537 18.2463 9.75 17.625 9.75C17.0037 9.75 16.5 10.2537 16.5 10.875C16.5 11.4963 17.0037 12 17.625 12Z" fill="#191C1F"/>
<path d="M17.625 16.5C18.2463 16.5 18.75 15.9963 18.75 15.375C18.75 14.7537 18.2463 14.25 17.625 14.25C17.0037 14.25 16.5 14.7537 16.5 15.375C16.5 15.9963 17.0037 16.5 17.625 16.5Z" fill="#191C1F"/>
<path d="M14.25 19.5V6.75" stroke="#191C1F" stroke-width="1.5" stroke-linecap="round" stroke-linejoin="round"/>
</svg>
