<svg width="24" height="24" viewBox="0 0 24 24" fill="none" xmlns="http://www.w3.org/2000/svg">
<path d="M3.75 5.25V16.5" stroke="#191C1F" stroke-width="1.5" stroke-linecap="round" stroke-linejoin="round"/>
<path d="M13.5 10.875H3.75" stroke="#191C1F" stroke-width="1.5" stroke-linecap="round" stroke-linejoin="round"/>
<path d="M13.5 5.25V16.5" stroke="#191C1F" stroke-width="1.5" stroke-linecap="round" stroke-linejoin="round"/>
<path d="M18 10.125H22.5L19.875 13.875C20.3067 13.875 20.7317 13.9815 21.1124 14.185C21.493 14.3885 21.8177 14.6828 22.0575 15.0417C22.2973 15.4006 22.4449 15.8132 22.4872 16.2428C22.5295 16.6724 22.4652 17.1058 22.3 17.5046C22.1348 17.9034 21.8738 18.2553 21.5401 18.5291C21.2064 18.803 20.8103 18.9903 20.387 19.0746C19.9636 19.1588 19.526 19.1373 19.1129 19.012C18.6998 18.8867 18.324 18.6615 18.0187 18.3562" stroke="#191C1F" stroke-width="1.5" stroke-linecap="round" stroke-linejoin="round"/>
</svg>
