<svg width="24" height="24" viewBox="0 0 24 24" fill="none" xmlns="http://www.w3.org/2000/svg">
<path d="M3.75 5.25V16.5" stroke="#191C1F" stroke-width="1.5" stroke-linecap="round" stroke-linejoin="round"/>
<path d="M13.5 10.875H3.75" stroke="#191C1F" stroke-width="1.5" stroke-linecap="round" stroke-linejoin="round"/>
<path d="M13.5 5.25V16.5" stroke="#191C1F" stroke-width="1.5" stroke-linecap="round" stroke-linejoin="round"/>
<path d="M22.5 10.125H18.7313L18 14.6438C18.3671 14.2767 18.8349 14.0267 19.344 13.9254C19.8532 13.8242 20.381 13.8762 20.8607 14.0748C21.3403 14.2735 21.7503 14.61 22.0387 15.0417C22.3271 15.4733 22.4811 15.9808 22.4811 16.5C22.4811 17.0192 22.3271 17.5267 22.0387 17.9583C21.7503 18.39 21.3403 18.7265 20.8607 18.9252C20.381 19.1238 19.8532 19.1758 19.344 19.0746C18.8349 18.9733 18.3671 18.7233 18 18.3563" stroke="#191C1F" stroke-width="1.5" stroke-linecap="round" stroke-linejoin="round"/>
</svg>
