<svg width="24" height="24" viewBox="0 0 24 24" fill="none" xmlns="http://www.w3.org/2000/svg">
<path d="M9 13.7812V4.5C9 3.70435 9.31607 2.94129 9.87868 2.37868C10.4413 1.81607 11.2044 1.5 12 1.5C12.7956 1.5 13.5587 1.81607 14.1213 2.37868C14.6839 2.94129 15 3.70435 15 4.5V13.7812C15.8001 14.4059 16.3853 15.2648 16.6739 16.2381C16.9624 17.2113 16.94 18.2503 16.6097 19.2102C16.2794 20.1701 15.6576 21.0029 14.8313 21.5924C14.0049 22.182 13.0151 22.4989 12 22.4989C10.9849 22.4989 9.99509 22.182 9.16872 21.5924C8.34236 21.0029 7.72064 20.1701 7.39032 19.2102C7.06 18.2503 7.03755 17.2113 7.32612 16.2381C7.61468 15.2648 8.19986 14.4059 9 13.7812V13.7812Z" stroke="#191C1F" stroke-width="1.5" stroke-linecap="round" stroke-linejoin="round"/>
<path d="M12 19.5C13.0355 19.5 13.875 18.6605 13.875 17.625C13.875 16.5895 13.0355 15.75 12 15.75C10.9645 15.75 10.125 16.5895 10.125 17.625C10.125 18.6605 10.9645 19.5 12 19.5Z" stroke="#191C1F" stroke-width="1.5" stroke-linecap="round" stroke-linejoin="round"/>
<path d="M12 15.75V8.25" stroke="#191C1F" stroke-width="1.5" stroke-linecap="round" stroke-linejoin="round"/>
</svg>
