<svg width="24" height="24" viewBox="0 0 24 24" fill="none" xmlns="http://www.w3.org/2000/svg">
<path d="M11.25 19.5C12.2855 19.5 13.125 18.6605 13.125 17.625C13.125 16.5895 12.2855 15.75 11.25 15.75C10.2145 15.75 9.375 16.5895 9.375 17.625C9.375 18.6605 10.2145 19.5 11.25 19.5Z" stroke="#191C1F" stroke-width="1.5" stroke-linecap="round" stroke-linejoin="round"/>
<path d="M11.25 15.75V4.5" stroke="#191C1F" stroke-width="1.5" stroke-linecap="round" stroke-linejoin="round"/>
<path d="M22.5282 7.50011C22.354 7.67444 22.1472 7.81274 21.9196 7.90709C21.692 8.00145 21.448 8.05002 21.2016 8.05002C20.9552 8.05002 20.7112 8.00145 20.4836 7.90709C20.256 7.81274 20.0492 7.67444 19.875 7.50011C19.7009 7.32578 19.4941 7.18748 19.2665 7.09312C19.0389 6.99876 18.7949 6.9502 18.5485 6.9502C18.3021 6.9502 18.0581 6.99876 17.8305 7.09312C17.6029 7.18748 17.3961 7.32578 17.2219 7.50011" stroke="#191C1F" stroke-width="1.5" stroke-linecap="round" stroke-linejoin="round"/>
<path d="M22.5282 11.2501C22.354 11.4244 22.1472 11.5627 21.9196 11.6571C21.692 11.7515 21.448 11.8 21.2016 11.8C20.9552 11.8 20.7112 11.7515 20.4836 11.6571C20.256 11.5627 20.0492 11.4244 19.875 11.2501C19.7009 11.0758 19.4941 10.9375 19.2665 10.8431C19.0389 10.7488 18.7949 10.7002 18.5485 10.7002C18.3021 10.7002 18.0581 10.7488 17.8305 10.8431C17.6029 10.9375 17.3961 11.0758 17.2219 11.2501" stroke="#191C1F" stroke-width="1.5" stroke-linecap="round" stroke-linejoin="round"/>
<path d="M8.25 13.7812V4.5C8.25 3.70435 8.56607 2.94129 9.12868 2.37868C9.69129 1.81607 10.4544 1.5 11.25 1.5C12.0456 1.5 12.8087 1.81607 13.3713 2.37868C13.9339 2.94129 14.25 3.70435 14.25 4.5V13.7812C15.0501 14.4059 15.6353 15.2648 15.9239 16.2381C16.2124 17.2113 16.19 18.2503 15.8597 19.2102C15.5294 20.1701 14.9076 21.0029 14.0813 21.5924C13.2549 22.182 12.2651 22.4989 11.25 22.4989C10.2349 22.4989 9.24509 22.182 8.41872 21.5924C7.59236 21.0029 6.97064 20.1701 6.64032 19.2102C6.31 18.2503 6.28755 17.2113 6.57612 16.2381C6.86468 15.2648 7.44986 14.4059 8.25 13.7812V13.7812Z" stroke="#191C1F" stroke-width="1.5" stroke-linecap="round" stroke-linejoin="round"/>
</svg>
