<svg width="24" height="24" viewBox="0 0 24 24" fill="none" xmlns="http://www.w3.org/2000/svg">
<path d="M3 4.5H7.5V14.25H3C2.80109 14.25 2.61032 14.171 2.46967 14.0303C2.32902 13.8897 2.25 13.6989 2.25 13.5V5.25C2.25 5.05109 2.32902 4.86032 2.46967 4.71967C2.61032 4.57902 2.80109 4.5 3 4.5V4.5Z" stroke="#191C1F" stroke-width="1.5" stroke-linecap="round" stroke-linejoin="round"/>
<path d="M7.5 14.25L11.25 21.75C12.0456 21.75 12.8087 21.4339 13.3713 20.8713C13.9339 20.3087 14.25 19.5456 14.25 18.75V16.5H20.0531C20.2658 16.5005 20.4762 16.4555 20.67 16.368C20.8639 16.2805 21.0368 16.1526 21.1771 15.9927C21.3174 15.8329 21.4219 15.6449 21.4835 15.4413C21.5451 15.2377 21.5625 15.0233 21.5344 14.8125L20.4094 5.8125C20.3639 5.4512 20.1885 5.1188 19.9159 4.8773C19.6434 4.6358 19.2923 4.5017 18.9281 4.5H7.5" stroke="#191C1F" stroke-width="1.5" stroke-linecap="round" stroke-linejoin="round"/>
</svg>
