<svg width="24" height="24" viewBox="0 0 24 24" fill="none" xmlns="http://www.w3.org/2000/svg">
<path d="M6 10.5V3.75C6 3.55109 6.07902 3.36032 6.21967 3.21967C6.36032 3.07902 6.55109 3 6.75 3H17.25C17.4489 3 17.6397 3.07902 17.7803 3.21967C17.921 3.36032 18 3.55109 18 3.75V10.5" stroke="#191C1F" stroke-width="1.5" stroke-linecap="round" stroke-linejoin="round"/>
<path d="M9 6H10.5" stroke="#191C1F" stroke-width="1.5" stroke-linecap="round" stroke-linejoin="round"/>
<path d="M20.25 10.5C20.25 12.688 19.3808 14.7865 17.8336 16.3336C16.2865 17.8808 14.188 18.75 12 18.75C9.81196 18.75 7.71354 17.8808 6.16637 16.3336C4.61919 14.7865 3.75 12.688 3.75 10.5H20.25Z" stroke="#191C1F" stroke-width="1.5" stroke-linecap="round" stroke-linejoin="round"/>
<path d="M8.77499 18.0938L8.37187 20.8969C8.35716 21.0029 8.36529 21.1108 8.39574 21.2134C8.42619 21.316 8.47824 21.4109 8.54839 21.4917C8.61854 21.5725 8.70518 21.6373 8.80248 21.6819C8.89978 21.7265 9.00548 21.7497 9.11249 21.75H14.8875C14.9945 21.7497 15.1002 21.7265 15.1975 21.6819C15.2948 21.6373 15.3814 21.5725 15.4516 21.4917C15.5218 21.4109 15.5738 21.316 15.6042 21.2134C15.6347 21.1108 15.6428 21.0029 15.6281 20.8969L15.225 18.0938" stroke="#191C1F" stroke-width="1.5" stroke-linecap="round" stroke-linejoin="round"/>
</svg>
