<svg width="24" height="24" viewBox="0 0 24 24" fill="none" xmlns="http://www.w3.org/2000/svg">
<path d="M6 12.375C6.62132 12.375 7.125 11.8713 7.125 11.25C7.125 10.6287 6.62132 10.125 6 10.125C5.37868 10.125 4.875 10.6287 4.875 11.25C4.875 11.8713 5.37868 12.375 6 12.375Z" fill="#191C1F"/>
<path d="M6 18.75C8.07107 18.75 9.75 15.3921 9.75 11.25C9.75 7.10786 8.07107 3.75 6 3.75C3.92893 3.75 2.25 7.10786 2.25 11.25C2.25 15.3921 3.92893 18.75 6 18.75Z" stroke="#191C1F" stroke-width="1.5" stroke-linecap="round" stroke-linejoin="round"/>
<path d="M9.75 11.25V19.5C9.75 19.6989 9.82902 19.8897 9.96967 20.0303C10.1103 20.171 10.3011 20.25 10.5 20.25H21C21.1989 20.25 21.3897 20.171 21.5303 20.0303C21.671 19.8897 21.75 19.6989 21.75 19.5V11.25C21.75 7.10625 20.0719 3.75 18 3.75H6" stroke="#191C1F" stroke-width="1.5" stroke-linecap="round" stroke-linejoin="round"/>
<path d="M9.75 11.25H12" stroke="#191C1F" stroke-width="1.5" stroke-linecap="round" stroke-linejoin="round"/>
<path d="M15 11.25H16.5" stroke="#191C1F" stroke-width="1.5" stroke-linecap="round" stroke-linejoin="round"/>
<path d="M19.5 11.25H21.75" stroke="#191C1F" stroke-width="1.5" stroke-linecap="round" stroke-linejoin="round"/>
</svg>
