<svg width="24" height="24" viewBox="0 0 24 24" fill="none" xmlns="http://www.w3.org/2000/svg">
<path d="M12 21C16.9706 21 21 16.9706 21 12C21 7.02944 16.9706 3 12 3C7.02944 3 3 7.02944 3 12C3 16.9706 7.02944 21 12 21Z" stroke="#191C1F" stroke-width="1.5" stroke-linecap="round" stroke-linejoin="round"/>
<path d="M9.75 12.75H12.75C13.3467 12.75 13.919 12.5129 14.341 12.091C14.7629 11.669 15 11.0967 15 10.5C15 9.90326 14.7629 9.33097 14.341 8.90901C13.919 8.48705 13.3467 8.25 12.75 8.25H9.75V15.75" stroke="#191C1F" stroke-width="1.5" stroke-linecap="round" stroke-linejoin="round"/>
<path d="M12.9 12.7407L15 15.7501" stroke="#191C1F" stroke-width="1.5" stroke-linecap="round" stroke-linejoin="round"/>
</svg>
