<svg width="24" height="24" viewBox="0 0 24 24" fill="none" xmlns="http://www.w3.org/2000/svg">
<path d="M13.5 13.5L15.75 11.25L13.5 9" stroke="#191C1F" stroke-width="1.5" stroke-linecap="round" stroke-linejoin="round"/>
<path d="M11.4714 1.65856L1.66034 11.4697C1.36744 11.7626 1.36744 12.2374 1.66033 12.5303L11.4748 22.3448C11.7676 22.6376 12.2425 22.6376 12.5354 22.3448L22.3465 12.5336C22.6394 12.2408 22.6394 11.7659 22.3465 11.473L12.5321 1.65856C12.2392 1.36567 11.7643 1.36567 11.4714 1.65856Z" stroke="#191C1F" stroke-width="1.5" stroke-linecap="round" stroke-linejoin="round"/>
<path d="M8.25002 14.25V13.5C8.24878 13.2042 8.30613 12.9111 8.41876 12.6375C8.5314 12.364 8.69708 12.1154 8.90626 11.9063C9.11544 11.6971 9.36397 11.5314 9.63752 11.4188C9.91106 11.3061 10.2042 11.2488 10.5 11.25H15.75" stroke="#191C1F" stroke-width="1.5" stroke-linecap="round" stroke-linejoin="round"/>
</svg>
