<svg width="24" height="24" viewBox="0 0 24 24" fill="none" xmlns="http://www.w3.org/2000/svg">
<path d="M17.25 3H6.75C6.33579 3 6 3.33579 6 3.75V20.25C6 20.6642 6.33579 21 6.75 21H17.25C17.6642 21 18 20.6642 18 20.25V3.75C18 3.33579 17.6642 3 17.25 3Z" stroke="#191C1F" stroke-width="1.5" stroke-linecap="round" stroke-linejoin="round"/>
<path d="M12 10.5C13.2426 10.5 14.25 9.49264 14.25 8.25C14.25 7.00736 13.2426 6 12 6C10.7574 6 9.75 7.00736 9.75 8.25C9.75 9.49264 10.7574 10.5 12 10.5Z" stroke="#191C1F" stroke-width="1.5" stroke-linecap="round" stroke-linejoin="round"/>
<path d="M12 18C13.2426 18 14.25 16.9926 14.25 15.75C14.25 14.5074 13.2426 13.5 12 13.5C10.7574 13.5 9.75 14.5074 9.75 15.75C9.75 16.9926 10.7574 18 12 18Z" stroke="#191C1F" stroke-width="1.5" stroke-linecap="round" stroke-linejoin="round"/>
<path d="M18 6.75H20.25" stroke="#191C1F" stroke-width="1.5" stroke-linecap="round" stroke-linejoin="round"/>
<path d="M18 14.25H20.25" stroke="#191C1F" stroke-width="1.5" stroke-linecap="round" stroke-linejoin="round"/>
<path d="M3.75 6.75H6" stroke="#191C1F" stroke-width="1.5" stroke-linecap="round" stroke-linejoin="round"/>
<path d="M3.75 14.25H6" stroke="#191C1F" stroke-width="1.5" stroke-linecap="round" stroke-linejoin="round"/>
</svg>
