<svg width="24" height="24" viewBox="0 0 24 24" fill="none" xmlns="http://www.w3.org/2000/svg">
<path d="M4.125 12H19.875" stroke="#191C1F" stroke-width="1.5" stroke-linecap="round" stroke-linejoin="round"/>
<path d="M9 19.5L6.75 22.5" stroke="#191C1F" stroke-width="1.5" stroke-linecap="round" stroke-linejoin="round"/>
<path d="M15 19.5L17.25 22.5" stroke="#191C1F" stroke-width="1.5" stroke-linecap="round" stroke-linejoin="round"/>
<path d="M17.625 3H6.375C5.13236 3 4.125 4.00736 4.125 5.25V17.25C4.125 18.4926 5.13236 19.5 6.375 19.5H17.625C18.8676 19.5 19.875 18.4926 19.875 17.25V5.25C19.875 4.00736 18.8676 3 17.625 3Z" stroke="#191C1F" stroke-width="1.5" stroke-linecap="round" stroke-linejoin="round"/>
<path d="M7.875 17.25C8.49632 17.25 9 16.7463 9 16.125C9 15.5037 8.49632 15 7.875 15C7.25368 15 6.75 15.5037 6.75 16.125C6.75 16.7463 7.25368 17.25 7.875 17.25Z" fill="#191C1F"/>
<path d="M16.125 17.25C16.7463 17.25 17.25 16.7463 17.25 16.125C17.25 15.5037 16.7463 15 16.125 15C15.5037 15 15 15.5037 15 16.125C15 16.7463 15.5037 17.25 16.125 17.25Z" fill="#191C1F"/>
</svg>
