<svg width="24" height="24" viewBox="0 0 24 24" fill="none" xmlns="http://www.w3.org/2000/svg">
<path d="M12 21.75V8.25" stroke="#191C1F" stroke-width="1.5" stroke-linecap="round" stroke-linejoin="round"/>
<path d="M12 14.25L7.5 12" stroke="#191C1F" stroke-width="1.5" stroke-linecap="round" stroke-linejoin="round"/>
<path d="M12 12L16.5 9.75" stroke="#191C1F" stroke-width="1.5" stroke-linecap="round" stroke-linejoin="round"/>
<path d="M12.4218 16.9874C13.1099 17.4561 13.888 17.7764 14.7066 17.928C15.5252 18.0797 16.3665 18.0593 17.1768 17.8682C17.9871 17.677 18.7487 17.3194 19.4133 16.8179C20.0779 16.3165 20.6309 15.6822 21.037 14.9554C21.4432 14.2287 21.6936 13.4253 21.7724 12.5965C21.8513 11.7677 21.7568 10.9316 21.4949 10.1413C21.2331 9.351 20.8096 8.62385 20.2515 8.00609C19.6934 7.38833 19.0128 6.89348 18.253 6.55302C18.0862 6.46915 17.9537 6.32998 17.878 6.15927C17.392 5.00142 16.5749 4.0129 15.5291 3.31773C14.4834 2.62256 13.2556 2.25171 11.9999 2.25171C10.7442 2.25171 9.51645 2.62256 8.47071 3.31773C7.42497 4.0129 6.60782 5.00142 6.1218 6.15927C6.04616 6.32998 5.91362 6.46915 5.7468 6.55302C4.98705 6.89348 4.30647 7.38833 3.74835 8.00609C3.19022 8.62385 2.76677 9.351 2.50493 10.1413C2.24308 10.9316 2.14857 11.7677 2.2274 12.5965C2.30623 13.4253 2.55669 14.2287 2.96284 14.9554C3.36899 15.6822 3.92194 16.3165 4.58652 16.8179C5.2511 17.3194 6.01277 17.677 6.82308 17.8682C7.63339 18.0593 8.47461 18.0797 9.29323 17.928C10.1118 17.7764 10.8899 17.4561 11.578 16.9874C11.7034 16.9051 11.85 16.8613 11.9999 16.8613C12.1498 16.8613 12.2965 16.9051 12.4218 16.9874Z" stroke="#191C1F" stroke-width="1.5" stroke-linecap="round" stroke-linejoin="round"/>
</svg>
