<svg width="24" height="24" viewBox="0 0 24 24" fill="none" xmlns="http://www.w3.org/2000/svg">
<path fill-rule="evenodd" clip-rule="evenodd" d="M10.876 2.55208C11.2175 2.35405 11.6052 2.24976 12 2.24976C12.3947 2.24976 12.7825 2.35405 13.124 2.55208C13.4649 2.74978 13.7476 3.03389 13.9437 3.37573C13.944 3.37631 13.9443 3.37689 13.9447 3.37747L22.1928 17.6242C22.3899 17.9657 22.4943 18.3537 22.4947 18.748C22.495 19.1423 22.3918 19.5298 22.1952 19.8716C21.9987 20.2134 21.7158 20.4975 21.3748 20.6956C21.0339 20.8936 20.6469 20.9986 20.2526 21L20.25 21H3.74997L3.74732 21C3.35304 20.9986 2.96604 20.8936 2.6251 20.6956C2.28416 20.4975 2.00125 20.2134 1.80471 19.8716C1.60817 19.5298 1.5049 19.1423 1.50525 18.748C1.5056 18.3537 1.60955 17.9664 1.8067 17.625L10.0553 3.37747C10.0556 3.37686 10.056 3.37625 10.0563 3.37564C10.2524 3.03384 10.5351 2.74976 10.876 2.55208ZM10.7062 3.74998L11.3553 4.12577L3.10573 18.375C3.10567 18.3751 3.10579 18.3749 3.10573 18.375C3.04014 18.4887 3.00537 18.618 3.00525 18.7493C3.00513 18.8808 3.03956 19.0099 3.10507 19.1239C3.17058 19.2378 3.26489 19.3325 3.37853 19.3985C3.49191 19.4644 3.62057 19.4994 3.75168 19.5H20.2482C20.3794 19.4994 20.508 19.4644 20.6214 19.3985C20.735 19.3325 20.8293 19.2378 20.8949 19.1239C20.9604 19.0099 20.9948 18.8808 20.9947 18.7493C20.9946 18.6179 20.9599 18.4888 20.8942 18.375L12.6428 4.12252C12.578 4.00927 12.4844 3.91515 12.3715 3.84969C12.2586 3.78423 12.1305 3.74976 12 3.74976C11.8695 3.74976 11.7413 3.78423 11.6284 3.84969C11.5156 3.91515 11.422 4.00926 11.3572 4.12252L10.7062 3.74998Z" fill="#191C1F"/>
</svg>
