<svg width="24" height="24" viewBox="0 0 24 24" fill="none" xmlns="http://www.w3.org/2000/svg">
<path d="M15.4781 18.75H11.5219C11.3463 18.75 11.1766 18.8133 11.0438 18.9281L6.75 22.5V18.75H4.5C4.30109 18.75 4.11032 18.671 3.96967 18.5303C3.82902 18.3897 3.75 18.1989 3.75 18V4.5C3.75 4.30109 3.82902 4.11032 3.96967 3.96967C4.11032 3.82902 4.30109 3.75 4.5 3.75H19.5C19.6989 3.75 19.8897 3.82902 20.0303 3.96967C20.171 4.11032 20.25 4.30109 20.25 4.5V14.6531C20.2485 14.7624 20.2234 14.8701 20.1765 14.9688C20.1296 15.0674 20.0619 15.1549 19.9781 15.225L15.9562 18.5719C15.8234 18.6867 15.6537 18.75 15.4781 18.75V18.75Z" stroke="#191C1F" stroke-width="1.5" stroke-linecap="round" stroke-linejoin="round"/>
<path d="M15.75 8.25V12.75" stroke="#191C1F" stroke-width="1.5" stroke-linecap="round" stroke-linejoin="round"/>
<path d="M11.25 8.25V12.75" stroke="#191C1F" stroke-width="1.5" stroke-linecap="round" stroke-linejoin="round"/>
</svg>
