<svg width="24" height="24" viewBox="0 0 24 24" fill="none" xmlns="http://www.w3.org/2000/svg">
<path d="M12 8.24997C12 6.18747 13.7344 4.47185 15.7969 4.49997C16.5192 4.50831 17.2237 4.72509 17.8257 5.12423C18.4278 5.52338 18.9017 6.08792 19.1906 6.74997H22.5L19.4719 9.7781C19.2764 12.8199 17.9299 15.6731 15.7061 17.7576C13.4823 19.8421 10.548 21.0015 7.49999 21C4.49999 21 3.74999 19.875 3.74999 19.875C3.74999 19.875 6.74999 18.75 8.24999 16.5C8.24999 16.5 2.24999 13.5 3.74999 5.24997C3.74999 5.24997 7.49999 8.99997 12 9.74998V8.24997Z" stroke="#191C1F" stroke-width="1.5" stroke-linecap="round" stroke-linejoin="round"/>
</svg>
