<svg width="24" height="24" viewBox="0 0 24 24" fill="none" xmlns="http://www.w3.org/2000/svg">
<path d="M16.5 18.75C16.5 19.3467 16.2629 19.919 15.841 20.341C15.419 20.7629 14.8467 21 14.25 21C13.6533 21 13.081 20.7629 12.659 20.341C12.2371 19.919 12 19.3467 12 18.75V12.75" stroke="#191C1F" stroke-width="1.5" stroke-linecap="round" stroke-linejoin="round"/>
<path d="M3.02812 12.7499C2.92422 12.7504 2.82136 12.7291 2.72624 12.6873C2.63112 12.6455 2.54586 12.5841 2.47601 12.5072C2.40616 12.4302 2.35328 12.3395 2.3208 12.2408C2.28832 12.1421 2.27698 12.0376 2.2875 11.9343C2.50112 9.50567 3.61683 7.24523 5.41468 5.59858C7.21252 3.95193 9.56203 3.03857 12 3.03857C14.438 3.03857 16.7875 3.95193 18.5853 5.59858C20.3832 7.24523 21.4989 9.50567 21.7125 11.9343C21.723 12.0376 21.7117 12.1421 21.6792 12.2408C21.6467 12.3395 21.5938 12.4302 21.524 12.5072C21.4541 12.5841 21.3689 12.6455 21.2738 12.6873C21.1786 12.7291 21.0758 12.7504 20.9719 12.7499H3.02812Z" stroke="#191C1F" stroke-width="1.5" stroke-linecap="round" stroke-linejoin="round"/>
</svg>
