<svg width="24" height="24" viewBox="0 0 24 24" fill="none" xmlns="http://www.w3.org/2000/svg">
<path d="M12 15C14.0711 15 15.75 13.3211 15.75 11.25C15.75 9.17893 14.0711 7.5 12 7.5C9.92893 7.5 8.25 9.17893 8.25 11.25C8.25 13.3211 9.92893 15 12 15Z" stroke="#191C1F" stroke-width="1.5" stroke-linecap="round" stroke-linejoin="round"/>
<path d="M5.9812 18.6938C6.54549 17.5824 7.40654 16.6488 8.4689 15.9968C9.53126 15.3447 10.7534 14.9995 12 14.9995C13.2465 14.9995 14.4686 15.3447 15.531 15.9968C16.5934 16.6488 17.4544 17.5824 18.0187 18.6938" stroke="#191C1F" stroke-width="1.5" stroke-linecap="round" stroke-linejoin="round"/>
<path d="M18.75 12L21 14.25L23.25 12" stroke="#191C1F" stroke-width="1.5" stroke-linecap="round" stroke-linejoin="round"/>
<path d="M0.75 12L3 9.75L5.25 12" stroke="#191C1F" stroke-width="1.5" stroke-linecap="round" stroke-linejoin="round"/>
<path d="M21 14.2501V12.0001C21.0021 10.0556 20.3744 8.16267 19.2108 6.60473C18.0472 5.04679 16.4104 3.90759 14.5453 3.35766C12.6802 2.80773 10.6871 2.87665 8.86442 3.5541C7.04175 4.23155 5.4875 5.48109 4.43433 7.11569" stroke="#191C1F" stroke-width="1.5" stroke-linecap="round" stroke-linejoin="round"/>
<path d="M3.00001 9.75V12C2.99788 13.9445 3.62558 15.8374 4.78915 17.3953C5.95272 18.9533 7.58957 20.0925 9.45469 20.6424C11.3198 21.1923 13.3129 21.1234 15.1355 20.446C16.9582 19.7685 18.5125 18.519 19.5656 16.8844" stroke="#191C1F" stroke-width="1.5" stroke-linecap="round" stroke-linejoin="round"/>
</svg>
