<svg width="24" height="24" viewBox="0 0 24 24" fill="none" xmlns="http://www.w3.org/2000/svg">
<path d="M12 15C14.0711 15 15.75 13.3211 15.75 11.25C15.75 9.17893 14.0711 7.5 12 7.5C9.92893 7.5 8.25 9.17893 8.25 11.25C8.25 13.3211 9.92893 15 12 15Z" stroke="#191C1F" stroke-width="1.5" stroke-linecap="round" stroke-linejoin="round"/>
<path d="M20.25 4.5H3.75C3.33579 4.5 3 4.83579 3 5.25V18.75C3 19.1642 3.33579 19.5 3.75 19.5H20.25C20.6642 19.5 21 19.1642 21 18.75V5.25C21 4.83579 20.6642 4.5 20.25 4.5Z" stroke="#191C1F" stroke-width="1.5" stroke-linecap="round" stroke-linejoin="round"/>
<path d="M5.63428 19.5001C6.09887 18.1829 6.96063 17.0423 8.10075 16.2355C9.24086 15.4286 10.6032 14.9954 11.9999 14.9954C13.3966 14.9954 14.7589 15.4286 15.8991 16.2355C17.0392 17.0423 17.9009 18.1829 18.3655 19.5001" stroke="#191C1F" stroke-width="1.5" stroke-linecap="round" stroke-linejoin="round"/>
</svg>
