<svg width="24" height="24" viewBox="0 0 24 24" fill="none" xmlns="http://www.w3.org/2000/svg">
<path d="M12 15C14.0711 15 15.75 13.3211 15.75 11.25C15.75 9.17893 14.0711 7.5 12 7.5C9.92893 7.5 8.25 9.17893 8.25 11.25C8.25 13.3211 9.92893 15 12 15Z" stroke="#191C1F" stroke-width="1.5" stroke-miterlimit="10"/>
<path d="M5.9812 18.6938C6.54549 17.5824 7.40654 16.6488 8.4689 15.9968C9.53126 15.3447 10.7534 14.9995 12 14.9995C13.2465 14.9995 14.4686 15.3447 15.531 15.9968C16.5934 16.6488 17.4544 17.5824 18.0187 18.6938" stroke="#191C1F" stroke-width="1.5" stroke-linecap="round" stroke-linejoin="round"/>
<path d="M18.75 6.75C19.5784 6.75 20.25 6.07843 20.25 5.25C20.25 4.42157 19.5784 3.75 18.75 3.75C17.9216 3.75 17.25 4.42157 17.25 5.25C17.25 6.07843 17.9216 6.75 18.75 6.75Z" stroke="#191C1F" stroke-width="1.5" stroke-linecap="round" stroke-linejoin="round"/>
<path d="M18.75 3.75V2.625" stroke="#191C1F" stroke-width="1.5" stroke-linecap="round" stroke-linejoin="round"/>
<path d="M17.4468 4.5L16.4812 3.9375" stroke="#191C1F" stroke-width="1.5" stroke-linecap="round" stroke-linejoin="round"/>
<path d="M17.4468 6L16.4812 6.5625" stroke="#191C1F" stroke-width="1.5" stroke-linecap="round" stroke-linejoin="round"/>
<path d="M18.75 6.75V7.875" stroke="#191C1F" stroke-width="1.5" stroke-linecap="round" stroke-linejoin="round"/>
<path d="M20.0532 6L21.0188 6.5625" stroke="#191C1F" stroke-width="1.5" stroke-linecap="round" stroke-linejoin="round"/>
<path d="M20.0532 4.5L21.0188 3.9375" stroke="#191C1F" stroke-width="1.5" stroke-linecap="round" stroke-linejoin="round"/>
<path d="M20.9344 10.9218C20.9799 11.2793 21.0018 11.6395 21 11.9999C21 13.78 20.4722 15.52 19.4832 17.0001C18.4943 18.4801 17.0887 19.6336 15.4442 20.3148C13.7996 20.996 11.99 21.1743 10.2442 20.827C8.49836 20.4797 6.89472 19.6226 5.63604 18.3639C4.37737 17.1052 3.5202 15.5016 3.17294 13.7557C2.82567 12.0099 3.0039 10.2003 3.68509 8.55577C4.36628 6.91123 5.51983 5.50562 6.99987 4.51669C8.47991 3.52776 10.22 2.99992 12 2.99992C12.2786 2.99816 12.5571 3.01068 12.8344 3.03742" stroke="#191C1F" stroke-width="1.5" stroke-linecap="round" stroke-linejoin="round"/>
</svg>
