<svg width="24" height="24" viewBox="0 0 24 24" fill="none" xmlns="http://www.w3.org/2000/svg">
<path d="M12 15C14.0711 15 15.75 13.3211 15.75 11.25C15.75 9.17893 14.0711 7.5 12 7.5C9.92893 7.5 8.25 9.17893 8.25 11.25C8.25 13.3211 9.92893 15 12 15Z" stroke="#191C1F" stroke-width="1.5" stroke-linecap="round" stroke-linejoin="round"/>
<path d="M19.5 3.75H4.5C4.08579 3.75 3.75 4.08579 3.75 4.5V19.5C3.75 19.9142 4.08579 20.25 4.5 20.25H19.5C19.9142 20.25 20.25 19.9142 20.25 19.5V4.5C20.25 4.08579 19.9142 3.75 19.5 3.75Z" stroke="#191C1F" stroke-width="1.5" stroke-linecap="round" stroke-linejoin="round"/>
<path d="M5.4187 20.2501C5.75857 18.7588 6.59485 17.4272 7.79054 16.4733C8.98623 15.5195 10.4704 15 12 15C13.5295 15 15.0137 15.5195 16.2094 16.4733C17.405 17.4272 18.2413 18.7588 18.5812 20.2501" stroke="#191C1F" stroke-width="1.5" stroke-linecap="round" stroke-linejoin="round"/>
</svg>
