<svg width="24" height="24" viewBox="0 0 24 24" fill="none" xmlns="http://www.w3.org/2000/svg">
<path d="M10.125 15C13.2316 15 15.75 12.4816 15.75 9.375C15.75 6.2684 13.2316 3.75 10.125 3.75C7.0184 3.75 4.5 6.2684 4.5 9.375C4.5 12.4816 7.0184 15 10.125 15Z" stroke="#191C1F" stroke-width="1.5" stroke-miterlimit="10"/>
<path d="M2.0813 18.7501C3.06685 17.5755 4.29771 16.6309 5.68736 15.9829C7.07701 15.3348 8.59173 14.999 10.125 14.999C11.6584 14.999 13.1731 15.3348 14.5627 15.9829C15.9524 16.6309 17.1832 17.5755 18.1688 18.7501" stroke="#191C1F" stroke-width="1.5" stroke-linecap="round" stroke-linejoin="round"/>
<path d="M20.625 14.25C21.4534 14.25 22.125 13.5784 22.125 12.75C22.125 11.9216 21.4534 11.25 20.625 11.25C19.7966 11.25 19.125 11.9216 19.125 12.75C19.125 13.5784 19.7966 14.25 20.625 14.25Z" stroke="#191C1F" stroke-width="1.5" stroke-linecap="round" stroke-linejoin="round"/>
<path d="M20.625 11.25V10.125" stroke="#191C1F" stroke-width="1.5" stroke-linecap="round" stroke-linejoin="round"/>
<path d="M19.3218 12L18.3562 11.4375" stroke="#191C1F" stroke-width="1.5" stroke-linecap="round" stroke-linejoin="round"/>
<path d="M19.3218 13.5L18.3562 14.0625" stroke="#191C1F" stroke-width="1.5" stroke-linecap="round" stroke-linejoin="round"/>
<path d="M20.625 14.25V15.375" stroke="#191C1F" stroke-width="1.5" stroke-linecap="round" stroke-linejoin="round"/>
<path d="M21.9282 13.5L22.8938 14.0625" stroke="#191C1F" stroke-width="1.5" stroke-linecap="round" stroke-linejoin="round"/>
<path d="M21.9282 12L22.8938 11.4375" stroke="#191C1F" stroke-width="1.5" stroke-linecap="round" stroke-linejoin="round"/>
</svg>
