<svg width="24" height="24" viewBox="0 0 24 24" fill="none" xmlns="http://www.w3.org/2000/svg">
<path d="M12 15C14.0711 15 15.75 13.3211 15.75 11.25C15.75 9.17893 14.0711 7.5 12 7.5C9.92893 7.5 8.25 9.17893 8.25 11.25C8.25 13.3211 9.92893 15 12 15Z" stroke="#191C1F" stroke-width="1.5" stroke-miterlimit="10"/>
<path d="M5.9812 18.6938C6.54549 17.5824 7.40654 16.6488 8.4689 15.9968C9.53126 15.3447 10.7534 14.9995 12 14.9995C13.2465 14.9995 14.4686 15.3447 15.531 15.9968C16.5934 16.6488 17.4544 17.5824 18.0187 18.6938" stroke="#191C1F" stroke-width="1.5" stroke-linecap="round" stroke-linejoin="round"/>
<path d="M16.5 5.25H21" stroke="#191C1F" stroke-width="1.5" stroke-linecap="round" stroke-linejoin="round"/>
<path d="M20.4844 9.00002C20.8282 9.96273 21.0027 10.9777 21 12C21 13.78 20.4722 15.5201 19.4832 17.0002C18.4943 18.4802 17.0887 19.6337 15.4442 20.3149C13.7996 20.9961 11.99 21.1744 10.2442 20.8271C8.49836 20.4798 6.89472 19.6227 5.63604 18.364C4.37737 17.1053 3.5202 15.5017 3.17294 13.7558C2.82567 12.01 3.0039 10.2004 3.68509 8.55587C4.36628 6.91133 5.51983 5.50572 6.99987 4.51679C8.47991 3.52786 10.22 3.00002 12 3.00002C12.4741 2.99909 12.9476 3.03671 13.4156 3.11252" stroke="#191C1F" stroke-width="1.5" stroke-linecap="round" stroke-linejoin="round"/>
</svg>
