<svg width="24" height="24" viewBox="0 0 24 24" fill="none" xmlns="http://www.w3.org/2000/svg">
<path d="M18 18.75V21" stroke="#191C1F" stroke-width="1.5" stroke-linecap="round" stroke-linejoin="round"/>
<path d="M6 18.75V21" stroke="#191C1F" stroke-width="1.5" stroke-linecap="round" stroke-linejoin="round"/>
<path d="M20.25 4.5H3.75C3.33579 4.5 3 4.83579 3 5.25V18C3 18.4142 3.33579 18.75 3.75 18.75H20.25C20.6642 18.75 21 18.4142 21 18V5.25C21 4.83579 20.6642 4.5 20.25 4.5Z" stroke="#191C1F" stroke-width="1.5" stroke-linecap="round" stroke-linejoin="round"/>
<path d="M14.25 13.5C15.0784 13.5 15.75 12.8284 15.75 12C15.75 11.1716 15.0784 10.5 14.25 10.5C13.4216 10.5 12.75 11.1716 12.75 12C12.75 12.8284 13.4216 13.5 14.25 13.5Z" fill="#191C1F"/>
<path d="M14.25 12H21" stroke="#191C1F" stroke-width="1.5" stroke-linecap="round" stroke-linejoin="round"/>
<path d="M14.25 15.75C16.3211 15.75 18 14.0711 18 12C18 9.92893 16.3211 8.25 14.25 8.25C12.1789 8.25 10.5 9.92893 10.5 12C10.5 14.0711 12.1789 15.75 14.25 15.75Z" stroke="#191C1F" stroke-width="1.5" stroke-linecap="round" stroke-linejoin="round"/>
</svg>
