<svg width="24" height="24" viewBox="0 0 24 24" fill="none" xmlns="http://www.w3.org/2000/svg">
<path d="M22.5 16.5L17.25 13.5V10.5L22.5 7.5V16.5Z" stroke="#191C1F" stroke-width="1.5" stroke-linecap="round" stroke-linejoin="round"/>
<path d="M3.27197 2.25L21.0001 21.75" stroke="#191C1F" stroke-width="1.5" stroke-linecap="round" stroke-linejoin="round"/>
<path d="M10.397 5.625H16.5001C16.699 5.625 16.8898 5.70402 17.0304 5.84467C17.1711 5.98532 17.2501 6.17609 17.2501 6.375V13.5" stroke="#191C1F" stroke-width="1.5" stroke-linecap="round" stroke-linejoin="round"/>
<path d="M17.25 17.625C17.25 17.8239 17.171 18.0147 17.0303 18.1553C16.8897 18.296 16.6989 18.375 16.5 18.375H2.25C2.05109 18.375 1.86032 18.296 1.71967 18.1553C1.57902 18.0147 1.5 17.8239 1.5 17.625V6.375C1.5 6.17609 1.57902 5.98532 1.71967 5.84467C1.86032 5.70402 2.05109 5.625 2.25 5.625H6.3375" stroke="#191C1F" stroke-width="1.5" stroke-linecap="round" stroke-linejoin="round"/>
</svg>
