<svg width="24" height="24" viewBox="0 0 24 24" fill="none" xmlns="http://www.w3.org/2000/svg">
<path fill-rule="evenodd" clip-rule="evenodd" d="M2.25 5.25C2.25 4.42157 2.92157 3.75 3.75 3.75H20.25C21.0784 3.75 21.75 4.42157 21.75 5.25V18.75C21.75 19.5784 21.0784 20.25 20.25 20.25H3.75C2.92157 20.25 2.25 19.5784 2.25 18.75V5.25ZM20.25 5.25H3.75V18.75H20.25V5.25Z" fill="#191C1F"/>
<path fill-rule="evenodd" clip-rule="evenodd" d="M8.20736 9.41802C7.26364 10.1258 6.75 11.0464 6.75 12C6.75 12.9536 7.26364 13.8742 8.20736 14.582C9.15131 15.2899 10.4897 15.75 12 15.75C13.5103 15.75 14.8487 15.2899 15.7926 14.582C16.7364 13.8742 17.25 12.9536 17.25 12C17.25 11.0464 16.7364 10.1258 15.7926 9.41802C14.8487 8.71006 13.5103 8.25 12 8.25C10.4897 8.25 9.15131 8.71006 8.20736 9.41802ZM7.30736 8.21802C8.53498 7.2973 10.1966 6.75 12 6.75C13.8034 6.75 15.465 7.2973 16.6926 8.21802C17.9205 9.13891 18.75 10.4684 18.75 12C18.75 13.5316 17.9205 14.8611 16.6926 15.782C15.465 16.7027 13.8034 17.25 12 17.25C10.1966 17.25 8.53498 16.7027 7.30736 15.782C6.0795 14.8611 5.25 13.5316 5.25 12C5.25 10.4684 6.0795 9.13891 7.30736 8.21802Z" fill="#191C1F"/>
</svg>
