<svg width="24" height="24" viewBox="0 0 24 24" fill="none" xmlns="http://www.w3.org/2000/svg">
<path d="M12 21C16.9706 21 21 16.9706 21 12C21 7.02944 16.9706 3 12 3C7.02944 3 3 7.02944 3 12C3 16.9706 7.02944 21 12 21Z" stroke="#191C1F" stroke-width="1.5" stroke-linecap="round" stroke-linejoin="round"/>
<path d="M7.5 4.20935L12 12" stroke="#191C1F" stroke-width="1.5" stroke-linecap="round" stroke-linejoin="round"/>
<path d="M7.5 19.7906L12 12" stroke="#191C1F" stroke-width="1.5" stroke-linecap="round" stroke-linejoin="round"/>
<path d="M21 12H12" stroke="#191C1F" stroke-width="1.5" stroke-linecap="round" stroke-linejoin="round"/>
<path d="M10.9313 3.06561C12.6283 3.82608 14.0484 5.09305 14.9968 6.69267C15.9451 8.2923 16.3753 10.1462 16.2282 12" stroke="#191C1F" stroke-width="1.5" stroke-linecap="round" stroke-linejoin="round"/>
<path d="M4.79058 17.4C4.59978 15.5484 4.98779 13.6832 5.90116 12.0613C6.81454 10.4394 8.20833 9.14056 9.89058 8.34375" stroke="#191C1F" stroke-width="1.5" stroke-linecap="round" stroke-linejoin="round"/>
<path d="M20.2781 15.5438C18.7706 16.6337 16.9624 17.2298 15.1022 17.25C13.2421 17.2701 11.4214 16.7133 9.89062 15.6563" stroke="#191C1F" stroke-width="1.5" stroke-linecap="round" stroke-linejoin="round"/>
</svg>
