<svg width="24" height="24" viewBox="0 0 24 24" fill="none" xmlns="http://www.w3.org/2000/svg">
<path d="M12 9.75V13.5" stroke="#191C1F" stroke-width="1.5" stroke-linecap="round" stroke-linejoin="round"/>
<path d="M10.7063 3.74999L2.45634 18C2.32491 18.2276 2.2556 18.4858 2.25537 18.7487C2.25514 19.0115 2.32398 19.2698 2.45501 19.4977C2.58604 19.7256 2.77465 19.915 3.00194 20.0471C3.22923 20.1791 3.48723 20.2491 3.75009 20.25H20.2501C20.5129 20.2491 20.7709 20.1791 20.9982 20.0471C21.2255 19.915 21.4141 19.7256 21.5452 19.4977C21.6762 19.2698 21.745 19.0115 21.7448 18.7487C21.7446 18.4858 21.6753 18.2276 21.5438 18L13.2938 3.74999C13.1634 3.52206 12.975 3.33263 12.7479 3.20088C12.5207 3.06914 12.2627 2.99976 12.0001 2.99976C11.7375 2.99976 11.4795 3.06914 11.2523 3.20088C11.0251 3.33263 10.8368 3.52206 10.7063 3.74999V3.74999Z" stroke="#191C1F" stroke-width="1.5" stroke-linecap="round" stroke-linejoin="round"/>
<path d="M12 18C12.6213 18 13.125 17.4963 13.125 16.875C13.125 16.2537 12.6213 15.75 12 15.75C11.3787 15.75 10.875 16.2537 10.875 16.875C10.875 17.4963 11.3787 18 12 18Z" fill="#191C1F"/>
</svg>
