<svg width="24" height="24" viewBox="0 0 24 24" fill="none" xmlns="http://www.w3.org/2000/svg">
<path d="M12 18.75C15.7279 18.75 18.75 15.7279 18.75 12C18.75 8.27208 15.7279 5.25 12 5.25C8.27208 5.25 5.25 8.27208 5.25 12C5.25 15.7279 8.27208 18.75 12 18.75Z" stroke="#191C1F" stroke-width="1.5" stroke-miterlimit="10"/>
<path d="M12 8.25V12H15.75" stroke="#191C1F" stroke-width="1.5" stroke-linecap="round" stroke-linejoin="round"/>
<path d="M8.25 6.38438L8.8875 2.86875C8.91839 2.69495 9.0096 2.53761 9.14507 2.42443C9.28054 2.31125 9.4516 2.24949 9.62812 2.25H14.3719C14.5484 2.24949 14.7195 2.31125 14.8549 2.42443C14.9904 2.53761 15.0816 2.69495 15.1125 2.86875L15.75 6.38438" stroke="#191C1F" stroke-width="1.5" stroke-linecap="round" stroke-linejoin="round"/>
<path d="M8.25 17.6157L8.8875 21.1313C8.91839 21.3052 9.0096 21.4625 9.14507 21.5757C9.28054 21.6889 9.4516 21.7506 9.62812 21.7501H14.3719C14.5484 21.7506 14.7195 21.6889 14.8549 21.5757C14.9904 21.4625 15.0816 21.3052 15.1125 21.1313L15.75 17.6157" stroke="#191C1F" stroke-width="1.5" stroke-linecap="round" stroke-linejoin="round"/>
</svg>
