<svg width="24" height="24" viewBox="0 0 24 24" fill="none" xmlns="http://www.w3.org/2000/svg">
<path d="M4.5 3.75L19.5 20.25" stroke="#191C1F" stroke-width="1.5" stroke-linecap="round" stroke-linejoin="round"/>
<path d="M10.0405 5.39067C10.6894 5.29621 11.3442 5.24921 11.9999 5.25005C15.6124 5.24033 19.0813 6.66299 21.6468 9.2063" stroke="#191C1F" stroke-width="1.5" stroke-linecap="round" stroke-linejoin="round"/>
<path d="M2.35303 9.20622C3.62466 7.94706 5.13133 6.95005 6.7874 6.27185" stroke="#191C1F" stroke-width="1.5" stroke-linecap="round" stroke-linejoin="round"/>
<path d="M14.2593 10.0312C15.8477 10.4247 17.3015 11.2373 18.4687 12.3844" stroke="#191C1F" stroke-width="1.5" stroke-linecap="round" stroke-linejoin="round"/>
<path d="M5.53125 12.3844C6.79684 11.146 8.39118 10.2968 10.125 9.9375" stroke="#191C1F" stroke-width="1.5" stroke-linecap="round" stroke-linejoin="round"/>
<path d="M8.70947 15.5719C9.55492 14.7646 10.6673 14.2958 11.8354 14.2543C13.0036 14.2129 14.1464 14.6016 15.047 15.3469" stroke="#191C1F" stroke-width="1.5" stroke-linecap="round" stroke-linejoin="round"/>
<path d="M12 19.875C12.6213 19.875 13.125 19.3713 13.125 18.75C13.125 18.1287 12.6213 17.625 12 17.625C11.3787 17.625 10.875 18.1287 10.875 18.75C10.875 19.3713 11.3787 19.875 12 19.875Z" fill="#191C1F"/>
</svg>
