<svg width="24" height="24" viewBox="0 0 24 24" fill="none" xmlns="http://www.w3.org/2000/svg">
<path d="M8.70947 15.5719C9.59453 14.7228 10.7736 14.2487 12.0001 14.2487C13.2266 14.2487 14.4057 14.7228 15.2907 15.5719" stroke="#191C1F" stroke-width="1.5" stroke-linecap="round" stroke-linejoin="round"/>
<path d="M21 5.25L16.5 9.75" stroke="#191C1F" stroke-width="1.5" stroke-linecap="round" stroke-linejoin="round"/>
<path d="M21 9.75L16.5 5.25" stroke="#191C1F" stroke-width="1.5" stroke-linecap="round" stroke-linejoin="round"/>
<path d="M2.35303 9.2063C4.91846 6.66299 8.38745 5.24033 11.9999 5.25005C12.5011 5.24986 13.0019 5.27803 13.4999 5.33442" stroke="#191C1F" stroke-width="1.5" stroke-linecap="round" stroke-linejoin="round"/>
<path d="M5.53125 12.3844C7.25548 10.6872 9.58063 9.74025 12 9.74999C12.5026 9.74749 13.0044 9.78826 13.5 9.87186" stroke="#191C1F" stroke-width="1.5" stroke-linecap="round" stroke-linejoin="round"/>
<path d="M12 19.875C12.6213 19.875 13.125 19.3713 13.125 18.75C13.125 18.1287 12.6213 17.625 12 17.625C11.3787 17.625 10.875 18.1287 10.875 18.75C10.875 19.3713 11.3787 19.875 12 19.875Z" fill="#191C1F"/>
</svg>
