<svg width="24" height="24" viewBox="0 0 24 24" fill="none" xmlns="http://www.w3.org/2000/svg">
<path d="M12 16.5V21.75" stroke="#191C1F" stroke-width="1.5" stroke-linecap="round" stroke-linejoin="round"/>
<path d="M8.25 21.75H15.75" stroke="#191C1F" stroke-width="1.5" stroke-linecap="round" stroke-linejoin="round"/>
<path d="M7.49999 2.25H16.5L18.9469 10.5281C19.0977 11.0467 19.0578 11.6021 18.8344 12.0938C18.2402 13.4085 17.2793 14.5239 16.0671 15.3063C14.8549 16.0887 13.4428 16.5048 12 16.5048C10.5572 16.5048 9.14507 16.0887 7.93286 15.3063C6.72064 14.5239 5.75983 13.4085 5.16562 12.0938C4.94222 11.6021 4.90231 11.0467 5.05312 10.5281L7.49999 2.25Z" stroke="#191C1F" stroke-width="1.5" stroke-linecap="round" stroke-linejoin="round"/>
<path d="M5.39062 9.40307C6.38437 8.86869 8.69062 8.09994 12 9.74994C15.525 11.5124 17.9156 10.5187 18.7875 10.0031" stroke="#191C1F" stroke-width="1.5" stroke-linecap="round" stroke-linejoin="round"/>
</svg>
