<svg width="24" height="24" viewBox="0 0 24 24" fill="none" xmlns="http://www.w3.org/2000/svg">
<path d="M12 21C16.9706 21 21 16.9706 21 12C21 7.02944 16.9706 3 12 3C7.02944 3 3 7.02944 3 12C3 16.9706 7.02944 21 12 21Z" stroke="#191C1F" stroke-width="1.5" stroke-linecap="round" stroke-linejoin="round"/>
<path d="M12 17.625C12.6213 17.625 13.125 17.1213 13.125 16.5C13.125 15.8787 12.6213 15.375 12 15.375C11.3787 15.375 10.875 15.8787 10.875 16.5C10.875 17.1213 11.3787 17.625 12 17.625Z" fill="#191C1F"/>
<path d="M12 21C10.8065 21 9.66193 20.5259 8.81802 19.682C7.97411 18.8381 7.5 17.6935 7.5 16.5C7.5 15.3065 7.97411 14.1619 8.81802 13.318C9.66193 12.4741 10.8065 12 12 12C13.1935 12 14.3381 11.5259 15.182 10.682C16.0259 9.83807 16.5 8.69347 16.5 7.5C16.5 6.30653 16.0259 5.16193 15.182 4.31802C14.3381 3.47411 13.1935 3 12 3" stroke="#191C1F" stroke-width="1.5" stroke-linecap="round" stroke-linejoin="round"/>
<path d="M12 8.625C12.6213 8.625 13.125 8.12132 13.125 7.5C13.125 6.87868 12.6213 6.375 12 6.375C11.3787 6.375 10.875 6.87868 10.875 7.5C10.875 8.12132 11.3787 8.625 12 8.625Z" fill="#191C1F"/>
</svg>
