<svg width="24" height="24" viewBox="0 0 24 24" fill="none" xmlns="http://www.w3.org/2000/svg">
<path d="M15 12L10.5 9V15L15 12Z" stroke="#191C1F" stroke-width="1.5" stroke-linecap="round" stroke-linejoin="round"/>
<path d="M2.25 12C2.25 14.7938 2.54062 16.425 2.75625 17.2688C2.81571 17.4977 2.92813 17.7095 3.08447 17.887C3.2408 18.0645 3.43666 18.2028 3.65625 18.2907C6.79688 19.4907 12 19.4625 12 19.4625C12 19.4625 17.2031 19.4907 20.3438 18.2907C20.5633 18.2028 20.7592 18.0645 20.9155 17.887C21.0719 17.7095 21.1843 17.4977 21.2438 17.2688C21.4594 16.425 21.75 14.7938 21.75 12C21.75 9.20628 21.4594 7.57503 21.2438 6.73128C21.1843 6.50235 21.0719 6.29059 20.9155 6.11309C20.7592 5.93558 20.5633 5.79731 20.3438 5.70941C17.2031 4.50941 12 4.53753 12 4.53753C12 4.53753 6.79688 4.50941 3.65625 5.70941C3.43666 5.79731 3.2408 5.93558 3.08447 6.11309C2.92813 6.29059 2.81571 6.50235 2.75625 6.73128C2.54062 7.57503 2.25 9.20628 2.25 12Z" stroke="#191C1F" stroke-width="1.5" stroke-linecap="round" stroke-linejoin="round"/>
</svg>
