<svg width="156" height="16" viewBox="0 0 156 16" fill="none" xmlns="http://www.w3.org/2000/svg">
<path d="M5.03184 14.5024C11.0699 14.5024 14.3718 9.49713 14.3718 5.15673C14.3718 5.01458 14.3689 4.87308 14.3625 4.73217C15.005 4.26699 15.5595 3.69103 16 3.03128C15.4118 3.29294 14.7789 3.46904 14.1149 3.54844C14.7926 3.14181 15.3129 2.49851 15.5584 1.73169C14.914 2.11419 14.2091 2.38382 13.4739 2.52898C12.8749 1.89052 12.0221 1.49121 11.0778 1.49121C9.26494 1.49121 7.79489 2.96219 7.79489 4.7754C7.79489 5.03319 7.82374 5.28385 7.88006 5.52436C5.15177 5.38699 2.73252 4.07995 1.11343 2.09252C0.821818 2.59379 0.668434 3.16349 0.668943 3.74345C0.668943 4.88304 1.24846 5.88903 2.12976 6.47759C1.60846 6.46166 1.0986 6.32077 0.643057 6.06676C0.642569 6.08055 0.642569 6.09399 0.642569 6.10872C0.642569 7.69944 1.77408 9.02759 3.27613 9.32854C2.99402 9.40542 2.70292 9.44428 2.41054 9.44411C2.19938 9.44411 1.99359 9.42333 1.79359 9.38491C2.21151 10.69 3.42335 11.6397 4.86013 11.6663C3.73659 12.5474 2.32127 13.0723 0.783024 13.0723C0.521349 13.0725 0.259888 13.0573 0 13.0267C1.45281 13.9585 3.17789 14.5022 5.032 14.5022" fill="#00A218"/>
<g clip-path="url(#clip0_2804_14473)">
<path fill-rule="evenodd" clip-rule="evenodd" d="M36 0C40.4183 0 44 3.58173 44 8C44 12.4183 40.4183 16 36 16C31.5817 16 28 12.4183 28 8C28 3.58173 31.5817 0 36 0Z" fill="#00A218"/>
<path d="M37.0414 15.933V9.75237H38.7849L39.016 7.5771H37.0414L37.0444 6.48827C37.0444 5.92091 37.0983 5.61705 37.9137 5.61705H39.0038V3.44141H37.2599C35.1652 3.44141 34.4281 4.4966 34.4281 6.27136V7.57726H33.1223V9.75274H34.4281V15.8453C34.9368 15.9466 35.4627 16.0001 36.0011 16.0001C36.349 16.0001 36.6965 15.9777 37.0414 15.933Z" fill="white"/>
</g>
<g clip-path="url(#clip1_2804_14473)">
<path d="M63.0241 0.0535087C60.3652 0.350326 57.7157 2.50147 57.6064 5.57431C57.5376 7.4505 58.0703 8.85804 59.8559 9.25327C60.6308 7.88635 59.606 7.58485 59.4466 6.59598C58.7921 2.54365 64.1207 -0.219876 66.9092 2.60926C68.8386 4.56825 67.5685 10.5952 64.4566 9.96876C61.4759 9.37044 65.9157 4.57294 63.5365 3.63093C61.6025 2.86546 60.5745 5.97266 61.4915 7.51611C60.9541 10.1703 59.7966 12.6714 60.2652 16.0004C61.7852 14.8975 62.2976 12.7854 62.7179 10.5827C63.4818 11.0467 63.8895 11.5294 64.8643 11.6044C68.4589 11.8824 70.4664 8.01602 69.9758 4.44952C69.54 1.28764 66.3843 -0.321418 63.0241 0.0535087Z" fill="white"/>
</g>
<g clip-path="url(#clip2_2804_14473)">
<path d="M92 16C96.4183 16 100 12.4183 100 8C100 3.58172 96.4183 0 92 0C87.5817 0 84 3.58172 84 8C84 12.4183 87.5817 16 92 16Z" fill="#00A218"/>
<path d="M97.3362 8.00013C97.3378 8.10973 97.3242 8.21913 97.2954 8.32493C97.2666 8.43073 97.223 8.53213 97.1658 8.62573C97.1088 8.71933 97.0388 8.80454 96.958 8.87874C96.8772 8.95294 96.7864 9.01534 96.6882 9.06414C96.6904 9.09334 96.6922 9.12274 96.6932 9.15214C96.6956 9.21078 96.6956 9.2695 96.6932 9.32814C96.6922 9.35754 96.6904 9.38694 96.6882 9.41614C96.6882 11.2082 94.6002 12.6642 92.0242 12.6642C89.4481 12.6642 87.3601 11.2082 87.3601 9.41614C87.3579 9.38694 87.3561 9.35754 87.3551 9.32814C87.3527 9.2695 87.3527 9.21078 87.3551 9.15214C87.3561 9.12274 87.3579 9.09334 87.3601 9.06414C87.2063 8.99342 87.0696 8.89012 86.9596 8.76138C86.8497 8.63264 86.769 8.48154 86.7231 8.31853C86.6774 8.15545 86.6676 7.98438 86.6946 7.81716C86.7215 7.64994 86.7845 7.49058 86.8791 7.35012C86.9737 7.20968 87.0977 7.09151 87.2425 7.00378C87.3873 6.91606 87.5495 6.8609 87.7177 6.84212C87.886 6.82325 88.0564 6.84121 88.217 6.89474C88.3777 6.94827 88.5248 7.03609 88.6481 7.15212C88.8771 6.99692 89.117 6.85849 89.3659 6.73791C89.6149 6.61751 89.8723 6.51511 90.1361 6.43191C90.4 6.34871 90.6696 6.28491 90.9426 6.24071C91.2156 6.19651 91.4916 6.17231 91.7682 6.16811L92.3602 3.39208C92.3668 3.35988 92.3798 3.32948 92.3984 3.30228C92.4168 3.27528 92.4406 3.25208 92.468 3.23428C92.4956 3.21648 92.5264 3.20428 92.5588 3.19828C92.591 3.19248 92.6242 3.19308 92.6562 3.20008L94.6162 3.59208C94.814 3.25228 95.2292 3.10668 95.5958 3.24828C95.9624 3.38988 96.172 3.77688 96.09 4.16129C96.0082 4.54569 95.659 4.81369 95.2666 4.79349C94.874 4.77329 94.5542 4.47089 94.5122 4.08009L92.8002 3.72008L92.2802 6.21611C92.5534 6.22191 92.826 6.24751 93.0956 6.29251C93.6355 6.3825 94.1595 6.54997 94.6516 6.78972C94.8973 6.90932 95.1342 7.04647 95.3602 7.20012C95.5227 7.04408 95.7269 6.93843 95.9482 6.89592C96.1695 6.85326 96.3983 6.87555 96.6072 6.96012C96.8161 7.04464 96.9961 7.1878 97.1254 7.37232C97.2548 7.55686 97.328 7.7749 97.3362 8.00013ZM89.3969 9.10634C89.4373 9.20334 89.4961 9.29154 89.5705 9.36574C89.6447 9.44014 89.7329 9.49894 89.8299 9.53934C89.927 9.5795 90.0311 9.60016 90.1361 9.60014C90.4598 9.60014 90.7514 9.40514 90.8754 9.10634C90.9992 8.80734 90.9306 8.46333 90.7018 8.23453C90.473 8.00573 90.1289 7.93713 89.8299 8.06093C89.5311 8.18493 89.3361 8.47653 89.3361 8.80014C89.3361 8.90514 89.3567 9.00914 89.3969 9.10634ZM93.979 11.0268C94.02 10.9868 94.0434 10.9322 94.0442 10.875C94.045 10.8176 94.0228 10.7624 93.9828 10.7214C93.9428 10.6804 93.8882 10.657 93.831 10.6562C93.7736 10.6554 93.7184 10.6776 93.6722 10.7122C93.5519 10.7984 93.4245 10.8744 93.2914 10.9392C93.1583 11.004 93.0199 11.0574 92.8778 11.099C92.7358 11.1404 92.5904 11.1698 92.4434 11.1868C92.2962 11.2038 92.148 11.2082 92.0002 11.2002C91.8526 11.2068 91.7046 11.2008 91.558 11.1824C91.4113 11.1641 91.2665 11.1334 91.1252 11.0904C90.9836 11.0476 90.8462 10.9928 90.714 10.9268C90.5818 10.8608 90.4554 10.7836 90.3362 10.6962C90.2948 10.6622 90.2422 10.6448 90.1886 10.6474C90.135 10.65 90.0843 10.6726 90.0463 10.7104C90.0085 10.7484 89.9859 10.799 89.9833 10.8526C89.9807 10.9062 89.9981 10.9588 90.0321 11.0002C90.1728 11.1062 90.3222 11.1998 90.4788 11.2802C90.6354 11.3606 90.7988 11.4272 90.9668 11.4796C91.1348 11.532 91.307 11.5698 91.4816 11.5928C91.6562 11.6156 91.8324 11.6234 92.0082 11.6162C92.184 11.6234 92.3602 11.6156 92.5348 11.5928C92.8845 11.5468 93.2237 11.441 93.5376 11.2802C93.6942 11.1998 93.8436 11.1062 93.9842 11.0002L93.979 11.0268ZM93.8322 9.66414C93.9406 9.66534 94.0482 9.64434 94.1484 9.60274C94.2486 9.56094 94.3392 9.49934 94.4148 9.42154C94.4904 9.34374 94.5492 9.25134 94.588 9.14994C94.6268 9.04866 94.6446 8.94052 94.6402 8.83214C94.6402 8.50853 94.4452 8.21693 94.1464 8.09293C93.8474 7.96913 93.5034 8.03773 93.2746 8.26653C93.0458 8.49533 92.9772 8.83934 93.101 9.13834C93.225 9.43714 93.5166 9.63214 93.8402 9.63214L93.8322 9.66414Z" fill="white"/>
</g>
<path d="M120.354 13.5026L117.076 13.4427C116.015 13.4218 114.952 13.4635 113.911 13.2472C112.329 12.924 112.217 11.3393 112.099 10.0101C111.938 8.14132 112 6.23865 112.305 4.3855C112.477 3.34568 113.155 2.72522 114.203 2.6577C117.741 2.41267 121.303 2.44171 124.833 2.55602C125.206 2.5665 125.581 2.62378 125.949 2.68898C127.764 3.00697 127.808 4.80277 127.926 6.31449C128.043 7.84181 127.993 9.37697 127.769 10.8939C127.589 12.1499 127.245 13.2031 125.793 13.3048C123.973 13.4378 122.194 13.5448 120.369 13.5107C120.369 13.5026 120.359 13.5026 120.354 13.5026ZM118.427 10.3229C119.799 9.53569 121.144 8.76163 122.507 7.97973C121.133 7.19255 119.791 6.41849 118.427 5.63659V10.3229Z" fill="#00A218"/>
<g clip-path="url(#clip3_2804_14473)">
<path d="M145.601 7.9998C145.601 6.67437 146.675 5.59961 148 5.59961C149.326 5.59961 150.401 6.67437 150.401 7.9998C150.401 9.32524 149.326 10.4 148 10.4C146.675 10.4 145.601 9.32524 145.601 7.9998ZM144.303 7.9998C144.303 10.0417 145.958 11.6969 148 11.6969C150.042 11.6969 151.698 10.0417 151.698 7.9998C151.698 5.95788 150.042 4.30269 148 4.30269C145.958 4.30269 144.303 5.95777 144.303 7.9998H144.303ZM150.98 4.1561C150.98 4.32698 151.031 4.49405 151.125 4.63617C151.22 4.77829 151.355 4.88909 151.513 4.95454C151.671 5.02 151.845 5.03718 152.012 5.00391C152.18 4.97064 152.334 4.88841 152.455 4.76763C152.576 4.64684 152.658 4.49293 152.691 4.32534C152.725 4.15776 152.708 3.98403 152.642 3.82613C152.577 3.66822 152.466 3.53324 152.324 3.43825C152.182 3.34325 152.015 3.29251 151.844 3.29244H151.844C151.615 3.29255 151.395 3.38357 151.233 3.5455C151.071 3.70743 150.98 3.92704 150.98 4.1561ZM145.091 13.8605C144.389 13.8285 144.008 13.7116 143.754 13.6128C143.418 13.4819 143.178 13.3261 142.926 13.0742C142.674 12.8224 142.518 12.5828 142.388 12.2467C142.289 11.9932 142.172 11.6116 142.14 10.9096C142.105 10.1506 142.098 9.92266 142.098 7.99992C142.098 6.07717 142.105 5.84983 142.14 5.09026C142.172 4.38828 142.29 4.00738 142.388 3.75319C142.518 3.41703 142.674 3.17719 142.926 2.92501C143.178 2.67284 143.418 2.51675 143.754 2.38645C144.008 2.28761 144.389 2.17068 145.091 2.13877C145.85 2.10387 146.078 2.0969 148 2.0969C149.922 2.0969 150.151 2.10433 150.91 2.13889C151.612 2.17086 151.993 2.28865 152.247 2.38657C152.583 2.51686 152.823 2.6733 153.075 2.92513C153.328 3.17696 153.483 3.41715 153.614 3.7533C153.713 4.00674 153.83 4.3884 153.862 5.09037C153.897 5.84994 153.904 6.07729 153.904 8.00003C153.904 9.92278 153.897 10.1501 153.862 10.9097C153.83 11.6117 153.712 11.9932 153.614 12.2468C153.483 12.5829 153.327 12.8228 153.075 13.0744C152.824 13.326 152.583 13.4821 152.247 13.6129C151.994 13.7118 151.612 13.8287 150.91 13.8606C150.151 13.8955 149.923 13.9025 148 13.9025C146.078 13.9025 145.85 13.8955 145.091 13.8606V13.8605ZM145.032 0.843408C144.265 0.878314 143.742 0.999849 143.284 1.17783C142.811 1.36164 142.409 1.60822 142.009 2.00831C141.608 2.4084 141.362 2.80976 141.178 3.28375C141 3.74144 140.879 4.26491 140.844 5.03139C140.808 5.79908 140.8 6.04451 140.8 7.9998C140.8 9.95509 140.808 10.2005 140.844 10.9682C140.879 11.7348 141 12.2582 141.178 12.7159C141.362 13.1893 141.608 13.5914 142.009 13.9913C142.409 14.3912 142.81 14.6375 143.284 14.8218C143.742 14.9998 144.265 15.1213 145.032 15.1562C145.8 15.1911 146.045 15.1998 148 15.1998C149.956 15.1998 150.201 15.1917 150.969 15.1562C151.735 15.1213 152.259 14.9998 152.717 14.8218C153.19 14.6375 153.591 14.3914 153.992 13.9913C154.393 13.5912 154.638 13.1893 154.823 12.7159C155.001 12.2582 155.123 11.7347 155.157 10.9682C155.192 10.2 155.2 9.95509 155.2 7.9998C155.2 6.04451 155.192 5.79908 155.157 5.03139C155.122 4.26485 155.001 3.74115 154.823 3.28375C154.638 2.81033 154.392 2.40903 153.992 2.00831C153.592 1.60759 153.19 1.36164 152.717 1.17783C152.259 0.999849 151.735 0.877738 150.969 0.843408C150.202 0.80833 149.956 0.799805 148.001 0.799805C146.046 0.799805 145.8 0.807926 145.032 0.843408" fill="#00A218"/>
</g>
<defs>
<clipPath id="clip0_2804_14473">
<rect width="16" height="16" fill="white" transform="translate(28)"/>
</clipPath>
<clipPath id="clip1_2804_14473">
<rect width="16" height="16" fill="white" transform="translate(56)"/>
</clipPath>
<clipPath id="clip2_2804_14473">
<rect width="16" height="16" fill="white" transform="translate(84)"/>
</clipPath>
<clipPath id="clip3_2804_14473">
<rect width="16" height="16" fill="white" transform="translate(140)"/>
</clipPath>
</defs>
</svg>
